<svg xmlns="http://www.w3.org/2000/svg" xmlns:xlink="http://www.w3.org/1999/xlink" viewBox="0 0 124.29 87.92"><defs><style>.cls-1{fill:url(#铃琨眄_沭噤桢眚_40);}.cls-2{fill:url(#铃琨眄_沭噤桢眚_38);}.cls-3{fill:url(#铃琨眄_沭噤桢眚_37);}.cls-4{fill:url(#铃琨眄_沭噤桢眚_37-2);}.cls-5{fill:url(#铃琨眄_沭噤桢眚_37-3);}.cls-6{fill:url(#铃琨眄_沭噤桢眚_72);}.cls-7{fill:url(#铃琨眄_沭噤桢眚_72-2);}.cls-8{fill:url(#铃琨眄_沭噤桢眚_72-3);}.cls-9{fill:url(#铃琨眄_沭噤桢眚_12);}.cls-10{fill:url(#铃琨眄_沭噤桢眚_37-4);}.cls-11{fill:url(#铃琨眄_沭噤桢眚_12-2);}.cls-12{fill:url(#铃琨眄_沭噤桢眚_36);}.cls-13{fill:url(#铃琨眄_沭噤桢眚_66);}.cls-14{fill:url(#铃琨眄_沭噤桢眚_66-2);}.cls-15{fill:url(#铃琨眄_沭噤桢眚_66-3);}.cls-16{fill:url(#铃琨眄_沭噤桢眚_66-4);}.cls-17{fill:url(#铃琨眄_沭噤桢眚_66-5);}.cls-18{fill:url(#铃琨眄_沭噤桢眚_66-6);}.cls-19{fill:url(#铃琨眄_沭噤桢眚_66-7);}.cls-20{fill:url(#铃琨眄_沭噤桢眚_66-8);}.cls-21{fill:url(#铃琨眄_沭噤桢眚_36-2);}.cls-22{fill:url(#铃琨眄_沭噤桢眚_31);}.cls-23{fill:url(#铃琨眄_沭噤桢眚_31-2);}.cls-24{fill:url(#铃琨眄_沭噤桢眚_31-3);}.cls-25{fill:url(#铃琨眄_沭噤桢眚_31-4);}.cls-26{fill:url(#铃琨眄_沭噤桢眚_31-5);}.cls-27{fill:url(#铃琨眄_沭噤桢眚_31-6);}.cls-28{fill:url(#铃琨眄_沭噤桢眚_31-7);}.cls-29{fill:url(#铃琨眄_沭噤桢眚_31-8);}.cls-30{fill:url(#铃琨眄_沭噤桢眚_35);}.cls-31{fill:url(#铃琨眄_沭噤桢眚_34);}.cls-32{fill:url(#铃琨眄_沭噤桢眚_33);}.cls-33{fill:url(#铃琨眄_沭噤桢眚_72-4);}.cls-34{fill:url(#铃琨眄_沭噤桢眚_31-9);}.cls-35{fill:url(#铃琨眄_沭噤桢眚_31-10);}.cls-36{fill:url(#铃琨眄_沭噤桢眚_4);}.cls-37{fill:url(#铃琨眄_沭噤桢眚_4-2);}.cls-38{fill:url(#铃琨眄_沭噤桢眚_4-3);}.cls-39{fill:url(#铃琨眄_沭噤桢眚_4-4);}.cls-40{fill:url(#铃琨眄_沭噤桢眚_4-5);}</style><linearGradient id="铃琨眄_沭噤桢眚_40" x1="58.12" y1="20.54" x2="73.55" y2="47.27" gradientUnits="userSpaceOnUse"><stop offset="0" stop-color="#84cabb"/><stop offset="0.2" stop-color="#7ac0bc"/><stop offset="0.54" stop-color="#60a7bd"/><stop offset="0.98" stop-color="#367dc0"/><stop offset="1" stop-color="#347bc0"/></linearGradient><radialGradient id="铃琨眄_沭噤桢眚_38" cx="65.76" cy="67.71" r="11.7" gradientUnits="userSpaceOnUse"><stop offset="0" stop-color="#62c4de"/><stop offset="0.49" stop-color="#78a1d5"/><stop offset="1" stop-color="#8b71b1"/></radialGradient><linearGradient id="铃琨眄_沭噤桢眚_37" x1="88.01" y1="66.85" x2="89.24" y2="68.98" gradientUnits="userSpaceOnUse"><stop offset="0" stop-color="#2bb6eb"/><stop offset="0.49" stop-color="#547ec0"/><stop offset="1" stop-color="#6c52a0"/></linearGradient><linearGradient id="铃琨眄_沭噤桢眚_37-2" x1="78.12" y1="49.75" x2="79.35" y2="51.88" xlink:href="#铃琨眄_沭噤桢眚_37"/><linearGradient id="铃琨眄_沭噤桢眚_37-3" x1="88.01" y1="55.46" x2="89.24" y2="57.59" xlink:href="#铃琨眄_沭噤桢眚_37"/><linearGradient id="铃琨眄_沭噤桢眚_72" x1="87.24" y1="68.21" x2="88.98" y2="68.21" gradientUnits="userSpaceOnUse"><stop offset="0" stop-color="#96d1c8"/><stop offset="0.2" stop-color="#91cec9"/><stop offset="0.43" stop-color="#83c5cb"/><stop offset="0.68" stop-color="#6bb5cf"/><stop offset="0.94" stop-color="#4aa0d5"/><stop offset="1" stop-color="#419ad6"/></linearGradient><linearGradient id="铃琨眄_沭噤桢眚_72-2" x1="87.24" y1="56.82" x2="88.98" y2="56.82" xlink:href="#铃琨眄_沭噤桢眚_72"/><linearGradient id="铃琨眄_沭噤桢眚_72-3" x1="77.35" y1="51.11" x2="79.09" y2="51.11" xlink:href="#铃琨眄_沭噤桢眚_72"/><linearGradient id="铃琨眄_沭噤桢眚_12" x1="76.99" y1="59.5" x2="90.31" y2="59.5" gradientUnits="userSpaceOnUse"><stop offset="0" stop-color="#35a8e0"/><stop offset="0.49" stop-color="#436bb3"/><stop offset="1" stop-color="#5e489a"/></linearGradient><linearGradient id="铃琨眄_沭噤桢眚_37-4" x1="80.24" y1="46.26" x2="93.41" y2="69.08" xlink:href="#铃琨眄_沭噤桢眚_37"/><linearGradient id="铃琨眄_沭噤桢眚_12-2" x1="81.73" y1="45.4" x2="94.9" y2="68.22" xlink:href="#铃琨眄_沭噤桢眚_12"/><linearGradient id="铃琨眄_沭噤桢眚_36" x1="30.07" y1="41.2" x2="41.32" y2="60.68" gradientUnits="userSpaceOnUse"><stop offset="0.19" stop-color="#35a8e0"/><stop offset="0.61" stop-color="#436bb3"/><stop offset="1" stop-color="#5e489a"/></linearGradient><linearGradient id="铃琨眄_沭噤桢眚_66" x1="34.67" y1="50.01" x2="35.9" y2="52.14" gradientUnits="userSpaceOnUse"><stop offset="0" stop-color="#46bfe7"/><stop offset="0.49" stop-color="#6187c5"/><stop offset="1" stop-color="#705ba5"/></linearGradient><linearGradient id="铃琨眄_沭噤桢眚_66-2" x1="38.86" y1="54.42" x2="40.09" y2="56.55" xlink:href="#铃琨眄_沭噤桢眚_66"/><linearGradient id="铃琨眄_沭噤桢眚_66-3" x1="43.04" y1="54.83" x2="44.27" y2="56.96" xlink:href="#铃琨眄_沭噤桢眚_66"/><linearGradient id="铃琨眄_沭噤桢眚_66-4" x1="44.77" y1="51.01" x2="46" y2="53.14" xlink:href="#铃琨眄_沭噤桢眚_66"/><linearGradient id="铃琨眄_沭噤桢眚_66-5" x1="32.94" y1="44.18" x2="34.17" y2="46.31" xlink:href="#铃琨眄_沭噤桢眚_66"/><linearGradient id="铃琨眄_沭噤桢眚_66-6" x1="42.82" y1="45.31" x2="44.04" y2="47.44" xlink:href="#铃琨眄_沭噤桢眚_66"/><linearGradient id="铃琨眄_沭噤桢眚_66-7" x1="38.85" y1="40.77" x2="40.08" y2="42.9" xlink:href="#铃琨眄_沭噤桢眚_66"/><linearGradient id="铃琨眄_沭噤桢眚_66-8" x1="34.68" y1="40.35" x2="35.9" y2="42.48" xlink:href="#铃琨眄_沭噤桢眚_66"/><linearGradient id="铃琨眄_沭噤桢眚_36-2" x1="37.7" y1="42.96" x2="43.6" y2="53.17" xlink:href="#铃琨眄_沭噤桢眚_36"/><linearGradient id="铃琨眄_沭噤桢眚_31" x1="32.18" y1="45.54" x2="33.92" y2="45.54" gradientUnits="userSpaceOnUse"><stop offset="0" stop-color="#aedbd7"/><stop offset="0.23" stop-color="#aad9d8"/><stop offset="0.45" stop-color="#9fd5da"/><stop offset="0.65" stop-color="#8dcdde"/><stop offset="0.85" stop-color="#73c2e4"/><stop offset="1" stop-color="#5ab8e9"/></linearGradient><linearGradient id="铃琨眄_沭噤桢眚_31-2" x1="33.91" y1="51.37" x2="35.65" y2="51.37" xlink:href="#铃琨眄_沭噤桢眚_31"/><linearGradient id="铃琨眄_沭噤桢眚_31-3" x1="38.09" y1="55.78" x2="39.83" y2="55.78" xlink:href="#铃琨眄_沭噤桢眚_31"/><linearGradient id="铃琨眄_沭噤桢眚_31-4" x1="42.27" y1="56.19" x2="44.01" y2="56.19" xlink:href="#铃琨眄_沭噤桢眚_31"/><linearGradient id="铃琨眄_沭噤桢眚_31-5" x1="44" y1="52.37" x2="45.74" y2="52.37" xlink:href="#铃琨眄_沭噤桢眚_31"/><linearGradient id="铃琨眄_沭噤桢眚_31-6" x1="42.27" y1="46.54" x2="44.01" y2="46.54" xlink:href="#铃琨眄_沭噤桢眚_31"/><linearGradient id="铃琨眄_沭噤桢眚_31-7" x1="38.09" y1="42.13" x2="39.83" y2="42.13" xlink:href="#铃琨眄_沭噤桢眚_31"/><linearGradient id="铃琨眄_沭噤桢眚_31-8" x1="33.91" y1="41.71" x2="35.65" y2="41.71" xlink:href="#铃琨眄_沭噤桢眚_31"/><linearGradient id="铃琨眄_沭噤桢眚_35" x1="31.62" y1="49.11" x2="46.1" y2="49.11" gradientUnits="userSpaceOnUse"><stop offset="0" stop-color="#358ece"/><stop offset="0.49" stop-color="#2e56a6"/><stop offset="1" stop-color="#493f96"/></linearGradient><linearGradient id="铃琨眄_沭噤桢眚_34" x1="28.85" y1="48.6" x2="50.63" y2="48.6" gradientUnits="userSpaceOnUse"><stop offset="0" stop-color="#84cabb"/><stop offset="0.24" stop-color="#80c6bb"/><stop offset="0.46" stop-color="#75bbbc"/><stop offset="0.67" stop-color="#63a9bd"/><stop offset="0.87" stop-color="#498fbf"/><stop offset="1" stop-color="#347bc0"/></linearGradient><linearGradient id="铃琨眄_沭噤桢眚_33" x1="28.53" y1="49.52" x2="47.77" y2="49.52" xlink:href="#铃琨眄_沭噤桢眚_38"/><linearGradient id="铃琨眄_沭噤桢眚_72-4" x1="34.61" y1="49.14" x2="42.95" y2="49.14" xlink:href="#铃琨眄_沭噤桢眚_72"/><linearGradient id="铃琨眄_沭噤桢眚_31-9" x1="80" y1="55.94" x2="84.63" y2="63.96" xlink:href="#铃琨眄_沭噤桢眚_31"/><linearGradient id="铃琨眄_沭噤桢眚_31-10" x1="33.49" y1="32.37" x2="50.66" y2="62.11" xlink:href="#铃琨眄_沭噤桢眚_31"/><linearGradient id="铃琨眄_沭噤桢眚_4" x1="35.53" y1="35.32" x2="49.14" y2="58.89" gradientUnits="userSpaceOnUse"><stop offset="0" stop-color="#96d1c8"/><stop offset="0.23" stop-color="#92cfc9"/><stop offset="0.44" stop-color="#87c7ca"/><stop offset="0.65" stop-color="#75bbce"/><stop offset="0.85" stop-color="#5babd2"/><stop offset="1" stop-color="#419ad6"/></linearGradient><linearGradient id="铃琨眄_沭噤桢眚_4-2" x1="81.73" y1="54.94" x2="86.36" y2="62.96" xlink:href="#铃琨眄_沭噤桢眚_4"/><linearGradient id="铃琨眄_沭噤桢眚_4-3" x1="76.14" y1="59.51" x2="79.61" y2="65.52" xlink:href="#铃琨眄_沭噤桢眚_4"/><linearGradient id="铃琨眄_沭噤桢眚_4-4" x1="64.81" y1="57.95" x2="71.75" y2="57.95" xlink:href="#铃琨眄_沭噤桢眚_4"/><linearGradient id="铃琨眄_沭噤桢眚_4-5" x1="53.79" y1="20.65" x2="70.96" y2="50.39" xlink:href="#铃琨眄_沭噤桢眚_4"/></defs><g id="图层_2" data-name="图层 2"><polygon class="cls-1" points="39.66 31.28 38.86 31.66 69.66 13.88 70.45 13.51 71.31 13.27 72.23 13.16 73.19 13.19 74.2 13.36 75.24 13.65 76.3 14.08 77.37 14.64 78.44 15.32 79.5 16.11 80.54 17.01 81.55 18.01 82.52 19.1 83.43 20.27 84.29 21.5 85.09 22.79 85.81 24.12 86.44 25.48 87 26.86 87.45 28.24 87.81 29.61 88.07 30.96 88.23 32.28 88.28 33.54 88.23 34.75 88.07 35.88 87.81 36.93 87.45 37.88 87 38.74 86.44 39.48 85.81 40.11 85.09 40.61 74.26 46.86 68.02 50.46 54.29 58.38 55.01 57.88 55.65 57.26 56.2 56.52 56.66 55.66 57.02 54.71 57.28 53.66 57.44 52.52 57.49 51.32 57.44 50.05 57.28 48.74 57.02 47.39 56.66 46.02 56.2 44.64 55.65 43.26 55.01 41.9 54.29 40.57 53.5 39.28 52.64 38.04 51.72 36.88 50.75 35.79 49.74 34.79 48.71 33.89 47.65 33.1 46.58 32.42 45.51 31.86 44.45 31.43 43.41 31.13 42.4 30.97 41.43 30.94 40.52 31.04 39.66 31.28"/><polygon class="cls-2" points="67.97 65.97 68.26 65.96 68.58 65.97 68.6 65.97 68.94 65.93 69.18 65.91 69.27 65.89 69.59 65.82 69.75 65.8 69.89 65.74 70.19 65.64 70.28 65.62 70.46 65.52 70.72 65.4 70.74 65.4 70.94 65.25 71.13 65.13 71.16 65.1 71.33 64.93 71.43 64.83 71.48 64.75 71.6 64.57 71.64 64.5 71.68 64.38 71.74 64.19 71.75 64.16 71.75 63.01 71.75 63.01 72.08 63.23 72.37 63.46 72.6 63.68 72.72 63.79 72.85 63.91 72.94 64.01 73.17 64.28 73.42 64.59 73.49 64.69 73.5 64.7 73.65 64.95 73.91 65.37 73.91 65.38 73.91 65.38 74.08 65.75 74.18 65.97 74.25 66.15 74.41 66.63 74.49 66.98 74.59 67.48 74.62 67.84 74.65 68.35 74.64 68.39 74.62 68.86 74.59 69.22 74.49 69.72 74.41 70.07 74.25 70.55 74.11 70.89 73.91 71.34 73.65 71.75 73.47 72.06 73.17 72.42 72.94 72.69 72.68 72.95 72.37 73.24 72.08 73.47 71.75 73.69 71.45 73.88 71.13 74.06 70.83 74.19 70.51 74.33 70.17 74.45 69.81 74.54 69.44 74.62 69.29 74.65 68.95 74.7 68.61 74.73 68.26 74.74 67.91 74.73 67.57 74.7 67.23 74.65 67.08 74.62 66.71 74.54 66.35 74.45 66.01 74.33 65.69 74.19 65.39 74.06 65.07 73.88 64.77 73.69 64.44 73.47 64.16 73.24 63.84 72.95 63.58 72.69 63.35 72.42 63.06 72.06 62.87 71.75 62.61 71.34 62.41 70.89 62.27 70.55 62.12 70.07 62.03 69.72 61.93 69.22 61.9 68.86 61.87 68.35 61.9 67.84 61.93 67.48 62.03 66.98 62.12 66.63 62.27 66.15 62.41 65.81 62.61 65.37 62.87 64.95 63.06 64.65 63.35 64.28 63.58 64.01 63.84 63.75 64.16 63.46 64.44 63.23 64.77 63.01 64.81 62.99 64.81 64.14 64.81 64.17 64.88 64.36 64.91 64.49 64.95 64.55 65.07 64.73 65.12 64.81 65.22 64.91 65.39 65.08 65.42 65.12 65.59 65.23 65.81 65.39 66.07 65.5 66.28 65.61 66.34 65.63 66.63 65.72 66.8 65.79 66.94 65.81 67.26 65.88 67.38 65.91 67.59 65.92 67.92 65.96 67.97 65.97"/><polygon class="cls-3" points="88.08 66.86 88.19 66.86 88.3 66.88 88.41 66.92 88.52 66.97 88.63 67.05 88.75 67.14 88.85 67.24 88.95 67.36 89.05 67.48 89.13 67.62 89.21 67.76 89.27 67.91 89.32 68.06 89.36 68.2 89.38 68.34 89.39 68.48 89.38 68.6 89.36 68.72 89.32 68.82 89.27 68.91 89.21 68.98 89.13 69.04 88.72 69.28 88.8 69.22 88.86 69.15 88.91 69.06 88.95 68.96 88.97 68.84 88.98 68.71 88.97 68.58 88.95 68.44 88.91 68.29 88.86 68.15 88.8 68 88.72 67.86 88.64 67.72 88.54 67.59 88.44 67.48 88.33 67.37 88.22 67.28 88.11 67.21 88 67.15 87.88 67.11 87.78 67.09 87.67 67.09 87.58 67.11 87.49 67.15 87.91 66.91 87.99 66.87 88.08 66.86"/><polygon class="cls-4" points="78.1 49.78 78.2 49.76 78.3 49.76 78.41 49.78 78.52 49.82 78.63 49.87 78.75 49.95 78.86 50.04 78.97 50.14 79.07 50.26 79.16 50.39 79.25 50.52 79.32 50.66 79.39 50.81 79.44 50.96 79.47 51.1 79.5 51.24 79.5 51.38 79.5 51.51 79.47 51.62 79.44 51.73 79.39 51.81 79.32 51.89 79.25 51.94 78.84 52.18 78.91 52.12 78.97 52.05 79.03 51.96 79.06 51.86 79.08 51.74 79.09 51.62 79.08 51.48 79.06 51.34 79.03 51.19 78.97 51.05 78.91 50.9 78.84 50.76 78.75 50.62 78.66 50.5 78.56 50.38 78.45 50.27 78.33 50.19 78.22 50.11 78.11 50.05 78 50.02 77.89 50 77.79 49.99 77.69 50.01 77.61 50.05 78.02 49.81 78.1 49.78"/><polygon class="cls-5" points="88.08 55.47 88.19 55.47 88.3 55.49 88.41 55.52 88.52 55.58 88.63 55.66 88.75 55.75 88.85 55.85 88.95 55.97 89.05 56.09 89.13 56.23 89.21 56.37 89.27 56.52 89.32 56.66 89.36 56.81 89.38 56.95 89.39 57.09 89.38 57.21 89.36 57.33 89.32 57.43 89.27 57.52 89.21 57.59 89.13 57.65 88.72 57.89 88.8 57.83 88.86 57.76 88.91 57.67 88.95 57.57 88.97 57.45 88.98 57.33 88.97 57.19 88.95 57.05 88.91 56.9 88.86 56.76 88.8 56.61 88.72 56.47 88.64 56.33 88.54 56.2 88.44 56.09 88.33 55.98 88.22 55.89 88.11 55.82 88 55.76 87.88 55.72 87.78 55.7 87.67 55.7 87.58 55.72 87.49 55.76 87.91 55.52 87.99 55.48 88.08 55.47"/><polygon class="cls-6" points="88 67.15 88.11 67.21 88.22 67.28 88.33 67.37 88.44 67.48 88.54 67.59 88.64 67.72 88.72 67.86 88.8 68 88.86 68.15 88.91 68.29 88.95 68.44 88.97 68.58 88.98 68.71 88.97 68.84 88.95 68.96 88.91 69.06 88.86 69.15 88.8 69.22 88.72 69.28 88.64 69.31 88.54 69.33 88.44 69.33 88.33 69.31 88.22 69.27 88.11 69.22 88 69.14 87.88 69.05 87.78 68.95 87.67 68.83 87.58 68.7 87.49 68.57 87.42 68.43 87.36 68.28 87.31 68.13 87.27 67.99 87.25 67.85 87.24 67.71 87.25 67.58 87.27 67.47 87.31 67.36 87.36 67.28 87.42 67.2 87.49 67.15 87.58 67.11 87.67 67.09 87.78 67.09 87.88 67.11 88 67.15"/><polygon class="cls-7" points="88 55.76 88.11 55.82 88.22 55.89 88.33 55.98 88.44 56.09 88.54 56.2 88.64 56.33 88.72 56.47 88.8 56.61 88.86 56.76 88.91 56.9 88.95 57.05 88.97 57.19 88.98 57.33 88.97 57.45 88.95 57.57 88.91 57.67 88.86 57.76 88.8 57.83 88.72 57.89 88.64 57.92 88.54 57.94 88.44 57.94 88.33 57.92 88.22 57.88 88.11 57.83 88 57.75 87.88 57.66 87.78 57.56 87.67 57.44 87.58 57.31 87.49 57.18 87.42 57.03 87.36 56.89 87.31 56.74 87.27 56.6 87.25 56.46 87.24 56.32 87.25 56.19 87.27 56.08 87.31 55.98 87.36 55.89 87.42 55.81 87.49 55.76 87.58 55.72 87.67 55.7 87.78 55.7 87.88 55.72 88 55.76"/><polygon class="cls-8" points="78.11 50.05 78.22 50.11 78.33 50.19 78.45 50.27 78.56 50.38 78.66 50.5 78.75 50.62 78.84 50.76 78.91 50.9 78.97 51.05 79.03 51.19 79.06 51.34 79.08 51.48 79.09 51.62 79.08 51.74 79.06 51.86 79.03 51.96 78.97 52.05 78.91 52.12 78.84 52.18 78.75 52.22 78.66 52.23 78.56 52.23 78.45 52.21 78.33 52.17 78.22 52.12 78.11 52.04 78 51.95 77.89 51.85 77.79 51.73 77.69 51.6 77.61 51.47 77.53 51.33 77.47 51.18 77.42 51.03 77.38 50.89 77.36 50.75 77.35 50.61 77.36 50.49 77.38 50.37 77.42 50.27 77.47 50.18 77.53 50.1 77.61 50.05 77.69 50.01 77.79 49.99 77.89 50 78 50.02 78.11 50.05"/><path class="cls-9" d="M87.25,56.46l0,.14,0,.14,0,.15.06.15.07.14.09.13.09.13.11.12.1.1.12.09.11.08.11.05.11,0,.11,0h.1l.1,0,.08,0,.41-.24.08-.06.06-.07,0-.09,0-.1,0-.12V57l0-.14,0-.15,0-.14-.06-.15-.08-.14-.08-.13L89,56l-.1-.12-.11-.1-.11-.09-.11-.08-.11-.06-.12,0-.1,0h-.11l-.09,0-.09,0-.41.24-.07.05-.06.08,0,.08,0,.11,0,.11v.27Zm0,11.39,0,.14,0,.14,0,.15.06.15.07.14.09.13.09.13.11.12.1.1.12.09.11.08.11,0,.11,0,.11,0h.1l.1,0,.08,0,.41-.24.08-.06.06-.07,0-.09,0-.1,0-.12v-.26l0-.14,0-.14,0-.15-.06-.15-.08-.14-.08-.14-.1-.12-.1-.12-.11-.1-.11-.09L88.52,67l-.11,0-.12,0-.1,0H88l-.09,0-.41.24-.07,0-.06.08,0,.09,0,.1,0,.11v.27ZM78.07,48.7l.14,0,.16.05.1,0,.16.08,10,5.8.16.1.16.12.15.13.15.14.14.15.13.17.12.17.12.18.1.19.1.19.08.19.07.2.06.2.05.19,0,.2,0,.13v12l0,.17,0,.15-.06.14-.06.13-.08.11-.08.09-.1.07-.11.06-.12,0-.12,0h-.28l-.15,0-.15,0-.11,0-.16-.08-8.49-4.9,1.95-1.12.37.17.55.15.52,0L84,64.3l.4-.23,1.73-1,.33-.35.24-.46.15-.56,0-.63,0-.68-.15-.73v0l-.23-.7-.33-.73-.41-.7-.46-.65-.52-.58-.56-.49-.57-.38-.57-.28L82.53,55l-.52,0-.47.11-1.73,1-.4.23-.33.36-.24.46-.15.55,0,.4L77,59V49.68l0-.17,0-.15,0-.14.06-.13.08-.11.09-.09.1-.07.11-.06.11,0,.13,0h.28Zm0,3.34.11.08.12.06.11,0,.1,0h.2l.09,0,.41-.24.07,0,.07-.08,0-.09,0-.1,0-.11v-.27l0-.14,0-.14,0-.15-.07-.15-.07-.14-.09-.13-.09-.13-.1-.12-.11-.1L78.75,50l-.12-.08-.11,0-.11,0-.11,0h-.1l-.1,0-.08,0-.41.24-.08.06-.06.07,0,.09,0,.1,0,.12v.26l0,.14,0,.15,0,.14.06.15.08.14.08.13.1.13.1.12L78,52Z"/><polygon class="cls-10" points="77.25 48.98 77.17 49.09 77.11 49.22 77.06 49.36 77.02 49.51 77 49.68 76.99 49.86 76.99 49.18 77 48.95 77.03 48.72 77.08 48.52 77.15 48.33 77.24 48.16 77.34 48.01 77.46 47.89 77.59 47.79 77.74 47.71 77.9 47.65 78.07 47.62 78.25 47.61 78.44 47.63 78.64 47.67 78.84 47.74 79 47.8 79.19 47.91 89.26 53.72 89.46 53.85 89.67 54.01 89.88 54.18 90.08 54.38 90.27 54.58 90.44 54.81 90.61 55.04 90.77 55.28 90.91 55.53 91.04 55.79 91.15 56.05 91.25 56.32 91.33 56.59 91.39 56.85 91.43 57.11 91.45 57.3 91.46 57.53 91.46 69.16 91.45 69.39 91.42 69.61 91.37 69.82 91.3 70.01 91.22 70.18 91.11 70.32 91 70.45 90.86 70.55 90.72 70.63 90.56 70.68 90.39 70.72 90.2 70.72 90.01 70.71 89.81 70.66 89.61 70.6 89.46 70.53 89.26 70.43 88.67 70.09 88.83 70.17 88.94 70.22 89.09 70.27 89.24 70.3 89.38 70.31 89.52 70.31 89.64 70.28 89.76 70.24 89.87 70.18 89.97 70.11 90.05 70.02 90.13 69.91 90.19 69.78 90.25 69.64 90.28 69.49 90.31 69.32 90.31 69.14 90.31 57.55 90.31 57.36 90.29 57.23 90.26 57.03 90.21 56.84 90.15 56.64 90.08 56.44 90 56.25 89.9 56.06 89.8 55.87 89.68 55.69 89.56 55.52 89.43 55.35 89.29 55.2 89.14 55.06 88.99 54.92 88.83 54.81 88.67 54.71 78.63 48.91 78.47 48.83 78.37 48.78 78.21 48.73 78.06 48.7 77.92 48.69 77.79 48.69 77.66 48.72 77.55 48.76 77.44 48.82 77.34 48.89 77.25 48.98"/><polygon class="cls-11" points="78.25 47.61 78.07 47.62 77.9 47.65 77.74 47.71 77.59 47.79 79.23 46.84 79.38 46.76 79.54 46.7 79.71 46.67 79.89 46.66 80.08 46.68 80.28 46.72 80.49 46.79 80.64 46.86 80.84 46.96 90.9 52.77 91.11 52.9 91.32 53.06 91.52 53.23 91.72 53.43 91.91 53.64 92.09 53.86 92.25 54.09 92.41 54.33 92.55 54.59 92.68 54.84 92.79 55.1 92.89 55.37 92.97 55.64 93.03 55.91 93.08 56.16 93.1 56.35 93.11 56.59 93.11 68.21 93.1 68.44 93.06 68.66 93.01 68.87 92.95 69.06 92.86 69.23 92.76 69.37 92.64 69.5 92.5 69.6 90.86 70.55 91 70.45 91.11 70.32 91.22 70.18 91.3 70.01 91.37 69.82 91.42 69.61 91.45 69.39 91.46 69.16 91.46 57.53 91.45 57.3 91.43 57.11 91.39 56.85 91.33 56.59 91.25 56.32 91.15 56.05 91.04 55.79 90.91 55.53 90.77 55.28 90.61 55.04 90.44 54.81 90.27 54.58 90.08 54.38 89.88 54.18 89.67 54.01 89.46 53.85 89.26 53.72 79.19 47.91 79 47.8 78.84 47.74 78.64 47.67 78.44 47.63 78.25 47.61"/><polygon class="cls-12" points="32.23 40.93 32.23 40.93 32.23 40.94 31.97 41.63 31.97 41.63 31.96 41.64 31.78 42.39 31.78 42.39 31.77 42.4 31.66 43.21 31.66 43.22 31.66 43.23 31.62 44.09 31.62 44.09 31.62 44.11 31.66 45.01 31.66 45.01 31.66 45.03 31.77 45.97 31.77 45.97 31.77 45.99 31.96 46.95 31.96 46.96 31.96 46.97 32.22 47.95 32.22 47.96 32.23 47.97 32.55 48.96 32.56 48.96 32.56 48.98 32.96 49.97 32.96 49.97 32.96 49.98 33.42 50.96 33.42 50.96 33.43 50.98 33.94 51.94 33.95 51.94 33.95 51.95 34.52 52.88 34.53 52.88 35.15 53.78 35.16 53.78 35.82 54.63 35.83 54.63 36.53 55.42 36.53 55.43 37.26 56.15 37.27 56.16 38.02 56.81 38.02 56.81 38.79 57.39 38.8 57.39 39.58 57.88 40.36 58.29 40.36 58.29 41.13 58.6 41.13 58.6 41.88 58.82 41.89 58.82 42.62 58.94 42.63 58.94 43.33 58.97 43.33 58.96 43.99 58.89 44 58.89 44.44 58.77 44.3 58.9 43.77 59.27 43.19 59.54 42.57 59.71 41.9 59.79 41.19 59.77 40.46 59.65 39.7 59.43 38.93 59.12 38.15 58.71 37.37 58.21 36.6 57.64 35.84 56.98 35.1 56.25 34.4 55.46 33.73 54.61 33.1 53.71 32.52 52.77 32 51.8 31.53 50.81 31.13 49.8 30.8 48.8 30.54 47.8 30.35 46.81 30.23 45.85 30.19 44.93 30.23 44.05 30.35 43.23 30.54 42.46 30.8 41.77 31.13 41.14 31.53 40.6 32 40.15 32.52 39.78 33.1 39.51 33.29 39.46 32.97 39.77 32.97 39.77 32.96 39.78 32.57 40.31 32.57 40.31 32.56 40.32 32.23 40.93"/><polygon class="cls-13" points="34.16 50.3 34.57 50.06 34.66 50.03 34.75 50.01 34.85 50.01 34.96 50.03 35.08 50.07 35.19 50.13 35.3 50.2 35.41 50.29 35.52 50.4 35.62 50.51 35.72 50.64 35.77 50.72 35.83 50.84 35.87 50.9 35.87 50.9 35.88 50.92 35.94 51.06 35.99 51.21 36.03 51.35 36.05 51.5 36.06 51.63 36.05 51.76 36.03 51.87 35.99 51.98 35.94 52.06 35.88 52.14 35.8 52.19 35.39 52.43 35.47 52.38 35.53 52.3 35.58 52.21 35.62 52.11 35.64 51.99 35.65 51.87 35.64 51.73 35.62 51.59 35.58 51.45 35.53 51.3 35.47 51.15 35.39 51.01 35.31 50.88 35.21 50.75 35.11 50.63 35 50.53 34.89 50.44 34.78 50.36 34.66 50.31 34.55 50.27 34.45 50.25 34.34 50.25 34.25 50.27 34.16 50.3"/><polygon class="cls-14" points="38.84 54.44 38.94 54.42 39.04 54.42 39.15 54.44 39.26 54.48 39.37 54.54 39.48 54.61 39.59 54.7 39.7 54.81 39.8 54.92 39.9 55.05 39.98 55.19 40.06 55.33 40.12 55.48 40.17 55.62 40.21 55.77 40.23 55.91 40.24 56.04 40.23 56.17 40.21 56.29 40.17 56.39 40.12 56.48 40.06 56.55 39.98 56.61 39.57 56.84 39.65 56.79 39.71 56.72 39.76 56.63 39.8 56.52 39.82 56.41 39.83 56.28 39.82 56.15 39.8 56.01 39.76 55.86 39.71 55.71 39.65 55.57 39.57 55.42 39.49 55.29 39.39 55.16 39.29 55.05 39.18 54.94 39.07 54.85 38.96 54.78 38.84 54.72 38.73 54.68 38.63 54.66 38.52 54.66 38.43 54.68 38.34 54.72 38.76 54.48 38.84 54.44"/><polygon class="cls-15" points="42.52 55.13 42.94 54.89 43.02 54.85 43.12 54.84 43.22 54.84 43.33 54.86 43.44 54.9 43.55 54.95 43.66 55.03 43.77 55.12 43.88 55.22 43.98 55.34 44.08 55.47 44.16 55.6 44.24 55.74 44.3 55.89 44.35 56.04 44.39 56.18 44.41 56.32 44.42 56.46 44.41 56.59 44.39 56.7 44.35 56.8 44.3 56.89 44.24 56.97 44.16 57.02 43.75 57.26 43.83 57.2 43.89 57.13 43.94 57.04 43.98 56.94 44 56.82 44.01 56.7 44 56.56 43.98 56.42 43.94 56.27 43.89 56.13 43.83 55.98 43.75 55.84 43.67 55.7 43.57 55.58 43.47 55.46 43.37 55.35 43.25 55.27 43.14 55.19 43.03 55.13 42.91 55.09 42.81 55.07 42.7 55.07 42.61 55.09 42.52 55.13"/><polygon class="cls-16" points="44.34 51.26 44.26 51.3 44.67 51.06 44.75 51.03 44.85 51.01 44.95 51.01 45.06 51.03 45.17 51.07 45.28 51.13 45.4 51.2 45.51 51.29 45.62 51.39 45.72 51.51 45.81 51.64 45.84 51.69 45.95 52.24 46.05 53.05 46.05 53.05 46.03 53.07 45.97 53.14 45.9 53.19 45.49 53.43 45.56 53.38 45.62 53.3 45.67 53.21 45.71 53.11 45.73 52.99 45.74 52.87 45.73 52.73 45.71 52.59 45.67 52.45 45.62 52.3 45.56 52.15 45.49 52.01 45.4 51.88 45.31 51.75 45.2 51.63 45.1 51.53 44.98 51.44 44.87 51.36 44.76 51.31 44.65 51.27 44.54 51.25 44.44 51.25 44.34 51.26"/><polygon class="cls-17" points="32.61 44.42 32.52 44.44 32.43 44.48 32.84 44.24 32.93 44.2 33.02 44.18 33.12 44.18 33.23 44.2 33.34 44.24 33.46 44.3 33.57 44.37 33.68 44.46 33.79 44.57 33.89 44.68 33.99 44.81 34.07 44.95 34.15 45.09 34.21 45.23 34.26 45.38 34.3 45.53 34.32 45.67 34.33 45.8 34.32 45.93 34.3 46.05 34.26 46.15 34.21 46.24 34.15 46.31 34.07 46.37 33.66 46.6 33.73 46.55 33.8 46.48 33.85 46.39 33.89 46.28 33.91 46.17 33.91 46.04 33.91 45.91 33.89 45.76 33.85 45.62 33.8 45.47 33.73 45.33 33.66 45.19 33.58 45.05 33.48 44.92 33.38 44.8 33.27 44.7 33.16 44.61 33.05 44.53 32.93 44.48 32.82 44.44 32.71 44.42 32.61 44.42"/><path class="cls-18" d="M42.52,45.47l.42-.23.08,0h.07l.1.15.32.5,0,0-.11-.1-.11-.09-.11-.07L43,45.48l-.12,0-.1,0H42.7l-.09,0Zm1.31,2.08-.08.05.41-.23.08-.06.06-.06-.38-.71,0,.08,0,.14,0,.15v.26l0,.11,0,.11,0,.09Z"/><polygon class="cls-19" points="38.84 40.79 38.85 40.78 38.93 40.83 39.7 41.41 40.09 41.75 40.09 41.75 40.12 41.82 40.17 41.97 40.21 42.11 40.23 42.26 40.24 42.39 40.23 42.52 40.21 42.63 40.17 42.73 40.12 42.83 40.06 42.9 39.98 42.95 39.57 43.19 39.65 43.13 39.71 43.06 39.76 42.97 39.8 42.87 39.82 42.75 39.83 42.63 39.82 42.49 39.8 42.35 39.76 42.2 39.71 42.06 39.65 41.91 39.57 41.77 39.49 41.63 39.39 41.51 39.29 41.39 39.18 41.29 39.07 41.2 38.96 41.12 38.84 41.06 38.73 41.03 38.63 41.01 38.52 41.01 38.43 41.02 38.34 41.06 38.76 40.82 38.84 40.79"/><polygon class="cls-20" points="34.16 40.65 34.57 40.41 34.66 40.37 34.75 40.35 34.85 40.35 34.96 40.38 35.08 40.41 35.19 40.47 35.3 40.55 35.41 40.63 35.52 40.74 35.62 40.86 35.72 40.98 35.8 41.12 35.88 41.26 35.94 41.41 35.99 41.55 36.03 41.7 36.05 41.84 36.06 41.98 36.05 42.1 36.03 42.22 35.99 42.32 35.94 42.41 35.88 42.48 35.8 42.54 35.39 42.78 35.47 42.72 35.53 42.65 35.58 42.56 35.62 42.46 35.64 42.34 35.65 42.21 35.64 42.08 35.62 41.94 35.58 41.79 35.53 41.64 35.47 41.5 35.39 41.36 35.31 41.22 35.21 41.09 35.11 40.98 35 40.87 34.89 40.78 34.78 40.71 34.66 40.65 34.55 40.61 34.45 40.59 34.34 40.59 34.25 40.61 34.16 40.65"/><polygon class="cls-21" points="36.24 43.86 35.83 44.04 36.63 43.58 36.94 43.44 36.95 43.44 37.04 43.4 37.23 43.36 37.23 43.36 37.27 43.35 37.49 43.31 37.59 43.31 37.59 43.31 37.61 43.31 37.98 43.31 37.98 43.31 38.37 43.39 38.39 43.39 38.39 43.39 38.5 43.41 38.72 43.49 38.72 43.49 38.77 43.5 39.03 43.6 39.15 43.65 39.17 43.66 39.58 43.87 39.98 44.14 40.01 44.15 40.12 44.23 40.39 44.44 40.43 44.47 40.43 44.48 40.66 44.66 40.76 44.76 40.77 44.76 40.78 44.78 41.17 45.16 41.17 45.16 41.54 45.58 41.56 45.6 41.56 45.6 41.66 45.72 41.89 46.02 41.92 46.07 41.92 46.08 42.11 46.33 42.2 46.47 42.22 46.49 42.52 46.98 42.79 47.49 42.81 47.52 42.88 47.66 43.01 47.96 43.03 48.01 43.19 48.36 43.24 48.51 43.25 48.54 43.43 49.06 43.56 49.59 43.57 49.62 43.6 49.76 43.66 50.1 43.66 50.15 43.71 50.44 43.72 50.58 43.72 50.6 43.74 51.09 43.72 51.55 43.72 51.57 43.71 51.7 43.66 51.98 43.65 52.02 43.6 52.25 43.57 52.36 43.56 52.38 43.43 52.75 43.25 53.07 43.24 53.08 43.19 53.17 43.03 53.35 43.01 53.38 42.88 53.52 42.81 53.58 42.79 53.59 42.52 53.79 41.73 54.25 42.09 53.98 42.39 53.63 42.63 53.21 42.81 52.71 42.91 52.16 42.95 51.55 42.91 50.9 42.81 50.22 42.63 49.52 42.39 48.82 42.09 48.12 41.73 47.44 41.32 46.79 40.87 46.18 40.38 45.62 39.86 45.12 39.33 44.68 38.78 44.33 38.24 44.05 37.7 43.87 37.19 43.77 36.7 43.77 36.24 43.86"/><polygon class="cls-22" points="33.58 45.05 33.66 45.19 33.73 45.33 33.8 45.47 33.85 45.62 33.89 45.76 33.91 45.91 33.91 46.04 33.91 46.17 33.89 46.28 33.85 46.39 33.8 46.48 33.73 46.55 33.66 46.6 33.58 46.64 33.48 46.66 33.38 46.66 33.27 46.64 33.16 46.6 33.05 46.54 32.93 46.47 32.82 46.38 32.71 46.27 32.61 46.16 32.52 46.03 32.43 45.89 32.36 45.75 32.29 45.61 32.24 45.46 32.21 45.31 32.18 45.17 32.18 45.04 32.18 44.91 32.21 44.8 32.24 44.69 32.29 44.6 32.36 44.53 32.43 44.48 32.52 44.44 32.61 44.42 32.71 44.42 32.82 44.44 32.93 44.48 33.05 44.53 33.16 44.61 33.27 44.7 33.38 44.8 33.48 44.92 33.58 45.05"/><polygon class="cls-23" points="34.89 50.44 35 50.53 35.11 50.63 35.21 50.75 35.31 50.88 35.39 51.01 35.47 51.15 35.53 51.3 35.58 51.45 35.62 51.59 35.64 51.73 35.65 51.87 35.64 51.99 35.62 52.11 35.58 52.21 35.53 52.3 35.47 52.38 35.39 52.43 35.31 52.47 35.21 52.49 35.11 52.49 35 52.47 34.89 52.43 34.78 52.37 34.66 52.3 34.55 52.21 34.45 52.1 34.34 51.98 34.25 51.86 34.16 51.72 34.09 51.58 34.02 51.43 33.98 51.29 33.94 51.14 33.92 51 33.91 50.87 33.92 50.74 33.94 50.62 33.98 50.52 34.02 50.43 34.09 50.36 34.16 50.3 34.25 50.27 34.34 50.25 34.45 50.25 34.55 50.27 34.66 50.31 34.78 50.36 34.89 50.44"/><polygon class="cls-24" points="38.84 54.72 38.96 54.78 39.07 54.85 39.18 54.94 39.29 55.05 39.39 55.16 39.49 55.29 39.57 55.42 39.65 55.57 39.71 55.71 39.76 55.86 39.8 56.01 39.82 56.15 39.83 56.28 39.82 56.41 39.8 56.52 39.76 56.63 39.71 56.72 39.65 56.79 39.57 56.84 39.49 56.88 39.39 56.9 39.29 56.9 39.18 56.88 39.07 56.84 38.96 56.78 38.84 56.71 38.73 56.62 38.63 56.52 38.52 56.4 38.43 56.27 38.34 56.13 38.27 55.99 38.21 55.85 38.16 55.7 38.12 55.55 38.1 55.41 38.09 55.28 38.1 55.15 38.12 55.03 38.16 54.93 38.21 54.84 38.27 54.77 38.34 54.72 38.43 54.68 38.52 54.66 38.63 54.66 38.73 54.68 38.84 54.72"/><polygon class="cls-25" points="43.14 55.19 43.25 55.27 43.37 55.35 43.47 55.46 43.57 55.58 43.67 55.7 43.75 55.84 43.83 55.98 43.89 56.13 43.94 56.27 43.98 56.42 44 56.56 44.01 56.7 44 56.82 43.98 56.94 43.94 57.04 43.89 57.13 43.83 57.2 43.75 57.26 43.67 57.3 43.57 57.31 43.47 57.31 43.37 57.29 43.25 57.25 43.14 57.2 43.03 57.12 42.91 57.03 42.81 56.93 42.7 56.81 42.61 56.69 42.52 56.55 42.45 56.41 42.39 56.26 42.34 56.11 42.3 55.97 42.28 55.83 42.27 55.69 42.28 55.56 42.3 55.45 42.34 55.35 42.39 55.26 42.45 55.19 42.52 55.13 42.61 55.09 42.7 55.07 42.81 55.07 42.91 55.09 43.03 55.13 43.14 55.19"/><polygon class="cls-26" points="45.49 52.01 45.56 52.15 45.62 52.3 45.67 52.45 45.71 52.59 45.73 52.73 45.74 52.87 45.73 52.99 45.71 53.11 45.67 53.21 45.62 53.3 45.56 53.38 45.49 53.43 45.4 53.47 45.31 53.49 45.2 53.48 45.1 53.47 44.98 53.43 44.87 53.37 44.76 53.3 44.65 53.2 44.54 53.1 44.44 52.98 44.34 52.86 44.26 52.72 44.18 52.58 44.12 52.43 44.07 52.29 44.03 52.14 44.01 52 44 51.86 44.01 51.74 44.03 51.62 44.07 51.52 44.12 51.43 44.18 51.36 44.26 51.3 44.34 51.26 44.44 51.25 44.54 51.25 44.65 51.27 44.76 51.31 44.87 51.36 44.98 51.44 45.1 51.53 45.2 51.63 45.31 51.75 45.4 51.88 45.49 52.01"/><polygon class="cls-27" points="43.14 45.54 43.25 45.61 43.37 45.7 43.47 45.8 43.51 45.84 43.77 46.27 43.92 46.54 43.94 46.62 43.98 46.76 44 46.91 44.01 47.04 44 47.17 43.98 47.28 43.94 47.39 43.89 47.48 43.83 47.55 43.75 47.6 43.67 47.64 43.57 47.66 43.47 47.66 43.37 47.64 43.25 47.6 43.14 47.54 43.03 47.47 42.91 47.38 42.81 47.27 42.7 47.16 42.61 47.03 42.52 46.89 42.45 46.75 42.39 46.61 42.34 46.46 42.3 46.31 42.28 46.17 42.27 46.04 42.28 45.91 42.3 45.79 42.34 45.69 42.39 45.6 42.45 45.53 42.52 45.47 42.61 45.44 42.7 45.42 42.81 45.42 42.91 45.44 43.03 45.48 43.14 45.54"/><polygon class="cls-28" points="38.73 41.03 38.84 41.06 38.96 41.12 39.07 41.2 39.18 41.29 39.29 41.39 39.39 41.51 39.49 41.63 39.57 41.77 39.65 41.91 39.71 42.06 39.76 42.2 39.8 42.35 39.82 42.49 39.83 42.63 39.82 42.75 39.8 42.87 39.76 42.97 39.71 43.06 39.65 43.13 39.57 43.19 39.49 43.23 39.39 43.24 39.29 43.24 39.18 43.22 39.07 43.19 38.96 43.13 38.84 43.05 38.73 42.97 38.63 42.86 38.52 42.74 38.43 42.62 38.34 42.48 38.27 42.34 38.21 42.19 38.16 42.05 38.12 41.9 38.1 41.76 38.09 41.62 38.1 41.5 38.12 41.38 38.16 41.28 38.21 41.19 38.27 41.12 38.34 41.06 38.43 41.02 38.52 41.01 38.63 41.01 38.73 41.03"/><polygon class="cls-29" points="34.89 40.78 35 40.87 35.11 40.98 35.21 41.09 35.31 41.22 35.39 41.36 35.47 41.5 35.53 41.64 35.58 41.79 35.62 41.94 35.64 42.08 35.65 42.21 35.64 42.34 35.62 42.46 35.58 42.56 35.53 42.65 35.47 42.72 35.39 42.78 35.31 42.81 35.21 42.83 35.11 42.83 35 42.81 34.89 42.77 34.78 42.71 34.66 42.64 34.55 42.55 34.45 42.45 34.34 42.33 34.25 42.2 34.16 42.07 34.09 41.92 34.02 41.78 33.98 41.63 33.94 41.49 33.92 41.34 33.91 41.21 33.92 41.08 33.94 40.97 33.98 40.86 34.02 40.77 34.09 40.7 34.16 40.65 34.25 40.61 34.34 40.59 34.45 40.59 34.55 40.61 34.66 40.65 34.78 40.71 34.89 40.78"/><path class="cls-30" d="M42.61,56.68l.09.13.11.12.1.1.12.09.11.08.11,0,.11,0,.11,0h.2l.08,0,.41-.24.08-.05.06-.08.05-.09,0-.1,0-.11v-.27l0-.14,0-.14-.05-.15-.06-.15-.08-.14-.08-.13-.1-.13-.1-.12-.11-.1L43.66,55,43.55,55l-.11-.05-.11,0-.11,0h-.1l-.1,0-.08,0-.42.24-.07.06-.06.07,0,.09,0,.1,0,.12v.26l0,.14,0,.14,0,.15.06.15.07.14Zm-4.4-.83.06.14.07.14.09.14.09.13.11.11.1.11.12.09.11.07.11.06.11,0,.11,0h.1l.1,0,.08,0,.41-.23.08-.06.06-.07.05-.09,0-.1,0-.12v-.26l0-.14,0-.15-.05-.14-.06-.15L40,55.19l-.08-.14-.1-.13-.1-.11-.11-.11-.11-.09-.11-.07-.11-.06-.12,0-.1,0h-.11l-.09,0-.09,0-.41.24-.07.05-.06.07-.05.09,0,.11,0,.11v.26l0,.14,0,.15Zm-4.05-4.13.09.14.09.12.11.12.1.11.11.09.12.07.11.06.11,0,.11,0h.1l.1,0,.08,0,.41-.24.08,0,.06-.07L36,52l0-.11,0-.11V51.5l0-.15,0-.14-.05-.15-.06-.14v0l.37.6.46.61.49.56.51.5.54.43.54.35.55.28.53.18.52.1h.49l.45-.08.41-.18.79-.46.27-.2h0l.07-.06.13-.14,0,0,.16-.18.05-.09h0l.18-.32.13-.37v0l0-.11,0-.23v0l.05-.28v-.15l0-.46,0-.49v-.16l-.05-.29v0l-.06-.34,0-.15v0l-.13-.53-.18-.52v0l-.05-.15L43,48l0,0-.13-.3-.07-.14,0,0L42.52,47l-.3-.49,0,0-.09-.14-.19-.26h0l0,0-.23-.3-.1-.12h0l0,0-.37-.42h0l-.39-.38v0h0l-.11-.1-.22-.19h0l0,0-.27-.22L40,44.15h0l-.4-.27-.41-.21h0l-.12,0-.27-.1h0l-.22-.08-.11,0h0L38,43.31h-.49l-.23,0h0l-.19,0-.09,0h0l-.31.14-.8.46-.36.26-.3.35-.24.43-.17.49-.11.56,0,.61,0,.64.11.68.17.7.24.7.3.7.3.56-.05-.08-.1-.13-.1-.12-.11-.1-.11-.09-.11-.07-.12-.06L35,50l-.1,0h-.11l-.09,0-.09,0-.41.24-.07.06-.07.07-.05.09,0,.1,0,.12V51l0,.14,0,.15.05.14.07.15Zm0-9.65.09.13.09.13.11.12.1.1.11.09.12.07.11.06.11,0,.11,0h.1l.1,0,.08,0,.41-.24.08-.06.06-.07.05-.09,0-.1,0-.12v-.26l0-.14,0-.15-.05-.14-.06-.15-.08-.14L35.72,41l-.1-.12-.1-.12-.11-.11-.11-.08-.11-.08-.12-.06-.11,0-.1,0h-.11l-.09,0-.09,0-.41.24-.07.05-.07.08-.05.08,0,.11,0,.11v.26l0,.15,0,.14.05.15.07.14ZM33,39.77l.32-.31.44-.12.67-.08.7,0,.74.12.76.22.77.31.78.41.7.44h0l-.09,0-.41.24-.07.06-.06.07-.05.09,0,.1,0,.12v.26l0,.14,0,.15.05.14.06.15.07.14.09.14.09.12.11.12.1.1.12.09.11.08.11.06.11,0,.11,0h.1l.1,0,.08,0L40,43l.08-.05.06-.08.05-.08,0-.11,0-.11v-.27l0-.14,0-.14-.05-.15,0-.07.37.32.73.73.71.79.67.85.52.75H43l-.08,0-.42.23-.07.06-.06.07,0,.09,0,.1,0,.12v.26l0,.14,0,.15,0,.15.06.14.07.14.09.14.09.13.11.11.1.11.12.09.11.07.11.06.11,0,.11,0h.1l.1,0,.08,0,.41-.23.08-.06.06-.06h0l.46,1,.4,1,.34,1,.26,1,.08.44,0,0-.09-.13-.11-.12-.1-.1-.11-.09-.12-.07-.11-.06-.11,0L45,51h-.1l-.1,0-.08,0-.41.23-.08.06-.06.07,0,.09,0,.1,0,.12V52l0,.14,0,.15,0,.14.06.15.08.14.08.14.1.12.1.12.11.11.11.09.11.07.11.06.12,0,.1,0h.11l.09,0,.09,0,.41-.24.07,0,.06-.07,0,0v.14l0,.93,0,.87-.11.83-.19.76-.26.7-.34.62-.4.55-.32.31-.44.13h0l-.66.07h0l-.71,0h0l-.73-.12h0l-.76-.22h0l-.77-.31h0l-.78-.41-.78-.49h0L38,56.81h0l-.75-.66h0l-.73-.72h0l-.7-.79h0l-.66-.85h0l-.62-.9h0L34,52h0l-.51-1v0h0L33,50h0l-.4-1v0h0l-.33-1h0L32,47h0l-.19-1v0h0L31.66,45v0h0l0-.9v0h0l0-.86v0h0l.11-.81h0l.18-.75h0l.26-.69h0l.33-.61h0l.39-.53ZM32.52,46l.09.13.1.11.11.11.11.09.12.07.11.06.11,0,.11,0h.1l.09,0,.09,0,.41-.23.08-.06.06-.07,0-.09,0-.1,0-.12v-.26l0-.14,0-.15,0-.15-.06-.14L34.07,45,34,44.81l-.1-.13-.1-.11-.11-.11-.11-.09-.11-.07-.12-.06-.11,0-.11,0H33l-.09,0-.09,0-.41.23-.07.06-.07.07,0,.09,0,.11,0,.11v.26l0,.14,0,.15,0,.15.07.14.07.14Z"/><polygon class="cls-31" points="29.26 40.14 28.94 40.98 28.86 41.32 28.86 41.1 29.02 39.96 29.28 38.92 29.64 37.96 30.1 37.11 30.65 36.36 31.29 35.74 32.01 35.24 32.8 34.87 33.66 34.63 34.58 34.52 35.55 34.55 36.55 34.72 37.59 35.02 38.65 35.45 39.72 36 40.79 36.68 41.85 37.47 42.89 38.37 43.9 39.37 44.86 40.46 45.78 41.62 46.64 42.86 47.44 44.15 48.15 45.48 48.79 46.84 49.34 48.22 49.8 49.6 50.16 50.97 50.42 52.32 50.58 53.63 50.63 54.9 50.58 56.1 50.42 57.23 50.16 58.28 49.8 59.24 49.34 60.09 48.79 60.84 48.15 61.46 47.44 61.96 46.64 62.33 45.78 62.57 44.86 62.68 43.9 62.65 42.89 62.48 41.85 62.18 40.79 61.75 40.67 61.69 40.94 61.77 41.83 61.91 42.68 61.94 43.49 61.85 44.25 61.64 44.95 61.31 46.53 60.4 46.53 60.4 47.16 59.96 47.16 59.95 47.72 59.41 47.73 59.4 48.21 58.75 48.21 58.74 48.61 58 48.62 57.99 48.93 57.16 48.93 57.14 49.16 56.23 49.16 56.22 49.3 55.23 49.3 55.22 49.34 54.17 49.34 54.15 49.3 53.05 49.3 53.04 49.16 51.9 49.16 51.88 48.93 50.7 48.92 50.69 48.61 49.49 48.6 49.48 48.21 48.28 48.2 48.26 47.72 47.06 47.72 47.05 47.16 45.86 47.15 45.85 46.53 44.69 46.52 44.67 45.83 43.55 45.82 43.54 45.07 42.46 45.06 42.45 44.26 41.44 44.25 41.43 43.4 40.48 43.4 40.47 42.51 39.59 42.51 39.59 41.6 38.8 41.6 38.8 40.66 38.1 40.66 38.1 39.72 37.5 38.78 37.01 38.78 37.01 37.85 36.63 37.84 36.63 36.93 36.37 36.93 36.37 36.04 36.23 36.04 36.22 35.19 36.2 35.19 36.2 34.38 36.29 34.38 36.29 33.62 36.5 33.62 36.5 32.92 36.83 32.92 36.83 31.34 37.74 30.71 38.18 30.15 38.73 29.66 39.39 29.26 40.14"/><path class="cls-32" d="M33.29,39.46l-.19,0-.58.27-.52.37-.47.45-.4.54-.33.62-.26.7-.19.77-.12.82,0,.88,0,.92.12,1,.19,1,.26,1,.33,1,.4,1,.47,1,.52,1,.58.94.63.9.67.85.7.79.74.73.76.66.77.57.78.5.78.4.77.32.76.22.73.12.71,0,.67-.08.62-.17.58-.27.53-.37.14-.14.32-.31.4-.55.34-.62.26-.7.19-.76.11-.83,0-.87,0-.93v-.14h0l-.1-.8-.11-.55-.08-.44-.26-1-.34-1-.4-1-.46-1h0l-.38-.71-.15-.26-.26-.44-.32-.5-.1-.15-.52-.75-.67-.85-.71-.79-.73-.73-.37-.32h0l-.39-.34-.77-.58-.08,0-.7-.44-.78-.41-.77-.31-.76-.22-.74-.12-.7,0-.67.08Zm-4.44,1.86.09-.34.32-.84.4-.75.49-.66.56-.55.63-.44.7-.33.76-.21.81-.09.86,0,.88.15.92.26.93.38.95.49.94.6.93.7.92.79.89.88.85,1,.81,1,.76,1.09L45,45.6l.64,1.17.56,1.2.48,1.22L47,50.4l.32,1.21.22,1.19L47.72,54l.05,1.12-.05,1.06-.14,1-.22.92-.32.85-.41.75-.48.66-.56.55-.64.44-.7.33-.76.21-.81.09-.85,0-.89-.14-.27-.08-.18,0h0L40,61.5l-.93-.37-.94-.5L37.2,60l-.93-.7-.92-.8-.88-.88-.86-1-.81-1L32,54.59l-.7-1.14-.63-1.17-.56-1.2-.49-1.22-.4-1.22-.32-1.21-.23-1.19-.14-1.16,0-1.11,0-1.06.14-1,.1-.41Z"/><polygon class="cls-33" points="42.91 50.9 42.95 51.55 42.91 52.16 42.81 52.71 42.63 53.21 42.39 53.63 42.09 53.98 41.73 54.25 41.32 54.43 40.87 54.51 40.38 54.51 39.86 54.41 39.33 54.23 38.78 53.95 38.24 53.6 37.7 53.17 37.19 52.67 36.7 52.11 36.24 51.49 35.87 50.9 35.87 50.9 35.83 50.84 35.77 50.72 35.47 50.16 35.17 49.46 34.93 48.76 34.76 48.06 34.65 47.38 34.61 46.73 34.65 46.13 34.76 45.57 34.93 45.08 35.17 44.65 35.47 44.3 35.83 44.04 36.24 43.86 36.7 43.77 37.19 43.77 37.7 43.87 38.24 44.05 38.78 44.33 39.33 44.68 39.86 45.12 40.38 45.62 40.87 46.18 41.32 46.79 41.73 47.44 42.09 48.12 42.39 48.82 42.63 49.52 42.81 50.22 42.91 50.9"/><polygon class="cls-34" points="85.16 61.38 85.21 62.07 85.16 62.7 85.01 63.26 84.77 63.72 84.44 64.07 84.04 64.3 83.57 64.41 83.05 64.39 82.5 64.24 82.13 64.07 82.99 63.57 82.99 63.56 83.22 63.32 83.24 63.3 83.25 63.28 83.42 62.96 83.43 62.93 83.53 62.54 83.53 62.5 83.57 62.07 83.56 62.02 83.53 61.56 83.52 61.5 83.43 61.07 83.42 61.01 83.25 60.51 83.24 60.46 83.01 59.95 83.01 59.94 82.99 59.91 82.69 59.39 82.69 59.38 82.67 59.36 82.33 58.9 82.31 58.87 81.97 58.49 81.95 58.46 81.92 58.44 81.53 58.09 81.52 58.09 81.1 57.8 80.69 57.61 80.68 57.6 80.29 57.5 80.26 57.49 80.24 57.49 79.9 57.48 79.87 57.48 79.53 57.55 79.52 57.56 79.52 57.56 78.66 58.05 78.69 57.65 78.84 57.1 79.08 56.64 79.41 56.28 79.81 56.05 80.28 55.94 80.8 55.96 81.35 56.11 81.92 56.38 82.5 56.77 83.05 57.26 83.57 57.84 84.04 58.49 84.44 59.19 84.77 59.92 85.01 60.66 85.16 61.38"/><polygon class="cls-35" points="29.28 38.92 29.02 39.96 28.86 41.1 28.86 41.32 28.81 41.5 28.81 40.88 28.87 39.54 29.05 38.28 29.34 37.11 29.74 36.05 30.25 35.1 30.86 34.27 31.57 33.58 32.37 33.02 33.25 32.6 34.21 32.34 35.23 32.22 36.31 32.25 37.43 32.44 38.59 32.77 39.76 33.25 40.95 33.87 42.14 34.62 43.32 35.51 44.48 36.51 45.6 37.62 46.68 38.83 47.7 40.13 48.66 41.5 49.54 42.93 50.34 44.41 51.05 45.93 51.66 47.46 52.17 49 52.57 50.53 52.86 52.03 53.03 53.49 53.09 54.9 53.03 56.24 52.86 57.5 52.57 58.67 52.17 59.73 51.66 60.68 51.05 61.5 50.34 62.2 49.54 62.76 48.66 63.17 47.7 63.44 46.68 63.56 45.6 63.52 44.48 63.34 43.32 63.01 42.14 62.53 40.95 61.91 40.49 61.64 40.67 61.69 40.79 61.75 41.85 62.18 42.89 62.48 43.9 62.65 44.86 62.68 45.78 62.57 46.64 62.33 47.44 61.96 48.15 61.46 48.79 60.84 49.34 60.09 49.8 59.24 50.16 58.28 50.42 57.23 50.58 56.1 50.63 54.9 50.58 53.63 50.42 52.32 50.16 50.97 49.8 49.6 49.34 48.22 48.79 46.84 48.15 45.48 47.44 44.15 46.64 42.86 45.78 41.62 44.86 40.46 43.9 39.37 42.89 38.37 41.85 37.47 40.79 36.68 39.72 36 38.65 35.45 37.59 35.02 36.55 34.72 35.55 34.55 34.58 34.52 33.66 34.63 32.8 34.87 32.01 35.24 31.29 35.74 30.65 36.36 30.1 37.11 29.64 37.96 29.28 38.92"/><polygon class="cls-36" points="32.8 37.2 32.04 37.41 31.34 37.74 32.92 36.83 32.92 36.83 33.62 36.5 33.62 36.5 34.38 36.29 34.38 36.29 35.19 36.2 35.19 36.2 36.04 36.22 36.04 36.23 36.93 36.37 36.93 36.37 37.84 36.63 37.85 36.63 38.78 37.01 38.78 37.01 39.72 37.5 40.66 38.1 40.66 38.1 41.6 38.8 41.6 38.8 42.51 39.59 42.51 39.59 43.4 40.47 43.4 40.48 44.25 41.43 44.26 41.44 45.06 42.45 45.07 42.46 45.82 43.54 45.83 43.55 46.52 44.67 46.53 44.69 47.15 45.85 47.16 45.86 47.72 47.05 47.72 47.06 48.2 48.26 48.21 48.28 48.6 49.48 48.61 49.49 48.92 50.69 48.93 50.7 49.16 51.88 49.16 51.9 49.3 53.04 49.3 53.05 49.34 54.15 49.34 54.17 49.3 55.22 49.3 55.23 49.16 56.22 49.16 56.23 48.93 57.14 48.93 57.16 48.62 57.99 48.61 58 48.21 58.74 48.21 58.75 47.73 59.4 47.72 59.41 47.16 59.95 47.16 59.96 46.53 60.4 46.53 60.4 44.95 61.31 45.59 60.87 46.15 60.31 46.63 59.66 47.04 58.91 47.36 58.06 47.59 57.14 47.72 56.14 47.77 55.08 47.72 53.96 47.59 52.8 47.36 51.61 47.04 50.4 46.63 49.19 46.15 47.97 45.59 46.77 44.95 45.59 44.25 44.46 43.49 43.37 42.68 42.34 41.83 41.38 40.94 40.5 40.02 39.71 39.09 39.01 38.15 38.41 37.2 37.92 36.27 37.54 35.35 37.28 34.47 37.13 33.61 37.11 32.8 37.2"/><polygon class="cls-37" points="79.81 56.05 81.54 55.05 82.01 54.95 82.53 54.97 83.08 55.11 83.65 55.38 84.22 55.77 84.78 56.26 85.3 56.84 85.76 57.49 86.17 58.19 86.5 58.92 86.73 59.62 86.74 59.66 86.89 60.39 86.94 61.07 86.89 61.7 86.74 62.26 86.5 62.72 86.17 63.07 84.44 64.07 84.77 63.72 85.01 63.26 85.16 62.7 85.21 62.07 85.16 61.38 85.01 60.66 84.77 59.92 84.44 59.19 84.04 58.49 83.57 57.84 83.05 57.26 82.5 56.77 81.92 56.38 81.35 56.11 80.8 55.96 80.28 55.94 79.81 56.05"/><polygon class="cls-38" points="80.18 65.19 74.64 68.39 74.65 68.35 74.62 67.84 74.59 67.48 74.49 66.98 74.41 66.63 74.25 66.15 74.18 65.97 74.08 65.75 73.91 65.38 73.91 65.38 73.91 65.37 73.65 64.95 73.5 64.7 73.49 64.69 73.42 64.59 73.17 64.28 72.94 64.01 72.85 63.91 72.72 63.79 72.6 63.68 72.37 63.46 72.08 63.23 71.75 63.01 71.75 63.01 71.75 62.04 76.99 59.02 78.66 58.05 79.52 57.56 79.52 57.56 79.53 57.55 79.87 57.48 79.9 57.48 80.24 57.49 80.26 57.49 80.29 57.5 80.68 57.6 80.69 57.61 81.1 57.8 81.52 58.09 81.53 58.09 81.92 58.44 81.95 58.46 81.97 58.49 82.31 58.87 82.33 58.9 82.67 59.36 82.69 59.38 82.69 59.39 82.99 59.91 83.01 59.94 83.01 59.95 83.24 60.46 83.25 60.51 83.42 61.01 83.43 61.07 83.52 61.5 83.53 61.56 83.56 62.02 83.57 62.07 83.53 62.5 83.53 62.54 83.43 62.93 83.42 62.96 83.25 63.28 83.24 63.3 83.22 63.32 82.99 63.56 82.99 63.57 82.13 64.07 80.18 65.19"/><polygon class="cls-39" points="71.75 63.01 71.75 64.16 71.74 64.19 71.68 64.38 71.64 64.5 71.6 64.57 71.48 64.75 71.43 64.83 71.33 64.93 71.16 65.1 71.13 65.13 70.94 65.25 70.74 65.4 70.72 65.4 70.46 65.52 70.28 65.62 70.19 65.64 69.89 65.74 69.75 65.8 69.59 65.82 69.27 65.89 69.18 65.91 68.94 65.93 68.6 65.97 68.58 65.97 68.26 65.96 67.97 65.97 67.92 65.96 67.59 65.92 67.38 65.91 67.26 65.88 66.94 65.81 66.8 65.79 66.63 65.72 66.34 65.63 66.28 65.61 66.07 65.5 65.81 65.39 65.59 65.23 65.42 65.12 65.39 65.08 65.22 64.91 65.12 64.81 65.07 64.73 64.95 64.55 64.91 64.49 64.88 64.36 64.81 64.17 64.81 64.14 64.81 62.99 64.81 53.94 71.75 49.94 71.75 62.04 71.75 63.01"/><polygon class="cls-40" points="33.25 32.6 32.37 33.02 66.63 13.24 67.51 12.82 68.47 12.56 69.49 12.44 70.57 12.47 71.69 12.66 72.84 12.99 74.02 13.47 75.21 14.09 76.4 14.84 77.58 15.73 78.74 16.73 79.86 17.84 80.94 19.05 81.96 20.35 82.92 21.72 83.8 23.15 84.6 24.63 85.31 26.15 85.92 27.68 86.43 29.22 86.83 30.75 87.12 32.25 87.3 33.71 87.35 35.12 87.3 36.46 87.12 37.72 86.83 38.88 86.43 39.95 85.92 40.9 85.31 41.72 84.6 42.42 83.8 42.98 71.75 49.94 64.81 53.94 49.54 62.76 50.34 62.2 51.05 61.5 51.66 60.68 52.17 59.73 52.57 58.67 52.86 57.5 53.03 56.24 53.09 54.9 53.03 53.49 52.86 52.03 52.57 50.53 52.17 49 51.66 47.46 51.05 45.93 50.34 44.41 49.54 42.93 48.66 41.5 47.7 40.13 46.68 38.83 45.6 37.62 44.48 36.51 43.32 35.51 42.14 34.62 40.95 33.87 39.76 33.25 38.59 32.77 37.43 32.44 36.31 32.25 35.23 32.22 34.21 32.34 33.25 32.6"/></g></svg>