<svg xmlns="http://www.w3.org/2000/svg" xmlns:xlink="http://www.w3.org/1999/xlink" viewBox="0 0 113.37 166.98"><defs><style>.cls-1{isolation:isolate;}.cls-2{fill:url(#铃琨眄_沭噤桢眚_4);}.cls-3{fill:#3e7d7e;}.cls-4{fill:#3a606a;}.cls-5{fill:#232c37;}.cls-6{fill:#375660;}.cls-7{fill:#4a9294;}.cls-8{fill:#2e434e;}.cls-9{fill:#b2dce4;}.cls-10{fill:#2a5355;}.cls-11{fill:#8ec7cf;}.cls-12{fill:#ddf0f7;}.cls-13{fill:#478a8b;}.cls-14{fill:#94cfd9;}.cls-15{fill:url(#铃琨眄_沭噤桢眚_3);}.cls-16{fill:url(#铃琨眄_沭噤桢眚_3-2);}.cls-17{fill:url(#铃琨眄_沭噤桢眚_2);}.cls-18{fill:#8dc7ce;}.cls-19{fill:#5aadb4;}.cls-20{fill:url(#铃琨眄_沭噤桢眚_3-3);}.cls-21{fill:#89c0c3;}.cls-22{fill:url(#铃琨眄_沭噤桢眚_2-2);}.cls-23{fill:#407f80;}.cls-24{fill:#56a7a9;}.cls-25{fill:#2c414a;}.cls-26{fill:#77c1ce;}.cls-27{fill:#4c9fa8;}.cls-28{fill:#afd8db;}.cls-29{fill:#509ea0;}.cls-30{fill:#afd5d7;}.cls-31{fill:#449fa4;}.cls-32{fill:#399298;}.cls-33{fill:#65b0b6;mix-blend-mode:multiply;}.cls-34{fill:#62b7bc;}.cls-35{fill:#448495;}.cls-36{fill:#cde6f2;}.cls-37{fill:#748c7f;}.cls-38{fill:#83c6b9;}.cls-39{fill:#73bdaf;}.cls-40{fill:#7dbec4;}.cls-41{fill:#6cb9b0;}.cls-42{fill:#379bae;}</style><linearGradient id="铃琨眄_沭噤桢眚_4" x1="15.84" y1="62.61" x2="15.84" y2="66.34" gradientUnits="userSpaceOnUse"><stop offset="0.08" stop-color="#30676b"/><stop offset="0.09" stop-color="#316a6e"/><stop offset="0.11" stop-color="#3b7c82"/><stop offset="0.16" stop-color="#3c7d83"/><stop offset="0.24" stop-color="#39787d"/><stop offset="0.35" stop-color="#31686c"/><stop offset="0.37" stop-color="#2f6569"/><stop offset="0.38" stop-color="#254f52"/><stop offset="0.78" stop-color="#21494c"/><stop offset="0.78" stop-color="#1d4244"/><stop offset="0.79" stop-color="#122c2e"/><stop offset="0.8" stop-color="#122a2c"/><stop offset="0.91" stop-color="#151d1e"/><stop offset="1" stop-color="#161819"/></linearGradient><linearGradient id="铃琨眄_沭噤桢眚_3" x1="51.33" y1="119.4" x2="72.78" y2="119.4" gradientUnits="userSpaceOnUse"><stop offset="0" stop-color="#7bbfc4"/><stop offset="0.12" stop-color="#80c1c6"/><stop offset="0.21" stop-color="#89c5cb"/><stop offset="0.22" stop-color="#9fd3d8"/><stop offset="0.22" stop-color="#a4d6db"/><stop offset="0.62" stop-color="#abd9e0"/><stop offset="0.63" stop-color="#c3e5eb"/><stop offset="0.66" stop-color="#c9e8ee"/><stop offset="0.76" stop-color="#daeff5"/><stop offset="0.84" stop-color="#e0f2f7"/><stop offset="0.89" stop-color="#dff1f7"/><stop offset="0.91" stop-color="#cbe9ee"/><stop offset="0.92" stop-color="#c5e6eb"/></linearGradient><linearGradient id="铃琨眄_沭噤桢眚_3-2" x1="57.22" y1="106.26" x2="66.88" y2="106.26" xlink:href="#铃琨眄_沭噤桢眚_3"/><linearGradient id="铃琨眄_沭噤桢眚_2" x1="57.77" y1="93.96" x2="66.34" y2="93.96" gradientUnits="userSpaceOnUse"><stop offset="0" stop-color="#132d2f"/><stop offset="0.11" stop-color="#163234"/><stop offset="0.21" stop-color="#1b3c3e"/><stop offset="0.22" stop-color="#275154"/><stop offset="0.22" stop-color="#2b575b"/><stop offset="0.62" stop-color="#2d5e61"/><stop offset="0.63" stop-color="#377579"/><stop offset="0.64" stop-color="#38777b"/><stop offset="0.76" stop-color="#41878c"/><stop offset="0.84" stop-color="#448c92"/><stop offset="0.89" stop-color="#438b91"/><stop offset="0.91" stop-color="#39787d"/><stop offset="0.92" stop-color="#37757a"/></linearGradient><linearGradient id="铃琨眄_沭噤桢眚_3-3" x1="57.22" y1="87.58" x2="66.88" y2="87.58" xlink:href="#铃琨眄_沭噤桢眚_3"/><linearGradient id="铃琨眄_沭噤桢眚_2-2" x1="58.33" y1="76.41" x2="65.77" y2="76.41" xlink:href="#铃琨眄_沭噤桢眚_2"/></defs><g class="cls-1"><g id="图层_1" data-name="图层 1"><path class="cls-2" d="M22.36,66.55v-.36a1.85,1.85,0,0,0,.19-.27,3.32,3.32,0,0,0,0-3,1.89,1.89,0,0,0-.22-.31v-.31H10.06a1.06,1.06,0,0,0-.93.63,3.35,3.35,0,0,0,0,3,1,1,0,0,0,.95.61H22.36Z"/><path class="cls-3" d="M21.46,65.93a3.32,3.32,0,0,1,0-3c.48-.84,1.26-.85,1.74,0a3.35,3.35,0,0,1,0,3C22.72,66.76,21.94,66.76,21.46,65.93Z"/><polygon class="cls-4" points="35.7 38.9 27.64 32.39 47.81 21.26 51.5 25.28 35.7 38.9"/><polygon class="cls-5" points="37.44 45.06 29.96 41.05 27.64 32.39 37.44 38.3 37.44 45.06"/><polygon class="cls-6" points="70.55 136.25 54.63 127.06 89.36 114.37 91.24 118.81 70.55 136.25"/><polygon class="cls-7" points="73.46 130.09 73.05 128.24 51.73 133.22 65.15 150.77 76.26 149.16 73.46 130.09"/><polygon class="cls-8" points="53.94 130.25 53.58 135.65 27.22 129 29.09 124.16 53.94 130.25"/><polygon class="cls-8" points="64.8 144.44 65.15 150.77 76.96 149.06 75.92 142.84 64.8 144.44"/><polygon class="cls-5" points="53.94 130.25 53.58 135.65 65.15 150.77 64.8 144.44 53.94 130.25"/><polygon class="cls-9" points="70.2 129.92 54.28 120.73 87.47 109.93 89.36 114.37 70.2 129.92"/><polygon class="cls-10" points="59.83 131.64 64.65 119.01 31.55 117.92 29.09 124.16 59.83 131.64"/><polygon class="cls-11" points="73.11 123.76 72.7 121.91 51.38 126.89 64.8 144.44 75.92 142.84 73.11 123.76"/><polygon class="cls-12" points="69.51 124.5 54.59 115.89 79.84 105.52 87.47 109.93 69.51 124.5"/><polygon class="cls-13" points="59.92 126.13 64.18 114.26 33.56 113.47 30.95 119.54 59.92 126.13"/><polygon class="cls-12" points="64.31 114.28 62.25 119.67 62.05 120.19 62.05 120.2 59.99 125.59 59.79 126.12 57.54 125.59 54.28 124.82 48.25 123.4 42.64 122.07 36.84 120.7 30.97 119.32 31.96 116.72 32.48 115.35 33.28 113.25 50.92 113.84 62.44 114.21 64.31 114.28"/><polygon class="cls-14" points="48.98 116.72 48.98 122.07 42.64 122.07 36.84 120.7 30.97 119.32 31.96 116.72 48.98 116.72"/><polygon class="cls-12" points="74.87 136.61 64.45 138.12 54.87 125.59 54.28 124.82 51.87 121.67 62.05 120.2 62.05 120.19 62.24 120.17 72.23 118.73 74.87 136.61"/><path class="cls-14" d="M62.44,114.21l-.19,5.46v.5l-.19,5.42H54.87l-.59-.77-6-1.42a5.45,5.45,0,0,1-1.38-4.08c.2-2.55,2.12-4.39,4.05-5.48Z"/><path class="cls-15" d="M72.78,116H71a8.41,8.41,0,0,0-1.38-1,16.79,16.79,0,0,0-15.17,0,8.91,8.91,0,0,0-1.52,1.11H51.33v3h0c-.11,1.67.94,3.36,3.15,4.64a16.76,16.76,0,0,0,15.17,0c2.27-1.31,3.3-3.07,3.09-4.79h0Z"/><path class="cls-12" d="M69.66,120.51a16.76,16.76,0,0,1-15.17,0,7.36,7.36,0,0,1-2.27-1.92,3.83,3.83,0,0,1-.47-4.19,6.53,6.53,0,0,1,2.7-2.64,16.74,16.74,0,0,1,15.16,0C73.81,114.18,73.83,118.1,69.66,120.51Z"/><path class="cls-9" d="M62.47,114.37l0,4.19H52.22a3.83,3.83,0,0,1-.47-4.19Z"/><path class="cls-16" d="M66.88,95.21h-.8a4.26,4.26,0,0,0-.62-.44,7.56,7.56,0,0,0-6.84,0,3.63,3.63,0,0,0-.68.5h-.72v20.38h0a2.35,2.35,0,0,0,1.43,2.09,7.54,7.54,0,0,0,6.83,0,2.28,2.28,0,0,0,1.39-2.16h0Z"/><path class="cls-12" d="M65.48,97.25a7.54,7.54,0,0,1-6.83,0c-1.9-1.1-1.91-2.86,0-3.95a7.59,7.59,0,0,1,6.84,0C67.35,94.4,67.36,96.16,65.48,97.25Z"/><path class="cls-17" d="M66.34,91.8h-.72a3,3,0,0,0-.55-.39,6.7,6.7,0,0,0-6.06,0,4.36,4.36,0,0,0-.61.44h-.63v2.81h0A2.11,2.11,0,0,0,59,96.51a6.7,6.7,0,0,0,6.06,0,2,2,0,0,0,1.24-1.91h0Z"/><polygon class="cls-18" points="54.3 124.86 53.94 130.25 29.09 124.16 30.97 119.31 54.3 124.86"/><polygon class="cls-9" points="64.45 138.12 64.8 144.44 75.92 142.84 74.87 136.61 64.45 138.12"/><polygon class="cls-19" points="54.3 124.86 53.94 130.25 64.8 144.44 64.45 138.12 54.3 124.86"/><path class="cls-20" d="M66.88,82.45h-.8a3.62,3.62,0,0,0-.62-.44,7.56,7.56,0,0,0-6.84,0,4.1,4.1,0,0,0-.68.49h-.72v8.54h0a2.37,2.37,0,0,0,1.43,2.09,7.54,7.54,0,0,0,6.83,0A2.27,2.27,0,0,0,66.87,91h0Z"/><path class="cls-21" d="M65.48,84.49a7.57,7.57,0,0,1-6.83,0c-1.9-1.1-1.91-2.86,0-4a7.56,7.56,0,0,1,6.84,0C67.35,81.64,67.36,83.4,65.48,84.49Z"/><path class="cls-22" d="M65.77,69.49h-.62a3.69,3.69,0,0,0-.48-.34,5.81,5.81,0,0,0-5.25,0,2.51,2.51,0,0,0-.53.39h-.56V82.06h0a1.8,1.8,0,0,0,1.09,1.6,5.8,5.8,0,0,0,5.26,0A1.76,1.76,0,0,0,65.76,82h0Z"/><path class="cls-21" d="M64.69,71.05a5.8,5.8,0,0,1-5.26,0c-1.45-.84-1.46-2.2,0-3a5.78,5.78,0,0,1,5.25,0C66.13,68.86,66.13,70.22,64.69,71.05Z"/><path class="cls-23" d="M74.79,68.9l-2.12,0A10.57,10.57,0,0,0,71,67.76c-5-2.88-13.05-2.9-18,0A9.58,9.58,0,0,0,51.21,69H49.32v1.72h0c-.13,2,1.12,4,3.75,5.5,5,2.88,13,2.9,18,0,2.7-1.56,3.92-3.65,3.67-5.69l0,1.85Z"/><polygon class="cls-24" points="54.02 68.76 42.2 64.84 22.35 65.23 22.32 63.59 42.45 63.2 54.54 67.2 54.02 68.76"/><path class="cls-21" d="M71.08,74.27c-5,2.86-13,2.85-18,0s-5-7.54-.06-10.4,13-2.85,18,0S76,71.41,71.08,74.27Z"/><polygon class="cls-25" points="51.69 80.43 68.19 70.9 68.19 69.61 51.25 79.39 51.69 80.43"/><polygon class="cls-4" points="43.47 74.9 60.41 65.12 68.19 69.61 51.25 79.39 43.47 74.9"/><polygon class="cls-5" points="72.64 80.68 44.88 64.65 43.4 62.51 72.64 79.39 72.64 80.68"/><polygon class="cls-4" points="80.43 74.9 51.19 58.01 43.4 62.51 72.64 79.39 80.43 74.9"/><polygon class="cls-26" points="72.64 80.68 80.43 76.19 80.43 74.9 72.64 79.39 72.64 80.68"/><path class="cls-23" d="M74.79,66.6l-2.12,0A10.57,10.57,0,0,0,71,65.46c-5-2.88-13.05-2.9-18,0a9.58,9.58,0,0,0-1.81,1.31H49.32v.89h0c-.13,2,1.12,4,3.75,5.5,5,2.88,13,2.9,18,0,2.7-1.56,3.92-3.65,3.67-5.69l0,1.85Z"/><path class="cls-21" d="M71.08,72c-5,2.86-13,2.85-18,0s-5-7.54-.06-10.4,13-2.85,18,0S76,69.11,71.08,72Z"/><polygon class="cls-21" points="59.09 64.12 50.01 54.76 38.92 47.18 39.84 45.83 51.13 53.56 60.26 62.98 59.09 64.12"/><polygon class="cls-27" points="63.17 73.11 53.15 67.32 53.15 59.33 63.17 65.12 63.17 73.11"/><polygon class="cls-28" points="70.95 60.62 60.93 54.84 53.15 59.33 63.17 65.12 70.95 60.62"/><polygon class="cls-26" points="63.17 73.11 70.95 68.61 70.95 60.62 63.17 65.12 63.17 73.11"/><path class="cls-29" d="M62.19,83.27a32.61,32.61,0,0,1-15.91-3.8c-4.52-2.62-7-6.17-7-10s2.46-7.33,6.93-9.91c8.69-5,22.88-5,31.63.05,4.53,2.62,7,6.17,7,10s-2.46,7.33-6.93,9.91h0A32.14,32.14,0,0,1,62.19,83.27Zm-.27-24.63A29.26,29.26,0,0,0,47.63,62c-3.53,2-5.48,4.67-5.48,7.41s2,5.44,5.58,7.52c8,4.59,20.84,4.61,28.74,0h0C80,75,82,72.35,82,69.61s-2-5.44-5.58-7.52A29.6,29.6,0,0,0,61.92,58.64Z"/><path class="cls-30" d="M62.19,81.94a31.58,31.58,0,0,1-15.47-3.7c-4.25-2.45-6.59-5.74-6.59-9.26s2.31-6.75,6.49-9.17c8.46-4.88,22.26-4.86,30.77.06C81.63,62.32,84,65.61,84,69.13s-2.3,6.75-6.49,9.16h0A31.18,31.18,0,0,1,62.19,81.94Zm-.27-24.63a30.08,30.08,0,0,0-14.72,3.5C43.39,63,41.28,65.91,41.28,69s2.14,6,6,8.26C55.48,82,68.77,82,76.9,77.29c3.82-2.2,5.92-5.1,5.92-8.16s-2.14-6-6-8.26A30.39,30.39,0,0,0,61.92,57.31Z"/><polygon class="cls-9" points="98.88 69.24 82.31 78.81 83.64 60.66 100.22 51.09 98.88 69.24"/><polygon class="cls-25" points="102.68 71.36 86.11 80.93 87.45 62.78 104.02 53.21 102.68 71.36"/><polygon class="cls-5" points="102.46 55.88 101.4 70.33 87.49 78.36 87.49 78.36 87.72 75.17 87.76 74.67 88.55 63.91 99.35 57.67 102.46 55.88"/><path class="cls-31" d="M99.35,57.67,98.89,64a8.47,8.47,0,0,1-4.19,6.68l-6.94,4,.79-10.76Z"/><path class="cls-32" d="M88.55,63.91l-.46,6.25,2.23-1.29a8.39,8.39,0,0,0,4.19-6.68l.13-1.8Z"/><path class="cls-33" d="M102.46,55.88a19,19,0,0,1-3.21,3.2c-.86,1.06-3.85,3.1-7.2,4.84-3.08,1.59-3.61,1.47-3.61,1.47l.11-1.48Z"/><path class="cls-34" d="M98.24,61s-.29,5.07-2.11,7.16-6,4.33-6,4.33a37,37,0,0,1,3.79-4C96,66.44,95.8,63.4,98.24,61Z"/><polygon class="cls-5" points="82.31 78.81 86.11 80.93 87.45 62.78 83.64 60.66 82.31 78.81"/><polygon class="cls-12" points="51.5 22.96 34.93 32.53 83.64 60.66 100.22 51.09 51.5 22.96"/><polygon class="cls-19" points="82.31 78.81 36.26 52.22 34.93 32.53 83.64 60.66 82.31 78.81"/><polygon class="cls-35" points="77.59 64.03 67.69 58.32 67.69 55.92 77.59 61.63 77.59 64.03"/><polygon class="cls-35" points="76.74 72.64 70.67 69.14 70.67 67.67 76.74 71.17 76.74 72.64"/><polygon class="cls-4" points="83.64 60.66 87.45 62.78 104.02 53.21 100.22 51.09 83.64 60.66"/><polygon class="cls-4" points="101.4 70.33 87.49 78.36 87.72 75.17 99.14 68.58 101.4 70.33"/><polygon class="cls-27" points="49.37 48.51 49.37 56.32 48.79 55.66 42.52 48.51 39.82 44.05 38.83 42.42 48.79 48.17 49.37 48.51"/><path class="cls-27" d="M49.37,56.32,49,56.5a.38.38,0,0,1-.22,0,16.17,16.17,0,0,1-3.12-1.37l-8.1-4.36V43l2.25,1L43,45.56l5.76,9.78Z"/><path class="cls-26" d="M49.37,48.51v7.81L49,56.5a.38.38,0,0,1-.22,0V48.17Z"/><path class="cls-36" d="M38.83,42.42,37.57,43l8.1,4.36c2.1,1,3.08,1.46,3.32,1.34l.38-.19Z"/><polygon class="cls-37" points="61.18 37.84 58.59 39.34 58.16 34.84 60.76 33.34 61.18 37.84"/><polygon class="cls-38" points="58.73 32.13 56.13 33.63 58.16 34.84 60.76 33.34 58.73 32.13"/><polygon class="cls-39" points="58.59 39.34 55.24 37.41 56.13 33.63 58.16 34.84 58.59 39.34"/><polygon class="cls-40" points="58.59 40.72 55.24 38.79 55.24 37.41 58.59 39.34 58.59 40.72"/><polygon class="cls-9" points="58.59 40.72 61.18 39.22 61.18 37.84 58.59 39.34 58.59 40.72"/><polygon class="cls-9" points="58.59 40.72 56.91 40.72 51.93 39.34 50.54 38.47 52.06 37.41 55.35 36.96 55.24 37.41 55.24 38.79 58.59 40.72"/><polygon class="cls-39" points="62.2 55.95 60.91 55.21 60.01 50.57 61.3 51.31 62.2 55.95"/><polygon class="cls-41" points="63.99 56.98 62.7 56.24 61.8 51.6 63.09 52.34 63.99 56.98"/><polygon class="cls-42" points="65.79 58.01 64.5 57.27 63.59 52.63 64.89 53.38 65.79 58.01"/><polygon class="cls-5" points="39.05 37.91 38.61 37.66 39.71 35.44 40.15 35.69 39.05 37.91"/><polygon class="cls-5" points="40.08 38.51 39.65 38.26 40.75 36.04 41.19 36.29 40.08 38.51"/><polygon class="cls-5" points="41.12 39.11 40.69 38.86 41.79 36.64 42.23 36.89 41.12 39.11"/><polygon class="cls-5" points="42.16 39.71 41.73 39.46 42.83 37.24 43.26 37.49 42.16 39.71"/><polygon class="cls-5" points="43.2 40.31 42.77 40.06 43.87 37.84 44.3 38.09 43.2 40.31"/><polygon class="cls-5" points="44.24 40.91 43.81 40.66 44.91 38.43 45.34 38.69 44.24 40.91"/><polygon class="cls-5" points="45.28 41.51 44.84 41.25 45.95 39.03 46.38 39.28 45.28 41.51"/><polygon class="cls-5" points="46.32 42.1 45.88 41.85 46.99 39.63 47.42 39.88 46.32 42.1"/><polygon class="cls-4" points="40.15 35.69 39.71 35.44 43.35 33.34 43.78 33.59 40.15 35.69"/><polygon class="cls-4" points="41.19 36.29 40.75 36.04 44.39 33.94 44.82 34.19 41.19 36.29"/><polygon class="cls-4" points="42.23 36.89 41.79 36.64 45.43 34.54 45.86 34.79 42.23 36.89"/><polygon class="cls-4" points="43.26 37.49 42.83 37.24 46.47 35.14 46.9 35.39 43.26 37.49"/><polygon class="cls-4" points="44.3 38.09 43.87 37.84 47.51 35.74 47.94 35.99 44.3 38.09"/><polygon class="cls-4" points="45.34 38.69 44.91 38.43 48.55 36.34 48.98 36.59 45.34 38.69"/><polygon class="cls-4" points="46.38 39.28 45.95 39.03 49.58 36.93 50.02 37.19 46.38 39.28"/><polygon class="cls-4" points="47.42 39.88 46.99 39.63 50.62 37.53 51.06 37.78 47.42 39.88"/></g></g></svg>