<svg xmlns="http://www.w3.org/2000/svg" viewBox="0 0 118.37 105.35"><defs><style>.cls-1{fill:#bfe4ed;}.cls-2{fill:#65bcda;}.cls-3{fill:#fff;}.cls-4{fill:#050000;}.cls-5{fill:#f0e7ed;}.cls-6{fill:#75bfaf;}.cls-7,.cls-8{fill:#5ab86a;}.cls-7{stroke:#050101;stroke-miterlimit:10;}</style></defs><g id="计算"><rect class="cls-1" x="68.72" y="30.84" width="41.44" height="19.01" rx="9.48"/><rect class="cls-1" x="6.67" y="14.7" width="29.9" height="19.01" rx="9.48"/><rect class="cls-1" x="14.99" y="70.45" width="41.44" height="19.01" rx="9.48"/><path class="cls-2" d="M32.67,56a8.94,8.94,0,0,1-.51-17.86A8.57,8.57,0,0,1,32,36.56,8.94,8.94,0,0,1,41,27.62a8.81,8.81,0,0,1,3.7.8,14.39,14.39,0,0,1,28.44.29,8.95,8.95,0,0,1,13.23,7.85,8,8,0,0,1-.14,1.56,8.44,8.44,0,0,1,1,0,8.95,8.95,0,0,1,0,17.89Z"/><rect class="cls-3" x="31.97" y="44.12" width="15.41" height="27.85" rx="0.94"/><rect class="cls-2" x="37.9" y="42.82" width="3.54" height="10.81" transform="translate(87.89 8.55) rotate(90)"/><rect class="cls-2" x="37.9" y="49.01" width="3.54" height="10.81" transform="translate(94.09 14.75) rotate(90)"/><rect class="cls-2" x="37.9" y="55.21" width="3.54" height="10.81" transform="translate(100.29 20.94) rotate(90)"/><rect class="cls-3" x="52.23" y="47.57" width="15.41" height="27.85" rx="0.94"/><rect class="cls-2" x="58.17" y="46.27" width="3.54" height="10.81" transform="translate(111.61 -8.27) rotate(90)"/><rect class="cls-2" x="58.17" y="52.46" width="3.54" height="10.81" transform="translate(117.81 -2.07) rotate(90)"/><rect class="cls-2" x="58.17" y="58.66" width="3.54" height="10.81" transform="translate(124 4.13) rotate(90)"/><rect class="cls-3" x="72.5" y="44.12" width="15.41" height="27.85" rx="0.94"/><rect class="cls-2" x="78.43" y="42.82" width="3.54" height="10.81" transform="translate(128.43 -31.98) rotate(90)"/><rect class="cls-2" x="78.43" y="49.01" width="3.54" height="10.81" transform="translate(134.62 -25.78) rotate(90)"/><rect class="cls-2" x="78.43" y="55.21" width="3.54" height="10.81" transform="translate(140.82 -19.59) rotate(90)"/><path class="cls-2" d="M39.67,64.37A2.63,2.63,0,1,0,42.3,67,2.62,2.62,0,0,0,39.67,64.37Z"/><path class="cls-2" d="M59.94,67.82a2.63,2.63,0,1,0,2.62,2.63A2.63,2.63,0,0,0,59.94,67.82Z"/><path class="cls-2" d="M80.2,64.37A2.63,2.63,0,1,0,82.83,67,2.62,2.62,0,0,0,80.2,64.37Z"/><rect class="cls-3" x="56.87" y="82.22" width="6.14" height="6.14"/><rect class="cls-3" x="77.13" y="82.22" width="6.14" height="6.14"/><rect class="cls-3" x="36.6" y="82.22" width="6.14" height="6.14"/><path class="cls-4" d="M94.31,84.72H83.85v-2.5a.57.57,0,0,0-.57-.57h-2.5V72.54H87A1.51,1.51,0,0,0,88.48,71V57a10.1,10.1,0,0,0-1-20.11v-.36a10.1,10.1,0,0,0-10.09-10.1,10.29,10.29,0,0,0-3.44.6,15.54,15.54,0,0,0-30.14-.18A9.73,9.73,0,0,0,41,26.46a10.11,10.11,0,0,0-10.11,10.1c0,.17,0,.36,0,.53A10.09,10.09,0,0,0,31.39,57V71a1.52,1.52,0,0,0,1.52,1.52H39.1v9.11H36.6a.58.58,0,0,0-.58.57v2.5H25.56a.56.56,0,0,0-.57.57.58.58,0,0,0,.57.58H36v2.49a.59.59,0,0,0,.58.58h6.14a.59.59,0,0,0,.58-.58V85.87h13v2.49a.58.58,0,0,0,.57.58H63a.59.59,0,0,0,.58-.58V85.87h13v2.49a.58.58,0,0,0,.57.58h6.15a.59.59,0,0,0,.57-.58V85.87H94.31a.58.58,0,0,0,.58-.58A.57.57,0,0,0,94.31,84.72Zm-7-13.7a.37.37,0,0,1-.36.37H73.44a.37.37,0,0,1-.36-.37v-26a.36.36,0,0,1,.36-.37H87a.36.36,0,0,1,.36.37ZM24.87,47a7.77,7.77,0,0,1,7.35-7.76,1.12,1.12,0,0,0,.85-.44,1.11,1.11,0,0,0,.22-.93,7.4,7.4,0,0,1-.12-1.31A7.82,7.82,0,0,1,41,28.76a7.72,7.72,0,0,1,3.22.71,1.18,1.18,0,0,0,1,0,1.1,1.1,0,0,0,.6-.83A13.24,13.24,0,0,1,72,28.87a1.15,1.15,0,0,0,1.69.85A7.78,7.78,0,0,1,85.2,36.56a7.14,7.14,0,0,1-.12,1.35,1.16,1.16,0,0,0,.3,1,1.12,1.12,0,0,0,1,.35,8,8,0,0,1,.86,0,7.79,7.79,0,0,1,1.26,15.47V45.06A1.51,1.51,0,0,0,87,43.54H73.44a1.51,1.51,0,0,0-1.51,1.52v9.75H68.22v-6.3A1.52,1.52,0,0,0,66.7,47H53.17a1.53,1.53,0,0,0-1.52,1.52v6.3H48V45.06a1.52,1.52,0,0,0-1.51-1.52H32.91a1.52,1.52,0,0,0-1.52,1.52v9.63A7.78,7.78,0,0,1,24.87,47Zm28.3,27.84a.38.38,0,0,1-.37-.37v-26a.37.37,0,0,1,.37-.37H66.7a.37.37,0,0,1,.37.37v26a.38.38,0,0,1-.37.37ZM32.54,71v-26a.36.36,0,0,1,.37-.37H46.44a.36.36,0,0,1,.36.37V71a.37.37,0,0,1-.36.37H32.91A.37.37,0,0,1,32.54,71Zm9.63,16.77h-5v-5h5Zm1.15-3.07v-2.5a.57.57,0,0,0-.58-.57H40.25V72.54h6.19A1.52,1.52,0,0,0,48,71V57.11h3.7V74.47A1.53,1.53,0,0,0,53.17,76h6.19v5.66H56.87a.56.56,0,0,0-.57.57v2.5Zm19.11,3.07h-5v-5h5Zm1.15-3.07v-2.5a.57.57,0,0,0-.58-.57H60.51V76H66.7a1.52,1.52,0,0,0,1.52-1.52V57.11h3.71V71a1.51,1.51,0,0,0,1.51,1.52h6.19v9.11h-2.5a.56.56,0,0,0-.57.57v2.5ZM82.7,87.79h-5v-5h5Z"/><path class="cls-5" d="M87.91,8.47a3.95,3.95,0,1,0,4,3.95A3.95,3.95,0,0,0,87.91,8.47Z"/><path class="cls-6" d="M13.17,52.36a1.72,1.72,0,1,0,1.72,1.71A1.72,1.72,0,0,0,13.17,52.36Z"/><path class="cls-6" d="M105.25,64.12A1.72,1.72,0,1,0,107,65.84,1.72,1.72,0,0,0,105.25,64.12Z"/><path class="cls-6" d="M23.72,93.75a1.72,1.72,0,1,0,1.71,1.72A1.72,1.72,0,0,0,23.72,93.75Z"/><path class="cls-2" d="M91.38,87.88a2.94,2.94,0,1,0,2.94,2.94A2.94,2.94,0,0,0,91.38,87.88Z"/></g><g id="就绪"><circle class="cls-7" cx="89.56" cy="85.5" r="13.81"/><circle class="cls-3" cx="89.56" cy="85.42" r="11.01"/><path class="cls-8" d="M87.17,88.81H87a.84.84,0,0,1-.54-.35L84,84.9a.84.84,0,1,1,1.38-1l2,2.86L94,82.22a.84.84,0,1,1,1,1.38l-7.28,5.06A.83.83,0,0,1,87.17,88.81Z"/></g></svg>