<?xml version="1.0" standalone="no"?><!DOCTYPE svg PUBLIC "-//W3C//DTD SVG 1.1//EN" "http://www.w3.org/Graphics/SVG/1.1/DTD/svg11.dtd"><svg t="1658285880701" class="icon" viewBox="0 0 1024 1024" version="1.1" xmlns="http://www.w3.org/2000/svg" p-id="14502" xmlns:xlink="http://www.w3.org/1999/xlink" width="200" height="200"><defs><style type="text/css">@font-face { font-family: feedback-iconfont; src: url("//at.alicdn.com/t/font_1031158_u69w8yhxdu.woff2?t=1630033759944") format("woff2"), url("//at.alicdn.com/t/font_1031158_u69w8yhxdu.woff?t=1630033759944") format("woff"), url("//at.alicdn.com/t/font_1031158_u69w8yhxdu.ttf?t=1630033759944") format("truetype"); }
</style></defs><path d="M96.042667 243.456l102.826666 221.866667a110.933333 110.933333 0 0 1 0 93.312l-102.826666 221.866666a111.104 111.104 0 0 0 150.570666 146.005334l630.485334-315.008a111.232 111.232 0 0 0 0-198.997334L246.613333 97.493333A111.104 111.104 0 0 0 96 243.456z" fill="#FFB531" p-id="14503"></path><path d="M381.44 512a32.213333 32.213333 0 0 1-32 32H117.333333a32 32 0 1 1 0-64h232.106667a31.957333 31.957333 0 0 1 32 32z" fill="#030835" p-id="14504"></path></svg>