<svg xmlns="http://www.w3.org/2000/svg" viewBox="0 0 118.37 101.87"><defs><style>.cls-1{fill:#d6d9d9;}.cls-2{fill:#fff;}.cls-3{fill:#6bb7cd;}.cls-4{fill:#65bcda;}.cls-5{fill:#050000;}.cls-6{fill:#7abed6;}.cls-7{fill:#c2e1e9;}.cls-8,.cls-9{fill:#5ab86a;}.cls-8{stroke:#050101;stroke-miterlimit:10;}</style></defs><g id="控制"><rect class="cls-1" x="6.67" y="61.2" width="30.22" height="19.21" rx="9.58"/><rect class="cls-1" x="68.42" y="47.28" width="41.89" height="19.21" rx="9.58"/><rect class="cls-1" x="9.3" y="15.37" width="41.89" height="19.21" rx="9.58"/><path class="cls-1" d="M62.75,6.41A2.85,2.85,0,1,0,65.6,9.26,2.85,2.85,0,0,0,62.75,6.41Z"/><rect class="cls-2" x="21.52" y="22.24" width="74.39" height="53.28" rx="3.99"/><path class="cls-3" d="M91.93,22.24H87.27V75.52h4.66a4,4,0,0,0,4-4V26.23A4,4,0,0,0,91.93,22.24Z"/><path class="cls-3" d="M32.38,22.24H25.51a4,4,0,0,0-4,4V71.54a4,4,0,0,0,4,4h6.87Z"/><circle class="cls-2" cx="26.95" cy="48.88" r="1.87"/><path class="cls-2" d="M91.59,48.53A.58.58,0,0,1,91,48V45.67a.58.58,0,1,1,1.16,0V48A.58.58,0,0,1,91.59,48.53Z"/><path class="cls-2" d="M91.59,52.67a.58.58,0,0,1-.58-.58V51a.58.58,0,1,1,1.16,0v1.06A.58.58,0,0,1,91.59,52.67Z"/><path class="cls-3" d="M44.69,64.87a.58.58,0,0,1-.58-.58V33.47a.58.58,0,1,1,1.16,0V64.29A.58.58,0,0,1,44.69,64.87Z"/><path class="cls-3" d="M55.2,64.87a.58.58,0,0,1-.58-.58V33.47a.58.58,0,1,1,1.16,0V64.29A.58.58,0,0,1,55.2,64.87Z"/><path class="cls-3" d="M65.71,64.87a.58.58,0,0,1-.58-.58V33.47a.58.58,0,1,1,1.16,0V64.29A.58.58,0,0,1,65.71,64.87Z"/><path class="cls-3" d="M76.22,64.87a.58.58,0,0,1-.58-.58V33.47a.58.58,0,0,1,1.16,0V64.29A.58.58,0,0,1,76.22,64.87Z"/><path class="cls-2" d="M44.69,37.41a4.7,4.7,0,1,0,4.7,4.7A4.69,4.69,0,0,0,44.69,37.41Z"/><path class="cls-3" d="M44.69,47.39A5.28,5.28,0,1,1,50,42.11,5.29,5.29,0,0,1,44.69,47.39Zm0-9.4a4.12,4.12,0,1,0,4.12,4.12A4.13,4.13,0,0,0,44.69,38Z"/><path class="cls-3" d="M42.31,42.69a.58.58,0,0,1-.58-.58,3,3,0,0,1,3-3,.58.58,0,0,1,0,1.16,1.81,1.81,0,0,0-1.8,1.8A.58.58,0,0,1,42.31,42.69Z"/><path class="cls-2" d="M55.2,50.32A4.71,4.71,0,1,0,59.9,55,4.7,4.7,0,0,0,55.2,50.32Z"/><path class="cls-3" d="M55.2,60.31A5.29,5.29,0,1,1,60.48,55,5.29,5.29,0,0,1,55.2,60.31Zm0-9.4A4.12,4.12,0,1,0,59.32,55,4.12,4.12,0,0,0,55.2,50.91Z"/><path class="cls-3" d="M52.82,55.61a.58.58,0,0,1-.58-.59,3,3,0,0,1,3-3,.58.58,0,0,1,0,1.16A1.8,1.8,0,0,0,53.4,55,.58.58,0,0,1,52.82,55.61Z"/><path class="cls-2" d="M65.71,36.27a4.7,4.7,0,1,0,4.7,4.7A4.69,4.69,0,0,0,65.71,36.27Z"/><path class="cls-3" d="M65.71,46.25A5.28,5.28,0,1,1,71,41,5.29,5.29,0,0,1,65.71,46.25Zm0-9.4A4.12,4.12,0,1,0,69.83,41,4.13,4.13,0,0,0,65.71,36.85Z"/><path class="cls-3" d="M68.09,41.55a.58.58,0,0,1-.58-.58,1.81,1.81,0,0,0-1.8-1.8.58.58,0,1,1,0-1.16,3,3,0,0,1,3,3A.58.58,0,0,1,68.09,41.55Z"/><path class="cls-2" d="M76.49,50.32A4.71,4.71,0,1,0,81.19,55,4.7,4.7,0,0,0,76.49,50.32Z"/><path class="cls-3" d="M76.49,60.31A5.29,5.29,0,1,1,81.77,55,5.29,5.29,0,0,1,76.49,60.31Zm0-9.4A4.12,4.12,0,1,0,80.61,55,4.12,4.12,0,0,0,76.49,50.91Z"/><path class="cls-3" d="M78.87,55.61a.58.58,0,0,1-.58-.59,1.8,1.8,0,0,0-1.8-1.79.58.58,0,1,1,0-1.16,3,3,0,0,1,3,3A.58.58,0,0,1,78.87,55.61Z"/><path class="cls-4" d="M51,52.34a8.28,8.28,0,1,0,8.28,8.28A8.28,8.28,0,0,0,51,52.34Z"/><path class="cls-4" d="M61.47,72.77H40.6A4.25,4.25,0,0,0,36.35,77V88.6H65.71V77A4.24,4.24,0,0,0,61.47,72.77Z"/><polygon class="cls-2" points="47.41 72.77 44.55 76.36 48.22 88.6 53.84 88.6 57.51 76.36 54.66 72.77 47.41 72.77"/><polygon class="cls-3" points="52.24 76.17 53.67 72.77 48.4 72.77 49.82 76.17 52.24 76.17"/><polygon class="cls-3" points="52.24 76.17 53.67 88.6 48.4 88.6 49.82 76.17 52.24 76.17"/><path class="cls-5" d="M91.93,21.08H25.51a5.15,5.15,0,0,0-5.15,5.15V71.54a5.16,5.16,0,0,0,5.15,5.15H35.78c0,.1,0,.22,0,.32V88.6a.58.58,0,0,0,.58.58H65.71a.57.57,0,0,0,.58-.58V77c0-.1,0-.22,0-.32H91.93a5.15,5.15,0,0,0,5.14-5.15V26.23A5.14,5.14,0,0,0,91.93,21.08Zm0,2.32a2.83,2.83,0,0,1,2.82,2.83V71.54a2.82,2.82,0,0,1-2.82,2.82H88.14v-51Zm-66.42,51a2.83,2.83,0,0,1-2.83-2.82V26.23a2.83,2.83,0,0,1,2.83-2.83h6v51ZM36.93,88V77a1.67,1.67,0,0,1,0-.32,3.68,3.68,0,0,1,3.65-3.34h5.61L44.1,76a.54.54,0,0,0-.1.53l0,.17L47.45,88ZM48,73.35l1.22,2.89-.06.45-1.08,9.45-2.84-9.45,0-.21c.09-.12,2.65-3.32,2.49-3.13Zm6.37,0,2.49,3.13-.06.21L54,86.15l-1.08-9.46-.06-.45,1.22-2.89Zm-2.52,2.24H50.21l-.93-2.24H52.8ZM49.05,88l1.28-11.26h1.4L53,88Zm16.08,0H54.62L58,76.69l0-.17A.59.59,0,0,0,58,76l-2.1-2.64h5.6a3.64,3.64,0,0,1,3.64,3.34,1.67,1.67,0,0,1,0,.32Zm.36-13.66a4.8,4.8,0,0,0-4-2.17H40.6a4.82,4.82,0,0,0-4,2.17H33.26v-51H86.4v51Z"/><path class="cls-5" d="M51,51.75a8.87,8.87,0,1,0,8.87,8.87A8.88,8.88,0,0,0,51,51.75Zm0,16.57a7.7,7.7,0,1,1,7.71-7.7A7.7,7.7,0,0,1,51,68.32Z"/><path class="cls-6" d="M105.17,19.58a1.8,1.8,0,1,0,1.79,1.8A1.8,1.8,0,0,0,105.17,19.58Z"/><path class="cls-3" d="M10.72,45a1.8,1.8,0,1,0,1.8,1.79A1.79,1.79,0,0,0,10.72,45Z"/><path class="cls-7" d="M78.87,90.58a1.8,1.8,0,1,0,1.79,1.8A1.81,1.81,0,0,0,78.87,90.58Z"/></g><g id="就绪"><circle class="cls-8" cx="89.56" cy="78.91" r="13.81"/><circle class="cls-2" cx="89.56" cy="78.82" r="11.01"/><path class="cls-9" d="M87.17,82.22H87a.84.84,0,0,1-.54-.35L84,78.31a.85.85,0,0,1,.21-1.18.84.84,0,0,1,1.17.22l2,2.86L94,75.63a.84.84,0,1,1,1,1.38l-7.28,5.06A.83.83,0,0,1,87.17,82.22Z"/></g></svg>