<svg xmlns="http://www.w3.org/2000/svg" viewBox="0 0 116.58 101.87"><defs><style>.cls-1{fill:#d6d9d9;}.cls-2{fill:#fff;}.cls-3{fill:#6bb7cd;}.cls-4{fill:#65bcda;}.cls-5{fill:#050000;}.cls-6{fill:#7abed6;}.cls-7{fill:#c2e1e9;}.cls-8,.cls-9{fill:#7f6db0;}.cls-8{stroke:#050101;stroke-miterlimit:10;}</style></defs><g id="控制"><rect class="cls-1" x="5.64" y="61.2" width="30.22" height="19.21" rx="9.58"/><rect class="cls-1" x="67.39" y="47.28" width="41.89" height="19.21" rx="9.58"/><rect class="cls-1" x="8.27" y="15.37" width="41.89" height="19.21" rx="9.58"/><path class="cls-1" d="M61.72,6.41a2.85,2.85,0,1,0,2.85,2.85A2.85,2.85,0,0,0,61.72,6.41Z"/><rect class="cls-2" x="20.5" y="22.24" width="74.39" height="53.28" rx="3.99"/><path class="cls-3" d="M90.9,22.24H86.24V75.52H90.9a4,4,0,0,0,4-4V26.23A4,4,0,0,0,90.9,22.24Z"/><path class="cls-3" d="M31.35,22.24H24.48a4,4,0,0,0-4,4V71.54a4,4,0,0,0,4,4h6.87Z"/><circle class="cls-2" cx="25.93" cy="48.88" r="1.87"/><path class="cls-2" d="M90.56,48.53A.58.58,0,0,1,90,48V45.67a.58.58,0,1,1,1.16,0V48A.58.58,0,0,1,90.56,48.53Z"/><path class="cls-2" d="M90.56,52.67a.58.58,0,0,1-.58-.58V51a.58.58,0,1,1,1.16,0v1.06A.58.58,0,0,1,90.56,52.67Z"/><path class="cls-3" d="M43.66,64.87a.58.58,0,0,1-.58-.58V33.47a.58.58,0,1,1,1.16,0V64.29A.58.58,0,0,1,43.66,64.87Z"/><path class="cls-3" d="M54.17,64.87a.58.58,0,0,1-.58-.58V33.47a.58.58,0,0,1,1.16,0V64.29A.58.58,0,0,1,54.17,64.87Z"/><path class="cls-3" d="M64.68,64.87a.58.58,0,0,1-.58-.58V33.47a.58.58,0,0,1,1.16,0V64.29A.58.58,0,0,1,64.68,64.87Z"/><path class="cls-3" d="M75.19,64.87a.58.58,0,0,1-.58-.58V33.47a.58.58,0,0,1,1.16,0V64.29A.58.58,0,0,1,75.19,64.87Z"/><path class="cls-2" d="M43.66,37.41a4.7,4.7,0,1,0,4.7,4.7A4.69,4.69,0,0,0,43.66,37.41Z"/><path class="cls-3" d="M43.66,47.39a5.28,5.28,0,1,1,5.28-5.28A5.29,5.29,0,0,1,43.66,47.39Zm0-9.4a4.12,4.12,0,1,0,4.12,4.12A4.13,4.13,0,0,0,43.66,38Z"/><path class="cls-3" d="M41.28,42.69a.58.58,0,0,1-.58-.58,3,3,0,0,1,3-3,.58.58,0,0,1,0,1.16,1.8,1.8,0,0,0-1.79,1.8A.58.58,0,0,1,41.28,42.69Z"/><path class="cls-2" d="M54.17,50.32A4.71,4.71,0,1,0,58.87,55,4.71,4.71,0,0,0,54.17,50.32Z"/><path class="cls-3" d="M54.17,60.31A5.29,5.29,0,1,1,59.45,55,5.29,5.29,0,0,1,54.17,60.31Zm0-9.4A4.12,4.12,0,1,0,58.29,55,4.12,4.12,0,0,0,54.17,50.91Z"/><path class="cls-3" d="M51.8,55.61a.58.58,0,0,1-.59-.59,3,3,0,0,1,3-3,.58.58,0,0,1,0,1.16A1.79,1.79,0,0,0,52.38,55,.58.58,0,0,1,51.8,55.61Z"/><path class="cls-2" d="M64.68,36.27a4.7,4.7,0,1,0,4.7,4.7A4.7,4.7,0,0,0,64.68,36.27Z"/><path class="cls-3" d="M64.68,46.25A5.28,5.28,0,1,1,70,41,5.29,5.29,0,0,1,64.68,46.25Zm0-9.4A4.12,4.12,0,1,0,68.8,41,4.13,4.13,0,0,0,64.68,36.85Z"/><path class="cls-3" d="M67.06,41.55a.58.58,0,0,1-.58-.58,1.81,1.81,0,0,0-1.8-1.8.58.58,0,1,1,0-1.16,3,3,0,0,1,3,3A.58.58,0,0,1,67.06,41.55Z"/><path class="cls-2" d="M75.46,50.32A4.71,4.71,0,1,0,80.16,55,4.71,4.71,0,0,0,75.46,50.32Z"/><path class="cls-3" d="M75.46,60.31A5.29,5.29,0,1,1,80.74,55,5.29,5.29,0,0,1,75.46,60.31Zm0-9.4A4.12,4.12,0,1,0,79.58,55,4.12,4.12,0,0,0,75.46,50.91Z"/><path class="cls-3" d="M77.84,55.61a.58.58,0,0,1-.58-.59,1.8,1.8,0,0,0-1.8-1.79.58.58,0,1,1,0-1.16,3,3,0,0,1,3,3A.58.58,0,0,1,77.84,55.61Z"/><path class="cls-4" d="M50,52.34a8.28,8.28,0,1,0,8.29,8.28A8.28,8.28,0,0,0,50,52.34Z"/><path class="cls-4" d="M60.44,72.77H39.57A4.24,4.24,0,0,0,35.33,77V88.6H64.68V77A4.24,4.24,0,0,0,60.44,72.77Z"/><polygon class="cls-2" points="46.38 72.77 43.52 76.36 47.19 88.6 52.81 88.6 56.49 76.36 53.63 72.77 46.38 72.77"/><polygon class="cls-3" points="51.21 76.17 52.64 72.77 47.37 72.77 48.79 76.17 51.21 76.17"/><polygon class="cls-3" points="51.21 76.17 52.64 88.6 47.37 88.6 48.79 76.17 51.21 76.17"/><path class="cls-5" d="M90.9,21.08H24.48a5.15,5.15,0,0,0-5.15,5.15V71.54a5.16,5.16,0,0,0,5.15,5.15H34.75c0,.1,0,.22,0,.32V88.6a.58.58,0,0,0,.58.58H64.68a.57.57,0,0,0,.58-.58V77c0-.1,0-.22,0-.32H90.9A5.15,5.15,0,0,0,96,71.54V26.23A5.14,5.14,0,0,0,90.9,21.08Zm0,2.32a2.83,2.83,0,0,1,2.82,2.83V71.54a2.82,2.82,0,0,1-2.82,2.82H87.12v-51Zm-66.42,51a2.83,2.83,0,0,1-2.83-2.82V26.23a2.83,2.83,0,0,1,2.83-2.83h6v51ZM35.9,88V77a1.12,1.12,0,0,1,0-.32,3.66,3.66,0,0,1,3.65-3.34h5.6L43.07,76a.57.57,0,0,0-.1.53l.05.17L46.42,88ZM47,73.35l1.22,2.89-.06.45-1.08,9.45-2.83-9.45-.06-.21,2.5-3.13Zm6.37,0,2.49,3.13-.06.21-2.84,9.46-1.08-9.46-.06-.45L53,73.35Zm-2.52,2.24H49.18l-.93-2.24h3.52ZM48,88,49.3,76.76h1.4L52,88ZM64.1,88H53.59L57,76.69l0-.17a.63.63,0,0,0-.11-.53l-2.1-2.64h5.6a3.64,3.64,0,0,1,3.64,3.34,1.67,1.67,0,0,1,0,.32Zm.36-13.66a4.79,4.79,0,0,0-4-2.17H39.58a4.82,4.82,0,0,0-4,2.17H32.23v-51H85.37v51Z"/><path class="cls-5" d="M50,51.75a8.87,8.87,0,1,0,8.87,8.87A8.87,8.87,0,0,0,50,51.75Zm0,16.57a7.7,7.7,0,1,1,7.71-7.7A7.7,7.7,0,0,1,50,68.32Z"/><path class="cls-6" d="M104.14,19.58a1.8,1.8,0,1,0,1.79,1.8A1.81,1.81,0,0,0,104.14,19.58Z"/><path class="cls-3" d="M9.7,45a1.8,1.8,0,1,0,1.79,1.79A1.79,1.79,0,0,0,9.7,45Z"/><path class="cls-7" d="M77.84,90.58a1.8,1.8,0,1,0,1.79,1.8A1.81,1.81,0,0,0,77.84,90.58Z"/></g><g id="运行"><circle class="cls-8" cx="88.53" cy="78.91" r="13.81"/><circle class="cls-2" cx="88.53" cy="78.82" r="11.01"/><path class="cls-9" d="M92.86,79.26l-6.59,4a.52.52,0,0,1-.79-.44v-8a.52.52,0,0,1,.79-.44l6.59,4A.51.51,0,0,1,92.86,79.26Z"/></g></svg>