<svg xmlns="http://www.w3.org/2000/svg" viewBox="0 0 118.37 101.87"><defs><style>.cls-1{fill:#d6d9d9;}.cls-2{fill:#fff;}.cls-3{fill:#6bb7cd;}.cls-4{fill:#65bcda;}.cls-5{fill:#050000;}.cls-6{fill:#7abed6;}.cls-7{fill:#c2e1e9;}.cls-8,.cls-9{fill:#efca32;}.cls-8{stroke:#050101;stroke-miterlimit:10;}</style></defs><g id="控制"><rect class="cls-1" x="8.5" y="61.2" width="30.22" height="19.21" rx="9.58"/><rect class="cls-1" x="70.25" y="47.28" width="41.89" height="19.21" rx="9.58"/><rect class="cls-1" x="11.12" y="15.37" width="41.89" height="19.21" rx="9.58"/><path class="cls-1" d="M64.58,6.41a2.85,2.85,0,1,0,2.85,2.85A2.85,2.85,0,0,0,64.58,6.41Z"/><rect class="cls-2" x="23.35" y="22.24" width="74.39" height="53.28" rx="3.99"/><path class="cls-3" d="M93.76,22.24H89.1V75.52h4.66a4,4,0,0,0,4-4V26.23A4,4,0,0,0,93.76,22.24Z"/><path class="cls-3" d="M34.21,22.24H27.34a4,4,0,0,0-4,4V71.54a4,4,0,0,0,4,4h6.87Z"/><circle class="cls-2" cx="28.78" cy="48.88" r="1.87"/><path class="cls-2" d="M93.42,48.53a.58.58,0,0,1-.58-.58V45.67a.58.58,0,0,1,1.16,0V48A.58.58,0,0,1,93.42,48.53Z"/><path class="cls-2" d="M93.42,52.67a.58.58,0,0,1-.58-.58V51A.58.58,0,1,1,94,51v1.06A.58.58,0,0,1,93.42,52.67Z"/><path class="cls-3" d="M46.52,64.87a.58.58,0,0,1-.58-.58V33.47a.58.58,0,0,1,1.16,0V64.29A.58.58,0,0,1,46.52,64.87Z"/><path class="cls-3" d="M57,64.87a.58.58,0,0,1-.58-.58V33.47a.58.58,0,0,1,1.16,0V64.29A.58.58,0,0,1,57,64.87Z"/><path class="cls-3" d="M67.54,64.87a.58.58,0,0,1-.58-.58V33.47a.58.58,0,1,1,1.16,0V64.29A.58.58,0,0,1,67.54,64.87Z"/><path class="cls-3" d="M78.05,64.87a.58.58,0,0,1-.58-.58V33.47a.58.58,0,0,1,1.16,0V64.29A.58.58,0,0,1,78.05,64.87Z"/><path class="cls-2" d="M46.52,37.41a4.7,4.7,0,1,0,4.7,4.7A4.69,4.69,0,0,0,46.52,37.41Z"/><path class="cls-3" d="M46.52,47.39a5.28,5.28,0,1,1,5.28-5.28A5.29,5.29,0,0,1,46.52,47.39Zm0-9.4a4.12,4.12,0,1,0,4.12,4.12A4.13,4.13,0,0,0,46.52,38Z"/><path class="cls-3" d="M44.14,42.69a.58.58,0,0,1-.58-.58,3,3,0,0,1,3-3,.58.58,0,1,1,0,1.16,1.81,1.81,0,0,0-1.8,1.8A.58.58,0,0,1,44.14,42.69Z"/><path class="cls-2" d="M57,50.32A4.71,4.71,0,1,0,61.73,55,4.7,4.7,0,0,0,57,50.32Z"/><path class="cls-3" d="M57,60.31A5.29,5.29,0,1,1,62.31,55,5.29,5.29,0,0,1,57,60.31Zm0-9.4A4.12,4.12,0,1,0,61.15,55,4.12,4.12,0,0,0,57,50.91Z"/><path class="cls-3" d="M54.65,55.61a.58.58,0,0,1-.58-.59,3,3,0,0,1,3-3,.58.58,0,0,1,0,1.16A1.8,1.8,0,0,0,55.23,55,.58.58,0,0,1,54.65,55.61Z"/><path class="cls-2" d="M67.54,36.27a4.7,4.7,0,1,0,4.7,4.7A4.69,4.69,0,0,0,67.54,36.27Z"/><path class="cls-3" d="M67.54,46.25A5.28,5.28,0,1,1,72.82,41,5.29,5.29,0,0,1,67.54,46.25Zm0-9.4A4.12,4.12,0,1,0,71.66,41,4.13,4.13,0,0,0,67.54,36.85Z"/><path class="cls-3" d="M69.92,41.55a.58.58,0,0,1-.59-.58,1.8,1.8,0,0,0-1.79-1.8.58.58,0,1,1,0-1.16,3,3,0,0,1,3,3A.58.58,0,0,1,69.92,41.55Z"/><path class="cls-2" d="M78.32,50.32A4.71,4.71,0,1,0,83,55,4.7,4.7,0,0,0,78.32,50.32Z"/><path class="cls-3" d="M78.32,60.31A5.29,5.29,0,1,1,83.6,55,5.29,5.29,0,0,1,78.32,60.31Zm0-9.4A4.12,4.12,0,1,0,82.44,55,4.12,4.12,0,0,0,78.32,50.91Z"/><path class="cls-3" d="M80.7,55.61a.58.58,0,0,1-.59-.59,1.79,1.79,0,0,0-1.79-1.79.58.58,0,0,1,0-1.16,3,3,0,0,1,3,3A.58.58,0,0,1,80.7,55.61Z"/><path class="cls-4" d="M52.86,52.34a8.28,8.28,0,1,0,8.28,8.28A8.28,8.28,0,0,0,52.86,52.34Z"/><path class="cls-4" d="M63.3,72.77H42.43A4.24,4.24,0,0,0,38.18,77V88.6H67.54V77A4.24,4.24,0,0,0,63.3,72.77Z"/><polygon class="cls-2" points="49.24 72.77 46.38 76.36 50.05 88.6 55.67 88.6 59.34 76.36 56.48 72.77 49.24 72.77"/><polygon class="cls-3" points="54.07 76.17 55.49 72.77 50.23 72.77 51.65 76.17 54.07 76.17"/><polygon class="cls-3" points="54.07 76.17 55.49 88.6 50.23 88.6 51.65 76.17 54.07 76.17"/><path class="cls-5" d="M93.76,21.08H27.33a5.15,5.15,0,0,0-5.14,5.15V71.54a5.16,5.16,0,0,0,5.14,5.15H37.61c0,.1,0,.22,0,.32V88.6a.58.58,0,0,0,.58.58H67.54a.57.57,0,0,0,.58-.58V77c0-.1,0-.22,0-.32H93.76a5.15,5.15,0,0,0,5.14-5.15V26.23A5.14,5.14,0,0,0,93.76,21.08Zm0,2.32a2.83,2.83,0,0,1,2.82,2.83V71.54a2.82,2.82,0,0,1-2.82,2.82H90v-51Zm-66.43,51a2.83,2.83,0,0,1-2.82-2.82V26.23a2.83,2.83,0,0,1,2.82-2.83h6v51ZM38.76,88V77a1.67,1.67,0,0,1,0-.32,3.67,3.67,0,0,1,3.65-3.34H48L45.93,76a.54.54,0,0,0-.1.53l0,.17L49.28,88ZM49.84,73.35l1.22,2.89-.06.45-1.08,9.45-2.84-9.45L47,76.48c.1-.12,2.66-3.32,2.5-3.13Zm6.37,0c.09.12,2.64,3.32,2.48,3.13l0,.21L55.8,86.15l-1.08-9.46-.06-.45,1.22-2.89Zm-2.53,2.24H52c-.05-.12-1-2.38-.93-2.24h3.53C54.58,73.47,53.63,75.73,53.68,75.59ZM50.88,88l1.28-11.26h1.4L54.85,88ZM67,88H56.45l3.41-11.33,0-.17a.63.63,0,0,0-.1-.53l-2.11-2.64H63.3a3.64,3.64,0,0,1,3.64,3.34A1.67,1.67,0,0,1,67,77Zm.36-13.66a4.8,4.8,0,0,0-4-2.17H42.43a4.82,4.82,0,0,0-4,2.17H35.09v-51H88.23v51Z"/><path class="cls-5" d="M52.86,51.75a8.87,8.87,0,1,0,8.87,8.87A8.88,8.88,0,0,0,52.86,51.75Zm0,16.57a7.7,7.7,0,1,1,7.71-7.7A7.71,7.71,0,0,1,52.86,68.32Z"/><path class="cls-6" d="M107,19.58a1.8,1.8,0,1,0,1.8,1.8A1.8,1.8,0,0,0,107,19.58Z"/><path class="cls-3" d="M12.55,45a1.8,1.8,0,1,0,1.8,1.79A1.79,1.79,0,0,0,12.55,45Z"/><path class="cls-7" d="M80.7,90.58a1.8,1.8,0,1,0,1.79,1.8A1.8,1.8,0,0,0,80.7,90.58Z"/></g><g id="未创建"><circle class="cls-8" cx="91.47" cy="78.83" r="13.9"/><circle class="cls-2" cx="91.47" cy="78.74" r="11.08"/><polygon class="cls-9" points="92.53 80.91 90.41 80.91 89.69 73.32 93.25 73.32 92.53 80.91"/><path class="cls-9" d="M92.51,82.44a1.33,1.33,0,0,1-1.85,1.86.84.84,0,0,1-.23-.23,1.33,1.33,0,0,1,1.85-1.86A.72.72,0,0,1,92.51,82.44Z"/></g></svg>