<svg xmlns="http://www.w3.org/2000/svg" viewBox="0 0 116.58 105.35"><defs><style>.cls-1{fill:#bfe4ed;}.cls-2{fill:#65bcda;}.cls-3{fill:#fff;}.cls-4{fill:#050000;}.cls-5{fill:#f0e7ed;}.cls-6{fill:#75bfaf;}.cls-7,.cls-8{fill:#7f6db0;}.cls-7{stroke:#050101;stroke-miterlimit:10;}</style></defs><g id="计算"><rect class="cls-1" x="67.69" y="30.84" width="41.44" height="19.01" rx="9.48"/><rect class="cls-1" x="5.64" y="14.7" width="29.9" height="19.01" rx="9.48"/><rect class="cls-1" x="13.96" y="70.45" width="41.44" height="19.01" rx="9.48"/><path class="cls-2" d="M31.64,56a8.94,8.94,0,0,1-.51-17.86A8.57,8.57,0,0,1,31,36.56a9,9,0,0,1,12.66-8.14,14.38,14.38,0,0,1,28.43.29,9,9,0,0,1,13.1,9.41,8.17,8.17,0,0,1,1,0,8.95,8.95,0,0,1,0,17.89Z"/><rect class="cls-3" x="30.94" y="44.12" width="15.41" height="27.85" rx="0.94"/><rect class="cls-2" x="36.87" y="42.82" width="3.54" height="10.81" transform="translate(86.87 9.58) rotate(90)"/><rect class="cls-2" x="36.87" y="49.01" width="3.54" height="10.81" transform="translate(93.06 15.78) rotate(90)"/><rect class="cls-2" x="36.87" y="55.21" width="3.54" height="10.81" transform="translate(99.26 21.97) rotate(90)"/><rect class="cls-3" x="51.2" y="47.57" width="15.41" height="27.85" rx="0.94"/><rect class="cls-2" x="57.14" y="46.27" width="3.54" height="10.81" transform="translate(110.58 -7.24) rotate(90)"/><rect class="cls-2" x="57.14" y="52.46" width="3.54" height="10.81" transform="translate(116.78 -1.04) rotate(90)"/><rect class="cls-2" x="57.14" y="58.66" width="3.54" height="10.81" transform="translate(122.98 5.16) rotate(90)"/><rect class="cls-3" x="71.47" y="44.12" width="15.41" height="27.85" rx="0.94"/><rect class="cls-2" x="77.4" y="42.82" width="3.54" height="10.81" transform="translate(127.4 -30.95) rotate(90)"/><rect class="cls-2" x="77.4" y="49.01" width="3.54" height="10.81" transform="translate(133.59 -24.76) rotate(90)"/><rect class="cls-2" x="77.4" y="55.21" width="3.54" height="10.81" transform="translate(139.79 -18.56) rotate(90)"/><path class="cls-2" d="M38.64,64.37A2.63,2.63,0,1,0,41.27,67,2.62,2.62,0,0,0,38.64,64.37Z"/><path class="cls-2" d="M58.91,67.82a2.63,2.63,0,1,0,2.63,2.63A2.63,2.63,0,0,0,58.91,67.82Z"/><path class="cls-2" d="M79.17,64.37A2.63,2.63,0,1,0,81.8,67,2.62,2.62,0,0,0,79.17,64.37Z"/><rect class="cls-3" x="55.84" y="82.22" width="6.14" height="6.14"/><rect class="cls-3" x="76.1" y="82.22" width="6.14" height="6.14"/><rect class="cls-3" x="35.57" y="82.22" width="6.14" height="6.14"/><path class="cls-4" d="M93.29,84.72H82.82v-2.5a.57.57,0,0,0-.57-.57h-2.5V72.54h6.19A1.52,1.52,0,0,0,87.46,71V57a10.1,10.1,0,0,0-1-20.11v-.36a10.1,10.1,0,0,0-10.09-10.1,10.33,10.33,0,0,0-3.44.6,15.54,15.54,0,0,0-30.14-.18A9.73,9.73,0,0,0,40,26.46a10.12,10.12,0,0,0-10.11,10.1c0,.17,0,.36,0,.53A10.09,10.09,0,0,0,30.36,57V71a1.52,1.52,0,0,0,1.52,1.52h6.19v9.11h-2.5a.57.57,0,0,0-.57.57v2.5H24.53a.56.56,0,0,0-.57.57.58.58,0,0,0,.57.58H35v2.49a.59.59,0,0,0,.57.58h6.14a.59.59,0,0,0,.58-.58V85.87h13v2.49a.58.58,0,0,0,.57.58H62a.58.58,0,0,0,.58-.58V85.87h13v2.49a.58.58,0,0,0,.58.58h6.14a.59.59,0,0,0,.57-.58V85.87H93.29a.58.58,0,0,0,.57-.58A.56.56,0,0,0,93.29,84.72Zm-7-13.7a.37.37,0,0,1-.37.37H72.41a.37.37,0,0,1-.36-.37v-26a.36.36,0,0,1,.36-.37H85.94a.36.36,0,0,1,.37.37ZM23.84,47a7.77,7.77,0,0,1,7.35-7.76A1.12,1.12,0,0,0,32,38.8a1.11,1.11,0,0,0,.22-.93,7.4,7.4,0,0,1-.12-1.31A7.82,7.82,0,0,1,40,28.76a7.72,7.72,0,0,1,3.22.71,1.2,1.2,0,0,0,1,0,1.09,1.09,0,0,0,.59-.83A13.24,13.24,0,0,1,71,28.87a1.15,1.15,0,0,0,1.69.85,7.78,7.78,0,0,1,11.53,6.84,7.14,7.14,0,0,1-.12,1.35,1.16,1.16,0,0,0,.3,1,1.12,1.12,0,0,0,1,.35,8,8,0,0,1,.86,0,7.79,7.79,0,0,1,1.27,15.47V45.06a1.52,1.52,0,0,0-1.52-1.52H72.41a1.52,1.52,0,0,0-1.51,1.52v9.75H67.19v-6.3A1.51,1.51,0,0,0,65.68,47H52.14a1.53,1.53,0,0,0-1.52,1.52v6.3h-3.7V45.06a1.52,1.52,0,0,0-1.51-1.52H31.88a1.52,1.52,0,0,0-1.52,1.52v9.63A7.78,7.78,0,0,1,23.84,47Zm28.3,27.84a.38.38,0,0,1-.37-.37v-26a.38.38,0,0,1,.37-.37H65.68a.37.37,0,0,1,.36.37v26a.37.37,0,0,1-.36.37ZM31.51,71v-26a.36.36,0,0,1,.37-.37H45.41a.36.36,0,0,1,.36.37V71a.37.37,0,0,1-.36.37H31.88A.37.37,0,0,1,31.51,71Zm9.63,16.77h-5v-5h5Zm1.15-3.07v-2.5a.57.57,0,0,0-.58-.57H39.22V72.54h6.19A1.52,1.52,0,0,0,46.92,71V57.11h3.7V74.47A1.53,1.53,0,0,0,52.14,76h6.19v5.66H55.84a.56.56,0,0,0-.57.57v2.5ZM61.4,87.79h-5v-5h5Zm1.15-3.07v-2.5a.57.57,0,0,0-.58-.57H59.48V76h6.2a1.51,1.51,0,0,0,1.51-1.52V57.11H70.9V71a1.52,1.52,0,0,0,1.51,1.52H78.6v9.11H76.11a.57.57,0,0,0-.58.57v2.5Zm19.12,3.07h-5v-5h5Z"/><path class="cls-5" d="M86.88,8.47a3.95,3.95,0,1,0,4,3.95A3.95,3.95,0,0,0,86.88,8.47Z"/><path class="cls-6" d="M12.14,52.36a1.72,1.72,0,1,0,1.72,1.71A1.72,1.72,0,0,0,12.14,52.36Z"/><path class="cls-6" d="M104.23,64.12a1.72,1.72,0,1,0,1.71,1.72A1.72,1.72,0,0,0,104.23,64.12Z"/><path class="cls-6" d="M22.69,93.75a1.72,1.72,0,1,0,1.71,1.72A1.72,1.72,0,0,0,22.69,93.75Z"/><path class="cls-2" d="M90.35,87.88a2.94,2.94,0,1,0,2.94,2.94A2.94,2.94,0,0,0,90.35,87.88Z"/></g><g id="运行"><circle class="cls-7" cx="88.53" cy="85.5" r="13.81"/><circle class="cls-3" cx="88.53" cy="85.42" r="11.01"/><path class="cls-8" d="M92.86,85.85l-6.59,4a.52.52,0,0,1-.79-.44v-8a.52.52,0,0,1,.79-.44l6.59,4A.51.51,0,0,1,92.86,85.85Z"/></g></svg>