<svg xmlns="http://www.w3.org/2000/svg" viewBox="0 0 119.49 105.35"><defs><style>.cls-1{fill:#bfe4ed;}.cls-2{fill:#65bcda;}.cls-3{fill:#fff;}.cls-4{fill:#050000;}.cls-5{fill:#f0e7ed;}.cls-6{fill:#75bfaf;}.cls-7,.cls-8{fill:#5588c7;}.cls-7{stroke:#050101;stroke-miterlimit:10;}</style></defs><g id="计算"><rect class="cls-1" x="70.16" y="30.84" width="41.44" height="19.01" rx="9.48"/><rect class="cls-1" x="8.11" y="14.7" width="29.9" height="19.01" rx="9.48"/><rect class="cls-1" x="16.44" y="70.45" width="41.44" height="19.01" rx="9.48"/><path class="cls-2" d="M34.11,56a8.94,8.94,0,0,1-.5-17.86,7.74,7.74,0,0,1-.14-1.54,9,9,0,0,1,9-8.94,8.82,8.82,0,0,1,3.71.8,14.39,14.39,0,0,1,28.44.29,8.82,8.82,0,0,1,4.29-1.09,8.94,8.94,0,0,1,8.94,8.94,8,8,0,0,1-.14,1.56,8.44,8.44,0,0,1,1,0,8.95,8.95,0,0,1,0,17.89Z"/><rect class="cls-3" x="33.41" y="44.12" width="15.41" height="27.85" rx="0.94"/><rect class="cls-2" x="39.35" y="42.82" width="3.54" height="10.81" transform="translate(89.34 7.1) rotate(90)"/><rect class="cls-2" x="39.35" y="49.01" width="3.54" height="10.81" transform="translate(95.54 13.3) rotate(90)"/><rect class="cls-2" x="39.35" y="55.21" width="3.54" height="10.81" transform="translate(101.73 19.5) rotate(90)"/><rect class="cls-3" x="53.68" y="47.57" width="15.41" height="27.85" rx="0.94"/><rect class="cls-2" x="59.61" y="46.27" width="3.54" height="10.81" transform="translate(113.06 -9.71) rotate(90)"/><rect class="cls-2" x="59.61" y="52.46" width="3.54" height="10.81" transform="translate(119.25 -3.51) rotate(90)"/><rect class="cls-2" x="59.61" y="58.66" width="3.54" height="10.81" transform="translate(125.45 2.68) rotate(90)"/><rect class="cls-3" x="73.94" y="44.12" width="15.41" height="27.85" rx="0.94"/><rect class="cls-2" x="79.88" y="42.82" width="3.54" height="10.81" transform="translate(129.87 -33.43) rotate(90)"/><rect class="cls-2" x="79.88" y="49.01" width="3.54" height="10.81" transform="translate(136.07 -27.23) rotate(90)"/><rect class="cls-2" x="79.88" y="55.21" width="3.54" height="10.81" transform="translate(142.27 -21.03) rotate(90)"/><path class="cls-2" d="M41.12,64.37A2.63,2.63,0,1,0,43.75,67,2.63,2.63,0,0,0,41.12,64.37Z"/><path class="cls-2" d="M61.38,67.82A2.63,2.63,0,1,0,64,70.45,2.62,2.62,0,0,0,61.38,67.82Z"/><path class="cls-2" d="M81.65,64.37A2.63,2.63,0,1,0,84.28,67,2.63,2.63,0,0,0,81.65,64.37Z"/><rect class="cls-3" x="58.31" y="82.22" width="6.14" height="6.14"/><rect class="cls-3" x="78.58" y="82.22" width="6.14" height="6.14"/><rect class="cls-3" x="38.05" y="82.22" width="6.14" height="6.14"/><path class="cls-4" d="M95.76,84.72H85.3v-2.5a.58.58,0,0,0-.58-.57h-2.5V72.54h6.19A1.52,1.52,0,0,0,89.93,71V57a10.1,10.1,0,0,0-1-20.11v-.36a10.1,10.1,0,0,0-10.08-10.1,10.24,10.24,0,0,0-3.44.6A15.61,15.61,0,0,0,60.33,15.22a15.43,15.43,0,0,0-15,11.66,9.78,9.78,0,0,0-2.85-.42,10.11,10.11,0,0,0-10.11,10.1c0,.17,0,.36,0,.53A10.09,10.09,0,0,0,32.84,57V71a1.51,1.51,0,0,0,1.51,1.52h6.19v9.11H38.05a.57.57,0,0,0-.58.57v2.5H27a.57.57,0,0,0-.58.57.58.58,0,0,0,.58.58H37.47v2.49a.59.59,0,0,0,.58.58h6.14a.58.58,0,0,0,.57-.58V85.87h13v2.49a.59.59,0,0,0,.58.58h6.13a.58.58,0,0,0,.57-.58V85.87H78v2.49a.58.58,0,0,0,.57.58h6.14a.59.59,0,0,0,.58-.58V85.87H95.76a.58.58,0,0,0,.57-.58A.56.56,0,0,0,95.76,84.72Zm-7-13.7a.37.37,0,0,1-.37.37H74.89a.37.37,0,0,1-.37-.37v-26a.36.36,0,0,1,.37-.37H88.41a.36.36,0,0,1,.37.37ZM26.32,47a7.77,7.77,0,0,1,7.34-7.76,1.09,1.09,0,0,0,.85-.44,1.11,1.11,0,0,0,.22-.93,7.45,7.45,0,0,1-.11-1.31,7.78,7.78,0,0,1,11-7.09,1.18,1.18,0,0,0,1,0,1.13,1.13,0,0,0,.6-.83A13.14,13.14,0,0,1,60.33,17.52a13.28,13.28,0,0,1,13.1,11.35,1.15,1.15,0,0,0,1.69.85,7.78,7.78,0,0,1,11.52,6.84,7.17,7.17,0,0,1-.11,1.35,1.13,1.13,0,0,0,.3,1,1.1,1.1,0,0,0,1,.35,8.31,8.31,0,0,1,.87,0,7.79,7.79,0,0,1,1.26,15.47V45.06a1.52,1.52,0,0,0-1.52-1.52H74.89a1.52,1.52,0,0,0-1.52,1.52v9.75h-3.7v-6.3A1.52,1.52,0,0,0,68.15,47H54.62a1.53,1.53,0,0,0-1.52,1.52v6.3H49.39V45.06a1.51,1.51,0,0,0-1.5-1.52H34.35a1.51,1.51,0,0,0-1.51,1.52v9.63A7.77,7.77,0,0,1,26.32,47Zm28.3,27.84a.38.38,0,0,1-.37-.37v-26a.37.37,0,0,1,.37-.37H68.15a.37.37,0,0,1,.37.37v26a.38.38,0,0,1-.37.37ZM34,71v-26a.36.36,0,0,1,.36-.37H47.89a.36.36,0,0,1,.35.37V71a.37.37,0,0,1-.35.37H34.35A.37.37,0,0,1,34,71Zm9.62,16.77h-5v-5h5Zm1.15-3.07v-2.5a.56.56,0,0,0-.57-.57h-2.5V72.54h6.2A1.51,1.51,0,0,0,49.39,71V57.11H53.1V74.47A1.53,1.53,0,0,0,54.62,76h6.19v5.66H58.32a.57.57,0,0,0-.58.57v2.5Zm19.11,3.07h-5v-5h5ZM65,84.72v-2.5a.56.56,0,0,0-.57-.57H62V76h6.19a1.52,1.52,0,0,0,1.52-1.52V57.11h3.7V71a1.52,1.52,0,0,0,1.52,1.52h6.18v9.11H78.58a.56.56,0,0,0-.57.57v2.5Zm19.13,3.07h-5v-5h5Z"/><path class="cls-5" d="M89.35,8.47a3.95,3.95,0,1,0,4,3.95A3.94,3.94,0,0,0,89.35,8.47Z"/><path class="cls-6" d="M14.62,52.36a1.72,1.72,0,1,0,1.71,1.71A1.72,1.72,0,0,0,14.62,52.36Z"/><path class="cls-6" d="M106.7,64.12a1.72,1.72,0,1,0,1.72,1.72A1.72,1.72,0,0,0,106.7,64.12Z"/><path class="cls-6" d="M25.16,93.75a1.72,1.72,0,1,0,1.72,1.72A1.72,1.72,0,0,0,25.16,93.75Z"/><path class="cls-2" d="M92.82,87.88a2.94,2.94,0,1,0,2.94,2.94A2.93,2.93,0,0,0,92.82,87.88Z"/></g><g id="睡眠"><circle class="cls-7" cx="91.09" cy="85.42" r="13.9"/><circle class="cls-3" cx="91.09" cy="85.33" r="11.08"/><path class="cls-8" d="M86.93,84.35a1.84,1.84,0,0,1-2.58,2.59.78.78,0,0,1-.24-.24,1.84,1.84,0,0,1,2.58-2.59A.91.91,0,0,1,86.93,84.35Z"/><path class="cls-8" d="M92.53,84.35a1.84,1.84,0,0,1-2.59,2.59.78.78,0,0,1-.24-.24,1.84,1.84,0,0,1,2.58-2.59A1.14,1.14,0,0,1,92.53,84.35Z"/><path class="cls-8" d="M98.12,84.35a1.84,1.84,0,0,1-2.59,2.59.78.78,0,0,1-.24-.24,1.84,1.84,0,0,1,2.58-2.59A1.14,1.14,0,0,1,98.12,84.35Z"/></g></svg>