<svg xmlns="http://www.w3.org/2000/svg" viewBox="0 0 116.58 105.54"><defs><style>.cls-1{fill:#ebedf1;}.cls-2{fill:#73bcc3;}.cls-3{fill:#61b2cf;}.cls-4{fill:#d9edf6;}.cls-5{fill:#65bcda;}.cls-6{fill:#040000;}.cls-7{fill:#fff;}.cls-8,.cls-9{fill:#7f6db0;}.cls-8{stroke:#050101;stroke-miterlimit:10;}</style></defs><g id="管理"><rect class="cls-1" x="57" y="31.49" width="52.28" height="17.67" rx="7.67"/><rect class="cls-1" x="23.4" y="60.36" width="62.19" height="17.67" rx="7.67"/><rect class="cls-1" x="5.64" y="31.49" width="35.51" height="17.67" rx="7.67"/><ellipse class="cls-2" cx="93.32" cy="18.9" rx="1.77" ry="1.27" transform="translate(13.97 71.52) rotate(-45)"/><path class="cls-2" d="M25.28,15.82a3.63,3.63,0,0,1-5.09,5.09,1.79,1.79,0,0,1-.48-.47,3.63,3.63,0,0,1,5.09-5.1A1.83,1.83,0,0,1,25.28,15.82Z"/><path class="cls-3" d="M92,85.49a1.91,1.91,0,0,1-2.67,2.67,1.14,1.14,0,0,1-.29-.29,1.91,1.91,0,0,1,2.68-2.67A1.1,1.1,0,0,1,92,85.49Z"/><path class="cls-4" d="M17.19,65.87a4.09,4.09,0,0,1-5.74,5.74,2.14,2.14,0,0,1-.52-.52,4.09,4.09,0,0,1,5.74-5.74A1.61,1.61,0,0,1,17.19,65.87Z"/><circle class="cls-5" cx="57.46" cy="51.57" r="19.2"/><path class="cls-6" d="M91.22,47.9A3.67,3.67,0,0,0,87.6,51h-9A21.08,21.08,0,0,0,76,41.51L83.85,37a3.69,3.69,0,1,0-.57-1l-7.85,4.53a21.18,21.18,0,0,0-6.93-6.94L73,25.74a3.61,3.61,0,0,0,4.48-1.57,3.67,3.67,0,1,0-5.49,1L67.52,33A21.08,21.08,0,0,0,58,30.47v-9a3.67,3.67,0,1,0-1.16,0v9A21.11,21.11,0,0,0,47.4,33l-4.51-7.82a3.74,3.74,0,1,0-1,.56l4.54,7.85a21.25,21.25,0,0,0-6.93,6.93L31.65,36a3.68,3.68,0,1,0-.58,1l7.82,4.51A20.94,20.94,0,0,0,36.37,51h-9a3.68,3.68,0,1,0,0,1.15h9a20.91,20.91,0,0,0,2.52,9.48l-7.82,4.52a3.66,3.66,0,1,0,.58,1l7.84-4.53a21.15,21.15,0,0,0,6.93,6.93L41.88,77.4A3.63,3.63,0,0,0,37.4,79a3.67,3.67,0,1,0,6.36,3.67A3.64,3.64,0,0,0,42.89,78l4.51-7.82a21,21,0,0,0,9.48,2.52v9a3.67,3.67,0,1,0,1.16,0v-9a20.94,20.94,0,0,0,9.48-2.52L72,78a3.67,3.67,0,1,0,5.49,1A3.61,3.61,0,0,0,73,77.4L68.5,69.54a21.15,21.15,0,0,0,6.93-6.93l7.85,4.53a3.63,3.63,0,0,0,1.58,4.48,3.67,3.67,0,1,0-1-5.48L76,61.62a21,21,0,0,0,2.53-9.48h9a3.67,3.67,0,1,0,3.62-4.24ZM85.43,32.51A2.52,2.52,0,0,1,88,36.87,2.59,2.59,0,0,1,84.51,36h0A2.52,2.52,0,0,1,85.43,32.51ZM72.16,21.08a2.52,2.52,0,1,1,4.36,2.51,2.59,2.59,0,0,1-3.44.93A2.52,2.52,0,0,1,72.16,21.08ZM38.4,23.59a2.52,2.52,0,1,1,3.44.93A2.59,2.59,0,0,1,38.4,23.59ZM27,36.87A2.52,2.52,0,1,1,30.41,36,2.57,2.57,0,0,1,27,36.87Zm2.52,33.76a2.59,2.59,0,0,1-3.44-.93,2.52,2.52,0,0,1,4.36-2.52h0A2.53,2.53,0,0,1,29.49,70.63ZM42.76,82.06a2.57,2.57,0,0,1-3.44.92,2.52,2.52,0,1,1,3.44-.92Zm33.76-2.52A2.53,2.53,0,0,1,75.6,83a2.57,2.57,0,0,1-3.44-.92,2.52,2.52,0,1,1,4.36-2.52ZM88,66.26a2.51,2.51,0,0,1,.92,3.44,2.58,2.58,0,0,1-3.44.93A2.52,2.52,0,0,1,88,66.26Zm-33-48.45a2.52,2.52,0,1,1,2.52,2.52A2.52,2.52,0,0,1,54.94,17.81ZM23.71,54.09a2.52,2.52,0,1,1,2.51-2.52A2.52,2.52,0,0,1,23.71,54.09ZM60,85.32a2.52,2.52,0,1,1-2.52-2.52A2.52,2.52,0,0,1,60,85.32ZM57.46,70.39A18.82,18.82,0,1,1,76.28,51.57,18.84,18.84,0,0,1,57.46,70.39Zm33.76-16.3a2.52,2.52,0,1,1,2.51-2.52A2.52,2.52,0,0,1,91.22,54.09Z"/><circle class="cls-7" cx="57.46" cy="51.57" r="14.75"/><path class="cls-5" d="M66,55.45V61H49V55.45a2.36,2.36,0,0,1,2.36-2.36h4.6l1.55,3.38L59,53.09h4.6A2.36,2.36,0,0,1,66,55.45Z"/><path class="cls-5" d="M62.13,44.54c0,2.58-2.09,6.21-4.67,6.21s-4.67-3.63-4.67-6.21a4.67,4.67,0,0,1,9.34,0Z"/></g><g id="运行"><circle class="cls-8" cx="92.7" cy="83.34" r="13.81"/><circle class="cls-7" cx="92.7" cy="83.25" r="11.01"/><path class="cls-9" d="M97,83.69l-6.59,4a.51.51,0,0,1-.78-.44v-8a.51.51,0,0,1,.78-.44l6.59,4A.51.51,0,0,1,97,83.69Z"/></g></svg>