<svg xmlns="http://www.w3.org/2000/svg" viewBox="0 0 118.37 105.54"><defs><style>.cls-1{fill:#ebedf1;}.cls-2{fill:#73bcc3;}.cls-3{fill:#61b2cf;}.cls-4{fill:#d9edf6;}.cls-5{fill:#65bcda;}.cls-6{fill:#040000;}.cls-7{fill:#fff;}.cls-8,.cls-9{fill:#5ab86a;}.cls-8{stroke:#050101;stroke-miterlimit:10;}</style></defs><g id="管理"><rect class="cls-1" x="58.03" y="31.49" width="52.28" height="17.67" rx="7.67"/><rect class="cls-1" x="24.43" y="60.36" width="62.19" height="17.67" rx="7.67"/><rect class="cls-1" x="6.67" y="31.49" width="35.51" height="17.67" rx="7.67"/><ellipse class="cls-2" cx="94.35" cy="18.9" rx="1.77" ry="1.27" transform="translate(14.27 72.25) rotate(-45)"/><path class="cls-2" d="M26.31,15.82a3.63,3.63,0,0,1-5.09,5.09,1.66,1.66,0,0,1-.48-.47,3.63,3.63,0,0,1,5.09-5.1A1.83,1.83,0,0,1,26.31,15.82Z"/><path class="cls-3" d="M93.07,85.49a1.91,1.91,0,0,1-2.67,2.67,1,1,0,0,1-.29-.29,1.91,1.91,0,0,1,2.67-2.67A1.33,1.33,0,0,1,93.07,85.49Z"/><path class="cls-4" d="M18.22,65.87a4.09,4.09,0,0,1-5.74,5.74,1.84,1.84,0,0,1-.52-.52,4.09,4.09,0,0,1,5.74-5.74A1.72,1.72,0,0,1,18.22,65.87Z"/><circle class="cls-5" cx="58.49" cy="51.57" r="19.2"/><path class="cls-6" d="M92.24,47.9A3.67,3.67,0,0,0,88.63,51h-9a20.94,20.94,0,0,0-2.52-9.48L84.87,37a3.69,3.69,0,1,0-.57-1l-7.84,4.53a21.28,21.28,0,0,0-6.93-6.94l4.54-7.85a3.6,3.6,0,0,0,4.47-1.57,3.67,3.67,0,1,0-5.48,1L68.55,33a21.12,21.12,0,0,0-9.49-2.53v-9a3.67,3.67,0,1,0-1.15,0v9A21.08,21.08,0,0,0,48.43,33l-4.51-7.82a3.74,3.74,0,1,0-1,.56l4.54,7.85a21.38,21.38,0,0,0-6.94,6.93L32.67,36a3.66,3.66,0,0,0-6.59-3.15,3.67,3.67,0,0,0,6,4.15l7.82,4.51A21.08,21.08,0,0,0,37.39,51h-9a3.68,3.68,0,1,0,0,1.15h9a21,21,0,0,0,2.53,9.48L32.1,66.14a3.69,3.69,0,1,0,.57,1l7.84-4.53a21.28,21.28,0,0,0,6.94,6.93L42.91,77.4A3.62,3.62,0,0,0,38.43,79a3.67,3.67,0,1,0,5.49-1l4.51-7.82a20.94,20.94,0,0,0,9.48,2.52v9a3.68,3.68,0,1,0,1.15,0v-9a21,21,0,0,0,9.49-2.52L73.06,78a3.66,3.66,0,1,0,5.48,1,3.6,3.6,0,0,0-4.47-1.56l-4.54-7.86a21.25,21.25,0,0,0,6.93-6.93l7.84,4.53a3.65,3.65,0,1,0,.57-1l-7.81-4.52a20.91,20.91,0,0,0,2.52-9.48h9a3.66,3.66,0,1,0,3.61-4.24ZM86.46,32.51A2.52,2.52,0,0,1,89,36.87,2.58,2.58,0,0,1,85.54,36h0A2.52,2.52,0,0,1,86.46,32.51ZM73.18,21.08a2.52,2.52,0,1,1,4.37,2.51,2.59,2.59,0,0,1-3.44.93A2.52,2.52,0,0,1,73.18,21.08ZM39.43,23.59a2.52,2.52,0,1,1,3.44.93A2.59,2.59,0,0,1,39.43,23.59ZM28,36.87A2.52,2.52,0,1,1,31.44,36,2.58,2.58,0,0,1,28,36.87Zm2.52,33.76a2.6,2.6,0,0,1-3.45-.93,2.52,2.52,0,0,1,4.37-2.52h0A2.53,2.53,0,0,1,30.52,70.63ZM43.79,82.06a2.57,2.57,0,0,1-3.44.92,2.52,2.52,0,1,1,3.44-.92Zm33.76-2.52A2.53,2.53,0,0,1,76.63,83a2.59,2.59,0,0,1-3.45-.92,2.52,2.52,0,0,1,4.37-2.52ZM89,66.26a2.51,2.51,0,0,1,.92,3.44,2.59,2.59,0,0,1-3.44.93A2.52,2.52,0,0,1,89,66.26ZM56,17.81a2.52,2.52,0,1,1,2.52,2.52A2.52,2.52,0,0,1,56,17.81ZM24.73,54.09a2.52,2.52,0,1,1,2.52-2.52A2.52,2.52,0,0,1,24.73,54.09ZM61,85.32a2.52,2.52,0,1,1-2.52-2.52A2.52,2.52,0,0,1,61,85.32ZM58.49,70.39A18.82,18.82,0,1,1,77.31,51.57,18.84,18.84,0,0,1,58.49,70.39Zm33.75-16.3a2.52,2.52,0,1,1,2.52-2.52A2.52,2.52,0,0,1,92.24,54.09Z"/><circle class="cls-7" cx="58.49" cy="51.57" r="14.75"/><path class="cls-5" d="M67,55.45V61H50V55.45a2.35,2.35,0,0,1,2.36-2.36h4.6l1.55,3.38L60,53.09h4.61A2.35,2.35,0,0,1,67,55.45Z"/><path class="cls-5" d="M63.16,44.54c0,2.58-2.09,6.21-4.67,6.21s-4.67-3.63-4.67-6.21a4.67,4.67,0,1,1,9.34,0Z"/></g><g id="就绪"><circle class="cls-8" cx="93.73" cy="83.34" r="13.81"/><circle class="cls-7" cx="93.73" cy="83.25" r="11.01"/><path class="cls-9" d="M91.34,86.65l-.15,0a.82.82,0,0,1-.54-.35l-2.46-3.55a.84.84,0,0,1,1.39-1l2,2.86,6.59-4.58a.85.85,0,0,1,1.17.21.86.86,0,0,1-.21,1.18L91.82,86.5A.83.83,0,0,1,91.34,86.65Z"/></g></svg>