<svg xmlns="http://www.w3.org/2000/svg" viewBox="0 0 119.49 105.54"><defs><style>.cls-1{fill:#ebedf1;}.cls-2{fill:#73bcc3;}.cls-3{fill:#61b2cf;}.cls-4{fill:#d9edf6;}.cls-5{fill:#65bcda;}.cls-6{fill:#040000;}.cls-7{fill:#fff;}.cls-8,.cls-9{fill:#5588c7;}.cls-8{stroke:#050101;stroke-miterlimit:10;}</style></defs><g id="管理"><rect class="cls-1" x="59.47" y="31.49" width="52.28" height="17.67" rx="7.67"/><rect class="cls-1" x="25.87" y="60.36" width="62.19" height="17.67" rx="7.67"/><rect class="cls-1" x="8.11" y="31.49" width="35.51" height="17.67" rx="7.67"/><ellipse class="cls-2" cx="95.8" cy="18.9" rx="1.77" ry="1.27" transform="translate(14.69 73.27) rotate(-45)"/><path class="cls-2" d="M27.75,15.82a3.63,3.63,0,0,1-5.09,5.09,1.62,1.62,0,0,1-.47-.47,3.63,3.63,0,0,1,5.09-5.1A1.79,1.79,0,0,1,27.75,15.82Z"/><path class="cls-3" d="M94.51,85.49a1.9,1.9,0,0,1-2.67,2.67,1,1,0,0,1-.28-.29,1.9,1.9,0,0,1,2.67-2.67A1.1,1.1,0,0,1,94.51,85.49Z"/><path class="cls-4" d="M19.67,65.87a4.09,4.09,0,0,1-5.75,5.74,2.14,2.14,0,0,1-.52-.52c-2.73-4.08,1.67-8.47,5.75-5.74A1.84,1.84,0,0,1,19.67,65.87Z"/><circle class="cls-5" cx="59.93" cy="51.57" r="19.2"/><path class="cls-6" d="M93.69,47.9A3.66,3.66,0,0,0,90.08,51H81a20.94,20.94,0,0,0-2.52-9.48L86.32,37a3.69,3.69,0,1,0-.57-1l-7.84,4.53A21.38,21.38,0,0,0,71,33.59l4.53-7.85A3.61,3.61,0,0,0,80,24.17a3.67,3.67,0,1,0-5.48,1L70,33a21.08,21.08,0,0,0-9.48-2.53v-9a3.68,3.68,0,1,0-1.15,0v9A21.08,21.08,0,0,0,49.88,33l-4.52-7.82a3.66,3.66,0,1,0-5.48-1,3.62,3.62,0,0,0,4.48,1.57l4.53,7.85A21.34,21.34,0,0,0,42,40.52L34.12,36a3.65,3.65,0,1,0-.57,1l7.81,4.51A20.94,20.94,0,0,0,38.84,51H29.79a3.68,3.68,0,1,0,0,1.15h9.05a20.91,20.91,0,0,0,2.52,9.48l-7.81,4.52a3.69,3.69,0,1,0,.57,1L42,62.61a21.25,21.25,0,0,0,6.93,6.93L44.36,77.4A3.62,3.62,0,0,0,39.88,79a3.67,3.67,0,1,0,5.48-1l4.52-7.82a20.94,20.94,0,0,0,9.48,2.52v9a3.67,3.67,0,1,0,1.15,0v-9A20.94,20.94,0,0,0,70,70.14L74.51,78A3.66,3.66,0,1,0,80,79a3.61,3.61,0,0,0-4.48-1.56L71,69.54a21.34,21.34,0,0,0,6.93-6.93l7.84,4.53a3.65,3.65,0,1,0,.57-1l-7.81-4.52A20.91,20.91,0,0,0,81,52.14h9a3.66,3.66,0,1,0,3.61-4.24ZM87.91,32.51a2.52,2.52,0,0,1,2.52,4.36A2.58,2.58,0,0,1,87,36h0A2.52,2.52,0,0,1,87.91,32.51ZM74.63,21.08A2.52,2.52,0,1,1,79,23.59a2.59,2.59,0,0,1-3.44.93A2.53,2.53,0,0,1,74.63,21.08ZM40.88,23.59a2.52,2.52,0,1,1,3.44.93A2.58,2.58,0,0,1,40.88,23.59ZM29.44,36.87A2.52,2.52,0,1,1,32.88,36,2.57,2.57,0,0,1,29.44,36.87ZM32,70.63a2.59,2.59,0,0,1-3.44-.93,2.52,2.52,0,0,1,4.36-2.52h0A2.51,2.51,0,0,1,32,70.63ZM45.24,82.06A2.58,2.58,0,0,1,41.8,83a2.52,2.52,0,1,1,3.44-.92ZM79,79.54A2.52,2.52,0,0,1,78.07,83a2.57,2.57,0,0,1-3.44-.92A2.52,2.52,0,1,1,79,79.54ZM90.43,66.26a2.53,2.53,0,0,1,.92,3.44,2.59,2.59,0,0,1-3.44.93,2.52,2.52,0,0,1,2.52-4.37Zm-33-48.45a2.52,2.52,0,1,1,2.51,2.52A2.51,2.51,0,0,1,57.42,17.81ZM26.18,54.09a2.52,2.52,0,1,1,2.52-2.52A2.52,2.52,0,0,1,26.18,54.09ZM62.45,85.32a2.52,2.52,0,1,1-2.52-2.52A2.52,2.52,0,0,1,62.45,85.32ZM59.93,70.39A18.82,18.82,0,1,1,78.75,51.57,18.85,18.85,0,0,1,59.93,70.39Zm33.76-16.3a2.52,2.52,0,1,1,2.52-2.52A2.52,2.52,0,0,1,93.69,54.09Z"/><circle class="cls-7" cx="59.93" cy="51.57" r="14.75"/><path class="cls-5" d="M68.44,55.45V61h-17V55.45a2.35,2.35,0,0,1,2.35-2.36h4.6l1.55,3.38,1.55-3.38h4.6A2.36,2.36,0,0,1,68.44,55.45Z"/><path class="cls-5" d="M64.61,44.54c0,2.58-2.1,6.21-4.68,6.21s-4.67-3.63-4.67-6.21a4.68,4.68,0,0,1,9.35,0Z"/></g><g id="睡眠"><circle class="cls-8" cx="95.26" cy="83.25" r="13.9"/><circle class="cls-7" cx="95.26" cy="83.17" r="11.08"/><path class="cls-9" d="M91.11,82.19a1.84,1.84,0,0,1-2.59,2.59,1.09,1.09,0,0,1-.24-.24A1.84,1.84,0,0,1,90.87,82,.91.91,0,0,1,91.11,82.19Z"/><path class="cls-9" d="M96.7,82.19a1.84,1.84,0,0,1-2.59,2.59,1.09,1.09,0,0,1-.24-.24A1.84,1.84,0,0,1,96.46,82,.91.91,0,0,1,96.7,82.19Z"/><path class="cls-9" d="M102.29,82.19a1.84,1.84,0,0,1-2.59,2.59,1.36,1.36,0,0,1-.24-.24A1.84,1.84,0,0,1,102.05,82,.91.91,0,0,1,102.29,82.19Z"/></g></svg>