<svg id="图层_1" data-name="图层 1" xmlns="http://www.w3.org/2000/svg" xmlns:xlink="http://www.w3.org/1999/xlink" viewBox="0 0 241.71 434.55"><defs><style>.cls-1{fill:url(#linear-gradient);}.cls-11,.cls-2,.cls-5,.cls-8{opacity:0.39;}.cls-2{fill:url(#linear-gradient-2);}.cls-3{fill:url(#linear-gradient-3);}.cls-4{fill:url(#linear-gradient-4);}.cls-5{fill:url(#linear-gradient-5);}.cls-6{fill:url(#linear-gradient-6);}.cls-7{fill:url(#linear-gradient-7);}.cls-8{fill:url(#linear-gradient-8);}.cls-9{fill:url(#linear-gradient-9);}.cls-10{fill:url(#linear-gradient-10);}.cls-11{fill:url(#linear-gradient-11);}.cls-12{fill:url(#linear-gradient-12);}.cls-13,.cls-14{fill:none;stroke:#a09e9f;stroke-linecap:round;stroke-miterlimit:10;stroke-width:0.5px;}.cls-14{stroke-dasharray:1.95 1.95;}</style><linearGradient id="linear-gradient" x1="22.48" y1="170.12" x2="159.73" y2="170.12" gradientUnits="userSpaceOnUse"><stop offset="0" stop-color="#f0d3aa"/><stop offset="0.47" stop-color="#f0d2a8"/><stop offset="0.64" stop-color="#efcea1"/><stop offset="0.77" stop-color="#edc896"/><stop offset="0.86" stop-color="#eabe85"/><stop offset="0.95" stop-color="#e7b26f"/><stop offset="1" stop-color="#e4a85d"/></linearGradient><linearGradient id="linear-gradient-2" x1="90.42" y1="209.64" x2="90.42" y2="17.36" gradientUnits="userSpaceOnUse"><stop offset="0" stop-color="#e4a85d"/><stop offset="0.15" stop-color="#ebbd85" stop-opacity="0.75"/><stop offset="0.31" stop-color="#f1d1aa" stop-opacity="0.53"/><stop offset="0.46" stop-color="#f6e2c8" stop-opacity="0.34"/><stop offset="0.61" stop-color="#faeee0" stop-opacity="0.19"/><stop offset="0.76" stop-color="#fdf8f1" stop-opacity="0.09"/><stop offset="0.89" stop-color="#fefdfb" stop-opacity="0.02"/><stop offset="1" stop-color="#fff" stop-opacity="0"/></linearGradient><linearGradient id="linear-gradient-3" x1="154.41" y1="170.12" x2="27.8" y2="170.12" gradientUnits="userSpaceOnUse"><stop offset="0" stop-color="#cf8440"/><stop offset="0.29" stop-color="#ce8139"/><stop offset="0.7" stop-color="#cd7a27"/><stop offset="1" stop-color="#cb7315"/></linearGradient><linearGradient id="linear-gradient-4" x1="48.02" y1="241.75" x2="133.51" y2="241.75" gradientUnits="userSpaceOnUse"><stop offset="0" stop-color="#edf0c0"/><stop offset="0.47" stop-color="#edf0be"/><stop offset="0.64" stop-color="#ecefb7"/><stop offset="0.77" stop-color="#ebedac"/><stop offset="0.86" stop-color="#e9ea9b"/><stop offset="0.95" stop-color="#e6e685"/><stop offset="1" stop-color="#e4e373"/></linearGradient><linearGradient id="linear-gradient-5" x1="90.34" y1="266.37" x2="90.34" y2="146.61" gradientUnits="userSpaceOnUse"><stop offset="0" stop-color="#e4e373"/><stop offset="0.15" stop-color="#ebea95" stop-opacity="0.75"/><stop offset="0.31" stop-color="#f1f0b5" stop-opacity="0.53"/><stop offset="0.46" stop-color="#f6f6d0" stop-opacity="0.34"/><stop offset="0.61" stop-color="#fafae4" stop-opacity="0.19"/><stop offset="0.76" stop-color="#fdfdf3" stop-opacity="0.09"/><stop offset="0.89" stop-color="#fefefc" stop-opacity="0.02"/><stop offset="1" stop-color="#fff" stop-opacity="0"/></linearGradient><linearGradient id="linear-gradient-6" x1="130.19" y1="241.75" x2="51.34" y2="241.75" gradientUnits="userSpaceOnUse"><stop offset="0" stop-color="#cfc753"/><stop offset="0.3" stop-color="#cec74c"/><stop offset="0.74" stop-color="#ccc63a"/><stop offset="1" stop-color="#cac62b"/></linearGradient><linearGradient id="linear-gradient-7" x1="48.02" y1="298.99" x2="133.51" y2="298.99" gradientUnits="userSpaceOnUse"><stop offset="0" stop-color="#c1ddf4"/><stop offset="0.47" stop-color="#bfdcf4"/><stop offset="0.64" stop-color="#b8daf3"/><stop offset="0.76" stop-color="#add6f2"/><stop offset="0.86" stop-color="#9cd0f0"/><stop offset="0.94" stop-color="#86c9ee"/><stop offset="1" stop-color="#70c1ec"/></linearGradient><linearGradient id="linear-gradient-8" x1="90.34" y1="323.6" x2="90.34" y2="203.84" gradientUnits="userSpaceOnUse"><stop offset="0" stop-color="#70c1ec"/><stop offset="0.01" stop-color="#71c2ec" stop-opacity="0.99"/><stop offset="0.16" stop-color="#96d2f1" stop-opacity="0.73"/><stop offset="0.32" stop-color="#b6dff5" stop-opacity="0.51"/><stop offset="0.48" stop-color="#d0ebf9" stop-opacity="0.33"/><stop offset="0.62" stop-color="#e5f4fc" stop-opacity="0.18"/><stop offset="0.76" stop-color="#f3fafd" stop-opacity="0.08"/><stop offset="0.89" stop-color="#fcfeff" stop-opacity="0.02"/><stop offset="1" stop-color="#fff" stop-opacity="0"/></linearGradient><linearGradient id="linear-gradient-9" x1="130.19" y1="298.99" x2="51.34" y2="298.99" gradientUnits="userSpaceOnUse"><stop offset="0" stop-color="#50c0d6"/><stop offset="0.26" stop-color="#49bcd6"/><stop offset="0.62" stop-color="#37afd5"/><stop offset="1" stop-color="#1c9ed3"/></linearGradient><linearGradient id="linear-gradient-10" x1="48.02" y1="355.63" x2="133.51" y2="355.63" gradientUnits="userSpaceOnUse"><stop offset="0" stop-color="#acdbe0"/><stop offset="0.51" stop-color="#aadadf"/><stop offset="0.69" stop-color="#a3d8db"/><stop offset="0.82" stop-color="#98d3d5"/><stop offset="0.92" stop-color="#87cdcc"/><stop offset="1" stop-color="#74c6c2"/></linearGradient><linearGradient id="linear-gradient-11" x1="90.34" y1="380.24" x2="90.34" y2="260.48" gradientUnits="userSpaceOnUse"><stop offset="0" stop-color="#74c6c2"/><stop offset="0.08" stop-color="#86ceca" stop-opacity="0.87"/><stop offset="0.25" stop-color="#abdcda" stop-opacity="0.61"/><stop offset="0.42" stop-color="#c9e9e7" stop-opacity="0.39"/><stop offset="0.58" stop-color="#e1f3f2" stop-opacity="0.22"/><stop offset="0.74" stop-color="#f1f9f9" stop-opacity="0.1"/><stop offset="0.88" stop-color="#fcfefd" stop-opacity="0.03"/><stop offset="1" stop-color="#fff" stop-opacity="0"/></linearGradient><linearGradient id="linear-gradient-12" x1="130.19" y1="355.63" x2="51.34" y2="355.63" gradientUnits="userSpaceOnUse"><stop offset="0" stop-color="#56bb9a"/><stop offset="0.52" stop-color="#4fba9d"/><stop offset="1" stop-color="#44b8a1"/></linearGradient></defs><path class="cls-1" d="M155,163.59c6.25,3.61,6.29,9.46.08,13.07L102.6,207.17c-6.21,3.61-16.32,3.6-22.57,0L27.19,176.66c-6.25-3.61-6.29-9.46-.07-13.08l52.49-30.5c6.21-3.61,16.32-3.6,22.57,0Z"/><path class="cls-2" d="M159,169.64V57.45h0c.14-2.48-1.41-5-4.68-6.88L101.5,20.07c-6.25-3.61-16.36-3.61-22.57,0L26.44,50.57a9.53,9.53,0,0,0-4.1,4.17H21.8v2.41l.1,111.7a5.44,5.44,0,0,0,0,2v0h0c.4,2,1.92,4,4.59,5.51l52.84,30.5c6.25,3.61,16.36,3.61,22.57,0l52.5-30.5c3.21-1.87,4.74-4.34,4.61-6.79Z"/><path class="cls-3" d="M91.33,204.55a17.83,17.83,0,0,1-8.64-2L29.85,172.05c-1.56-.9-2.05-1.75-2.05-2s.47-1,2-1.91l52.49-30.5a17.71,17.71,0,0,1,8.59-2,17.89,17.89,0,0,1,8.65,2l52.83,30.51c1.57.9,2.06,1.75,2.06,2s-.47,1-2,1.9L99.93,202.57A17.75,17.75,0,0,1,91.33,204.55Z"/><path class="cls-4" d="M130.57,237.68c3.89,2.25,3.92,5.9.05,8.15l-32.69,19a15.52,15.52,0,0,1-14.06,0L51,245.83c-3.9-2.25-3.92-5.9-.05-8.15l32.7-19a15.5,15.5,0,0,1,14,0Z"/><path class="cls-5" d="M133.08,241.45V171.58h0c.09-1.55-.88-3.11-2.92-4.29l-32.91-19a15.5,15.5,0,0,0-14,0l-32.7,19a6,6,0,0,0-2.56,2.6H47.6v1.5L47.67,241a3.39,3.39,0,0,0,0,1.27v0h0a5.4,5.4,0,0,0,2.87,3.43l32.9,19a15.51,15.51,0,0,0,14.07,0l32.69-19c2-1.16,3-2.7,2.87-4.23Z"/><path class="cls-6" d="M90.91,263.2A11.15,11.15,0,0,1,85.52,262L52.61,243c-1-.57-1.27-1.1-1.27-1.23s.29-.63,1.24-1.18l32.69-19a11,11,0,0,1,5.35-1.24A11.15,11.15,0,0,1,96,221.55l32.9,19c1,.57,1.28,1.1,1.28,1.23s-.29.63-1.23,1.18l-32.7,19A11,11,0,0,1,90.91,263.2Z"/><path class="cls-7" d="M130.57,294.92c3.89,2.24,3.92,5.89.05,8.14l-32.69,19a15.49,15.49,0,0,1-14.06,0L51,303.06c-3.9-2.25-3.92-5.9-.05-8.15l32.7-19a15.5,15.5,0,0,1,14,0Z"/><path class="cls-8" d="M133.08,298.69V228.81h0c.09-1.54-.88-3.11-2.92-4.28l-32.91-19a15.5,15.5,0,0,0-14,0l-32.7,19a6,6,0,0,0-2.56,2.6H47.6v1.5l.07,69.58a3.44,3.44,0,0,0,0,1.28h0a5.4,5.4,0,0,0,2.87,3.43l32.9,19a15.51,15.51,0,0,0,14.07,0l32.69-19c2-1.16,3-2.7,2.87-4.22Z"/><path class="cls-9" d="M90.91,320.43a11.15,11.15,0,0,1-5.39-1.24l-32.91-19c-1-.56-1.27-1.09-1.27-1.22s.29-.64,1.24-1.19l32.69-19a11,11,0,0,1,5.35-1.24A11.15,11.15,0,0,1,96,278.79l32.9,19c1,.56,1.28,1.09,1.28,1.22s-.29.64-1.23,1.18l-32.7,19A11,11,0,0,1,90.91,320.43Z"/><path class="cls-10" d="M130.57,351.56c3.89,2.24,3.92,5.89.05,8.14l-32.69,19a15.49,15.49,0,0,1-14.06,0L51,359.7c-3.9-2.25-3.92-5.9-.05-8.15l32.7-19a15.5,15.5,0,0,1,14,0Z"/><path class="cls-11" d="M133.08,355.33V285.45h0c.09-1.55-.88-3.11-2.92-4.28l-32.91-19a15.5,15.5,0,0,0-14,0l-32.7,19a6,6,0,0,0-2.56,2.6H47.6v1.5l.07,69.58a3.44,3.44,0,0,0,0,1.28h0a5.4,5.4,0,0,0,2.87,3.43l32.9,19a15.51,15.51,0,0,0,14.07,0l32.69-19c2-1.16,3-2.7,2.87-4.22Z"/><path class="cls-12" d="M90.91,377.07a11.15,11.15,0,0,1-5.39-1.24l-32.91-19c-1-.56-1.27-1.09-1.27-1.22s.29-.64,1.24-1.19l32.69-19a11,11,0,0,1,5.35-1.24A11.15,11.15,0,0,1,96,335.43l32.9,19c1,.56,1.28,1.09,1.28,1.22s-.29.63-1.23,1.18l-32.7,19A11,11,0,0,1,90.91,377.07Z"/><line class="cls-13" x1="159.73" y1="170.12" x2="160.73" y2="170.12"/><line class="cls-14" x1="162.68" y1="170.12" x2="212.51" y2="170.12"/><line class="cls-13" x1="213.49" y1="170.12" x2="214.49" y2="170.12"/><line class="cls-13" x1="134.08" y1="241.75" x2="135.08" y2="241.75"/><line class="cls-14" x1="137.03" y1="241.75" x2="186.86" y2="241.75"/><line class="cls-13" x1="187.84" y1="241.75" x2="188.84" y2="241.75"/><line class="cls-13" x1="134.08" y1="298.7" x2="135.08" y2="298.7"/><line class="cls-14" x1="137.03" y1="298.7" x2="186.86" y2="298.7"/><line class="cls-13" x1="187.84" y1="298.7" x2="188.84" y2="298.7"/><line class="cls-13" x1="134.08" y1="355.64" x2="135.08" y2="355.64"/><line class="cls-14" x1="137.03" y1="355.64" x2="186.86" y2="355.64"/><line class="cls-13" x1="187.84" y1="355.64" x2="188.84" y2="355.64"/></svg>