<svg xmlns="http://www.w3.org/2000/svg" xmlns:xlink="http://www.w3.org/1999/xlink" viewBox="0 0 131.75 139.03"><defs><style>.cls-1{fill:none;}.cls-2{isolation:isolate;}.cls-3{fill:#265336;}.cls-4{fill:#275536;}.cls-5{fill:#21492f;}.cls-6{fill:#347249;}.cls-7{fill:#909090;}.cls-8{fill:#a6a6a6;}.cls-9{fill:#ac5145;}.cls-10{fill:#95463c;}.cls-11{fill:#dfdfdf;}.cls-12{fill:#e86c5d;}.cls-13{fill:#1c3d28;}.cls-14{fill:#14181a;}.cls-15{fill:#171c1e;}.cls-16{fill:#1f2628;}.cls-17{fill:#151a1c;}.cls-18{fill:#121718;}.cls-19{fill:#1d2325;}.cls-20{clip-path:url(#clip-path);}.cls-21{fill:#b38d00;}.cls-22{fill:#997900;}.cls-23{fill:#b08b00;}.cls-24{clip-path:url(#clip-path-2);}.cls-25{fill:#ecbb00;}.cls-26{clip-path:url(#clip-path-3);}.cls-27{clip-path:url(#clip-path-4);}.cls-28{clip-path:url(#clip-path-5);}.cls-29{clip-path:url(#clip-path-6);}.cls-30{fill:#989898;}.cls-31{fill:#b0b0b0;}.cls-32{fill:#ececec;}.cls-33{clip-path:url(#clip-path-7);}.cls-34{fill:#af5246;}.cls-35{fill:#96463c;}.cls-36{clip-path:url(#clip-path-8);}.cls-37{clip-path:url(#clip-path-9);}.cls-38{clip-path:url(#clip-path-10);}.cls-39{clip-path:url(#clip-path-11);}.cls-40{fill:#aeaeb0;}.cls-41{fill:#959597;}.cls-42{clip-path:url(#clip-path-12);}.cls-43{fill:#e6e7e9;}.cls-44{clip-path:url(#clip-path-13);}.cls-45{clip-path:url(#clip-path-14);}.cls-46{clip-path:url(#clip-path-15);}.cls-47{fill:#131718;}.cls-48{clip-path:url(#clip-path-16);}.cls-49{fill:#161b1c;}.cls-50{clip-path:url(#clip-path-17);}.cls-51{clip-path:url(#clip-path-18);}.cls-52{clip-path:url(#clip-path-19);}.cls-53{clip-path:url(#clip-path-20);}.cls-54{clip-path:url(#clip-path-21);}.cls-55{fill:#919191;}.cls-56{clip-path:url(#clip-path-22);}.cls-57{fill:#a9a9a9;}.cls-58{clip-path:url(#clip-path-23);}</style><clipPath id="clip-path"><path class="cls-1" d="M31.41,66.72l1,.58a.8.8,0,0,0-.79.08l-1-.58A.77.77,0,0,1,31.41,66.72Z"/></clipPath><clipPath id="clip-path-2"><path class="cls-1" d="M28.14,71.57l-1-.58a.77.77,0,0,1-.32-.71,2.44,2.44,0,0,1,1.1-1.92l1,.58a2.42,2.42,0,0,0-1.11,1.92A.76.76,0,0,0,28.14,71.57Z"/></clipPath><clipPath id="clip-path-3"><path class="cls-1" d="M105.24,42l1,.58a.77.77,0,0,0-.79.08l-1-.58A.77.77,0,0,1,105.24,42Z"/></clipPath><clipPath id="clip-path-4"><path class="cls-1" d="M102,46.85l-1-.58a.82.82,0,0,1-.33-.72,2.48,2.48,0,0,1,1.11-1.92l1,.59a2.41,2.41,0,0,0-1.1,1.92A.77.77,0,0,0,102,46.85Z"/></clipPath><clipPath id="clip-path-5"><path class="cls-1" d="M105.34,80.1l1,.58a.77.77,0,0,0-.79.08l-1-.58A.77.77,0,0,1,105.34,80.1Z"/></clipPath><clipPath id="clip-path-6"><path class="cls-1" d="M102.07,85l-1-.58a.8.8,0,0,1-.33-.72,2.44,2.44,0,0,1,1.11-1.91l1,.58a2.45,2.45,0,0,0-1.11,1.92A.8.8,0,0,0,102.07,85Z"/></clipPath><clipPath id="clip-path-7"><path class="cls-1" d="M104.36,21.38l.56.32a1.82,1.82,0,0,0-1.8.18l-.56-.33A1.79,1.79,0,0,1,104.36,21.38Z"/></clipPath><clipPath id="clip-path-8"><path class="cls-1" d="M101.34,27.86l-.56-.33a1.79,1.79,0,0,1-.74-1.62,5.56,5.56,0,0,1,2.52-4.36l.56.33a5.55,5.55,0,0,0-2.51,4.36A1.77,1.77,0,0,0,101.34,27.86Z"/></clipPath><clipPath id="clip-path-9"><path class="cls-1" d="M55.71,105.81l.57.33a1.77,1.77,0,0,0-1.8.18l-.56-.33A1.78,1.78,0,0,1,55.71,105.81Z"/></clipPath><clipPath id="clip-path-10"><path class="cls-1" d="M52.7,112.29l-.56-.32a1.77,1.77,0,0,1-.74-1.62A5.53,5.53,0,0,1,53.92,106l.56.33A5.55,5.55,0,0,0,52,110.67,1.79,1.79,0,0,0,52.7,112.29Z"/></clipPath><clipPath id="clip-path-11"><path class="cls-1" d="M30.11,58.37l.53.31a1.7,1.7,0,0,0-1.71.17l-.54-.31A1.71,1.71,0,0,1,30.11,58.37Z"/></clipPath><clipPath id="clip-path-12"><path class="cls-1" d="M27.24,64.55l-.54-.32a1.67,1.67,0,0,1-.7-1.54,5.26,5.26,0,0,1,2.39-4.15l.54.31A5.31,5.31,0,0,0,26.53,63,1.71,1.71,0,0,0,27.24,64.55Z"/></clipPath><clipPath id="clip-path-13"><path class="cls-1" d="M84.34,63.85l.54.31a1.69,1.69,0,0,0-1.71.17L82.63,64A1.67,1.67,0,0,1,84.34,63.85Z"/></clipPath><clipPath id="clip-path-14"><path class="cls-1" d="M81.47,70l-.54-.32a1.67,1.67,0,0,1-.7-1.54A5.3,5.3,0,0,1,82.63,64l.54.31a5.28,5.28,0,0,0-2.4,4.15A1.69,1.69,0,0,0,81.47,70Z"/></clipPath><clipPath id="clip-path-15"><path class="cls-1" d="M65.65,81.41l-1.82-1a1.22,1.22,0,0,1-.51-1.12l1.82,1.06A1.19,1.19,0,0,0,65.65,81.41Z"/></clipPath><clipPath id="clip-path-16"><path class="cls-1" d="M66.28,71.05c.61.35,1.22.7,1.82,1.06a1.21,1.21,0,0,0-1.24.12L65,71.17A1.26,1.26,0,0,1,66.28,71.05Z"/></clipPath><clipPath id="clip-path-17"><path class="cls-1" d="M65.12,75.24l-1.81-1.06a3.83,3.83,0,0,1,1.73-3l1.82,1.06A3.83,3.83,0,0,0,65.12,75.24Z"/></clipPath><clipPath id="clip-path-18"><path class="cls-1" d="M74.93,77.49l-1.82-1a1.24,1.24,0,0,1-.51-1.12l1.82,1.05A1.22,1.22,0,0,0,74.93,77.49Z"/></clipPath><clipPath id="clip-path-19"><path class="cls-1" d="M75.57,67.13l1.81,1.05a1.24,1.24,0,0,0-1.24.12l-1.81-1A1.21,1.21,0,0,1,75.57,67.13Z"/></clipPath><clipPath id="clip-path-20"><path class="cls-1" d="M74.41,71.31l-1.82-1a3.83,3.83,0,0,1,1.74-3l1.81,1A3.81,3.81,0,0,0,74.41,71.31Z"/></clipPath><clipPath id="clip-path-21"><path class="cls-1" d="M28.55,106.4l-1.27-.74a.52.52,0,0,1-.21-.47l1.27.73A.53.53,0,0,0,28.55,106.4Z"/></clipPath><clipPath id="clip-path-22"><path class="cls-1" d="M33.71,94.54l1.27.74a.5.5,0,0,0-.52,0l-1.27-.74A.5.5,0,0,1,33.71,94.54Z"/></clipPath><clipPath id="clip-path-23"><path class="cls-1" d="M28.32,99.72,27.05,99a1.62,1.62,0,0,1,.73-1.27l1.28.74A1.6,1.6,0,0,0,28.32,99.72Z"/></clipPath></defs><g id="FPGA"><g class="cls-2"><polygon class="cls-3" points="43.2 53.67 42.39 53.21 45.02 45.19 45.83 45.65 43.2 53.67"/><polygon class="cls-4" points="45.83 45.65 45.02 45.19 112.72 6.1 113.52 6.57 45.83 45.65"/><polygon class="cls-4" points="34.54 58.67 33.73 58.2 42.39 53.21 43.2 53.67 34.54 58.67"/><polygon class="cls-4" points="22.69 59.01 21.89 58.54 31.07 53.24 31.87 53.71 22.69 59.01"/><polygon class="cls-5" points="22.91 133.97 22.1 133.5 22.08 127.27 22.08 126.04 22.05 114.28 22.04 113.05 22.03 107.34 22.02 106.11 22 96.53 21.99 95.3 21.97 87.62 21.97 86.4 21.94 77.41 21.94 75.36 21.92 71 21.92 69.77 21.89 58.54 22.69 59.01 22.72 69.3 22.73 70.53 22.74 74.9 22.74 76.94 22.77 85.17 22.77 87.16 22.79 94.05 22.8 96.07 22.83 105.65 22.83 106.88 22.84 112.59 22.85 113.82 22.88 125.57 22.89 126.8 22.91 133.97"/><polygon class="cls-6" points="113.73 81.52 101.75 88.44 92.51 83.14 74.1 93.77 64.92 109.71 50.91 117.8 50.91 117.8 49.06 118.86 22.91 133.97 22.89 126.8 22.88 125.57 22.85 113.82 22.84 112.59 22.83 106.88 22.83 105.65 22.8 96.07 22.79 94.05 22.77 87.16 22.77 85.17 22.74 76.94 22.74 74.9 22.73 70.53 22.72 69.3 22.69 59.01 31.87 53.71 34.16 57.96 34.54 58.67 43.2 53.67 44.94 48.37 45.26 47.39 45.83 45.66 113.52 6.57 113.54 12.95 107.84 23.29 107.85 29.82 107.86 31.05 107.9 46.01 108.11 46.15 109.11 46.8 111.51 48.36 113.09 49.39 113.64 49.75 113.72 77.21 113.73 78.44 113.73 81.52"/></g><g class="cls-2"><polygon class="cls-7" points="97.48 54.31 96.92 53.98 96.92 53.04 97.48 53.37 97.48 54.31"/><polygon class="cls-8" points="100.24 48.59 99.68 48.27 100.5 47.79 101.06 48.12 100.24 48.59"/><polygon class="cls-7" points="98.3 52.9 97.74 52.57 97.73 50.33 98.29 50.66 98.3 52.9"/><polygon class="cls-9" points="98.29 50.66 97.73 50.33 99.68 49.21 100.25 49.54 98.29 50.66"/><polygon class="cls-10" points="98.3 52.9 97.74 52.57 97.73 50.33 98.29 50.66 98.3 52.9"/><polygon class="cls-8" points="98.29 50.66 97.73 50.33 99.68 49.21 100.25 49.54 98.29 50.66"/><polygon class="cls-11" points="100.24 48.59 101.06 48.12 101.06 49.06 101.07 51.3 101.07 52.24 100.25 52.71 98.3 53.84 97.48 54.31 97.48 53.37 97.47 51.13 97.47 50.19 98.29 49.72 100.24 48.59"/><polygon class="cls-11" points="100.25 51.77 98.3 52.9 98.29 50.66 100.25 49.54 100.25 51.77"/><polygon class="cls-12" points="100.25 49.54 100.25 51.77 98.3 52.9 98.29 50.66 100.25 49.54"/><polygon class="cls-7" points="97.48 53.37 96.92 53.04 96.91 50.81 97.47 51.13 97.48 53.37"/><polygon class="cls-8" points="98.29 49.72 97.73 49.39 99.68 48.27 100.24 48.59 98.29 49.72"/><polygon class="cls-7" points="97.47 51.13 96.91 50.81 96.91 49.87 97.47 50.19 97.47 51.13"/><polygon class="cls-8" points="97.47 50.19 96.91 49.87 97.73 49.39 98.29 49.72 97.47 50.19"/></g><g class="cls-2"><polygon class="cls-7" points="91.41 57.89 90.85 57.56 90.84 56.62 91.41 56.95 91.41 57.89"/><polygon class="cls-8" points="94.17 52.17 93.6 51.85 94.42 51.38 94.99 51.7 94.17 52.17"/><polygon class="cls-7" points="92.23 56.48 91.66 56.15 91.66 53.91 92.22 54.24 92.23 56.48"/><polygon class="cls-9" points="92.22 54.24 91.66 53.91 93.61 52.79 94.17 53.12 92.22 54.24"/><polygon class="cls-10" points="92.23 56.48 91.66 56.15 91.66 53.91 92.22 54.24 92.23 56.48"/><polygon class="cls-8" points="92.22 54.24 91.66 53.91 93.61 52.79 94.17 53.12 92.22 54.24"/><polygon class="cls-11" points="94.17 52.17 94.99 51.7 94.99 52.64 94.99 54.88 95 55.82 94.18 56.29 92.23 57.42 91.41 57.89 91.41 56.95 91.4 54.72 91.4 53.77 92.22 53.3 94.17 52.17"/><polygon class="cls-11" points="94.18 55.35 92.23 56.48 92.22 54.24 94.17 53.12 94.18 55.35"/><polygon class="cls-12" points="94.17 53.12 94.18 55.35 92.23 56.48 92.22 54.24 94.17 53.12"/><polygon class="cls-7" points="91.41 56.95 90.84 56.62 90.84 54.39 91.4 54.72 91.41 56.95"/><polygon class="cls-8" points="92.22 53.3 91.65 52.97 93.6 51.85 94.17 52.17 92.22 53.3"/><polygon class="cls-7" points="91.4 54.72 90.84 54.39 90.84 53.45 91.4 53.77 91.4 54.72"/><polygon class="cls-8" points="91.4 53.77 90.84 53.45 91.65 52.97 92.22 53.3 91.4 53.77"/></g><g class="cls-2"><polygon class="cls-7" points="85.17 61.34 84.61 61.02 84.6 60.08 85.17 60.4 85.17 61.34"/><polygon class="cls-8" points="87.93 55.63 87.36 55.3 88.19 54.83 88.75 55.15 87.93 55.63"/><polygon class="cls-7" points="85.99 59.93 85.42 59.6 85.42 57.37 85.98 57.7 85.99 59.93"/><polygon class="cls-9" points="85.98 57.7 85.42 57.37 87.37 56.24 87.93 56.57 85.98 57.7"/><polygon class="cls-10" points="85.99 59.93 85.42 59.6 85.42 57.37 85.98 57.7 85.99 59.93"/><polygon class="cls-8" points="85.98 57.7 85.42 57.37 87.37 56.24 87.93 56.57 85.98 57.7"/><polygon class="cls-11" points="87.93 55.63 88.75 55.15 88.75 56.1 88.75 58.33 88.76 59.27 87.94 59.74 85.99 60.87 85.17 61.34 85.17 60.4 85.16 58.17 85.16 57.23 85.98 56.75 87.93 55.63"/><polygon class="cls-11" points="87.94 58.8 85.99 59.93 85.98 57.7 87.93 56.57 87.94 58.8"/><polygon class="cls-12" points="87.93 56.57 87.94 58.8 85.99 59.93 85.98 57.7 87.93 56.57"/><polygon class="cls-7" points="85.17 60.4 84.6 60.08 84.6 57.84 85.16 58.17 85.17 60.4"/><polygon class="cls-8" points="85.98 56.75 85.41 56.43 87.36 55.3 87.93 55.63 85.98 56.75"/><polygon class="cls-7" points="85.16 58.17 84.6 57.84 84.6 56.9 85.16 57.23 85.16 58.17"/><polygon class="cls-8" points="85.16 57.23 84.6 56.9 85.41 56.43 85.98 56.75 85.16 57.23"/></g><path class="cls-13" d="M50.1,50.52a.54.54,0,0,1-.21-.05L45,48.41a.53.53,0,0,1-.28-.7.54.54,0,0,1,.7-.28l4.63,2L57.73,45a.55.55,0,0,1,.73.2.53.53,0,0,1-.2.73l-7.89,4.55A.53.53,0,0,1,50.1,50.52Z"/><path class="cls-13" d="M38.73,109.52l-7.89,4.56a.58.58,0,0,1-.48,0l-4.63-2-2.88,1.67v-1.23l2.59-1.5a.54.54,0,0,1,.48,0l4.62,2,7.67-4.43a.53.53,0,1,1,.53.92Z"/><path class="cls-13" d="M79.38,32.74l-12.21,7-5,7.9a.66.66,0,0,1-.19.18L22.72,70.53V69.3L61.34,47l5-7.9a.55.55,0,0,1,.19-.18l12.31-7.11a.53.53,0,0,1,.73.2A.52.52,0,0,1,79.38,32.74Z"/><path class="cls-13" d="M101.82,20.26l-6,9.43a1,1,0,0,1-.31.29L78.24,40l-4.81,7.59a1,1,0,0,1-.31.29L55.46,58.06l-1.06.61-4.69,2.71L48.65,62l-5.86,3.38-1.33.77L22.74,77v-2L72,46.43l4.81-7.59a.86.86,0,0,1,.31-.29l17.3-10,5.86-9.25a.89.89,0,0,1,1.5,1Z"/><path class="cls-13" d="M49.18,72.11a.56.56,0,0,1-.27-.08.53.53,0,0,1-.26-.46V60.66a.53.53,0,1,1,1.06,0v10L96.85,43.44a.52.52,0,0,1,.72.19.54.54,0,0,1-.19.73L49.45,72A.53.53,0,0,1,49.18,72.11Z"/><path class="cls-13" d="M54.93,65.25a.68.68,0,0,1-.27-.07.54.54,0,0,1-.26-.46V57.34a.53.53,0,1,1,1.06,0v6.45L98.68,38.85a.52.52,0,0,1,.72.19.54.54,0,0,1-.19.73l-44,25.41A.64.64,0,0,1,54.93,65.25Z"/><path class="cls-13" d="M82.49,66.39a.53.53,0,0,1-.53-.53V59.61l-3,1.76a.53.53,0,0,1-.79-.47V55.51a.53.53,0,0,1,.53-.53.53.53,0,0,1,.53.53V60l3-1.75a.51.51,0,0,1,.53,0,.52.52,0,0,1,.27.46v7.17A.53.53,0,0,1,82.49,66.39Z"/><path class="cls-13" d="M83.69,31.55a.53.53,0,0,1-.27-1l10.71-6.18,4-6.9a.61.61,0,0,1,.2-.19l14.07-8.12a.54.54,0,0,1,.73.19.53.53,0,0,1-.2.73L99,18.14,95,25a.64.64,0,0,1-.2.2L84,31.48A.54.54,0,0,1,83.69,31.55Z"/><path class="cls-13" d="M46.22,109.73a.63.63,0,0,1-.33-.09l-4.1-2.37a.65.65,0,0,1-.33-.57V64.94a.66.66,0,0,1,.66-.67.67.67,0,0,1,.67.67v41.37l3.76,2.17a.66.66,0,0,1,.24.91A.64.64,0,0,1,46.22,109.73Z"/><path class="cls-13" d="M60,100.38l-9,5.2L46.72,113a.64.64,0,0,1-.2.2L22.89,126.8v-1.23l23-13.26,4.27-7.39a.57.57,0,0,1,.19-.19l9.14-5.27a.53.53,0,0,1,.73.19A.54.54,0,0,1,60,100.38Z"/><path class="cls-13" d="M59.29,104a.89.89,0,0,1-.44-1.66l6.94-4,3.8-6.59a.89.89,0,0,1,.32-.32l33.9-19.57a.89.89,0,1,1,.89,1.53L71,92.85l-3.79,6.59a1,1,0,0,1-.33.33l-7.15,4.12A.88.88,0,0,1,59.29,104Z"/><path class="cls-13" d="M74.71,90.22a.53.53,0,0,1-.53-.53V83.85a.54.54,0,0,1,1.07,0v5.84A.54.54,0,0,1,74.71,90.22Z"/><path class="cls-13" d="M77.68,88.51a.53.53,0,0,1-.53-.53V82.14a.53.53,0,0,1,1.06,0V88A.53.53,0,0,1,77.68,88.51Z"/><path class="cls-13" d="M80.64,86.8a.53.53,0,0,1-.53-.53V80.43a.54.54,0,0,1,1.07,0v5.84A.54.54,0,0,1,80.64,86.8Z"/><path class="cls-13" d="M68.57,75.24a.53.53,0,0,1-.53-.53V70.58a.54.54,0,0,1,.26-.46l2.79-1.61V65.83a.53.53,0,0,1,.53-.53.52.52,0,0,1,.53.53v3a.53.53,0,0,1-.26.46L69.1,70.89v3.82A.53.53,0,0,1,68.57,75.24Z"/><path class="cls-13" d="M107.86,31.05l-4.29,2.47a.51.51,0,0,1-.53,0,.54.54,0,0,1-.27-.46V30.67L99,32.84a16.55,16.55,0,0,0,.06,2.41.53.53,0,0,1-.34.65.35.35,0,0,1-.17,0,.55.55,0,0,1-.51-.36,10,10,0,0,1-.12-1.69c0-1.49.08-1.71.36-1.87L103,29.28a.55.55,0,0,1,.53,0,.53.53,0,0,1,.27.46v2.4l4-2.32Z"/><path class="cls-13" d="M109.11,46.8l-5.72,3.3a.51.51,0,0,1-.26.07.54.54,0,0,1-.47-.26.55.55,0,0,1,.2-.73l5.25-3Z"/><path class="cls-13" d="M42.12,89.42a.54.54,0,0,1-.46-.27.53.53,0,0,1,.2-.73l5-2.89,3.9-6.76a.64.64,0,0,1,.2-.2l11.54-6.66a.53.53,0,1,1,.53.92l-11.42,6.6-3.9,6.75a.52.52,0,0,1-.19.2l-5.14,3A.68.68,0,0,1,42.12,89.42Z"/><path class="cls-13" d="M42.12,95.66a.54.54,0,0,1-.46-.27.53.53,0,0,1,.2-.73l5.82-3.36,5.12-8.88a.52.52,0,0,1,.2-.19l8.9-5.14a.53.53,0,0,1,.73.2.52.52,0,0,1-.2.72l-8.77,5.07L48.53,92a.58.58,0,0,1-.19.19l-6,3.44A.64.64,0,0,1,42.12,95.66Z"/><path class="cls-13" d="M62.74,107.71l-9,5.2c-.31.53-1.56,2.69-2.82,4.89h0l-1.85,1.06c1.71-3,3.81-6.61,3.81-6.61a.73.73,0,0,1,.2-.19l9.13-5.27a.53.53,0,0,1,.54.92Z"/><path class="cls-13" d="M113.73,78.44l-4,2.3a.55.55,0,0,1-.53,0l-4.33-2.5-6.8,3.92a.48.48,0,0,1-.26.07.53.53,0,0,1-.46-.27.52.52,0,0,1,.19-.72l7.06-4.08a.51.51,0,0,1,.53,0l4.33,2.5,4.25-2.45Z"/><path class="cls-13" d="M113.09,49.39l-4.38,2.52-1.06.62-5,2.86-1.07.61-8.08,4.67L87.73,70.74a.84.84,0,0,1-.31.31l-13.85,8a.91.91,0,0,1-.42.11.85.85,0,0,1-.74-.42.84.84,0,0,1,.32-1.15L86.39,69.7,92.2,59.63a.84.84,0,0,1,.31-.31l19-11Z"/><path class="cls-13" d="M102.17,61a.54.54,0,0,1-.54-.53V54.72a.54.54,0,0,1,1.07,0v5.74A.53.53,0,0,1,102.17,61Z"/><path class="cls-13" d="M99,68.44a.53.53,0,0,1-.46-.27.54.54,0,0,1,.19-.73l8.89-5.13V51.25a.53.53,0,0,1,1.06,0V62.62a.53.53,0,0,1-.26.46l-9.16,5.28A.5.5,0,0,1,99,68.44Z"/><path class="cls-13" d="M37.52,107.78a.53.53,0,0,1-.53-.53V86.42L33.3,84.3a.55.55,0,0,1-.26-.47V73.36a.53.53,0,0,1,1.06,0V83.53l3.69,2.13a.53.53,0,0,1,.26.46v21.13A.53.53,0,0,1,37.52,107.78Z"/><path class="cls-13" d="M29.16,103.22l-6.33,3.66v-1.23l5.8-3.35a.53.53,0,1,1,.53.92Z"/><path class="cls-13" d="M27.45,88.11,23,95.89a.55.55,0,0,1-.16.18v-2l3.74-6.47a.54.54,0,0,1,.73-.19A.52.52,0,0,1,27.45,88.11Z"/><path class="cls-13" d="M27.45,79.19,23,87a.58.58,0,0,1-.19.19v-2l3.76-6.51a.54.54,0,0,1,.73-.19A.52.52,0,0,1,27.45,79.19Z"/><g class="cls-2"><polygon class="cls-14" points="62.68 66.57 60.27 65.17 60.2 41.1 62.62 42.51 62.68 66.57"/><polygon class="cls-15" points="62.62 42.51 60.2 41.1 91.19 23.22 93.6 24.62 62.62 42.51"/><polygon class="cls-16" points="93.6 24.62 93.67 48.68 62.68 66.57 62.62 42.51 93.6 24.62"/></g><g class="cls-2"><polygon class="cls-17" points="35.95 118.91 33.7 117.6 40.2 113.85 42.45 115.16 35.95 118.91"/><polygon class="cls-18" points="42.45 115.16 40.2 113.85 40.18 106.39 42.43 107.69 42.45 115.16"/><polygon class="cls-18" points="31.78 126.14 29.53 124.83 29.48 107.74 31.73 109.06 31.78 126.14"/><polygon class="cls-17" points="31.73 109.06 29.48 107.74 44.35 99.16 46.6 100.47 31.73 109.06"/><path class="cls-19" d="M31.73,109.05l14.87-8.58,0,17.08-14.87,8.59Zm10.72,6.11,0-7.46-6.5,3.75,0,7.46,6.5-3.75Z"/></g><g class="cls-2"><g class="cls-2"><g class="cls-20"><g class="cls-2"><path class="cls-21" d="M31.63,67.38l-1-.58.11-.06,1,.59-.1,0Z"/><path class="cls-22" d="M31.73,67.33l-1-.59a.74.74,0,0,1,.68,0l1,.58a.74.74,0,0,0-.69,0Z"/></g></g></g><polygon class="cls-23" points="28.93 68.94 27.92 68.36 30.62 66.8 31.63 67.38 28.93 68.94"/><g class="cls-2"><g class="cls-24"><g class="cls-2"><path class="cls-22" d="M28.14,71.57l-1-.58a.77.77,0,0,1-.32-.71,2,2,0,0,1,.11-.62l1,.58a2,2,0,0,0-.11.62.76.76,0,0,0,.32.71Z"/><path class="cls-21" d="M27.93,70.24l-1-.58a2.39,2.39,0,0,1,1-1.3l1,.58a2.44,2.44,0,0,0-1,1.3Z"/></g></g></g><path class="cls-25" d="M31.63,67.38c.61-.35,1.11-.07,1.11.64a2.45,2.45,0,0,1-1.11,1.92l-2.7,1.55c-.61.36-1.11.07-1.11-.63a2.42,2.42,0,0,1,1.11-1.92Z"/></g><g class="cls-2"><g class="cls-2"><g class="cls-26"><g class="cls-2"><path class="cls-21" d="M105.45,42.66l-1-.58.11-.06,1,.58-.11.06Z"/><path class="cls-22" d="M105.56,42.6l-1-.58a.74.74,0,0,1,.68,0l1,.58a.74.74,0,0,0-.68,0Z"/></g></g></g><polygon class="cls-23" points="102.75 44.22 101.75 43.63 104.45 42.08 105.45 42.66 102.75 44.22"/><g class="cls-2"><g class="cls-27"><g class="cls-2"><path class="cls-22" d="M102,46.85l-1-.58a.82.82,0,0,1-.33-.72,1.92,1.92,0,0,1,.11-.61l1,.58a2,2,0,0,0-.1.62.77.77,0,0,0,.32.71Z"/><path class="cls-21" d="M101.75,45.52l-1-.58a2.47,2.47,0,0,1,1-1.31l1,.59a2.45,2.45,0,0,0-1,1.3Z"/></g></g></g><path class="cls-25" d="M105.45,42.66c.62-.36,1.11-.07,1.12.63a2.45,2.45,0,0,1-1.11,1.92l-2.7,1.56c-.61.35-1.11.07-1.11-.63a2.41,2.41,0,0,1,1.1-1.92Z"/></g><g class="cls-2"><g class="cls-2"><g class="cls-28"><g class="cls-2"><path class="cls-21" d="M105.55,80.76l-1-.58.11-.06,1,.58-.11.06Z"/><path class="cls-22" d="M105.66,80.7l-1-.58a.74.74,0,0,1,.68,0l1,.58a.74.74,0,0,0-.68,0Z"/></g></g></g><polygon class="cls-23" points="102.85 82.32 101.85 81.73 104.55 80.18 105.55 80.76 102.85 82.32"/><g class="cls-2"><g class="cls-29"><g class="cls-2"><path class="cls-22" d="M102.07,85l-1-.58a.8.8,0,0,1-.33-.72,1.92,1.92,0,0,1,.11-.61l1,.58a2,2,0,0,0-.11.62.8.8,0,0,0,.33.71Z"/><path class="cls-21" d="M101.85,83.62l-1-.58a2.45,2.45,0,0,1,1-1.3l1,.58a2.45,2.45,0,0,0-1,1.3Z"/></g></g></g><path class="cls-25" d="M105.55,80.76c.61-.36,1.11-.07,1.12.63a2.45,2.45,0,0,1-1.11,1.92l-2.7,1.56c-.61.35-1.11.07-1.12-.63a2.45,2.45,0,0,1,1.11-1.92Z"/></g><g class="cls-2"><polygon class="cls-30" points="86.12 79 85.56 78.67 85.55 78.28 86.12 78.61 86.12 79"/><polygon class="cls-31" points="86.12 78.61 85.55 78.28 87.64 77.08 88.2 77.41 86.12 78.61"/><polygon class="cls-32" points="88.2 77.41 88.2 77.8 86.12 79 86.12 78.61 88.2 77.41"/></g><g class="cls-2"><polygon class="cls-30" points="86.11 77.91 85.55 77.58 85.55 77.19 86.11 77.52 86.11 77.91"/><polygon class="cls-31" points="86.11 77.52 85.55 77.19 87.63 75.99 88.2 76.32 86.11 77.52"/><polygon class="cls-32" points="88.2 76.32 88.2 76.71 86.11 77.91 86.11 77.52 88.2 76.32"/></g><g class="cls-2"><polygon class="cls-30" points="86.11 76.83 85.55 76.5 85.55 76.11 86.11 76.44 86.11 76.83"/><polygon class="cls-31" points="86.11 76.44 85.55 76.11 87.63 74.9 88.19 75.23 86.11 76.44"/><polygon class="cls-32" points="88.19 75.23 88.19 75.62 86.11 76.83 86.11 76.44 88.19 75.23"/></g><g class="cls-2"><polygon class="cls-30" points="86.11 75.74 85.55 75.41 85.55 75.02 86.11 75.35 86.11 75.74"/><polygon class="cls-31" points="86.11 75.35 85.55 75.02 87.63 73.82 88.19 74.14 86.11 75.35"/><polygon class="cls-32" points="88.19 74.14 88.19 74.53 86.11 75.74 86.11 75.35 88.19 74.14"/></g><g class="cls-2"><polygon class="cls-30" points="86.11 74.65 85.54 74.32 85.54 73.93 86.1 74.26 86.11 74.65"/><polygon class="cls-31" points="86.1 74.26 85.54 73.93 87.62 72.73 88.19 73.06 86.1 74.26"/><polygon class="cls-32" points="88.19 73.06 88.19 73.45 86.11 74.65 86.1 74.26 88.19 73.06"/></g><g class="cls-2"><polygon class="cls-30" points="86.1 73.56 85.54 73.23 85.54 72.84 86.1 73.17 86.1 73.56"/><polygon class="cls-31" points="86.1 73.17 85.54 72.84 87.62 71.64 88.19 71.97 86.1 73.17"/><polygon class="cls-32" points="88.19 71.97 88.19 72.36 86.1 73.56 86.1 73.17 88.19 71.97"/></g><g class="cls-2"><polygon class="cls-30" points="86.1 72.48 85.54 72.15 85.53 71.76 86.1 72.08 86.1 72.48"/><polygon class="cls-31" points="86.1 72.08 85.53 71.76 87.62 70.56 88.18 70.88 86.1 72.08"/><polygon class="cls-32" points="88.18 70.88 88.18 71.27 86.1 72.48 86.1 72.08 88.18 70.88"/></g><g class="cls-2"><polygon class="cls-30" points="88.81 69.81 88.25 69.49 88.24 67.09 88.8 67.42 88.81 69.81"/><polygon class="cls-31" points="88.8 67.42 88.24 67.09 88.58 66.9 89.14 67.22 88.8 67.42"/><polygon class="cls-32" points="89.14 67.22 89.15 69.62 88.81 69.81 88.8 67.42 89.14 67.22"/></g><g class="cls-2"><polygon class="cls-30" points="89.77 69.26 89.21 68.93 89.2 66.54 89.77 66.86 89.77 69.26"/><polygon class="cls-31" points="89.77 66.86 89.2 66.54 89.54 66.34 90.11 66.67 89.77 66.86"/><polygon class="cls-32" points="90.11 66.67 90.11 69.06 89.77 69.26 89.77 66.86 90.11 66.67"/></g><g class="cls-2"><polygon class="cls-30" points="90.73 68.7 90.17 68.37 90.17 65.98 90.73 66.31 90.73 68.7"/><polygon class="cls-31" points="90.73 66.31 90.17 65.98 90.51 65.78 91.07 66.11 90.73 66.31"/><polygon class="cls-32" points="91.07 66.11 91.08 68.5 90.73 68.7 90.73 66.31 91.07 66.11"/></g><g class="cls-2"><polygon class="cls-30" points="91.7 68.15 91.14 67.81 91.13 65.42 91.69 65.75 91.7 68.15"/><polygon class="cls-31" points="91.69 65.75 91.13 65.42 91.47 65.22 92.03 65.55 91.69 65.75"/><polygon class="cls-32" points="92.03 65.55 92.04 67.95 91.7 68.15 91.69 65.75 92.03 65.55"/></g><g class="cls-2"><polygon class="cls-30" points="92.67 67.58 92.1 67.26 92.1 64.86 92.66 65.19 92.67 67.58"/><polygon class="cls-31" points="92.66 65.19 92.1 64.86 92.44 64.67 93 65 92.66 65.19"/><polygon class="cls-32" points="93 65 93.01 67.39 92.67 67.58 92.66 65.19 93 65"/></g><g class="cls-2"><polygon class="cls-30" points="93.63 67.03 93.07 66.7 93.06 64.31 93.62 64.64 93.63 67.03"/><polygon class="cls-31" points="93.62 64.64 93.06 64.31 93.4 64.11 93.97 64.44 93.62 64.64"/><polygon class="cls-32" points="93.97 64.44 93.97 66.83 93.63 67.03 93.62 64.64 93.97 64.44"/></g><g class="cls-2"><polygon class="cls-30" points="94.6 66.47 94.03 66.15 94.03 63.75 94.59 64.08 94.6 66.47"/><polygon class="cls-31" points="94.59 64.08 94.03 63.75 94.37 63.55 94.93 63.88 94.59 64.08"/><polygon class="cls-32" points="94.93 63.88 94.94 66.28 94.6 66.47 94.59 64.08 94.93 63.88"/></g><g class="cls-2"><polygon class="cls-30" points="95.56 65.92 95 65.59 94.99 63.19 95.56 63.52 95.56 65.92"/><polygon class="cls-31" points="95.56 63.52 94.99 63.19 95.33 63 95.89 63.32 95.56 63.52"/><polygon class="cls-32" points="95.89 63.32 95.9 65.72 95.56 65.92 95.56 63.52 95.89 63.32"/></g><g class="cls-2"><polygon class="cls-30" points="96.53 65.36 95.96 65.03 95.95 62.63 96.52 62.97 96.53 65.36"/><polygon class="cls-31" points="96.52 62.97 95.95 62.63 96.3 62.44 96.86 62.77 96.52 62.97"/><polygon class="cls-32" points="96.86 62.77 96.87 65.16 96.53 65.36 96.52 62.97 96.86 62.77"/></g><g class="cls-2"><polygon class="cls-30" points="97.49 64.8 96.93 64.47 96.92 62.08 97.48 62.41 97.49 64.8"/><polygon class="cls-31" points="97.48 62.41 96.92 62.08 97.26 61.88 97.82 62.21 97.48 62.41"/><polygon class="cls-32" points="97.82 62.21 97.83 64.61 97.49 64.8 97.48 62.41 97.82 62.21"/></g><g class="cls-2"><polygon class="cls-30" points="98.46 64.24 97.89 63.92 97.89 61.52 98.45 61.85 98.46 64.24"/><polygon class="cls-31" points="98.45 61.85 97.89 61.52 98.23 61.33 98.79 61.65 98.45 61.85"/><polygon class="cls-32" points="98.79 61.65 98.8 64.05 98.46 64.24 98.45 61.85 98.79 61.65"/></g><g class="cls-2"><polygon class="cls-30" points="99.42 63.69 98.86 63.36 98.85 60.97 99.41 61.29 99.42 63.69"/><polygon class="cls-31" points="99.41 61.29 98.85 60.97 99.19 60.77 99.75 61.1 99.41 61.29"/><polygon class="cls-32" points="99.75 61.1 99.76 63.49 99.42 63.69 99.41 61.29 99.75 61.1"/></g><g class="cls-2"><polygon class="cls-30" points="100.39 63.13 99.82 62.8 99.81 60.41 100.38 60.74 100.39 63.13"/><polygon class="cls-31" points="100.38 60.74 99.81 60.41 100.16 60.21 100.72 60.54 100.38 60.74"/><polygon class="cls-32" points="100.72 60.54 100.72 62.93 100.39 63.13 100.38 60.74 100.72 60.54"/></g><g class="cls-2"><polygon class="cls-30" points="101.35 62.57 100.78 62.24 100.78 59.85 101.34 60.18 101.35 62.57"/><polygon class="cls-31" points="101.34 60.18 100.78 59.85 101.12 59.66 101.68 59.98 101.34 60.18"/><polygon class="cls-32" points="101.68 59.98 101.69 62.38 101.35 62.57 101.34 60.18 101.68 59.98"/></g><g class="cls-2"><polygon class="cls-30" points="102.31 62.02 101.75 61.69 101.75 59.3 102.31 59.62 102.31 62.02"/><polygon class="cls-31" points="102.31 59.62 101.75 59.3 102.08 59.1 102.65 59.42 102.31 59.62"/><polygon class="cls-32" points="102.65 59.42 102.65 61.82 102.31 62.02 102.31 59.62 102.65 59.42"/></g><g class="cls-2"><polygon class="cls-30" points="103.28 61.46 102.72 61.13 102.71 58.74 103.27 59.06 103.28 61.46"/><polygon class="cls-31" points="103.27 59.06 102.71 58.74 103.05 58.54 103.61 58.87 103.27 59.06"/><polygon class="cls-32" points="103.61 58.87 103.62 61.26 103.28 61.46 103.27 59.06 103.61 58.87"/></g><g class="cls-2"><polygon class="cls-30" points="104.24 60.9 103.68 60.58 103.67 58.18 104.23 58.51 104.24 60.9"/><polygon class="cls-31" points="104.23 58.51 103.67 58.18 104.02 57.98 104.58 58.31 104.23 58.51"/><polygon class="cls-32" points="104.58 58.31 104.58 60.7 104.24 60.9 104.23 58.51 104.58 58.31"/></g><g class="cls-2"><polygon class="cls-30" points="105.21 60.34 104.64 60.02 104.64 57.62 105.2 57.95 105.21 60.34"/><polygon class="cls-31" points="105.2 57.95 104.64 57.62 104.98 57.43 105.54 57.75 105.2 57.95"/><polygon class="cls-32" points="105.54 57.75 105.55 60.15 105.21 60.34 105.2 57.95 105.54 57.75"/></g><g class="cls-2"><polygon class="cls-30" points="106.17 59.79 105.61 59.46 105.61 57.07 106.17 57.39 106.17 59.79"/><polygon class="cls-31" points="106.17 57.39 105.61 57.07 105.94 56.87 106.51 57.2 106.17 57.39"/><polygon class="cls-32" points="106.51 57.2 106.52 59.59 106.17 59.79 106.17 57.39 106.51 57.2"/></g><g class="cls-2"><polygon class="cls-30" points="107.14 59.23 106.58 58.9 106.57 56.51 107.13 56.84 107.14 59.23"/><polygon class="cls-31" points="107.13 56.84 106.57 56.51 106.91 56.31 107.47 56.64 107.13 56.84"/><polygon class="cls-32" points="107.47 56.64 107.48 59.03 107.14 59.23 107.13 56.84 107.47 56.64"/></g><g class="cls-2"><polygon class="cls-30" points="108.1 58.67 107.54 58.35 107.53 55.95 108.1 56.28 108.1 58.67"/><polygon class="cls-31" points="108.1 56.28 107.53 55.95 107.87 55.76 108.44 56.08 108.1 56.28"/><polygon class="cls-32" points="108.44 56.08 108.44 58.48 108.1 58.67 108.1 56.28 108.44 56.08"/></g><g class="cls-2"><polygon class="cls-30" points="109.09 65.74 108.53 65.41 108.53 65.02 109.09 65.35 109.09 65.74"/><polygon class="cls-31" points="109.09 65.35 108.53 65.02 110.61 63.81 111.17 64.14 109.09 65.35"/><polygon class="cls-32" points="111.17 64.14 111.17 64.53 109.09 65.74 109.09 65.35 111.17 64.14"/></g><g class="cls-2"><polygon class="cls-30" points="109.09 64.65 108.53 64.32 108.53 63.93 109.09 64.26 109.09 64.65"/><polygon class="cls-31" points="109.09 64.26 108.53 63.93 110.61 62.73 111.17 63.06 109.09 64.26"/><polygon class="cls-32" points="111.17 63.06 111.17 63.45 109.09 64.65 109.09 64.26 111.17 63.06"/></g><g class="cls-2"><polygon class="cls-30" points="109.09 63.56 108.52 63.23 108.52 62.84 109.09 63.17 109.09 63.56"/><polygon class="cls-31" points="109.09 63.17 108.52 62.84 110.61 61.64 111.17 61.97 109.09 63.17"/><polygon class="cls-32" points="111.17 61.97 111.17 62.36 109.09 63.56 109.09 63.17 111.17 61.97"/></g><g class="cls-2"><polygon class="cls-30" points="109.08 62.47 108.52 62.15 108.52 61.75 109.08 62.08 109.08 62.47"/><polygon class="cls-31" points="109.08 62.08 108.52 61.75 110.6 60.55 111.17 60.88 109.08 62.08"/><polygon class="cls-32" points="111.17 60.88 111.17 61.27 109.08 62.47 109.08 62.08 111.17 60.88"/></g><g class="cls-2"><polygon class="cls-30" points="109.08 61.39 108.52 61.06 108.52 60.67 109.08 60.99 109.08 61.39"/><polygon class="cls-31" points="109.08 60.99 108.52 60.67 110.6 59.46 111.16 59.79 109.08 60.99"/><polygon class="cls-32" points="111.16 59.79 111.16 60.18 109.08 61.39 109.08 60.99 111.16 59.79"/></g><g class="cls-2"><polygon class="cls-30" points="109.08 60.3 108.52 59.97 108.51 59.58 109.08 59.91 109.08 60.3"/><polygon class="cls-31" points="109.08 59.91 108.51 59.58 110.6 58.38 111.16 58.7 109.08 59.91"/><polygon class="cls-32" points="111.16 58.7 111.16 59.1 109.08 60.3 109.08 59.91 111.16 58.7"/></g><g class="cls-2"><polygon class="cls-30" points="109.07 59.21 108.51 58.88 108.51 58.49 109.07 58.82 109.07 59.21"/><polygon class="cls-31" points="109.07 58.82 108.51 58.49 110.59 57.29 111.16 57.62 109.07 58.82"/><polygon class="cls-32" points="111.16 57.62 111.16 58.01 109.07 59.21 109.07 58.82 111.16 57.62"/></g><g class="cls-2"><polygon class="cls-30" points="108.13 69.39 107.57 69.07 107.56 66.67 108.13 67 108.13 69.39"/><polygon class="cls-31" points="108.13 67 107.56 66.67 107.91 66.48 108.47 66.8 108.13 67"/><polygon class="cls-32" points="108.47 66.8 108.47 69.2 108.13 69.39 108.13 67 108.47 66.8"/></g><g class="cls-2"><polygon class="cls-30" points="107.17 69.95 106.61 69.62 106.6 67.23 107.16 67.56 107.17 69.95"/><polygon class="cls-31" points="107.16 67.56 106.6 67.23 106.94 67.03 107.5 67.36 107.16 67.56"/><polygon class="cls-32" points="107.5 67.36 107.51 69.75 107.17 69.95 107.16 67.56 107.5 67.36"/></g><g class="cls-2"><polygon class="cls-30" points="106.2 70.51 105.64 70.18 105.64 67.79 106.2 68.11 106.2 70.51"/><polygon class="cls-31" points="106.2 68.11 105.64 67.79 105.97 67.59 106.54 67.92 106.2 68.11"/><polygon class="cls-32" points="106.54 67.92 106.55 70.31 106.2 70.51 106.2 68.11 106.54 67.92"/></g><g class="cls-2"><polygon class="cls-30" points="105.24 71.06 104.68 70.74 104.67 68.34 105.23 68.67 105.24 71.06"/><polygon class="cls-31" points="105.23 68.67 104.67 68.34 105.01 68.15 105.57 68.47 105.23 68.67"/><polygon class="cls-32" points="105.57 68.47 105.58 70.87 105.24 71.06 105.23 68.67 105.57 68.47"/></g><g class="cls-2"><polygon class="cls-30" points="104.27 71.62 103.71 71.29 103.7 68.9 104.27 69.23 104.27 71.62"/><polygon class="cls-31" points="104.27 69.23 103.7 68.9 104.05 68.7 104.61 69.03 104.27 69.23"/><polygon class="cls-32" points="104.61 69.03 104.61 71.42 104.27 71.62 104.27 69.23 104.61 69.03"/></g><g class="cls-2"><polygon class="cls-30" points="103.31 72.18 102.75 71.85 102.74 69.46 103.3 69.78 103.31 72.18"/><polygon class="cls-31" points="103.3 69.78 102.74 69.46 103.08 69.26 103.64 69.59 103.3 69.78"/><polygon class="cls-32" points="103.64 69.59 103.65 71.98 103.31 72.18 103.3 69.78 103.64 69.59"/></g><g class="cls-2"><polygon class="cls-30" points="102.34 72.73 101.78 72.41 101.78 70.01 102.34 70.34 102.34 72.73"/><polygon class="cls-31" points="102.34 70.34 101.78 70.01 102.11 69.82 102.68 70.15 102.34 70.34"/><polygon class="cls-32" points="102.68 70.15 102.69 72.54 102.34 72.73 102.34 70.34 102.68 70.15"/></g><g class="cls-2"><polygon class="cls-30" points="101.38 73.29 100.81 72.96 100.81 70.57 101.37 70.9 101.38 73.29"/><polygon class="cls-31" points="101.37 70.9 100.81 70.57 101.15 70.38 101.71 70.7 101.37 70.9"/><polygon class="cls-32" points="101.71 70.7 101.72 73.1 101.38 73.29 101.37 70.9 101.71 70.7"/></g><g class="cls-2"><polygon class="cls-30" points="100.42 73.85 99.85 73.52 99.84 71.13 100.41 71.46 100.42 73.85"/><polygon class="cls-31" points="100.41 71.46 99.84 71.13 100.19 70.93 100.75 71.26 100.41 71.46"/><polygon class="cls-32" points="100.75 71.26 100.75 73.65 100.42 73.85 100.41 71.46 100.75 71.26"/></g><g class="cls-2"><polygon class="cls-30" points="99.45 74.41 98.89 74.08 98.88 71.69 99.44 72.01 99.45 74.41"/><polygon class="cls-31" points="99.44 72.01 98.88 71.69 99.22 71.49 99.78 71.81 99.44 72.01"/><polygon class="cls-32" points="99.78 71.81 99.79 74.21 99.45 74.41 99.44 72.01 99.78 71.81"/></g><g class="cls-2"><polygon class="cls-30" points="98.48 74.96 97.92 74.64 97.92 72.24 98.48 72.57 98.48 74.96"/><polygon class="cls-31" points="98.48 72.57 97.92 72.24 98.26 72.05 98.82 72.37 98.48 72.57"/><polygon class="cls-32" points="98.82 72.37 98.83 74.77 98.48 74.96 98.48 72.57 98.82 72.37"/></g><g class="cls-2"><polygon class="cls-30" points="97.52 75.52 96.96 75.19 96.95 72.8 97.52 73.13 97.52 75.52"/><polygon class="cls-31" points="97.52 73.13 96.95 72.8 97.29 72.6 97.85 72.93 97.52 73.13"/><polygon class="cls-32" points="97.85 72.93 97.86 75.32 97.52 75.52 97.52 73.13 97.85 72.93"/></g><g class="cls-2"><polygon class="cls-30" points="96.56 76.08 95.99 75.75 95.98 73.36 96.55 73.68 96.56 76.08"/><polygon class="cls-31" points="96.55 73.68 95.98 73.36 96.33 73.16 96.89 73.49 96.55 73.68"/><polygon class="cls-32" points="96.89 73.49 96.89 75.88 96.56 76.08 96.55 73.68 96.89 73.49"/></g><g class="cls-2"><polygon class="cls-30" points="95.59 76.64 95.03 76.31 95.02 73.91 95.58 74.24 95.59 76.64"/><polygon class="cls-31" points="95.58 74.24 95.02 73.91 95.36 73.72 95.92 74.05 95.58 74.24"/><polygon class="cls-32" points="95.92 74.05 95.93 76.44 95.59 76.64 95.58 74.24 95.92 74.05"/></g><g class="cls-2"><polygon class="cls-30" points="94.63 77.19 94.06 76.86 94.06 74.47 94.62 74.8 94.63 77.19"/><polygon class="cls-31" points="94.62 74.8 94.06 74.47 94.4 74.27 94.96 74.6 94.62 74.8"/><polygon class="cls-32" points="94.96 74.6 94.97 76.99 94.63 77.19 94.62 74.8 94.96 74.6"/></g><g class="cls-2"><polygon class="cls-30" points="93.66 77.75 93.1 77.42 93.09 75.03 93.65 75.36 93.66 77.75"/><polygon class="cls-31" points="93.65 75.36 93.09 75.03 93.43 74.83 93.99 75.16 93.65 75.36"/><polygon class="cls-32" points="93.99 75.16 94 77.55 93.66 77.75 93.65 75.36 93.99 75.16"/></g><g class="cls-2"><polygon class="cls-30" points="92.7 78.31 92.13 77.98 92.13 75.59 92.69 75.91 92.7 78.31"/><polygon class="cls-31" points="92.69 75.91 92.13 75.59 92.47 75.39 93.03 75.72 92.69 75.91"/><polygon class="cls-32" points="93.03 75.72 93.03 78.11 92.7 78.31 92.69 75.91 93.03 75.72"/></g><g class="cls-2"><polygon class="cls-30" points="91.73 78.86 91.17 78.54 91.16 76.14 91.73 76.47 91.73 78.86"/><polygon class="cls-31" points="91.73 76.47 91.16 76.14 91.5 75.94 92.06 76.27 91.73 76.47"/><polygon class="cls-32" points="92.06 76.27 92.07 78.67 91.73 78.86 91.73 76.47 92.06 76.27"/></g><g class="cls-2"><polygon class="cls-30" points="90.77 79.42 90.2 79.09 90.2 76.7 90.76 77.02 90.77 79.42"/><polygon class="cls-31" points="90.76 77.02 90.2 76.7 90.54 76.5 91.1 76.83 90.76 77.02"/><polygon class="cls-32" points="91.1 76.83 91.11 79.22 90.77 79.42 90.76 77.02 91.1 76.83"/></g><g class="cls-2"><polygon class="cls-30" points="89.8 79.98 89.24 79.65 89.23 77.26 89.8 77.58 89.8 79.98"/><polygon class="cls-31" points="89.8 77.58 89.23 77.26 89.57 77.06 90.14 77.39 89.8 77.58"/><polygon class="cls-32" points="90.14 77.39 90.14 79.78 89.8 79.98 89.8 77.58 90.14 77.39"/></g><g class="cls-2"><polygon class="cls-30" points="88.84 80.53 88.28 80.21 88.27 77.81 88.83 78.14 88.84 80.53"/><polygon class="cls-31" points="88.83 78.14 88.27 77.81 88.61 77.62 89.17 77.94 88.83 78.14"/><polygon class="cls-32" points="89.17 77.94 89.18 80.34 88.84 80.53 88.83 78.14 89.17 77.94"/></g><g class="cls-2"><polygon class="cls-18" points="88.97 79.38 87.77 78.68 87.74 69.35 88.94 70.05 88.97 79.38"/><polygon class="cls-17" points="88.94 70.05 87.74 69.35 107.75 57.8 108.94 58.5 88.94 70.05"/><polygon class="cls-19" points="108.94 58.5 108.97 67.83 88.97 79.38 88.94 70.05 108.94 58.5"/></g><g class="cls-2"><polygon class="cls-30" points="43.62 58.67 43.38 58.53 43.38 58.37 43.62 58.51 43.62 58.67"/><polygon class="cls-31" points="43.62 58.51 43.38 58.37 44.27 57.86 44.5 58 43.62 58.51"/><polygon class="cls-32" points="44.5 58 44.51 58.16 43.62 58.67 43.62 58.51 44.5 58"/></g><g class="cls-2"><polygon class="cls-30" points="43.62 58.21 43.38 58.07 43.38 57.91 43.62 58.05 43.62 58.21"/><polygon class="cls-31" points="43.62 58.05 43.38 57.91 44.27 57.4 44.5 57.54 43.62 58.05"/><polygon class="cls-32" points="44.5 57.54 44.5 57.7 43.62 58.21 43.62 58.05 44.5 57.54"/></g><g class="cls-2"><polygon class="cls-30" points="43.62 57.75 43.38 57.61 43.38 57.45 43.62 57.59 43.62 57.75"/><polygon class="cls-31" points="43.62 57.59 43.38 57.45 44.27 56.94 44.5 57.08 43.62 57.59"/><polygon class="cls-32" points="44.5 57.08 44.5 57.24 43.62 57.75 43.62 57.59 44.5 57.08"/></g><g class="cls-2"><polygon class="cls-30" points="43.62 57.29 43.38 57.15 43.38 56.99 43.62 57.13 43.62 57.29"/><polygon class="cls-31" points="43.62 57.13 43.38 56.99 44.26 56.48 44.5 56.62 43.62 57.13"/><polygon class="cls-32" points="44.5 56.62 44.5 56.78 43.62 57.29 43.62 57.13 44.5 56.62"/></g><g class="cls-2"><polygon class="cls-30" points="43.62 56.83 43.38 56.69 43.38 56.53 43.62 56.67 43.62 56.83"/><polygon class="cls-31" points="43.62 56.67 43.38 56.53 44.26 56.02 44.5 56.16 43.62 56.67"/><polygon class="cls-32" points="44.5 56.16 44.5 56.32 43.62 56.83 43.62 56.67 44.5 56.16"/></g><g class="cls-2"><polygon class="cls-30" points="43.62 56.37 43.38 56.23 43.38 56.07 43.62 56.21 43.62 56.37"/><polygon class="cls-31" points="43.62 56.21 43.38 56.07 44.26 55.56 44.5 55.7 43.62 56.21"/><polygon class="cls-32" points="44.5 55.7 44.5 55.86 43.62 56.37 43.62 56.21 44.5 55.7"/></g><g class="cls-2"><polygon class="cls-30" points="43.61 55.91 43.38 55.77 43.38 55.61 43.61 55.75 43.61 55.91"/><polygon class="cls-31" points="43.61 55.75 43.38 55.61 44.26 55.1 44.5 55.24 43.61 55.75"/><polygon class="cls-32" points="44.5 55.24 44.5 55.4 43.61 55.91 43.61 55.75 44.5 55.24"/></g><g class="cls-2"><polygon class="cls-30" points="44.76 54.79 44.52 54.65 44.52 53.64 44.76 53.77 44.76 54.79"/><polygon class="cls-31" points="44.76 53.77 44.52 53.64 44.66 53.55 44.9 53.69 44.76 53.77"/><polygon class="cls-32" points="44.9 53.69 44.91 54.7 44.76 54.79 44.76 53.77 44.9 53.69"/></g><g class="cls-2"><polygon class="cls-30" points="45.17 54.55 44.93 54.41 44.93 53.4 45.17 53.54 45.17 54.55"/><polygon class="cls-31" points="45.17 53.54 44.93 53.4 45.07 53.32 45.31 53.45 45.17 53.54"/><polygon class="cls-32" points="45.31 53.45 45.31 54.47 45.17 54.55 45.17 53.54 45.31 53.45"/></g><g class="cls-2"><polygon class="cls-30" points="45.58 54.31 45.34 54.18 45.34 53.16 45.57 53.3 45.58 54.31"/><polygon class="cls-31" points="45.57 53.3 45.34 53.16 45.48 53.08 45.72 53.22 45.57 53.3"/><polygon class="cls-32" points="45.72 53.22 45.72 54.23 45.58 54.31 45.57 53.3 45.72 53.22"/></g><g class="cls-2"><polygon class="cls-30" points="45.99 54.08 45.75 53.94 45.74 52.93 45.98 53.07 45.99 54.08"/><polygon class="cls-31" points="45.98 53.07 45.74 52.93 45.89 52.85 46.12 52.98 45.98 53.07"/><polygon class="cls-32" points="46.12 52.98 46.13 53.99 45.99 54.08 45.98 53.07 46.12 52.98"/></g><g class="cls-2"><polygon class="cls-30" points="46.39 53.84 46.16 53.7 46.15 52.69 46.39 52.83 46.39 53.84"/><polygon class="cls-31" points="46.39 52.83 46.15 52.69 46.3 52.61 46.53 52.75 46.39 52.83"/><polygon class="cls-32" points="46.53 52.75 46.53 53.76 46.39 53.84 46.39 52.83 46.53 52.75"/></g><g class="cls-2"><polygon class="cls-30" points="46.8 53.61 46.56 53.47 46.56 52.46 46.8 52.6 46.8 53.61"/><polygon class="cls-31" points="46.8 52.6 46.56 52.46 46.71 52.37 46.94 52.51 46.8 52.6"/><polygon class="cls-32" points="46.94 52.51 46.95 53.52 46.8 53.61 46.8 52.6 46.94 52.51"/></g><g class="cls-2"><polygon class="cls-30" points="47.21 53.37 46.97 53.23 46.97 52.22 47.2 52.36 47.21 53.37"/><polygon class="cls-31" points="47.2 52.36 46.97 52.22 47.11 52.14 47.35 52.28 47.2 52.36"/><polygon class="cls-32" points="47.35 52.28 47.35 53.29 47.21 53.37 47.2 52.36 47.35 52.28"/></g><g class="cls-2"><polygon class="cls-30" points="47.62 53.14 47.38 53 47.38 51.99 47.61 52.12 47.62 53.14"/><polygon class="cls-31" points="47.61 52.12 47.38 51.99 47.52 51.9 47.76 52.04 47.61 52.12"/><polygon class="cls-32" points="47.76 52.04 47.76 53.06 47.62 53.14 47.61 52.12 47.76 52.04"/></g><g class="cls-2"><polygon class="cls-30" points="48.02 52.9 47.79 52.76 47.78 51.75 48.02 51.89 48.02 52.9"/><polygon class="cls-31" points="48.02 51.89 47.78 51.75 47.93 51.67 48.17 51.8 48.02 51.89"/><polygon class="cls-32" points="48.17 51.8 48.17 52.82 48.02 52.9 48.02 51.89 48.17 51.8"/></g><g class="cls-2"><polygon class="cls-30" points="48.43 52.67 48.19 52.53 48.19 51.52 48.43 51.65 48.43 52.67"/><polygon class="cls-31" points="48.43 51.65 48.19 51.52 48.34 51.43 48.58 51.57 48.43 51.65"/><polygon class="cls-32" points="48.58 51.57 48.58 52.58 48.43 52.67 48.43 51.65 48.58 51.57"/></g><g class="cls-2"><polygon class="cls-30" points="48.84 52.43 48.6 52.29 48.6 51.28 48.84 51.42 48.84 52.43"/><polygon class="cls-31" points="48.84 51.42 48.6 51.28 48.74 51.2 48.98 51.33 48.84 51.42"/><polygon class="cls-32" points="48.98 51.33 48.99 52.35 48.84 52.43 48.84 51.42 48.98 51.33"/></g><g class="cls-2"><polygon class="cls-30" points="49.25 52.2 49.01 52.06 49.01 51.04 49.25 51.18 49.25 52.2"/><polygon class="cls-31" points="49.25 51.18 49.01 51.04 49.15 50.96 49.39 51.1 49.25 51.18"/><polygon class="cls-32" points="49.39 51.1 49.39 52.11 49.25 52.2 49.25 51.18 49.39 51.1"/></g><g class="cls-2"><polygon class="cls-30" points="49.66 51.96 49.42 51.82 49.41 50.81 49.66 50.95 49.66 51.96"/><polygon class="cls-31" points="49.66 50.95 49.41 50.81 49.56 50.73 49.8 50.86 49.66 50.95"/><polygon class="cls-32" points="49.8 50.86 49.8 51.88 49.66 51.96 49.66 50.95 49.8 50.86"/></g><g class="cls-2"><polygon class="cls-30" points="50.06 51.73 49.83 51.59 49.83 50.57 50.06 50.71 50.06 51.73"/><polygon class="cls-31" points="50.06 50.71 49.83 50.57 49.97 50.49 50.2 50.63 50.06 50.71"/><polygon class="cls-32" points="50.2 50.63 50.21 51.64 50.06 51.73 50.06 50.71 50.2 50.63"/></g><g class="cls-2"><polygon class="cls-30" points="50.47 51.49 50.23 51.35 50.23 50.34 50.47 50.48 50.47 51.49"/><polygon class="cls-31" points="50.47 50.48 50.23 50.34 50.38 50.25 50.61 50.39 50.47 50.48"/><polygon class="cls-32" points="50.61 50.39 50.62 51.4 50.47 51.49 50.47 50.48 50.61 50.39"/></g><g class="cls-2"><polygon class="cls-30" points="50.88 51.25 50.64 51.11 50.64 50.1 50.88 50.24 50.88 51.25"/><polygon class="cls-31" points="50.88 50.24 50.64 50.1 50.78 50.02 51.02 50.16 50.88 50.24"/><polygon class="cls-32" points="51.02 50.16 51.02 51.17 50.88 51.25 50.88 50.24 51.02 50.16"/></g><g class="cls-2"><polygon class="cls-30" points="51.29 51.02 51.05 50.88 51.05 49.87 51.29 50 51.29 51.02"/><polygon class="cls-31" points="51.29 50 51.05 49.87 51.19 49.78 51.43 49.92 51.29 50"/><polygon class="cls-32" points="51.43 49.92 51.43 50.94 51.29 51.02 51.29 50 51.43 49.92"/></g><g class="cls-2"><polygon class="cls-30" points="51.7 50.78 51.46 50.64 51.46 49.63 51.69 49.77 51.7 50.78"/><polygon class="cls-31" points="51.69 49.77 51.46 49.63 51.6 49.55 51.84 49.69 51.69 49.77"/><polygon class="cls-32" points="51.84 49.69 51.84 50.7 51.7 50.78 51.69 49.77 51.84 49.69"/></g><g class="cls-2"><polygon class="cls-30" points="52.11 50.55 51.87 50.41 51.87 49.4 52.1 49.53 52.11 50.55"/><polygon class="cls-31" points="52.1 49.53 51.87 49.4 52.01 49.31 52.25 49.45 52.1 49.53"/><polygon class="cls-32" points="52.25 49.45 52.25 50.46 52.11 50.55 52.1 49.53 52.25 49.45"/></g><g class="cls-2"><polygon class="cls-30" points="52.51 50.31 52.27 50.17 52.27 49.16 52.51 49.3 52.51 50.31"/><polygon class="cls-31" points="52.51 49.3 52.27 49.16 52.42 49.08 52.66 49.22 52.51 49.3"/><polygon class="cls-32" points="52.66 49.22 52.66 50.23 52.51 50.31 52.51 49.3 52.66 49.22"/></g><g class="cls-2"><polygon class="cls-30" points="52.92 50.08 52.69 49.94 52.68 48.92 52.92 49.06 52.92 50.08"/><polygon class="cls-31" points="52.92 49.06 52.68 48.92 52.83 48.84 53.06 48.98 52.92 49.06"/><polygon class="cls-32" points="53.06 48.98 53.06 49.99 52.92 50.08 52.92 49.06 53.06 48.98"/></g><g class="cls-2"><polygon class="cls-30" points="53.34 53.06 53.1 52.92 53.1 52.76 53.34 52.9 53.34 53.06"/><polygon class="cls-31" points="53.34 52.9 53.1 52.76 53.98 52.25 54.22 52.39 53.34 52.9"/><polygon class="cls-32" points="54.22 52.39 54.22 52.55 53.34 53.06 53.34 52.9 54.22 52.39"/></g><g class="cls-2"><polygon class="cls-30" points="53.34 52.6 53.1 52.46 53.1 52.3 53.34 52.44 53.34 52.6"/><polygon class="cls-31" points="53.34 52.44 53.1 52.3 53.98 51.79 54.22 51.93 53.34 52.44"/><polygon class="cls-32" points="54.22 51.93 54.22 52.09 53.34 52.6 53.34 52.44 54.22 51.93"/></g><g class="cls-2"><polygon class="cls-30" points="53.34 52.14 53.1 52 53.1 51.84 53.34 51.98 53.34 52.14"/><polygon class="cls-31" points="53.34 51.98 53.1 51.84 53.98 51.33 54.22 51.47 53.34 51.98"/><polygon class="cls-32" points="54.22 51.47 54.22 51.63 53.34 52.14 53.34 51.98 54.22 51.47"/></g><g class="cls-2"><polygon class="cls-30" points="53.34 51.68 53.1 51.54 53.1 51.38 53.34 51.52 53.34 51.68"/><polygon class="cls-31" points="53.34 51.52 53.1 51.38 53.98 50.87 54.22 51.01 53.34 51.52"/><polygon class="cls-32" points="54.22 51.01 54.22 51.17 53.34 51.68 53.34 51.52 54.22 51.01"/></g><g class="cls-2"><polygon class="cls-30" points="53.34 51.22 53.1 51.08 53.1 50.92 53.34 51.06 53.34 51.22"/><polygon class="cls-31" points="53.34 51.06 53.1 50.92 53.98 50.41 54.22 50.55 53.34 51.06"/><polygon class="cls-32" points="54.22 50.55 54.22 50.71 53.34 51.22 53.34 51.06 54.22 50.55"/></g><g class="cls-2"><polygon class="cls-30" points="53.33 50.76 53.1 50.62 53.1 50.46 53.33 50.6 53.33 50.76"/><polygon class="cls-31" points="53.33 50.6 53.1 50.46 53.98 49.95 54.22 50.09 53.33 50.6"/><polygon class="cls-32" points="54.22 50.09 54.22 50.25 53.33 50.76 53.33 50.6 54.22 50.09"/></g><g class="cls-2"><polygon class="cls-30" points="53.33 50.3 53.1 50.16 53.1 50 53.33 50.14 53.33 50.3"/><polygon class="cls-31" points="53.33 50.14 53.1 50 53.97 49.49 54.21 49.63 53.33 50.14"/><polygon class="cls-32" points="54.21 49.63 54.21 49.79 53.33 50.3 53.33 50.14 54.21 49.63"/></g><g class="cls-2"><polygon class="cls-30" points="52.94 54.61 52.7 54.47 52.69 53.46 52.93 53.6 52.94 54.61"/><polygon class="cls-31" points="52.93 53.6 52.69 53.46 52.84 53.37 53.08 53.51 52.93 53.6"/><polygon class="cls-32" points="53.08 53.51 53.08 54.52 52.94 54.61 52.93 53.6 53.08 53.51"/></g><g class="cls-2"><polygon class="cls-30" points="52.52 54.84 52.29 54.7 52.28 53.69 52.52 53.83 52.52 54.84"/><polygon class="cls-31" points="52.52 53.83 52.28 53.69 52.43 53.61 52.67 53.75 52.52 53.83"/><polygon class="cls-32" points="52.67 53.75 52.67 54.76 52.52 54.84 52.52 53.83 52.67 53.75"/></g><g class="cls-2"><polygon class="cls-30" points="52.12 55.08 51.88 54.94 51.88 53.93 52.12 54.07 52.12 55.08"/><polygon class="cls-31" points="52.12 54.07 51.88 53.93 52.02 53.85 52.26 53.98 52.12 54.07"/><polygon class="cls-32" points="52.26 53.98 52.26 55 52.12 55.08 52.12 54.07 52.26 53.98"/></g><g class="cls-2"><polygon class="cls-30" points="51.71 55.31 51.47 55.18 51.47 54.16 51.71 54.3 51.71 55.31"/><polygon class="cls-31" points="51.71 54.3 51.47 54.16 51.61 54.08 51.85 54.22 51.71 54.3"/><polygon class="cls-32" points="51.85 54.22 51.85 55.23 51.71 55.31 51.71 54.3 51.85 54.22"/></g><g class="cls-2"><polygon class="cls-30" points="51.3 55.55 51.06 55.41 51.06 54.4 51.3 54.54 51.3 55.55"/><polygon class="cls-31" points="51.3 54.54 51.06 54.4 51.2 54.32 51.44 54.45 51.3 54.54"/><polygon class="cls-32" points="51.44 54.45 51.45 55.47 51.3 55.55 51.3 54.54 51.44 54.45"/></g><g class="cls-2"><polygon class="cls-30" points="50.89 55.78 50.66 55.65 50.65 54.64 50.89 54.77 50.89 55.78"/><polygon class="cls-31" points="50.89 54.77 50.65 54.64 50.8 54.55 51.04 54.69 50.89 54.77"/><polygon class="cls-32" points="51.04 54.69 51.04 55.7 50.89 55.78 50.89 54.77 51.04 54.69"/></g><g class="cls-2"><polygon class="cls-30" points="50.49 56.02 50.25 55.88 50.24 54.87 50.48 55.01 50.49 56.02"/><polygon class="cls-31" points="50.48 55.01 50.24 54.87 50.39 54.79 50.63 54.93 50.48 55.01"/><polygon class="cls-32" points="50.63 54.93 50.63 55.94 50.49 56.02 50.48 55.01 50.63 54.93"/></g><g class="cls-2"><polygon class="cls-30" points="50.08 56.26 49.84 56.12 49.84 55.1 50.08 55.25 50.08 56.26"/><polygon class="cls-31" points="50.08 55.25 49.84 55.1 49.98 55.02 50.22 55.16 50.08 55.25"/><polygon class="cls-32" points="50.22 55.16 50.22 56.17 50.08 56.26 50.08 55.25 50.22 55.16"/></g><g class="cls-2"><polygon class="cls-30" points="49.67 56.49 49.43 56.35 49.43 55.34 49.67 55.48 49.67 56.49"/><polygon class="cls-31" points="49.67 55.48 49.43 55.34 49.57 55.26 49.81 55.4 49.67 55.48"/><polygon class="cls-32" points="49.81 55.4 49.81 56.41 49.67 56.49 49.67 55.48 49.81 55.4"/></g><g class="cls-2"><polygon class="cls-30" points="49.27 56.73 49.02 56.59 49.02 55.58 49.26 55.72 49.27 56.73"/><polygon class="cls-31" points="49.26 55.72 49.02 55.58 49.16 55.49 49.4 55.63 49.26 55.72"/><polygon class="cls-32" points="49.4 55.63 49.41 56.65 49.27 56.73 49.26 55.72 49.4 55.63"/></g><g class="cls-2"><polygon class="cls-30" points="48.85 56.97 48.62 56.83 48.61 55.81 48.85 55.95 48.85 56.97"/><polygon class="cls-31" points="48.85 55.95 48.61 55.81 48.76 55.73 48.99 55.87 48.85 55.95"/><polygon class="cls-32" points="48.99 55.87 49 56.88 48.85 56.97 48.85 55.95 48.99 55.87"/></g><g class="cls-2"><polygon class="cls-30" points="48.45 57.2 48.21 57.06 48.2 56.05 48.44 56.19 48.45 57.2"/><polygon class="cls-31" points="48.44 56.19 48.2 56.05 48.35 55.97 48.59 56.1 48.44 56.19"/><polygon class="cls-32" points="48.59 56.1 48.59 57.12 48.45 57.2 48.44 56.19 48.59 56.1"/></g><g class="cls-2"><polygon class="cls-30" points="48.04 57.43 47.8 57.3 47.8 56.28 48.04 56.42 48.04 57.43"/><polygon class="cls-31" points="48.04 56.42 47.8 56.28 47.94 56.2 48.18 56.34 48.04 56.42"/><polygon class="cls-32" points="48.18 56.34 48.18 57.35 48.04 57.43 48.04 56.42 48.18 56.34"/></g><g class="cls-2"><polygon class="cls-30" points="47.63 57.67 47.39 57.53 47.39 56.52 47.63 56.66 47.63 57.67"/><polygon class="cls-31" points="47.63 56.66 47.39 56.52 47.53 56.44 47.77 56.58 47.63 56.66"/><polygon class="cls-32" points="47.77 56.58 47.77 57.59 47.63 57.67 47.63 56.66 47.77 56.58"/></g><g class="cls-2"><polygon class="cls-30" points="47.22 57.91 46.98 57.77 46.98 56.75 47.22 56.9 47.22 57.91"/><polygon class="cls-31" points="47.22 56.9 46.98 56.75 47.12 56.67 47.36 56.81 47.22 56.9"/><polygon class="cls-32" points="47.36 56.81 47.37 57.82 47.22 57.91 47.22 56.9 47.36 56.81"/></g><g class="cls-2"><polygon class="cls-30" points="46.81 58.14 46.58 58 46.57 56.99 46.81 57.13 46.81 58.14"/><polygon class="cls-31" points="46.81 57.13 46.57 56.99 46.72 56.91 46.95 57.05 46.81 57.13"/><polygon class="cls-32" points="46.95 57.05 46.96 58.06 46.81 58.14 46.81 57.13 46.95 57.05"/></g><g class="cls-2"><polygon class="cls-30" points="46.41 58.38 46.17 58.24 46.16 57.23 46.4 57.37 46.41 58.38"/><polygon class="cls-31" points="46.4 57.37 46.16 57.23 46.31 57.15 46.55 57.28 46.4 57.37"/><polygon class="cls-32" points="46.55 57.28 46.55 58.3 46.41 58.38 46.4 57.37 46.55 57.28"/></g><g class="cls-2"><polygon class="cls-30" points="46 58.61 45.76 58.47 45.76 57.46 45.99 57.6 46 58.61"/><polygon class="cls-31" points="45.99 57.6 45.76 57.46 45.9 57.38 46.14 57.52 45.99 57.6"/><polygon class="cls-32" points="46.14 57.52 46.14 58.53 46 58.61 45.99 57.6 46.14 57.52"/></g><g class="cls-2"><polygon class="cls-30" points="45.59 58.85 45.35 58.71 45.35 57.7 45.59 57.84 45.59 58.85"/><polygon class="cls-31" points="45.59 57.84 45.35 57.7 45.49 57.62 45.73 57.75 45.59 57.84"/><polygon class="cls-32" points="45.73 57.75 45.73 58.77 45.59 58.85 45.59 57.84 45.73 57.75"/></g><g class="cls-2"><polygon class="cls-30" points="45.18 59.08 44.94 58.95 44.94 57.93 45.18 58.07 45.18 59.08"/><polygon class="cls-31" points="45.18 58.07 44.94 57.93 45.08 57.85 45.32 57.99 45.18 58.07"/><polygon class="cls-32" points="45.32 57.99 45.33 59 45.18 59.08 45.18 58.07 45.32 57.99"/></g><g class="cls-2"><polygon class="cls-30" points="44.77 59.32 44.53 59.18 44.53 58.17 44.77 58.31 44.77 59.32"/><polygon class="cls-31" points="44.77 58.31 44.53 58.17 44.68 58.09 44.92 58.22 44.77 58.31"/><polygon class="cls-32" points="44.92 58.22 44.92 59.24 44.77 59.32 44.77 58.31 44.92 58.22"/></g><g class="cls-2"><polygon class="cls-18" points="44.83 58.83 44.32 58.54 44.31 54.59 44.81 54.88 44.83 58.83"/><polygon class="cls-17" points="44.81 54.88 44.31 54.59 52.77 49.7 53.28 50 44.81 54.88"/><polygon class="cls-19" points="53.28 50 53.29 53.95 44.83 58.83 44.81 54.88 53.28 50"/></g><g class="cls-2"><polygon class="cls-30" points="44.74 93.05 44.18 92.72 44.18 92.33 44.74 92.66 44.74 93.05"/><polygon class="cls-31" points="44.74 92.66 44.18 92.33 46.26 91.13 46.82 91.45 44.74 92.66"/><polygon class="cls-32" points="46.82 91.45 46.82 91.84 44.74 93.05 44.74 92.66 46.82 91.45"/></g><g class="cls-2"><polygon class="cls-30" points="44.74 91.96 44.18 91.63 44.17 91.24 44.74 91.57 44.74 91.96"/><polygon class="cls-31" points="44.74 91.57 44.17 91.24 46.26 90.04 46.82 90.36 44.74 91.57"/><polygon class="cls-32" points="46.82 90.36 46.82 90.75 44.74 91.96 44.74 91.57 46.82 90.36"/></g><g class="cls-2"><polygon class="cls-30" points="44.73 90.87 44.17 90.54 44.17 90.15 44.73 90.48 44.73 90.87"/><polygon class="cls-31" points="44.73 90.48 44.17 90.15 46.26 88.95 46.82 89.28 44.73 90.48"/><polygon class="cls-32" points="46.82 89.28 46.82 89.67 44.73 90.87 44.73 90.48 46.82 89.28"/></g><g class="cls-2"><polygon class="cls-30" points="44.73 89.78 44.17 89.45 44.17 89.06 44.73 89.39 44.73 89.78"/><polygon class="cls-31" points="44.73 89.39 44.17 89.06 46.25 87.86 46.82 88.19 44.73 89.39"/><polygon class="cls-32" points="46.82 88.19 46.82 88.58 44.73 89.78 44.73 89.39 46.82 88.19"/></g><g class="cls-2"><polygon class="cls-30" points="44.73 88.69 44.17 88.36 44.17 87.97 44.73 88.3 44.73 88.69"/><polygon class="cls-31" points="44.73 88.3 44.17 87.97 46.25 86.77 46.81 87.1 44.73 88.3"/><polygon class="cls-32" points="46.81 87.1 46.81 87.48 44.73 88.69 44.73 88.3 46.81 87.1"/></g><g class="cls-2"><polygon class="cls-30" points="44.73 87.6 44.16 87.27 44.16 86.88 44.73 87.21 44.73 87.6"/><polygon class="cls-31" points="44.73 87.21 44.16 86.88 46.25 85.68 46.81 86.01 44.73 87.21"/><polygon class="cls-32" points="46.81 86.01 46.81 86.4 44.73 87.6 44.73 87.21 46.81 86.01"/></g><g class="cls-2"><polygon class="cls-30" points="44.73 86.51 44.16 86.18 44.16 85.79 44.72 86.12 44.73 86.51"/><polygon class="cls-31" points="44.72 86.12 44.16 85.79 46.24 84.59 46.8 84.92 44.72 86.12"/><polygon class="cls-32" points="46.8 84.92 46.81 85.31 44.73 86.51 44.72 86.12 46.8 84.92"/></g><g class="cls-2"><polygon class="cls-30" points="44.72 85.42 44.16 85.09 44.16 84.7 44.72 85.03 44.72 85.42"/><polygon class="cls-31" points="44.72 85.03 44.16 84.7 46.24 83.5 46.8 83.83 44.72 85.03"/><polygon class="cls-32" points="46.8 83.83 46.8 84.22 44.72 85.42 44.72 85.03 46.8 83.83"/></g><g class="cls-2"><polygon class="cls-30" points="44.72 84.33 44.16 84 44.15 83.61 44.72 83.94 44.72 84.33"/><polygon class="cls-31" points="44.72 83.94 44.15 83.61 46.23 82.41 46.8 82.74 44.72 83.94"/><polygon class="cls-32" points="46.8 82.74 46.8 83.13 44.72 84.33 44.72 83.94 46.8 82.74"/></g><g class="cls-2"><polygon class="cls-30" points="44.72 83.24 44.15 82.91 44.15 82.52 44.71 82.85 44.72 83.24"/><polygon class="cls-31" points="44.71 82.85 44.15 82.52 46.23 81.32 46.8 81.65 44.71 82.85"/><polygon class="cls-32" points="46.8 81.65 46.8 82.04 44.72 83.24 44.71 82.85 46.8 81.65"/></g><g class="cls-2"><polygon class="cls-30" points="44.71 82.15 44.15 81.82 44.15 81.43 44.71 81.76 44.71 82.15"/><polygon class="cls-31" points="44.71 81.76 44.15 81.43 46.23 80.23 46.79 80.56 44.71 81.76"/><polygon class="cls-32" points="46.79 80.56 46.79 80.95 44.71 82.15 44.71 81.76 46.79 80.56"/></g><g class="cls-2"><polygon class="cls-30" points="47.45 79.47 46.89 79.14 46.89 76.75 47.45 77.08 47.45 79.47"/><polygon class="cls-31" points="47.45 77.08 46.89 76.75 47.22 76.55 47.79 76.88 47.45 77.08"/><polygon class="cls-32" points="47.79 76.88 47.8 79.27 47.45 79.47 47.45 77.08 47.79 76.88"/></g><g class="cls-2"><polygon class="cls-30" points="48.46 78.89 47.89 78.56 47.89 76.17 48.45 76.5 48.46 78.89"/><polygon class="cls-31" points="48.45 76.5 47.89 76.17 48.23 75.97 48.79 76.3 48.45 76.5"/><polygon class="cls-32" points="48.79 76.3 48.8 78.69 48.46 78.89 48.45 76.5 48.79 76.3"/></g><g class="cls-2"><polygon class="cls-30" points="49.47 78.31 48.9 77.98 48.89 75.59 49.46 75.92 49.47 78.31"/><polygon class="cls-31" points="49.46 75.92 48.89 75.59 49.23 75.39 49.8 75.72 49.46 75.92"/><polygon class="cls-32" points="49.8 75.72 49.8 78.11 49.47 78.31 49.46 75.92 49.8 75.72"/></g><g class="cls-2"><polygon class="cls-30" points="50.47 77.73 49.91 77.4 49.9 75.01 50.46 75.33 50.47 77.73"/><polygon class="cls-31" points="50.46 75.33 49.9 75.01 50.24 74.81 50.8 75.14 50.46 75.33"/><polygon class="cls-32" points="50.8 75.14 50.81 77.53 50.47 77.73 50.46 75.33 50.8 75.14"/></g><g class="cls-2"><polygon class="cls-30" points="51.48 77.15 50.91 76.82 50.91 74.43 51.47 74.76 51.48 77.15"/><polygon class="cls-31" points="51.47 74.76 50.91 74.43 51.25 74.23 51.81 74.56 51.47 74.76"/><polygon class="cls-32" points="51.81 74.56 51.82 76.95 51.48 77.15 51.47 74.76 51.81 74.56"/></g><g class="cls-2"><polygon class="cls-30" points="52.48 76.57 51.92 76.24 51.91 73.85 52.48 74.18 52.48 76.57"/><polygon class="cls-31" points="52.48 74.18 51.91 73.85 52.25 73.65 52.81 73.98 52.48 74.18"/><polygon class="cls-32" points="52.81 73.98 52.82 76.37 52.48 76.57 52.48 74.18 52.81 73.98"/></g><g class="cls-2"><polygon class="cls-30" points="53.49 75.99 52.92 75.66 52.92 73.27 53.48 73.59 53.49 75.99"/><polygon class="cls-31" points="53.48 73.59 52.92 73.27 53.26 73.07 53.82 73.4 53.48 73.59"/><polygon class="cls-32" points="53.82 73.4 53.83 75.79 53.49 75.99 53.48 73.59 53.82 73.4"/></g><g class="cls-2"><polygon class="cls-30" points="54.49 75.41 53.93 75.08 53.92 72.69 54.48 73.02 54.49 75.41"/><polygon class="cls-31" points="54.48 73.02 53.92 72.69 54.26 72.49 54.82 72.82 54.48 73.02"/><polygon class="cls-32" points="54.82 72.82 54.83 75.21 54.49 75.41 54.48 73.02 54.82 72.82"/></g><g class="cls-2"><polygon class="cls-30" points="55.5 74.83 54.93 74.5 54.93 72.1 55.49 72.43 55.5 74.83"/><polygon class="cls-31" points="55.49 72.43 54.93 72.1 55.27 71.91 55.83 72.24 55.49 72.43"/><polygon class="cls-32" points="55.83 72.24 55.84 74.63 55.5 74.83 55.49 72.43 55.83 72.24"/></g><g class="cls-2"><polygon class="cls-30" points="56.5 74.24 55.94 73.92 55.93 71.52 56.5 71.85 56.5 74.24"/><polygon class="cls-31" points="56.5 71.85 55.93 71.52 56.27 71.33 56.84 71.66 56.5 71.85"/><polygon class="cls-32" points="56.84 71.66 56.84 74.05 56.5 74.24 56.5 71.85 56.84 71.66"/></g><g class="cls-2"><polygon class="cls-30" points="57.54 85.66 56.98 85.33 56.97 84.94 57.54 85.27 57.54 85.66"/><polygon class="cls-31" points="57.54 85.27 56.97 84.94 59.06 83.74 59.62 84.07 57.54 85.27"/><polygon class="cls-32" points="59.62 84.07 59.62 84.46 57.54 85.66 57.54 85.27 59.62 84.07"/></g><g class="cls-2"><polygon class="cls-30" points="57.54 84.57 56.97 84.25 56.97 83.85 57.53 84.18 57.54 84.57"/><polygon class="cls-31" points="57.53 84.18 56.97 83.85 59.05 82.65 59.62 82.98 57.53 84.18"/><polygon class="cls-32" points="59.62 82.98 59.62 83.37 57.54 84.57 57.53 84.18 59.62 82.98"/></g><g class="cls-2"><polygon class="cls-30" points="57.53 83.48 56.97 83.15 56.97 82.76 57.53 83.09 57.53 83.48"/><polygon class="cls-31" points="57.53 83.09 56.97 82.76 59.05 81.56 59.61 81.89 57.53 83.09"/><polygon class="cls-32" points="59.61 81.89 59.61 82.28 57.53 83.48 57.53 83.09 59.61 81.89"/></g><g class="cls-2"><polygon class="cls-30" points="57.53 82.39 56.97 82.06 56.97 81.67 57.53 82 57.53 82.39"/><polygon class="cls-31" points="57.53 82 56.97 81.67 59.05 80.47 59.61 80.8 57.53 82"/><polygon class="cls-32" points="59.61 80.8 59.61 81.19 57.53 82.39 57.53 82 59.61 80.8"/></g><g class="cls-2"><polygon class="cls-30" points="57.52 81.3 56.96 80.97 56.96 80.58 57.52 80.91 57.52 81.3"/><polygon class="cls-31" points="57.52 80.91 56.96 80.58 59.05 79.38 59.61 79.71 57.52 80.91"/><polygon class="cls-32" points="59.61 79.71 59.61 80.1 57.52 81.3 57.52 80.91 59.61 79.71"/></g><g class="cls-2"><polygon class="cls-30" points="57.52 80.21 56.96 79.89 56.96 79.5 57.52 79.82 57.52 80.21"/><polygon class="cls-31" points="57.52 79.82 56.96 79.5 59.04 78.29 59.6 78.62 57.52 79.82"/><polygon class="cls-32" points="59.6 78.62 59.61 79.01 57.52 80.21 57.52 79.82 59.6 78.62"/></g><g class="cls-2"><polygon class="cls-30" points="57.52 79.12 56.96 78.8 56.95 78.41 57.52 78.73 57.52 79.12"/><polygon class="cls-31" points="57.52 78.73 56.95 78.41 59.04 77.2 59.6 77.53 57.52 78.73"/><polygon class="cls-32" points="59.6 77.53 59.6 77.92 57.52 79.12 57.52 78.73 59.6 77.53"/></g><g class="cls-2"><polygon class="cls-30" points="57.52 78.03 56.95 77.71 56.95 77.32 57.52 77.64 57.52 78.03"/><polygon class="cls-31" points="57.52 77.64 56.95 77.32 59.03 76.11 59.6 76.44 57.52 77.64"/><polygon class="cls-32" points="59.6 76.44 59.6 76.83 57.52 78.03 57.52 77.64 59.6 76.44"/></g><g class="cls-2"><polygon class="cls-30" points="57.52 76.94 56.95 76.61 56.95 76.23 57.51 76.55 57.52 76.94"/><polygon class="cls-31" points="57.51 76.55 56.95 76.23 59.03 75.02 59.59 75.35 57.51 76.55"/><polygon class="cls-32" points="59.59 75.35 59.6 75.74 57.52 76.94 57.51 76.55 59.59 75.35"/></g><g class="cls-2"><polygon class="cls-30" points="57.51 75.85 56.95 75.53 56.95 75.14 57.51 75.46 57.51 75.85"/><polygon class="cls-31" points="57.51 75.46 56.95 75.14 59.03 73.93 59.59 74.26 57.51 75.46"/><polygon class="cls-32" points="59.59 74.26 59.59 74.65 57.51 75.85 57.51 75.46 59.59 74.26"/></g><g class="cls-2"><polygon class="cls-30" points="57.51 74.77 56.94 74.44 56.94 74.05 57.51 74.37 57.51 74.77"/><polygon class="cls-31" points="57.51 74.37 56.94 74.05 59.03 72.84 59.59 73.17 57.51 74.37"/><polygon class="cls-32" points="59.59 73.17 59.59 73.56 57.51 74.77 57.51 74.37 59.59 73.17"/></g><g class="cls-2"><polygon class="cls-30" points="56.54 89.34 55.98 89.01 55.98 86.62 56.54 86.94 56.54 89.34"/><polygon class="cls-31" points="56.54 86.94 55.98 86.62 56.32 86.42 56.88 86.75 56.54 86.94"/><polygon class="cls-32" points="56.88 86.75 56.88 89.14 56.54 89.34 56.54 86.94 56.88 86.75"/></g><g class="cls-2"><polygon class="cls-30" points="55.54 89.92 54.98 89.59 54.97 87.2 55.53 87.53 55.54 89.92"/><polygon class="cls-31" points="55.53 87.53 54.97 87.2 55.31 87 55.87 87.33 55.53 87.53"/><polygon class="cls-32" points="55.87 87.33 55.88 89.72 55.54 89.92 55.53 87.53 55.87 87.33"/></g><g class="cls-2"><polygon class="cls-30" points="54.53 90.5 53.97 90.17 53.97 87.78 54.53 88.11 54.53 90.5"/><polygon class="cls-31" points="54.53 88.11 53.97 87.78 54.3 87.58 54.87 87.91 54.53 88.11"/><polygon class="cls-32" points="54.87 87.91 54.87 90.3 54.53 90.5 54.53 88.11 54.87 87.91"/></g><g class="cls-2"><polygon class="cls-30" points="53.53 91.08 52.97 90.75 52.96 88.36 53.52 88.69 53.53 91.08"/><polygon class="cls-31" points="53.52 88.69 52.96 88.36 53.3 88.17 53.86 88.49 53.52 88.69"/><polygon class="cls-32" points="53.86 88.49 53.87 90.89 53.53 91.08 53.52 88.69 53.86 88.49"/></g><g class="cls-2"><polygon class="cls-30" points="52.52 91.66 51.96 91.33 51.95 88.94 52.52 89.27 52.52 91.66"/><polygon class="cls-31" points="52.52 89.27 51.95 88.94 52.29 88.74 52.86 89.07 52.52 89.27"/><polygon class="cls-32" points="52.86 89.07 52.86 91.46 52.52 91.66 52.52 89.27 52.86 89.07"/></g><g class="cls-2"><polygon class="cls-30" points="51.52 92.24 50.95 91.92 50.95 89.52 51.51 89.85 51.52 92.24"/><polygon class="cls-31" points="51.51 89.85 50.95 89.52 51.29 89.32 51.85 89.65 51.51 89.85"/><polygon class="cls-32" points="51.85 89.65 51.86 92.04 51.52 92.24 51.51 89.85 51.85 89.65"/></g><g class="cls-2"><polygon class="cls-30" points="50.51 92.82 49.95 92.5 49.94 90.1 50.51 90.43 50.51 92.82"/><polygon class="cls-31" points="50.51 90.43 49.94 90.1 50.28 89.9 50.85 90.23 50.51 90.43"/><polygon class="cls-32" points="50.85 90.23 50.85 92.62 50.51 92.82 50.51 90.43 50.85 90.23"/></g><g class="cls-2"><polygon class="cls-30" points="49.51 93.4 48.94 93.07 48.94 90.68 49.5 91.01 49.51 93.4"/><polygon class="cls-31" points="49.5 91.01 48.94 90.68 49.28 90.48 49.84 90.81 49.5 91.01"/><polygon class="cls-32" points="49.84 90.81 49.85 93.2 49.51 93.4 49.5 91.01 49.84 90.81"/></g><g class="cls-2"><polygon class="cls-30" points="48.5 93.98 47.94 93.66 47.93 91.26 48.5 91.59 48.5 93.98"/><polygon class="cls-31" points="48.5 91.59 47.93 91.26 48.27 91.07 48.84 91.39 48.5 91.59"/><polygon class="cls-32" points="48.84 91.39 48.84 93.78 48.5 93.98 48.5 91.59 48.84 91.39"/></g><g class="cls-2"><polygon class="cls-30" points="47.5 94.56 46.93 94.24 46.93 91.84 47.49 92.17 47.5 94.56"/><polygon class="cls-31" points="47.49 92.17 46.93 91.84 47.27 91.65 47.83 91.97 47.49 92.17"/><polygon class="cls-32" points="47.83 91.97 47.84 94.37 47.5 94.56 47.49 92.17 47.83 91.97"/></g><g class="cls-2"><polygon class="cls-18" points="47.67 92.02 46.27 91.21 46.23 79.57 47.63 80.38 47.67 92.02"/><polygon class="cls-17" points="47.63 80.38 46.23 79.57 56.1 73.87 57.5 74.69 47.63 80.38"/><polygon class="cls-19" points="57.5 74.69 57.53 86.32 47.67 92.02 47.63 80.38 57.5 74.69"/></g><g class="cls-2"><polygon class="cls-18" points="51.35 103.91 50.79 103.58 50.77 96.11 51.33 96.44 51.35 103.91"/><polygon class="cls-17" points="51.33 96.44 50.77 96.11 53.94 94.27 54.51 94.6 51.33 96.44"/><polygon class="cls-19" points="54.51 94.6 54.53 102.07 51.35 103.91 51.33 96.44 54.51 94.6"/></g><g class="cls-2"><polygon class="cls-18" points="56.55 101.37 55.99 101.04 55.97 93.57 56.53 93.9 56.55 101.37"/><polygon class="cls-17" points="56.53 93.9 55.97 93.57 59.15 91.73 59.71 92.06 56.53 93.9"/><polygon class="cls-19" points="59.71 92.06 59.73 99.53 56.55 101.37 56.53 93.9 59.71 92.06"/></g><g class="cls-2"><polygon class="cls-18" points="61.72 98.71 61.15 98.38 61.13 90.91 61.69 91.24 61.72 98.71"/><polygon class="cls-17" points="61.69 91.24 61.13 90.91 64.31 89.08 64.87 89.4 61.69 91.24"/><polygon class="cls-19" points="64.87 89.4 64.89 96.87 61.72 98.71 61.69 91.24 64.87 89.4"/></g><g class="cls-2"><polygon class="cls-18" points="98.01 43.42 97.44 43.1 97.42 35.63 97.98 35.95 98.01 43.42"/><polygon class="cls-17" points="97.98 35.95 97.42 35.63 100.6 33.79 101.16 34.12 97.98 35.95"/><polygon class="cls-19" points="101.16 34.12 101.18 41.59 98.01 43.42 97.98 35.95 101.16 34.12"/></g><g class="cls-2"><polygon class="cls-18" points="38.85 75.24 38.29 74.91 38.27 67.44 38.83 67.77 38.85 75.24"/><polygon class="cls-17" points="38.83 67.77 38.27 67.44 44.33 63.94 44.89 64.27 38.83 67.77"/><polygon class="cls-19" points="44.89 64.27 44.91 71.74 38.85 75.24 38.83 67.77 44.89 64.27"/></g><g class="cls-2"><polygon class="cls-18" points="48.87 69.73 48.31 69.4 48.29 61.93 48.85 62.26 48.87 69.73"/><polygon class="cls-17" points="48.85 62.26 48.29 61.93 54.35 58.43 54.92 58.76 48.85 62.26"/><polygon class="cls-19" points="54.92 58.76 54.94 66.23 48.87 69.73 48.85 62.26 54.92 58.76"/></g><g class="cls-2"><g class="cls-2"><g class="cls-33"><g class="cls-2"><path class="cls-34" d="M103.12,21.88l-.56-.33.24-.12.56.33a1.34,1.34,0,0,0-.24.12Z"/><path class="cls-35" d="M103.36,21.76l-.56-.33a1.63,1.63,0,0,1,1.56-.05l.56.32a1.67,1.67,0,0,0-1.56.06Z"/></g></g></g><g class="cls-2"><g class="cls-36"><g class="cls-2"><path class="cls-35" d="M101.34,27.86l-.56-.33a1.79,1.79,0,0,1-.74-1.62,4.4,4.4,0,0,1,.25-1.4l.56.33a4.12,4.12,0,0,0-.24,1.4,1.77,1.77,0,0,0,.73,1.62Z"/><path class="cls-34" d="M100.85,24.84l-.56-.33a5.6,5.6,0,0,1,2.27-3l.56.33a5.6,5.6,0,0,0-2.27,3Z"/></g></g></g><path class="cls-12" d="M103.12,21.88c1.4-.8,2.53-.16,2.54,1.44a5.56,5.56,0,0,1-2.52,4.36c-1.39.81-2.53.16-2.53-1.44A5.55,5.55,0,0,1,103.12,21.88Z"/></g><g class="cls-2"><g class="cls-2"><g class="cls-37"><g class="cls-2"><path class="cls-34" d="M54.48,106.32l-.56-.33.23-.13.57.33-.24.13Z"/><path class="cls-35" d="M54.72,106.19l-.57-.33a1.69,1.69,0,0,1,1.56,0l.57.33a1.66,1.66,0,0,0-1.56,0Z"/></g></g></g><g class="cls-2"><g class="cls-38"><g class="cls-2"><path class="cls-35" d="M52.7,112.29l-.56-.32a1.77,1.77,0,0,1-.74-1.62,4.51,4.51,0,0,1,.25-1.41l.56.33a4.4,4.4,0,0,0-.25,1.4,1.79,1.79,0,0,0,.74,1.62Z"/><path class="cls-34" d="M52.21,109.27l-.56-.33a5.57,5.57,0,0,1,2.27-3l.56.33a5.49,5.49,0,0,0-2.27,3Z"/></g></g></g><path class="cls-12" d="M54.48,106.32c1.39-.81,2.53-.16,2.53,1.44a5.55,5.55,0,0,1-2.51,4.36c-1.4.8-2.53.16-2.54-1.45A5.55,5.55,0,0,1,54.48,106.32Z"/></g><g class="cls-2"><g class="cls-2"><g class="cls-39"><g class="cls-2"><path class="cls-40" d="M28.93,58.85l-.54-.31.23-.12.54.31-.23.12Z"/><path class="cls-41" d="M29.16,58.73l-.54-.31a1.61,1.61,0,0,1,1.49-.05l.53.31a1.59,1.59,0,0,0-1.48,0Z"/></g></g></g><g class="cls-2"><g class="cls-42"><g class="cls-2"><path class="cls-41" d="M27.24,64.55l-.54-.32a1.67,1.67,0,0,1-.7-1.54,4.34,4.34,0,0,1,.23-1.34l.54.31A4.37,4.37,0,0,0,26.53,63a1.71,1.71,0,0,0,.71,1.54Z"/><path class="cls-40" d="M26.77,61.66l-.54-.31a5.32,5.32,0,0,1,2.16-2.81l.54.31a5.31,5.31,0,0,0-2.16,2.81Z"/></g></g></g><path class="cls-43" d="M28.93,58.85c1.33-.77,2.41-.15,2.41,1.38A5.27,5.27,0,0,1,29,64.38c-1.33.77-2.41.15-2.42-1.37A5.31,5.31,0,0,1,28.93,58.85Z"/></g><g class="cls-2"><g class="cls-2"><g class="cls-44"><g class="cls-2"><path class="cls-40" d="M83.17,64.33,82.63,64a1.27,1.27,0,0,1,.23-.12l.53.31-.22.12Z"/><path class="cls-41" d="M83.39,64.21l-.53-.31a1.56,1.56,0,0,1,1.48,0l.54.31a1.61,1.61,0,0,0-1.49,0Z"/></g></g></g><g class="cls-2"><g class="cls-45"><g class="cls-2"><path class="cls-41" d="M81.47,70l-.54-.32a1.67,1.67,0,0,1-.7-1.54,4.08,4.08,0,0,1,.24-1.34l.53.32a4.23,4.23,0,0,0-.23,1.33,1.69,1.69,0,0,0,.7,1.55Z"/><path class="cls-40" d="M81,67.15l-.53-.32A5.22,5.22,0,0,1,82.63,64l.54.31A5.27,5.27,0,0,0,81,67.15Z"/></g></g></g><path class="cls-43" d="M83.17,64.33c1.33-.77,2.41-.15,2.41,1.38a5.3,5.3,0,0,1-2.4,4.15c-1.33.77-2.41.15-2.41-1.38A5.28,5.28,0,0,1,83.17,64.33Z"/></g><g class="cls-2"><g class="cls-2"><g class="cls-46"><g class="cls-2"><path class="cls-47" d="M65.65,81.41l-1.82-1a1.22,1.22,0,0,1-.51-1.12l1.82,1.06a1.19,1.19,0,0,0,.51,1.11Z"/></g></g></g><polygon class="cls-18" points="65.14 80.3 63.32 79.24 63.31 74.18 65.12 75.24 65.14 80.3"/><g class="cls-2"><g class="cls-48"><g class="cls-2"><path class="cls-49" d="M66.86,72.23,65,71.17l.17-.08,1.82,1-.17.09Z"/><path class="cls-47" d="M67,72.14l-1.82-1a1.15,1.15,0,0,1,1.08,0l1.81,1.06a1.1,1.1,0,0,0-1.07,0Z"/></g></g></g><g class="cls-2"><g class="cls-50"><g class="cls-2"><path class="cls-47" d="M65.12,75.24l-1.81-1.06a3.1,3.1,0,0,1,.17-1l1.81,1.06a3.05,3.05,0,0,0-.17,1Z"/><path class="cls-49" d="M65.29,74.27l-1.81-1.06a3.85,3.85,0,0,1,1.56-2l1.82,1.06a3.83,3.83,0,0,0-1.57,2Z"/></g></g></g><path class="cls-19" d="M66.86,72.23c1-.56,1.74-.11,1.75,1v5.06a3.78,3.78,0,0,1-1.74,3c-1,.56-1.74.11-1.74-1l0-5.06A3.83,3.83,0,0,1,66.86,72.23Z"/></g><g class="cls-2"><g class="cls-2"><g class="cls-51"><g class="cls-2"><path class="cls-47" d="M74.93,77.49l-1.82-1a1.24,1.24,0,0,1-.51-1.12l1.82,1.05a1.22,1.22,0,0,0,.51,1.12Z"/></g></g></g><polygon class="cls-18" points="74.42 76.37 72.6 75.32 72.59 70.26 74.41 71.31 74.42 76.37"/><g class="cls-2"><g class="cls-52"><g class="cls-2"><path class="cls-49" d="M76.14,68.3l-1.81-1a1.29,1.29,0,0,1,.16-.09l1.82,1-.17.09Z"/><path class="cls-47" d="M76.31,68.21l-1.82-1a1.15,1.15,0,0,1,1.08,0l1.81,1.05a1.16,1.16,0,0,0-1.07,0Z"/></g></g></g><g class="cls-2"><g class="cls-53"><g class="cls-2"><path class="cls-47" d="M74.41,71.31l-1.82-1a3.1,3.1,0,0,1,.17-1l1.81,1a3.08,3.08,0,0,0-.16,1Z"/><path class="cls-49" d="M74.57,70.34l-1.81-1a3.87,3.87,0,0,1,1.57-2l1.81,1a3.87,3.87,0,0,0-1.57,2Z"/></g></g></g><path class="cls-19" d="M76.14,68.3c1-.55,1.75-.11,1.75,1l0,5.06a3.86,3.86,0,0,1-1.74,3c-1,.55-1.75.11-1.75-1V71.31A3.81,3.81,0,0,1,76.14,68.3Z"/></g><g class="cls-2"><polygon class="cls-30" points="69.82 89.87 69.57 89.72 69.57 89.48 69.82 89.62 69.82 89.87"/><polygon class="cls-31" points="69.82 89.62 69.57 89.48 70.89 88.71 71.14 88.86 69.82 89.62"/><polygon class="cls-32" points="71.14 88.86 71.14 89.11 69.82 89.87 69.82 89.62 71.14 88.86"/></g><g class="cls-2"><polygon class="cls-30" points="69.82 89.27 69.57 89.12 69.57 88.87 69.82 89.02 69.82 89.27"/><polygon class="cls-31" points="69.82 89.02 69.57 88.87 70.89 88.11 71.14 88.25 69.82 89.02"/><polygon class="cls-32" points="71.14 88.25 71.14 88.5 69.82 89.27 69.82 89.02 71.14 88.25"/></g><g class="cls-2"><polygon class="cls-30" points="69.82 88.66 69.57 88.51 69.57 88.27 69.82 88.41 69.82 88.66"/><polygon class="cls-31" points="69.82 88.41 69.57 88.27 70.89 87.5 71.14 87.65 69.82 88.41"/><polygon class="cls-32" points="71.14 87.65 71.14 87.9 69.82 88.66 69.82 88.41 71.14 87.65"/></g><g class="cls-2"><polygon class="cls-30" points="69.82 88.05 69.57 87.91 69.57 87.66 69.82 87.81 69.82 88.05"/><polygon class="cls-31" points="69.82 87.81 69.57 87.66 70.89 86.9 71.14 87.04 69.82 87.81"/><polygon class="cls-32" points="71.14 87.04 71.14 87.29 69.82 88.05 69.82 87.81 71.14 87.04"/></g><g class="cls-2"><polygon class="cls-30" points="71.42 86.58 71.17 86.44 71.16 84.92 71.41 85.06 71.42 86.58"/><polygon class="cls-31" points="71.41 85.06 71.16 84.92 71.38 84.79 71.63 84.94 71.41 85.06"/><polygon class="cls-32" points="71.63 84.94 71.63 86.46 71.42 86.58 71.41 85.06 71.63 84.94"/></g><g class="cls-2"><polygon class="cls-30" points="71.94 86.28 71.69 86.13 71.69 84.61 71.94 84.76 71.94 86.28"/><polygon class="cls-31" points="71.94 84.76 71.69 84.61 71.9 84.49 72.15 84.64 71.94 84.76"/><polygon class="cls-32" points="72.15 84.64 72.16 86.15 71.94 86.28 71.94 84.76 72.15 84.64"/></g><g class="cls-2"><polygon class="cls-30" points="72.47 85.97 72.22 85.83 72.21 84.31 72.47 84.45 72.47 85.97"/><polygon class="cls-31" points="72.47 84.45 72.21 84.31 72.43 84.19 72.68 84.33 72.47 84.45"/><polygon class="cls-32" points="72.68 84.33 72.68 85.85 72.47 85.97 72.47 84.45 72.68 84.33"/></g><g class="cls-2"><polygon class="cls-30" points="73 85.67 72.75 85.52 72.74 84 72.99 84.15 73 85.67"/><polygon class="cls-31" points="72.99 84.15 72.74 84 72.95 83.88 73.21 84.03 72.99 84.15"/><polygon class="cls-32" points="73.21 84.03 73.21 85.55 73 85.67 72.99 84.15 73.21 84.03"/></g><g class="cls-2"><polygon class="cls-30" points="73.52 85.37 73.27 85.22 73.27 83.7 73.52 83.85 73.52 85.37"/><polygon class="cls-31" points="73.52 83.85 73.27 83.7 73.48 83.58 73.73 83.72 73.52 83.85"/><polygon class="cls-32" points="73.73 83.72 73.74 85.24 73.52 85.37 73.52 83.85 73.73 83.72"/></g><g class="cls-2"><polygon class="cls-30" points="74.05 85.06 73.8 84.92 73.79 83.4 74.05 83.55 74.05 85.06"/><polygon class="cls-31" points="74.05 83.55 73.79 83.4 74.01 83.27 74.26 83.42 74.05 83.55"/><polygon class="cls-32" points="74.26 83.42 74.26 84.94 74.05 85.06 74.05 83.55 74.26 83.42"/></g><g class="cls-2"><polygon class="cls-30" points="74.57 84.76 74.32 84.61 74.32 83.09 74.57 83.24 74.57 84.76"/><polygon class="cls-31" points="74.57 83.24 74.32 83.09 74.53 82.97 74.79 83.12 74.57 83.24"/><polygon class="cls-32" points="74.79 83.12 74.79 84.64 74.57 84.76 74.57 83.24 74.79 83.12"/></g><g class="cls-2"><polygon class="cls-30" points="75.1 84.45 74.85 84.31 74.84 82.79 75.1 82.94 75.1 84.45"/><polygon class="cls-31" points="75.1 82.94 74.84 82.79 75.06 82.67 75.31 82.81 75.1 82.94"/><polygon class="cls-32" points="75.31 82.81 75.31 84.33 75.1 84.45 75.1 82.94 75.31 82.81"/></g><g class="cls-2"><polygon class="cls-30" points="75.63 84.15 75.37 84 75.37 82.48 75.62 82.63 75.63 84.15"/><polygon class="cls-31" points="75.62 82.63 75.37 82.48 75.58 82.36 75.84 82.51 75.62 82.63"/><polygon class="cls-32" points="75.84 82.51 75.84 84.03 75.63 84.15 75.62 82.63 75.84 82.51"/></g><g class="cls-2"><polygon class="cls-30" points="76.15 83.85 75.9 83.7 75.89 82.19 76.15 82.33 76.15 83.85"/><polygon class="cls-31" points="76.15 82.33 75.89 82.19 76.11 82.06 76.36 82.2 76.15 82.33"/><polygon class="cls-32" points="76.36 82.2 76.37 83.72 76.15 83.85 76.15 82.33 76.36 82.2"/></g><g class="cls-2"><polygon class="cls-30" points="76.68 83.55 76.43 83.4 76.42 81.88 76.67 82.03 76.68 83.55"/><polygon class="cls-31" points="76.67 82.03 76.42 81.88 76.64 81.75 76.89 81.9 76.67 82.03"/><polygon class="cls-32" points="76.89 81.9 76.89 83.42 76.68 83.55 76.67 82.03 76.89 81.9"/></g><g class="cls-2"><polygon class="cls-30" points="77.2 83.24 76.95 83.09 76.95 81.57 77.2 81.72 77.2 83.24"/><polygon class="cls-31" points="77.2 81.72 76.95 81.57 77.16 81.45 77.41 81.6 77.2 81.72"/><polygon class="cls-32" points="77.41 81.6 77.42 83.12 77.2 83.24 77.2 81.72 77.41 81.6"/></g><g class="cls-2"><polygon class="cls-30" points="77.73 82.94 77.48 82.79 77.47 81.27 77.73 81.42 77.73 82.94"/><polygon class="cls-31" points="77.73 81.42 77.47 81.27 77.69 81.15 77.94 81.29 77.73 81.42"/><polygon class="cls-32" points="77.94 81.29 77.94 82.81 77.73 82.94 77.73 81.42 77.94 81.29"/></g><g class="cls-2"><polygon class="cls-30" points="78.26 82.63 78 82.48 78 80.97 78.25 81.11 78.26 82.63"/><polygon class="cls-31" points="78.25 81.11 78 80.97 78.22 80.84 78.47 80.99 78.25 81.11"/><polygon class="cls-32" points="78.47 80.99 78.47 82.51 78.26 82.63 78.25 81.11 78.47 80.99"/></g><g class="cls-2"><polygon class="cls-30" points="78.78 82.33 78.53 82.18 78.53 80.66 78.78 80.81 78.78 82.33"/><polygon class="cls-31" points="78.78 80.81 78.53 80.66 78.74 80.54 78.99 80.69 78.78 80.81"/><polygon class="cls-32" points="78.99 80.69 79 82.2 78.78 82.33 78.78 80.81 78.99 80.69"/></g><g class="cls-2"><polygon class="cls-30" points="79.31 82.03 79.06 81.88 79.05 80.36 79.31 80.51 79.31 82.03"/><polygon class="cls-31" points="79.31 80.51 79.05 80.36 79.27 80.24 79.52 80.38 79.31 80.51"/><polygon class="cls-32" points="79.52 80.38 79.52 81.9 79.31 82.03 79.31 80.51 79.52 80.38"/></g><g class="cls-2"><polygon class="cls-30" points="79.83 81.72 79.58 81.57 79.58 80.06 79.83 80.2 79.83 81.72"/><polygon class="cls-31" points="79.83 80.2 79.58 80.06 79.79 79.93 80.05 80.08 79.83 80.2"/><polygon class="cls-32" points="80.05 80.08 80.05 81.6 79.83 81.72 79.83 80.2 80.05 80.08"/></g><g class="cls-2"><polygon class="cls-30" points="80.36 81.42 80.11 81.27 80.1 79.75 80.36 79.9 80.36 81.42"/><polygon class="cls-31" points="80.36 79.9 80.1 79.75 80.32 79.63 80.57 79.77 80.36 79.9"/><polygon class="cls-32" points="80.57 79.77 80.58 81.29 80.36 81.42 80.36 79.9 80.57 79.77"/></g><g class="cls-2"><polygon class="cls-30" points="80.89 81.11 80.63 80.97 80.63 79.45 80.88 79.6 80.89 81.11"/><polygon class="cls-31" points="80.88 79.6 80.63 79.45 80.85 79.32 81.1 79.47 80.88 79.6"/><polygon class="cls-32" points="81.1 79.47 81.1 80.99 80.89 81.11 80.88 79.6 81.1 79.47"/></g><g class="cls-2"><polygon class="cls-30" points="81.4 83.85 81.14 83.7 81.14 83.46 81.4 83.6 81.4 83.85"/><polygon class="cls-31" points="81.4 83.6 81.14 83.46 82.47 82.69 82.72 82.84 81.4 83.6"/><polygon class="cls-32" points="82.72 82.84 82.72 83.09 81.4 83.85 81.4 83.6 82.72 82.84"/></g><g class="cls-2"><polygon class="cls-30" points="81.4 83.24 81.14 83.1 81.14 82.85 81.39 83 81.4 83.24"/><polygon class="cls-31" points="81.39 83 81.14 82.85 82.47 82.09 82.72 82.23 81.39 83"/><polygon class="cls-32" points="82.72 82.23 82.72 82.48 81.4 83.24 81.39 83 82.72 82.23"/></g><g class="cls-2"><polygon class="cls-30" points="81.39 82.64 81.14 82.49 81.14 82.24 81.39 82.39 81.39 82.64"/><polygon class="cls-31" points="81.39 82.39 81.14 82.24 82.46 81.48 82.71 81.63 81.39 82.39"/><polygon class="cls-32" points="82.71 81.63 82.71 81.88 81.39 82.64 81.39 82.39 82.71 81.63"/></g><g class="cls-2"><polygon class="cls-30" points="81.39 82.03 81.14 81.89 81.14 81.64 81.39 81.78 81.39 82.03"/><polygon class="cls-31" points="81.39 81.78 81.14 81.64 82.46 80.87 82.71 81.02 81.39 81.78"/><polygon class="cls-32" points="82.71 81.02 82.71 81.27 81.39 82.03 81.39 81.78 82.71 81.02"/></g><g class="cls-2"><polygon class="cls-30" points="81.81 85.27 81.56 85.12 81.56 83.6 81.81 83.75 81.81 85.27"/><polygon class="cls-31" points="81.81 83.75 81.56 83.6 81.77 83.48 82.02 83.62 81.81 83.75"/><polygon class="cls-32" points="82.02 83.62 82.03 85.14 81.81 85.27 81.81 83.75 82.02 83.62"/></g><g class="cls-2"><polygon class="cls-30" points="81.29 85.57 81.03 85.42 81.03 83.91 81.28 84.05 81.29 85.57"/><polygon class="cls-31" points="81.28 84.05 81.03 83.91 81.25 83.78 81.5 83.93 81.28 84.05"/><polygon class="cls-32" points="81.5 83.93 81.5 85.45 81.29 85.57 81.28 84.05 81.5 83.93"/></g><g class="cls-2"><polygon class="cls-30" points="80.76 85.87 80.51 85.73 80.51 84.21 80.75 84.36 80.76 85.87"/><polygon class="cls-31" points="80.75 84.36 80.51 84.21 80.72 84.09 80.97 84.23 80.75 84.36"/><polygon class="cls-32" points="80.97 84.23 80.98 85.75 80.76 85.87 80.75 84.36 80.97 84.23"/></g><g class="cls-2"><polygon class="cls-30" points="80.23 86.18 79.98 86.03 79.98 84.52 80.23 84.66 80.23 86.18"/><polygon class="cls-31" points="80.23 84.66 79.98 84.52 80.19 84.39 80.45 84.54 80.23 84.66"/><polygon class="cls-32" points="80.45 84.54 80.45 86.05 80.23 86.18 80.23 84.66 80.45 84.54"/></g><g class="cls-2"><polygon class="cls-30" points="79.71 86.48 79.46 86.34 79.45 84.82 79.7 84.96 79.71 86.48"/><polygon class="cls-31" points="79.7 84.96 79.45 84.82 79.67 84.69 79.92 84.84 79.7 84.96"/><polygon class="cls-32" points="79.92 84.84 79.92 86.36 79.71 86.48 79.7 84.96 79.92 84.84"/></g><g class="cls-2"><polygon class="cls-30" points="79.18 86.79 78.93 86.64 78.93 85.12 79.18 85.27 79.18 86.79"/><polygon class="cls-31" points="79.18 85.27 78.93 85.12 79.14 85 79.39 85.14 79.18 85.27"/><polygon class="cls-32" points="79.39 85.14 79.4 86.66 79.18 86.79 79.18 85.27 79.39 85.14"/></g><g class="cls-2"><polygon class="cls-30" points="78.66 87.09 78.4 86.94 78.4 85.42 78.65 85.57 78.66 87.09"/><polygon class="cls-31" points="78.65 85.57 78.4 85.42 78.62 85.3 78.87 85.45 78.65 85.57"/><polygon class="cls-32" points="78.87 85.45 78.87 86.97 78.66 87.09 78.65 85.57 78.87 85.45"/></g><g class="cls-2"><polygon class="cls-30" points="78.13 87.39 77.88 87.25 77.87 85.73 78.13 85.88 78.13 87.39"/><polygon class="cls-31" points="78.13 85.88 77.87 85.73 78.09 85.6 78.34 85.75 78.13 85.88"/><polygon class="cls-32" points="78.34 85.75 78.35 87.27 78.13 87.39 78.13 85.88 78.34 85.75"/></g><g class="cls-2"><polygon class="cls-30" points="77.6 87.7 77.35 87.55 77.35 86.03 77.6 86.18 77.6 87.7"/><polygon class="cls-31" points="77.6 86.18 77.35 86.03 77.56 85.91 77.81 86.05 77.6 86.18"/><polygon class="cls-32" points="77.81 86.05 77.82 87.57 77.6 87.7 77.6 86.18 77.81 86.05"/></g><g class="cls-2"><polygon class="cls-30" points="77.08 88 76.83 87.85 76.82 86.34 77.08 86.48 77.08 88"/><polygon class="cls-31" points="77.08 86.48 76.82 86.34 77.04 86.21 77.29 86.36 77.08 86.48"/><polygon class="cls-32" points="77.29 86.36 77.29 87.88 77.08 88 77.08 86.48 77.29 86.36"/></g><g class="cls-2"><polygon class="cls-30" points="76.55 88.31 76.3 88.16 76.3 86.64 76.55 86.79 76.55 88.31"/><polygon class="cls-31" points="76.55 86.79 76.3 86.64 76.51 86.52 76.77 86.66 76.55 86.79"/><polygon class="cls-32" points="76.77 86.66 76.77 88.18 76.55 88.31 76.55 86.79 76.77 86.66"/></g><g class="cls-2"><polygon class="cls-30" points="76.02 88.61 75.77 88.46 75.77 86.94 76.02 87.09 76.02 88.61"/><polygon class="cls-31" points="76.02 87.09 75.77 86.94 75.98 86.82 76.24 86.97 76.02 87.09"/><polygon class="cls-32" points="76.24 86.97 76.24 88.48 76.02 88.61 76.02 87.09 76.24 86.97"/></g><g class="cls-2"><polygon class="cls-30" points="75.5 88.91 75.25 88.77 75.24 87.25 75.5 87.39 75.5 88.91"/><polygon class="cls-31" points="75.5 87.39 75.24 87.25 75.46 87.12 75.71 87.27 75.5 87.39"/><polygon class="cls-32" points="75.71 87.27 75.72 88.79 75.5 88.91 75.5 87.39 75.71 87.27"/></g><g class="cls-2"><polygon class="cls-30" points="74.97 89.22 74.72 89.07 74.72 87.55 74.97 87.7 74.97 89.22"/><polygon class="cls-31" points="74.97 87.7 74.72 87.55 74.93 87.43 75.19 87.57 74.97 87.7"/><polygon class="cls-32" points="75.19 87.57 75.19 89.09 74.97 89.22 74.97 87.7 75.19 87.57"/></g><g class="cls-2"><polygon class="cls-30" points="74.45 89.52 74.2 89.38 74.19 87.85 74.44 88 74.45 89.52"/><polygon class="cls-31" points="74.44 88 74.19 87.85 74.41 87.73 74.66 87.88 74.44 88"/><polygon class="cls-32" points="74.66 87.88 74.66 89.4 74.45 89.52 74.44 88 74.66 87.88"/></g><g class="cls-2"><polygon class="cls-30" points="73.92 89.82 73.67 89.68 73.66 88.16 73.92 88.31 73.92 89.82"/><polygon class="cls-31" points="73.92 88.31 73.66 88.16 73.88 88.03 74.14 88.18 73.92 88.31"/><polygon class="cls-32" points="74.14 88.18 74.14 89.7 73.92 89.82 73.92 88.31 74.14 88.18"/></g><g class="cls-2"><polygon class="cls-30" points="73.4 90.13 73.14 89.98 73.14 88.46 73.39 88.61 73.4 90.13"/><polygon class="cls-31" points="73.39 88.61 73.14 88.46 73.35 88.34 73.61 88.48 73.39 88.61"/><polygon class="cls-32" points="73.61 88.48 73.61 90 73.4 90.13 73.39 88.61 73.61 88.48"/></g><g class="cls-2"><polygon class="cls-30" points="72.87 90.43 72.62 90.28 72.61 88.77 72.87 88.91 72.87 90.43"/><polygon class="cls-31" points="72.87 88.91 72.61 88.77 72.83 88.64 73.08 88.79 72.87 88.91"/><polygon class="cls-32" points="73.08 88.79 73.08 90.31 72.87 90.43 72.87 88.91 73.08 88.79"/></g><g class="cls-2"><polygon class="cls-30" points="72.34 90.73 72.09 90.59 72.09 89.07 72.34 89.22 72.34 90.73"/><polygon class="cls-31" points="72.34 89.22 72.09 89.07 72.3 88.94 72.56 89.09 72.34 89.22"/><polygon class="cls-32" points="72.56 89.09 72.56 90.61 72.34 90.73 72.34 89.22 72.56 89.09"/></g><g class="cls-2"><polygon class="cls-18" points="71.87 90.15 70.68 89.45 70.67 86.25 71.86 86.94 71.87 90.15"/><polygon class="cls-17" points="71.86 86.94 70.67 86.25 80.74 80.49 81.93 81.18 71.86 86.94"/><polygon class="cls-19" points="81.93 81.18 81.94 84.39 71.87 90.15 71.86 86.94 81.93 81.18"/></g><g class="cls-2"><polygon class="cls-7" points="27.07 94.83 26.25 94.36 26.25 91.71 27.06 92.18 27.07 94.83"/><polygon class="cls-8" points="27.06 92.18 26.25 91.71 30.53 89.24 31.34 89.71 27.06 92.18"/><polygon class="cls-11" points="31.34 89.71 31.35 92.36 27.07 94.83 27.06 92.18 31.34 89.71"/></g><g class="cls-2"><polygon class="cls-7" points="27.05 90.04 26.24 89.57 26.23 86.92 27.05 87.39 27.05 90.04"/><polygon class="cls-8" points="27.05 87.39 26.23 86.92 30.52 84.45 31.33 84.92 27.05 87.39"/><polygon class="cls-11" points="31.33 84.92 31.34 87.57 27.05 90.04 27.05 87.39 31.33 84.92"/></g><g class="cls-2"><polygon class="cls-7" points="27.04 85.25 26.23 84.78 26.22 82.13 27.03 82.6 27.04 85.25"/><polygon class="cls-8" points="27.03 82.6 26.22 82.13 30.5 79.66 31.32 80.13 27.03 82.6"/><polygon class="cls-11" points="31.32 80.13 31.32 82.78 27.04 85.25 27.03 82.6 31.32 80.13"/></g><g class="cls-2"><polygon class="cls-7" points="27.03 80.46 26.21 79.99 26.21 77.34 27.02 77.81 27.03 80.46"/><polygon class="cls-8" points="27.02 77.81 26.21 77.34 30.49 74.87 31.3 75.34 27.02 77.81"/><polygon class="cls-11" points="31.3 75.34 31.31 77.99 27.03 80.46 27.02 77.81 31.3 75.34"/></g><g class="cls-2"><g class="cls-2"><g class="cls-54"><g class="cls-2"><path class="cls-55" d="M28.55,106.4l-1.27-.74a.52.52,0,0,1-.21-.47l1.27.73a.53.53,0,0,0,.21.48Z"/></g></g></g><g class="cls-2"><g class="cls-56"><g class="cls-2"><path class="cls-57" d="M34.46,95.33l-1.27-.74.06,0,1.28.74-.07,0Z"/><path class="cls-55" d="M34.53,95.29l-1.28-.74a.5.5,0,0,1,.46,0l1.27.74a.48.48,0,0,0-.45,0Z"/></g></g></g><polygon class="cls-7" points="28.34 105.92 27.07 105.19 27.05 98.98 28.32 99.72 28.34 105.92"/><polygon class="cls-8" points="29.06 98.45 27.78 97.71 33.19 94.59 34.45 95.33 29.06 98.45"/><g class="cls-2"><g class="cls-58"><g class="cls-2"><path class="cls-55" d="M28.32,99.72,27.05,99a1.22,1.22,0,0,1,.07-.41l1.27.74a1.53,1.53,0,0,0-.07.41Z"/><path class="cls-57" d="M28.39,99.31l-1.27-.74a1.65,1.65,0,0,1,.66-.86l1.28.74a1.61,1.61,0,0,0-.67.86Z"/></g></g></g><path class="cls-11" d="M34.46,95.33c.4-.24.73,0,.74.42V102a1.6,1.6,0,0,1-.73,1.27l-5.4,3.12c-.41.23-.74,0-.74-.43l0-6.2a1.6,1.6,0,0,1,.74-1.27Z"/></g></g></svg>