<?xml version="1.0" standalone="no"?><!DOCTYPE svg PUBLIC "-//W3C//DTD SVG 1.1//EN" "http://www.w3.org/Graphics/SVG/1.1/DTD/svg11.dtd"><svg t="1661328599223" class="icon" viewBox="0 0 1024 1024" version="1.1" xmlns="http://www.w3.org/2000/svg" p-id="1778" xmlns:xlink="http://www.w3.org/1999/xlink" width="200" height="200"><defs><style type="text/css">@font-face { font-family: feedback-iconfont; src: url("//at.alicdn.com/t/font_1031158_u69w8yhxdu.woff2?t=1630033759944") format("woff2"), url("//at.alicdn.com/t/font_1031158_u69w8yhxdu.woff?t=1630033759944") format("woff"), url("//at.alicdn.com/t/font_1031158_u69w8yhxdu.ttf?t=1630033759944") format("truetype"); }
</style></defs><path d="M512 524.8m-416 0a416 416 0 1 0 832 0 416 416 0 1 0-832 0Z" fill="#5B8FD9" p-id="1779"></path><path d="M512 435.2c-19.2 0-38.4 19.2-38.4 38.4V768c0 19.2 19.2 38.4 38.4 38.4s38.4-19.2 38.4-38.4V473.6c0-19.2-19.2-38.4-38.4-38.4z" fill="#FFFFFF" p-id="1780"></path><path d="M512 300.8m-51.2 0a51.2 51.2 0 1 0 102.4 0 51.2 51.2 0 1 0-102.4 0Z" fill="#FFFFFF" p-id="1781"></path></svg>