<svg xmlns="http://www.w3.org/2000/svg" xmlns:xlink="http://www.w3.org/1999/xlink" viewBox="0 0 190.99 132.63"><defs><style>.cls-1{isolation:isolate;}.cls-2{fill:#ccc;}.cls-2,.cls-8{mix-blend-mode:multiply;}.cls-3{fill:#ffe438;}.cls-4{fill:#ffb901;}.cls-5{fill:#ee9b0f;}.cls-6{fill:#388726;}.cls-7{fill:#29966d;}.cls-34,.cls-8{fill:#b3b3b3;}.cls-9{fill:#ebebeb;}.cls-10{fill:#104732;}.cls-11{fill:#fff;}.cls-12{fill:#17694a;}.cls-13{fill:#364557;}.cls-14{fill:#202b33;}.cls-15{fill:#161c24;}.cls-16{fill:url(#铃琨眄_沭噤桢眚_4);}.cls-17{fill:#344354;}.cls-18{fill:url(#铃琨眄_沭噤桢眚_32);}.cls-19{fill:#43566c;}.cls-20{fill:url(#铃琨眄_沭噤桢眚_4-2);}.cls-21{fill:url(#铃琨眄_沭噤桢眚_32-2);}.cls-22{fill:url(#铃琨眄_沭噤桢眚_4-3);}.cls-23{fill:url(#铃琨眄_沭噤桢眚_32-3);}.cls-24{fill:url(#铃琨眄_沭噤桢眚_4-4);}.cls-25{fill:url(#铃琨眄_沭噤桢眚_32-4);}.cls-26{fill:url(#铃琨眄_沭噤桢眚_4-5);}.cls-27{fill:url(#铃琨眄_沭噤桢眚_32-5);}.cls-28{fill:url(#铃琨眄_沭噤桢眚_4-6);}.cls-29{fill:url(#铃琨眄_沭噤桢眚_32-6);}.cls-30{fill:url(#铃琨眄_沭噤桢眚_4-7);}.cls-31{fill:url(#铃琨眄_沭噤桢眚_32-7);}.cls-32{fill:url(#铃琨眄_沭噤桢眚_4-8);}.cls-33{fill:url(#铃琨眄_沭噤桢眚_32-8);}.cls-35{fill:#bfbfbf;}.cls-36{fill:gray;}.cls-37{fill:#e6e6e6;}.cls-38{fill:#e7e7e7;}.cls-39{fill:#96afcc;}.cls-40{fill:#718399;}.cls-41{fill:#3f5166;}</style><linearGradient id="铃琨眄_沭噤桢眚_4" x1="233.21" y1="52.49" x2="237.78" y2="52.49" gradientTransform="translate(-205.36)" gradientUnits="userSpaceOnUse"><stop offset="0.13" stop-color="#13161a"/><stop offset="0.14" stop-color="#151a21"/><stop offset="0.47" stop-color="#151a21"/><stop offset="0.48" stop-color="#1e2830"/><stop offset="0.88" stop-color="#1e2830"/><stop offset="0.88" stop-color="#151a21"/></linearGradient><linearGradient id="铃琨眄_沭噤桢眚_32" x1="232.89" y1="50.69" x2="238.1" y2="50.69" gradientTransform="translate(-205.36)" gradientUnits="userSpaceOnUse"><stop offset="0.13" stop-color="#13161a"/><stop offset="0.14" stop-color="#232d39"/><stop offset="0.47" stop-color="#232d39"/><stop offset="0.48" stop-color="#2d3c48"/><stop offset="0.88" stop-color="#2d3c48"/><stop offset="0.88" stop-color="#232d39"/></linearGradient><linearGradient id="铃琨眄_沭噤桢眚_4-2" x1="269.91" y1="26.82" x2="273.57" y2="26.82" xlink:href="#铃琨眄_沭噤桢眚_4"/><linearGradient id="铃琨眄_沭噤桢眚_32-2" x1="269.66" y1="25.38" x2="273.82" y2="25.38" xlink:href="#铃琨眄_沭噤桢眚_32"/><linearGradient id="铃琨眄_沭噤桢眚_4-3" x1="291.36" y1="87.44" x2="295.02" y2="87.44" xlink:href="#铃琨眄_沭噤桢眚_4"/><linearGradient id="铃琨眄_沭噤桢眚_32-3" x1="291.11" y1="86" x2="295.27" y2="86" xlink:href="#铃琨眄_沭噤桢眚_32"/><linearGradient id="铃琨眄_沭噤桢眚_4-4" x1="297.48" y1="91.16" x2="301.14" y2="91.16" xlink:href="#铃琨眄_沭噤桢眚_4"/><linearGradient id="铃琨眄_沭噤桢眚_32-4" x1="297.23" y1="89.72" x2="301.39" y2="89.72" xlink:href="#铃琨眄_沭噤桢眚_32"/><linearGradient id="铃琨眄_沭噤桢眚_4-5" x1="303.53" y1="88.26" x2="307.18" y2="88.26" xlink:href="#铃琨眄_沭噤桢眚_4"/><linearGradient id="铃琨眄_沭噤桢眚_32-5" x1="303.27" y1="86.82" x2="307.43" y2="86.82" xlink:href="#铃琨眄_沭噤桢眚_32"/><linearGradient id="铃琨眄_沭噤桢眚_4-6" x1="303.94" y1="47.28" x2="307.59" y2="47.28" xlink:href="#铃琨眄_沭噤桢眚_4"/><linearGradient id="铃琨眄_沭噤桢眚_32-6" x1="303.69" y1="45.84" x2="307.85" y2="45.84" xlink:href="#铃琨眄_沭噤桢眚_32"/><linearGradient id="铃琨眄_沭噤桢眚_4-7" x1="332.91" y1="68.25" x2="336.56" y2="68.25" xlink:href="#铃琨眄_沭噤桢眚_4"/><linearGradient id="铃琨眄_沭噤桢眚_32-7" x1="332.65" y1="66.81" x2="336.81" y2="66.81" xlink:href="#铃琨眄_沭噤桢眚_32"/><linearGradient id="铃琨眄_沭噤桢眚_4-8" x1="337.93" y1="64.99" x2="341.59" y2="64.99" xlink:href="#铃琨眄_沭噤桢眚_4"/><linearGradient id="铃琨眄_沭噤桢眚_32-8" x1="337.68" y1="63.56" x2="341.84" y2="63.56" xlink:href="#铃琨眄_沭噤桢眚_32"/></defs><g class="cls-1"><g id="OBC"><polygon class="cls-2" points="110.36 122.59 105.61 111.19 11.73 56.11 53.46 31.61 116.17 99.31 110.36 122.59"/><polygon class="cls-3" points="68.46 25.67 67.97 25.37 72.77 22.59 73.26 22.89 68.46 25.67"/><polygon class="cls-4" points="73.26 22.89 73.26 23.21 68.46 26 68.46 25.67 73.26 22.89"/><polygon class="cls-5" points="67.97 25.37 67.97 25.7 68.46 26 68.46 25.67 67.97 25.37"/><polygon class="cls-3" points="69.38 26.2 68.89 25.9 73.68 23.11 74.18 23.41 69.38 26.2"/><polygon class="cls-4" points="74.18 23.41 74.18 23.74 69.38 26.52 69.38 26.2 74.18 23.41"/><polygon class="cls-5" points="68.89 25.9 68.89 26.22 69.38 26.52 69.38 26.2 68.89 25.9"/><polygon class="cls-3" points="70.3 26.73 69.8 26.43 74.6 23.64 75.1 23.94 70.3 26.73"/><polygon class="cls-4" points="75.1 23.94 75.1 24.26 70.3 27.05 70.3 26.73 75.1 23.94"/><polygon class="cls-5" points="69.8 26.43 69.8 26.75 70.3 27.05 70.3 26.73 69.8 26.43"/><polygon class="cls-3" points="71.22 27.25 70.72 26.95 75.52 24.16 76.02 24.47 71.22 27.25"/><polygon class="cls-4" points="76.02 24.47 76.02 24.79 71.22 27.57 71.22 27.25 76.02 24.47"/><polygon class="cls-5" points="70.72 26.95 70.72 27.27 71.22 27.57 71.22 27.25 70.72 26.95"/><polygon class="cls-3" points="72.14 27.78 71.64 27.48 76.44 24.69 76.93 24.99 72.14 27.78"/><polygon class="cls-4" points="76.93 24.99 76.93 25.31 72.14 28.1 72.14 27.78 76.93 24.99"/><polygon class="cls-5" points="71.64 27.48 71.64 27.8 72.14 28.1 72.14 27.78 71.64 27.48"/><polygon class="cls-3" points="73.05 28.3 72.56 28 77.36 25.22 77.85 25.52 73.05 28.3"/><polygon class="cls-4" points="77.85 25.52 77.85 25.84 73.05 28.63 73.05 28.3 77.85 25.52"/><polygon class="cls-5" points="72.56 28 72.56 28.33 73.05 28.63 73.05 28.3 72.56 28"/><polygon class="cls-3" points="73.97 28.83 73.47 28.53 78.27 25.74 78.77 26.04 73.97 28.83"/><polygon class="cls-4" points="78.77 26.04 78.77 26.37 73.97 29.15 73.97 28.83 78.77 26.04"/><polygon class="cls-5" points="73.47 28.53 73.47 28.85 73.97 29.15 73.97 28.83 73.47 28.53"/><polygon class="cls-3" points="74.89 29.35 74.39 29.05 79.19 26.27 79.69 26.57 74.89 29.35"/><polygon class="cls-4" points="79.69 26.57 79.69 26.89 74.89 29.68 74.89 29.35 79.69 26.57"/><polygon class="cls-5" points="74.39 29.05 74.39 29.38 74.89 29.68 74.89 29.35 74.39 29.05"/><polygon class="cls-3" points="75.81 29.88 75.31 29.58 80.11 26.79 80.61 27.09 75.81 29.88"/><polygon class="cls-4" points="80.61 27.09 80.61 27.42 75.81 30.2 75.81 29.88 80.61 27.09"/><polygon class="cls-5" points="75.31 29.58 75.31 29.9 75.81 30.2 75.81 29.88 75.31 29.58"/><polygon class="cls-3" points="76.72 30.4 76.23 30.11 81.03 27.32 81.52 27.62 76.72 30.4"/><polygon class="cls-4" points="81.52 27.62 81.52 27.94 76.72 30.73 76.72 30.4 81.52 27.62"/><polygon class="cls-5" points="76.23 30.11 76.23 30.43 76.72 30.73 76.72 30.4 76.23 30.11"/><polygon class="cls-3" points="77.64 30.93 77.15 30.63 81.95 27.84 82.44 28.14 77.64 30.93"/><polygon class="cls-4" points="82.44 28.14 82.44 28.47 77.64 31.25 77.64 30.93 82.44 28.14"/><polygon class="cls-5" points="77.15 30.63 77.15 30.95 77.64 31.25 77.64 30.93 77.15 30.63"/><polygon class="cls-3" points="78.56 31.46 78.06 31.16 82.86 28.37 83.36 28.67 78.56 31.46"/><polygon class="cls-4" points="83.36 28.67 83.36 28.99 78.56 31.78 78.56 31.46 83.36 28.67"/><polygon class="cls-5" points="78.06 31.16 78.06 31.48 78.56 31.78 78.56 31.46 78.06 31.16"/><polygon class="cls-3" points="79.48 31.98 78.98 31.68 83.78 28.9 84.28 29.2 79.48 31.98"/><polygon class="cls-4" points="84.28 29.2 84.28 29.52 79.48 32.31 79.48 31.98 84.28 29.2"/><polygon class="cls-5" points="78.98 31.68 78.98 32.01 79.48 32.31 79.48 31.98 78.98 31.68"/><polygon class="cls-3" points="80.4 32.51 79.9 32.21 84.7 29.42 85.19 29.72 80.4 32.51"/><polygon class="cls-4" points="85.19 29.72 85.19 30.05 80.4 32.83 80.4 32.51 85.19 29.72"/><polygon class="cls-5" points="79.9 32.21 79.9 32.53 80.4 32.83 80.4 32.51 79.9 32.21"/><polygon class="cls-3" points="81.31 33.03 80.82 32.73 85.61 29.95 86.11 30.25 81.31 33.03"/><polygon class="cls-4" points="86.11 30.25 86.11 30.57 81.31 33.36 81.31 33.03 86.11 30.25"/><polygon class="cls-5" points="80.82 32.73 80.82 33.06 81.31 33.36 81.31 33.03 80.82 32.73"/><polygon class="cls-3" points="82.23 33.56 81.74 33.26 86.53 30.47 87.03 30.77 82.23 33.56"/><polygon class="cls-4" points="87.03 30.77 87.03 31.09 82.23 33.88 82.23 33.56 87.03 30.77"/><polygon class="cls-5" points="81.74 33.26 81.74 33.58 82.23 33.88 82.23 33.56 81.74 33.26"/><polygon class="cls-3" points="83.15 34.09 82.65 33.79 87.45 31 87.95 31.3 83.15 34.09"/><polygon class="cls-4" points="87.95 31.3 87.95 31.62 83.15 34.41 83.15 34.09 87.95 31.3"/><polygon class="cls-5" points="82.65 33.79 82.65 34.11 83.15 34.41 83.15 34.09 82.65 33.79"/><polygon class="cls-3" points="112.4 51.09 111.9 50.8 116.7 48.01 117.2 48.31 112.4 51.09"/><polygon class="cls-4" points="117.2 48.31 117.2 48.63 112.4 51.42 112.4 51.09 117.2 48.31"/><polygon class="cls-5" points="111.9 50.8 111.9 51.12 112.4 51.42 112.4 51.09 111.9 50.8"/><polygon class="cls-3" points="113.32 51.62 112.82 51.32 117.62 48.54 118.11 48.84 113.32 51.62"/><polygon class="cls-4" points="118.11 48.84 118.11 49.16 113.32 51.95 113.32 51.62 118.11 48.84"/><polygon class="cls-5" points="112.82 51.32 112.82 51.65 113.32 51.95 113.32 51.62 112.82 51.32"/><polygon class="cls-3" points="114.23 52.15 113.74 51.85 118.54 49.06 119.03 49.36 114.23 52.15"/><polygon class="cls-4" points="119.03 49.36 119.03 49.69 114.23 52.47 114.23 52.15 119.03 49.36"/><polygon class="cls-5" points="113.74 51.85 113.74 52.17 114.23 52.47 114.23 52.15 113.74 51.85"/><polygon class="cls-3" points="115.15 52.67 114.66 52.37 119.45 49.59 119.95 49.89 115.15 52.67"/><polygon class="cls-4" points="119.95 49.89 119.95 50.21 115.15 52.99 115.15 52.67 119.95 49.89"/><polygon class="cls-5" points="114.66 52.37 114.66 52.7 115.15 52.99 115.15 52.67 114.66 52.37"/><polygon class="cls-3" points="116.07 53.2 115.58 52.9 120.37 50.11 120.87 50.41 116.07 53.2"/><polygon class="cls-4" points="120.87 50.41 120.87 50.74 116.07 53.52 116.07 53.2 120.87 50.41"/><polygon class="cls-5" points="115.58 52.9 115.58 53.22 116.07 53.52 116.07 53.2 115.58 52.9"/><polygon class="cls-3" points="116.99 53.72 116.49 53.42 121.29 50.64 121.79 50.94 116.99 53.72"/><polygon class="cls-4" points="121.79 50.94 121.79 51.26 116.99 54.05 116.99 53.72 121.79 50.94"/><polygon class="cls-5" points="116.49 53.42 116.49 53.75 116.99 54.05 116.99 53.72 116.49 53.42"/><polygon class="cls-3" points="117.91 54.25 117.41 53.95 122.21 51.16 122.7 51.46 117.91 54.25"/><polygon class="cls-4" points="122.7 51.46 122.7 51.79 117.91 54.57 117.91 54.25 122.7 51.46"/><polygon class="cls-5" points="117.41 53.95 117.41 54.27 117.91 54.57 117.91 54.25 117.41 53.95"/><polygon class="cls-3" points="118.83 54.77 118.33 54.48 123.13 51.69 123.62 51.99 118.83 54.77"/><polygon class="cls-4" points="123.62 51.99 123.62 52.31 118.83 55.1 118.83 54.77 123.62 51.99"/><polygon class="cls-5" points="118.33 54.48 118.33 54.8 118.83 55.1 118.83 54.77 118.33 54.48"/><polygon class="cls-3" points="119.74 55.3 119.25 55 124.05 52.22 124.54 52.51 119.74 55.3"/><polygon class="cls-4" points="124.54 52.51 124.54 52.84 119.74 55.62 119.74 55.3 124.54 52.51"/><polygon class="cls-5" points="119.25 55 119.25 55.32 119.74 55.62 119.74 55.3 119.25 55"/><polygon class="cls-3" points="120.66 55.83 120.17 55.53 124.96 52.74 125.46 53.04 120.66 55.83"/><polygon class="cls-4" points="125.46 53.04 125.46 53.36 120.66 56.15 120.66 55.83 125.46 53.04"/><polygon class="cls-5" points="120.17 55.53 120.17 55.85 120.66 56.15 120.66 55.83 120.17 55.53"/><polygon class="cls-3" points="121.58 56.35 121.08 56.05 125.88 53.27 126.38 53.57 121.58 56.35"/><polygon class="cls-4" points="126.38 53.57 126.38 53.89 121.58 56.67 121.58 56.35 126.38 53.57"/><polygon class="cls-5" points="121.08 56.05 121.08 56.38 121.58 56.67 121.58 56.35 121.08 56.05"/><polygon class="cls-3" points="122.5 56.88 122 56.58 126.8 53.79 127.29 54.09 122.5 56.88"/><polygon class="cls-4" points="127.29 54.09 127.29 54.41 122.5 57.2 122.5 56.88 127.29 54.09"/><polygon class="cls-5" points="122 56.58 122 56.9 122.5 57.2 122.5 56.88 122 56.58"/><polygon class="cls-3" points="123.41 57.4 122.92 57.1 127.72 54.32 128.21 54.62 123.41 57.4"/><polygon class="cls-4" points="128.21 54.62 128.21 54.94 123.41 57.73 123.41 57.4 128.21 54.62"/><polygon class="cls-5" points="122.92 57.1 122.92 57.43 123.41 57.73 123.41 57.4 122.92 57.1"/><polygon class="cls-3" points="124.33 57.93 123.83 57.63 128.63 54.84 129.13 55.14 124.33 57.93"/><polygon class="cls-4" points="129.13 55.14 129.13 55.47 124.33 58.25 124.33 57.93 129.13 55.14"/><polygon class="cls-5" points="123.83 57.63 123.83 57.95 124.33 58.25 124.33 57.93 123.83 57.63"/><polygon class="cls-3" points="125.25 58.45 124.75 58.16 129.55 55.37 130.05 55.67 125.25 58.45"/><polygon class="cls-4" points="130.05 55.67 130.05 55.99 125.25 58.78 125.25 58.45 130.05 55.67"/><polygon class="cls-5" points="124.75 58.16 124.75 58.48 125.25 58.78 125.25 58.45 124.75 58.16"/><polygon class="cls-3" points="126.17 58.98 125.67 58.68 130.47 55.9 130.97 56.19 126.17 58.98"/><polygon class="cls-4" points="130.97 56.19 130.97 56.52 126.17 59.3 126.17 58.98 130.97 56.19"/><polygon class="cls-5" points="125.67 58.68 125.67 59.01 126.17 59.3 126.17 58.98 125.67 58.68"/><polygon class="cls-3" points="127.08 59.51 126.59 59.21 131.39 56.42 131.88 56.72 127.08 59.51"/><polygon class="cls-4" points="131.88 56.72 131.88 57.05 127.08 59.83 127.08 59.51 131.88 56.72"/><polygon class="cls-5" points="126.59 59.21 126.59 59.53 127.08 59.83 127.08 59.51 126.59 59.21"/><polygon class="cls-3" points="84.98 35.18 84.49 34.88 89.29 32.1 89.78 32.4 84.98 35.18"/><polygon class="cls-4" points="89.78 32.4 89.78 32.72 84.98 35.5 84.98 35.18 89.78 32.4"/><polygon class="cls-5" points="84.49 34.88 84.49 35.2 84.98 35.5 84.98 35.18 84.49 34.88"/><polygon class="cls-3" points="86.06 35.8 85.56 35.5 90.36 32.71 90.85 33.01 86.06 35.8"/><polygon class="cls-4" points="90.85 33.01 90.85 33.34 86.06 36.12 86.06 35.8 90.85 33.01"/><polygon class="cls-5" points="85.56 35.5 85.56 35.82 86.06 36.12 86.06 35.8 85.56 35.5"/><polygon class="cls-3" points="87.13 36.42 86.63 36.12 91.43 33.33 91.92 33.63 87.13 36.42"/><polygon class="cls-4" points="91.92 33.63 91.92 33.95 87.13 36.74 87.13 36.42 91.92 33.63"/><polygon class="cls-5" points="86.63 36.12 86.63 36.44 87.13 36.74 87.13 36.42 86.63 36.12"/><polygon class="cls-3" points="88.2 37.04 87.7 36.74 92.5 33.95 93 34.25 88.2 37.04"/><polygon class="cls-4" points="93 34.25 93 34.57 88.2 37.36 88.2 37.04 93 34.25"/><polygon class="cls-5" points="87.7 36.74 87.7 37.06 88.2 37.36 88.2 37.04 87.7 36.74"/><polygon class="cls-3" points="89.27 37.65 88.77 37.35 93.57 34.57 94.07 34.87 89.27 37.65"/><polygon class="cls-4" points="94.07 34.87 94.07 35.19 89.27 37.98 89.27 37.65 94.07 34.87"/><polygon class="cls-5" points="88.77 37.35 88.77 37.68 89.27 37.98 89.27 37.65 88.77 37.35"/><polygon class="cls-3" points="90.34 38.27 89.84 37.97 94.64 35.19 95.14 35.49 90.34 38.27"/><polygon class="cls-4" points="95.14 35.49 95.14 35.81 90.34 38.59 90.34 38.27 95.14 35.49"/><polygon class="cls-5" points="89.84 37.97 89.84 38.3 90.34 38.59 90.34 38.27 89.84 37.97"/><polygon class="cls-3" points="91.41 38.89 90.92 38.59 95.71 35.8 96.21 36.1 91.41 38.89"/><polygon class="cls-4" points="96.21 36.1 96.21 36.43 91.41 39.21 91.41 38.89 96.21 36.1"/><polygon class="cls-5" points="90.92 38.59 90.92 38.91 91.41 39.21 91.41 38.89 90.92 38.59"/><polygon class="cls-3" points="92.48 39.51 91.99 39.21 96.78 36.42 97.28 36.72 92.48 39.51"/><polygon class="cls-4" points="97.28 36.72 97.28 37.05 92.48 39.83 92.48 39.51 97.28 36.72"/><polygon class="cls-5" points="91.99 39.21 91.99 39.53 92.48 39.83 92.48 39.51 91.99 39.21"/><polygon class="cls-3" points="93.55 40.13 93.06 39.83 97.86 37.04 98.35 37.34 93.55 40.13"/><polygon class="cls-4" points="98.35 37.34 98.35 37.66 93.55 40.45 93.55 40.13 98.35 37.34"/><polygon class="cls-5" points="93.06 39.83 93.06 40.15 93.55 40.45 93.55 40.13 93.06 39.83"/><polygon class="cls-3" points="94.63 40.75 94.13 40.45 98.93 37.66 99.42 37.96 94.63 40.75"/><polygon class="cls-4" points="99.42 37.96 99.42 38.28 94.63 41.07 94.63 40.75 99.42 37.96"/><polygon class="cls-5" points="94.13 40.45 94.13 40.77 94.63 41.07 94.63 40.75 94.13 40.45"/><polygon class="cls-3" points="95.7 41.36 95.2 41.06 100 38.28 100.5 38.58 95.7 41.36"/><polygon class="cls-4" points="100.5 38.58 100.5 38.9 95.7 41.69 95.7 41.36 100.5 38.58"/><polygon class="cls-5" points="95.2 41.06 95.2 41.39 95.7 41.69 95.7 41.36 95.2 41.06"/><polygon class="cls-3" points="96.77 41.98 96.27 41.68 101.07 38.9 101.57 39.2 96.77 41.98"/><polygon class="cls-4" points="101.57 39.2 101.57 39.52 96.77 42.31 96.77 41.98 101.57 39.2"/><polygon class="cls-5" points="96.27 41.68 96.27 42.01 96.77 42.31 96.77 41.98 96.27 41.68"/><polygon class="cls-3" points="97.84 42.6 97.34 42.3 102.14 39.52 102.64 39.81 97.84 42.6"/><polygon class="cls-4" points="102.64 39.81 102.64 40.14 97.84 42.92 97.84 42.6 102.64 39.81"/><polygon class="cls-5" points="97.34 42.3 97.34 42.63 97.84 42.92 97.84 42.6 97.34 42.3"/><polygon class="cls-3" points="98.91 43.22 98.42 42.92 103.21 40.13 103.71 40.43 98.91 43.22"/><polygon class="cls-4" points="103.71 40.43 103.71 40.76 98.91 43.54 98.91 43.22 103.71 40.43"/><polygon class="cls-5" points="98.42 42.92 98.42 43.24 98.91 43.54 98.91 43.22 98.42 42.92"/><polygon class="cls-3" points="99.98 43.84 99.49 43.54 104.28 40.75 104.78 41.05 99.98 43.84"/><polygon class="cls-4" points="104.78 41.05 104.78 41.38 99.98 44.16 99.98 43.84 104.78 41.05"/><polygon class="cls-5" points="99.49 43.54 99.49 43.86 99.98 44.16 99.98 43.84 99.49 43.54"/><polygon class="cls-3" points="101.05 44.46 100.56 44.16 105.36 41.37 105.85 41.67 101.05 44.46"/><polygon class="cls-4" points="105.85 41.67 105.85 41.99 101.05 44.78 101.05 44.46 105.85 41.67"/><polygon class="cls-5" points="100.56 44.16 100.56 44.48 101.05 44.78 101.05 44.46 100.56 44.16"/><polygon class="cls-3" points="102.13 45.08 101.63 44.77 106.43 41.99 106.92 42.29 102.13 45.08"/><polygon class="cls-4" points="106.92 42.29 106.92 42.61 102.13 45.4 102.13 45.08 106.92 42.29"/><polygon class="cls-5" points="101.63 44.77 101.63 45.1 102.13 45.4 102.13 45.08 101.63 44.77"/><polygon class="cls-3" points="103.2 45.69 102.7 45.39 107.5 42.61 107.99 42.91 103.2 45.69"/><polygon class="cls-4" points="107.99 42.91 107.99 43.23 103.2 46.02 103.2 45.69 107.99 42.91"/><polygon class="cls-5" points="102.7 45.39 102.7 45.72 103.2 46.02 103.2 45.69 102.7 45.39"/><polygon class="cls-3" points="104.27 46.31 103.77 46.01 108.57 43.23 109.06 43.53 104.27 46.31"/><polygon class="cls-4" points="109.06 43.53 109.06 43.85 104.27 46.63 104.27 46.31 109.06 43.53"/><polygon class="cls-5" points="103.77 46.01 103.77 46.34 104.27 46.63 104.27 46.31 103.77 46.01"/><polygon class="cls-3" points="105.34 46.93 104.84 46.63 109.64 43.84 110.14 44.14 105.34 46.93"/><polygon class="cls-4" points="110.14 44.14 110.14 44.47 105.34 47.25 105.34 46.93 110.14 44.14"/><polygon class="cls-5" points="104.84 46.63 104.84 46.95 105.34 47.25 105.34 46.93 104.84 46.63"/><polygon class="cls-3" points="106.41 47.55 105.91 47.25 110.71 44.46 111.21 44.76 106.41 47.55"/><polygon class="cls-4" points="111.21 44.76 111.21 45.09 106.41 47.87 106.41 47.55 111.21 44.76"/><polygon class="cls-5" points="105.91 47.25 105.91 47.57 106.41 47.87 106.41 47.55 105.91 47.25"/><polygon class="cls-3" points="107.48 48.17 106.99 47.87 111.78 45.08 112.28 45.38 107.48 48.17"/><polygon class="cls-4" points="112.28 45.38 112.28 45.7 107.48 48.49 107.48 48.17 112.28 45.38"/><polygon class="cls-5" points="106.99 47.87 106.99 48.19 107.48 48.49 107.48 48.17 106.99 47.87"/><polygon class="cls-3" points="108.55 48.78 108.06 48.48 112.86 45.7 113.35 46 108.55 48.78"/><polygon class="cls-4" points="113.35 46 113.35 46.32 108.55 49.11 108.55 48.78 113.35 46"/><polygon class="cls-5" points="108.06 48.48 108.06 48.81 108.55 49.11 108.55 48.78 108.06 48.48"/><polygon class="cls-3" points="109.62 49.4 109.13 49.1 113.92 46.32 114.42 46.62 109.62 49.4"/><polygon class="cls-4" points="114.42 46.62 114.42 46.94 109.62 49.73 109.62 49.4 114.42 46.62"/><polygon class="cls-5" points="109.13 49.1 109.13 49.43 109.62 49.73 109.62 49.4 109.13 49.1"/><polygon class="cls-3" points="110.69 50.02 110.2 49.72 115 46.94 115.49 47.23 110.69 50.02"/><polygon class="cls-4" points="115.49 47.23 115.49 47.56 110.69 50.34 110.69 50.02 115.49 47.23"/><polygon class="cls-5" points="110.2 49.72 110.2 50.05 110.69 50.34 110.69 50.02 110.2 49.72"/><polygon class="cls-6" points="122.96 115.88 17.77 55.15 66.11 27.17 171.3 87.91 122.96 115.88"/><polygon class="cls-7" points="122.96 113 17.77 52.27 66.11 24.29 171.3 85.03 122.96 113"/><path class="cls-8" d="M96.57,87a4.08,4.08,0,0,1,.71-.06h0a3.57,3.57,0,0,1,1.77.49l3,1.55-2.83,2-3.7-1.92h0a1.28,1.28,0,0,1-.47-.49.78.78,0,0,1-.07-.33C95,87.67,95.66,87.19,96.57,87Z"/><path class="cls-8" d="M27.36,52.38a4,4,0,0,1,.7-.06h0a3.57,3.57,0,0,1,1.77.49L31.94,54l-3.19,1.82-2.42-1.38h0a1.32,1.32,0,0,1-.47-.51.72.72,0,0,1-.08-.32C25.79,53,26.45,52.56,27.36,52.38Z"/><polygon class="cls-8" points="86.46 80.33 70.25 71.09 89.21 60.13 105.42 69.36 92.3 80.88 86.46 80.33"/><polygon class="cls-8" points="47.54 68.01 42.8 65.22 50.57 60.72 55.32 63.51 49.94 68.23 47.54 68.01"/><path class="cls-9" d="M44.07,63a.37.37,0,0,1,0,.17.84.84,0,0,1-.48.38,2,2,0,0,1-.64.1,2,2,0,0,1-.36,0l-.28-.07a.87.87,0,0,1-.48-.38.35.35,0,0,1,0-.17c0-.29.33-.54.8-.63a2,2,0,0,1,.36,0C43.54,62.31,44.07,62.6,44.07,63Z"/><path class="cls-9" d="M46.77,61.65a.33.33,0,0,1,0,.17.83.83,0,0,1-.48.38,1.87,1.87,0,0,1-.64.11,2,2,0,0,1-.36,0L45,62.2a.86.86,0,0,1-.49-.38.47.47,0,0,1,0-.17c0-.29.34-.54.81-.62a1.37,1.37,0,0,1,.36,0C46.25,61,46.77,61.29,46.77,61.65Z"/><path class="cls-9" d="M49.4,60.06a.35.35,0,0,1,0,.17.82.82,0,0,1-.49.38,1.77,1.77,0,0,1-.63.11,2.22,2.22,0,0,1-.37,0l-.27-.08a.82.82,0,0,1-.49-.38.53.53,0,0,1,0-.17c0-.29.34-.54.8-.63a2.22,2.22,0,0,1,.37,0C48.88,59.4,49.4,59.7,49.4,60.06Z"/><path class="cls-9" d="M83.23,47.71a.35.35,0,0,1,0,.17.8.8,0,0,1-.48.38,1.83,1.83,0,0,1-.64.11,2,2,0,0,1-.36,0l-.28-.08a.8.8,0,0,1-.48-.38.37.37,0,0,1,0-.17c0-.29.34-.54.81-.63a2,2,0,0,1,.36,0C82.71,47.05,83.23,47.35,83.23,47.71Z"/><path class="cls-9" d="M85.94,46.39a.33.33,0,0,1,0,.17.8.8,0,0,1-.48.38,1.87,1.87,0,0,1-.64.11,2.22,2.22,0,0,1-.37,0,1.2,1.2,0,0,1-.27-.08.82.82,0,0,1-.49-.38.42.42,0,0,1,0-.16c0-.3.34-.54.8-.63a2.22,2.22,0,0,1,.37,0C85.42,45.74,85.94,46,85.94,46.39Z"/><path class="cls-9" d="M88.57,44.8a.33.33,0,0,1,0,.17.86.86,0,0,1-.49.38,1.79,1.79,0,0,1-.64.11,2.1,2.1,0,0,1-.36,0l-.27-.08a.82.82,0,0,1-.49-.38.33.33,0,0,1,0-.17c0-.29.34-.53.8-.62a2.1,2.1,0,0,1,.36,0C88.05,44.15,88.57,44.44,88.57,44.8Z"/><polygon class="cls-10" points="102.33 98.63 60.72 74.75 61.99 59.96 50.75 53.57 37.16 61.56 27.01 56.11 41.77 47.59 34.42 43.28 65.91 24.4 98.06 44.31 73.92 57.62 71.31 55.76 92.65 44.17 65.89 27.59 39.77 43.26 47.2 47.61 32.3 56.21 37.03 58.47 50.73 50.42 64.86 58.45 63.59 73.25 102.32 95.48 113.66 88.92 116.17 90.64 102.33 98.63"/><polygon class="cls-7" points="61.68 74.25 62.95 59.46 50.74 52.52 37.14 60.52 28.88 56.08 43.58 47.6 36.2 43.27 65.9 25.46 96.26 44.26 73.98 56.54 73.03 55.86 94.47 44.22 65.89 26.53 37.99 43.27 45.39 47.61 30.35 56.29 37.07 59.5 50.74 51.47 63.91 58.96 62.63 73.75 102.32 96.53 113.61 89.99 114.47 90.57 102.32 97.58 61.68 74.25"/><path class="cls-11" d="M134.16,76.79l5.36-3.09c.59-.34.51-.93-.16-1.32h0a2.58,2.58,0,0,0-2.29-.1l-5.35,3.1c-.59.34-.52.93.16,1.32h0A2.52,2.52,0,0,0,134.16,76.79Z"/><path class="cls-11" d="M137.5,78.73l5.36-3.09c.58-.34.51-.93-.17-1.32h0a2.56,2.56,0,0,0-2.28-.1l-5.36,3.1c-.58.34-.51.93.17,1.32h0A2.52,2.52,0,0,0,137.5,78.73Z"/><path class="cls-11" d="M140.83,80.67l5.36-3.09c.59-.34.52-.93-.16-1.32h0a2.56,2.56,0,0,0-2.28-.1l-5.36,3.1c-.59.34-.51.93.16,1.32h0A2.52,2.52,0,0,0,140.83,80.67Z"/><polygon class="cls-9" points="74.25 76.71 70.25 74.4 74.04 72.17 78.04 74.47 74.25 76.71"/><polygon class="cls-9" points="80.92 80.55 76.92 78.24 80.7 76.01 84.71 78.31 80.92 80.55"/><polygon class="cls-9" points="87.58 84.39 83.58 82.09 87.37 79.85 91.37 82.15 87.58 84.39"/><polygon class="cls-9" points="98.54 85.03 94.53 82.73 98.32 80.49 102.32 82.79 98.54 85.03"/><polygon class="cls-9" points="105.52 81.06 101.52 78.75 105.31 76.52 109.31 78.82 105.52 81.06"/><polygon class="cls-9" points="112.51 77.08 108.51 74.78 112.29 72.54 116.3 74.85 112.51 77.08"/><polygon class="cls-9" points="119.5 73.11 115.49 70.81 119.28 68.57 123.28 70.88 119.5 73.11"/><polygon class="cls-9" points="107.35 56.7 103.34 54.4 107.13 52.16 111.13 54.47 107.35 56.7"/><polygon class="cls-9" points="114.01 60.54 110.01 58.24 113.8 56.01 117.8 58.31 114.01 60.54"/><polygon class="cls-9" points="120.68 64.39 116.68 62.08 120.46 59.85 124.47 62.15 120.68 64.39"/><polygon class="cls-9" points="72.55 68.72 68.55 66.42 72.33 64.18 76.34 66.48 72.55 68.72"/><polygon class="cls-9" points="79.54 64.75 75.53 62.45 79.32 60.21 83.32 62.51 79.54 64.75"/><polygon class="cls-9" points="86.52 60.78 82.52 58.47 86.31 56.24 90.31 58.54 86.52 60.78"/><polygon class="cls-9" points="93.51 56.8 89.51 54.5 93.29 52.27 97.3 54.57 93.51 56.8"/><path class="cls-11" d="M32.57,55a.72.72,0,0,1-.08.35,1.73,1.73,0,0,1-1,.81,3.92,3.92,0,0,1-1.34.22,4.68,4.68,0,0,1-.76-.06,4.91,4.91,0,0,1-.58-.16,1.77,1.77,0,0,1-1-.8.76.76,0,0,1-.09-.35c0-.62.71-1.13,1.68-1.32a4.67,4.67,0,0,1,.76-.07C31.48,53.63,32.57,54.25,32.57,55Z"/><polygon class="cls-12" points="171.3 85.03 171.3 87.91 122.96 115.88 122.96 113 171.3 85.03"/><polygon class="cls-10" points="17.77 52.27 17.77 55.15 122.96 115.88 122.96 113 17.77 52.27"/><polygon class="cls-8" points="33.5 53.09 28.75 50.3 36.53 45.8 41.27 48.59 35.89 53.32 33.5 53.09"/><polygon class="cls-13" points="35.91 52.28 32.21 50.1 38.27 46.59 41.98 48.77 35.91 52.28"/><polygon class="cls-14" points="41.98 48.77 41.98 49.81 35.91 53.32 35.91 52.28 41.98 48.77"/><polygon class="cls-15" points="32.21 50.1 32.21 51.14 35.91 53.32 35.91 52.28 32.21 50.1"/><path class="cls-16" d="M32.42,48.87v6a.68.68,0,0,1,0,.14c-.12.65-1.09,1.15-2.27,1.15a4.08,4.08,0,0,1-.71-.06c-.83-.16-1.45-.57-1.55-1.08,0,0,0-5.19,0-5.24v-.86h4.57Z"/><path class="cls-17" d="M32.42,48.87a.8.8,0,0,1-.08.33,1.63,1.63,0,0,1-1,.75,3.74,3.74,0,0,1-1.26.21,4.08,4.08,0,0,1-.71-.06,3.84,3.84,0,0,1-.54-.15,1.6,1.6,0,0,1-.95-.75.73.73,0,0,1-.08-.33c0-.57.66-1.06,1.57-1.23a4.08,4.08,0,0,1,.71-.06C31.39,47.58,32.42,48.16,32.42,48.87Z"/><path class="cls-18" d="M32.73,46.57v6.78a.47.47,0,0,1,0,.16c-.13.74-1.24,1.31-2.58,1.31a4.28,4.28,0,0,1-.81-.08c-.95-.17-1.65-.64-1.77-1.22,0-.06,0-5.91,0-6v-1h5.2Z"/><path class="cls-19" d="M32.73,46.57a.81.81,0,0,1-.09.37,1.84,1.84,0,0,1-1.08.86,4.2,4.2,0,0,1-1.43.24,4.28,4.28,0,0,1-.81-.07,3.38,3.38,0,0,1-.61-.17A1.89,1.89,0,0,1,27.62,47a.85.85,0,0,1-.09-.38c0-.65.75-1.2,1.79-1.4a4.28,4.28,0,0,1,.81-.07C31.57,45.1,32.73,45.76,32.73,46.57Z"/><path class="cls-11" d="M26.21,52.26a.72.72,0,0,1-.08.35,1.7,1.7,0,0,1-1,.78,3.73,3.73,0,0,1-1.3.22,4.09,4.09,0,0,1-1.31-.22,1.73,1.73,0,0,1-1-.78.81.81,0,0,1-.08-.34c0-.6.68-1.1,1.64-1.28a4.3,4.3,0,0,1,.73-.07C25.15,50.92,26.21,51.52,26.21,52.26Z"/><path class="cls-10" d="M21.92,53.06a2.9,2.9,0,0,1,1.18-.48,4.3,4.3,0,0,1,.73-.07,3.21,3.21,0,0,1,1.91.55,1.26,1.26,0,0,0,.39-.45.72.72,0,0,0,.08-.35c0-.74-1.06-1.34-2.38-1.34a4.3,4.3,0,0,0-.73.07c-1,.18-1.64.68-1.64,1.28a.81.81,0,0,0,.08.34A1.24,1.24,0,0,0,21.92,53.06Z"/><path class="cls-8" d="M63.83,26.05a4,4,0,0,1,.71-.06h0a3.57,3.57,0,0,1,1.77.49l2.09,1.19-3.19,1.82-2.41-1.38h0a1.22,1.22,0,0,1-.46-.51.62.62,0,0,1-.09-.32C62.26,26.71,62.92,26.23,63.83,26.05Z"/><path class="cls-11" d="M68.33,28.84a.55.55,0,0,1-.07.28,1.36,1.36,0,0,1-.81.64,3,3,0,0,1-1.07.19,3.82,3.82,0,0,1-.61-.06,2.06,2.06,0,0,1-.46-.13,1.42,1.42,0,0,1-.82-.64.67.67,0,0,1-.06-.28c0-.49.56-.9,1.34-1.05a3.86,3.86,0,0,1,.61-.05C67.45,27.74,68.33,28.23,68.33,28.84Z"/><path class="cls-20" d="M68.2,23.93v4.76a.45.45,0,0,1,0,.11c-.1.52-.87.92-1.81.92a3.45,3.45,0,0,1-.57,0c-.67-.12-1.16-.46-1.24-.86,0,0,0-4.15,0-4.2v-.68H68.2Z"/><path class="cls-17" d="M68.2,23.93a.58.58,0,0,1-.06.26,1.3,1.3,0,0,1-.76.6,2.83,2.83,0,0,1-1,.17,3.45,3.45,0,0,1-.57-.05,2.43,2.43,0,0,1-.43-.12,1.32,1.32,0,0,1-.77-.6.58.58,0,0,1-.06-.26c0-.46.53-.85,1.26-1a2.62,2.62,0,0,1,.57-.06C67.39,22.89,68.2,23.36,68.2,23.93Z"/><path class="cls-21" d="M68.46,22.09v5.42a.69.69,0,0,1,0,.13c-.11.59-1,1-2.06,1a3.34,3.34,0,0,1-.65-.06c-.76-.14-1.32-.51-1.42-1,0,0,0-4.72,0-4.77v-.78h4.16Z"/><path class="cls-19" d="M68.46,22.09a.82.82,0,0,1-.07.3,1.52,1.52,0,0,1-.87.68,3.36,3.36,0,0,1-1.14.19,4.4,4.4,0,0,1-.65-.05,3.15,3.15,0,0,1-.49-.14,1.49,1.49,0,0,1-.87-.68.63.63,0,0,1-.07-.3c0-.52.6-1,1.43-1.12a3.31,3.31,0,0,1,.64-.06C67.53,20.91,68.46,21.44,68.46,22.09Z"/><path class="cls-8" d="M83.86,86.06a3.88,3.88,0,0,1,.7-.06h0a3.64,3.64,0,0,1,1.77.48l3.37,1.74L86.53,90l-3.7-1.92h0a1.15,1.15,0,0,1-.46-.5.72.72,0,0,1-.08-.32C82.29,86.71,83,86.23,83.86,86.06Z"/><path class="cls-11" d="M89.78,89.45a.59.59,0,0,1-.07.29,1.35,1.35,0,0,1-.81.63,3.12,3.12,0,0,1-1.68.13,2.06,2.06,0,0,1-.46-.13,1.41,1.41,0,0,1-.82-.63.72.72,0,0,1-.07-.28c0-.49.57-.91,1.35-1a3,3,0,0,1,.6-.06C88.9,88.35,89.78,88.85,89.78,89.45Z"/><path class="cls-22" d="M89.65,84.54V89.3a.37.37,0,0,1,0,.11c-.1.52-.87.92-1.81.92a2.63,2.63,0,0,1-.57,0c-.67-.12-1.16-.45-1.25-.86,0,0,0-4.15,0-4.19v-.69h3.65Z"/><path class="cls-17" d="M89.65,84.54a.58.58,0,0,1-.06.26,1.26,1.26,0,0,1-.76.6,2.83,2.83,0,0,1-1,.17,2.63,2.63,0,0,1-.57,0,2.43,2.43,0,0,1-.43-.12,1.28,1.28,0,0,1-.77-.6.58.58,0,0,1-.06-.26c0-.46.53-.84,1.26-1a3.43,3.43,0,0,1,.56,0C88.84,83.51,89.65,84,89.65,84.54Z"/><path class="cls-23" d="M89.91,82.7v5.42a.59.59,0,0,1,0,.13c-.11.59-1,1-2.06,1a3.34,3.34,0,0,1-.65-.06c-.76-.14-1.32-.52-1.42-1,0-.05,0-4.73,0-4.77V82.7h4.16Z"/><path class="cls-19" d="M89.91,82.7a.64.64,0,0,1-.08.3,1.43,1.43,0,0,1-.86.68,3.13,3.13,0,0,1-1.14.2,3.34,3.34,0,0,1-.65-.06,2.34,2.34,0,0,1-.49-.14,1.45,1.45,0,0,1-.87-.68.6.6,0,0,1-.07-.3c0-.52.6-1,1.43-1.12a4.37,4.37,0,0,1,.64,0C89,81.53,89.91,82.05,89.91,82.7Z"/><path class="cls-8" d="M90.4,90a4,4,0,0,1,.71-.06h0a3.67,3.67,0,0,1,1.77.48l3,1.56-2.83,2L89.38,92h0a1.24,1.24,0,0,1-.47-.5.72.72,0,0,1-.07-.33C88.84,90.62,89.49,90.14,90.4,90Z"/><path class="cls-11" d="M95.9,93.17a.59.59,0,0,1-.07.29,1.36,1.36,0,0,1-.81.64,3.2,3.2,0,0,1-1.07.18,4,4,0,0,1-.61,0,3.09,3.09,0,0,1-.46-.13,1.36,1.36,0,0,1-.81-.64.55.55,0,0,1-.07-.28c0-.49.56-.9,1.34-1.05a3,3,0,0,1,.61-.06C95,92.07,95.9,92.57,95.9,93.17Z"/><path class="cls-24" d="M95.78,88.26V93a.5.5,0,0,1,0,.12c-.09.51-.87.91-1.81.91a3.45,3.45,0,0,1-.57,0c-.66-.12-1.16-.45-1.24-.86,0,0,0-4.15,0-4.19v-.68h3.66Z"/><path class="cls-17" d="M95.78,88.26a.54.54,0,0,1-.07.27,1.25,1.25,0,0,1-.76.59,2.83,2.83,0,0,1-1,.18,3.45,3.45,0,0,1-.57,0,2,2,0,0,1-.43-.13,1.25,1.25,0,0,1-.76-.59.59.59,0,0,1-.07-.26c0-.46.53-.85,1.26-1a3.45,3.45,0,0,1,.57,0C95,87.23,95.78,87.69,95.78,88.26Z"/><path class="cls-25" d="M96,86.42v5.42A.27.27,0,0,1,96,92c-.11.59-1,1-2.06,1A3.42,3.42,0,0,1,93.3,93c-.76-.14-1.32-.52-1.41-1,0,0,0-4.73,0-4.77v-.78H96Z"/><path class="cls-19" d="M96,86.42a.6.6,0,0,1-.07.3,1.5,1.5,0,0,1-.87.69A3.36,3.36,0,0,1,94,87.6a3.42,3.42,0,0,1-.65-.06,3.51,3.51,0,0,1-.49-.13,1.52,1.52,0,0,1-.87-.68.66.66,0,0,1-.07-.3c0-.53.6-1,1.43-1.12a3.42,3.42,0,0,1,.65-.06C95.1,85.25,96,85.77,96,86.42Z"/><path class="cls-11" d="M101.94,90.27a.59.59,0,0,1-.07.29,1.4,1.4,0,0,1-.81.64,3.15,3.15,0,0,1-1.07.18,3.47,3.47,0,0,1-1.07-.18,1.4,1.4,0,0,1-.81-.64.58.58,0,0,1-.07-.28c0-.49.56-.91,1.34-1a3.08,3.08,0,0,1,.61-.06C101.07,89.17,101.94,89.67,101.94,90.27Z"/><path class="cls-26" d="M101.82,85.36v4.76a.25.25,0,0,1,0,.12c-.09.51-.87.91-1.81.91a2.63,2.63,0,0,1-.57-.05c-.66-.12-1.16-.45-1.24-.86,0,0,0-4.15,0-4.19v-.69h3.66Z"/><path class="cls-17" d="M101.82,85.36a.48.48,0,0,1-.07.26,1.27,1.27,0,0,1-.75.6,2.89,2.89,0,0,1-1,.17,3.45,3.45,0,0,1-.57,0,1.94,1.94,0,0,1-.43-.12,1.32,1.32,0,0,1-.76-.59.68.68,0,0,1-.07-.27c0-.45.53-.84,1.26-1a3.45,3.45,0,0,1,.57,0C101,84.33,101.82,84.79,101.82,85.36Z"/><path class="cls-27" d="M102.07,83.52v5.42a.57.57,0,0,1,0,.13c-.11.59-1,1.05-2.07,1.05a3.49,3.49,0,0,1-.65-.06c-.75-.14-1.32-.52-1.41-1,0,0,0-4.73,0-4.77v-.78h4.16Z"/><path class="cls-19" d="M102.07,83.52a.63.63,0,0,1-.07.3,1.42,1.42,0,0,1-.87.68,3.09,3.09,0,0,1-1.14.2,3.49,3.49,0,0,1-.65-.06,2.53,2.53,0,0,1-.49-.14,1.45,1.45,0,0,1-.87-.68.73.73,0,0,1-.07-.29c0-.53.6-1,1.43-1.12a3.49,3.49,0,0,1,.65-.06C101.14,82.35,102.07,82.87,102.07,83.52Z"/><path class="cls-8" d="M96.38,45.8a4,4,0,0,1,.7-.06h0a3.53,3.53,0,0,1,1.76.48L102.23,48l-3.18,1.82-3.7-1.93h0a1.28,1.28,0,0,1-.46-.5.72.72,0,0,1-.08-.32C94.81,46.45,95.47,46,96.38,45.8Z"/><path class="cls-11" d="M102.36,49.29a.77.77,0,0,1-.07.29,1.43,1.43,0,0,1-.81.64,3.24,3.24,0,0,1-1.07.18,2.93,2.93,0,0,1-.61-.06,2.8,2.8,0,0,1-.46-.12,1.43,1.43,0,0,1-.82-.64.68.68,0,0,1-.07-.28c0-.49.57-.91,1.35-1a2.91,2.91,0,0,1,.6-.06C101.48,48.19,102.36,48.68,102.36,49.29Z"/><path class="cls-28" d="M102.23,44.38v4.76a.37.37,0,0,1,0,.11c-.1.52-.88.92-1.81.92a2.57,2.57,0,0,1-.57-.05c-.67-.12-1.17-.45-1.25-.86,0,0,0-4.15,0-4.19v-.69h3.65Z"/><path class="cls-17" d="M102.23,44.38a.58.58,0,0,1-.06.26,1.33,1.33,0,0,1-.76.6,2.83,2.83,0,0,1-1,.17,2.57,2.57,0,0,1-.57,0,2.83,2.83,0,0,1-.44-.12,1.32,1.32,0,0,1-.76-.59.63.63,0,0,1-.06-.27c0-.46.52-.84,1.26-1a2.54,2.54,0,0,1,.56,0C101.41,43.35,102.23,43.81,102.23,44.38Z"/><path class="cls-29" d="M102.48,42.54V48a.57.57,0,0,1,0,.13c-.11.59-1,1-2.06,1a4.35,4.35,0,0,1-.65-.06c-.76-.14-1.33-.52-1.42-1,0-.05,0-4.73,0-4.77v-.79h4.16Z"/><path class="cls-19" d="M102.48,42.54a.63.63,0,0,1-.07.3,1.43,1.43,0,0,1-.86.68,3.13,3.13,0,0,1-1.14.2,3.34,3.34,0,0,1-.65-.06,2.63,2.63,0,0,1-.5-.14,1.43,1.43,0,0,1-.86-.68.61.61,0,0,1-.08-.3c0-.52.6-1,1.44-1.12a4.37,4.37,0,0,1,.64-.05C101.55,41.37,102.48,41.89,102.48,42.54Z"/><path class="cls-8" d="M125.64,67a3.2,3.2,0,0,1,.7-.07h0a3.68,3.68,0,0,1,1.77.49l3,1.55-2.83,2-3.7-1.92h0a1.3,1.3,0,0,1-.47-.5.8.8,0,0,1-.08-.33C124.07,67.65,124.73,67.17,125.64,67Z"/><path class="cls-8" d="M130.68,63.72a4,4,0,0,1,.7-.06h0a3.53,3.53,0,0,1,1.76.48l3,1.56-2.82,2-3.7-1.92h0a1.28,1.28,0,0,1-.46-.5.72.72,0,0,1-.08-.32C129.11,64.37,129.77,63.89,130.68,63.72Z"/><path class="cls-11" d="M131.32,70.27a.58.58,0,0,1-.07.28,1.36,1.36,0,0,1-.81.64,3.2,3.2,0,0,1-1.07.18,4,4,0,0,1-.61-.05,3.09,3.09,0,0,1-.46-.13,1.36,1.36,0,0,1-.81-.64.55.55,0,0,1-.07-.28c0-.49.56-.9,1.34-1a3,3,0,0,1,.61,0C130.45,69.17,131.32,69.66,131.32,70.27Z"/><path class="cls-30" d="M131.2,65.35v4.76a.5.5,0,0,1,0,.12c-.09.52-.87.92-1.81.92a3.45,3.45,0,0,1-.57-.05c-.66-.13-1.16-.46-1.24-.87,0,0,0-4.15,0-4.19v-.68h3.66Z"/><path class="cls-17" d="M131.2,65.35a.54.54,0,0,1-.07.27,1.3,1.3,0,0,1-.76.6,3.08,3.08,0,0,1-1,.17,3.45,3.45,0,0,1-.57,0,2.7,2.7,0,0,1-.43-.12,1.3,1.3,0,0,1-.76-.6.59.59,0,0,1-.07-.26c0-.46.53-.85,1.26-1a3.45,3.45,0,0,1,.57-.05C130.38,64.32,131.2,64.78,131.2,65.35Z"/><path class="cls-31" d="M131.45,63.51v5.42a.27.27,0,0,1,0,.13c-.11.59-1,1-2.06,1a3.49,3.49,0,0,1-.65-.06c-.75-.14-1.32-.52-1.41-1,0,0,0-4.72,0-4.77v-.78h4.16Z"/><path class="cls-19" d="M131.45,63.51a.6.6,0,0,1-.07.3,1.5,1.5,0,0,1-.87.69,3.36,3.36,0,0,1-1.14.19,3.49,3.49,0,0,1-.65-.06,2.52,2.52,0,0,1-.49-.13,1.52,1.52,0,0,1-.87-.68.82.82,0,0,1-.07-.3c0-.52.6-1,1.43-1.12a3.49,3.49,0,0,1,.65-.06C130.52,62.34,131.45,62.86,131.45,63.51Z"/><path class="cls-11" d="M136.35,67a.55.55,0,0,1-.07.28,1.37,1.37,0,0,1-.81.65,3.24,3.24,0,0,1-1.07.18,3,3,0,0,1-.61-.06,3.09,3.09,0,0,1-.46-.12,1.4,1.4,0,0,1-.81-.64.58.58,0,0,1-.07-.28c0-.49.56-.91,1.34-1a3,3,0,0,1,.61-.06C135.48,65.91,136.35,66.4,136.35,67Z"/><path class="cls-32" d="M136.23,62.1v4.76a.36.36,0,0,1,0,.11c-.09.52-.87.92-1.81.92a3.45,3.45,0,0,1-.57,0c-.67-.12-1.16-.45-1.24-.86,0,0,0-4.15,0-4.19V62.1h3.66Z"/><path class="cls-17" d="M136.23,62.1a.48.48,0,0,1-.07.26,1.3,1.3,0,0,1-.76.6,2.83,2.83,0,0,1-1,.17,3.45,3.45,0,0,1-.57-.05,2.43,2.43,0,0,1-.43-.12,1.32,1.32,0,0,1-.77-.6.55.55,0,0,1-.06-.26c0-.46.53-.84,1.26-1a2.63,2.63,0,0,1,.57,0C135.41,61.07,136.23,61.53,136.23,62.1Z"/><path class="cls-33" d="M136.48,60.26v5.42a.3.3,0,0,1,0,.13c-.11.59-1,1-2.06,1a3.36,3.36,0,0,1-.65,0c-.76-.14-1.32-.52-1.41-1,0,0,0-4.73,0-4.77v-.79h4.16Z"/><path class="cls-19" d="M136.48,60.26a.78.78,0,0,1-.07.3,1.45,1.45,0,0,1-.87.68,3.42,3.42,0,0,1-1.79.14,2.34,2.34,0,0,1-.49-.14,1.42,1.42,0,0,1-.87-.68.6.6,0,0,1-.07-.3c0-.52.6-1,1.43-1.11a3.34,3.34,0,0,1,.65-.06C135.55,59.09,136.48,59.61,136.48,60.26Z"/><polygon class="cls-11" points="64.85 55.47 42.99 42.84 63.26 31.07 85.12 43.7 64.85 55.47"/><polygon class="cls-7" points="45.19 42.84 63.27 32.34 82.92 43.7 64.85 54.19 45.19 42.84"/><polygon class="cls-11" points="64.67 38.02 64.18 37.73 67.12 36.01 67.62 36.31 64.67 38.02"/><polygon class="cls-11" points="66.05 38.81 65.55 38.51 68.5 36.8 68.99 37.09 66.05 38.81"/><polygon class="cls-11" points="67.42 39.59 66.93 39.3 69.87 37.58 70.37 37.88 67.42 39.59"/><polygon class="cls-11" points="68.8 40.38 68.3 40.08 71.25 38.36 71.74 38.66 68.8 40.38"/><polygon class="cls-11" points="70.17 41.16 69.67 40.87 72.62 39.15 73.12 39.45 70.17 41.16"/><polygon class="cls-11" points="71.55 41.95 71.05 41.65 74 39.93 74.49 40.23 71.55 41.95"/><polygon class="cls-11" points="72.92 42.73 72.42 42.43 75.37 40.72 75.87 41.02 72.92 42.73"/><polygon class="cls-11" points="52.68 45.88 52.19 45.58 55.13 43.87 55.63 44.17 52.68 45.88"/><polygon class="cls-11" points="54.06 46.67 53.56 46.37 56.51 44.65 57 44.95 54.06 46.67"/><polygon class="cls-11" points="55.43 47.45 54.94 47.15 57.88 45.44 58.38 45.73 55.43 47.45"/><polygon class="cls-11" points="56.81 48.24 56.31 47.94 59.26 46.22 59.75 46.52 56.81 48.24"/><polygon class="cls-11" points="58.18 49.02 57.69 48.72 60.63 47.01 61.13 47.3 58.18 49.02"/><polygon class="cls-11" points="59.56 49.8 59.06 49.51 62.01 47.79 62.5 48.09 59.56 49.8"/><polygon class="cls-11" points="60.93 50.59 60.43 50.29 63.38 48.57 63.88 48.88 60.93 50.59"/><polygon class="cls-11" points="62.93 37.52 63.43 37.22 60.48 35.5 59.99 35.8 62.93 37.52"/><polygon class="cls-11" points="61.56 38.3 62.05 38.01 59.11 36.29 58.61 36.59 61.56 38.3"/><polygon class="cls-11" points="60.18 39.09 60.68 38.79 57.73 37.07 57.24 37.37 60.18 39.09"/><polygon class="cls-11" points="58.81 39.88 59.3 39.58 56.36 37.86 55.86 38.16 58.81 39.88"/><polygon class="cls-11" points="57.43 40.66 57.93 40.36 54.99 38.64 54.49 38.94 57.43 40.66"/><polygon class="cls-11" points="56.06 41.44 56.56 41.14 53.61 39.43 53.12 39.73 56.06 41.44"/><polygon class="cls-11" points="54.69 42.23 55.18 41.93 52.24 40.21 51.74 40.51 54.69 42.23"/><polygon class="cls-11" points="76.21 46.26 76.71 45.96 73.76 44.24 73.27 44.54 76.21 46.26"/><polygon class="cls-11" points="74.84 47.04 75.33 46.74 72.39 45.03 71.89 45.32 74.84 47.04"/><polygon class="cls-11" points="73.46 47.83 73.96 47.53 71.01 45.81 70.52 46.11 73.46 47.83"/><polygon class="cls-11" points="72.09 48.61 72.58 48.31 69.64 46.59 69.14 46.89 72.09 48.61"/><polygon class="cls-11" points="70.71 49.4 71.21 49.09 68.27 47.38 67.77 47.68 70.71 49.4"/><polygon class="cls-11" points="69.34 50.18 69.83 49.88 66.89 48.16 66.39 48.46 69.34 50.18"/><polygon class="cls-11" points="67.97 50.96 68.46 50.66 65.52 48.95 65.02 49.25 67.97 50.96"/><polygon class="cls-9" points="92.32 79.64 75.85 70.17 100.75 55.76 117.21 65.23 92.32 79.64"/><polygon class="cls-34" points="92.4 78.01 90.74 78.28 76.14 70.01 78.04 68.91 92.4 78.01"/><polygon class="cls-35" points="117.21 65.23 117.21 66.47 92.32 80.88 92.32 79.64 117.21 65.23"/><polygon class="cls-36" points="75.85 70.17 75.85 71.41 92.32 80.88 92.32 79.64 75.85 70.17"/><polygon class="cls-13" points="92.4 75.78 77.57 67.25 99.99 54.28 114.81 62.8 92.4 75.78"/><polygon class="cls-35" points="114.81 62.8 114.81 65.04 92.4 78.01 92.4 75.78 114.81 62.8"/><polygon class="cls-36" points="77.57 67.25 77.57 69.49 92.4 78.01 92.4 75.78 77.57 67.25"/><polygon class="cls-13" points="92.4 74.44 77.57 65.91 99.99 52.94 114.81 61.46 92.4 74.44"/><polygon class="cls-14" points="114.81 61.46 114.81 62.8 92.4 75.77 92.4 74.44 114.81 61.46"/><polygon class="cls-15" points="77.57 65.91 77.57 67.25 92.4 75.77 92.4 74.44 77.57 65.91"/><polygon class="cls-9" points="80.81 66.21 100.48 54.93 101.43 55.48 81.76 66.76 80.81 66.21"/><polygon class="cls-9" points="83.09 67.49 102.76 56.2 103.71 56.75 84.04 68.03 83.09 67.49"/><polygon class="cls-9" points="85.38 68.76 105.04 57.47 105.99 58.02 86.33 69.31 85.38 68.76"/><polygon class="cls-9" points="100.4 62.84 107.24 58.84 108.19 59.39 101.36 63.39 100.4 62.84"/><polygon class="cls-9" points="102.41 64.01 109.25 60.01 110.2 60.56 103.36 64.56 102.41 64.01"/><polygon class="cls-13" points="49.94 65.78 45.19 62.99 52.97 58.49 57.71 61.29 49.94 65.78"/><polygon class="cls-14" points="57.71 61.29 57.71 63.74 49.94 68.23 49.94 65.78 57.71 61.29"/><polygon class="cls-15" points="45.19 62.99 45.19 65.44 49.94 68.23 49.94 65.78 45.19 62.99"/><polygon class="cls-13" points="122.62 81.29 118.4 78.83 132.22 70.84 136.44 73.3 122.62 81.29"/><polygon class="cls-14" points="136.44 73.3 136.44 76.27 122.62 84.26 122.62 81.29 136.44 73.3"/><polygon class="cls-15" points="118.4 78.83 118.4 81.81 122.62 84.26 122.62 81.29 118.4 78.83"/><polygon class="cls-8" points="115.64 91.59 105.67 85.72 122.02 76.27 131.99 82.14 120.68 92.07 115.64 91.59"/><polygon class="cls-13" points="120.59 84.47 112.16 79.51 125.97 71.52 134.41 76.48 120.59 84.47"/><polygon class="cls-14" points="134.41 76.48 134.41 84.08 120.59 92.07 120.59 84.47 134.41 76.48"/><polygon class="cls-15" points="112.16 79.51 112.16 87.11 120.59 92.07 120.59 84.47 112.16 79.51"/><polygon class="cls-37" points="150.8 84.28 144.54 80.68 154.44 75.05 160.7 78.65 150.8 84.28"/><polygon class="cls-14" points="160.7 78.65 160.7 86.31 150.8 91.94 150.8 84.28 160.7 78.65"/><polygon class="cls-36" points="144.54 80.68 144.54 88.34 150.8 91.94 150.8 84.28 144.54 80.68"/><polygon class="cls-37" points="136.65 92.86 130.38 89.26 140.29 83.63 146.55 87.23 136.65 92.86"/><polygon class="cls-14" points="146.55 87.23 146.55 94.89 136.65 100.52 136.65 92.86 146.55 87.23"/><polygon class="cls-36" points="130.38 89.26 130.38 96.93 136.65 100.52 136.65 92.86 130.38 89.26"/><polygon class="cls-37" points="122.63 101.31 116.36 97.71 126.27 92.08 132.53 95.68 122.63 101.31"/><polygon class="cls-14" points="132.53 95.68 132.53 103.34 122.63 108.97 122.63 101.31 132.53 95.68"/><polygon class="cls-36" points="116.36 97.71 116.36 105.37 122.63 108.97 122.63 101.31 116.36 97.71"/><polygon class="cls-38" points="173.06 87.06 111.02 123.04 111.02 107.3 173.06 71.77 173.06 87.06"/><polygon class="cls-11" points="172.4 71.31 173.06 71.77 111.02 107.3 110.36 106.84 172.4 71.31"/><polygon class="cls-36" points="111.02 123.04 110.36 122.59 110.36 106.84 111.02 107.3 111.02 123.04"/><polygon class="cls-8" points="151.35 85.03 150.56 86.14 150.56 96.24 160.18 90.63 161.59 89.38 151.35 85.03"/><polygon class="cls-39" points="151.35 85.03 152.02 85.44 161.59 79.92 161.06 79.57 151.35 85.03"/><polygon class="cls-40" points="161.59 79.92 161.59 89.39 152.02 94.91 152.02 85.44 161.59 79.92"/><polygon class="cls-15" points="160.52 81.79 160.52 88.76 153.1 93.04 153.1 86.08 153.41 85.9 153.87 85.64 154.38 85.33 160.52 81.79"/><polygon class="cls-39" points="153.76 90.67 153.24 90.97 153.1 90.89 153.1 90.28 153.76 90.67"/><polygon class="cls-39" points="154.75 90.1 154.22 90.41 153.1 89.76 153.1 89.14 154.75 90.1"/><polygon class="cls-39" points="155.73 89.55 155.2 89.85 153.1 88.61 153.1 88 155.73 89.55"/><polygon class="cls-39" points="156.71 88.98 156.19 89.28 153.1 87.47 153.1 86.86 156.71 88.98"/><polygon class="cls-39" points="157.71 88.42 157.18 88.72 153.1 86.34 153.1 86.08 153.41 85.9 157.71 88.42"/><polygon class="cls-39" points="158.69 87.85 158.16 88.16 153.87 85.64 154.38 85.33 158.69 87.85"/><polygon class="cls-41" points="158.75 82.81 158.75 87.89 153.11 91.16 153.11 93.04 160.51 88.76 160.51 81.79 158.75 82.81"/><polygon class="cls-41" points="151.35 85.03 151.35 94.5 152.02 94.91 152.02 85.44 151.35 85.03"/><polygon class="cls-39" points="158.75 87.89 160.51 88.76 153.11 93.04 153.11 91.16 158.75 87.89"/><polygon class="cls-8" points="137.2 93.36 136.41 94.48 136.41 104.57 146.03 98.97 147.44 97.72 137.2 93.36"/><polygon class="cls-39" points="137.2 93.37 137.87 93.78 147.44 88.25 146.91 87.9 137.2 93.37"/><polygon class="cls-40" points="147.44 88.25 147.44 97.72 137.87 103.25 137.87 93.78 147.44 88.25"/><polygon class="cls-15" points="146.37 90.12 146.37 97.1 138.95 101.38 138.95 94.42 139.26 94.23 139.71 93.97 140.23 93.67 146.37 90.12"/><polygon class="cls-39" points="139.61 99 139.09 99.31 138.95 99.23 138.95 98.61 139.61 99"/><polygon class="cls-39" points="140.6 98.44 140.07 98.75 138.95 98.09 138.95 97.47 140.6 98.44"/><polygon class="cls-39" points="141.58 97.88 141.05 98.18 138.95 96.94 138.95 96.34 141.58 97.88"/><polygon class="cls-39" points="142.56 97.32 142.04 97.62 138.95 95.81 138.95 95.2 142.56 97.32"/><polygon class="cls-39" points="143.55 96.75 143.03 97.06 138.95 94.67 138.95 94.42 139.26 94.23 143.55 96.75"/><polygon class="cls-39" points="144.54 96.19 144.01 96.49 139.71 93.97 140.23 93.67 144.54 96.19"/><polygon class="cls-41" points="144.6 91.14 144.6 96.23 138.95 99.49 138.95 101.37 146.36 97.1 146.36 90.13 144.6 91.14"/><polygon class="cls-41" points="137.2 93.37 137.2 102.84 137.87 103.25 137.87 93.78 137.2 93.37"/><polygon class="cls-39" points="144.61 96.24 146.36 97.1 138.96 101.38 138.96 99.5 144.61 96.24"/><polygon class="cls-8" points="123.05 101.7 122.26 102.81 122.26 112.91 131.87 107.3 133.29 106.05 123.05 101.7"/><polygon class="cls-39" points="123.05 101.7 123.72 102.11 133.29 96.59 132.75 96.24 123.05 101.7"/><polygon class="cls-40" points="133.29 96.59 133.29 106.06 123.72 111.58 123.72 102.11 133.29 96.59"/><polygon class="cls-15" points="132.21 98.45 132.21 105.43 124.8 109.71 124.8 102.75 125.11 102.57 125.56 102.31 126.08 102 132.21 98.45"/><polygon class="cls-39" points="125.46 107.33 124.93 107.65 124.8 107.56 124.8 106.94 125.46 107.33"/><polygon class="cls-39" points="126.44 106.77 125.92 107.08 124.8 106.42 124.8 105.81 126.44 106.77"/><polygon class="cls-39" points="127.43 106.22 126.9 106.52 124.8 105.28 124.8 104.67 127.43 106.22"/><polygon class="cls-39" points="128.41 105.65 127.89 105.95 124.8 104.14 124.8 103.53 128.41 105.65"/><polygon class="cls-39" points="129.4 105.09 128.87 105.39 124.8 103 124.8 102.75 125.11 102.57 129.4 105.09"/><polygon class="cls-39" points="130.38 104.52 129.86 104.82 125.56 102.31 126.08 102 130.38 104.52"/><polygon class="cls-41" points="130.45 99.48 130.45 104.56 124.8 107.83 124.8 109.71 132.21 105.43 132.21 98.47 130.45 99.48"/><polygon class="cls-41" points="123.05 101.7 123.05 111.17 123.72 111.58 123.72 102.11 123.05 101.7"/><polygon class="cls-39" points="130.46 104.56 132.21 105.43 124.81 109.7 124.81 107.82 130.46 104.56"/><path class="cls-11" d="M106.4,93.49l5.36-3.09c.59-.34.51-.93-.16-1.32h0a2.58,2.58,0,0,0-2.29-.1L104,92.08c-.59.33-.52.93.16,1.32h0A2.56,2.56,0,0,0,106.4,93.49Z"/><path class="cls-11" d="M109.74,95.43l5.36-3.09c.58-.34.51-.93-.16-1.32h0a2.58,2.58,0,0,0-2.29-.1L107.29,94c-.58.33-.51.93.17,1.31h0A2.49,2.49,0,0,0,109.74,95.43Z"/><path class="cls-11" d="M113.08,97.37l5.35-3.09c.59-.34.52-.93-.16-1.32h0a2.56,2.56,0,0,0-2.28-.1L110.63,96c-.59.33-.51.93.16,1.32h0A2.54,2.54,0,0,0,113.08,97.37Z"/><path class="cls-9" d="M53.54,68.42a.33.33,0,0,1,0,.17A.77.77,0,0,1,53,69a1.87,1.87,0,0,1-.64.11,2,2,0,0,1-.36,0L51.74,69a.77.77,0,0,1-.48-.38.32.32,0,0,1,0-.16c0-.29.33-.54.8-.63a2,2,0,0,1,.36,0C53,67.77,53.54,68.06,53.54,68.42Z"/><path class="cls-9" d="M56.25,67.11a.35.35,0,0,1,0,.17.87.87,0,0,1-.48.38,1.87,1.87,0,0,1-.64.11,2.22,2.22,0,0,1-.37,0l-.27-.08a.9.9,0,0,1-.49-.38.53.53,0,0,1,0-.17c0-.29.34-.54.8-.63a2.19,2.19,0,0,1,.36,0C55.73,66.45,56.25,66.74,56.25,67.11Z"/><path class="cls-9" d="M58.88,65.51a.47.47,0,0,1,0,.17.84.84,0,0,1-.49.39,2,2,0,0,1-.64.1,2.1,2.1,0,0,1-.36,0l-.28-.07a.87.87,0,0,1-.48-.38.35.35,0,0,1,0-.17c0-.29.33-.54.8-.63a2.1,2.1,0,0,1,.36,0C58.36,64.86,58.88,65.15,58.88,65.51Z"/><path class="cls-9" d="M146.51,73.59a.47.47,0,0,0,0,.17.86.86,0,0,0,.49.38,1.79,1.79,0,0,0,.64.11,2.1,2.1,0,0,0,.36,0l.28-.08a.83.83,0,0,0,.48-.38.33.33,0,0,0,0-.17c0-.29-.33-.54-.8-.62a2.09,2.09,0,0,0-.36,0C147,72.93,146.51,73.23,146.51,73.59Z"/><path class="cls-9" d="M143.81,72.27a.33.33,0,0,0,0,.17.81.81,0,0,0,.48.39,2,2,0,0,0,.64.1,2,2,0,0,0,.36,0l.28-.07a.84.84,0,0,0,.48-.38.35.35,0,0,0,0-.17c0-.29-.33-.54-.8-.63a2,2,0,0,0-.36,0C144.33,71.62,143.81,71.91,143.81,72.27Z"/><path class="cls-9" d="M141.18,70.68a.33.33,0,0,0,0,.17.8.8,0,0,0,.48.38,1.87,1.87,0,0,0,.64.11,2.22,2.22,0,0,0,.37,0,1.2,1.2,0,0,0,.27-.08.82.82,0,0,0,.49-.38.47.47,0,0,0,0-.16c0-.29-.34-.54-.8-.63a2.22,2.22,0,0,0-.37,0C141.7,70,141.18,70.32,141.18,70.68Z"/></g></g></svg>