<svg xmlns="http://www.w3.org/2000/svg" xmlns:xlink="http://www.w3.org/1999/xlink" viewBox="0 0 103 105.73"><defs><style>.cls-1{fill:none;}.cls-2{isolation:isolate;}.cls-3{fill:#1f2029;}.cls-4{fill:#6da7c2;}.cls-5{fill:#324e5b;}.cls-6{fill:#89c5c3;}.cls-7{fill:#507c90;}.cls-8{fill:#2a4250;}.cls-9{clip-path:url(#clip-path);}.cls-10{fill:#93bcda;}.cls-11{fill:#5699c6;}.cls-12{fill:#e9f6fb;}.cls-13{fill:#38596a;}.cls-14{fill:#d0ebf5;}.cls-15,.cls-41{fill:#ecf4f5;}.cls-16{clip-path:url(#clip-path-2);}.cls-17{fill:#8ac2ce;}.cls-18{fill:#73b7da;}.cls-19{fill:#314c97;}.cls-20{clip-path:url(#clip-path-3);}.cls-21{fill:#68a0b9;}.cls-22{fill:#6398b0;}.cls-23{fill:#5e91a8;}.cls-24{fill:#59899f;}.cls-25{fill:#558296;}.cls-26{fill:#507a8e;}.cls-27{fill:#4b7386;}.cls-28{fill:#466d7f;}.cls-29{fill:#426677;}.cls-30{fill:#3d6070;}.cls-31{clip-path:url(#clip-path-4);}.cls-32{fill:#a2ccd2;}.cls-33{fill:#6b9a98;}.cls-34{fill:#3784bc;}.cls-35{fill:#4899c8;}.cls-36{fill:#5a5288;}.cls-37{fill:#5e67a7;}.cls-38{clip-path:url(#clip-path-5);}.cls-39{clip-path:url(#clip-path-6);}.cls-40{fill:#cce3e7;}.cls-41,.cls-43{mix-blend-mode:hard-light;}.cls-41{opacity:0.43;}.cls-42{fill:#4083bb;}.cls-43{opacity:0.15;fill:url(#linear-gradient);}.cls-44{fill:#17181f;}.cls-45{fill:#4b7b9e;}</style><clipPath id="clip-path"><polygon class="cls-1" points="72.19 66.56 80.44 61.77 80.53 30.47 89.15 25.46 88.04 21.33 69.59 12 57.69 20.93 57.69 58.19 72.19 66.56"/></clipPath><clipPath id="clip-path-2"><polygon class="cls-1" points="28.18 91.06 36.43 86.27 36.52 54.98 45.14 49.97 44.03 45.84 25.58 36.5 13.68 45.43 13.68 82.69 28.18 91.06"/></clipPath><clipPath id="clip-path-3"><path class="cls-1" d="M45.67,56.63h0c.56-.32,1-.06,1,.58v3.35a2.23,2.23,0,0,1-1,1.75c-.56.32-1,.06-1-.58V58.39A2.2,2.2,0,0,1,45.67,56.63Z"/></clipPath><clipPath id="clip-path-4"><path class="cls-1" d="M44.91,57.45l-.16.38-.08.32v3.58s.65.36.68.36,1.27-.57,1.27-.57l-.23-4.43-1.41.1Z"/></clipPath><clipPath id="clip-path-5"><path class="cls-1" d="M45.67,63.72h0c.56-.32,1-.06,1,.58v3.35a2.23,2.23,0,0,1-1,1.75c-.56.32-1,.06-1-.58V65.47A2.19,2.19,0,0,1,45.67,63.72Z"/></clipPath><clipPath id="clip-path-6"><path class="cls-1" d="M44.91,64.54l-.16.38-.08.32v3.58s.65.36.68.36,1.27-.57,1.27-.57l-.23-4.43-1.41.1Z"/></clipPath><linearGradient id="linear-gradient" x1="-582.67" y1="75.19" x2="-606.42" y2="34.06" gradientTransform="matrix(-1, 0, 0, 1, -529.23, 0)" gradientUnits="userSpaceOnUse"><stop offset="0.14" stop-color="#3b5757"/><stop offset="0.34" stop-color="#fff"/><stop offset="0.37" stop-color="#fcfcfc"/><stop offset="0.39" stop-color="#f1f3f3"/><stop offset="0.41" stop-color="#e0e4e4"/><stop offset="0.43" stop-color="#c7cfcf"/><stop offset="0.44" stop-color="#a8b4b4"/><stop offset="0.46" stop-color="#819393"/><stop offset="0.48" stop-color="#546c6c"/><stop offset="0.48" stop-color="#3b5757"/><stop offset="0.61" stop-color="#3b5757"/><stop offset="0.62" stop-color="#3b5757"/><stop offset="0.88" stop-color="#fff"/><stop offset="1" stop-color="#a6ced4"/></linearGradient></defs><g class="cls-2"><g id="图层_2" data-name="图层 2"><polygon class="cls-3" points="72.19 66.56 57.69 58.19 66.31 53.17 80.44 61.34 80.44 61.77 72.19 66.56"/><polygon class="cls-4" points="91.66 67.81 91.65 70.83 83.03 75.84 83.04 72.82 91.66 67.81"/><path class="cls-5" d="M80.44,61.86l-8.25,4.7,8.25-4.79Z"/><polygon class="cls-4" points="83.16 31.99 91.78 26.98 91.66 67.81 83.04 72.82 83.16 31.99"/><polygon class="cls-6" points="83.52 32.26 88.25 29.5 88.19 34.24 83.45 36.99 83.52 32.26"/><polygon class="cls-7" points="80.53 30.47 89.15 25.46 91.78 26.98 83.16 31.99 80.53 30.47"/><path class="cls-8" d="M57.69,58.19l14.5,8.37,8.25-4.7v-.53l.09-30.86L83.16,32,83,72.82v3L80.4,74.33,57.68,61.2Z"/><g class="cls-9"><polygon class="cls-10" points="78.4 30.47 78.41 68.21 60.79 57.97 60.78 20.23 78.4 30.47"/><polygon class="cls-11" points="88.48 24.62 88.49 62.36 78.41 68.21 78.4 30.47 88.48 24.62"/><polygon class="cls-12" points="60.78 20.23 70.86 14.38 88.48 24.62 78.4 30.47 60.78 20.23"/></g><polygon class="cls-13" points="50.18 92.72 50.19 94.81 31.58 84 31.57 81.9 50.18 92.72"/><polygon class="cls-4" points="80.94 74.96 80.94 77.06 50.19 94.81 50.18 92.72 80.94 74.96"/><polygon class="cls-7" points="31.57 81.9 62.33 64.14 80.94 74.96 50.18 92.72 31.57 81.9"/><polygon class="cls-11" points="50.27 68.39 50.28 92.16 32.66 81.92 32.65 58.15 50.27 68.39"/><polygon class="cls-14" points="79.4 51.57 79.41 75.34 50.28 92.16 50.27 68.39 79.4 51.57"/><polygon class="cls-11" points="32.65 58.15 61.78 41.33 79.4 51.57 50.27 68.39 32.65 58.15"/><polygon class="cls-13" points="49.2 53.83 49.2 74.24 31.58 64 31.57 43.59 49.2 53.83"/><polygon class="cls-15" points="81.39 35.22 81.39 55.63 49.2 74.24 49.2 53.83 81.39 35.22"/><polygon class="cls-4" points="31.57 43.59 63.76 24.98 81.39 35.22 49.2 53.83 31.57 43.59"/><polygon class="cls-8" points="42.89 31.07 42.9 51.48 34.7 46.77 34.69 26.36 42.89 31.07"/><polygon class="cls-7" points="75.08 22.25 75.09 32.87 42.9 51.48 42.89 31.07 75.08 22.25"/><polygon class="cls-4" points="34.69 26.36 66.88 7.74 75.08 22.25 42.89 31.07 34.69 26.36"/><polygon class="cls-3" points="28.18 91.06 13.68 82.69 22.3 77.68 36.43 85.84 36.43 86.27 28.18 91.06"/><polygon class="cls-4" points="47.65 92.32 47.64 95.33 39.02 100.34 39.03 97.33 47.65 92.32"/><path class="cls-5" d="M36.43,86.36l-8.25,4.7,8.25-4.79Z"/><polygon class="cls-4" points="39.15 56.49 47.77 51.48 47.65 92.32 39.03 97.33 39.15 56.49"/><polygon class="cls-7" points="36.52 54.98 45.14 49.97 47.77 51.48 39.15 56.49 36.52 54.98"/><path class="cls-8" d="M13.68,82.69l14.5,8.37,8.25-4.7v-.52L36.52,55l2.62,1.51L39,97.33v3l-2.63-1.51L13.67,85.71Z"/><g class="cls-16"><polygon class="cls-10" points="34.39 54.98 34.39 92.72 16.77 82.47 16.77 44.74 34.39 54.98"/><polygon class="cls-4" points="19.3 49.73 19.3 66.92 26.89 71.33 26.89 72.23 18.44 67.33 18.43 49.23 19.3 49.73"/><polygon class="cls-8" points="19.3 49.73 26.88 54.14 26.89 71.33 19.3 66.92 19.3 49.73"/><polygon class="cls-4" points="31.36 75.89 31.36 77.15 32.99 78.1 32.99 78.29 31.18 77.24 31.18 75.78 31.36 75.89"/><polygon class="cls-8" points="31.36 75.89 32.99 76.83 32.99 78.1 31.36 77.15 31.36 75.89"/><polygon class="cls-4" points="31.36 73.09 31.36 74.36 32.99 75.3 32.99 75.5 31.18 74.44 31.18 72.98 31.36 73.09"/><polygon class="cls-8" points="31.36 73.09 32.99 74.04 32.99 75.3 31.36 74.36 31.36 73.09"/><polygon class="cls-4" points="31.36 70.3 31.36 71.56 32.99 72.51 32.99 72.7 31.18 71.65 31.18 70.19 31.36 70.3"/><polygon class="cls-8" points="31.36 70.3 32.99 71.24 32.99 72.51 31.36 71.56 31.36 70.3"/><polygon class="cls-4" points="31.36 67.5 31.36 68.77 32.99 69.71 32.99 69.91 31.18 68.85 31.18 67.39 31.36 67.5"/><polygon class="cls-8" points="31.36 67.5 32.99 68.45 32.99 69.71 31.36 68.77 31.36 67.5"/><polygon class="cls-4" points="31.36 64.7 31.36 65.97 32.99 66.92 32.99 67.11 31.18 66.06 31.18 64.6 31.36 64.7"/><polygon class="cls-8" points="31.36 64.7 32.99 65.65 32.99 66.92 31.36 65.97 31.36 64.7"/><polygon class="cls-14" points="44.47 49.13 44.48 86.86 34.39 92.72 34.39 54.98 44.47 49.13"/><polygon class="cls-12" points="16.77 44.74 26.85 38.88 44.47 49.13 34.39 54.98 16.77 44.74"/></g><polygon class="cls-8" points="33.54 25.96 45.24 45.23 44.31 45.84 32.61 26.57 33.54 25.96"/><polygon class="cls-13" points="78.51 26.08 77.59 26.69 44.31 45.84 45.24 45.23 78.51 26.08"/><polygon class="cls-17" points="33.54 25.96 66.81 6.8 78.51 26.08 45.24 45.23 33.54 25.96"/><polygon class="cls-13" points="48.06 19.37 48.16 19.31 52.45 26.38 40.25 33.4 40.18 33.3 52.28 26.33 48.06 19.37"/><polygon class="cls-4" points="48.06 19.37 52.28 26.33 40.18 33.3 35.96 26.34 48.06 19.37"/><path class="cls-18" d="M47.6,21.22l2.8,4.62a.58.58,0,0,1-.21.81L41.43,31.7a.58.58,0,0,1-.79-.21l-2.8-4.62a.59.59,0,0,1,.2-.81l8.76-5A.59.59,0,0,1,47.6,21.22Z"/><polygon class="cls-12" points="30.42 78.64 30.42 52.68 40.55 46.85 40.39 46.76 30.26 52.59 30.26 78.45 16.77 70.69 16.77 70.87 30.42 78.64"/><polygon class="cls-8" points="30.31 78.57 30.31 52.61 40.47 46.8 40.31 46.71 30.15 52.52 30.15 78.29 16.77 70.58 16.77 70.77 30.31 78.57"/><path class="cls-7" d="M42,61h0A2.47,2.47,0,0,0,43.11,59a1.46,1.46,0,0,0,0-.31.8.8,0,0,1,.33.73,2.5,2.5,0,0,1-1.13,2h0c-.53.31-1,.15-1.1-.34A.81.81,0,0,0,42,61Z"/><path class="cls-13" d="M42.26,58.79a.81.81,0,0,1,.81-.08,1.46,1.46,0,0,1,0,.31A2.47,2.47,0,0,1,42,61h0a.81.81,0,0,1-.81.08,1.36,1.36,0,0,1,0-.3A2.51,2.51,0,0,1,42.26,58.79Z"/><path class="cls-7" d="M42,64.66h0a2.47,2.47,0,0,0,1.13-1.95,1.37,1.37,0,0,0,0-.31.8.8,0,0,1,.33.73,2.5,2.5,0,0,1-1.13,1.95h0c-.53.31-1,.15-1.1-.34A.81.81,0,0,0,42,64.66Z"/><path class="cls-13" d="M42.26,62.48a.81.81,0,0,1,.81-.08,1.37,1.37,0,0,1,0,.31A2.47,2.47,0,0,1,42,64.66h0a.81.81,0,0,1-.81.08,1.36,1.36,0,0,1,0-.3A2.51,2.51,0,0,1,42.26,62.48Z"/><path class="cls-7" d="M42,68.35h0a2.47,2.47,0,0,0,1.13-1.95,1.37,1.37,0,0,0,0-.31.8.8,0,0,1,.33.73,2.5,2.5,0,0,1-1.13,2h0c-.53.31-1,.15-1.1-.34A.81.81,0,0,0,42,68.35Z"/><path class="cls-13" d="M42.26,66.17a.81.81,0,0,1,.81-.08,1.37,1.37,0,0,1,0,.31A2.47,2.47,0,0,1,42,68.35h0a.81.81,0,0,1-.81.08,1.36,1.36,0,0,1,0-.3A2.51,2.51,0,0,1,42.26,66.17Z"/><path class="cls-7" d="M87.13,42.21h0a2.46,2.46,0,0,0,1.12-2,1.06,1.06,0,0,0,0-.31.8.8,0,0,1,.33.73,2.49,2.49,0,0,1-1.12,2h0c-.52.31-1,.15-1.09-.34A.81.81,0,0,0,87.13,42.21Z"/><path class="cls-13" d="M87.41,40a.79.79,0,0,1,.8-.08,1.06,1.06,0,0,1,0,.31,2.46,2.46,0,0,1-1.12,2h0a.81.81,0,0,1-.81.08,1,1,0,0,1,0-.3A2.46,2.46,0,0,1,87.41,40Z"/><path class="cls-8" d="M28.62,47.87v0a0,0,0,0,1,0,0,.06.06,0,0,1,0,0l0,0,0,0s0,0,0,0l0,0,0,0,0,0a0,0,0,0,0,0,0,.1.1,0,0,0,.05,0l0,0,.08.05a1.82,1.82,0,0,0,1.64,0l.08-.05,0,0a.1.1,0,0,0,0,0,0,0,0,0,0,0,0l0,0,0,0,0,0,0,0,0,0V47.9s0,0,0,0V47.8h0v.48a.58.58,0,0,1-.34.48,1.82,1.82,0,0,1-1.64,0,.57.57,0,0,1-.34-.47v-.45A0,0,0,0,0,28.62,47.87Z"/><path class="cls-7" d="M30.93,47.84v0s0,0,0,0V48l0,0,0,0,0,0,0,0,0,0a0,0,0,0,1,0,0,.1.1,0,0,1,0,0l0,0-.08.05a1.82,1.82,0,0,1-1.64,0l-.08-.05,0,0a.1.1,0,0,1-.05,0,0,0,0,0,1,0,0l0,0,0,0,0,0s0,0,0,0l0,0,0,0a.06.06,0,0,0,0,0,0,0,0,0,0,0,0v0a0,0,0,0,1,0,0,.57.57,0,0,1,.34-.51,1.78,1.78,0,0,1,1.65,0,.57.57,0,0,1,.33.47Z"/><path class="cls-8" d="M32.14,45.82v.06s0,0,0,0a0,0,0,0,1,0,0l0,0,0,0,0,0,0,0,0,0,0,0,0,0,0,0,.08,0a1.84,1.84,0,0,0,1.65,0l.08,0,0,0,.05,0,0,0,0,0,0,0,0,0s0,0,0,0a.05.05,0,0,0,0,0s0,0,0,0,0,0,0,0a149848826725,149848826725,0,0,0,0-.06v-.07h0v.48a.58.58,0,0,1-.34.48,1.84,1.84,0,0,1-1.65,0,.61.61,0,0,1-.34-.47v-.42Z"/><path class="cls-7" d="M34.46,45.79v0a149848826725,149848826725,0,0,1,0,.06s0,0,0,0,0,0,0,0a.05.05,0,0,1,0,0s0,0,0,0l0,0,0,0,0,0,0,0-.05,0,0,0-.08,0a1.84,1.84,0,0,1-1.65,0l-.08,0,0,0,0,0,0,0,0,0,0,0,0,0,0,0,0,0a0,0,0,0,0,0,0s0,0,0,0v-.09a.56.56,0,0,1,.34-.51,1.79,1.79,0,0,1,1.64,0,.57.57,0,0,1,.34.47Z"/><path class="cls-8" d="M32.14,48.3s0,0,0,0v0s0,0,0,0a0,0,0,0,1,0,0l0,0,0,0,0,0,0,0,0,0,0,0,0,0,0,0,.08.05a1.78,1.78,0,0,0,1.65,0l.08-.05,0,0,.05,0,0,0,0,0,0,0,0,0s0,0,0,0l0,0,0,0a.06.06,0,0,1,0,0v0a0,0,0,0,1,0,0v-.06h0v.48a.57.57,0,0,1-.34.48,1.78,1.78,0,0,1-1.65,0,.61.61,0,0,1-.34-.47V48.3Z"/><path class="cls-7" d="M34.46,48.27v0a0,0,0,0,0,0,0v0a.06.06,0,0,0,0,0l0,0,0,0s0,0,0,0l0,0,0,0,0,0,0,0-.05,0,0,0-.08.05a1.78,1.78,0,0,1-1.65,0l-.08-.05,0,0,0,0,0,0,0,0,0,0,0,0,0,0,0,0a0,0,0,0,0,0,0s0,0,0,0v0s0,0,0,0v0a.56.56,0,0,1,.34-.51,1.82,1.82,0,0,1,1.64,0,.57.57,0,0,1,.34.48Z"/><path class="cls-6" d="M25,44.37s0,0,0,.06,0,0,0,0a.14.14,0,0,0,0,.06s0,0,0,.05l0,.06,0,.05,0,.06,0,0,.06.06a.08.08,0,0,0,0,0l.08.07,0,0,.14.09a3.15,3.15,0,0,0,2.85,0l.14-.08,0,0,.09-.07,0,0,.06-.06,0,0,.05-.06s0,0,0-.05l0-.06s0,0,0-.05l0-.06s0,0,0,0,0,0,0-.06a.11.11,0,0,0,0,0v-.06h0l0,.54a1,1,0,0,1-.6.83,3.12,3.12,0,0,1-2.85,0A1,1,0,0,1,25,44.8l0-.54a.13.13,0,0,0,0,.06Z"/><path class="cls-6" d="M29,44.32a.11.11,0,0,1,0,0s0,0,0,.06,0,0,0,0l0,.06s0,0,0,.05l0,.06s0,0,0,.05l-.05.06,0,0-.06.06,0,0-.09.07,0,0-.14.08a3.15,3.15,0,0,1-2.85,0L25.45,45l0,0-.08-.07a.08.08,0,0,1,0,0l-.06-.06,0,0,0-.06,0-.05,0-.06s0,0,0-.05a.14.14,0,0,1,0-.06s0,0,0,0,0,0,0-.06v0a1,1,0,0,1,.59-.89,3.18,3.18,0,0,1,2.85,0,1,1,0,0,1,.58.83Z"/><path class="cls-7" d="M26.41,42.48v.08h0v0l0,0v0h0v0l0,0h0l.05,0a1,1,0,0,0,.94,0l0,0h0l0,0v0l0,0h0v0s0,0,0,0v0h0v0a0,0,0,0,0,0,0v0h0v1.7a.33.33,0,0,1-.2.27,1,1,0,0,1-.94,0,.31.31,0,0,1-.19-.27V42.47Z"/><path class="cls-19" d="M27.73,42.46v0a0,0,0,0,1,0,0v0h0v0s0,0,0,0v0h0l0,0v0l0,0h0l0,0a1,1,0,0,1-.94,0l-.05,0h0l0,0v0h0v0l0,0v0h0v-.08h0a.32.32,0,0,1,.19-.3,1.1,1.1,0,0,1,.94,0,.34.34,0,0,1,.19.28Z"/><g class="cls-20"><path class="cls-4" d="M45.67,56.63h0c.56-.32,1-.06,1,.58v3.35a2.23,2.23,0,0,1-1,1.75c-.56.32-1,.06-1-.58V58.39A2.2,2.2,0,0,1,45.67,56.63Z"/><path class="cls-21" d="M45.58,56.48h0c.55-.32,1-.06,1,.59v3.34a2.23,2.23,0,0,1-1,1.75c-.56.33-1,.06-1-.58V58.24A2.23,2.23,0,0,1,45.58,56.48Z"/><path class="cls-22" d="M45.48,56.34h0c.56-.33,1-.06,1,.58v3.34a2.22,2.22,0,0,1-1,1.75c-.56.33-1,.07-1-.58V58.09A2.23,2.23,0,0,1,45.48,56.34Z"/><path class="cls-23" d="M45.39,56.19h0c.56-.33,1-.06,1,.58v3.35a2.21,2.21,0,0,1-1,1.75c-.57.32-1,.06-1-.59V57.94A2.23,2.23,0,0,1,45.39,56.19Z"/><path class="cls-24" d="M45.3,56h0c.56-.32,1-.06,1,.58V60a2.25,2.25,0,0,1-1,1.75c-.56.32-1,.06-1-.58V57.79A2.18,2.18,0,0,1,45.3,56Z"/><path class="cls-25" d="M45.2,55.89h0c.55-.32,1-.06,1,.58v3.35a2.23,2.23,0,0,1-1,1.75c-.56.32-1,.06-1-.58V57.64A2.25,2.25,0,0,1,45.2,55.89Z"/><path class="cls-26" d="M45.11,55.74h0c.56-.32,1-.06,1,.59v3.34a2.23,2.23,0,0,1-1,1.75c-.56.33-1,.06-1-.58V57.5A2.25,2.25,0,0,1,45.11,55.74Z"/><path class="cls-27" d="M45,55.6h0c.56-.32,1-.05,1,.59v3.34a2.19,2.19,0,0,1-1,1.75c-.57.33-1,.06-1-.58V57.35A2.23,2.23,0,0,1,45,55.6Z"/><path class="cls-28" d="M44.93,55.45h0c.56-.33,1-.06,1,.58v3.34a2.25,2.25,0,0,1-1,1.76c-.56.32-1,.06-1-.59V57.2A2.21,2.21,0,0,1,44.93,55.45Z"/><path class="cls-29" d="M44.83,55.3h0c.56-.32,1-.06,1,.58v3.35a2.25,2.25,0,0,1-1,1.75c-.56.32-1,.06-1-.58V57.05A2.23,2.23,0,0,1,44.83,55.3Z"/><path class="cls-30" d="M44.74,55.15h0c.56-.32,1-.06,1,.58v3.35a2.23,2.23,0,0,1-1,1.75c-.56.32-1,.06-1-.58V56.9A2.25,2.25,0,0,1,44.74,55.15Z"/><path class="cls-13" d="M44.65,55h0c.56-.32,1-.06,1,.59v3.34a2.22,2.22,0,0,1-1,1.75c-.57.33-1,.06-1-.58V56.76A2.25,2.25,0,0,1,44.65,55Z"/></g><g class="cls-31"><polygon class="cls-32" points="44.97 58.09 44.97 59.24 44.52 58.98 44.51 57.83 44.97 58.09"/><polygon class="cls-15" points="44.51 57.83 45.52 57.25 45.97 57.51 44.97 58.09 44.51 57.83"/><polygon class="cls-33" points="45.97 57.51 45.97 58.66 44.97 59.24 44.97 58.09 45.97 57.51"/><polygon class="cls-34" points="45.43 58.37 45.43 59.32 45.05 59.1 45.05 58.15 45.43 58.37"/><polygon class="cls-35" points="45.05 58.15 45.88 57.67 46.26 57.89 45.43 58.37 45.05 58.15"/><polygon class="cls-18" points="46.26 57.89 46.26 58.84 45.43 59.32 45.43 58.37 46.26 57.89"/><polygon class="cls-32" points="44.97 60.52 44.97 61.67 44.52 61.41 44.51 60.26 44.97 60.52"/><polygon class="cls-15" points="44.51 60.26 45.52 59.68 45.97 59.94 44.97 60.52 44.51 60.26"/><polygon class="cls-33" points="45.97 59.94 45.97 61.09 44.97 61.67 44.97 60.52 45.97 59.94"/><polygon class="cls-19" points="45.43 60.8 45.43 61.75 45.05 61.53 45.05 60.58 45.43 60.8"/><polygon class="cls-36" points="45.05 60.58 45.88 60.1 46.26 60.32 45.43 60.8 45.05 60.58"/><polygon class="cls-37" points="46.26 60.32 46.26 61.27 45.43 61.75 45.43 60.8 46.26 60.32"/></g><g class="cls-38"><path class="cls-4" d="M45.67,63.72h0c.56-.32,1-.06,1,.58v3.35a2.23,2.23,0,0,1-1,1.75c-.56.32-1,.06-1-.58V65.47A2.19,2.19,0,0,1,45.67,63.72Z"/><path class="cls-21" d="M45.58,63.57h0c.55-.32,1-.06,1,.58V67.5a2.23,2.23,0,0,1-1,1.75c-.56.32-1,.06-1-.58V65.33A2.23,2.23,0,0,1,45.58,63.57Z"/><path class="cls-22" d="M45.48,63.42h0c.56-.32,1-.06,1,.59v3.34a2.23,2.23,0,0,1-1,1.75c-.56.33-1,.06-1-.58V65.18A2.25,2.25,0,0,1,45.48,63.42Z"/><path class="cls-23" d="M45.39,63.28h0c.56-.33,1-.06,1,.58V67.2a2.18,2.18,0,0,1-1,1.75c-.57.33-1,.07-1-.58V65A2.23,2.23,0,0,1,45.39,63.28Z"/><path class="cls-24" d="M45.3,63.13h0c.56-.33,1-.06,1,.58v3.34a2.25,2.25,0,0,1-1,1.76c-.56.32-1,.06-1-.58V64.88A2.18,2.18,0,0,1,45.3,63.13Z"/><path class="cls-25" d="M45.2,63h0c.55-.32,1-.06,1,.58v3.35a2.23,2.23,0,0,1-1,1.75c-.56.32-1,.06-1-.58V64.73A2.23,2.23,0,0,1,45.2,63Z"/><path class="cls-26" d="M45.11,62.83h0c.56-.32,1-.06,1,.58v3.35a2.23,2.23,0,0,1-1,1.75c-.56.32-1,.06-1-.58V64.58A2.25,2.25,0,0,1,45.11,62.83Z"/><path class="cls-27" d="M45,62.68h0c.56-.32,1-.06,1,.59v3.34a2.19,2.19,0,0,1-1,1.75c-.57.33-1,.06-1-.58V64.44A2.25,2.25,0,0,1,45,62.68Z"/><path class="cls-28" d="M44.93,62.53h0c.56-.32,1-.06,1,.59v3.34a2.22,2.22,0,0,1-1,1.75c-.56.33-1,.07-1-.58V64.29A2.25,2.25,0,0,1,44.93,62.53Z"/><path class="cls-29" d="M44.83,62.39h0c.56-.33,1-.06,1,.58v3.34a2.22,2.22,0,0,1-1,1.75c-.56.33-1,.07-1-.58V64.14A2.23,2.23,0,0,1,44.83,62.39Z"/><path class="cls-30" d="M44.74,62.24h0c.56-.32,1-.06,1,.58v3.35a2.25,2.25,0,0,1-1,1.75c-.56.32-1,.06-1-.58V64A2.23,2.23,0,0,1,44.74,62.24Z"/><path class="cls-13" d="M44.65,62.09h0c.56-.32,1-.06,1,.58V66a2.22,2.22,0,0,1-1,1.75c-.57.32-1,.06-1-.58V63.84A2.25,2.25,0,0,1,44.65,62.09Z"/></g><g class="cls-39"><polygon class="cls-32" points="44.97 65.18 44.97 66.33 44.52 66.07 44.51 64.92 44.97 65.18"/><polygon class="cls-15" points="44.51 64.92 45.52 64.34 45.97 64.6 44.97 65.18 44.51 64.92"/><polygon class="cls-33" points="45.97 64.6 45.97 65.75 44.97 66.33 44.97 65.18 45.97 64.6"/><polygon class="cls-34" points="45.43 65.45 45.43 66.41 45.05 66.19 45.05 65.24 45.43 65.45"/><polygon class="cls-35" points="45.05 65.24 45.88 64.76 46.26 64.97 45.43 65.45 45.05 65.24"/><polygon class="cls-18" points="46.26 64.97 46.26 65.93 45.43 66.41 45.43 65.45 46.26 64.97"/><polygon class="cls-32" points="44.97 67.61 44.97 68.76 44.52 68.5 44.51 67.34 44.97 67.61"/><polygon class="cls-15" points="44.51 67.34 45.52 66.76 45.97 67.03 44.97 67.61 44.51 67.34"/><polygon class="cls-33" points="45.97 67.03 45.97 68.18 44.97 68.76 44.97 67.61 45.97 67.03"/><polygon class="cls-19" points="45.43 67.88 45.43 68.84 45.05 68.62 45.05 67.67 45.43 67.88"/><polygon class="cls-36" points="45.05 67.67 45.88 67.19 46.26 67.4 45.43 67.88 45.05 67.67"/><polygon class="cls-37" points="46.26 67.4 46.26 68.36 45.43 68.84 45.43 67.88 46.26 67.4"/></g><path class="cls-13" d="M77.35,32.61h0a.35.35,0,0,0-.14,0h0A.35.35,0,0,1,77.35,32.61Z"/><path class="cls-13" d="M77.47,32.7h0l-.09-.07h0Z"/><path class="cls-13" d="M77.59,32.89a.45.45,0,0,1,0,.2.45.45,0,0,0,0-.2.8.8,0,0,0-.08-.16h0A.8.8,0,0,1,77.59,32.89Z"/><polygon class="cls-13" points="77.6 34.67 77.6 34.67 77.6 34.67 77.6 34.67 77.6 34.67 77.6 34.67"/><path class="cls-13" d="M77.47,34.41h0a.21.21,0,0,1,0-.06h0A.21.21,0,0,0,77.47,34.41Z"/><path class="cls-13" d="M76.62,34Z"/><path class="cls-13" d="M76.76,34Z"/><path class="cls-13" d="M77.6,34.67a1.46,1.46,0,0,1,0,.85,1.26,1.26,0,0,0,0-.39,1.44,1.44,0,0,0-.08-.46Z"/><path class="cls-13" d="M76.91,36.31Z"/><path class="cls-35" d="M76.56,34h0l-.18.08h0Z"/><path class="cls-35" d="M76.74,34Z"/><path class="cls-13" d="M76.26,31.43a.24.24,0,0,0,0-.12h0A.24.24,0,0,1,76.26,31.43Z"/><path class="cls-13" d="M76.26,31.31h0l-.06-.06h0Z"/><path class="cls-13" d="M76.37,32.8h0a.65.65,0,0,1,0,.2.65.65,0,0,0,0-.2Z"/><path class="cls-13" d="M76.12,32.52h0a.33.33,0,0,0-.13,0h0A.33.33,0,0,1,76.12,32.52Z"/><path class="cls-13" d="M76.37,32.8h0a.51.51,0,0,0-.09-.16h0A.51.51,0,0,1,76.37,32.8Z"/><path class="cls-13" d="M76.25,32.61h0a.28.28,0,0,0-.09-.07h0A.28.28,0,0,1,76.25,32.61Z"/><path class="cls-13" d="M76.06,30.76a.24.24,0,0,1,0,.12.24.24,0,0,0,0-.12s0-.05-.06-.07h0S76.05,30.73,76.06,30.76Z"/><path class="cls-13" d="M76,30.69h0s0,0-.08,0h0S76,30.68,76,30.69Z"/><polygon class="cls-40" points="75.58 30.21 75.58 30.21 74.4 30.89 74.4 30.89 74.4 30.89 75.58 30.21"/><path class="cls-13" d="M75.86,30.21a.09.09,0,0,0-.06-.07h0A.09.09,0,0,1,75.86,30.21Z"/><path class="cls-13" d="M75.78,30.13h0s0,0-.07,0h0S75.76,30.13,75.78,30.13Z"/><rect class="cls-13" x="75.64" y="30.1" height="0.15"/><path class="cls-35" d="M76.38,34.08h0a1.2,1.2,0,0,0-.53.88A1.2,1.2,0,0,1,76.38,34.08Z"/><path class="cls-13" d="M75.66,29.66a.14.14,0,0,1,0,.11A.14.14,0,0,0,75.66,29.66Z"/><path class="cls-6" d="M76.37,32.8a.51.51,0,0,0-.09-.16l0,0a.28.28,0,0,0-.09-.07l0,0a.33.33,0,0,0-.13,0h0a.58.58,0,0,0-.16.05.59.59,0,0,0-.19.7.43.43,0,0,0,.38.31.58.58,0,0,0,.16,0,.58.58,0,0,0,.24-.49.65.65,0,0,0,0-.2Z"/><path class="cls-13" d="M75.38,33.74h0a.35.35,0,0,0-.14,0h0A.35.35,0,0,1,75.38,33.74Z"/><path class="cls-13" d="M75.62,34a.45.45,0,0,1,0,.2.45.45,0,0,0,0-.2.48.48,0,0,0-.08-.16h0A.48.48,0,0,1,75.62,34Z"/><path class="cls-13" d="M75.5,33.84h0a.24.24,0,0,0-.09-.08h0A.24.24,0,0,1,75.5,33.84Z"/><polygon class="cls-40" points="75.24 33.71 75.24 33.71 75.24 33.71 75.24 33.71"/><path class="cls-13" d="M74.82,32.27a.06.06,0,0,0,.07,0,.06.06,0,0,1-.07,0Z"/><path class="cls-40" d="M74.74,32.08s0,0,0,0S74.74,32.06,74.74,32.08Z"/><polygon class="cls-40" points="74.81 32.27 74.82 32.27 74.82 32.27 74.81 32.27"/><rect class="cls-40" x="75.25" y="30.31" height="1.51"/><path class="cls-40" d="M74.61,31.71Z"/><path class="cls-40" d="M74.4,30.89a.16.16,0,0,0-.06.08.16.16,0,0,1,.06-.08Z"/><path class="cls-40" d="M75.78,30.13s0,0-.07,0l-.13.07-1.18.68a.16.16,0,0,0-.06.08.14.14,0,0,0,0,.11.1.1,0,0,0,.06.08.08.08,0,0,0,.09,0l1.3-.75a.15.15,0,0,0,.06-.09.2.2,0,0,0,0-.11.09.09,0,0,0-.06-.07Z"/><path class="cls-40" d="M75.51,29.58l-1.31.76a.16.16,0,0,0,0,.19c0,.08.09.11.15.08l1.3-.76s.05,0,.07-.08a.14.14,0,0,0,0-.11A.11.11,0,0,0,75.51,29.58Z"/><path class="cls-13" d="M74.46,35.29h0l-.09-.07h0Z"/><path class="cls-13" d="M74.33,35.2h0a.35.35,0,0,0-.14,0h0A.35.35,0,0,1,74.33,35.2Z"/><path class="cls-40" d="M74.19,35.17h0a.32.32,0,0,0-.16,0h0A.32.32,0,0,1,74.19,35.17Z"/><path class="cls-13" d="M74,34h0a.22.22,0,0,0-.09-.07h0A.22.22,0,0,1,74,34Z"/><path class="cls-13" d="M74.1,34.16a.45.45,0,0,1,0,.2.45.45,0,0,0,0-.2A.8.8,0,0,0,74,34h0A.8.8,0,0,1,74.1,34.16Z"/><path class="cls-40" d="M74,35.21h0a.37.37,0,0,0-.13.12A.37.37,0,0,1,74,35.21Z"/><path class="cls-13" d="M73.63,37.2h0a.22.22,0,0,0-.14,0h0A.22.22,0,0,1,73.63,37.2Z"/><path class="cls-13" d="M73.76,37.29h0l-.09-.07h0Z"/><path class="cls-13" d="M73.51,32.65h0a.28.28,0,0,0-.09-.07h0A.28.28,0,0,1,73.51,32.65Z"/><path class="cls-13" d="M73.38,32.56h0a.22.22,0,0,0-.14,0h0A.22.22,0,0,1,73.38,32.56Z"/><path class="cls-40" d="M73.49,37.17h0a.32.32,0,0,0-.16,0h0A.32.32,0,0,1,73.49,37.17Z"/><path class="cls-40" d="M73.32,34.38a1.23,1.23,0,0,1,0-.19A1.23,1.23,0,0,0,73.32,34.38Z"/><rect class="cls-40" x="73.24" y="32.52"/><path class="cls-40" d="M73.24,32.52h0a.58.58,0,0,0-.16,0h0A.58.58,0,0,1,73.24,32.52Z"/><path class="cls-13" d="M73.4,36.15h0a.71.71,0,0,0-.08-.15h0A.71.71,0,0,1,73.4,36.15Z"/><path class="cls-13" d="M73.29,36h0l-.09-.07h0Z"/><path class="cls-40" d="M73.09,37.7a.78.78,0,0,0,0,.21h0A.78.78,0,0,1,73.09,37.7Z"/><path class="cls-40" d="M73.22,38.06v0Z"/><path class="cls-40" d="M73.33,37.21h0a.49.49,0,0,0-.13.12A.49.49,0,0,1,73.33,37.21Z"/><path class="cls-40" d="M73.78,37.31l0,0-.09-.07,0,0a.22.22,0,0,0-.14,0h0a.32.32,0,0,0-.16,0,.49.49,0,0,0-.13.12.67.67,0,0,0-.11.37.78.78,0,0,0,0,.21.38.38,0,0,0,.09.15v0a.41.41,0,0,0,.3.14.37.37,0,0,0,.16,0,.53.53,0,0,0,.23-.49.64.64,0,0,0,0-.2A.55.55,0,0,0,73.78,37.31Z"/><path class="cls-13" d="M73.16,31.51a.76.76,0,0,1,0,.21.76.76,0,0,0,0-.21.38.38,0,0,0-.09-.15h0A.38.38,0,0,1,73.16,31.51Z"/><path class="cls-13" d="M73,32.21h0a.54.54,0,0,0,.23-.47A.54.54,0,0,1,73,32.21Z"/><path class="cls-13" d="M73,31.33h0a.28.28,0,0,0-.09-.07h0A.28.28,0,0,1,73,31.33Z"/><path class="cls-13" d="M72.91,31.23h0a.32.32,0,0,0-.14,0h0A.32.32,0,0,1,72.91,31.23Z"/><path class="cls-40" d="M73.08,32.57h0a.49.49,0,0,0-.13.12A.49.49,0,0,1,73.08,32.57Z"/><path class="cls-13" d="M72.37,35.5h0s0,0,0,0h0S72.38,35.51,72.37,35.5Z"/><path class="cls-13" d="M72.81,34.65h0a.34.34,0,0,0-.09-.08h0A.34.34,0,0,1,72.81,34.65Z"/><path class="cls-13" d="M72.68,34.55h0a.31.31,0,0,0-.13,0h0A.31.31,0,0,1,72.68,34.55Z"/><path class="cls-40" d="M72.86,35.89a.53.53,0,0,0-.24.49A.53.53,0,0,1,72.86,35.89Z"/><path class="cls-40" d="M73.32,36l0,0-.09-.07,0,0a.31.31,0,0,0-.31,0,.53.53,0,0,0-.24.49.52.52,0,0,0,0,.21.45.45,0,0,0,.23.27.31.31,0,0,0,.31,0,.5.5,0,0,0,.22-.29,1.36,1.36,0,0,0,0-.2.52.52,0,0,0,0-.21A.71.71,0,0,0,73.32,36Z"/><path class="cls-40" d="M72.54,34.52h0a.3.3,0,0,0-.15,0h0A.3.3,0,0,1,72.54,34.52Z"/><rect class="cls-40" x="72.54" y="34.52"/><path class="cls-40" d="M72.37,31.74a.69.69,0,0,1,0-.2A.69.69,0,0,0,72.37,31.74Z"/><path class="cls-40" d="M72.61,31.25a.48.48,0,0,0-.21.29.69.69,0,0,0,0,.2.78.78,0,0,0,0,.21.44.44,0,0,0,.39.31.37.37,0,0,0,.16,0h0a.54.54,0,0,0,.23-.47v0a.76.76,0,0,0,0-.21.38.38,0,0,0-.09-.15l0,0a.28.28,0,0,0-.09-.07l0,0a.32.32,0,0,0-.14,0h0A.33.33,0,0,0,72.61,31.25Z"/><path class="cls-13" d="M72.34,33.32h0l-.09-.07h0Z"/><path class="cls-13" d="M72.46,33.51h0a.38.38,0,0,0-.09-.15h0A.38.38,0,0,1,72.46,33.51Z"/><path class="cls-40" d="M72.39,35.52h0l0,0Z"/><path class="cls-40" d="M72.27,35.42h0l0,0h0Z"/><path class="cls-40" d="M72.39,34.57h0a.41.41,0,0,0-.14.12A.41.41,0,0,1,72.39,34.57Z"/><path class="cls-40" d="M72.84,34.66h0a.34.34,0,0,0-.09-.08l0,0a.31.31,0,0,0-.13,0h0a.3.3,0,0,0-.15,0,.41.41,0,0,0-.14.12.67.67,0,0,0-.07.57l.09.16,0,0a.18.18,0,0,0,.07,0s0,0,0,0l0,0a.32.32,0,0,0,.16,0,.49.49,0,0,0,.16,0A.58.58,0,0,0,73,35a.52.52,0,0,0,0-.21A.56.56,0,0,0,72.84,34.66Z"/><path class="cls-13" d="M71.48,32.9h0l.14,0h0Z"/><path class="cls-13" d="M71.74,31.91h0a.35.35,0,0,0-.14,0h0A.35.35,0,0,1,71.74,31.91Z"/><path class="cls-13" d="M71.83,32l0,0h0Z"/><path class="cls-40" d="M71.91,33.25a.56.56,0,0,0-.24.49A.56.56,0,0,1,71.91,33.25Z"/><path class="cls-40" d="M71.91,33.25a.56.56,0,0,0-.24.49,1.18,1.18,0,0,0,0,.2.47.47,0,0,0,.23.28.33.33,0,0,0,.32,0,.52.52,0,0,0,.21-.3.64.64,0,0,0,0-.2,1.77,1.77,0,0,0,0-.2.38.38,0,0,0-.09-.15l0,0-.09-.07h0A.33.33,0,0,0,71.91,33.25Z"/><path class="cls-40" d="M71.6,31.88h0a.32.32,0,0,0-.16,0h0A.32.32,0,0,1,71.6,31.88Z"/><path class="cls-13" d="M71.78,35.89a.7.7,0,0,0,0-.38A.7.7,0,0,1,71.78,35.89Z"/><path class="cls-13" d="M71.52,35.23h0l-.14,0h0Z"/><path class="cls-40" d="M71.38,35.2h0a.34.34,0,0,0-.16,0h0A.35.35,0,0,1,71.38,35.2Z"/><path class="cls-40" d="M71.47,32.9h0Z"/><path class="cls-40" d="M71.44,31.92h0a.8.8,0,0,0-.13.13A.8.8,0,0,1,71.44,31.92Z"/><path class="cls-40" d="M71.74,31.91a.35.35,0,0,0-.14,0h0a.32.32,0,0,0-.16,0,.8.8,0,0,0-.13.13.63.63,0,0,0-.07.57.5.5,0,0,0,.23.28h0l.14,0h0a.29.29,0,0,0,.16,0,.54.54,0,0,0,.24-.5.69.69,0,0,0,0-.2.63.63,0,0,0-.16-.22l0,0Z"/><path class="cls-13" d="M71.17,34h0l-.09-.07h0Z"/><path class="cls-13" d="M71,33.91h0a.32.32,0,0,0-.14,0h0A.32.32,0,0,1,71,33.91Z"/><path class="cls-13" d="M71.29,34.19A.51.51,0,0,0,71.2,34h0A.83.83,0,0,1,71.29,34.19Z"/><path class="cls-40" d="M71.21,35.24h0a.55.55,0,0,0-.23.5A.55.55,0,0,1,71.21,35.24Z"/><rect class="cls-40" x="70.9" y="33.88"/><path class="cls-13" d="M70.57,32.59h0a.33.33,0,0,0-.14,0h0A.33.33,0,0,1,70.57,32.59Z"/><path class="cls-40" d="M70.27,32.6h0a.49.49,0,0,1,.16-.05h0A.49.49,0,0,0,70.27,32.6Z"/><path class="cls-40" d="M70.27,32.6h0a.55.55,0,0,0-.24.49A.55.55,0,0,1,70.27,32.6Z"/><path class="cls-40" d="M70.43,32.55a.49.49,0,0,0-.16.05.55.55,0,0,0-.24.49.78.78,0,0,0,0,.21.59.59,0,0,0,.1.17.33.33,0,0,0,.44.09.53.53,0,0,0,.24-.49.45.45,0,0,0,0-.2.44.44,0,0,0-.23-.28h0A.33.33,0,0,0,70.43,32.55Z"/><rect class="cls-35" x="59.68" y="36.94" width="10.18" transform="translate(-9.79 37.33) rotate(-30)"/><polygon class="cls-13" points="69.52 34.2 69.18 34.39 69.18 34.39 69.52 34.2"/><path class="cls-8" d="M78.84,34.4l-1.79-5a1.08,1.08,0,0,0-1-.81l-.14,0h-.07a1,1,0,0,0-.21.09l-15.41,8.9a1.54,1.54,0,0,0-.53,1.81l1.79,5a1.43,1.43,0,0,0,.16.3.43.43,0,0,0,0,.07,1.47,1.47,0,0,0,.21.22h0a1.57,1.57,0,0,0,.25.14l.07,0a.69.69,0,0,0,.25,0,.79.79,0,0,0,.44-.12l15.41-8.9A1.53,1.53,0,0,0,78.84,34.4Zm-1.46-1.77.09.07,0,0a.8.8,0,0,1,.08.16.45.45,0,0,1,0,.2.64.64,0,0,1,0,.2.48.48,0,0,1-.21.29.31.31,0,0,1-.31,0,.42.42,0,0,1-.23-.27.58.58,0,0,1,.2-.7.29.29,0,0,1,.16,0h0a.35.35,0,0,1,.14,0h0S77.37,32.62,77.38,32.63Zm-4.65,2.9a.49.49,0,0,1-.16,0,.32.32,0,0,1-.16,0l0,0s0,0,0,0a.18.18,0,0,1-.07,0l0,0-.09-.16a.67.67,0,0,1,.07-.57.41.41,0,0,1,.14-.12h0a.3.3,0,0,1,.15,0h0a.31.31,0,0,1,.13,0l0,0a.34.34,0,0,1,.09.08h0a.56.56,0,0,1,.09.17A.52.52,0,0,1,73,35,.58.58,0,0,1,72.73,35.53Zm-1.62.58a.56.56,0,0,1-.09-.17.51.51,0,0,1,0-.2.55.55,0,0,1,.23-.5h0a.34.34,0,0,1,.16,0h0l.14,0h0a.5.5,0,0,1,.23.28.7.7,0,0,1,0,.38.53.53,0,0,1-.22.32A.35.35,0,0,1,71.11,36.11Zm-.34-1.22a.45.45,0,0,1-.23-.27.76.76,0,0,1,0-.21.59.59,0,0,1,.1-.37.49.49,0,0,1,.13-.12.32.32,0,0,1,.16,0h0a.32.32,0,0,1,.14,0h0l0,0,.09.07,0,0a.51.51,0,0,1,.09.16.6.6,0,0,1-.2.7A.36.36,0,0,1,70.77,34.89Zm1.46-1.65h0l.09.07,0,0a.38.38,0,0,1,.09.15,1.77,1.77,0,0,1,0,.2.64.64,0,0,1,0,.2.52.52,0,0,1-.21.3.33.33,0,0,1-.32,0,.47.47,0,0,1-.23-.28,1.18,1.18,0,0,1,0-.2.56.56,0,0,1,.24-.49A.33.33,0,0,1,72.23,33.24Zm1.21,3.12a1.36,1.36,0,0,1,0,.2.5.5,0,0,1-.22.29.31.31,0,0,1-.31,0,.45.45,0,0,1-.23-.27.52.52,0,0,1,0-.21.53.53,0,0,1,.24-.49.31.31,0,0,1,.31,0l0,0,.09.07,0,0a.71.71,0,0,1,.08.15A.52.52,0,0,1,73.44,36.36Zm2.93-3.56a.65.65,0,0,1,0,.2.58.58,0,0,1-.24.49.58.58,0,0,1-.16,0,.43.43,0,0,1-.38-.31.59.59,0,0,1,.19-.7.58.58,0,0,1,.16-.05h0a.33.33,0,0,1,.13,0l0,0a.28.28,0,0,1,.09.07l0,0A.51.51,0,0,1,76.37,32.8Zm-.17-1.55.06.06h0a.24.24,0,0,1,0,.12.1.1,0,0,1-.06.08l-1.31.75a.06.06,0,0,1-.07,0h0a.19.19,0,0,1-.07-.08.2.2,0,0,1,0-.11s0,0,0,0,0,0,0,0l1.3-.76h.1Zm-.2-.56s0,0,.06.07a.24.24,0,0,1,0,.12A.16.16,0,0,1,76,31l-1.3.75a.1.1,0,0,1-.09,0h0a.11.11,0,0,1-.06-.07.16.16,0,0,1,0-.2h0l1.3-.75h0s0,0,.08,0Zm-.2-.55a.09.09,0,0,1,.06.07.2.2,0,0,1,0,.11.15.15,0,0,1-.06.09l-1.3.75a.08.08,0,0,1-.09,0,.1.1,0,0,1-.06-.08.14.14,0,0,1,0-.11.16.16,0,0,1,.06-.08h0l1.18-.68.13-.07h0s.05,0,.07,0Zm-.14-.48a.14.14,0,0,1,0,.11s0,.07-.07.08l-1.3.76c-.06,0-.12,0-.15-.08a.16.16,0,0,1,0-.19l1.31-.76A.11.11,0,0,1,75.66,29.66Zm-1.79,4.22,0,0A.22.22,0,0,1,74,34l0,0a.8.8,0,0,1,.08.16.45.45,0,0,1,0,.2,1.23,1.23,0,0,1,0,.2.51.51,0,0,1-.22.29.3.3,0,0,1-.16,0,.42.42,0,0,1-.38-.31.52.52,0,0,1,0-.21,1.23,1.23,0,0,1,0-.19.49.49,0,0,1,.22-.3A.31.31,0,0,1,73.87,33.88Zm-.63-1.36h0a.22.22,0,0,1,.14,0,.05.05,0,0,1,0,0,.28.28,0,0,1,.09.07,0,0,0,0,1,0,0,.44.44,0,0,1,.1.16.78.78,0,0,1,0,.21.58.58,0,0,1-.24.49.34.34,0,0,1-.45-.09,1,1,0,0,1-.1-.17.68.68,0,0,1,.07-.58.49.49,0,0,1,.13-.12h0a.58.58,0,0,1,.16,0Zm-.47-1.32h0a.32.32,0,0,1,.14,0l0,0a.28.28,0,0,1,.09.07l0,0a.38.38,0,0,1,.09.15.76.76,0,0,1,0,.21v0a.54.54,0,0,1-.23.47.37.37,0,0,1-.16,0,.44.44,0,0,1-.39-.31.78.78,0,0,1,0-.21.69.69,0,0,1,0-.2.48.48,0,0,1,.21-.29.33.33,0,0,1,.16-.05Zm-1.17.68h0a.35.35,0,0,1,.14,0l0,0,0,0a.63.63,0,0,1,.16.22.69.69,0,0,1,0,.2.54.54,0,0,1-.24.5.29.29,0,0,1-.16,0h0l-.14,0h0a.5.5,0,0,1-.23-.28.63.63,0,0,1,.07-.57.8.8,0,0,1,.13-.13h0a.32.32,0,0,1,.16,0Zm-1.17.67h0a.33.33,0,0,1,.14,0h0a.44.44,0,0,1,.23.28.45.45,0,0,1,0,.2.53.53,0,0,1-.24.49.33.33,0,0,1-.44-.09.59.59,0,0,1-.1-.17.78.78,0,0,1,0-.21.55.55,0,0,1,.24-.49h0a.49.49,0,0,1,.16-.05ZM61.88,43.74l-1.52-4.26h0l8.82-5.09.33-.19L71,38.46ZM72,37.53a.31.31,0,0,1-.31,0,.5.5,0,0,1-.23-.28.71.71,0,0,1,0-.2.51.51,0,0,1,.24-.49c.21-.13.45,0,.54.26A.58.58,0,0,1,72,37.53Zm1.65.64a.37.37,0,0,1-.16,0,.41.41,0,0,1-.3-.14v0a.38.38,0,0,1-.09-.15h0a.78.78,0,0,1,0-.21.67.67,0,0,1,.11-.37.49.49,0,0,1,.13-.12h0a.32.32,0,0,1,.16,0h0a.22.22,0,0,1,.14,0l0,0,.09.07,0,0a.55.55,0,0,1,.1.17.64.64,0,0,1,0,.2A.53.53,0,0,1,73.68,38.17Zm.69-2a.35.35,0,0,1-.45-.09.68.68,0,0,1-.09-.17.65.65,0,0,1,.07-.58.37.37,0,0,1,.13-.12h0a.32.32,0,0,1,.16,0h0a.35.35,0,0,1,.14,0l0,0,.09.07,0,0a.55.55,0,0,1,.1.17.64.64,0,0,1,0,.2A.51.51,0,0,1,74.37,36.17Zm.74-1.44a.45.45,0,0,1-.14-.1.56.56,0,0,1-.09-.17.58.58,0,0,1,.2-.7.3.3,0,0,1,.16,0h0a.35.35,0,0,1,.14,0h0a.24.24,0,0,1,.09.08l0,0a.48.48,0,0,1,.08.16.45.45,0,0,1,0,.2.69.69,0,0,1,0,.2.38.38,0,0,1-.08.17.37.37,0,0,1-.13.12A.31.31,0,0,1,75.11,34.73Zm2.57.4a1.26,1.26,0,0,1,0,.39.11.11,0,0,0,0,0,1.19,1.19,0,0,1-.08.2,1,1,0,0,1-.4.46L77,36.3h-.06l-.12,0a.55.55,0,0,1-.18,0l-.17-.06a1,1,0,0,1-.51-.61,1.59,1.59,0,0,1-.08-.68,1.2,1.2,0,0,1,.53-.88h0l.18-.08h.35a.83.83,0,0,1,.47.3l.05.06a.21.21,0,0,0,0,.06,1.26,1.26,0,0,1,.13.26A1.44,1.44,0,0,1,77.68,35.13Z"/><path class="cls-36" d="M77.21,32.58h0a.29.29,0,0,0-.16,0,.58.58,0,0,0-.2.7.42.42,0,0,0,.23.27.31.31,0,0,0,.31,0,.48.48,0,0,0,.21-.29.64.64,0,0,0,0-.2.45.45,0,0,0,0-.2.8.8,0,0,0-.08-.16l0,0-.09-.07s0,0,0,0h0A.35.35,0,0,0,77.21,32.58Z"/><path class="cls-13" d="M75.84,28.63h.07l.14,0h-.39a1,1,0,0,0-.43.13h.4A1,1,0,0,1,75.84,28.63Z"/><path class="cls-35" d="M77.6,34.67h0a1.26,1.26,0,0,0-.13-.26.21.21,0,0,1,0-.06l-.05-.06a.83.83,0,0,0-.47-.3h-.35l-.18.08a1.2,1.2,0,0,0-.53.88,1.59,1.59,0,0,0,.08.68,1,1,0,0,0,.51.61l.17.06a.55.55,0,0,0,.18,0l.12,0H77l.18-.07a1,1,0,0,0,.4-.46,1.19,1.19,0,0,0,.08-.2.11.11,0,0,1,0,0A1.46,1.46,0,0,0,77.6,34.67Z"/><path class="cls-40" d="M75.63,34.43a.69.69,0,0,0,0-.2.45.45,0,0,0,0-.2.48.48,0,0,0-.08-.16l0,0a.24.24,0,0,0-.09-.08h0a.35.35,0,0,0-.14,0h0a.3.3,0,0,0-.16,0,.58.58,0,0,0-.2.7.56.56,0,0,0,.09.17.45.45,0,0,0,.14.1.31.31,0,0,0,.31,0,.37.37,0,0,0,.13-.12A.38.38,0,0,0,75.63,34.43Z"/><path class="cls-40" d="M76.1,31.24,74.8,32s0,0,0,0,0,0,0,0a.2.2,0,0,0,0,.11.19.19,0,0,0,.07.08h0a.06.06,0,0,0,.07,0l1.31-.75a.1.1,0,0,0,.06-.08.24.24,0,0,0,0-.12h0l-.06-.06h-.1Z"/><path class="cls-40" d="M76,30.69h0s0,0-.08,0l-1.3.75h0a.16.16,0,0,0,0,.2.11.11,0,0,0,.06.07h0a.1.1,0,0,0,.09,0L76,31a.16.16,0,0,0,.06-.08.24.24,0,0,0,0-.12S76,30.71,76,30.69Z"/><path class="cls-40" d="M74.48,35.31l0,0-.09-.07,0,0a.35.35,0,0,0-.14,0h0a.32.32,0,0,0-.16,0,.37.37,0,0,0-.13.12.65.65,0,0,0-.07.58.68.68,0,0,0,.09.17.35.35,0,0,0,.45.09.51.51,0,0,0,.24-.49.64.64,0,0,0,0-.2A.55.55,0,0,0,74.48,35.31Z"/><path class="cls-40" d="M73.56,33.89a.49.49,0,0,0-.22.3,1.23,1.23,0,0,0,0,.19.52.52,0,0,0,0,.21.42.42,0,0,0,.38.31.3.3,0,0,0,.16,0,.51.51,0,0,0,.22-.29,1.23,1.23,0,0,0,0-.2.45.45,0,0,0,0-.2A.8.8,0,0,0,74,34l0,0a.22.22,0,0,0-.09-.07l0,0A.31.31,0,0,0,73.56,33.89Z"/><path class="cls-40" d="M73.42,32.58a.05.05,0,0,0,0,0,.22.22,0,0,0-.14,0h0a.58.58,0,0,0-.16,0,.49.49,0,0,0-.13.12.68.68,0,0,0-.07.58,1,1,0,0,0,.1.17.34.34,0,0,0,.45.09.58.58,0,0,0,.24-.49.78.78,0,0,0,0-.21.44.44,0,0,0-.1-.16,0,0,0,0,0,0,0A.28.28,0,0,0,73.42,32.58Z"/><path class="cls-40" d="M71.69,36.57a.51.51,0,0,0-.24.49.71.71,0,0,0,0,.2.5.5,0,0,0,.23.28.31.31,0,0,0,.31,0,.58.58,0,0,0,.2-.7C72.14,36.57,71.9,36.44,71.69,36.57Z"/><path class="cls-40" d="M71.78,35.89a.7.7,0,0,0,0-.38.5.5,0,0,0-.23-.28h0l-.14,0a.35.35,0,0,0-.17,0,.55.55,0,0,0-.23.5.51.51,0,0,0,0,.2.56.56,0,0,0,.09.17.35.35,0,0,0,.45.1A.53.53,0,0,0,71.78,35.89Z"/><path class="cls-40" d="M71.09,34.89a.6.6,0,0,0,.2-.7A.83.83,0,0,0,71.2,34l0,0-.09-.07,0,0h0a.32.32,0,0,0-.14,0h0a.32.32,0,0,0-.16,0,.49.49,0,0,0-.13.12.59.59,0,0,0-.1.37.76.76,0,0,0,0,.21.45.45,0,0,0,.23.27A.36.36,0,0,0,71.09,34.89Z"/><path class="cls-13" d="M62.14,45.16a1.57,1.57,0,0,1-.25-.14h0a1.47,1.47,0,0,1-.21-.22.43.43,0,0,1,0-.07,1.43,1.43,0,0,1-.16-.3h-.4a1.08,1.08,0,0,0,1,.81h.39a.69.69,0,0,1-.25,0Z"/><polygon class="cls-35" points="69.18 34.39 60.36 39.48 60.36 39.48 61.88 43.74 71.04 38.46 69.52 34.2 69.18 34.39"/><polygon class="cls-13" points="75.63 28.72 75.23 28.73 59.82 37.63 60.22 37.62 75.63 28.72"/><polygon class="cls-13" points="59.7 39.43 59.29 39.43 61.08 44.42 61.48 44.42 59.7 39.43"/><path class="cls-13" d="M60.22,37.62h-.4a1.52,1.52,0,0,0-.53,1.8h.4A1.54,1.54,0,0,1,60.22,37.62Z"/><polygon class="cls-4" points="61.88 43.74 71.04 38.46 69.52 34.2 69.18 34.39 70.64 38.25 61.78 43.44 61.88 43.74"/><polygon class="cls-41" points="70.64 38.25 69.18 34.39 61.78 43.44 70.64 38.25"/><polygon class="cls-42" points="80.94 36.22 80.94 54.98 49.72 73.04 49.72 54.21 80.94 36.22"/><polygon class="cls-43" points="80.94 36.22 80.94 54.98 49.72 73.04 49.72 54.21 80.94 36.22"/><polygon class="cls-34" points="57.61 60.12 57.61 60.12 57.6 57.62 57.6 57.62 57.6 57.62 57.61 60.12"/><polygon class="cls-8" points="55.86 59.98 55.91 59.99 55.91 59.99 55.86 59.98"/><polygon class="cls-44" points="56.3 61.36 56.3 61.36 56.21 61.3 56.3 61.36"/><rect class="cls-8" x="53.96" y="61.77" width="0.05" transform="translate(-23.21 34) rotate(-29.07)"/><polygon class="cls-8" points="54.41 62.16 54.41 62.16 54.28 62.02 54.12 61.83 54.12 61.83 54.41 62.16"/><polygon class="cls-8" points="54.12 61.83 54.12 61.83 54.56 61.57 54.12 61.83"/><rect class="cls-8" x="54.35" y="61.15" height="0.81"/><polygon class="cls-36" points="54.12 61.04 54.12 61.04 54.12 60.72 54.12 60.72 54.12 60.72 54.12 61.04"/><polygon class="cls-44" points="54.12 61.04 54.12 61.04 54.12 61.33 54.41 61.16 54.12 61.33 54.12 61.04"/><rect class="cls-44" x="53.49" y="61.7" height="0.08"/><rect class="cls-44" x="53.56" y="60.95" height="0.78"/><polygon class="cls-13" points="53.56 61.75 53.56 61.75 53.56 61.75 53.56 61.73 53.56 61.73 53.56 61.75 53.53 61.74 53.53 61.74 53.56 61.75"/><rect class="cls-36" x="54.47" y="60.11" height="0.81"/><polygon class="cls-36" points="54.12 61.04 54.12 60.72 54.82 60.32 54.82 60.92 54.41 61.16 54.12 61.33 54.12 61.04"/><polygon class="cls-44" points="54.81 59.81 54.73 59.72 54.73 59.72 54.81 59.81 54.81 59.81 54.81 59.81 54.81 59.81"/><polygon class="cls-44" points="54.12 60.22 54.12 60.22 54.67 59.9 54.12 60.22"/><polygon class="cls-13" points="54.81 59.81 54.81 59.81 54.7 59.69 54.73 59.72 54.81 59.81"/><polygon class="cls-8" points="54.36 59.64 54.46 59.41 54.46 59.41 54.36 59.64"/><polygon class="cls-13" points="53.56 61.75 53.56 61.75 53.56 60.95 53.56 60.95 53.56 61.73 53.56 61.75"/><polygon class="cls-13" points="53.31 61.71 53.03 61.65 53.03 61.65 53.31 61.71"/><polygon class="cls-8" points="55.38 60.7 55.38 59.9 55.38 59.9 55.86 59.98 55.91 59.99 55.38 60.7"/><polygon class="cls-8" points="54.46 59.41 54.64 59.61 54.7 59.69 54.81 59.81 54.81 59.81 54.81 59.81 54.67 59.9 54.12 60.22 54.36 59.64 54.46 59.41"/><polygon class="cls-13" points="57.61 60.4 57.61 60.4 57.61 60.4 57.61 60.12 57.61 60.12 57.61 60.4"/><polygon class="cls-44" points="62.71 57.66 62.71 57.66 62.71 57.66 57.44 60.7 57.44 60.7 62.71 57.66"/><rect class="cls-34" x="60.06" y="53.35" height="5.69"/><path class="cls-44" d="M54.7,61.35l.54-.3V59.71l-1.53.89v1.33l.26-.15,0,0,.7-.41Zm-.29-.19-.29.17v-.61h0l.7-.4h0v.6Z"/><polygon class="cls-8" points="53.56 61.75 53.56 61.75 53.56 61.75 53.53 61.74 53.45 61.73 53.31 61.71 53.03 61.65 53.56 60.95 53.56 61.75"/><polygon class="cls-44" points="63.34 52.73 63.59 52.87 51.69 59.74 51.45 59.59 63.34 52.73"/><polygon class="cls-44" points="51.69 59.74 51.69 59.74 51.69 59.74 51.69 59.75 51.71 65.1 51.46 64.96 51.45 59.59 51.69 59.74"/><path class="cls-13" d="M51.69,59.74h0l0,5.35L63.6,58.24V52.87l-11.9,6.87Zm5.75,1h0V57.52l5.27-3h0v3.18l-5.27,3Zm-4.79,2.76h0V60.29l3.65-2.11v3.18Z"/><path class="cls-13" d="M57.44,60.7h0l5.27-3h0V54.48h0l-5.27,3Zm.17-.3h0V57.62h0l4.93-2.84h0v2.78Z"/><polygon class="cls-34" points="57.61 60.4 57.61 60.12 57.6 57.62 62.53 54.78 62.53 54.78 62.53 57.56 57.61 60.4 57.61 60.4"/><path class="cls-45" d="M52.64,63.18h0v.28l3.65-2.1V58.18l-3.65,2.11Zm.92-1.43h-.11L53,61.65h0l.53-.7h0v.8Zm1.25-1.94h0l-.14.09-.56.32h0l.25-.58.1-.23.18.2.09.11Zm.43,1.24-.54.3h0l-.7.41,0,0-.26.15h0V60.6l1.53-.89v1.34ZM55.9,60l-.52.71h0v-.8h0l.48.08Zm-1.43,2.24-.06-.07h0L54.28,62l-.16-.19h0l.44-.26.26-.15h0l-.29.67h0Z"/><polygon class="cls-8" points="54.47 62.23 54.41 62.16 54.12 61.83 54.12 61.83 54.12 61.83 54.56 61.57 54.82 61.42 54.82 61.42 54.82 61.42 54.82 61.42 54.53 62.09 54.47 62.23"/><polygon class="cls-15" points="81.7 36.66 81.7 37.54 50.48 55.52 50.49 54.64 81.7 36.66"/><polygon class="cls-40" points="49.72 54.2 80.94 36.22 81.7 36.66 50.49 54.64 49.72 54.2"/><polygon class="cls-32" points="49.72 54.2 50.49 54.64 50.48 55.52 49.72 55.08 49.72 54.2"/><polygon class="cls-15" points="76.47 23.32 76.47 25.63 45.25 43.61 45.25 41.31 76.47 23.32"/><polygon class="cls-40" points="44.49 40.87 75.7 22.88 76.47 23.32 45.25 41.31 44.49 40.87"/><polygon class="cls-32" points="44.49 40.87 45.25 41.31 45.25 43.61 44.49 42.37 44.49 40.87"/><polygon class="cls-15" points="81.7 54.66 81.7 55.53 50.48 73.51 50.49 72.64 81.7 54.66"/><polygon class="cls-40" points="49.72 72.19 80.94 54.21 81.7 54.66 50.49 72.64 49.72 72.19"/><polygon class="cls-32" points="49.72 72.19 50.49 72.64 50.48 73.51 49.72 73.07 49.72 72.19"/><polygon class="cls-15" points="81.7 45.43 81.7 46.31 64.56 56.18 64.57 55.3 81.7 45.43"/><polygon class="cls-40" points="63.8 54.86 80.94 44.99 81.7 45.43 64.57 55.3 63.8 54.86"/><polygon class="cls-32" points="63.8 54.86 64.57 55.3 64.56 56.18 63.8 55.74 63.8 54.86"/><path class="cls-8" d="M85.76,32.4l-.71,2.18a.14.14,0,0,0,.21.17l1.53-.89a.14.14,0,0,0,0-.2L86,32.36A.15.15,0,0,0,85.76,32.4Z"/></g></g></svg>