<svg id="图层_1" data-name="图层 1" xmlns="http://www.w3.org/2000/svg" xmlns:xlink="http://www.w3.org/1999/xlink" viewBox="0 0 123.32 166.98"><defs><style>.cls-1{fill:none;}.cls-2{fill:#153c41;}.cls-3{fill:#5eb3bf;}.cls-4{isolation:isolate;}.cls-5{clip-path:url(#clip-path);}.cls-6{fill:#0f2a31;}.cls-7{fill:#235259;}.cls-8{clip-path:url(#clip-path-2);}.cls-9{clip-path:url(#clip-path-3);}.cls-10{fill:#bae0e8;}.cls-11{fill:#deede9;}.cls-12{fill:#418683;}.cls-13{fill:#d6edf2;}.cls-14{fill:#5aa8a4;}.cls-15{fill:#fff;}.cls-16{clip-path:url(#clip-path-4);}.cls-17{clip-path:url(#clip-path-5);}.cls-18{fill:#a5d5e0;}.cls-19{fill:#dbeff3;}.cls-20{clip-path:url(#clip-path-6);}.cls-21{clip-path:url(#clip-path-7);}.cls-22{clip-path:url(#clip-path-8);}.cls-23{clip-path:url(#clip-path-9);}</style><clipPath id="clip-path"><path class="cls-1" d="M70,136.07l-.09,2.24c0,3.88-2.56,7.75-7.65,10.71C52,155,35.3,155,25,149c-5.2-3-7.79-6.93-7.78-10.86l.09-2.25c0,3.94,2.58,7.87,7.77,10.87,10.32,6,27,6,37.25,0C67.41,143.82,70,139.94,70,136.07Z"/></clipPath><clipPath id="clip-path-2"><path class="cls-1" d="M67.51,125l-.08,10.53c0,3.52-2.32,7-6.94,9.72-9.3,5.4-24.42,5.4-33.78,0-4.71-2.72-7.06-6.29-7-9.85l.08-10.54c0,3.56,2.34,7.13,7.05,9.85,9.36,5.4,24.48,5.4,33.78,0C65.18,132,67.5,128.49,67.51,125Z"/></clipPath><clipPath id="clip-path-3"><path class="cls-1" d="M72.2,115.8l0,5.7c0,4.21-2.78,8.42-8.31,11.63-11.14,6.47-29.25,6.47-40.46,0-5.64-3.25-8.46-7.53-8.45-11.8l0-5.69c0,4.27,2.8,8.54,8.44,11.8,11.21,6.47,29.33,6.47,40.46,0C69.42,124.22,72.19,120,72.2,115.8Z"/></clipPath><clipPath id="clip-path-4"><path class="cls-2" d="M26.75,88l1.05-.61a2.77,2.77,0,0,1,2.79.27l-1.05.61A2.8,2.8,0,0,0,26.75,88Z"/></clipPath><clipPath id="clip-path-5"><path class="cls-2" d="M33.35,97l-1.05.61a2.75,2.75,0,0,0,1.14-2.52,8.61,8.61,0,0,0-3.9-6.76l1.05-.61a8.61,8.61,0,0,1,3.9,6.76A2.75,2.75,0,0,1,33.35,97Z"/></clipPath><clipPath id="clip-path-6"><path class="cls-2" d="M73.06,71.82l-.92.45a2.76,2.76,0,0,1-2.73-.46,8.62,8.62,0,0,1-3.43-7,2.76,2.76,0,0,1,1.34-2.47l.92-.45a2.78,2.78,0,0,0-1.34,2.47,8.65,8.65,0,0,0,3.43,7A2.76,2.76,0,0,0,73.06,71.82Z"/></clipPath><clipPath id="clip-path-7"><path class="cls-3" d="M90,62.28,72.57,70.71a2.17,2.17,0,0,1-2.15-.36,6.81,6.81,0,0,1-2.7-5.55,2.18,2.18,0,0,1,1-1.94l17.4-8.44a2.2,2.2,0,0,0-1.06,1.95,6.83,6.83,0,0,0,2.7,5.54A2.18,2.18,0,0,0,90,62.28Z"/></clipPath><clipPath id="clip-path-8"><path class="cls-3" d="M107.75,51.33,88.89,60.49a1.14,1.14,0,0,1-1.14-.19,3.57,3.57,0,0,1-1.43-2.94,1.12,1.12,0,0,1,.56-1l18.86-9.17a1.15,1.15,0,0,0-.56,1,3.59,3.59,0,0,0,1.43,2.94A1.17,1.17,0,0,0,107.75,51.33Z"/></clipPath><clipPath id="clip-path-9"><path class="cls-2" d="M113.37,53,110,54.58a2.74,2.74,0,0,1-2.73-.46,8.65,8.65,0,0,1-3.43-7,2.78,2.78,0,0,1,1.34-2.47L108.55,43a2.78,2.78,0,0,0-1.34,2.47,8.65,8.65,0,0,0,3.43,7A2.76,2.76,0,0,0,113.37,53Z"/></clipPath></defs><g class="cls-4"><g class="cls-4"><g class="cls-5"><g class="cls-4"><path class="cls-6" d="M70,136.07l-.09,2.24a10,10,0,0,1-2.11,6l.09-2.24a10.08,10.08,0,0,0,2.11-6Z"/><path class="cls-2" d="M67.86,142l-.09,2.24A18,18,0,0,1,62.23,149c-7.78,4.52-19.26,5.61-28.86,3.27l.09-2.24c9.59,2.34,21.07,1.25,28.85-3.27A18.06,18.06,0,0,0,67.86,142Z"/><path class="cls-6" d="M33.46,150.05l-.09,2.24A31.74,31.74,0,0,1,25,149c-5.2-3-7.79-6.93-7.78-10.86l.09-2.25c0,3.94,2.58,7.87,7.77,10.87a31.81,31.81,0,0,0,8.4,3.27Z"/></g></g></g><path class="cls-7" d="M62.19,125.2c10.32,6,10.38,15.62.12,21.58s-26.93,6-37.25,0-10.37-15.62-.12-21.58S51.87,119.24,62.19,125.2Z"/></g><g class="cls-4"><g class="cls-4"><g class="cls-8"><g class="cls-4"><path class="cls-6" d="M67.51,125l-.08,10.53a9.13,9.13,0,0,1-1.91,5.41l.07-10.54a9.14,9.14,0,0,0,1.92-5.4Z"/><path class="cls-2" d="M65.59,130.38l-.07,10.54a16.4,16.4,0,0,1-5,4.31c-7.06,4.1-17.47,5.09-26.16,3l.07-10.53c8.7,2.12,19.11,1.13,26.17-3a16.35,16.35,0,0,0,5-4.31Z"/><path class="cls-6" d="M34.4,137.66l-.07,10.53a29,29,0,0,1-7.62-3c-4.71-2.72-7.06-6.29-7-9.85l.08-10.54c0,3.56,2.34,7.13,7.05,9.85a29.42,29.42,0,0,0,7.61,3Z"/></g></g></g><path class="cls-2" d="M60.46,115.13c9.35,5.4,9.4,14.16.11,19.56s-24.42,5.4-33.78,0-9.41-14.16-.11-19.56S51.1,109.72,60.46,115.13Z"/></g><g class="cls-4"><g class="cls-4"><g class="cls-9"><g class="cls-4"><path class="cls-3" d="M72.2,115.8l0,5.7A11,11,0,0,1,69.89,128l0-5.7a10.88,10.88,0,0,0,2.29-6.48Z"/><path class="cls-10" d="M69.91,122.28l0,5.7a19.64,19.64,0,0,1-6,5.15c-8.45,4.91-20.92,6.1-31.34,3.56l0-5.7c10.42,2.54,22.89,1.36,31.34-3.55a19.66,19.66,0,0,0,6-5.16Z"/><path class="cls-3" d="M32.55,131l0,5.7a34.86,34.86,0,0,1-9.12-3.56c-5.64-3.25-8.46-7.53-8.45-11.8l0-5.69c0,4.27,2.8,8.54,8.44,11.8A35,35,0,0,0,32.55,131Z"/></g></g></g><path class="cls-11" d="M63.76,104C75,110.47,75,121,63.89,127.44s-29.25,6.47-40.46,0-11.26-17-.13-23.44S52.55,97.53,63.76,104Z"/></g><g class="cls-4"><polygon class="cls-6" points="28.1 121.28 30.21 120.05 30.84 121.77 28.74 123 28.1 121.28"/><polygon class="cls-7" points="18.48 115.72 20.59 114.5 30.21 120.05 28.1 121.28 18.48 115.72"/><polygon class="cls-12" points="28.74 123 30.84 121.77 31.54 121.74 29.44 122.96 28.74 123"/><polygon class="cls-13" points="29.44 122.96 31.54 121.74 32.23 122.59 30.13 123.81 29.44 122.96"/><polygon class="cls-12" points="29.44 122.96 31.54 121.74 32.24 121.7 30.14 122.93 29.44 122.96"/><polygon class="cls-6" points="29.46 121.1 31.57 119.87 32.24 121.7 30.14 122.93 29.46 121.1"/><polygon class="cls-2" points="30.81 122.84 32.91 121.61 32.23 122.59 30.13 123.81 30.81 122.84"/><polygon class="cls-6" points="21.8 104.23 23.91 103.01 20.59 114.5 18.48 115.72 21.8 104.23"/><polygon class="cls-6" points="21.13 102.4 23.23 101.18 23.91 103.01 21.8 104.23 21.13 102.4"/><polygon class="cls-12" points="21.13 102.4 23.23 101.18 23.55 101.16 21.44 102.39 21.13 102.4"/><polygon class="cls-12" points="21.44 102.39 23.55 101.16 24.63 101.11 22.53 102.34 21.44 102.39"/><polygon class="cls-14" points="21.45 101.23 23.55 100.01 23.55 101.16 21.44 102.39 21.45 101.23"/><polygon class="cls-6" points="23.16 104.05 25.27 102.83 31.57 119.87 29.46 121.1 23.16 104.05"/><polygon class="cls-2" points="22.53 102.34 23.16 104.05 29.46 121.1 30.14 122.93 29.44 122.96 28.74 123 28.1 121.28 21.8 104.23 21.13 102.4 21.44 102.39 22.53 102.34"/><polygon class="cls-6" points="22.53 102.34 24.63 101.11 25.27 102.83 23.16 104.05 22.53 102.34"/><polygon class="cls-7" points="21.45 101.23 23.55 100.01 24.6 100.62 22.49 101.84 21.45 101.23"/><polygon class="cls-7" points="30.81 122.84 32.91 121.61 42.52 127.16 40.41 128.38 30.81 122.84"/><polygon class="cls-2" points="37.28 113.62 39.38 112.4 32.91 121.61 30.81 122.84 37.28 113.62"/><polygon class="cls-7" points="22.49 101.84 24.6 100.62 38.6 108.7 36.49 109.92 22.49 101.84"/><polygon class="cls-6" points="25.32 92.05 27.43 90.83 24.6 100.62 22.49 101.84 25.32 92.05"/><polygon class="cls-2" points="36.84 110.58 38.94 109.36 38.26 110.33 36.15 111.56 36.84 110.58"/><polygon class="cls-13" points="36.84 110.58 38.94 109.36 39.63 110.21 37.53 111.43 36.84 110.58"/><polygon class="cls-13" points="37.53 111.43 39.63 110.21 40.32 111.06 38.21 112.28 37.53 111.43"/><polygon class="cls-2" points="38.21 112.28 40.32 111.06 39.38 112.4 37.28 113.62 38.21 112.28"/><polygon class="cls-14" points="37.53 110.52 39.63 109.3 39.63 110.21 37.53 111.43 37.53 110.52"/><polygon class="cls-7" points="36.49 109.92 38.6 108.7 39.63 109.3 37.53 110.52 36.49 109.92"/><path class="cls-2" d="M34.94,95.77l7.56,35.65L16.38,116.34l7.74-26.81Zm-4.81,28,.68-1,9.6,5.54-3.13-14.76.93-1.33-.68-.86v-.91l-1-.6-2.76-13-8.41-4.85-2.83,9.79-1-.6v1.15h-.31l.67,1.83-3.32,11.49,9.62,5.56.64,1.71.7,0,.69.85Z"/><polygon class="cls-2" points="36.84 110.58 37.53 111.43 38.21 112.28 37.28 113.62 30.81 122.84 30.13 123.81 29.44 122.96 30.14 122.93 29.46 121.1 36.15 111.56 36.84 110.58"/><polygon class="cls-2" points="37.53 110.52 37.53 111.43 36.84 110.58 36.15 111.56 23.16 104.05 22.53 102.34 21.44 102.39 21.45 101.23 22.49 101.84 36.49 109.92 37.53 110.52"/><polygon class="cls-6" points="34.94 95.77 37.04 94.55 44.61 130.2 42.5 131.42 34.94 95.77"/><polygon class="cls-7" points="24.12 89.53 26.23 88.31 37.04 94.55 34.94 95.77 24.12 89.53"/></g><g class="cls-4"><polygon class="cls-6" points="52.74 106.11 54.84 104.89 55.48 106.61 53.37 107.83 52.74 106.11"/><polygon class="cls-7" points="43.12 100.56 45.22 99.33 54.84 104.89 52.74 106.11 43.12 100.56"/><polygon class="cls-12" points="53.37 107.83 55.48 106.61 56.18 106.57 54.07 107.8 53.37 107.83"/><polygon class="cls-13" points="54.07 107.8 56.18 106.57 56.87 107.42 54.76 108.65 54.07 107.8"/><polygon class="cls-12" points="54.07 107.8 56.18 106.57 56.88 106.54 54.77 107.76 54.07 107.8"/><polygon class="cls-6" points="54.09 105.93 56.2 104.71 56.88 106.54 54.77 107.76 54.09 105.93"/><polygon class="cls-2" points="55.44 107.67 57.55 106.45 56.87 107.42 54.76 108.65 55.44 107.67"/><polygon class="cls-6" points="46.44 89.06 48.54 87.84 45.22 99.33 43.12 100.56 46.44 89.06"/><polygon class="cls-6" points="45.76 87.24 47.87 86.02 48.54 87.84 46.44 89.06 45.76 87.24"/><polygon class="cls-12" points="45.76 87.24 47.87 86.02 48.18 86 46.07 87.22 45.76 87.24"/><polygon class="cls-12" points="46.07 87.22 48.18 86 49.26 85.95 47.16 87.17 46.07 87.22"/><polygon class="cls-14" points="46.08 86.07 48.18 84.85 48.18 86 46.07 87.22 46.08 86.07"/><polygon class="cls-6" points="47.79 88.89 49.9 87.67 56.2 104.71 54.09 105.93 47.79 88.89"/><polygon class="cls-6" points="47.16 87.17 49.26 85.95 49.9 87.67 47.79 88.89 47.16 87.17"/><polygon class="cls-7" points="46.08 86.07 48.18 84.85 49.23 85.45 47.13 86.67 46.08 86.07"/><polygon class="cls-7" points="55.44 107.67 57.55 106.45 67.15 111.99 65.04 113.22 55.44 107.67"/><polygon class="cls-2" points="61.91 98.46 64.01 97.23 57.55 106.45 55.44 107.67 61.91 98.46"/><polygon class="cls-7" points="47.13 86.67 49.23 85.45 63.23 93.53 61.12 94.76 47.13 86.67"/><polygon class="cls-6" points="49.95 76.89 52.06 75.66 49.23 85.45 47.13 86.67 49.95 76.89"/><polygon class="cls-2" points="61.47 95.42 63.57 94.19 62.89 95.17 60.79 96.39 61.47 95.42"/><polygon class="cls-13" points="61.47 95.42 63.57 94.19 64.26 95.05 62.16 96.27 61.47 95.42"/><polygon class="cls-13" points="62.16 96.27 64.26 95.05 64.95 95.9 62.85 97.12 62.16 96.27"/><polygon class="cls-2" points="62.85 97.12 64.95 95.9 64.01 97.23 61.91 98.46 62.85 97.12"/><polygon class="cls-14" points="62.16 95.36 64.27 94.13 64.26 95.05 62.16 96.27 62.16 95.36"/><polygon class="cls-7" points="61.12 94.76 63.23 93.53 64.27 94.13 62.16 95.36 61.12 94.76"/><polygon class="cls-2" points="62.16 95.36 62.16 96.27 61.47 95.42 60.79 96.39 47.79 88.89 47.16 87.17 46.07 87.22 46.08 86.07 47.13 86.67 61.12 94.76 62.16 95.36"/><path class="cls-2" d="M59.57,80.61l7.57,35.64L41,101.17l7.75-26.8Zm-4.81,28,.68-1,9.6,5.55L61.91,98.46l.94-1.34-.69-.85v-.91l-1-.6-2.76-13L50,76.89l-2.82,9.79-1.05-.61v1.15l-.31,0,.68,1.82-3.32,11.5,9.62,5.55.63,1.72.7,0,.69.85Z"/><polygon class="cls-2" points="47.16 87.17 47.79 88.89 54.09 105.93 54.77 107.76 54.07 107.8 53.37 107.83 52.74 106.11 46.44 89.06 45.76 87.24 46.07 87.22 47.16 87.17"/><polygon class="cls-2" points="61.47 95.42 62.16 96.27 62.85 97.12 61.91 98.46 55.44 107.67 54.76 108.65 54.07 107.8 54.77 107.76 54.09 105.93 60.79 96.39 61.47 95.42"/><polygon class="cls-6" points="59.57 80.61 61.67 79.38 69.24 115.03 67.14 116.25 59.57 80.61"/><polygon class="cls-7" points="48.76 74.36 50.86 73.14 61.67 79.38 59.57 80.61 48.76 74.36"/></g><g class="cls-4"><g class="cls-4"><g class="cls-4"><path class="cls-15" d="M34.82,99.47l2.06-1.2a2.88,2.88,0,0,1-.56.43l-2.06,1.2a2.88,2.88,0,0,0,.56-.43Z"/></g></g><g class="cls-4"><g class="cls-4"><path class="cls-15" d="M43.92,70.21,46,69a3.09,3.09,0,0,1,2.71,0l-2.06,1.2a3,3,0,0,0-2.71,0Z"/><path class="cls-15" d="M46.63,70.19,48.69,69l.66.33-2.06,1.2a5.08,5.08,0,0,0-.66-.33Z"/></g></g><g class="cls-4"><g class="cls-4"><path class="cls-15" d="M47.29,70.52l2.06-1.2a8.81,8.81,0,0,1,2.71,2.6A10.26,10.26,0,0,1,53.78,76l-2.06,1.19A10.22,10.22,0,0,0,50,73.12a8.81,8.81,0,0,0-2.71-2.6Z"/><path class="cls-3" d="M51.72,77.22,53.78,76a4.51,4.51,0,0,1-.8,3.85c-2.42,2.54-15.41,17.6-16.1,18.39l-2.06,1.2c.69-.8,13.68-15.85,16.1-18.4a4.51,4.51,0,0,0,.8-3.85Z"/></g></g><path class="cls-10" d="M47.29,70.52A8.81,8.81,0,0,1,50,73.12c2,2.93,2.39,6.41.92,7.95-2.42,2.55-15.41,17.6-16.1,18.4-1.21,1.16-3.06,1.07-4.93,0a11.88,11.88,0,0,1-3.67-3.52C23.51,92,23,87.29,25,85.34c.8-.63,16-12.58,18.56-14.86C44.49,69.65,45.89,69.71,47.29,70.52Z"/></g><g class="cls-4"><path class="cls-2" d="M26.75,88l1.05-.61a2.77,2.77,0,0,1,2.79.27l-1.05.61A2.8,2.8,0,0,0,26.75,88Z"/><g class="cls-16"><g class="cls-4"><path class="cls-2" d="M26.75,88l1.05-.61a2.29,2.29,0,0,1,1.77-.16l-1.06.61a2.27,2.27,0,0,0-1.76.16Z"/><path class="cls-2" d="M28.51,87.86l1.06-.61a4.14,4.14,0,0,1,1,.43l-1.05.61a4.62,4.62,0,0,0-1-.43Z"/></g></g><path class="cls-2" d="M33.35,97l-1.05.61a2.75,2.75,0,0,0,1.14-2.52,8.61,8.61,0,0,0-3.9-6.76l1.05-.61a8.61,8.61,0,0,1,3.9,6.76A2.75,2.75,0,0,1,33.35,97Z"/><g class="cls-17"><g class="cls-4"><path class="cls-2" d="M29.54,88.29l1.05-.61.31.2-1,.61-.31-.2Z"/><path class="cls-2" d="M29.85,88.49l1-.61a8.87,8.87,0,0,1,3.45,5.27l-1.05.62a8.91,8.91,0,0,0-3.45-5.28Z"/><path class="cls-2" d="M33.3,93.77l1.05-.62a6.44,6.44,0,0,1,.14,1.29c0,.11,0,.22,0,.33l-1,.61c0-.11,0-.21,0-.33a6.35,6.35,0,0,0-.14-1.28Z"/><path class="cls-2" d="M33.43,95.38l1-.61A2.6,2.6,0,0,1,33.35,97l-1.05.61a2.6,2.6,0,0,0,1.13-2.19Z"/></g></g><path class="cls-6" d="M29.54,88.29a8.61,8.61,0,0,1,3.9,6.76c0,2.49-1.77,3.49-3.93,2.24a8.59,8.59,0,0,1-3.9-6.76C25.61,88.05,27.37,87.05,29.54,88.29Z"/></g><path class="cls-10" d="M102.38,70.75a64.16,64.16,0,0,0-7.91-21,64,64,0,0,0-14.41-17.3c-5.85-4.81-13.56-9.14-21.39-8.14C51.82,25.2,46.06,31,42.6,36.6a37.6,37.6,0,0,0-5.08,19.69v0c0,1.34,0,.47,0,.1v0c0,.12,0,.23,0,.34A48.65,48.65,0,0,0,38,62C40,76.87,49.66,90.7,63.14,97.45a35.56,35.56,0,0,0,20.78,3.68c6.16-.9,13-3.22,16.3-8.77C104,86.07,103.61,77.74,102.38,70.75Z"/><path class="cls-18" d="M102.38,70.75a64.16,64.16,0,0,0-7.91-21,64,64,0,0,0-14.41-17.3,43.05,43.05,0,0,0-9.2-5.91A20,20,0,0,1,74.45,31c6,9.63,14.12,18.6,12.29,30.4a45.51,45.51,0,0,1-25.92,34.4l-.42.18c.89.53,1.81,1,2.74,1.51a35.56,35.56,0,0,0,20.78,3.68c6.16-.9,13-3.22,16.3-8.77C104,86.07,103.61,77.74,102.38,70.75Z"/><path class="cls-3" d="M74.29,97c-10-5.57-17.75-15-23.11-24.93S42,50,43.9,38.62c.9-5.48,3.46-11,8.43-13.87-13.75,8-18.49,24.86-15.61,39.79,3.23,16.69,15.58,31.89,32,36.92a33.73,33.73,0,0,0,26.63-2.61c-6.64,3.87-14.81,1.69-21.1-1.81Z"/><path class="cls-19" d="M43.46,44.86c-.24-19.46,13.17-27.65,30-18.29S104,59.28,104.25,78.74s-13.17,27.65-30,18.3S43.69,64.32,43.46,44.86Zm1.16.65c.23,18.72,13.5,41.18,29.65,50.18s29.05,1.12,28.82-17.6S89.59,36.92,73.44,27.92s-29-1.12-28.82,17.59Z"/><g class="cls-4"><g class="cls-4"><path class="cls-2" d="M73.06,71.82l-.92.45a2.76,2.76,0,0,1-2.73-.46,8.62,8.62,0,0,1-3.43-7,2.76,2.76,0,0,1,1.34-2.47l.92-.45a2.78,2.78,0,0,0-1.34,2.47,8.65,8.65,0,0,0,3.43,7A2.76,2.76,0,0,0,73.06,71.82Z"/><g class="cls-20"><g class="cls-4"><path class="cls-6" d="M73.06,71.82l-.92.45a2.76,2.76,0,0,1-2.73-.46,7.1,7.1,0,0,1-1.85-1.89l.93-.45a6.92,6.92,0,0,0,1.84,1.89,2.76,2.76,0,0,0,2.73.46Z"/><path class="cls-2" d="M68.49,69.47l-.93.45a9.66,9.66,0,0,1-1.22-2.5l.92-.45a9.38,9.38,0,0,0,1.23,2.5Z"/><path class="cls-2" d="M67.26,67l-.92.45A7.31,7.31,0,0,1,66,64.77a3.65,3.65,0,0,1,.06-.49l.92-.45c0,.15,0,.32-.06.49A7.31,7.31,0,0,0,67.26,67Z"/><path class="cls-6" d="M67.8,62.14a1.76,1.76,0,0,1,.44-.29l-.92.45a1.76,1.76,0,0,0-.44.29A2.89,2.89,0,0,0,66,64.28l.92-.45A2.89,2.89,0,0,1,67.8,62.14Z"/></g></g></g><path class="cls-7" d="M74.4,69.35c-.18,2.5-2,3.4-4.07,2a8.65,8.65,0,0,1-3.43-7c.18-2.5,2-3.4,4.07-2A8.62,8.62,0,0,1,74.4,69.35Z"/></g><g class="cls-4"><g class="cls-4"><path class="cls-3" d="M90,62.28,72.57,70.71a2.17,2.17,0,0,1-2.15-.36,6.81,6.81,0,0,1-2.7-5.55,2.18,2.18,0,0,1,1-1.94l17.4-8.44a2.2,2.2,0,0,0-1.06,1.95,6.83,6.83,0,0,0,2.7,5.54A2.18,2.18,0,0,0,90,62.28Z"/><g class="cls-21"><g class="cls-4"><path class="cls-3" d="M90,62.28,72.57,70.71a2.17,2.17,0,0,1-2.15-.36A5.57,5.57,0,0,1,69,68.86l17.39-8.43a5.68,5.68,0,0,0,1.45,1.48,2.18,2.18,0,0,0,2.15.37Z"/><path class="cls-3" d="M86.36,60.43,69,68.86a7.09,7.09,0,0,1-1-2l17.4-8.43a7.65,7.65,0,0,0,1,2Z"/><path class="cls-10" d="M85.4,58.46,68,66.89a5.67,5.67,0,0,1-.28-2.09,2.32,2.32,0,0,1,0-.38L85.16,56c0,.13,0,.25,0,.39a5.74,5.74,0,0,0,.29,2.09Z"/><path class="cls-3" d="M85.82,54.65a1.63,1.63,0,0,1,.35-.23l-17.4,8.44a1.56,1.56,0,0,0-.34.23,2.21,2.21,0,0,0-.66,1.33L85.16,56A2.27,2.27,0,0,1,85.82,54.65Z"/></g></g></g><path class="cls-19" d="M91,60.33c-.14,2-1.58,2.68-3.21,1.58a6.83,6.83,0,0,1-2.7-5.54c.14-2,1.58-2.68,3.21-1.58A6.78,6.78,0,0,1,91,60.33Z"/></g><g class="cls-4"><g class="cls-4"><path class="cls-3" d="M107.75,51.33,88.89,60.49a1.14,1.14,0,0,1-1.14-.19,3.57,3.57,0,0,1-1.43-2.94,1.12,1.12,0,0,1,.56-1l18.86-9.17a1.15,1.15,0,0,0-.56,1,3.59,3.59,0,0,0,1.43,2.94A1.17,1.17,0,0,0,107.75,51.33Z"/><g class="cls-22"><g class="cls-4"><path class="cls-3" d="M107.75,51.33,88.89,60.49a1.14,1.14,0,0,1-1.14-.19,2.9,2.9,0,0,1-.77-.79l18.86-9.17a2.9,2.9,0,0,0,.77.79,1.17,1.17,0,0,0,1.14.2Z"/><path class="cls-3" d="M105.84,50.34,87,59.51a3.6,3.6,0,0,1-.51-1l18.86-9.17a3.6,3.6,0,0,0,.51,1Z"/><path class="cls-10" d="M105.33,49.3,86.47,58.47a2.92,2.92,0,0,1-.15-1.11,1.49,1.49,0,0,1,0-.21L105.2,48a1.23,1.23,0,0,0,0,.2,2.92,2.92,0,0,0,.15,1.11Z"/><path class="cls-3" d="M105.55,47.28a.76.76,0,0,1,.19-.12L86.88,56.33a.76.76,0,0,0-.19.12,1.22,1.22,0,0,0-.35.7L105.2,48A1.26,1.26,0,0,1,105.55,47.28Z"/></g></g></g><path class="cls-3" d="M108.31,50.29c-.07,1.05-.83,1.42-1.7.84a3.59,3.59,0,0,1-1.43-2.94c.07-1,.83-1.42,1.7-.84A3.63,3.63,0,0,1,108.31,50.29Z"/></g><g class="cls-4"><g class="cls-4"><path class="cls-2" d="M113.37,53,110,54.58a2.74,2.74,0,0,1-2.73-.46,8.65,8.65,0,0,1-3.43-7,2.78,2.78,0,0,1,1.34-2.47L108.55,43a2.78,2.78,0,0,0-1.34,2.47,8.65,8.65,0,0,0,3.43,7A2.76,2.76,0,0,0,113.37,53Z"/><g class="cls-23"><g class="cls-4"><path class="cls-6" d="M113.37,53,110,54.58a2.74,2.74,0,0,1-2.73-.46,6.92,6.92,0,0,1-1.84-1.89l3.32-1.62a7.1,7.1,0,0,0,1.85,1.89,2.76,2.76,0,0,0,2.73.46Z"/><path class="cls-2" d="M108.79,50.61l-3.32,1.62a9.24,9.24,0,0,1-1.23-2.5l3.33-1.62a9.66,9.66,0,0,0,1.22,2.5Z"/><path class="cls-2" d="M107.57,48.11l-3.33,1.62a7.28,7.28,0,0,1-.36-2.65c0-.17,0-.33.06-.49L107.27,45a3.65,3.65,0,0,0-.06.49,7.31,7.31,0,0,0,.36,2.65Z"/><path class="cls-6" d="M108.11,43.28a1.76,1.76,0,0,1,.44-.29l-3.33,1.62a2.09,2.09,0,0,0-.44.29,2.89,2.89,0,0,0-.84,1.69L107.27,45A2.89,2.89,0,0,1,108.11,43.28Z"/></g></g></g><path class="cls-7" d="M114.71,50.49c-.18,2.5-2,3.4-4.07,2a8.65,8.65,0,0,1-3.43-7c.18-2.5,2-3.4,4.07-2A8.62,8.62,0,0,1,114.71,50.49Z"/></g></svg>