<svg xmlns="http://www.w3.org/2000/svg" xmlns:xlink="http://www.w3.org/1999/xlink" viewBox="0 0 87.11 167.71"><defs><style>.cls-1{fill:url(#linear-gradient);}.cls-2{fill:url(#linear-gradient-2);}.cls-3{fill:url(#linear-gradient-3);}.cls-4{fill:#f5d824;}.cls-5{isolation:isolate;}.cls-6{mask:url(#mask);}.cls-7{fill:#ec7314;}.cls-8{clip-path:url(#clip-path);}.cls-9{mix-blend-mode:screen;}.cls-10{fill:#ea5411;}.cls-11{fill:url(#未命名的渐变_691);}.cls-12{fill:url(#未命名的渐变_690);}.cls-13{fill:url(#未命名的渐变_689);}.cls-14{fill:url(#未命名的渐变_688);}.cls-15{fill:url(#未命名的渐变_687);}.cls-16{fill:url(#未命名的渐变_686);}.cls-17{fill:url(#未命名的渐变_685);}.cls-18{fill:url(#未命名的渐变_684);}.cls-19{fill:url(#未命名的渐变_683);}.cls-20{fill:url(#未命名的渐变_682);}.cls-21{fill:url(#未命名的渐变_681);}.cls-22{fill:url(#未命名的渐变_680);}.cls-23{fill:url(#未命名的渐变_679);}.cls-24{fill:url(#未命名的渐变_678);}.cls-25{fill:url(#未命名的渐变_677);}.cls-26{fill:url(#未命名的渐变_676);}.cls-27{fill:url(#未命名的渐变_675);}.cls-28{fill:url(#未命名的渐变_674);}.cls-29{fill:url(#未命名的渐变_673);}.cls-30{fill:url(#未命名的渐变_672);}.cls-31{fill:url(#未命名的渐变_671);}.cls-32{fill:url(#未命名的渐变_670);}.cls-33{fill:url(#未命名的渐变_669);}.cls-34{fill:url(#未命名的渐变_668);}.cls-35{fill:url(#未命名的渐变_667);}.cls-36{fill:url(#linear-gradient-4);}.cls-37{mask:url(#mask-2);}.cls-38{clip-path:url(#clip-path-2);}.cls-39{fill:url(#未命名的渐变_691-2);}.cls-40{fill:url(#未命名的渐变_690-2);}.cls-41{fill:url(#未命名的渐变_689-2);}.cls-42{fill:url(#未命名的渐变_688-2);}.cls-43{fill:url(#未命名的渐变_687-2);}.cls-44{fill:url(#未命名的渐变_686-2);}.cls-45{fill:url(#未命名的渐变_685-2);}.cls-46{fill:url(#未命名的渐变_684-2);}.cls-47{fill:url(#未命名的渐变_683-2);}.cls-48{fill:url(#未命名的渐变_682-2);}.cls-49{fill:url(#未命名的渐变_681-2);}.cls-50{fill:url(#未命名的渐变_680-2);}.cls-51{fill:url(#未命名的渐变_679-2);}.cls-52{fill:url(#未命名的渐变_678-2);}.cls-53{fill:url(#未命名的渐变_677-2);}.cls-54{fill:url(#未命名的渐变_676-2);}.cls-55{fill:url(#未命名的渐变_675-2);}.cls-56{fill:url(#未命名的渐变_674-2);}.cls-57{fill:url(#未命名的渐变_673-2);}.cls-58{fill:url(#未命名的渐变_672-2);}.cls-59{fill:url(#未命名的渐变_671-2);}.cls-60{fill:url(#未命名的渐变_670-2);}.cls-61{fill:url(#未命名的渐变_669-2);}.cls-62{fill:url(#未命名的渐变_668-2);}.cls-63{fill:url(#未命名的渐变_667-2);}.cls-64{fill:url(#linear-gradient-5);}.cls-65{mask:url(#mask-3);}.cls-66{clip-path:url(#clip-path-3);}.cls-67{fill:url(#未命名的渐变_691-3);}.cls-68{fill:url(#未命名的渐变_690-3);}.cls-69{fill:url(#未命名的渐变_689-3);}.cls-70{fill:url(#未命名的渐变_688-3);}.cls-71{fill:url(#未命名的渐变_687-3);}.cls-72{fill:url(#未命名的渐变_686-3);}.cls-73{fill:url(#未命名的渐变_685-3);}.cls-74{fill:url(#未命名的渐变_684-3);}.cls-75{fill:url(#未命名的渐变_683-3);}.cls-76{fill:url(#未命名的渐变_682-3);}.cls-77{fill:url(#未命名的渐变_681-3);}.cls-78{fill:url(#未命名的渐变_680-3);}.cls-79{fill:url(#未命名的渐变_679-3);}.cls-80{fill:url(#未命名的渐变_678-3);}.cls-81{fill:url(#未命名的渐变_677-3);}.cls-82{fill:url(#未命名的渐变_676-3);}.cls-83{fill:url(#未命名的渐变_675-3);}.cls-84{fill:url(#未命名的渐变_674-3);}.cls-85{fill:url(#未命名的渐变_673-3);}.cls-86{fill:url(#未命名的渐变_672-3);}.cls-87{fill:url(#未命名的渐变_671-3);}.cls-88{fill:url(#未命名的渐变_670-3);}.cls-89{fill:url(#未命名的渐变_669-3);}.cls-90{fill:url(#未命名的渐变_668-3);}.cls-91{fill:url(#未命名的渐变_667-3);}.cls-92{fill:url(#linear-gradient-6);}.cls-93{fill:url(#linear-gradient-7);}.cls-94{fill:#231815;}.cls-101,.cls-102,.cls-105,.cls-109,.cls-95,.cls-99{mix-blend-mode:multiply;}.cls-95{opacity:0.5;fill:url(#linear-gradient-8);}.cls-96{fill:url(#linear-gradient-9);}.cls-97{fill:url(#linear-gradient-10);}.cls-98{fill:#c2d1d6;}.cls-99{fill:url(#linear-gradient-11);}.cls-100{fill:url(#linear-gradient-12);}.cls-101,.cls-102{opacity:0.7;}.cls-101{fill:url(#linear-gradient-13);}.cls-102{fill:url(#linear-gradient-14);}.cls-103{fill:url(#linear-gradient-15);}.cls-104{fill:url(#linear-gradient-16);}.cls-105{fill:url(#linear-gradient-17);}.cls-106{fill:url(#linear-gradient-18);}.cls-107{fill:url(#linear-gradient-19);}.cls-108{fill:url(#linear-gradient-20);}.cls-109{fill:url(#linear-gradient-21);}.cls-110{fill:url(#linear-gradient-22);}</style><linearGradient id="linear-gradient" x1="65.33" y1="161.65" x2="65.33" y2="120.16" gradientUnits="userSpaceOnUse"><stop offset="0" stop-color="#040000"/><stop offset="0.14" stop-color="#080404"/><stop offset="0.27" stop-color="#120f0f"/><stop offset="0.39" stop-color="#252121"/><stop offset="0.51" stop-color="#3e3b3b"/><stop offset="0.63" stop-color="#605d5d"/><stop offset="0.74" stop-color="#888686"/><stop offset="0.86" stop-color="#b8b7b7"/><stop offset="0.97" stop-color="#efefef"/><stop offset="1" stop-color="#fff"/></linearGradient><linearGradient id="linear-gradient-2" x1="28.31" y1="161.65" x2="28.31" y2="120.16" xlink:href="#linear-gradient"/><linearGradient id="linear-gradient-3" x1="46.85" y1="170.8" x2="46.85" y2="129.3" xlink:href="#linear-gradient"/><mask id="mask" x="58.53" y="120.16" width="13.59" height="41.5" maskUnits="userSpaceOnUse"><rect class="cls-1" x="58.53" y="120.16" width="13.59" height="41.5"/></mask><clipPath id="clip-path"><path class="cls-4" d="M72.15,120.16a6.81,6.81,0,1,1-6.81-6.81A6.81,6.81,0,0,1,72.15,120.16Z"/></clipPath><linearGradient id="未命名的渐变_691" x1="56.51" y1="120.16" x2="74.17" y2="120.16" gradientUnits="userSpaceOnUse"><stop offset="0" stop-color="#eb5b1a"/><stop offset="1" stop-color="#eb5b1a"/></linearGradient><linearGradient id="未命名的渐变_690" x1="56.82" y1="120.16" x2="73.86" y2="120.16" gradientUnits="userSpaceOnUse"><stop offset="0" stop-color="#ec6322"/><stop offset="1" stop-color="#ec6322"/></linearGradient><linearGradient id="未命名的渐变_689" x1="57.13" y1="120.16" x2="73.55" y2="120.16" gradientUnits="userSpaceOnUse"><stop offset="0" stop-color="#ec6a2a"/><stop offset="1" stop-color="#ec6a2a"/></linearGradient><linearGradient id="未命名的渐变_688" x1="57.44" y1="120.16" x2="73.24" y2="120.16" gradientUnits="userSpaceOnUse"><stop offset="0" stop-color="#ed7132"/><stop offset="1" stop-color="#ed7132"/></linearGradient><linearGradient id="未命名的渐变_687" x1="57.75" y1="120.16" x2="72.93" y2="120.16" gradientUnits="userSpaceOnUse"><stop offset="0" stop-color="#ee783a"/><stop offset="1" stop-color="#ee783a"/></linearGradient><linearGradient id="未命名的渐变_686" x1="58.06" y1="120.16" x2="72.62" y2="120.16" gradientUnits="userSpaceOnUse"><stop offset="0" stop-color="#ef8042"/><stop offset="1" stop-color="#ef8042"/></linearGradient><linearGradient id="未命名的渐变_685" x1="58.37" y1="120.16" x2="72.31" y2="120.16" gradientUnits="userSpaceOnUse"><stop offset="0" stop-color="#f0874b"/><stop offset="1" stop-color="#f0874b"/></linearGradient><linearGradient id="未命名的渐变_684" x1="58.68" y1="120.16" x2="72" y2="120.16" gradientUnits="userSpaceOnUse"><stop offset="0" stop-color="#f18d53"/><stop offset="1" stop-color="#f18d53"/></linearGradient><linearGradient id="未命名的渐变_683" x1="58.99" y1="120.16" x2="71.69" y2="120.16" gradientUnits="userSpaceOnUse"><stop offset="0" stop-color="#f2945c"/><stop offset="1" stop-color="#f2945c"/></linearGradient><linearGradient id="未命名的渐变_682" x1="59.3" y1="120.16" x2="71.38" y2="120.16" gradientUnits="userSpaceOnUse"><stop offset="0" stop-color="#f39b65"/><stop offset="1" stop-color="#f39b65"/></linearGradient><linearGradient id="未命名的渐变_681" x1="59.61" y1="120.16" x2="71.07" y2="120.16" gradientUnits="userSpaceOnUse"><stop offset="0" stop-color="#f4a26e"/><stop offset="1" stop-color="#f4a26e"/></linearGradient><linearGradient id="未命名的渐变_680" x1="59.92" y1="120.16" x2="70.76" y2="120.16" gradientUnits="userSpaceOnUse"><stop offset="0" stop-color="#f4a878"/><stop offset="1" stop-color="#f4a878"/></linearGradient><linearGradient id="未命名的渐变_679" x1="60.24" y1="120.16" x2="70.45" y2="120.16" gradientUnits="userSpaceOnUse"><stop offset="0" stop-color="#f5af81"/><stop offset="1" stop-color="#f5af81"/></linearGradient><linearGradient id="未命名的渐变_678" x1="60.55" y1="120.16" x2="70.14" y2="120.16" gradientUnits="userSpaceOnUse"><stop offset="0" stop-color="#f6b68b"/><stop offset="1" stop-color="#f6b68b"/></linearGradient><linearGradient id="未命名的渐变_677" x1="60.86" y1="120.16" x2="69.83" y2="120.16" gradientUnits="userSpaceOnUse"><stop offset="0" stop-color="#f7bc94"/><stop offset="1" stop-color="#f7bc94"/></linearGradient><linearGradient id="未命名的渐变_676" x1="61.17" y1="120.16" x2="69.52" y2="120.16" gradientUnits="userSpaceOnUse"><stop offset="0" stop-color="#f8c39e"/><stop offset="1" stop-color="#f8c39e"/></linearGradient><linearGradient id="未命名的渐变_675" x1="61.48" y1="120.16" x2="69.21" y2="120.16" gradientUnits="userSpaceOnUse"><stop offset="0" stop-color="#f9c9a8"/><stop offset="1" stop-color="#f9c9a8"/></linearGradient><linearGradient id="未命名的渐变_674" x1="61.79" y1="120.16" x2="68.9" y2="120.16" gradientUnits="userSpaceOnUse"><stop offset="0" stop-color="#facfb2"/><stop offset="1" stop-color="#facfb2"/></linearGradient><linearGradient id="未命名的渐变_673" x1="62.1" y1="120.16" x2="68.59" y2="120.16" gradientUnits="userSpaceOnUse"><stop offset="0" stop-color="#fad6bc"/><stop offset="1" stop-color="#fad6bc"/></linearGradient><linearGradient id="未命名的渐变_672" x1="62.41" y1="120.16" x2="68.28" y2="120.16" gradientUnits="userSpaceOnUse"><stop offset="0" stop-color="#fbdcc5"/><stop offset="1" stop-color="#fbdcc5"/></linearGradient><linearGradient id="未命名的渐变_671" x1="62.72" y1="120.16" x2="67.97" y2="120.16" gradientUnits="userSpaceOnUse"><stop offset="0" stop-color="#fce2cf"/><stop offset="1" stop-color="#fce2cf"/></linearGradient><linearGradient id="未命名的渐变_670" x1="63.03" y1="120.16" x2="67.66" y2="120.16" gradientUnits="userSpaceOnUse"><stop offset="0" stop-color="#fde8d9"/><stop offset="1" stop-color="#fde8d9"/></linearGradient><linearGradient id="未命名的渐变_669" x1="63.34" y1="120.16" x2="67.35" y2="120.16" gradientUnits="userSpaceOnUse"><stop offset="0" stop-color="#feefe3"/><stop offset="1" stop-color="#feefe3"/></linearGradient><linearGradient id="未命名的渐变_668" x1="63.65" y1="120.16" x2="67.04" y2="120.16" gradientUnits="userSpaceOnUse"><stop offset="0" stop-color="#fef4ed"/><stop offset="1" stop-color="#fef4ed"/></linearGradient><linearGradient id="未命名的渐变_667" x1="63.96" y1="120.16" x2="66.73" y2="120.16" gradientUnits="userSpaceOnUse"><stop offset="0" stop-color="#fffaf7"/><stop offset="1" stop-color="#fffaf7"/></linearGradient><linearGradient id="linear-gradient-4" x1="64.27" y1="120.16" x2="66.42" y2="120.16" gradientUnits="userSpaceOnUse"><stop offset="0" stop-color="#fff"/><stop offset="1" stop-color="#fff"/></linearGradient><mask id="mask-2" x="21.51" y="120.16" width="13.59" height="41.5" maskUnits="userSpaceOnUse"><rect class="cls-2" x="21.51" y="120.16" width="13.59" height="41.5"/></mask><clipPath id="clip-path-2"><path class="cls-4" d="M35.13,120.16a6.81,6.81,0,1,1-6.81-6.81A6.81,6.81,0,0,1,35.13,120.16Z"/></clipPath><linearGradient id="未命名的渐变_691-2" x1="19.49" y1="120.16" x2="37.15" y2="120.16" xlink:href="#未命名的渐变_691"/><linearGradient id="未命名的渐变_690-2" x1="19.8" y1="120.16" x2="36.84" y2="120.16" xlink:href="#未命名的渐变_690"/><linearGradient id="未命名的渐变_689-2" x1="20.11" y1="120.16" x2="36.53" y2="120.16" xlink:href="#未命名的渐变_689"/><linearGradient id="未命名的渐变_688-2" x1="20.42" y1="120.16" x2="36.22" y2="120.16" xlink:href="#未命名的渐变_688"/><linearGradient id="未命名的渐变_687-2" x1="20.73" y1="120.16" x2="35.91" y2="120.16" xlink:href="#未命名的渐变_687"/><linearGradient id="未命名的渐变_686-2" x1="21.04" y1="120.16" x2="35.6" y2="120.16" xlink:href="#未命名的渐变_686"/><linearGradient id="未命名的渐变_685-2" x1="21.35" y1="120.16" x2="35.29" y2="120.16" xlink:href="#未命名的渐变_685"/><linearGradient id="未命名的渐变_684-2" x1="21.66" y1="120.16" x2="34.98" y2="120.16" xlink:href="#未命名的渐变_684"/><linearGradient id="未命名的渐变_683-2" x1="21.97" y1="120.16" x2="34.67" y2="120.16" xlink:href="#未命名的渐变_683"/><linearGradient id="未命名的渐变_682-2" x1="22.28" y1="120.16" x2="34.36" y2="120.16" xlink:href="#未命名的渐变_682"/><linearGradient id="未命名的渐变_681-2" x1="22.59" y1="120.16" x2="34.05" y2="120.16" xlink:href="#未命名的渐变_681"/><linearGradient id="未命名的渐变_680-2" x1="22.9" y1="120.16" x2="33.74" y2="120.16" xlink:href="#未命名的渐变_680"/><linearGradient id="未命名的渐变_679-2" x1="23.21" y1="120.16" x2="33.43" y2="120.16" xlink:href="#未命名的渐变_679"/><linearGradient id="未命名的渐变_678-2" x1="23.52" y1="120.16" x2="33.12" y2="120.16" xlink:href="#未命名的渐变_678"/><linearGradient id="未命名的渐变_677-2" x1="23.83" y1="120.16" x2="32.81" y2="120.16" xlink:href="#未命名的渐变_677"/><linearGradient id="未命名的渐变_676-2" x1="24.14" y1="120.16" x2="32.5" y2="120.16" xlink:href="#未命名的渐变_676"/><linearGradient id="未命名的渐变_675-2" x1="24.45" y1="120.16" x2="32.19" y2="120.16" xlink:href="#未命名的渐变_675"/><linearGradient id="未命名的渐变_674-2" x1="24.77" y1="120.16" x2="31.88" y2="120.16" xlink:href="#未命名的渐变_674"/><linearGradient id="未命名的渐变_673-2" x1="25.08" y1="120.16" x2="31.57" y2="120.16" xlink:href="#未命名的渐变_673"/><linearGradient id="未命名的渐变_672-2" x1="25.39" y1="120.16" x2="31.26" y2="120.16" xlink:href="#未命名的渐变_672"/><linearGradient id="未命名的渐变_671-2" x1="25.7" y1="120.16" x2="30.95" y2="120.16" xlink:href="#未命名的渐变_671"/><linearGradient id="未命名的渐变_670-2" x1="26.01" y1="120.16" x2="30.64" y2="120.16" xlink:href="#未命名的渐变_670"/><linearGradient id="未命名的渐变_669-2" x1="26.32" y1="120.16" x2="30.33" y2="120.16" xlink:href="#未命名的渐变_669"/><linearGradient id="未命名的渐变_668-2" x1="26.63" y1="120.16" x2="30.01" y2="120.16" xlink:href="#未命名的渐变_668"/><linearGradient id="未命名的渐变_667-2" x1="26.94" y1="120.16" x2="29.7" y2="120.16" xlink:href="#未命名的渐变_667"/><linearGradient id="linear-gradient-5" x1="27.25" y1="120.16" x2="29.39" y2="120.16" xlink:href="#linear-gradient-4"/><mask id="mask-3" x="40.06" y="129.3" width="13.59" height="41.5" maskUnits="userSpaceOnUse"><rect class="cls-3" x="40.06" y="129.3" width="13.59" height="41.5"/></mask><clipPath id="clip-path-3"><path class="cls-4" d="M53.68,129.3a6.81,6.81,0,1,1-6.81-6.81A6.81,6.81,0,0,1,53.68,129.3Z"/></clipPath><linearGradient id="未命名的渐变_691-3" x1="38.04" y1="129.3" x2="55.7" y2="129.3" xlink:href="#未命名的渐变_691"/><linearGradient id="未命名的渐变_690-3" x1="38.35" y1="129.3" x2="55.39" y2="129.3" xlink:href="#未命名的渐变_690"/><linearGradient id="未命名的渐变_689-3" x1="38.66" y1="129.3" x2="55.08" y2="129.3" xlink:href="#未命名的渐变_689"/><linearGradient id="未命名的渐变_688-3" x1="38.97" y1="129.3" x2="54.77" y2="129.3" xlink:href="#未命名的渐变_688"/><linearGradient id="未命名的渐变_687-3" x1="39.28" y1="129.3" x2="54.46" y2="129.3" xlink:href="#未命名的渐变_687"/><linearGradient id="未命名的渐变_686-3" x1="39.59" y1="129.3" x2="54.15" y2="129.3" xlink:href="#未命名的渐变_686"/><linearGradient id="未命名的渐变_685-3" x1="39.9" y1="129.3" x2="53.84" y2="129.3" xlink:href="#未命名的渐变_685"/><linearGradient id="未命名的渐变_684-3" x1="40.21" y1="129.3" x2="53.53" y2="129.3" xlink:href="#未命名的渐变_684"/><linearGradient id="未命名的渐变_683-3" x1="40.52" y1="129.3" x2="53.22" y2="129.3" xlink:href="#未命名的渐变_683"/><linearGradient id="未命名的渐变_682-3" x1="40.83" y1="129.3" x2="52.91" y2="129.3" xlink:href="#未命名的渐变_682"/><linearGradient id="未命名的渐变_681-3" x1="41.14" y1="129.3" x2="52.6" y2="129.3" xlink:href="#未命名的渐变_681"/><linearGradient id="未命名的渐变_680-3" x1="41.45" y1="129.3" x2="52.29" y2="129.3" xlink:href="#未命名的渐变_680"/><linearGradient id="未命名的渐变_679-3" x1="41.76" y1="129.3" x2="51.98" y2="129.3" xlink:href="#未命名的渐变_679"/><linearGradient id="未命名的渐变_678-3" x1="42.07" y1="129.3" x2="51.67" y2="129.3" xlink:href="#未命名的渐变_678"/><linearGradient id="未命名的渐变_677-3" x1="42.38" y1="129.3" x2="51.35" y2="129.3" xlink:href="#未命名的渐变_677"/><linearGradient id="未命名的渐变_676-3" x1="42.69" y1="129.3" x2="51.04" y2="129.3" xlink:href="#未命名的渐变_676"/><linearGradient id="未命名的渐变_675-3" x1="43" y1="129.3" x2="50.73" y2="129.3" xlink:href="#未命名的渐变_675"/><linearGradient id="未命名的渐变_674-3" x1="43.31" y1="129.3" x2="50.42" y2="129.3" xlink:href="#未命名的渐变_674"/><linearGradient id="未命名的渐变_673-3" x1="43.62" y1="129.3" x2="50.11" y2="129.3" xlink:href="#未命名的渐变_673"/><linearGradient id="未命名的渐变_672-3" x1="43.93" y1="129.3" x2="49.8" y2="129.3" xlink:href="#未命名的渐变_672"/><linearGradient id="未命名的渐变_671-3" x1="44.24" y1="129.3" x2="49.49" y2="129.3" xlink:href="#未命名的渐变_671"/><linearGradient id="未命名的渐变_670-3" x1="44.55" y1="129.3" x2="49.18" y2="129.3" xlink:href="#未命名的渐变_670"/><linearGradient id="未命名的渐变_669-3" x1="44.86" y1="129.3" x2="48.87" y2="129.3" xlink:href="#未命名的渐变_669"/><linearGradient id="未命名的渐变_668-3" x1="45.17" y1="129.3" x2="48.56" y2="129.3" xlink:href="#未命名的渐变_668"/><linearGradient id="未命名的渐变_667-3" x1="45.48" y1="129.3" x2="48.25" y2="129.3" xlink:href="#未命名的渐变_667"/><linearGradient id="linear-gradient-6" x1="45.79" y1="129.3" x2="47.94" y2="129.3" xlink:href="#linear-gradient-4"/><linearGradient id="linear-gradient-7" x1="36.46" y1="61.64" x2="57.23" y2="61.64" gradientUnits="userSpaceOnUse"><stop offset="0" stop-color="#8ea8b3"/><stop offset="0.01" stop-color="#95adb8"/><stop offset="0.05" stop-color="#a9bdc5"/><stop offset="0.09" stop-color="#b7c8cf"/><stop offset="0.14" stop-color="#bfcfd4"/><stop offset="0.22" stop-color="#c2d1d6"/><stop offset="0.32" stop-color="#b2c4ca"/><stop offset="0.51" stop-color="#8aa3ac"/><stop offset="0.74" stop-color="#507481"/><stop offset="0.87" stop-color="#527683"/><stop offset="0.92" stop-color="#597b88"/><stop offset="0.95" stop-color="#648592"/><stop offset="0.97" stop-color="#75939f"/><stop offset="1" stop-color="#8ba5b0"/><stop offset="1" stop-color="#8ea8b3"/></linearGradient><linearGradient id="linear-gradient-8" x1="36.15" y1="67.88" x2="57.65" y2="67.88" gradientUnits="userSpaceOnUse"><stop offset="0" stop-color="#507481"/><stop offset="0.03" stop-color="#61828f"/><stop offset="0.07" stop-color="#75939f"/><stop offset="0.12" stop-color="#839faa"/><stop offset="0.19" stop-color="#8ba6b1"/><stop offset="0.29" stop-color="#8ea8b3"/><stop offset="0.41" stop-color="#84a0ab"/><stop offset="0.61" stop-color="#6b8b97"/><stop offset="0.78" stop-color="#507481"/><stop offset="0.83" stop-color="#557885"/><stop offset="0.89" stop-color="#638490"/><stop offset="0.96" stop-color="#7997a2"/><stop offset="1" stop-color="#8ea8b3"/></linearGradient><linearGradient id="linear-gradient-9" x1="-81.62" y1="47.15" x2="-63.82" y2="45.9" gradientTransform="translate(133.3)" gradientUnits="userSpaceOnUse"><stop offset="0" stop-color="#8ea8b3"/><stop offset="0.35" stop-color="#8ea8b3"/><stop offset="0.39" stop-color="#89a4af"/><stop offset="0.63" stop-color="#6c8d99"/><stop offset="0.85" stop-color="#5a7e8b"/><stop offset="1" stop-color="#547986"/></linearGradient><linearGradient id="linear-gradient-10" x1="-76.96" y1="113.86" x2="-59.15" y2="112.62" xlink:href="#linear-gradient-9"/><linearGradient id="linear-gradient-11" x1="-76.96" y1="113.86" x2="-59.15" y2="112.62" gradientTransform="translate(133.3)" xlink:href="#linear-gradient-8"/><linearGradient id="linear-gradient-12" x1="-78.29" y1="94.79" x2="-60.48" y2="93.54" gradientTransform="translate(133.3)" gradientUnits="userSpaceOnUse"><stop offset="0.28" stop-color="#1f3143"/><stop offset="0.45" stop-color="#1d2b39"/><stop offset="0.73" stop-color="#161a20"/><stop offset="0.78" stop-color="#15161a"/><stop offset="0.89" stop-color="#16171c"/><stop offset="0.93" stop-color="#171c23"/><stop offset="0.97" stop-color="#1a2430"/><stop offset="1" stop-color="#1f3042"/><stop offset="1" stop-color="#1f3143"/></linearGradient><linearGradient id="linear-gradient-13" x1="34.01" y1="60.86" x2="42.21" y2="60.57" gradientUnits="userSpaceOnUse"><stop offset="0" stop-color="#294359"/><stop offset="0.13" stop-color="#3e5669"/><stop offset="0.4" stop-color="#758694"/><stop offset="0.79" stop-color="#ccd2d7"/><stop offset="1" stop-color="#fff"/></linearGradient><linearGradient id="linear-gradient-14" x1="49.32" y1="65.25" x2="54.36" y2="64.81" xlink:href="#linear-gradient-13"/><linearGradient id="linear-gradient-15" x1="-46.49" y1="45.85" x2="-64.12" y2="48.01" gradientTransform="matrix(-1, 0, 0, 1, -18.62, 0)" gradientUnits="userSpaceOnUse"><stop offset="0" stop-color="#8ea8b3"/><stop offset="0.02" stop-color="#a1b7c0"/><stop offset="0.04" stop-color="#bbcad1"/><stop offset="0.07" stop-color="#cfdade"/><stop offset="0.11" stop-color="#dde5e8"/><stop offset="0.15" stop-color="#e5ebed"/><stop offset="0.22" stop-color="#e8edef"/><stop offset="0.34" stop-color="#d8e1e5"/><stop offset="0.57" stop-color="#b0c2ca"/><stop offset="0.74" stop-color="#8ea8b3"/><stop offset="0.87" stop-color="#90a9b4"/><stop offset="0.92" stop-color="#97afb9"/><stop offset="0.96" stop-color="#a2b8c1"/><stop offset="0.98" stop-color="#b3c5cc"/><stop offset="1" stop-color="#c2d1d6"/></linearGradient><linearGradient id="linear-gradient-16" x1="-38.36" y1="112.01" x2="-55.99" y2="114.17" xlink:href="#linear-gradient-15"/><linearGradient id="linear-gradient-17" x1="-38.36" y1="112.01" x2="-55.99" y2="114.17" gradientTransform="matrix(-1, 0, 0, 1, -18.62, 0)" xlink:href="#linear-gradient-8"/><linearGradient id="linear-gradient-18" x1="-40.69" y1="93.09" x2="-58.32" y2="95.26" gradientTransform="matrix(-1, 0, 0, 1, -18.62, 0)" gradientUnits="userSpaceOnUse"><stop offset="0" stop-color="#1f3143"/><stop offset="0.06" stop-color="#2a4258"/><stop offset="0.13" stop-color="#33516a"/><stop offset="0.2" stop-color="#395a75"/><stop offset="0.28" stop-color="#3b5d79"/><stop offset="0.42" stop-color="#36556f"/><stop offset="0.64" stop-color="#294056"/><stop offset="0.78" stop-color="#1f3143"/><stop offset="0.87" stop-color="#213548"/><stop offset="0.98" stop-color="#274055"/><stop offset="1" stop-color="#294359"/></linearGradient><linearGradient id="linear-gradient-19" x1="37.88" y1="55.9" x2="55.79" y2="55.9" gradientUnits="userSpaceOnUse"><stop offset="0" stop-color="#8ea8b3"/><stop offset="0.02" stop-color="#a1b7c0"/><stop offset="0.04" stop-color="#bbcad1"/><stop offset="0.07" stop-color="#cfdade"/><stop offset="0.11" stop-color="#dde5e8"/><stop offset="0.15" stop-color="#e5ebed"/><stop offset="0.22" stop-color="#e8edef"/><stop offset="0.29" stop-color="#d8e1e5"/><stop offset="0.42" stop-color="#b0c2ca"/><stop offset="0.51" stop-color="#94acb7"/><stop offset="0.74" stop-color="#8ea8b3"/><stop offset="0.87" stop-color="#90a9b4"/><stop offset="0.92" stop-color="#97afb9"/><stop offset="0.96" stop-color="#a2b8c1"/><stop offset="0.98" stop-color="#b3c5cc"/><stop offset="1" stop-color="#c2d1d6"/></linearGradient><linearGradient id="linear-gradient-20" x1="37.88" y1="122.52" x2="55.8" y2="122.52" xlink:href="#linear-gradient-19"/><linearGradient id="linear-gradient-21" x1="37.88" y1="122.51" x2="55.8" y2="122.51" xlink:href="#linear-gradient-8"/><linearGradient id="linear-gradient-22" x1="37.88" y1="103.53" x2="55.79" y2="103.53" gradientUnits="userSpaceOnUse"><stop offset="0" stop-color="#3b5d79"/><stop offset="0.01" stop-color="#395a75"/><stop offset="0.09" stop-color="#304d65"/><stop offset="0.17" stop-color="#2b455c"/><stop offset="0.28" stop-color="#294359"/><stop offset="0.55" stop-color="#22374a"/><stop offset="0.78" stop-color="#1f3143"/><stop offset="0.87" stop-color="#213548"/><stop offset="0.98" stop-color="#274055"/><stop offset="1" stop-color="#294359"/></linearGradient></defs><g class="cls-5"><g id="图层_1" data-name="图层 1"><g class="cls-6"><rect class="cls-7" x="58.53" y="120.16" width="13.59" height="34.7"/></g><path class="cls-4" d="M72.15,120.16a6.81,6.81,0,1,1-6.81-6.81A6.81,6.81,0,0,1,72.15,120.16Z"/><g class="cls-8"><g class="cls-9"><path class="cls-10" d="M74.48,120.16A9.14,9.14,0,1,1,65.34,111,9.14,9.14,0,0,1,74.48,120.16Z"/><path class="cls-11" d="M74.17,120.16a8.83,8.83,0,1,1-8.83-8.84A8.83,8.83,0,0,1,74.17,120.16Z"/><path class="cls-12" d="M73.86,120.16a8.52,8.52,0,1,1-8.52-8.53A8.52,8.52,0,0,1,73.86,120.16Z"/><path class="cls-13" d="M73.55,120.16a8.21,8.21,0,1,1-8.21-8.22A8.21,8.21,0,0,1,73.55,120.16Z"/><path class="cls-14" d="M73.24,120.16a7.9,7.9,0,1,1-7.9-7.9A7.9,7.9,0,0,1,73.24,120.16Z"/><path class="cls-15" d="M72.93,120.16a7.59,7.59,0,1,1-7.59-7.59A7.59,7.59,0,0,1,72.93,120.16Z"/><path class="cls-16" d="M72.62,120.16a7.28,7.28,0,1,1-7.28-7.28A7.27,7.27,0,0,1,72.62,120.16Z"/><path class="cls-17" d="M72.31,120.16a7,7,0,1,1-7-7A7,7,0,0,1,72.31,120.16Z"/><path class="cls-18" d="M72,120.16a6.66,6.66,0,1,1-6.66-6.66A6.66,6.66,0,0,1,72,120.16Z"/><path class="cls-19" d="M71.69,120.16a6.35,6.35,0,1,1-6.35-6.35A6.34,6.34,0,0,1,71.69,120.16Z"/><path class="cls-20" d="M71.38,120.16a6,6,0,1,1-6-6A6,6,0,0,1,71.38,120.16Z"/><path class="cls-21" d="M71.07,120.16a5.73,5.73,0,1,1-5.73-5.73A5.72,5.72,0,0,1,71.07,120.16Z"/><path class="cls-22" d="M70.76,120.16a5.42,5.42,0,1,1-5.42-5.42A5.42,5.42,0,0,1,70.76,120.16Z"/><path class="cls-23" d="M70.45,120.16a5.11,5.11,0,1,1-5.11-5.11A5.1,5.1,0,0,1,70.45,120.16Z"/><path class="cls-24" d="M70.14,120.16a4.8,4.8,0,1,1-4.8-4.8A4.8,4.8,0,0,1,70.14,120.16Z"/><path class="cls-25" d="M69.83,120.16a4.49,4.49,0,1,1-4.49-4.49A4.49,4.49,0,0,1,69.83,120.16Z"/><path class="cls-26" d="M69.52,120.16A4.18,4.18,0,1,1,65.34,116,4.18,4.18,0,0,1,69.52,120.16Z"/><path class="cls-27" d="M69.21,120.16a3.87,3.87,0,1,1-3.87-3.87A3.86,3.86,0,0,1,69.21,120.16Z"/><path class="cls-28" d="M68.9,120.16a3.56,3.56,0,1,1-3.56-3.56A3.55,3.55,0,0,1,68.9,120.16Z"/><path class="cls-29" d="M68.59,120.16a3.25,3.25,0,1,1-3.25-3.25A3.24,3.24,0,0,1,68.59,120.16Z"/><path class="cls-30" d="M68.28,120.16a2.94,2.94,0,1,1-2.94-2.94A2.94,2.94,0,0,1,68.28,120.16Z"/><path class="cls-31" d="M68,120.16a2.63,2.63,0,1,1-2.63-2.63A2.63,2.63,0,0,1,68,120.16Z"/><path class="cls-32" d="M67.66,120.16a2.32,2.32,0,1,1-2.32-2.32A2.32,2.32,0,0,1,67.66,120.16Z"/><path class="cls-33" d="M67.35,120.16a2,2,0,1,1-2-2A2,2,0,0,1,67.35,120.16Z"/><path class="cls-34" d="M67,120.16a1.7,1.7,0,1,1-1.7-1.7A1.7,1.7,0,0,1,67,120.16Z"/><path class="cls-35" d="M66.73,120.16a1.39,1.39,0,1,1-1.39-1.39A1.38,1.38,0,0,1,66.73,120.16Z"/><path class="cls-36" d="M66.42,120.16a1.08,1.08,0,1,1-1.08-1.08A1.07,1.07,0,0,1,66.42,120.16Z"/></g></g><g class="cls-37"><rect class="cls-7" x="21.51" y="120.16" width="13.59" height="34.7"/></g><path class="cls-4" d="M35.13,120.16a6.81,6.81,0,1,1-6.81-6.81A6.81,6.81,0,0,1,35.13,120.16Z"/><g class="cls-38"><g class="cls-9"><path class="cls-10" d="M37.46,120.16A9.14,9.14,0,1,1,28.32,111,9.14,9.14,0,0,1,37.46,120.16Z"/><path class="cls-39" d="M37.15,120.16a8.83,8.83,0,1,1-8.83-8.84A8.83,8.83,0,0,1,37.15,120.16Z"/><path class="cls-40" d="M36.84,120.16a8.52,8.52,0,1,1-8.52-8.53A8.52,8.52,0,0,1,36.84,120.16Z"/><path class="cls-41" d="M36.53,120.16a8.21,8.21,0,1,1-8.21-8.22A8.22,8.22,0,0,1,36.53,120.16Z"/><path class="cls-42" d="M36.22,120.16a7.9,7.9,0,1,1-7.9-7.9A7.9,7.9,0,0,1,36.22,120.16Z"/><path class="cls-43" d="M35.91,120.16a7.59,7.59,0,1,1-7.59-7.59A7.59,7.59,0,0,1,35.91,120.16Z"/><path class="cls-44" d="M35.6,120.16a7.28,7.28,0,1,1-7.28-7.28A7.27,7.27,0,0,1,35.6,120.16Z"/><path class="cls-45" d="M35.29,120.16a7,7,0,1,1-7-7A7,7,0,0,1,35.29,120.16Z"/><path class="cls-46" d="M35,120.16a6.66,6.66,0,1,1-6.66-6.66A6.66,6.66,0,0,1,35,120.16Z"/><path class="cls-47" d="M34.67,120.16a6.35,6.35,0,1,1-6.35-6.35A6.34,6.34,0,0,1,34.67,120.16Z"/><path class="cls-48" d="M34.36,120.16a6,6,0,1,1-6-6A6,6,0,0,1,34.36,120.16Z"/><path class="cls-49" d="M34.05,120.16a5.73,5.73,0,1,1-5.73-5.73A5.73,5.73,0,0,1,34.05,120.16Z"/><path class="cls-50" d="M33.74,120.16a5.42,5.42,0,1,1-5.42-5.42A5.42,5.42,0,0,1,33.74,120.16Z"/><path class="cls-51" d="M33.43,120.16a5.11,5.11,0,1,1-5.11-5.11A5.1,5.1,0,0,1,33.43,120.16Z"/><path class="cls-52" d="M33.12,120.16a4.8,4.8,0,1,1-4.8-4.8A4.8,4.8,0,0,1,33.12,120.16Z"/><path class="cls-53" d="M32.81,120.16a4.49,4.49,0,1,1-4.49-4.49A4.49,4.49,0,0,1,32.81,120.16Z"/><path class="cls-54" d="M32.5,120.16A4.18,4.18,0,1,1,28.32,116,4.18,4.18,0,0,1,32.5,120.16Z"/><path class="cls-55" d="M32.19,120.16a3.87,3.87,0,1,1-3.87-3.87A3.87,3.87,0,0,1,32.19,120.16Z"/><path class="cls-56" d="M31.88,120.16a3.56,3.56,0,1,1-3.56-3.56A3.56,3.56,0,0,1,31.88,120.16Z"/><path class="cls-57" d="M31.57,120.16a3.25,3.25,0,1,1-3.25-3.25A3.25,3.25,0,0,1,31.57,120.16Z"/><path class="cls-58" d="M31.26,120.16a2.94,2.94,0,1,1-2.94-2.94A2.94,2.94,0,0,1,31.26,120.16Z"/><path class="cls-59" d="M31,120.16a2.63,2.63,0,1,1-2.63-2.63A2.63,2.63,0,0,1,31,120.16Z"/><path class="cls-60" d="M30.64,120.16a2.32,2.32,0,1,1-2.32-2.32A2.32,2.32,0,0,1,30.64,120.16Z"/><path class="cls-61" d="M30.33,120.16a2,2,0,1,1-2-2A2,2,0,0,1,30.33,120.16Z"/><path class="cls-62" d="M30,120.16a1.69,1.69,0,1,1-1.69-1.7A1.69,1.69,0,0,1,30,120.16Z"/><path class="cls-63" d="M29.7,120.16a1.38,1.38,0,1,1-1.38-1.39A1.38,1.38,0,0,1,29.7,120.16Z"/><path class="cls-64" d="M29.39,120.16a1.07,1.07,0,1,1-1.07-1.08A1.07,1.07,0,0,1,29.39,120.16Z"/></g></g><g class="cls-65"><rect class="cls-7" x="40.06" y="129.3" width="13.59" height="34.7"/></g><path class="cls-4" d="M53.68,129.3a6.81,6.81,0,1,1-6.81-6.81A6.81,6.81,0,0,1,53.68,129.3Z"/><g class="cls-66"><g class="cls-9"><path class="cls-10" d="M56,129.3a9.14,9.14,0,1,1-9.14-9.14A9.14,9.14,0,0,1,56,129.3Z"/><path class="cls-67" d="M55.7,129.3a8.83,8.83,0,1,1-8.83-8.83A8.83,8.83,0,0,1,55.7,129.3Z"/><path class="cls-68" d="M55.39,129.3a8.52,8.52,0,1,1-8.52-8.52A8.52,8.52,0,0,1,55.39,129.3Z"/><path class="cls-69" d="M55.08,129.3a8.21,8.21,0,1,1-8.21-8.21A8.22,8.22,0,0,1,55.08,129.3Z"/><path class="cls-70" d="M54.77,129.3a7.9,7.9,0,1,1-7.9-7.9A7.9,7.9,0,0,1,54.77,129.3Z"/><path class="cls-71" d="M54.46,129.3a7.59,7.59,0,1,1-7.59-7.59A7.59,7.59,0,0,1,54.46,129.3Z"/><path class="cls-72" d="M54.15,129.3A7.28,7.28,0,1,1,46.87,122,7.28,7.28,0,0,1,54.15,129.3Z"/><path class="cls-73" d="M53.84,129.3a7,7,0,1,1-7-7A7,7,0,0,1,53.84,129.3Z"/><path class="cls-74" d="M53.53,129.3a6.66,6.66,0,1,1-6.66-6.66A6.66,6.66,0,0,1,53.53,129.3Z"/><path class="cls-75" d="M53.22,129.3A6.35,6.35,0,1,1,46.87,123,6.35,6.35,0,0,1,53.22,129.3Z"/><path class="cls-76" d="M52.91,129.3a6,6,0,1,1-6-6A6,6,0,0,1,52.91,129.3Z"/><path class="cls-77" d="M52.6,129.3a5.73,5.73,0,1,1-5.73-5.73A5.74,5.74,0,0,1,52.6,129.3Z"/><path class="cls-78" d="M52.29,129.3a5.42,5.42,0,1,1-5.42-5.42A5.42,5.42,0,0,1,52.29,129.3Z"/><path class="cls-79" d="M52,129.3a5.11,5.11,0,1,1-5.11-5.11A5.11,5.11,0,0,1,52,129.3Z"/><path class="cls-80" d="M51.67,129.3a4.8,4.8,0,1,1-4.8-4.8A4.8,4.8,0,0,1,51.67,129.3Z"/><path class="cls-81" d="M51.35,129.3a4.49,4.49,0,1,1-4.48-4.49A4.48,4.48,0,0,1,51.35,129.3Z"/><path class="cls-82" d="M51,129.3a4.18,4.18,0,1,1-4.17-4.18A4.17,4.17,0,0,1,51,129.3Z"/><path class="cls-83" d="M50.73,129.3a3.87,3.87,0,1,1-3.86-3.87A3.86,3.86,0,0,1,50.73,129.3Z"/><path class="cls-84" d="M50.42,129.3a3.56,3.56,0,1,1-3.55-3.56A3.55,3.55,0,0,1,50.42,129.3Z"/><path class="cls-85" d="M50.11,129.3a3.25,3.25,0,1,1-3.24-3.25A3.24,3.24,0,0,1,50.11,129.3Z"/><path class="cls-86" d="M49.8,129.3a2.94,2.94,0,1,1-2.93-2.94A2.93,2.93,0,0,1,49.8,129.3Z"/><path class="cls-87" d="M49.49,129.3a2.63,2.63,0,1,1-2.62-2.62A2.62,2.62,0,0,1,49.49,129.3Z"/><path class="cls-88" d="M49.18,129.3A2.32,2.32,0,1,1,46.87,127,2.3,2.3,0,0,1,49.18,129.3Z"/><path class="cls-89" d="M48.87,129.3a2,2,0,1,1-2-2A2,2,0,0,1,48.87,129.3Z"/><path class="cls-90" d="M48.56,129.3a1.7,1.7,0,1,1-1.69-1.69A1.69,1.69,0,0,1,48.56,129.3Z"/><path class="cls-91" d="M48.25,129.3a1.39,1.39,0,1,1-1.38-1.38A1.38,1.38,0,0,1,48.25,129.3Z"/><path class="cls-92" d="M47.94,129.3a1.08,1.08,0,1,1-1.07-1.07A1.07,1.07,0,0,1,47.94,129.3Z"/></g></g><path class="cls-93" d="M55.73,12.76a.17.17,0,0,0,0,.07.19.19,0,0,1,0,.07.15.15,0,0,1,0,.07l0,.08a.25.25,0,0,1,0,.07.25.25,0,0,1,0,.07l0,.07,0,.07a.43.43,0,0,1,0,.07l-.06.08-.05.06-.07.08-.06.06-.08.08-.08.06-.09.07-.08.07-.1.07-.09.06-.12.07-.09.06-.13.07-.1.06-.15.07-.11.05-.15.07-.12.05-.18.07-.11.05-.32.11a22.74,22.74,0,0,1-12.59,0l-.32-.11-.09,0-.2-.08-.11,0-.17-.08-.1-.05-.16-.08-.1-.05-.13-.07-.1-.06L39,14.08,38.86,14l-.1-.07-.09-.06-.09-.08-.07-.06-.08-.07-.07-.07a.23.23,0,0,0-.07-.07l0-.07-.06-.08a.21.21,0,0,1,0-.06.35.35,0,0,1,0-.08l0-.07,0-.07L38,13,38,13s0-.05,0-.07,0-.05,0-.07v-.08s0-.05,0-.07h0l-1.46,94.57c0,.78,1.3,1.74,3,2.35,3.75,1.28,10.79,1.45,14.23.15,1.67-.63,3.49-1.45,3.49-2.48l-1.5-94.56Z"/><path class="cls-94" d="M37.93,13.05v.12c0,.05,0,.09,0,.13s0,.08,0,.12l0,.13,0,.12,0,.13s0,.08,0,.11a.5.5,0,0,0,0,.13.56.56,0,0,0,0,.12l.06.13a1.17,1.17,0,0,1,0,.11.54.54,0,0,1,.07.13l.07.11.08.12a.41.41,0,0,0,.07.11l.09.13.09.11.1.12.09.1.12.12.1.11.13.12.1.09.16.13.1.09.17.13.11.07.2.14.09.06.32.2a13.87,13.87,0,0,0,12.59,0,3.37,3.37,0,0,0,.32-.19l.11-.07.18-.13.12-.08L54,16l.11-.09.15-.12.1-.09.13-.13.09-.1.12-.12.09-.1a1.47,1.47,0,0,0,.1-.13L55,15a.6.6,0,0,0,.09-.13,1,1,0,0,0,.08-.11l.08-.12.06-.11s.05-.08.07-.13a1.17,1.17,0,0,0,.05-.11l.06-.13s0-.07,0-.11,0-.09,0-.13l0-.11a.93.93,0,0,0,0-.13.5.5,0,0,0,0-.12l0-.13a.45.45,0,0,0,0-.11.69.69,0,0,0,0-.13.49.49,0,0,1,0-.12c.05-1.37-.82-2.75-2.63-3.79a13.9,13.9,0,0,0-12.59,0c-1.73,1-2.59,2.32-2.59,3.64C37.92,13,37.93,13,37.93,13.05Z"/><path class="cls-95" d="M56.31,25.24v.13a.59.59,0,0,0,0,.13c0,.05,0,.09,0,.13s0,.09,0,.14l0,.12c0,.05,0,.09,0,.14a.56.56,0,0,1,0,.12.78.78,0,0,1,0,.14l0,.12-.06.14-.06.12-.07.13a.75.75,0,0,0-.07.12l-.09.13-.07.12a1.47,1.47,0,0,1-.1.13l-.09.12-.11.13-.09.11-.13.13-.1.11-.14.13-.11.1-.14.12-.12.1-.17.13-.13.09L54,28.7l-.12.08-.34.21a14.79,14.79,0,0,1-13.43,0l-.34-.21-.09-.06-.22-.15-.11-.08-.19-.14-.1-.09-.17-.14-.11-.1-.14-.13-.11-.11-.12-.13-.1-.11-.11-.13-.09-.12-.1-.13L37.94,27l-.08-.13a.75.75,0,0,1-.07-.12l-.08-.14-.05-.12c0-.05,0-.09-.07-.14l0-.12a.78.78,0,0,1,0-.14.56.56,0,0,1,0-.12c0-.05,0-.09,0-.14l0-.13,0-.13c0-.05,0-.09,0-.13a.68.68,0,0,1,0-.14.62.62,0,0,0,0-.13v-.15l-1.17,80c0,1.42,1.79,3,3.66,4.12,3.72,2.15,10.39,2,14.08-.13,1.84-1.07,3.75-2.67,3.76-4.07L56.32,25.12S56.31,25.2,56.31,25.24Z"/><path class="cls-96" d="M56.49,78.26a.35.35,0,0,0,.07.09l.07.08a.76.76,0,0,0,.09.09l.07.08a.47.47,0,0,1,.1.1l.08.06.12.1.07.06.13.1.08.06.15.1.07,0,.24.14a10.36,10.36,0,0,0,9.39,0l.24-.14.08-.06.14-.09.08-.07.12-.08.08-.07.11-.09.08-.07.09-.09.07-.08.09-.09.07-.08.08-.09.06-.08.06-.09.06-.08,0-.09L59.09,12.69h0v.08a0,0,0,0,0,0,0h0v.1s0,0,0,0h0V13l0,0h0l0,0v0h0v0l0,0h0l0,0h0l0,0h0l0,0a2.14,2.14,0,0,1-1.94,0l0,0h0l0,0h0l0,0h0l0,0v0l0,0h0l0,0v0h0v0l0,0v0h0v-.08s0,0,0,0v0h0v-.08h0l0,65.45,0,.05Z"/><path class="cls-97" d="M74.2,114.45l-1.15-7.76s0,0,0,0,0,.08,0,.11l-.06.13a1.17,1.17,0,0,0,0,.11s0,.08-.07.12l-.06.1s-.05.08-.07.13a.36.36,0,0,0-.07.1l-.09.12-.08.1-.1.12-.09.1-.11.12-.09.09-.13.12-.1.09-.13.12-.11.09-.15.11-.11.08-.18.12L71,109l-.3.18a13.35,13.35,0,0,1-12.15,0l-.31-.18-.09-.06-.2-.14-.09-.07a1.09,1.09,0,0,1-.17-.13.39.39,0,0,1-.1-.08l-.15-.12-.1-.09-.13-.12a.94.94,0,0,0-.1-.1L57,108l-.09-.1a.52.52,0,0,0-.1-.11l-.07-.11a.94.94,0,0,1-.09-.12.41.41,0,0,1-.07-.11l-.08-.12-.06-.11a.75.75,0,0,1-.07-.12h0v7.22a3.42,3.42,0,0,0,.05,1,4.75,4.75,0,0,0,2.6,3.24,13.94,13.94,0,0,0,12.64,0,4.71,4.71,0,0,0,2.57-3.19A2.13,2.13,0,0,0,74.2,114.45Z"/><path class="cls-98" d="M59.09,12.69h0a.66.66,0,0,0-.4-.58,2.14,2.14,0,0,0-1.94,0,.71.71,0,0,0-.4.56v0h2.74Z"/><path class="cls-98" d="M56.36,12.72v0h0v0s0,0,0,0v.08h0v0l0,0v0h0v0l0,0h0l0,0v0l0,0h0l0,0h0l0,0h0l0,0a2.14,2.14,0,0,0,1.94,0l0,0h0l0,0h0l0,0h0l0,0v0h0v0l0,0h0l0,0v-.06h0s0,0,0,0v-.1h0a0,0,0,0,1,0,0V12.7H56.35v0Z"/><path class="cls-99" d="M74.2,114.45l-1.15-7.76s0,0,0,0,0,.08,0,.11l-.06.13a1.17,1.17,0,0,0,0,.11s0,.08-.07.12l-.06.1s-.05.08-.07.13a.36.36,0,0,0-.07.1l-.09.12-.08.1-.1.12-.09.1-.11.12-.09.09-.13.12-.1.09-.13.12-.11.09-.15.11-.11.08-.18.12L71,109l-.3.18a13.35,13.35,0,0,1-12.15,0l-.31-.18-.09-.06-.2-.14-.09-.07a1.09,1.09,0,0,1-.17-.13.39.39,0,0,1-.1-.08l-.15-.12-.1-.09-.13-.12a.94.94,0,0,0-.1-.1L57,108l-.09-.1a.52.52,0,0,0-.1-.11l-.07-.11a.94.94,0,0,1-.09-.12.41.41,0,0,1-.07-.11l-.08-.12-.06-.11a.75.75,0,0,1-.07-.12h0v7.22a3.42,3.42,0,0,0,.05,1,4.75,4.75,0,0,0,2.6,3.24,13.94,13.94,0,0,0,12.64,0,4.71,4.71,0,0,0,2.57-3.19A2.13,2.13,0,0,0,74.2,114.45Z"/><path class="cls-100" d="M56.48,107.18l.06.11.08.12a.41.41,0,0,0,.07.11.94.94,0,0,0,.09.12l.07.11a.52.52,0,0,1,.1.11l.09.1.11.12a.94.94,0,0,1,.1.1l.13.12.1.09.15.12a.39.39,0,0,0,.1.08,1.09,1.09,0,0,0,.17.13l.09.07.2.14.09.06.31.18a13.35,13.35,0,0,0,12.15,0L71,109l.11-.08.18-.12.11-.08.15-.11.11-.09.13-.12.1-.09.13-.12.09-.09.11-.12.09-.1.1-.12.08-.1.09-.12a.36.36,0,0,1,.07-.1c0-.05,0-.09.07-.13l.06-.1s.05-.09.07-.12a1.17,1.17,0,0,1,0-.11l.06-.13s0-.07,0-.11,0,0,0,0L68.78,77.93l0,.09-.06.08-.06.09-.06.08-.08.09-.07.08-.09.09-.07.08-.09.09-.08.07-.11.09-.08.07-.12.08-.08.07-.14.09-.08.06-.24.14a10.36,10.36,0,0,1-9.39,0l-.24-.14-.07,0-.15-.1L57.29,79l-.13-.1-.07-.06-.12-.1-.08-.06a.47.47,0,0,0-.1-.1l-.07-.08a.76.76,0,0,1-.09-.09l-.07-.08a.35.35,0,0,1-.07-.09l-.06-.08,0-.05v28.92h0A.75.75,0,0,0,56.48,107.18Z"/><path class="cls-101" d="M37.06,12.68s1,3.51,2.83,4.35l3.94,90.18-4.47,1.53a9.78,9.78,0,0,1-3.83-4.48l1.15-89.39Z"/><path class="cls-102" d="M48.14,21.72s1,3.51,2.83,4.35L57.17,106s-2.22,3.55-4.1,2.21L47.76,23.91Z"/><path class="cls-103" d="M37.31,12.68v.08h0v.14h0V13l0,0h0v0l0,0h0l0,0,0,0,0,0h0l0,0h0l0,0h0l0,0a2.14,2.14,0,0,1-1.94,0l0,0h0l0,0h0l0,0h0l0,0v0h0l0,0s0,0,0,0h0v0l0,0v0s0,0,0,0h0v-.12h0a0,0,0,0,0,0,0V12.7h0L24.89,77.9s0,0,0,0L25,78l.06.08.06.09.06.08.08.09.07.08.09.09.07.08.09.09.08.07.11.09.08.07.11.08.09.07.14.09.08.06.23.14a10.38,10.38,0,0,0,9.4,0l.24-.14.07,0,.15-.1L36.4,79l.13-.1.07-.06.12-.1.07-.06.11-.1.07-.08.09-.09.06-.08a.24.24,0,0,0,.08-.09l.06-.08h0l0-65.49Z"/><path class="cls-104" d="M37.15,107.29a.83.83,0,0,1-.08.12.41.41,0,0,1-.07.11.94.94,0,0,1-.09.12.76.76,0,0,1-.08.11l-.09.11-.09.1-.11.12a.94.94,0,0,0-.1.1l-.13.12-.1.09-.15.12a.39.39,0,0,1-.1.08,1.09,1.09,0,0,1-.17.13l-.09.07-.2.14-.09.06-.31.18a13.35,13.35,0,0,1-12.15,0l-.3-.18-.11-.08a1.88,1.88,0,0,1-.18-.12l-.11-.08-.15-.11-.11-.09-.13-.12-.1-.09-.13-.12-.09-.09-.12-.12-.08-.1-.1-.12-.08-.1-.09-.12a.36.36,0,0,0-.07-.1c0-.05-.05-.09-.07-.13l-.06-.1-.07-.12a1.17,1.17,0,0,0-.05-.11l-.06-.13s0-.07,0-.11l0-.09-1.16,7.81a1.93,1.93,0,0,0-.06.84A4.69,4.69,0,0,0,22,118.48a13.94,13.94,0,0,0,12.64,0,4.74,4.74,0,0,0,2.61-3.24,4.39,4.39,0,0,0,0-1V107.1a.56.56,0,0,1,0,.08Z"/><path class="cls-105" d="M37.15,107.29a.83.83,0,0,1-.08.12.41.41,0,0,1-.07.11.94.94,0,0,1-.09.12.76.76,0,0,1-.08.11l-.09.11-.09.1-.11.12a.94.94,0,0,0-.1.1l-.13.12-.1.09-.15.12a.39.39,0,0,1-.1.08,1.09,1.09,0,0,1-.17.13l-.09.07-.2.14-.09.06-.31.18a13.35,13.35,0,0,1-12.15,0l-.3-.18-.11-.08a1.88,1.88,0,0,1-.18-.12l-.11-.08-.15-.11-.11-.09-.13-.12-.1-.09-.13-.12-.09-.09-.12-.12-.08-.1-.1-.12-.08-.1-.09-.12a.36.36,0,0,0-.07-.1c0-.05-.05-.09-.07-.13l-.06-.1-.07-.12a1.17,1.17,0,0,0-.05-.11l-.06-.13s0-.07,0-.11l0-.09-1.16,7.81a1.93,1.93,0,0,0-.06.84A4.69,4.69,0,0,0,22,118.48a13.94,13.94,0,0,0,12.64,0,4.74,4.74,0,0,0,2.61-3.24,4.39,4.39,0,0,0,0-1V107.1a.56.56,0,0,1,0,.08Z"/><path class="cls-106" d="M37.2,78.26a.24.24,0,0,1-.08.09l-.06.08-.09.09-.07.08-.11.1-.07.06-.12.1-.07.06-.13.1-.08.06-.15.1-.07,0-.24.14a10.38,10.38,0,0,1-9.4,0l-.23-.14-.08-.06L26,79.08,25.92,79l-.11-.08-.08-.07-.11-.09-.08-.07-.09-.09-.07-.08-.09-.09-.07-.08-.08-.09-.06-.08L25,78.1,25,78l-.06-.09s0,0,0,0l-4.27,28.74,0,.09s0,.08,0,.11l.06.13a1.17,1.17,0,0,1,.05.11l.07.12.06.1s.05.08.07.13a.36.36,0,0,1,.07.1l.09.12.08.1.1.12.08.1.12.12.09.09.13.12.1.09.13.12.11.09.15.11.11.08a1.88,1.88,0,0,0,.18.12l.11.08.3.18a13.35,13.35,0,0,0,12.15,0l.31-.18.09-.06.2-.14.09-.07a1.09,1.09,0,0,0,.17-.13.39.39,0,0,0,.1-.08l.15-.12.1-.09.13-.12a.94.94,0,0,1,.1-.1l.11-.12.09-.1.09-.11a.76.76,0,0,0,.08-.11.94.94,0,0,0,.09-.12.41.41,0,0,0,.07-.11.83.83,0,0,0,.08-.12l.06-.11a.56.56,0,0,0,0-.08V78.17h0Z"/><path class="cls-98" d="M36.91,12.1a2.14,2.14,0,0,0-1.94,0,.68.68,0,0,0-.4.58h0v.08a0,0,0,0,1,0,0h0v.12h0s0,0,0,0v0l0,0v0h0s0,0,0,0l0,0h0v0l0,0h0l0,0h0l0,0h0l0,0a2.14,2.14,0,0,0,1.94,0l0,0h0l0,0h0l0,0h0l0,0,0,0,0,0h0l0,0v0h0l0,0v-.06h0v-.14h0v-.1A.68.68,0,0,0,36.91,12.1Z"/><path class="cls-107" d="M40.71,87.25l.07.09a.35.35,0,0,0,0,.08l.07.09.06.08a.34.34,0,0,0,.08.09l.06.08.09.09.08.08.1.09.07.07.12.1.07.06.13.1.08.06.15.1a.18.18,0,0,1,.07,0l.24.14a10.38,10.38,0,0,0,9.4,0l.23-.14L52,88.5l.14-.09.09-.07.11-.09.09-.07.1-.08.08-.07.09-.1.08-.07.08-.09.07-.08L53,87.6l0-.07L48.23,22h0v.16h0v0s0,0,0,0v0s0,0,0,0h0v0l0,0v0h0l0,0,0,0s0,0,0,0h0l0,0h0l0,0,0,0,0,0h0l-.05,0a2.12,2.12,0,0,1-1.93,0l0,0h0l0,0v0l0,0h0s0,0,0,0h0l0,0v0l0,0h0v0l0,0h0v0s0,0,0,0v0s0,0,0,0v0h0V22L40.63,87.1l0,.06Z"/><path class="cls-108" d="M55.73,124.59a3.06,3.06,0,0,0,0-.9l-.54-7.25-.05.09-.06.1a.83.83,0,0,1-.08.12l-.07.11s-.06.08-.08.12l-.08.1-.1.12-.09.1-.11.12-.09.09-.13.12-.1.09-.13.12-.11.09-.15.11-.12.09-.17.11-.11.07-.3.19a13.38,13.38,0,0,1-12.15,0l-.31-.19-.09,0-.2-.14-.1-.07-.17-.13-.09-.08-.15-.12-.1-.09-.13-.12-.1-.1-.11-.12-.09-.1-.1-.12-.08-.1-.09-.12-.07-.11-.07-.12a.41.41,0,0,1-.07-.11l-.06-.12-.06-.11a.61.61,0,0,0,0-.12,1.17,1.17,0,0,0,0-.11l0-.13a.76.76,0,0,0,0-.11s0,0,0-.07l-.59,7.91a2.83,2.83,0,0,0,0,.89,4.76,4.76,0,0,0,2.61,3.24c.19.11.4.21.61.31a14.08,14.08,0,0,0,5.79,1.2,12.92,12.92,0,0,0,6.24-1.51A4.76,4.76,0,0,0,55.73,124.59Z"/><path class="cls-98" d="M47.83,21.39a2.14,2.14,0,0,0-1.94,0,.68.68,0,0,0-.4.56v.16h0v0s0,0,0,0v0s0,0,0,0v0h0l0,0v0h0l0,0v0l0,0h0s0,0,0,0h0l0,0v0l0,0h0l0,0a2.12,2.12,0,0,0,1.93,0l.05,0h0l0,0,0,0,0,0h0l0,0h0s0,0,0,0l0,0,0,0h0v0l0,0v0h0s0,0,0,0v0s0,0,0,0v0h0V22h0A.69.69,0,0,0,47.83,21.39Z"/><path class="cls-109" d="M55.73,124.58a3,3,0,0,0,0-.9l-.54-7.25-.05.09-.06.11a.83.83,0,0,1-.08.12.61.61,0,0,1-.07.1s-.06.08-.08.12l-.08.11-.1.11-.09.1-.11.12-.09.1-.13.12-.1.09-.13.11-.11.09-.15.11-.12.09-.17.12-.11.07-.3.18a13.38,13.38,0,0,1-12.15,0l-.31-.19-.09-.06-.2-.13-.1-.08-.17-.12-.09-.08-.15-.13-.1-.09-.13-.12a.94.94,0,0,1-.1-.1,1.14,1.14,0,0,0-.11-.11l-.09-.11-.1-.11-.08-.11-.09-.12-.07-.11a1.27,1.27,0,0,1-.07-.12.41.41,0,0,1-.07-.11.67.67,0,0,1-.06-.12l-.06-.11a.61.61,0,0,0,0-.12l0-.11,0-.12a.56.56,0,0,0,0-.12s0,0,0-.06l-.59,7.9a2.81,2.81,0,0,0,0,.89,4.76,4.76,0,0,0,2.61,3.24c.19.11.4.22.61.32a14.07,14.07,0,0,0,5.79,1.19,12.8,12.8,0,0,0,6.24-1.51A4.74,4.74,0,0,0,55.73,124.58Z"/><path class="cls-110" d="M38.55,115.92l0,.13a1.17,1.17,0,0,1,0,.11.61.61,0,0,1,0,.12l.06.11.06.12a.41.41,0,0,0,.07.11l.07.12.07.11.09.12.08.1.1.12.09.1.11.12.1.1.13.12.1.09.15.12.09.08.17.13.1.07.2.14.09,0,.31.19a13.38,13.38,0,0,0,12.15,0l.3-.19.11-.07.17-.11.12-.09.15-.11.11-.09.13-.12.1-.09.13-.12.09-.09.11-.12.09-.1.1-.12.08-.1s.06-.08.08-.12l.07-.11a.83.83,0,0,0,.08-.12l.06-.1.05-.09L53.07,87.53l0,.07-.08.09-.07.08-.08.09-.08.07-.09.1-.08.07-.1.08-.09.07-.11.09-.09.07L52,88.5l-.08.06-.23.14a10.38,10.38,0,0,1-9.4,0l-.24-.14a.18.18,0,0,0-.07,0l-.15-.1-.08-.06-.13-.1-.07-.06-.12-.1L41.37,88l-.1-.09-.08-.08-.09-.09L41,87.68a.34.34,0,0,1-.08-.09l-.06-.08-.07-.09a.35.35,0,0,1,0-.08l-.07-.09,0-.09,0-.06L38.5,115.74s0,.05,0,.07A.76.76,0,0,1,38.55,115.92Z"/></g></g></svg>