<?xml version="1.0" standalone="no"?><!DOCTYPE svg PUBLIC "-//W3C//DTD SVG 1.1//EN" "http://www.w3.org/Graphics/SVG/1.1/DTD/svg11.dtd"><svg t="1661328611707" class="icon" viewBox="0 0 1024 1024" version="1.1" xmlns="http://www.w3.org/2000/svg" p-id="2213" xmlns:xlink="http://www.w3.org/1999/xlink" width="200" height="200"><defs><style type="text/css">@font-face { font-family: feedback-iconfont; src: url("//at.alicdn.com/t/font_1031158_u69w8yhxdu.woff2?t=1630033759944") format("woff2"), url("//at.alicdn.com/t/font_1031158_u69w8yhxdu.woff?t=1630033759944") format("woff"), url("//at.alicdn.com/t/font_1031158_u69w8yhxdu.ttf?t=1630033759944") format("truetype"); }
</style></defs><path d="M505.6 70.4c-243.2 0-435.2 192-435.2 435.2s192 435.2 435.2 435.2 435.2-192 435.2-435.2-192-435.2-435.2-435.2z m38.4 716.8H473.6v-70.4h70.4v70.4z m108.8-313.6c-12.8 19.2-32 38.4-57.6 70.4-19.2 12.8-32 32-38.4 38.4-6.4 6.4-12.8 19.2-12.8 25.6 0 12.8-6.4 25.6-6.4 51.2h-57.6V640c0-25.6 6.4-44.8 12.8-64 0-6.4 6.4-19.2 19.2-32 6.4-12.8 25.6-25.6 44.8-44.8 19.2-19.2 32-32 38.4-44.8 6.4-12.8 6.4-25.6 6.4-38.4 0-25.6-6.4-44.8-25.6-64-19.2-12.8-38.4-25.6-64-25.6s-51.2 6.4-64 25.6c-19.2 19.2-32 44.8-38.4 76.8l-64-6.4c6.4-44.8 25.6-83.2 51.2-108.8 25.6-25.6 64-38.4 108.8-38.4 51.2 0 89.6 12.8 115.2 38.4 32 25.6 44.8 57.6 44.8 96 6.4 25.6 0 44.8-12.8 64z" fill="#999999" p-id="2214"></path></svg>