<?xml version="1.0" standalone="no"?><!DOCTYPE svg PUBLIC "-//W3C//DTD SVG 1.1//EN" "http://www.w3.org/Graphics/SVG/1.1/DTD/svg11.dtd"><svg t="1658285964855" class="icon" viewBox="0 0 1024 1024" version="1.1" xmlns="http://www.w3.org/2000/svg" p-id="14649" xmlns:xlink="http://www.w3.org/1999/xlink" width="200" height="200"><defs><style type="text/css">@font-face { font-family: feedback-iconfont; src: url("//at.alicdn.com/t/font_1031158_u69w8yhxdu.woff2?t=1630033759944") format("woff2"), url("//at.alicdn.com/t/font_1031158_u69w8yhxdu.woff?t=1630033759944") format("woff"), url("//at.alicdn.com/t/font_1031158_u69w8yhxdu.ttf?t=1630033759944") format("truetype"); }
</style></defs><path d="M310.496 420.886l0.064-0.126-3.398-2.934-44.63-37.81h550.966v51.596L568.442 640.162zM216.922 410.548l243.862 206.466-243.862 207.824zM262.158 855.538l239.388-203.95 67.1 56.754 3.294-3.12 63.572-53.84 239.39 204.156zM860.248 773.754l-3.208-2.312-180.764-153.062 0.868-0.744-0.876-0.746 183.882-155.696 0.226 0.208 59.588-50.802v414.066z" fill="#DFDFDF" p-id="14650"></path><path d="M946.492 888.89H190.544a6.97 6.97 0 0 1-6.97-6.97V353.808a6.97 6.97 0 0 1 6.97-6.97h647.724a6.97 6.97 0 0 1 6.97 6.97v76.492l96.604-81.946a6.98 6.98 0 0 1 4.51-1.654c3.848 0 7.11 3.12 7.11 6.97V881.92a6.97 6.97 0 0 1-6.97 6.97z m-748.978-13.94h742.008V368.604l-96.744 82.064a6.974 6.974 0 0 1-11.482-5.316v-84.574H197.514v514.172z" fill="#4A555F" p-id="14651"></path><path d="M568.442 680.612a6.96 6.96 0 0 1-4.506-1.652L186.056 358.98l9.008-10.636 373.378 316.166L941.968 348.34l9.004 10.642-378.028 319.98c-1.298 1.1-2.9 1.65-4.502 1.65z" fill="#4A555F" p-id="14652"></path><path d="M946.47 888.868H190.578a6.968 6.968 0 0 1-4.52-12.274l310.93-264.944a6.966 6.966 0 0 1 9.024-0.014l62.43 52.864 62.618-53.026a6.968 6.968 0 0 1 9.03 0.014l310.902 265.106a6.968 6.968 0 0 1 2.014 7.714 6.958 6.958 0 0 1-6.536 4.56z m-736.966-13.94h718.046L635.554 625.938l-62.606 53.012a6.978 6.978 0 0 1-9.012 0L501.52 626.1 209.504 874.928zM838.268 452.324a6.974 6.974 0 0 1-6.97-6.97v-84.584H102.342a6.97 6.97 0 0 1-6.97-6.97v-120.164a6.97 6.97 0 0 1 6.97-6.97h728.956V142.08a6.974 6.974 0 0 1 11.482-5.316l178.76 151.636a6.972 6.972 0 0 1 0 10.632l-178.762 151.638a6.976 6.976 0 0 1-4.51 1.654zM109.312 346.828h728.956a6.97 6.97 0 0 1 6.97 6.97v76.502l161.02-136.584-161.02-136.584v76.502a6.97 6.97 0 0 1-6.97 6.97H109.312v106.224z" fill="#4A555F" p-id="14653"></path><path d="M861.502 330.564H125.576v-73.696h735.926V192.256l119.61 101.46-119.61 101.462z" fill="#F58E6F" p-id="14654"></path><path d="M0 529.684h276.076v13.94H0zM49.558 662.28h193.594v13.94H49.558zM143.37 593.664h183.782v13.94H143.37z" fill="#4A555F" p-id="14655"></path></svg>