<svg xmlns="http://www.w3.org/2000/svg" xmlns:xlink="http://www.w3.org/1999/xlink" viewBox="0 0 124.29 93.88"><defs><style>.cls-1{isolation:isolate;}.cls-2,.cls-5,.cls-6{fill:#6198c1;}.cls-3{fill:url(#linear-gradient);}.cls-4,.cls-7{fill:#7babcc;}.cls-11,.cls-5,.cls-6{mix-blend-mode:multiply;}.cls-5{opacity:0.2;}.cls-14,.cls-15,.cls-16,.cls-17,.cls-18,.cls-19,.cls-20,.cls-21,.cls-22,.cls-23,.cls-24,.cls-25,.cls-26,.cls-27,.cls-28,.cls-29,.cls-30,.cls-31,.cls-32,.cls-33,.cls-34,.cls-35,.cls-36,.cls-37,.cls-38,.cls-39,.cls-40,.cls-41,.cls-42,.cls-43,.cls-44,.cls-45,.cls-48,.cls-49,.cls-50,.cls-51,.cls-52,.cls-53,.cls-54,.cls-55,.cls-56,.cls-57,.cls-58,.cls-59,.cls-6,.cls-60,.cls-61,.cls-62,.cls-63,.cls-64,.cls-65,.cls-66,.cls-67,.cls-68,.cls-69,.cls-7,.cls-70,.cls-71,.cls-72,.cls-73,.cls-74,.cls-75,.cls-76,.cls-77,.cls-78,.cls-79{opacity:0.3;}.cls-8{fill:#7baccd;}.cls-9{fill:#d0e2ee;}.cls-10{fill:#a8cadf;}.cls-11,.cls-80{fill:#578db5;}.cls-12{fill:#284459;}.cls-13,.cls-46{fill:#090709;}.cls-13{opacity:0.7;}.cls-14{fill:url(#linear-gradient-2);}.cls-15{fill:url(#linear-gradient-3);}.cls-16{fill:url(#linear-gradient-4);}.cls-17{fill:url(#linear-gradient-5);}.cls-18{fill:url(#linear-gradient-6);}.cls-19{fill:url(#linear-gradient-7);}.cls-20{fill:url(#linear-gradient-8);}.cls-21{fill:url(#linear-gradient-9);}.cls-22{fill:url(#linear-gradient-10);}.cls-23{fill:url(#linear-gradient-11);}.cls-24{fill:url(#linear-gradient-12);}.cls-25{fill:url(#linear-gradient-13);}.cls-26{fill:url(#linear-gradient-14);}.cls-27{fill:url(#linear-gradient-15);}.cls-28{fill:url(#linear-gradient-16);}.cls-29{fill:url(#linear-gradient-17);}.cls-30{fill:url(#linear-gradient-18);}.cls-31{fill:url(#linear-gradient-19);}.cls-32{fill:url(#linear-gradient-20);}.cls-33{fill:url(#linear-gradient-21);}.cls-34{fill:url(#linear-gradient-22);}.cls-35{fill:url(#linear-gradient-23);}.cls-36{fill:url(#linear-gradient-24);}.cls-37{fill:url(#linear-gradient-25);}.cls-38{fill:url(#linear-gradient-26);}.cls-39{fill:url(#linear-gradient-27);}.cls-40{fill:url(#linear-gradient-28);}.cls-41{fill:url(#linear-gradient-29);}.cls-42{fill:url(#linear-gradient-30);}.cls-43{fill:url(#linear-gradient-31);}.cls-44{fill:url(#linear-gradient-32);}.cls-45{fill:url(#linear-gradient-33);}.cls-47{fill:#82bfc6;}.cls-48{fill:url(#linear-gradient-34);}.cls-49{fill:url(#linear-gradient-35);}.cls-50{fill:url(#linear-gradient-36);}.cls-51{fill:url(#linear-gradient-37);}.cls-52{fill:url(#linear-gradient-38);}.cls-53{fill:url(#linear-gradient-39);}.cls-54{fill:url(#linear-gradient-40);}.cls-55{fill:url(#linear-gradient-41);}.cls-56{fill:url(#linear-gradient-42);}.cls-57{fill:url(#linear-gradient-43);}.cls-58{fill:url(#linear-gradient-44);}.cls-59{fill:url(#linear-gradient-45);}.cls-60{fill:url(#linear-gradient-46);}.cls-61{fill:url(#linear-gradient-47);}.cls-62{fill:url(#linear-gradient-48);}.cls-63{fill:url(#linear-gradient-49);}.cls-64{fill:url(#linear-gradient-50);}.cls-65{fill:url(#linear-gradient-51);}.cls-66{fill:url(#linear-gradient-52);}.cls-67{fill:url(#linear-gradient-53);}.cls-68{fill:url(#linear-gradient-54);}.cls-69{fill:url(#linear-gradient-55);}.cls-70{fill:url(#linear-gradient-56);}.cls-71{fill:url(#linear-gradient-57);}.cls-72{fill:url(#linear-gradient-58);}.cls-73{fill:url(#linear-gradient-59);}.cls-74{fill:url(#linear-gradient-60);}.cls-75{fill:url(#linear-gradient-61);}.cls-76{fill:url(#linear-gradient-62);}.cls-77{fill:url(#linear-gradient-63);}.cls-78{fill:url(#linear-gradient-64);}.cls-79{fill:url(#linear-gradient-65);}.cls-81{fill:url(#linear-gradient-66);}.cls-82{fill:url(#linear-gradient-67);}</style><linearGradient id="linear-gradient" x1="47.41" y1="25.21" x2="67.01" y2="59.15" gradientUnits="userSpaceOnUse"><stop offset="0.68" stop-color="#d0e2ee"/><stop offset="0.79" stop-color="#ccdfec"/><stop offset="0.91" stop-color="#bfd7e7"/><stop offset="1" stop-color="#afcce1"/></linearGradient><linearGradient id="linear-gradient-2" x1="98.9" y1="46.39" x2="99.24" y2="46.39" gradientUnits="userSpaceOnUse"><stop offset="0" stop-color="#213847"/><stop offset="1" stop-color="#7baccd"/></linearGradient><linearGradient id="linear-gradient-3" x1="100.58" y1="44.06" x2="100.92" y2="44.06" xlink:href="#linear-gradient-2"/><linearGradient id="linear-gradient-4" x1="98.9" y1="45.04" x2="99.24" y2="45.04" xlink:href="#linear-gradient-2"/><linearGradient id="linear-gradient-5" x1="102.25" y1="43.1" x2="102.6" y2="43.1" xlink:href="#linear-gradient-2"/><linearGradient id="linear-gradient-6" x1="100.58" y1="45.41" x2="100.92" y2="45.41" xlink:href="#linear-gradient-2"/><linearGradient id="linear-gradient-7" x1="103.86" y1="43.53" x2="104.28" y2="43.53" xlink:href="#linear-gradient-2"/><linearGradient id="linear-gradient-8" x1="103.86" y1="42.18" x2="104.28" y2="42.18" xlink:href="#linear-gradient-2"/><linearGradient id="linear-gradient-9" x1="102.25" y1="44.45" x2="102.6" y2="44.45" xlink:href="#linear-gradient-2"/><linearGradient id="linear-gradient-10" x1="98.9" y1="51.34" x2="99.24" y2="51.34" xlink:href="#linear-gradient-2"/><linearGradient id="linear-gradient-11" x1="100.58" y1="49.02" x2="100.92" y2="49.02" xlink:href="#linear-gradient-2"/><linearGradient id="linear-gradient-12" x1="98.9" y1="49.99" x2="99.24" y2="49.99" xlink:href="#linear-gradient-2"/><linearGradient id="linear-gradient-13" x1="102.25" y1="48.05" x2="102.6" y2="48.05" xlink:href="#linear-gradient-2"/><linearGradient id="linear-gradient-14" x1="100.58" y1="50.37" x2="100.92" y2="50.37" xlink:href="#linear-gradient-2"/><linearGradient id="linear-gradient-15" x1="103.86" y1="48.48" x2="104.28" y2="48.48" xlink:href="#linear-gradient-2"/><linearGradient id="linear-gradient-16" x1="103.86" y1="47.13" x2="104.28" y2="47.13" xlink:href="#linear-gradient-2"/><linearGradient id="linear-gradient-17" x1="102.25" y1="49.4" x2="102.6" y2="49.4" xlink:href="#linear-gradient-2"/><linearGradient id="linear-gradient-18" x1="90.75" y1="51.1" x2="91.09" y2="51.1" xlink:href="#linear-gradient-2"/><linearGradient id="linear-gradient-19" x1="92.43" y1="48.78" x2="92.77" y2="48.78" xlink:href="#linear-gradient-2"/><linearGradient id="linear-gradient-20" x1="90.75" y1="49.75" x2="91.09" y2="49.75" xlink:href="#linear-gradient-2"/><linearGradient id="linear-gradient-21" x1="94.1" y1="47.82" x2="94.46" y2="47.82" xlink:href="#linear-gradient-2"/><linearGradient id="linear-gradient-22" x1="92.43" y1="50.13" x2="92.77" y2="50.13" xlink:href="#linear-gradient-2"/><linearGradient id="linear-gradient-23" x1="95.72" y1="48.25" x2="96.14" y2="48.25" xlink:href="#linear-gradient-2"/><linearGradient id="linear-gradient-24" x1="95.72" y1="46.9" x2="96.14" y2="46.9" xlink:href="#linear-gradient-2"/><linearGradient id="linear-gradient-25" x1="94.1" y1="49.17" x2="94.46" y2="49.17" xlink:href="#linear-gradient-2"/><linearGradient id="linear-gradient-26" x1="90.75" y1="56.06" x2="91.09" y2="56.06" xlink:href="#linear-gradient-2"/><linearGradient id="linear-gradient-27" x1="92.43" y1="53.73" x2="92.77" y2="53.73" xlink:href="#linear-gradient-2"/><linearGradient id="linear-gradient-28" x1="90.75" y1="54.71" x2="91.09" y2="54.71" xlink:href="#linear-gradient-2"/><linearGradient id="linear-gradient-29" x1="94.1" y1="52.77" x2="94.46" y2="52.77" xlink:href="#linear-gradient-2"/><linearGradient id="linear-gradient-30" x1="92.43" y1="55.08" x2="92.77" y2="55.08" xlink:href="#linear-gradient-2"/><linearGradient id="linear-gradient-31" x1="95.72" y1="53.2" x2="96.14" y2="53.2" xlink:href="#linear-gradient-2"/><linearGradient id="linear-gradient-32" x1="95.72" y1="51.85" x2="96.14" y2="51.85" xlink:href="#linear-gradient-2"/><linearGradient id="linear-gradient-33" x1="94.1" y1="54.12" x2="94.46" y2="54.12" xlink:href="#linear-gradient-2"/><linearGradient id="linear-gradient-34" x1="63.21" y1="67.23" x2="63.56" y2="67.23" xlink:href="#linear-gradient-2"/><linearGradient id="linear-gradient-35" x1="64.89" y1="64.91" x2="65.24" y2="64.91" xlink:href="#linear-gradient-2"/><linearGradient id="linear-gradient-36" x1="63.21" y1="65.88" x2="63.56" y2="65.88" xlink:href="#linear-gradient-2"/><linearGradient id="linear-gradient-37" x1="66.57" y1="63.94" x2="66.92" y2="63.94" xlink:href="#linear-gradient-2"/><linearGradient id="linear-gradient-38" x1="64.89" y1="66.26" x2="65.24" y2="66.26" xlink:href="#linear-gradient-2"/><linearGradient id="linear-gradient-39" x1="68.18" y1="64.38" x2="68.6" y2="64.38" xlink:href="#linear-gradient-2"/><linearGradient id="linear-gradient-40" x1="68.18" y1="63.03" x2="68.6" y2="63.03" xlink:href="#linear-gradient-2"/><linearGradient id="linear-gradient-41" x1="66.57" y1="65.29" x2="66.92" y2="65.29" xlink:href="#linear-gradient-2"/><linearGradient id="linear-gradient-42" x1="63.21" y1="72.18" x2="63.56" y2="72.18" xlink:href="#linear-gradient-2"/><linearGradient id="linear-gradient-43" x1="64.89" y1="69.86" x2="65.24" y2="69.86" xlink:href="#linear-gradient-2"/><linearGradient id="linear-gradient-44" x1="63.21" y1="70.83" x2="63.56" y2="70.83" xlink:href="#linear-gradient-2"/><linearGradient id="linear-gradient-45" x1="66.57" y1="68.9" x2="66.92" y2="68.9" xlink:href="#linear-gradient-2"/><linearGradient id="linear-gradient-46" x1="64.89" y1="71.21" x2="65.24" y2="71.21" xlink:href="#linear-gradient-2"/><linearGradient id="linear-gradient-47" x1="68.18" y1="69.33" x2="68.6" y2="69.33" xlink:href="#linear-gradient-2"/><linearGradient id="linear-gradient-48" x1="68.18" y1="67.98" x2="68.6" y2="67.98" xlink:href="#linear-gradient-2"/><linearGradient id="linear-gradient-49" x1="66.57" y1="70.25" x2="66.92" y2="70.25" xlink:href="#linear-gradient-2"/><linearGradient id="linear-gradient-50" x1="55.06" y1="71.95" x2="55.41" y2="71.95" xlink:href="#linear-gradient-2"/><linearGradient id="linear-gradient-51" x1="56.74" y1="69.62" x2="57.09" y2="69.62" xlink:href="#linear-gradient-2"/><linearGradient id="linear-gradient-52" x1="55.06" y1="70.6" x2="55.41" y2="70.6" xlink:href="#linear-gradient-2"/><linearGradient id="linear-gradient-53" x1="58.42" y1="68.66" x2="58.77" y2="68.66" xlink:href="#linear-gradient-2"/><linearGradient id="linear-gradient-54" x1="56.74" y1="70.97" x2="57.09" y2="70.97" xlink:href="#linear-gradient-2"/><linearGradient id="linear-gradient-55" x1="60.03" y1="69.09" x2="60.45" y2="69.09" xlink:href="#linear-gradient-2"/><linearGradient id="linear-gradient-56" x1="60.03" y1="67.74" x2="60.45" y2="67.74" xlink:href="#linear-gradient-2"/><linearGradient id="linear-gradient-57" x1="58.42" y1="70.01" x2="58.77" y2="70.01" xlink:href="#linear-gradient-2"/><linearGradient id="linear-gradient-58" x1="55.06" y1="76.9" x2="55.41" y2="76.9" xlink:href="#linear-gradient-2"/><linearGradient id="linear-gradient-59" x1="56.74" y1="74.58" x2="57.09" y2="74.58" xlink:href="#linear-gradient-2"/><linearGradient id="linear-gradient-60" x1="55.06" y1="75.55" x2="55.41" y2="75.55" xlink:href="#linear-gradient-2"/><linearGradient id="linear-gradient-61" x1="58.42" y1="73.61" x2="58.77" y2="73.61" xlink:href="#linear-gradient-2"/><linearGradient id="linear-gradient-62" x1="56.74" y1="75.93" x2="57.09" y2="75.93" xlink:href="#linear-gradient-2"/><linearGradient id="linear-gradient-63" x1="60.03" y1="74.05" x2="60.45" y2="74.05" xlink:href="#linear-gradient-2"/><linearGradient id="linear-gradient-64" x1="60.03" y1="72.7" x2="60.45" y2="72.7" xlink:href="#linear-gradient-2"/><linearGradient id="linear-gradient-65" x1="58.42" y1="74.96" x2="58.77" y2="74.96" xlink:href="#linear-gradient-2"/><linearGradient id="linear-gradient-66" x1="86.98" y1="53.44" x2="86.98" y2="52.03" gradientUnits="userSpaceOnUse"><stop offset="0.28" stop-color="#a8cadf"/><stop offset="0.72" stop-color="#d0e2ee"/></linearGradient><linearGradient id="linear-gradient-67" x1="86.98" y1="58.54" x2="86.98" y2="57.14" xlink:href="#linear-gradient-66"/></defs><g class="cls-1"><g id="图层_2" data-name="图层 2"><g id="_10" data-name="10"><g class="cls-1"><polygon class="cls-2" points="49.12 69.48 10.05 46.78 10.07 59.22 49.14 81.92 49.12 69.48"/><polygon class="cls-3" points="65.3 14.88 10.05 46.78 49.12 69.48 104.36 37.59 65.3 14.88"/><polygon class="cls-4" points="104.36 37.59 49.12 69.48 49.14 81.92 104.39 50.02 104.36 37.59"/></g><path class="cls-5" d="M48.81,74.52,12.15,53.35v-1.8L48.81,72.72Zm0,2.31L12.15,55.66v1.8L48.81,78.63Z"/><path class="cls-6" d="M48.81,74.52,12.15,53.35v-1.8l.3.17v1.47l36.36,21Zm0,3.78-36.36-21V55.83l-.3-.17v1.8L48.81,78.63Z"/><path class="cls-7" d="M90.91,34.18,70.82,22.58a6.12,6.12,0,0,0-5.5,0L23.64,46.65a2,2,0,0,0-1.11,1.43,2,2,0,0,0,1.11,1.43l20.08,11.6a6.14,6.14,0,0,0,5.51,0L90.91,37A2,2,0,0,0,92,35.61,2,2,0,0,0,90.91,34.18Z"/><path class="cls-2" d="M23.64,47.45,65.32,23.39a6.06,6.06,0,0,1,5.5,0L90.91,35a2.28,2.28,0,0,1,1,1,1.4,1.4,0,0,0,.11-.4,2,2,0,0,0-1.11-1.43L70.82,22.58a6.12,6.12,0,0,0-5.5,0L23.64,46.64a2,2,0,0,0-1.11,1.44,1.49,1.49,0,0,0,.11.4A2.23,2.23,0,0,1,23.64,47.45Z"/><g class="cls-1"><polygon class="cls-8" points="47.86 69.59 47.88 82.97 49.19 83.73 49.17 70.35 47.86 69.59"/><polygon class="cls-9" points="106.37 35.81 47.86 69.59 49.17 70.35 107.68 36.57 106.37 35.81"/><polygon class="cls-10" points="49.17 70.35 49.19 83.73 107.7 49.95 107.68 36.57 49.17 70.35"/></g><path class="cls-11" d="M71.93,60.14a.32.32,0,0,1-.16.25c-.08,0-.15,0-.15-.07a.33.33,0,0,1,.15-.25C71.86,60,71.93,60.05,71.93,60.14Zm.57-.48a.32.32,0,0,0-.16.24c0,.09.07.12.16.07a.33.33,0,0,0,.15-.25C72.65,59.64,72.58,59.61,72.5,59.66Zm.72-.42a.33.33,0,0,0-.15.24c0,.09.07.12.15.07a.32.32,0,0,0,.16-.25C73.38,59.22,73.31,59.19,73.22,59.24Zm.73-.42a.32.32,0,0,0-.16.24c0,.09.07.12.16.07a.32.32,0,0,0,.16-.25C74.11,58.8,74,58.77,74,58.82Zm.73-.42a.32.32,0,0,0-.16.24c0,.09.07.12.16.07a.33.33,0,0,0,.15-.24C74.83,58.38,74.76,58.35,74.68,58.4ZM75.4,58a.31.31,0,0,0-.15.25c0,.08.06.11.15.06a.32.32,0,0,0,.16-.24C75.56,58,75.49,57.93,75.4,58Zm.73-.42a.32.32,0,0,0-.16.25c0,.08.07.11.16.06a.33.33,0,0,0,.15-.24C76.28,57.54,76.21,57.51,76.13,57.56Zm.72-.42a.33.33,0,0,0-.15.25c0,.08.07.11.15.06a.32.32,0,0,0,.16-.24C77,57.12,76.94,57.09,76.85,57.14Zm.73-.42a.32.32,0,0,0-.16.25c0,.08.07.11.16.06a.3.3,0,0,0,.15-.24C77.73,56.7,77.66,56.67,77.58,56.72Zm.72-.42a.33.33,0,0,0-.15.25c0,.09.07.12.15.07a.32.32,0,0,0,.16-.25C78.46,56.28,78.39,56.26,78.3,56.3Zm.73-.41a.32.32,0,0,0-.16.24c0,.09.07.12.16.07a.33.33,0,0,0,.15-.25C79.18,55.87,79.11,55.84,79,55.89Zm.72-.42a.33.33,0,0,0-.15.24c0,.09.07.12.15.07a.32.32,0,0,0,.16-.25C79.91,55.45,79.84,55.42,79.75,55.47Zm.73-.42a.32.32,0,0,0-.16.24c0,.09.07.12.16.07a.32.32,0,0,0,.16-.25C80.64,55,80.57,55,80.48,55.05Zm.73-.42a.32.32,0,0,0-.16.24c0,.09.07.12.16.07a.33.33,0,0,0,.15-.25C81.36,54.61,81.29,54.58,81.21,54.63Zm.72-.42a.31.31,0,0,0-.15.25c0,.08.06.11.15.06a.32.32,0,0,0,.16-.24C82.09,54.19,82,54.16,81.93,54.21Zm.73-.42a.32.32,0,0,0-.16.25c0,.08.07.11.16.06a.33.33,0,0,0,.15-.24C82.81,53.77,82.74,53.74,82.66,53.79Zm.72-.42a.33.33,0,0,0-.15.25c0,.08.07.11.15.06a.32.32,0,0,0,.16-.24C83.54,53.35,83.47,53.32,83.38,53.37Zm.73-.42a.32.32,0,0,0-.16.25c0,.08.07.11.16.06a.3.3,0,0,0,.15-.24C84.26,52.93,84.19,52.9,84.11,53Zm.72-.42a.33.33,0,0,0-.15.25c0,.09.07.12.15.07A.32.32,0,0,0,85,52.6C85,52.51,84.92,52.49,84.83,52.53ZM72.28,60.37a.32.32,0,0,1-.16.25c-.09,0-.16,0-.16-.07a.32.32,0,0,1,.16-.25C72.21,60.25,72.28,60.28,72.28,60.37Zm.57-.48a.3.3,0,0,0-.16.24c0,.09.07.12.16.07A.33.33,0,0,0,73,60C73,59.87,72.93,59.84,72.85,59.89Zm.72-.42a.33.33,0,0,0-.15.24c0,.09.07.12.15.07a.32.32,0,0,0,.16-.25C73.73,59.45,73.66,59.42,73.57,59.47Zm.73-.42a.32.32,0,0,0-.16.24c0,.09.07.12.16.07a.33.33,0,0,0,.15-.25C74.45,59,74.38,59,74.3,59.05Zm.72-.42a.33.33,0,0,0-.15.24c0,.09.07.12.15.07a.32.32,0,0,0,.16-.25C75.18,58.61,75.11,58.58,75,58.63Zm.73-.42a.32.32,0,0,0-.16.25c0,.08.07.11.16.06a.33.33,0,0,0,.15-.24C75.9,58.19,75.83,58.16,75.75,58.21Zm.72-.42a.33.33,0,0,0-.15.25c0,.08.07.11.15.06a.32.32,0,0,0,.16-.24C76.63,57.77,76.56,57.74,76.47,57.79Zm.73-.42a.32.32,0,0,0-.16.25c0,.08.07.11.16.06a.33.33,0,0,0,.15-.24C77.35,57.35,77.28,57.32,77.2,57.37Zm.72-.42a.33.33,0,0,0-.15.25c0,.08.07.11.15.06a.32.32,0,0,0,.16-.24C78.08,56.93,78,56.9,77.92,57Zm.73-.42a.32.32,0,0,0-.16.25c0,.09.07.11.16.07a.32.32,0,0,0,.16-.25C78.81,56.51,78.74,56.48,78.65,56.53Zm.73-.41a.3.3,0,0,0-.16.24c0,.09.07.12.16.07a.33.33,0,0,0,.15-.25C79.53,56.1,79.46,56.07,79.38,56.12Zm.72-.42a.33.33,0,0,0-.15.24c0,.09.07.12.15.07a.32.32,0,0,0,.16-.25C80.26,55.68,80.19,55.65,80.1,55.7Zm.73-.42a.32.32,0,0,0-.16.24c0,.09.07.12.16.07a.33.33,0,0,0,.15-.25C81,55.26,80.91,55.23,80.83,55.28Zm.72-.42a.33.33,0,0,0-.15.24c0,.09.07.12.15.07a.32.32,0,0,0,.16-.25C81.71,54.84,81.64,54.81,81.55,54.86Zm.73-.42a.32.32,0,0,0-.16.24c0,.09.07.12.16.07a.33.33,0,0,0,.15-.24C82.43,54.42,82.36,54.39,82.28,54.44ZM83,54a.33.33,0,0,0-.15.25c0,.08.07.11.15.06a.32.32,0,0,0,.16-.24C83.16,54,83.09,54,83,54Zm.73-.42a.32.32,0,0,0-.16.25c0,.08.07.11.16.06a.33.33,0,0,0,.15-.24C83.88,53.58,83.81,53.55,83.73,53.6Zm.72-.42a.33.33,0,0,0-.15.25c0,.08.07.11.15.06a.32.32,0,0,0,.16-.24C84.61,53.16,84.54,53.13,84.45,53.18ZM71.93,61a.32.32,0,0,1-.16.24c-.08,0-.15,0-.15-.06a.33.33,0,0,1,.15-.25C71.86,60.89,71.93,60.92,71.93,61Zm.57-.49a.32.32,0,0,0-.16.25c0,.08.07.11.16.06a.33.33,0,0,0,.15-.24C72.65,60.5,72.58,60.47,72.5,60.52Zm.72-.42a.33.33,0,0,0-.15.25c0,.09.07.11.15.07a.32.32,0,0,0,.16-.25C73.38,60.08,73.31,60.05,73.22,60.1Zm.73-.41a.3.3,0,0,0-.16.24c0,.09.07.12.16.07a.32.32,0,0,0,.16-.25C74.11,59.67,74,59.64,74,59.69Zm.73-.42a.32.32,0,0,0-.16.24c0,.09.07.12.16.07a.33.33,0,0,0,.15-.25C74.83,59.25,74.76,59.22,74.68,59.27Zm.72-.42a.31.31,0,0,0-.15.24c0,.09.06.12.15.07a.32.32,0,0,0,.16-.25C75.56,58.83,75.49,58.8,75.4,58.85Zm.73-.42a.32.32,0,0,0-.16.24c0,.09.07.12.16.07a.33.33,0,0,0,.15-.25C76.28,58.41,76.21,58.38,76.13,58.43Zm.72-.42a.33.33,0,0,0-.15.25c0,.08.07.11.15.06a.32.32,0,0,0,.16-.24C77,58,76.94,58,76.85,58Zm.73-.42a.32.32,0,0,0-.16.25c0,.08.07.11.16.06a.33.33,0,0,0,.15-.24C77.73,57.57,77.66,57.54,77.58,57.59Zm.72-.42a.33.33,0,0,0-.15.25c0,.08.07.11.15.06a.32.32,0,0,0,.16-.24C78.46,57.15,78.39,57.12,78.3,57.17Zm.73-.42a.32.32,0,0,0-.16.25c0,.08.07.11.16.06a.33.33,0,0,0,.15-.24C79.18,56.73,79.11,56.7,79,56.75Zm.72-.42a.33.33,0,0,0-.15.25c0,.09.07.11.15.07a.32.32,0,0,0,.16-.25C79.91,56.31,79.84,56.28,79.75,56.33Zm.73-.41a.3.3,0,0,0-.16.24c0,.09.07.12.16.07a.32.32,0,0,0,.16-.25C80.64,55.9,80.57,55.87,80.48,55.92Zm.73-.42a.32.32,0,0,0-.16.24c0,.09.07.12.16.07a.33.33,0,0,0,.15-.25C81.36,55.48,81.29,55.45,81.21,55.5Zm.72-.42a.31.31,0,0,0-.15.24c0,.09.06.12.15.07a.32.32,0,0,0,.16-.25C82.09,55.06,82,55,81.93,55.08Zm.73-.42a.32.32,0,0,0-.16.24c0,.09.07.12.16.07a.33.33,0,0,0,.15-.25C82.81,54.64,82.74,54.61,82.66,54.66Zm.72-.42a.33.33,0,0,0-.15.24c0,.09.07.12.15.07a.32.32,0,0,0,.16-.24C83.54,54.22,83.47,54.19,83.38,54.24Zm.73-.42a.32.32,0,0,0-.16.25c0,.08.07.11.16.06a.33.33,0,0,0,.15-.24C84.26,53.8,84.19,53.77,84.11,53.82Zm.72-.42a.33.33,0,0,0-.15.25c0,.08.07.11.15.06a.32.32,0,0,0,.16-.24C85,53.38,84.92,53.35,84.83,53.4ZM72.28,61.24a.32.32,0,0,1-.16.24c-.09.05-.16,0-.16-.06a.32.32,0,0,1,.16-.25C72.21,61.12,72.28,61.15,72.28,61.24Zm.57-.49a.32.32,0,0,0-.16.25c0,.08.07.11.16.06a.33.33,0,0,0,.15-.24C73,60.73,72.93,60.7,72.85,60.75Zm.72-.42a.33.33,0,0,0-.15.25c0,.09.07.11.15.06a.29.29,0,0,0,.16-.24C73.73,60.31,73.66,60.28,73.57,60.33Zm.73-.42a.32.32,0,0,0-.16.25c0,.09.07.12.16.07a.33.33,0,0,0,.15-.25C74.45,59.89,74.38,59.87,74.3,59.91ZM75,59.5a.33.33,0,0,0-.15.24c0,.09.07.12.15.07a.32.32,0,0,0,.16-.25C75.18,59.48,75.11,59.45,75,59.5Zm.73-.42a.32.32,0,0,0-.16.24c0,.09.07.12.16.07a.33.33,0,0,0,.15-.25C75.9,59.06,75.83,59,75.75,59.08Zm.72-.42a.33.33,0,0,0-.15.24c0,.09.07.12.15.07a.32.32,0,0,0,.16-.25C76.63,58.64,76.56,58.61,76.47,58.66Zm.73-.42a.32.32,0,0,0-.16.24c0,.09.07.12.16.07a.33.33,0,0,0,.15-.24C77.35,58.22,77.28,58.19,77.2,58.24Zm.72-.42a.33.33,0,0,0-.15.25c0,.08.07.11.15.06a.32.32,0,0,0,.16-.24C78.08,57.8,78,57.77,77.92,57.82Zm.73-.42a.32.32,0,0,0-.16.25c0,.08.07.11.16.06a.32.32,0,0,0,.16-.24C78.81,57.38,78.74,57.35,78.65,57.4Zm.73-.42a.32.32,0,0,0-.16.25c0,.08.07.11.16.06a.33.33,0,0,0,.15-.24C79.53,57,79.46,56.93,79.38,57Zm.72-.42a.33.33,0,0,0-.15.25c0,.08.07.11.15.06a.29.29,0,0,0,.16-.24C80.26,56.54,80.19,56.51,80.1,56.56Zm.73-.42a.32.32,0,0,0-.16.25c0,.09.07.12.16.07a.33.33,0,0,0,.15-.25C81,56.12,80.91,56.1,80.83,56.14Zm.72-.41a.33.33,0,0,0-.15.24c0,.09.07.12.15.07a.32.32,0,0,0,.16-.25C81.71,55.71,81.64,55.68,81.55,55.73Zm.73-.42a.32.32,0,0,0-.16.24c0,.09.07.12.16.07a.33.33,0,0,0,.15-.25C82.43,55.29,82.36,55.26,82.28,55.31Zm.72-.42a.33.33,0,0,0-.15.24c0,.09.07.12.15.07a.32.32,0,0,0,.16-.25C83.16,54.87,83.09,54.84,83,54.89Zm.73-.42a.32.32,0,0,0-.16.24c0,.09.07.12.16.07a.33.33,0,0,0,.15-.25C83.88,54.45,83.81,54.42,83.73,54.47Zm.72-.42a.33.33,0,0,0-.15.25c0,.08.07.11.15.06a.32.32,0,0,0,.16-.24C84.61,54,84.54,54,84.45,54.05ZM71.93,61.88a.32.32,0,0,1-.16.24c-.08.05-.15,0-.15-.07a.33.33,0,0,1,.15-.24C71.86,61.76,71.93,61.79,71.93,61.88Zm.57-.49a.32.32,0,0,0-.16.25c0,.08.07.11.16.06a.33.33,0,0,0,.15-.24C72.65,61.37,72.58,61.34,72.5,61.39Zm.72-.42a.33.33,0,0,0-.15.25c0,.08.07.11.15.06a.32.32,0,0,0,.16-.24C73.38,61,73.31,60.92,73.22,61Zm.73-.42a.32.32,0,0,0-.16.25c0,.08.07.11.16.06a.32.32,0,0,0,.16-.24C74.11,60.53,74,60.5,74,60.55Zm.73-.42a.32.32,0,0,0-.16.25c0,.09.07.11.16.06a.3.3,0,0,0,.15-.24C74.83,60.11,74.76,60.08,74.68,60.13Zm.72-.42a.31.31,0,0,0-.15.25c0,.09.06.12.15.07a.32.32,0,0,0,.16-.25C75.56,59.69,75.49,59.67,75.4,59.71Zm.73-.41a.32.32,0,0,0-.16.24c0,.09.07.12.16.07a.33.33,0,0,0,.15-.25C76.28,59.28,76.21,59.25,76.13,59.3Zm.72-.42a.33.33,0,0,0-.15.24c0,.09.07.12.15.07a.32.32,0,0,0,.16-.25C77,58.86,76.94,58.83,76.85,58.88Zm.73-.42a.32.32,0,0,0-.16.24c0,.09.07.12.16.07a.33.33,0,0,0,.15-.25C77.73,58.44,77.66,58.41,77.58,58.46ZM78.3,58a.33.33,0,0,0-.15.24c0,.09.07.12.15.07a.32.32,0,0,0,.16-.24C78.46,58,78.39,58,78.3,58Zm.73-.42a.32.32,0,0,0-.16.25c0,.08.07.11.16.06a.33.33,0,0,0,.15-.24C79.18,57.6,79.11,57.57,79,57.62Zm.72-.42a.33.33,0,0,0-.15.25c0,.08.07.11.15.06a.32.32,0,0,0,.16-.24C79.91,57.18,79.84,57.15,79.75,57.2Zm.73-.42a.32.32,0,0,0-.16.25c0,.08.07.11.16.06a.32.32,0,0,0,.16-.24C80.64,56.76,80.57,56.73,80.48,56.78Zm.73-.42a.32.32,0,0,0-.16.25c0,.08.07.11.16.06a.3.3,0,0,0,.15-.24C81.36,56.34,81.29,56.31,81.21,56.36Zm.72-.42a.31.31,0,0,0-.15.25c0,.09.06.12.15.07a.32.32,0,0,0,.16-.25C82.09,55.92,82,55.9,81.93,55.94Zm.73-.41a.32.32,0,0,0-.16.24c0,.09.07.12.16.07a.33.33,0,0,0,.15-.25C82.81,55.51,82.74,55.48,82.66,55.53Zm.72-.42a.33.33,0,0,0-.15.24c0,.09.07.12.15.07a.32.32,0,0,0,.16-.25C83.54,55.09,83.47,55.06,83.38,55.11Zm.73-.42a.32.32,0,0,0-.16.24c0,.09.07.12.16.07a.33.33,0,0,0,.15-.25C84.26,54.67,84.19,54.64,84.11,54.69Zm.72-.42a.33.33,0,0,0-.15.24c0,.09.07.12.15.07a.32.32,0,0,0,.16-.25C85,54.25,84.92,54.22,84.83,54.27ZM72.28,62.1a.32.32,0,0,1-.16.25c-.09,0-.16,0-.16-.07a.32.32,0,0,1,.16-.24C72.21,62,72.28,62,72.28,62.1Zm.57-.48a.32.32,0,0,0-.16.25c0,.08.07.11.16.06a.33.33,0,0,0,.15-.24C73,61.6,72.93,61.57,72.85,61.62Zm.72-.42a.33.33,0,0,0-.15.25c0,.08.07.11.15.06a.32.32,0,0,0,.16-.24C73.73,61.18,73.66,61.15,73.57,61.2Zm.73-.42a.32.32,0,0,0-.16.25c0,.08.07.11.16.06a.33.33,0,0,0,.15-.24C74.45,60.76,74.38,60.73,74.3,60.78Zm.72-.42a.33.33,0,0,0-.15.25c0,.08.07.11.15.06a.32.32,0,0,0,.16-.24C75.18,60.34,75.11,60.31,75,60.36Zm.73-.42a.32.32,0,0,0-.16.25c0,.09.07.11.16.07A.33.33,0,0,0,75.9,60C75.9,59.92,75.83,59.89,75.75,59.94Zm.72-.41a.32.32,0,0,0-.15.24c0,.09.07.12.15.07a.32.32,0,0,0,.16-.25C76.63,59.51,76.56,59.48,76.47,59.53Zm.73-.42a.32.32,0,0,0-.16.24c0,.09.07.12.16.07a.33.33,0,0,0,.15-.25C77.35,59.09,77.28,59.06,77.2,59.11Zm.72-.42a.33.33,0,0,0-.15.24c0,.09.07.12.15.07a.32.32,0,0,0,.16-.25C78.08,58.67,78,58.64,77.92,58.69Zm.73-.42a.32.32,0,0,0-.16.24c0,.09.07.12.16.07a.32.32,0,0,0,.16-.25C78.81,58.25,78.74,58.22,78.65,58.27Zm.73-.42a.32.32,0,0,0-.16.25c0,.08.07.11.16.06a.33.33,0,0,0,.15-.24C79.53,57.83,79.46,57.8,79.38,57.85Zm.72-.42a.33.33,0,0,0-.15.25c0,.08.07.11.15.06a.32.32,0,0,0,.16-.24C80.26,57.41,80.19,57.38,80.1,57.43Zm.73-.42a.32.32,0,0,0-.16.25c0,.08.07.11.16.06a.33.33,0,0,0,.15-.24C81,57,80.91,57,80.83,57Zm.72-.42a.33.33,0,0,0-.15.25c0,.08.07.11.15.06a.32.32,0,0,0,.16-.24C81.71,56.57,81.64,56.54,81.55,56.59Zm.73-.42a.32.32,0,0,0-.16.25c0,.09.07.11.16.07a.33.33,0,0,0,.15-.25C82.43,56.15,82.36,56.12,82.28,56.17Zm.72-.41a.3.3,0,0,0-.15.24c0,.09.07.12.15.07a.32.32,0,0,0,.16-.25C83.16,55.74,83.09,55.71,83,55.76Zm.73-.42a.32.32,0,0,0-.16.24c0,.09.07.12.16.07a.33.33,0,0,0,.15-.25C83.88,55.32,83.81,55.29,83.73,55.34Zm.72-.42a.33.33,0,0,0-.15.24c0,.09.07.12.15.07a.32.32,0,0,0,.16-.25C84.61,54.9,84.54,54.87,84.45,54.92ZM71.93,62.74a.32.32,0,0,1-.16.25c-.08,0-.15,0-.15-.07a.33.33,0,0,1,.15-.24C71.86,62.63,71.93,62.66,71.93,62.74Zm.57-.48a.32.32,0,0,0-.16.24c0,.09.07.12.16.07a.33.33,0,0,0,.15-.25C72.65,62.24,72.58,62.21,72.5,62.26Zm.72-.42a.33.33,0,0,0-.15.24c0,.09.07.12.15.07a.32.32,0,0,0,.16-.25C73.38,61.82,73.31,61.79,73.22,61.84Zm.73-.42a.32.32,0,0,0-.16.25c0,.08.07.11.16.06a.32.32,0,0,0,.16-.24C74.11,61.4,74,61.37,74,61.42Zm.73-.42a.32.32,0,0,0-.16.25c0,.08.07.11.16.06a.33.33,0,0,0,.15-.24C74.83,61,74.76,61,74.68,61Zm.72-.42a.31.31,0,0,0-.15.25c0,.08.06.11.15.06a.32.32,0,0,0,.16-.24C75.56,60.56,75.49,60.53,75.4,60.58Zm.73-.42a.32.32,0,0,0-.16.25c0,.08.07.11.16.06a.33.33,0,0,0,.15-.24C76.28,60.14,76.21,60.11,76.13,60.16Zm.72-.42a.33.33,0,0,0-.15.25c0,.09.07.12.15.07a.32.32,0,0,0,.16-.25C77,59.72,76.94,59.69,76.85,59.74Zm.73-.41a.3.3,0,0,0-.16.24c0,.09.07.12.16.07a.33.33,0,0,0,.15-.25C77.73,59.31,77.66,59.28,77.58,59.33Zm.72-.42a.33.33,0,0,0-.15.24c0,.09.07.12.15.07a.32.32,0,0,0,.16-.25C78.46,58.89,78.39,58.86,78.3,58.91Zm.73-.42a.32.32,0,0,0-.16.24c0,.09.07.12.16.07a.33.33,0,0,0,.15-.25C79.18,58.47,79.11,58.44,79,58.49Zm.72-.42a.33.33,0,0,0-.15.24c0,.09.07.12.15.07a.32.32,0,0,0,.16-.25C79.91,58.05,79.84,58,79.75,58.07Zm.73-.42a.32.32,0,0,0-.16.25c0,.08.07.11.16.06a.32.32,0,0,0,.16-.24C80.64,57.63,80.57,57.6,80.48,57.65Zm.73-.42a.32.32,0,0,0-.16.25c0,.08.07.11.16.06a.33.33,0,0,0,.15-.24C81.36,57.21,81.29,57.18,81.21,57.23Zm.72-.42a.31.31,0,0,0-.15.25c0,.08.06.11.15.06a.32.32,0,0,0,.16-.24C82.09,56.79,82,56.76,81.93,56.81Zm.73-.42a.32.32,0,0,0-.16.25c0,.08.07.11.16.06a.33.33,0,0,0,.15-.24C82.81,56.37,82.74,56.34,82.66,56.39Zm.72-.42a.33.33,0,0,0-.15.25c0,.09.07.11.15.07a.32.32,0,0,0,.16-.25C83.54,56,83.47,55.92,83.38,56Zm.73-.41a.29.29,0,0,0-.16.24c0,.09.07.12.16.07a.33.33,0,0,0,.15-.25C84.26,55.54,84.19,55.51,84.11,55.56Zm.72-.42a.33.33,0,0,0-.15.24c0,.09.07.12.15.07A.32.32,0,0,0,85,55.2C85,55.12,84.92,55.09,84.83,55.14ZM72.28,63a.32.32,0,0,1-.16.25c-.09.05-.16,0-.16-.07a.32.32,0,0,1,.16-.24C72.21,62.86,72.28,62.89,72.28,63Zm.57-.48a.32.32,0,0,0-.16.24c0,.09.07.12.16.07a.33.33,0,0,0,.15-.25C73,62.47,72.93,62.44,72.85,62.49Zm.72-.42a.33.33,0,0,0-.15.24c0,.09.07.12.15.07a.32.32,0,0,0,.16-.25C73.73,62.05,73.66,62,73.57,62.07Zm.73-.42a.32.32,0,0,0-.16.24c0,.09.07.12.16.07a.33.33,0,0,0,.15-.24C74.45,61.63,74.38,61.6,74.3,61.65Zm.72-.42a.33.33,0,0,0-.15.25c0,.08.07.11.15.06a.32.32,0,0,0,.16-.24C75.18,61.21,75.11,61.18,75,61.23Zm.73-.42a.32.32,0,0,0-.16.25c0,.08.07.11.16.06a.33.33,0,0,0,.15-.24C75.9,60.79,75.83,60.76,75.75,60.81Zm.72-.42a.33.33,0,0,0-.15.25c0,.08.07.11.15.06a.32.32,0,0,0,.16-.24C76.63,60.37,76.56,60.34,76.47,60.39ZM77.2,60a.32.32,0,0,0-.16.25c0,.08.07.11.16.06a.3.3,0,0,0,.15-.24C77.35,60,77.28,59.92,77.2,60Zm.72-.42a.33.33,0,0,0-.15.25c0,.09.07.12.15.07a.32.32,0,0,0,.16-.25C78.08,59.53,78,59.51,77.92,59.55Zm.73-.41a.32.32,0,0,0-.16.24c0,.09.07.12.16.07a.32.32,0,0,0,.16-.25C78.81,59.12,78.74,59.09,78.65,59.14Zm.73-.42a.32.32,0,0,0-.16.24c0,.09.07.12.16.07a.33.33,0,0,0,.15-.25C79.53,58.7,79.46,58.67,79.38,58.72Zm.72-.42a.33.33,0,0,0-.15.24c0,.09.07.12.15.07a.32.32,0,0,0,.16-.25C80.26,58.28,80.19,58.25,80.1,58.3Zm.73-.42a.32.32,0,0,0-.16.24c0,.09.07.12.16.07A.33.33,0,0,0,81,58C81,57.86,80.91,57.83,80.83,57.88Zm.72-.42a.33.33,0,0,0-.15.25c0,.08.07.11.15.06a.32.32,0,0,0,.16-.24C81.71,57.44,81.64,57.41,81.55,57.46Zm.73-.42a.32.32,0,0,0-.16.25c0,.08.07.11.16.06a.33.33,0,0,0,.15-.24C82.43,57,82.36,57,82.28,57Zm.72-.42a.33.33,0,0,0-.15.25c0,.08.07.11.15.06a.32.32,0,0,0,.16-.24C83.16,56.6,83.09,56.57,83,56.62Zm.73-.42a.32.32,0,0,0-.16.25c0,.08.07.11.16.06a.3.3,0,0,0,.15-.24C83.88,56.18,83.81,56.15,83.73,56.2Zm.72-.42a.33.33,0,0,0-.15.25c0,.09.07.12.15.07a.32.32,0,0,0,.16-.25C84.61,55.76,84.54,55.74,84.45,55.78Z"/><path class="cls-11" d="M71.93,65.07a.32.32,0,0,1-.16.24c-.08,0-.15,0-.15-.06a.33.33,0,0,1,.15-.25C71.86,65,71.93,65,71.93,65.07Zm.57-.49a.32.32,0,0,0-.16.25c0,.08.07.11.16.06a.3.3,0,0,0,.15-.24C72.65,64.56,72.58,64.53,72.5,64.58Zm.72-.42a.33.33,0,0,0-.15.25c0,.09.07.12.15.07a.32.32,0,0,0,.16-.25C73.38,64.14,73.31,64.12,73.22,64.16Zm.73-.41a.32.32,0,0,0-.16.24c0,.09.07.12.16.07a.32.32,0,0,0,.16-.25C74.11,63.73,74,63.7,74,63.75Zm.73-.42a.32.32,0,0,0-.16.24c0,.09.07.12.16.07a.33.33,0,0,0,.15-.25C74.83,63.31,74.76,63.28,74.68,63.33Zm.72-.42a.31.31,0,0,0-.15.24c0,.09.06.12.15.07a.32.32,0,0,0,.16-.25C75.56,62.89,75.49,62.86,75.4,62.91Zm.73-.42a.32.32,0,0,0-.16.24c0,.09.07.12.16.07a.33.33,0,0,0,.15-.25C76.28,62.47,76.21,62.44,76.13,62.49Zm.72-.42a.33.33,0,0,0-.15.25c0,.08.07.11.15.06a.32.32,0,0,0,.16-.24C77,62.05,76.94,62,76.85,62.07Zm.73-.42a.32.32,0,0,0-.16.25c0,.08.07.11.16.06a.33.33,0,0,0,.15-.24C77.73,61.63,77.66,61.6,77.58,61.65Zm.72-.42a.33.33,0,0,0-.15.25c0,.08.07.11.15.06a.32.32,0,0,0,.16-.24C78.46,61.21,78.39,61.18,78.3,61.23Zm.73-.42a.32.32,0,0,0-.16.25c0,.08.07.11.16.06a.32.32,0,0,0,.15-.24C79.18,60.79,79.11,60.76,79,60.81Zm.72-.42a.33.33,0,0,0-.15.25c0,.09.07.12.15.07a.32.32,0,0,0,.16-.25C79.91,60.37,79.84,60.35,79.75,60.39Zm.73-.41a.32.32,0,0,0-.16.24c0,.09.07.12.16.07a.32.32,0,0,0,.16-.25C80.64,60,80.57,59.93,80.48,60Zm.73-.42a.32.32,0,0,0-.16.24c0,.09.07.12.16.07a.33.33,0,0,0,.15-.25C81.36,59.54,81.29,59.51,81.21,59.56Zm.72-.42a.31.31,0,0,0-.15.24c0,.09.06.12.15.07a.32.32,0,0,0,.16-.25C82.09,59.12,82,59.09,81.93,59.14Zm.73-.42a.32.32,0,0,0-.16.24c0,.09.07.12.16.07a.33.33,0,0,0,.15-.25C82.81,58.7,82.74,58.67,82.66,58.72Zm.72-.42a.33.33,0,0,0-.15.25c0,.08.07.11.15.06a.32.32,0,0,0,.16-.24C83.54,58.28,83.47,58.25,83.38,58.3Zm.73-.42a.32.32,0,0,0-.16.25c0,.08.07.11.16.06a.33.33,0,0,0,.15-.24C84.26,57.86,84.19,57.83,84.11,57.88Zm.72-.42a.33.33,0,0,0-.15.25c0,.08.07.11.15.06a.32.32,0,0,0,.16-.24C85,57.44,84.92,57.41,84.83,57.46ZM72.28,65.3a.32.32,0,0,1-.16.24c-.09,0-.16,0-.16-.06a.32.32,0,0,1,.16-.25C72.21,65.18,72.28,65.21,72.28,65.3Zm.57-.49a.32.32,0,0,0-.16.25c0,.08.07.11.16.06a.33.33,0,0,0,.15-.24C73,64.79,72.93,64.76,72.85,64.81Zm.72-.42a.33.33,0,0,0-.15.25c0,.09.07.11.15.07a.32.32,0,0,0,.16-.25C73.73,64.37,73.66,64.34,73.57,64.39ZM74.3,64a.29.29,0,0,0-.16.24c0,.09.07.12.16.07a.33.33,0,0,0,.15-.25C74.45,64,74.38,63.93,74.3,64Zm.72-.42a.33.33,0,0,0-.15.24c0,.09.07.12.15.07a.32.32,0,0,0,.16-.25C75.18,63.54,75.11,63.51,75,63.56Zm.73-.42a.32.32,0,0,0-.16.24c0,.09.07.12.16.07a.33.33,0,0,0,.15-.25C75.9,63.12,75.83,63.09,75.75,63.14Zm.72-.42a.33.33,0,0,0-.15.24c0,.09.07.12.15.07a.32.32,0,0,0,.16-.25C76.63,62.7,76.56,62.67,76.47,62.72Zm.73-.42a.32.32,0,0,0-.16.24c0,.09.07.12.16.07a.33.33,0,0,0,.15-.24C77.35,62.28,77.28,62.25,77.2,62.3Zm.72-.42a.33.33,0,0,0-.15.25c0,.08.07.11.15.06a.32.32,0,0,0,.16-.24C78.08,61.86,78,61.83,77.92,61.88Zm.73-.42a.32.32,0,0,0-.16.25c0,.08.07.11.16.06a.32.32,0,0,0,.16-.24C78.81,61.44,78.74,61.41,78.65,61.46Zm.73-.42a.32.32,0,0,0-.16.25c0,.08.07.11.16.06a.33.33,0,0,0,.15-.24C79.53,61,79.46,61,79.38,61Zm.72-.42a.33.33,0,0,0-.15.25c0,.09.07.11.15.07a.32.32,0,0,0,.16-.25C80.26,60.6,80.19,60.57,80.1,60.62Zm.73-.41a.29.29,0,0,0-.16.24c0,.09.07.12.16.07a.33.33,0,0,0,.15-.25C81,60.18,80.91,60.16,80.83,60.21Zm.72-.42a.33.33,0,0,0-.15.24c0,.09.07.12.15.07a.32.32,0,0,0,.16-.25C81.71,59.77,81.64,59.74,81.55,59.79Zm.73-.42a.32.32,0,0,0-.16.24c0,.09.07.12.16.07a.33.33,0,0,0,.15-.25C82.43,59.35,82.36,59.32,82.28,59.37ZM83,59a.33.33,0,0,0-.15.24c0,.09.07.12.15.07a.32.32,0,0,0,.16-.25C83.16,58.93,83.09,58.9,83,59Zm.73-.42a.32.32,0,0,0-.16.24c0,.09.07.12.16.07a.33.33,0,0,0,.15-.24C83.88,58.51,83.81,58.48,83.73,58.53Zm.72-.42a.33.33,0,0,0-.15.25c0,.08.07.11.15.06a.32.32,0,0,0,.16-.24C84.61,58.09,84.54,58.06,84.45,58.11ZM71.93,65.94a.32.32,0,0,1-.16.24c-.08,0-.15,0-.15-.06a.33.33,0,0,1,.15-.25C71.86,65.82,71.93,65.85,71.93,65.94Zm.57-.49a.32.32,0,0,0-.16.25c0,.08.07.11.16.06a.33.33,0,0,0,.15-.24C72.65,65.43,72.58,65.4,72.5,65.45Zm.72-.42a.33.33,0,0,0-.15.25c0,.08.07.11.15.06a.32.32,0,0,0,.16-.24C73.38,65,73.31,65,73.22,65Zm.73-.42a.32.32,0,0,0-.16.25c0,.08.07.11.16.06a.32.32,0,0,0,.16-.24C74.11,64.59,74,64.56,74,64.61Zm.73-.42a.32.32,0,0,0-.16.25c0,.09.07.11.16.07a.33.33,0,0,0,.15-.25C74.83,64.17,74.76,64.14,74.68,64.19Zm.72-.41a.28.28,0,0,0-.15.24c0,.09.06.12.15.07a.32.32,0,0,0,.16-.25C75.56,63.76,75.49,63.73,75.4,63.78Zm.73-.42a.32.32,0,0,0-.16.24c0,.09.07.12.16.07a.33.33,0,0,0,.15-.25C76.28,63.34,76.21,63.31,76.13,63.36Zm.72-.42a.33.33,0,0,0-.15.24c0,.09.07.12.15.07A.32.32,0,0,0,77,63C77,62.92,76.94,62.89,76.85,62.94Zm.73-.42a.32.32,0,0,0-.16.24c0,.09.07.12.16.07a.33.33,0,0,0,.15-.25C77.73,62.5,77.66,62.47,77.58,62.52Zm.72-.42a.33.33,0,0,0-.15.24c0,.09.07.12.15.07a.32.32,0,0,0,.16-.24C78.46,62.08,78.39,62.05,78.3,62.1Zm.73-.42a.32.32,0,0,0-.16.25c0,.08.07.11.16.06a.33.33,0,0,0,.15-.24C79.18,61.66,79.11,61.63,79,61.68Zm.72-.42a.33.33,0,0,0-.15.25c0,.08.07.11.15.06a.32.32,0,0,0,.16-.24C79.91,61.24,79.84,61.21,79.75,61.26Zm.73-.42a.32.32,0,0,0-.16.25c0,.08.07.11.16.06a.32.32,0,0,0,.16-.24C80.64,60.82,80.57,60.79,80.48,60.84Zm.73-.42a.32.32,0,0,0-.16.25c0,.09.07.11.16.07a.33.33,0,0,0,.15-.25C81.36,60.4,81.29,60.37,81.21,60.42Zm.72-.41a.28.28,0,0,0-.15.24c0,.09.06.12.15.07a.32.32,0,0,0,.16-.25C82.09,60,82,60,81.93,60Zm.73-.42a.32.32,0,0,0-.16.24c0,.09.07.12.16.07a.33.33,0,0,0,.15-.25C82.81,59.57,82.74,59.54,82.66,59.59Zm.72-.42a.33.33,0,0,0-.15.24c0,.09.07.12.15.07a.32.32,0,0,0,.16-.25C83.54,59.15,83.47,59.12,83.38,59.17Zm.73-.42A.32.32,0,0,0,84,59c0,.09.07.12.16.07a.33.33,0,0,0,.15-.25C84.26,58.73,84.19,58.7,84.11,58.75Zm.72-.42a.33.33,0,0,0-.15.24c0,.09.07.12.15.07A.32.32,0,0,0,85,58.4C85,58.31,84.92,58.28,84.83,58.33ZM72.28,66.17a.32.32,0,0,1-.16.24c-.09,0-.16,0-.16-.07a.32.32,0,0,1,.16-.24C72.21,66.05,72.28,66.08,72.28,66.17Zm.57-.49a.32.32,0,0,0-.16.25c0,.08.07.11.16.06a.33.33,0,0,0,.15-.24C73,65.66,72.93,65.63,72.85,65.68Zm.72-.42a.33.33,0,0,0-.15.25c0,.08.07.11.15.06a.32.32,0,0,0,.16-.24C73.73,65.24,73.66,65.21,73.57,65.26Zm.73-.42a.32.32,0,0,0-.16.25c0,.08.07.11.16.06a.33.33,0,0,0,.15-.24C74.45,64.82,74.38,64.79,74.3,64.84Zm.72-.42a.33.33,0,0,0-.15.25c0,.08.07.11.15.06a.29.29,0,0,0,.16-.24C75.18,64.4,75.11,64.37,75,64.42Zm.73-.42a.32.32,0,0,0-.16.25c0,.09.07.12.16.07a.33.33,0,0,0,.15-.25C75.9,64,75.83,64,75.75,64Zm.72-.41a.33.33,0,0,0-.15.24c0,.09.07.12.15.07a.32.32,0,0,0,.16-.25C76.63,63.57,76.56,63.54,76.47,63.59Zm.73-.42a.32.32,0,0,0-.16.24c0,.09.07.12.16.07a.33.33,0,0,0,.15-.25C77.35,63.15,77.28,63.12,77.2,63.17Zm.72-.42a.33.33,0,0,0-.15.24c0,.09.07.12.15.07a.32.32,0,0,0,.16-.25C78.08,62.73,78,62.7,77.92,62.75Zm.73-.42a.32.32,0,0,0-.16.24c0,.09.07.12.16.07a.32.32,0,0,0,.16-.25C78.81,62.31,78.74,62.28,78.65,62.33Zm.73-.42a.32.32,0,0,0-.16.25c0,.08.07.11.16.06a.33.33,0,0,0,.15-.24C79.53,61.89,79.46,61.86,79.38,61.91Zm.72-.42a.33.33,0,0,0-.15.25c0,.08.07.11.15.06a.32.32,0,0,0,.16-.24C80.26,61.47,80.19,61.44,80.1,61.49Zm.73-.42a.32.32,0,0,0-.16.25c0,.08.07.11.16.06a.33.33,0,0,0,.15-.24C81,61.05,80.91,61,80.83,61.07Zm.72-.42a.33.33,0,0,0-.15.25c0,.08.07.11.15.06a.3.3,0,0,0,.16-.24C81.71,60.63,81.64,60.6,81.55,60.65Zm.73-.42a.32.32,0,0,0-.16.25c0,.09.07.12.16.07a.33.33,0,0,0,.15-.25C82.43,60.21,82.36,60.19,82.28,60.23Zm.72-.41a.33.33,0,0,0-.15.24c0,.09.07.12.15.07a.32.32,0,0,0,.16-.25C83.16,59.8,83.09,59.77,83,59.82Zm.73-.42a.32.32,0,0,0-.16.24c0,.09.07.12.16.07a.33.33,0,0,0,.15-.25C83.88,59.38,83.81,59.35,83.73,59.4Zm.72-.42a.33.33,0,0,0-.15.24c0,.09.07.12.15.07a.32.32,0,0,0,.16-.25C84.61,59,84.54,58.93,84.45,59ZM71.93,66.8a.32.32,0,0,1-.16.25c-.08,0-.15,0-.15-.07a.33.33,0,0,1,.15-.24C71.86,66.69,71.93,66.72,71.93,66.8Zm.57-.48a.32.32,0,0,0-.16.24c0,.09.07.12.16.07a.33.33,0,0,0,.15-.25C72.65,66.3,72.58,66.27,72.5,66.32Zm.72-.42a.33.33,0,0,0-.15.24c0,.09.07.12.15.07a.32.32,0,0,0,.16-.24C73.38,65.88,73.31,65.85,73.22,65.9Zm.73-.42a.32.32,0,0,0-.16.25c0,.08.07.11.16.06a.32.32,0,0,0,.16-.24C74.11,65.46,74,65.43,74,65.48Zm.73-.42a.32.32,0,0,0-.16.25c0,.08.07.11.16.06a.33.33,0,0,0,.15-.24C74.83,65,74.76,65,74.68,65.06Zm.72-.42a.31.31,0,0,0-.15.25c0,.08.06.11.15.06a.32.32,0,0,0,.16-.24C75.56,64.62,75.49,64.59,75.4,64.64Zm.73-.42a.32.32,0,0,0-.16.25c0,.08.07.11.16.06a.3.3,0,0,0,.15-.24C76.28,64.2,76.21,64.17,76.13,64.22Zm.72-.42a.33.33,0,0,0-.15.25c0,.09.07.12.15.07a.32.32,0,0,0,.16-.25C77,63.78,76.94,63.76,76.85,63.8Zm.73-.41a.32.32,0,0,0-.16.24c0,.09.07.12.16.07a.33.33,0,0,0,.15-.25C77.73,63.37,77.66,63.34,77.58,63.39ZM78.3,63a.33.33,0,0,0-.15.24c0,.09.07.12.15.07a.32.32,0,0,0,.16-.25C78.46,63,78.39,62.92,78.3,63Zm.73-.42a.32.32,0,0,0-.16.24c0,.09.07.12.16.07a.33.33,0,0,0,.15-.25C79.18,62.53,79.11,62.5,79,62.55Zm.72-.42a.33.33,0,0,0-.15.24c0,.09.07.12.15.07a.32.32,0,0,0,.16-.25C79.91,62.11,79.84,62.08,79.75,62.13Zm.73-.42a.32.32,0,0,0-.16.25c0,.08.07.11.16.06a.32.32,0,0,0,.16-.24C80.64,61.69,80.57,61.66,80.48,61.71Zm.73-.42a.32.32,0,0,0-.16.25c0,.08.07.11.16.06a.33.33,0,0,0,.15-.24C81.36,61.27,81.29,61.24,81.21,61.29Zm.72-.42a.31.31,0,0,0-.15.25c0,.08.06.11.15.06a.32.32,0,0,0,.16-.24C82.09,60.85,82,60.82,81.93,60.87Zm.73-.42a.32.32,0,0,0-.16.25c0,.08.07.11.16.06a.32.32,0,0,0,.15-.24C82.81,60.43,82.74,60.4,82.66,60.45Zm.72-.42a.33.33,0,0,0-.15.25c0,.09.07.12.15.07a.32.32,0,0,0,.16-.25C83.54,60,83.47,60,83.38,60Zm.73-.41a.32.32,0,0,0-.16.24c0,.09.07.12.16.07a.33.33,0,0,0,.15-.25C84.26,59.6,84.19,59.57,84.11,59.62Zm.72-.42a.33.33,0,0,0-.15.24c0,.09.07.12.15.07a.32.32,0,0,0,.16-.25C85,59.18,84.92,59.15,84.83,59.2ZM72.28,67a.32.32,0,0,1-.16.25c-.09,0-.16,0-.16-.07a.32.32,0,0,1,.16-.24C72.21,66.92,72.28,67,72.28,67Zm.57-.48a.32.32,0,0,0-.16.24c0,.09.07.12.16.07a.33.33,0,0,0,.15-.25C73,66.53,72.93,66.5,72.85,66.55Zm.72-.42a.33.33,0,0,0-.15.24c0,.09.07.12.15.07a.32.32,0,0,0,.16-.25C73.73,66.11,73.66,66.08,73.57,66.13Zm.73-.42a.32.32,0,0,0-.16.25c0,.08.07.11.16.06a.33.33,0,0,0,.15-.24C74.45,65.69,74.38,65.66,74.3,65.71Zm.72-.42a.33.33,0,0,0-.15.25c0,.08.07.11.15.06a.32.32,0,0,0,.16-.24C75.18,65.27,75.11,65.24,75,65.29Zm.73-.42a.32.32,0,0,0-.16.25c0,.08.07.11.16.06a.33.33,0,0,0,.15-.24C75.9,64.85,75.83,64.82,75.75,64.87Zm.72-.42a.33.33,0,0,0-.15.25c0,.08.07.11.15.06a.32.32,0,0,0,.16-.24C76.63,64.43,76.56,64.4,76.47,64.45ZM77.2,64a.32.32,0,0,0-.16.25c0,.09.07.11.16.07a.33.33,0,0,0,.15-.25C77.35,64,77.28,64,77.2,64Zm.72-.41a.3.3,0,0,0-.15.24c0,.09.07.12.15.07a.32.32,0,0,0,.16-.25C78.08,63.6,78,63.57,77.92,63.62Zm.73-.42a.32.32,0,0,0-.16.24c0,.09.07.12.16.07a.32.32,0,0,0,.16-.25C78.81,63.18,78.74,63.15,78.65,63.2Zm.73-.42a.32.32,0,0,0-.16.24c0,.09.07.12.16.07a.33.33,0,0,0,.15-.25C79.53,62.76,79.46,62.73,79.38,62.78Zm.72-.42a.33.33,0,0,0-.15.24c0,.09.07.12.15.07a.32.32,0,0,0,.16-.25C80.26,62.34,80.19,62.31,80.1,62.36Zm.73-.42a.32.32,0,0,0-.16.24c0,.09.07.12.16.07A.33.33,0,0,0,81,62C81,61.92,80.91,61.89,80.83,61.94Zm.72-.42a.33.33,0,0,0-.15.25c0,.08.07.11.15.06a.32.32,0,0,0,.16-.24C81.71,61.5,81.64,61.47,81.55,61.52Zm.73-.42a.32.32,0,0,0-.16.25c0,.08.07.11.16.06a.33.33,0,0,0,.15-.24C82.43,61.08,82.36,61.05,82.28,61.1Zm.72-.42a.33.33,0,0,0-.15.25c0,.08.07.11.15.06a.32.32,0,0,0,.16-.24C83.16,60.66,83.09,60.63,83,60.68Zm.73-.42a.32.32,0,0,0-.16.25c0,.09.07.11.16.07a.33.33,0,0,0,.15-.25C83.88,60.24,83.81,60.21,83.73,60.26Zm.72-.41a.3.3,0,0,0-.15.24c0,.09.07.12.15.07a.32.32,0,0,0,.16-.25C84.61,59.82,84.54,59.8,84.45,59.85ZM71.93,67.67a.32.32,0,0,1-.16.25c-.08,0-.15,0-.15-.07a.33.33,0,0,1,.15-.25C71.86,67.55,71.93,67.58,71.93,67.67Zm.57-.48a.3.3,0,0,0-.16.24c0,.09.07.12.16.07a.33.33,0,0,0,.15-.25C72.65,67.17,72.58,67.14,72.5,67.19Zm.72-.42a.33.33,0,0,0-.15.24c0,.09.07.12.15.07a.32.32,0,0,0,.16-.25C73.38,66.75,73.31,66.72,73.22,66.77Zm.73-.42a.32.32,0,0,0-.16.24c0,.09.07.12.16.07a.32.32,0,0,0,.16-.25C74.11,66.33,74,66.3,74,66.35Zm.73-.42a.32.32,0,0,0-.16.24c0,.09.07.12.16.07a.33.33,0,0,0,.15-.25C74.83,65.91,74.76,65.88,74.68,65.93Zm.72-.42a.31.31,0,0,0-.15.25c0,.08.06.11.15.06a.32.32,0,0,0,.16-.24C75.56,65.49,75.49,65.46,75.4,65.51Zm.73-.42a.32.32,0,0,0-.16.25c0,.08.07.11.16.06a.33.33,0,0,0,.15-.24C76.28,65.07,76.21,65,76.13,65.09Zm.72-.42a.33.33,0,0,0-.15.25c0,.08.07.11.15.06a.32.32,0,0,0,.16-.24C77,64.65,76.94,64.62,76.85,64.67Zm.73-.42a.32.32,0,0,0-.16.25c0,.08.07.11.16.06a.33.33,0,0,0,.15-.24C77.73,64.23,77.66,64.2,77.58,64.25Zm.72-.42a.33.33,0,0,0-.15.25c0,.09.07.11.15.07a.32.32,0,0,0,.16-.25C78.46,63.81,78.39,63.78,78.3,63.83Zm.73-.41a.29.29,0,0,0-.16.24c0,.09.07.12.16.07a.33.33,0,0,0,.15-.25C79.18,63.4,79.11,63.37,79,63.42Zm.72-.42a.33.33,0,0,0-.15.24c0,.09.07.12.15.07a.32.32,0,0,0,.16-.25C79.91,63,79.84,63,79.75,63Zm.73-.42a.32.32,0,0,0-.16.24c0,.09.07.12.16.07a.32.32,0,0,0,.16-.25C80.64,62.56,80.57,62.53,80.48,62.58Zm.73-.42a.32.32,0,0,0-.16.24c0,.09.07.12.16.07a.33.33,0,0,0,.15-.25C81.36,62.14,81.29,62.11,81.21,62.16Zm.72-.42a.31.31,0,0,0-.15.24c0,.09.06.12.15.07a.32.32,0,0,0,.16-.24C82.09,61.72,82,61.69,81.93,61.74Zm.73-.42a.32.32,0,0,0-.16.25c0,.08.07.11.16.06a.33.33,0,0,0,.15-.24C82.81,61.3,82.74,61.27,82.66,61.32Zm.72-.42a.33.33,0,0,0-.15.25c0,.08.07.11.15.06a.32.32,0,0,0,.16-.24C83.54,60.88,83.47,60.85,83.38,60.9Zm.73-.42a.32.32,0,0,0-.16.25c0,.08.07.11.16.06a.33.33,0,0,0,.15-.24C84.26,60.46,84.19,60.43,84.11,60.48Zm.72-.42a.33.33,0,0,0-.15.25c0,.09.07.11.15.07a.32.32,0,0,0,.16-.25C85,60,84.92,60,84.83,60.06ZM72.28,67.9a.29.29,0,0,1-.16.24c-.09,0-.16,0-.16-.06a.32.32,0,0,1,.16-.25C72.21,67.78,72.28,67.81,72.28,67.9Zm.57-.49a.32.32,0,0,0-.16.25c0,.09.07.12.16.07a.33.33,0,0,0,.15-.25C73,67.39,72.93,67.37,72.85,67.41Zm.72-.41a.33.33,0,0,0-.15.24c0,.09.07.12.15.07a.32.32,0,0,0,.16-.25C73.73,67,73.66,67,73.57,67Zm.73-.42a.32.32,0,0,0-.16.24c0,.09.07.12.16.07a.33.33,0,0,0,.15-.25C74.45,66.56,74.38,66.53,74.3,66.58Zm.72-.42a.33.33,0,0,0-.15.24c0,.09.07.12.15.07a.32.32,0,0,0,.16-.25C75.18,66.14,75.11,66.11,75,66.16Zm.73-.42a.32.32,0,0,0-.16.24c0,.09.07.12.16.07a.33.33,0,0,0,.15-.24C75.9,65.72,75.83,65.69,75.75,65.74Zm.72-.42a.33.33,0,0,0-.15.25c0,.08.07.11.15.06a.32.32,0,0,0,.16-.24C76.63,65.3,76.56,65.27,76.47,65.32Zm.73-.42a.32.32,0,0,0-.16.25c0,.08.07.11.16.06a.33.33,0,0,0,.15-.24C77.35,64.88,77.28,64.85,77.2,64.9Zm.72-.42a.33.33,0,0,0-.15.25c0,.08.07.11.15.06a.32.32,0,0,0,.16-.24C78.08,64.46,78,64.43,77.92,64.48Zm.73-.42a.32.32,0,0,0-.16.25c0,.08.07.11.16.06a.29.29,0,0,0,.16-.24C78.81,64,78.74,64,78.65,64.06Zm.73-.42a.32.32,0,0,0-.16.25c0,.09.07.12.16.07a.33.33,0,0,0,.15-.25C79.53,63.62,79.46,63.6,79.38,63.64Zm.72-.41a.33.33,0,0,0-.15.24c0,.09.07.12.15.07a.32.32,0,0,0,.16-.25C80.26,63.21,80.19,63.18,80.1,63.23Zm.73-.42a.32.32,0,0,0-.16.24c0,.09.07.12.16.07a.33.33,0,0,0,.15-.25C81,62.79,80.91,62.76,80.83,62.81Zm.72-.42a.33.33,0,0,0-.15.24c0,.09.07.12.15.07a.32.32,0,0,0,.16-.25C81.71,62.37,81.64,62.34,81.55,62.39Zm.73-.42a.32.32,0,0,0-.16.24c0,.09.07.12.16.07a.33.33,0,0,0,.15-.25C82.43,62,82.36,61.92,82.28,62Zm.72-.42a.33.33,0,0,0-.15.25c0,.08.07.11.15.06a.32.32,0,0,0,.16-.24C83.16,61.53,83.09,61.5,83,61.55Zm.73-.42a.32.32,0,0,0-.16.25c0,.08.07.11.16.06a.33.33,0,0,0,.15-.24C83.88,61.11,83.81,61.08,83.73,61.13Zm.72-.42a.33.33,0,0,0-.15.25c0,.08.07.11.15.06a.32.32,0,0,0,.16-.24C84.61,60.69,84.54,60.66,84.45,60.71Z"/><polygon class="cls-12" points="104.66 44.4 97.58 48.49 97.58 44.75 104.66 40.67 104.66 44.4"/><path class="cls-13" d="M99.24,44.44v1L98,46.18v-1l.27-.15v-.17l.21-.12V44.6l.33-.19v.14l.21-.13v.17Zm0,2.44v-1L98,46.63v1l.27-.16v.17l.21-.12v.13l.33-.19v-.13l.21-.12V47Zm1.68-3.41v1l-1.29.74v-1l.27-.15v-.17l.22-.13v-.13l.32-.19v.14l.21-.13v.17Zm0,2.44v-1l-1.29.75v1l.27-.16v.17l.22-.12v.13l.32-.19v-.13l.21-.12v-.17Zm1.68-3.41v1l-1.28.74v-1l.26-.15v-.17l.22-.13v-.13l.32-.19v.14l.21-.13v.17Zm0,2.44v-1l-1.28.75v1l.26-.16v.17l.22-.12v.13l.32-.19v-.13l.21-.12V45.1Zm1.68-3.41v1l-1.28.74v-1l.26-.15V42l.22-.13v-.13l.32-.19v.13l.22-.12v.17Zm0,2.44V43l-1.28.75v1l.26-.16v.17l.22-.12v.13l.32-.19v-.13l.22-.12v-.17Z"/><polygon class="cls-14" points="99.24 46.37 98.89 46.17 98.89 46.41 99.24 46.61 99.24 46.37"/><polygon class="cls-15" points="100.92 44.28 100.92 44.04 100.58 43.84 100.58 44.08 100.92 44.28"/><polygon class="cls-16" points="99.24 45.26 99.24 45.02 98.89 44.82 98.89 45.06 99.24 45.26"/><polygon class="cls-17" points="102.6 43.32 102.6 43.08 102.25 42.88 102.25 43.12 102.6 43.32"/><polygon class="cls-18" points="100.92 45.39 100.58 45.19 100.58 45.43 100.92 45.63 100.92 45.39"/><polygon class="cls-19" points="104.28 43.53 103.86 43.29 103.86 43.53 104.28 43.77 104.28 43.53"/><polygon class="cls-20" points="103.86 41.94 103.86 42.18 104.28 42.42 104.28 42.18 103.86 41.94"/><polygon class="cls-21" points="102.6 44.43 102.25 44.23 102.25 44.47 102.6 44.67 102.6 44.43"/><polygon class="cls-12" points="104.66 49.35 97.58 53.44 97.58 49.71 104.66 45.62 104.66 49.35"/><path class="cls-13" d="M99.24,49.39v1L98,51.13v-1l.27-.16v-.17l.21-.12v-.14l.33-.19v.14l.21-.12v.17Zm0,2.45v-1L98,51.58v1l.27-.16v.17l.21-.12v.14l.33-.19v-.14l.21-.12V52Zm1.68-3.42v1l-1.29.74v-1L99.9,49v-.17l.22-.12v-.14l.32-.19v.14l.21-.12v.17Zm0,2.44v-1l-1.29.74v1l.27-.16v.17l.22-.12v.14l.32-.19v-.14l.21-.12V51Zm1.68-3.41v1l-1.28.74v-1l.26-.16v-.17l.22-.12v-.14l.32-.19v.14l.21-.12v.17Zm0,2.44v-1l-1.28.74v1l.26-.16v.17l.22-.12v.14l.32-.19v-.14l.21-.12v-.17Zm1.68-3.41v1l-1.28.74v-1l.26-.16V46.9l.22-.12v-.14l.32-.19v.14l.22-.12v.17Zm0,2.44v-1l-1.28.74v1l.26-.16v.17l.22-.12v.14l.32-.19v-.14l.22-.12v-.17Z"/><polygon class="cls-22" points="99.24 51.32 98.89 51.12 98.89 51.36 99.24 51.56 99.24 51.32"/><polygon class="cls-23" points="100.92 49.24 100.92 49 100.58 48.8 100.58 49.04 100.92 49.24"/><polygon class="cls-24" points="99.24 50.21 99.24 49.97 98.89 49.77 98.89 50.01 99.24 50.21"/><polygon class="cls-25" points="102.6 48.28 102.6 48.03 102.25 47.83 102.25 48.07 102.6 48.28"/><polygon class="cls-26" points="100.92 50.35 100.58 50.15 100.58 50.39 100.92 50.59 100.92 50.35"/><polygon class="cls-27" points="104.28 48.48 103.86 48.24 103.86 48.48 104.28 48.73 104.28 48.48"/><polygon class="cls-28" points="103.86 46.89 103.86 47.13 104.28 47.38 104.28 47.13 103.86 46.89"/><polygon class="cls-29" points="102.6 49.38 102.25 49.18 102.25 49.42 102.6 49.63 102.6 49.38"/><polygon class="cls-12" points="96.51 49.12 89.43 53.2 89.43 49.47 96.51 45.38 96.51 49.12"/><path class="cls-13" d="M91.09,49.16v1l-1.28.75v-1l.26-.16v-.17l.22-.12v-.13l.32-.19v.13l.22-.12v.17Zm0,2.44v-1l-1.28.74v1l.26-.15v.17l.22-.12v.13l.32-.19v-.13l.22-.12v-.18Zm1.68-3.41v1l-1.28.75v-1l.26-.16V48.6l.22-.12v-.13l.32-.19v.13l.22-.12v.17Zm0,2.44v-1l-1.28.74v1l.26-.15v.17l.22-.12v.13l.32-.19v-.13l.22-.13v-.17Zm1.69-3.41v1L93.17,49V48l.27-.16v-.17l.21-.12v-.13l.33-.19v.13l.21-.12v.17Zm0,2.44v-1l-1.29.74v1l.27-.15v.17l.21-.12v.13l.33-.19v-.13l.21-.13v-.17Zm1.68-3.41v1L94.85,48V47l.27-.16v-.17l.21-.12v-.13l.33-.19v.13l.21-.12v.17Zm0,2.44v-1l-1.29.74v1l.27-.15v.17l.21-.12v.13l.33-.19v-.13l.21-.13v-.17Z"/><polygon class="cls-30" points="91.09 51.08 90.75 50.88 90.75 51.13 91.09 51.33 91.09 51.08"/><polygon class="cls-31" points="92.78 49 92.78 48.76 92.43 48.56 92.43 48.8 92.78 49"/><polygon class="cls-32" points="91.09 49.98 91.09 49.73 90.75 49.53 90.75 49.77 91.09 49.98"/><polygon class="cls-33" points="94.45 48.04 94.45 47.8 94.1 47.59 94.1 47.84 94.45 48.04"/><polygon class="cls-34" points="92.78 50.11 92.43 49.91 92.43 50.15 92.78 50.35 92.78 50.11"/><polygon class="cls-35" points="96.14 48.25 95.72 48.01 95.72 48.25 96.14 48.49 96.14 48.25"/><polygon class="cls-36" points="95.72 46.66 95.72 46.9 96.14 47.14 96.14 46.9 95.72 46.66"/><polygon class="cls-37" points="94.45 49.15 94.1 48.94 94.1 49.19 94.45 49.39 94.45 49.15"/><polygon class="cls-12" points="96.51 54.07 89.43 58.16 89.43 54.42 96.51 50.34 96.51 54.07"/><path class="cls-13" d="M91.09,54.11v1l-1.28.74v-1l.26-.15v-.17l.22-.13v-.13l.32-.19v.13l.22-.12v.17Zm0,2.44v-1l-1.28.75v1l.26-.16v.17l.22-.12v.13l.32-.19V57l.22-.12v-.17Zm1.68-3.41v1l-1.28.74v-1l.26-.15v-.17l.22-.13V53.3l.32-.19v.13l.22-.12v.17Zm0,2.44v-1l-1.28.75v1l.26-.16v.17l.22-.12v.13l.32-.19V56l.22-.12v-.17Zm1.69-3.41v1l-1.29.74v-1l.27-.15v-.17l.21-.13v-.13l.33-.19v.13l.21-.12v.17Zm0,2.44v-1l-1.29.75v1l.27-.16v.17l.21-.12v.13l.33-.19v-.13l.21-.12v-.17Zm1.68-3.41v1l-1.29.74v-1l.27-.15v-.17l.21-.13v-.13l.33-.19v.13l.21-.12v.17Zm0,2.44v-1l-1.29.75v1l.27-.15v.17l.21-.12v.13l.33-.19v-.13l.21-.12V53.8Z"/><polygon class="cls-38" points="91.09 56.04 90.75 55.84 90.75 56.08 91.09 56.28 91.09 56.04"/><polygon class="cls-39" points="92.78 53.95 92.78 53.71 92.43 53.51 92.43 53.75 92.78 53.95"/><polygon class="cls-40" points="91.09 54.93 91.09 54.69 90.75 54.48 90.75 54.73 91.09 54.93"/><polygon class="cls-41" points="94.45 52.99 94.45 52.75 94.1 52.55 94.1 52.79 94.45 52.99"/><polygon class="cls-42" points="92.78 55.06 92.43 54.86 92.43 55.1 92.78 55.3 92.78 55.06"/><polygon class="cls-43" points="96.14 53.2 95.72 52.96 95.72 53.2 96.14 53.44 96.14 53.2"/><polygon class="cls-44" points="95.72 51.61 95.72 51.85 96.14 52.09 96.14 51.85 95.72 51.61"/><polygon class="cls-45" points="94.45 54.1 94.1 53.9 94.1 54.14 94.45 54.34 94.45 54.1"/><polygon class="cls-46" points="103.31 41.33 103.31 41.08 103.8 40.8 103.8 41.05 103.31 41.33"/><polygon class="cls-47" points="103.76 41.03 103.36 41.26 103.36 41.1 103.76 40.87 103.76 41.03"/><polygon class="cls-46" points="101.67 42.27 101.67 42.03 102.16 41.74 102.16 41.99 101.67 42.27"/><polygon class="cls-47" points="102.11 41.97 101.71 42.2 101.71 42.05 102.11 41.81 102.11 41.97"/><polygon class="cls-46" points="99.99 43.24 99.99 42.99 100.48 42.71 100.48 42.96 99.99 43.24"/><polygon class="cls-47" points="100.44 42.94 100.03 43.17 100.03 43.01 100.44 42.78 100.44 42.94"/><polygon class="cls-46" points="98.34 44.2 98.34 43.95 98.83 43.67 98.83 43.92 98.34 44.2"/><polygon class="cls-47" points="98.79 43.9 98.38 44.13 98.38 43.97 98.79 43.74 98.79 43.9"/><polygon class="cls-46" points="103.31 45.54 103.31 45.3 103.8 45.01 103.8 45.26 103.31 45.54"/><polygon class="cls-47" points="103.76 45.24 103.36 45.47 103.36 45.31 103.76 45.08 103.76 45.24"/><polygon class="cls-46" points="101.67 46.49 101.67 46.24 102.16 45.96 102.16 46.2 101.67 46.49"/><polygon class="cls-47" points="102.11 46.19 101.71 46.42 101.71 46.26 102.11 46.03 102.11 46.19"/><polygon class="cls-46" points="99.99 47.46 99.99 47.21 100.48 46.92 100.48 47.17 99.99 47.46"/><polygon class="cls-47" points="100.44 47.15 100.03 47.39 100.03 47.23 100.44 46.99 100.44 47.15"/><polygon class="cls-46" points="98.34 48.41 98.34 48.17 98.83 47.88 98.83 48.13 98.34 48.41"/><polygon class="cls-47" points="98.79 48.11 98.38 48.34 98.38 48.19 98.79 47.95 98.79 48.11"/><polygon class="cls-46" points="103.31 46.28 103.31 46.03 103.8 45.75 103.8 46 103.31 46.28"/><polygon class="cls-47" points="103.76 45.98 103.36 46.21 103.36 46.05 103.76 45.82 103.76 45.98"/><polygon class="cls-46" points="101.67 47.23 101.67 46.98 102.16 46.7 102.16 46.94 101.67 47.23"/><polygon class="cls-47" points="102.11 46.92 101.71 47.16 101.71 47 102.11 46.77 102.11 46.92"/><polygon class="cls-46" points="99.99 48.19 99.99 47.95 100.48 47.66 100.48 47.91 99.99 48.19"/><polygon class="cls-47" points="100.44 47.89 100.03 48.12 100.03 47.97 100.44 47.73 100.44 47.89"/><polygon class="cls-46" points="98.34 49.15 98.34 48.9 98.83 48.62 98.83 48.87 98.34 49.15"/><polygon class="cls-47" points="98.79 48.85 98.38 49.08 98.38 48.92 98.79 48.69 98.79 48.85"/><polygon class="cls-46" points="103.31 50.49 103.31 50.25 103.8 49.97 103.8 50.21 103.31 50.49"/><polygon class="cls-47" points="103.76 50.19 103.36 50.42 103.36 50.27 103.76 50.03 103.76 50.19"/><polygon class="cls-46" points="101.67 51.44 101.67 51.19 102.16 50.91 102.16 51.16 101.67 51.44"/><polygon class="cls-47" points="102.11 51.14 101.71 51.37 101.71 51.21 102.11 50.98 102.11 51.14"/><polygon class="cls-46" points="99.99 52.41 99.99 52.16 100.48 51.88 100.48 52.13 99.99 52.41"/><polygon class="cls-47" points="100.44 52.11 100.03 52.34 100.03 52.18 100.44 51.95 100.44 52.11"/><polygon class="cls-46" points="98.34 53.37 98.34 53.12 98.83 52.84 98.83 53.08 98.34 53.37"/><polygon class="cls-47" points="98.79 53.06 98.38 53.3 98.38 53.14 98.79 52.91 98.79 53.06"/><polygon class="cls-46" points="95.22 46.01 95.22 45.76 95.71 45.48 95.71 45.72 95.22 46.01"/><polygon class="cls-47" points="95.66 45.7 95.26 45.94 95.26 45.78 95.66 45.55 95.66 45.7"/><polygon class="cls-46" points="93.57 46.95 93.57 46.7 94.06 46.42 94.06 46.67 93.57 46.95"/><polygon class="cls-47" points="94.02 46.65 93.62 46.88 93.62 46.72 94.02 46.49 94.02 46.65"/><polygon class="cls-46" points="91.9 47.92 91.9 47.67 92.39 47.39 92.39 47.64 91.9 47.92"/><polygon class="cls-47" points="92.34 47.62 91.94 47.85 91.94 47.69 92.34 47.46 92.34 47.62"/><polygon class="cls-46" points="90.25 48.88 90.25 48.63 90.74 48.35 90.74 48.59 90.25 48.88"/><polygon class="cls-47" points="90.69 48.58 90.29 48.81 90.29 48.65 90.69 48.42 90.69 48.58"/><polygon class="cls-46" points="95.22 50.22 95.22 49.97 95.71 49.69 95.71 49.94 95.22 50.22"/><polygon class="cls-47" points="95.66 49.92 95.26 50.15 95.26 49.99 95.66 49.76 95.66 49.92"/><polygon class="cls-46" points="93.57 51.17 93.57 50.92 94.06 50.64 94.06 50.88 93.57 51.17"/><polygon class="cls-47" points="94.02 50.87 93.62 51.1 93.62 50.94 94.02 50.71 94.02 50.87"/><polygon class="cls-46" points="91.9 52.13 91.9 51.89 92.39 51.6 92.39 51.85 91.9 52.13"/><polygon class="cls-47" points="92.34 51.83 91.94 52.06 91.94 51.91 92.34 51.67 92.34 51.83"/><polygon class="cls-46" points="90.25 53.09 90.25 52.84 90.74 52.56 90.74 52.81 90.25 53.09"/><polygon class="cls-47" points="90.69 52.79 90.29 53.02 90.29 52.86 90.69 52.63 90.69 52.79"/><polygon class="cls-46" points="95.22 50.96 95.22 50.71 95.71 50.43 95.71 50.68 95.22 50.96"/><polygon class="cls-47" points="95.66 50.66 95.26 50.89 95.26 50.73 95.66 50.5 95.66 50.66"/><polygon class="cls-46" points="93.57 51.91 93.57 51.66 94.06 51.37 94.06 51.62 93.57 51.91"/><polygon class="cls-47" points="94.02 51.6 93.62 51.84 93.62 51.68 94.02 51.44 94.02 51.6"/><polygon class="cls-46" points="91.9 52.87 91.9 52.63 92.39 52.34 92.39 52.59 91.9 52.87"/><polygon class="cls-47" points="92.34 52.57 91.94 52.8 91.94 52.64 92.34 52.41 92.34 52.57"/><polygon class="cls-46" points="90.25 53.83 90.25 53.58 90.74 53.3 90.74 53.55 90.25 53.83"/><polygon class="cls-47" points="90.69 53.53 90.29 53.76 90.29 53.6 90.69 53.37 90.69 53.53"/><polygon class="cls-46" points="95.22 55.17 95.22 54.93 95.71 54.64 95.71 54.89 95.22 55.17"/><polygon class="cls-47" points="95.66 54.87 95.26 55.1 95.26 54.95 95.66 54.71 95.66 54.87"/><polygon class="cls-46" points="93.57 56.12 93.57 55.87 94.06 55.59 94.06 55.84 93.57 56.12"/><polygon class="cls-47" points="94.02 55.82 93.62 56.05 93.62 55.89 94.02 55.66 94.02 55.82"/><polygon class="cls-46" points="91.9 57.09 91.9 56.84 92.39 56.56 92.39 56.8 91.9 57.09"/><polygon class="cls-47" points="92.34 56.78 91.94 57.02 91.94 56.86 92.34 56.63 92.34 56.78"/><polygon class="cls-46" points="90.25 58.05 90.25 57.8 90.74 57.52 90.74 57.76 90.25 58.05"/><polygon class="cls-47" points="90.69 57.74 90.29 57.98 90.29 57.82 90.69 57.59 90.69 57.74"/><polygon class="cls-12" points="68.98 65.25 61.9 69.33 61.9 65.6 68.98 61.51 68.98 65.25"/><path class="cls-13" d="M63.56,65.28v1L62.27,67V66l.27-.16V65.7l.21-.12v-.13l.33-.19v.13l.21-.12v.17Zm0,2.45v-1l-1.29.74v1l.27-.15v.17l.21-.13v.14l.33-.19v-.13l.21-.13v-.17Zm1.68-3.42v1L64,66.06v-1l.27-.16v-.17l.21-.12v-.13l.33-.19v.13L65,64.3v.17Zm0,2.45v-1L64,66.5v1l.27-.15v.17l.21-.13v.14l.33-.19V67.2l.21-.12v-.17Zm1.68-3.42v1l-1.29.75v-1l.27-.16v-.17l.21-.12v-.13l.33-.19v.13l.21-.12v.17Zm0,2.45v-1l-1.29.74v1l.27-.15v.17l.21-.13v.14l.33-.19v-.14l.21-.12v-.17Zm1.68-3.42v1l-1.29.75v-1l.27-.16v-.17l.21-.12v-.13l.33-.19v.13l.21-.12v.17Zm0,2.45v-1l-1.29.74v1l.27-.16v.18l.21-.13v.14l.33-.19v-.14l.21-.12V65Z"/><polygon class="cls-48" points="63.56 67.21 63.21 67.01 63.21 67.25 63.56 67.45 63.56 67.21"/><polygon class="cls-49" points="65.24 65.13 65.24 64.89 64.89 64.69 64.89 64.93 65.24 65.13"/><polygon class="cls-50" points="63.56 66.1 63.56 65.86 63.21 65.66 63.21 65.9 63.56 66.1"/><polygon class="cls-51" points="66.92 64.17 66.92 63.93 66.57 63.72 66.57 63.96 66.92 64.17"/><polygon class="cls-52" points="65.24 66.24 64.89 66.04 64.89 66.28 65.24 66.48 65.24 66.24"/><polygon class="cls-53" points="68.6 64.38 68.18 64.13 68.18 64.38 68.6 64.62 68.6 64.38"/><polygon class="cls-54" points="68.18 62.78 68.18 63.02 68.6 63.27 68.6 63.03 68.18 62.78"/><polygon class="cls-55" points="66.92 65.28 66.57 65.07 66.57 65.31 66.92 65.52 66.92 65.28"/><polygon class="cls-12" points="68.98 70.2 61.9 74.29 61.9 70.55 68.98 66.46 68.98 70.2"/><path class="cls-13" d="M63.56,70.24v1L62.27,72V71l.27-.15v-.18l.21-.12V70.4l.33-.19v.13l.21-.12v.17Zm0,2.44v-1l-1.29.75v1l.27-.15v.17l.21-.12v.13l.33-.19v-.13l.21-.12v-.18Zm1.68-3.41v1L64,71V70l.27-.15v-.18l.21-.12v-.13l.33-.19v.13l.21-.12v.17Zm0,2.44v-1L64,71.46v1l.27-.15v.17l.21-.12v.13l.33-.19v-.13L65,72v-.18Zm1.68-3.41v1L65.63,70V69l.27-.16v-.17l.21-.12v-.13l.33-.19v.13l.21-.12v.17Zm0,2.44v-1l-1.29.74v1l.27-.15v.17l.21-.12v.13l.33-.19v-.13l.21-.12v-.18Zm1.68-3.41v1l-1.29.75v-1l.27-.16v-.17l.21-.12v-.13l.33-.19v.13l.21-.12v.17Zm0,2.44v-1l-1.29.74v1l.27-.15v.17l.21-.12v.13l.33-.19v-.13l.21-.13v-.17Z"/><polygon class="cls-56" points="63.56 72.16 63.21 71.96 63.21 72.2 63.56 72.41 63.56 72.16"/><polygon class="cls-57" points="65.24 70.08 65.24 69.84 64.89 69.64 64.89 69.88 65.24 70.08"/><polygon class="cls-58" points="63.56 71.06 63.56 70.81 63.21 70.61 63.21 70.86 63.56 71.06"/><polygon class="cls-59" points="66.92 69.12 66.92 68.88 66.57 68.67 66.57 68.92 66.92 69.12"/><polygon class="cls-60" points="65.24 71.19 64.89 70.99 64.89 71.23 65.24 71.43 65.24 71.19"/><polygon class="cls-61" points="68.6 69.33 68.18 69.09 68.18 69.33 68.6 69.57 68.6 69.33"/><polygon class="cls-62" points="68.18 67.74 68.18 67.98 68.6 68.22 68.6 67.98 68.18 67.74"/><polygon class="cls-63" points="66.92 70.23 66.57 70.02 66.57 70.27 66.92 70.47 66.92 70.23"/><polygon class="cls-12" points="60.83 69.96 53.75 74.05 53.75 70.31 60.83 66.23 60.83 69.96"/><path class="cls-13" d="M55.41,70v1l-1.29.74v-1l.27-.15v-.17l.21-.12v-.14l.33-.19v.14l.21-.13v.18Zm0,2.44v-1l-1.29.74v1l.27-.16v.17l.21-.12v.13l.33-.18v-.14l.21-.12V72.6ZM57.09,69v1l-1.29.74v-1l.27-.15v-.17l.21-.12v-.14l.33-.19v.14l.21-.13v.18Zm0,2.44v-1l-1.29.75v1l.27-.16v.17l.21-.12v.13l.33-.18v-.14l.21-.12v-.17Zm1.68-3.41v1l-1.29.74v-1l.27-.15v-.17l.21-.12v-.14l.33-.19v.14L58.5,68v.18Zm0,2.44v-1l-1.29.75v1l.27-.16v.17l.21-.12v.13l.33-.19V71l.21-.12v-.17Zm1.68-3.41v1l-1.29.74v-1l.27-.15v-.17l.22-.12v-.14l.32-.19v.14l.21-.13v.17Zm0,2.44v-1l-1.29.75v1l.27-.16v.17l.22-.12v.13l.32-.19V70l.21-.12v-.17Z"/><polygon class="cls-64" points="55.41 71.93 55.06 71.73 55.06 71.97 55.41 72.17 55.41 71.93"/><polygon class="cls-65" points="57.09 69.85 57.09 69.6 56.74 69.4 56.74 69.64 57.09 69.85"/><polygon class="cls-66" points="55.41 70.82 55.41 70.58 55.06 70.38 55.06 70.62 55.41 70.82"/><polygon class="cls-67" points="58.77 68.88 58.77 68.64 58.42 68.44 58.42 68.68 58.77 68.88"/><polygon class="cls-68" points="57.09 70.95 56.74 70.75 56.74 71 57.09 71.2 57.09 70.95"/><polygon class="cls-69" points="60.45 69.09 60.03 68.85 60.03 69.09 60.45 69.33 60.45 69.09"/><polygon class="cls-70" points="60.03 67.5 60.03 67.74 60.45 67.98 60.45 67.74 60.03 67.5"/><polygon class="cls-71" points="58.77 69.99 58.42 69.79 58.42 70.03 58.77 70.23 58.77 69.99"/><polygon class="cls-12" points="60.83 74.92 53.75 79 53.75 75.27 60.83 71.18 60.83 74.92"/><path class="cls-13" d="M55.41,75v1l-1.29.75v-1l.27-.16v-.17l.21-.12v-.13l.33-.19v.13l.21-.12v.17Zm0,2.45v-1l-1.29.74v1l.27-.16v.18L54.6,78v.14l.33-.19v-.14l.21-.12v-.17ZM57.09,74v1l-1.29.75v-1l.27-.16V74.4l.21-.12v-.14l.33-.18v.13l.21-.12v.17Zm0,2.45v-1l-1.29.74v1l.27-.16v.18l.21-.13v.14l.33-.19v-.14l.21-.12v-.17ZM58.77,73v1l-1.29.74v-1l.27-.16v-.17l.21-.12v-.14l.33-.18v.13L58.5,73v.17Zm0,2.45v-1l-1.29.74v1l.27-.16v.18l.21-.13v.14l.33-.19V75.9l.21-.12v-.17ZM60.45,72v1l-1.29.74v-1l.27-.16v-.17l.22-.12V72.2L60,72v.14l.21-.12v.17Zm0,2.45v-1l-1.29.74v1l.27-.16v.17l.22-.12v.14l.32-.19v-.14l.21-.12v-.17Z"/><polygon class="cls-72" points="55.41 76.88 55.06 76.68 55.06 76.92 55.41 77.12 55.41 76.88"/><polygon class="cls-73" points="57.09 74.8 57.09 74.56 56.74 74.36 56.74 74.6 57.09 74.8"/><polygon class="cls-74" points="55.41 75.77 55.41 75.53 55.06 75.33 55.06 75.57 55.41 75.77"/><polygon class="cls-75" points="58.77 73.84 58.77 73.59 58.42 73.39 58.42 73.63 58.77 73.84"/><polygon class="cls-76" points="57.09 75.91 56.74 75.71 56.74 75.95 57.09 76.15 57.09 75.91"/><polygon class="cls-77" points="60.45 74.05 60.03 73.8 60.03 74.05 60.45 74.29 60.45 74.05"/><polygon class="cls-78" points="60.03 72.45 60.03 72.69 60.45 72.94 60.45 72.69 60.03 72.45"/><polygon class="cls-79" points="58.77 74.94 58.42 74.74 58.42 74.98 58.77 75.19 58.77 74.94"/><polygon class="cls-46" points="67.63 62.17 67.63 61.92 68.12 61.64 68.12 61.89 67.63 62.17"/><polygon class="cls-47" points="68.08 61.87 67.67 62.1 67.67 61.94 68.08 61.71 68.08 61.87"/><polygon class="cls-46" points="65.99 63.12 65.99 62.87 66.48 62.59 66.48 62.84 65.99 63.12"/><polygon class="cls-47" points="66.43 62.82 66.03 63.05 66.03 62.89 66.43 62.66 66.43 62.82"/><polygon class="cls-46" points="64.31 64.08 64.31 63.84 64.8 63.55 64.8 63.8 64.31 64.08"/><polygon class="cls-47" points="64.75 63.78 64.35 64.02 64.35 63.86 64.75 63.63 64.75 63.78"/><polygon class="cls-46" points="62.66 65.04 62.66 64.8 63.15 64.51 63.15 64.76 62.66 65.04"/><polygon class="cls-47" points="63.1 64.74 62.7 64.97 62.7 64.81 63.1 64.58 63.1 64.74"/><polygon class="cls-46" points="67.63 66.39 67.63 66.14 68.12 65.86 68.12 66.1 67.63 66.39"/><polygon class="cls-47" points="68.08 66.08 67.67 66.32 67.67 66.16 68.08 65.93 68.08 66.08"/><polygon class="cls-46" points="65.99 67.33 65.99 67.09 66.48 66.8 66.48 67.05 65.99 67.33"/><polygon class="cls-47" points="66.43 67.03 66.03 67.26 66.03 67.11 66.43 66.87 66.43 67.03"/><polygon class="cls-46" points="64.31 68.3 64.31 68.05 64.8 67.77 64.8 68.02 64.31 68.3"/><polygon class="cls-47" points="64.75 68 64.35 68.23 64.35 68.07 64.75 67.84 64.75 68"/><polygon class="cls-46" points="62.66 69.26 62.66 69.01 63.15 68.73 63.15 68.97 62.66 69.26"/><polygon class="cls-47" points="63.1 68.96 62.7 69.19 62.7 69.03 63.1 68.8 63.1 68.96"/><polygon class="cls-46" points="67.63 67.13 67.63 66.88 68.12 66.59 68.12 66.84 67.63 67.13"/><polygon class="cls-47" points="68.08 66.82 67.67 67.06 67.67 66.9 68.08 66.66 68.08 66.82"/><polygon class="cls-46" points="65.99 68.07 65.99 67.82 66.48 67.54 66.48 67.79 65.99 68.07"/><polygon class="cls-47" points="66.43 67.77 66.03 68 66.03 67.84 66.43 67.61 66.43 67.77"/><polygon class="cls-46" points="64.31 69.04 64.31 68.79 64.8 68.51 64.8 68.75 64.31 69.04"/><polygon class="cls-47" points="64.75 68.74 64.35 68.97 64.35 68.81 64.75 68.58 64.75 68.74"/><polygon class="cls-46" points="62.66 70 62.66 69.75 63.15 69.47 63.15 69.71 62.66 70"/><polygon class="cls-47" points="63.1 69.69 62.7 69.93 62.7 69.77 63.1 69.53 63.1 69.69"/><polygon class="cls-46" points="67.63 71.34 67.63 71.09 68.12 70.81 68.12 71.06 67.63 71.34"/><polygon class="cls-47" points="68.08 71.04 67.67 71.27 67.67 71.11 68.08 70.88 68.08 71.04"/><polygon class="cls-46" points="65.99 72.29 65.99 72.04 66.48 71.75 66.48 72 65.99 72.29"/><polygon class="cls-47" points="66.43 71.98 66.03 72.22 66.03 72.06 66.43 71.83 66.43 71.98"/><polygon class="cls-46" points="64.31 73.25 64.31 73 64.8 72.72 64.8 72.97 64.31 73.25"/><polygon class="cls-47" points="64.75 72.95 64.35 73.18 64.35 73.02 64.75 72.79 64.75 72.95"/><polygon class="cls-46" points="62.66 74.21 62.66 73.96 63.15 73.68 63.15 73.93 62.66 74.21"/><polygon class="cls-47" points="63.1 73.91 62.7 74.14 62.7 73.98 63.1 73.75 63.1 73.91"/><polygon class="cls-46" points="59.53 66.85 59.53 66.6 60.02 66.32 60.02 66.57 59.53 66.85"/><polygon class="cls-47" points="59.98 66.55 59.58 66.78 59.58 66.62 59.98 66.39 59.98 66.55"/><polygon class="cls-46" points="57.89 67.8 57.89 67.55 58.38 67.27 58.38 67.51 57.89 67.8"/><polygon class="cls-47" points="58.34 67.5 57.94 67.73 57.94 67.57 58.34 67.34 58.34 67.5"/><polygon class="cls-46" points="56.21 68.76 56.21 68.52 56.7 68.23 56.7 68.48 56.21 68.76"/><polygon class="cls-47" points="56.66 68.46 56.26 68.69 56.26 68.53 56.66 68.3 56.66 68.46"/><polygon class="cls-46" points="54.56 69.72 54.56 69.47 55.05 69.19 55.05 69.44 54.56 69.72"/><polygon class="cls-47" points="55.01 69.42 54.61 69.65 54.61 69.49 55.01 69.26 55.01 69.42"/><polygon class="cls-46" points="59.53 71.07 59.53 70.82 60.02 70.53 60.02 70.78 59.53 71.07"/><polygon class="cls-47" points="59.98 70.76 59.58 71 59.58 70.84 59.98 70.61 59.98 70.76"/><polygon class="cls-46" points="57.89 72.01 57.89 71.77 58.38 71.48 58.38 71.73 57.89 72.01"/><polygon class="cls-47" points="58.34 71.71 57.94 71.94 57.94 71.78 58.34 71.55 58.34 71.71"/><polygon class="cls-46" points="56.21 72.98 56.21 72.73 56.7 72.45 56.7 72.69 56.21 72.98"/><polygon class="cls-47" points="56.66 72.68 56.26 72.91 56.26 72.75 56.66 72.52 56.66 72.68"/><polygon class="cls-46" points="54.56 73.94 54.56 73.69 55.05 73.41 55.05 73.65 54.56 73.94"/><polygon class="cls-47" points="55.01 73.64 54.61 73.87 54.61 73.71 55.01 73.48 55.01 73.64"/><polygon class="cls-46" points="59.53 71.8 59.53 71.56 60.02 71.27 60.02 71.52 59.53 71.8"/><polygon class="cls-47" points="59.98 71.5 59.58 71.73 59.58 71.58 59.98 71.34 59.98 71.5"/><polygon class="cls-46" points="57.89 72.75 57.89 72.5 58.38 72.22 58.38 72.47 57.89 72.75"/><polygon class="cls-47" points="58.34 72.45 57.94 72.68 57.94 72.52 58.34 72.29 58.34 72.45"/><polygon class="cls-46" points="56.21 73.72 56.21 73.47 56.7 73.19 56.7 73.43 56.21 73.72"/><polygon class="cls-47" points="56.66 73.41 56.26 73.65 56.26 73.49 56.66 73.26 56.66 73.41"/><polygon class="cls-46" points="54.56 74.67 54.56 74.43 55.05 74.14 55.05 74.39 54.56 74.67"/><polygon class="cls-47" points="55.01 74.37 54.61 74.61 54.61 74.45 55.01 74.21 55.01 74.37"/><polygon class="cls-46" points="59.53 76.02 59.53 75.77 60.02 75.49 60.02 75.73 59.53 76.02"/><polygon class="cls-47" points="59.98 75.72 59.58 75.95 59.58 75.79 59.98 75.56 59.98 75.72"/><polygon class="cls-46" points="57.89 76.96 57.89 76.72 58.38 76.43 58.38 76.68 57.89 76.96"/><polygon class="cls-47" points="58.34 76.66 57.94 76.89 57.94 76.74 58.34 76.5 58.34 76.66"/><polygon class="cls-46" points="56.21 77.93 56.21 77.68 56.7 77.4 56.7 77.65 56.21 77.93"/><polygon class="cls-47" points="56.66 77.63 56.26 77.86 56.26 77.7 56.66 77.47 56.66 77.63"/><polygon class="cls-46" points="54.56 78.89 54.56 78.64 55.05 78.36 55.05 78.61 54.56 78.89"/><polygon class="cls-47" points="55.01 78.59 54.61 78.82 54.61 78.66 55.01 78.43 55.01 78.59"/><path class="cls-80" d="M87.75,52.38A1.51,1.51,0,0,1,87,53.54c-.4.24-.73.1-.73-.31A1.52,1.52,0,0,1,87,52.07C87.42,51.84,87.75,52,87.75,52.38Z"/><path class="cls-81" d="M87.62,52.42a1.32,1.32,0,0,1-.64,1c-.35.2-.63.08-.63-.27a1.32,1.32,0,0,1,.63-1C87.33,52,87.62,52.07,87.62,52.42Z"/><path class="cls-80" d="M87.75,57.48A1.51,1.51,0,0,1,87,58.64c-.4.24-.73.1-.73-.31A1.55,1.55,0,0,1,87,57.17C87.42,56.94,87.75,57.08,87.75,57.48Z"/><path class="cls-82" d="M87.62,57.52a1.32,1.32,0,0,1-.64,1c-.35.21-.63.09-.63-.26a1.29,1.29,0,0,1,.63-1C87.33,57.05,87.62,57.17,87.62,57.52Z"/><path class="cls-2" d="M26.09,47.58c.3.17.3.45,0,.63a1.25,1.25,0,0,1-1.1,0c-.3-.18-.3-.46,0-.63A1.19,1.19,0,0,1,26.09,47.58ZM66.43,23.66c-.3.17-.3.45,0,.63a1.23,1.23,0,0,0,1.09,0c.3-.18.3-.46,0-.63A1.17,1.17,0,0,0,66.43,23.66ZM46.74,60.13c-.3.18-.3.46,0,.63a1.17,1.17,0,0,0,1.09,0c.3-.17.3-.45,0-.63A1.23,1.23,0,0,0,46.74,60.13ZM88.17,36.21a.33.33,0,0,0,0,.63,1.19,1.19,0,0,0,1.1,0,.33.33,0,0,0,0-.63A1.25,1.25,0,0,0,88.17,36.21Z"/></g></g></g></svg>