<svg id="_0" data-name="0" xmlns="http://www.w3.org/2000/svg" xmlns:xlink="http://www.w3.org/1999/xlink" viewBox="0 0 221.12 155.18"><defs><style>.cls-1{isolation:isolate;}.cls-2{fill:url(#linear-gradient);}.cls-3{fill:url(#linear-gradient-2);}.cls-4{fill:url(#linear-gradient-3);}.cls-5{fill:#89aac2;}</style><linearGradient id="linear-gradient" x1="16.35" y1="105.21" x2="205.58" y2="105.21" gradientUnits="userSpaceOnUse"><stop offset="0" stop-color="#8cb2ce"/><stop offset="0.38" stop-color="#7fa3be"/><stop offset="1" stop-color="#b1d5ef"/></linearGradient><linearGradient id="linear-gradient-2" x1="67.83" y1="24.78" x2="181.88" y2="138.83" gradientUnits="userSpaceOnUse"><stop offset="0.32" stop-color="#c6dff2"/><stop offset="0.33" stop-color="#f4f9fd"/><stop offset="0.73" stop-color="#c6dff2"/><stop offset="1" stop-color="#b7d6ef"/></linearGradient><linearGradient id="linear-gradient-3" x1="152.79" y1="105.36" x2="-27.29" y2="-74.72" gradientUnits="userSpaceOnUse"><stop offset="0" stop-color="#f4f9fd"/><stop offset="0.73" stop-color="#c6dff2"/><stop offset="1" stop-color="#b7d6ef"/></linearGradient></defs><g class="cls-1"><path class="cls-2" d="M179.41,107.1c-38,22.08-99.71,22.08-137.91,0C22.27,96,12.66,81.44,12.7,66.89l0,19.87c0,14.56,9.56,29.13,28.79,40.23,38.21,22.06,99.93,22.06,137.91,0,18.86-11,28.3-25.3,28.34-39.66l.05-19.87C207.7,81.81,198.26,96.15,179.41,107.1Z"/><path class="cls-3" d="M179,27.24C140.75,5.18,79,5.16,41.05,27.22s-37.76,57.84.45,79.9,99.93,22.06,137.91,0S217.16,49.29,179,27.24Z"/><path class="cls-4" d="M168.31,29.05C136,10.41,83.84,10.39,51.76,29s-31.9,48.89.38,67.53,84.45,18.64,116.55,0S200.6,47.69,168.31,29.05Z"/></g><polygon class="cls-5" points="85.84 64.19 90.87 66.23 83.35 72.11 108.03 82.17 102.91 86.17 78.22 76.12 70.68 82.01 65.66 79.96 85.84 64.19"/><polygon class="cls-5" points="107.52 47.25 112.55 49.3 105.03 55.17 129.71 65.23 124.58 69.24 99.9 59.18 92.36 65.07 87.33 63.02 107.52 47.25"/><polygon class="cls-5" points="129.66 29.95 134.69 32 120.99 42.7 127.57 45.39 140.32 35.42 145.33 37.46 132.58 47.43 140.66 50.72 154.85 39.64 159.86 41.68 140.54 56.77 110.83 44.66 129.66 29.95"/></svg>