<svg xmlns="http://www.w3.org/2000/svg" xmlns:xlink="http://www.w3.org/1999/xlink" viewBox="0 0 153.19 166.98"><defs><style>.cls-1{isolation:isolate;}.cls-2{fill:#93b5af;mix-blend-mode:multiply;}.cls-3{fill:url(#linear-gradient);}.cls-4{fill:url(#linear-gradient-2);}.cls-5{fill:url(#linear-gradient-3);}.cls-6{fill:url(#linear-gradient-4);}.cls-7{fill:url(#linear-gradient-5);}.cls-8{fill:url(#linear-gradient-6);}.cls-9{fill:url(#linear-gradient-7);}.cls-10{fill:url(#linear-gradient-8);}.cls-11{fill:url(#linear-gradient-9);}.cls-12{fill:url(#linear-gradient-10);}.cls-13{fill:url(#linear-gradient-11);}.cls-14{fill:url(#linear-gradient-12);}.cls-15{fill:url(#linear-gradient-13);}.cls-16{fill:url(#linear-gradient-14);}.cls-17{fill:url(#linear-gradient-15);}.cls-18{fill:url(#linear-gradient-16);}.cls-19{fill:url(#linear-gradient-17);}.cls-20{fill:url(#linear-gradient-18);}.cls-21{fill:url(#linear-gradient-19);}.cls-22{fill:url(#linear-gradient-20);}.cls-23{fill:url(#linear-gradient-21);}.cls-24{fill:url(#linear-gradient-22);}.cls-25{fill:url(#linear-gradient-23);}.cls-26{fill:url(#linear-gradient-24);}.cls-27{fill:url(#linear-gradient-25);}.cls-28{fill:url(#linear-gradient-26);}.cls-29{fill:url(#linear-gradient-27);}.cls-30{fill:url(#linear-gradient-28);}.cls-31{fill:url(#linear-gradient-29);}.cls-32{fill:url(#linear-gradient-30);}.cls-33{fill:url(#linear-gradient-31);}.cls-34{fill:url(#linear-gradient-32);}.cls-35{fill:url(#linear-gradient-33);}.cls-36{fill:url(#linear-gradient-34);}.cls-37{fill:url(#linear-gradient-35);}</style><linearGradient id="linear-gradient" x1="17.42" y1="41.09" x2="17.42" y2="47.97" gradientTransform="matrix(0.87, -0.5, 0, 1.15, 25.48, 74.94)" gradientUnits="userSpaceOnUse"><stop offset="0" stop-color="#303469"/><stop offset="1" stop-color="#2f356a"/></linearGradient><linearGradient id="linear-gradient-2" x1="38.29" y1="46.48" x2="38.29" y2="124.83" gradientUnits="userSpaceOnUse"><stop offset="0" stop-color="#27326c"/><stop offset="0.4" stop-color="#2d396f"/><stop offset="0.97" stop-color="#3f4b77"/><stop offset="1" stop-color="#404c78"/></linearGradient><linearGradient id="linear-gradient-3" x1="40.37" y1="1359.9" x2="40.37" y2="1782.42" gradientTransform="matrix(1, 0, 0, -0.15, 0, 315.39)" xlink:href="#linear-gradient"/><linearGradient id="linear-gradient-4" x1="15.36" y1="164.36" x2="10.35" y2="170.89" gradientTransform="matrix(0.87, 0.5, 0, 1.15, 27.61, -150.77)" gradientUnits="userSpaceOnUse"><stop offset="0" stop-color="#334379"/><stop offset="0.67" stop-color="#484b7c"/><stop offset="1" stop-color="#54507d"/></linearGradient><linearGradient id="linear-gradient-5" x1="48.53" y1="41.04" x2="48.53" y2="47.91" xlink:href="#linear-gradient"/><linearGradient id="linear-gradient-6" x1="65.23" y1="30.87" x2="65.23" y2="109.22" xlink:href="#linear-gradient-2"/><linearGradient id="linear-gradient-7" x1="67.31" y1="1465.49" x2="67.31" y2="1888" gradientTransform="matrix(1, 0, 0, -0.15, 0, 315.39)" xlink:href="#linear-gradient"/><linearGradient id="linear-gradient-8" x1="46.47" y1="137.37" x2="41.46" y2="143.89" xlink:href="#linear-gradient-4"/><linearGradient id="linear-gradient-9" x1="79.66" y1="41.1" x2="79.66" y2="47.97" xlink:href="#linear-gradient"/><linearGradient id="linear-gradient-10" x1="92.19" y1="15.37" x2="92.19" y2="93.71" xlink:href="#linear-gradient-2"/><linearGradient id="linear-gradient-11" x1="94.27" y1="1570.3" x2="94.27" y2="1992.81" gradientTransform="matrix(1, 0, 0, -0.15, 0, 315.39)" xlink:href="#linear-gradient"/><linearGradient id="linear-gradient-12" x1="77.6" y1="110.46" x2="72.59" y2="116.99" xlink:href="#linear-gradient-4"/><linearGradient id="linear-gradient-13" x1="35.94" y1="127.26" x2="87.6" y2="160.24" gradientUnits="userSpaceOnUse"><stop offset="0" stop-color="#334379"/><stop offset="0.32" stop-color="#36457a"/><stop offset="0.61" stop-color="#414b7e"/><stop offset="0.88" stop-color="#535485"/><stop offset="1" stop-color="#5e5a89"/></linearGradient><linearGradient id="linear-gradient-14" x1="96.34" y1="86.28" x2="63.1" y2="124.18" gradientTransform="matrix(0.87, -0.5, 0, 1.15, 18.77, 40.6)" gradientUnits="userSpaceOnUse"><stop offset="0" stop-color="#6eb0a8"/><stop offset="0" stop-color="#6eb1a9"/><stop offset="0.1" stop-color="#72b9b1"/><stop offset="0.24" stop-color="#73bcb3"/><stop offset="0.41" stop-color="#6babab"/><stop offset="0.74" stop-color="#558097"/><stop offset="0.87" stop-color="#4c6e8f"/><stop offset="1" stop-color="#557796"/></linearGradient><linearGradient id="linear-gradient-15" x1="116.86" y1="111.02" x2="96.71" y2="145.94" gradientTransform="matrix(0.87, -0.5, 0, 1.15, 18.77, 40.6)" gradientUnits="userSpaceOnUse"><stop offset="0" stop-color="#9dd4c6"/><stop offset="0.08" stop-color="#90c4bd"/><stop offset="0.36" stop-color="#6a95a4"/><stop offset="0.57" stop-color="#527894"/><stop offset="0.69" stop-color="#496d8e"/><stop offset="1" stop-color="#7eb1a0"/></linearGradient><linearGradient id="linear-gradient-16" x1="116.28" y1="112.23" x2="97.15" y2="145.35" gradientTransform="matrix(0.87, -0.5, 0, 1.15, 18.77, 40.6)" gradientUnits="userSpaceOnUse"><stop offset="0" stop-color="#303469"/><stop offset="0.43" stop-color="#343b6d"/><stop offset="1" stop-color="#404c78"/></linearGradient><linearGradient id="linear-gradient-17" x1="111.37" y1="63.08" x2="109.94" y2="65.56" gradientTransform="matrix(0.87, -0.5, 0, 1.15, 41.26, 103.47)" gradientUnits="userSpaceOnUse"><stop offset="0" stop-color="#71baaa"/><stop offset="0.61" stop-color="#53aba6"/><stop offset="1" stop-color="#45a4a4"/></linearGradient><linearGradient id="linear-gradient-18" x1="111.01" y1="63.7" x2="110.3" y2="64.94" gradientTransform="matrix(0.87, -0.5, 0, 1.15, 41.26, 103.47)" xlink:href="#linear-gradient-16"/><linearGradient id="linear-gradient-19" x1="106.52" y1="63.08" x2="105.09" y2="65.56" xlink:href="#linear-gradient-17"/><linearGradient id="linear-gradient-20" x1="106.16" y1="63.7" x2="105.45" y2="64.94" gradientTransform="matrix(0.87, -0.5, 0, 1.15, 41.26, 103.47)" xlink:href="#linear-gradient-16"/><linearGradient id="linear-gradient-21" x1="101.67" y1="63.08" x2="100.24" y2="65.56" xlink:href="#linear-gradient-17"/><linearGradient id="linear-gradient-22" x1="101.32" y1="63.7" x2="100.6" y2="64.94" gradientTransform="matrix(0.87, -0.5, 0, 1.15, 41.26, 103.47)" xlink:href="#linear-gradient-16"/><linearGradient id="linear-gradient-23" x1="96.83" y1="63.08" x2="95.4" y2="65.56" xlink:href="#linear-gradient-17"/><linearGradient id="linear-gradient-24" x1="96.47" y1="63.7" x2="95.75" y2="64.94" gradientTransform="matrix(0.87, -0.5, 0, 1.15, 41.26, 103.47)" xlink:href="#linear-gradient-16"/><linearGradient id="linear-gradient-25" x1="91.98" y1="63.08" x2="90.55" y2="65.56" xlink:href="#linear-gradient-17"/><linearGradient id="linear-gradient-26" x1="91.62" y1="63.7" x2="90.91" y2="64.94" gradientTransform="matrix(0.87, -0.5, 0, 1.15, 41.26, 103.47)" xlink:href="#linear-gradient-16"/><linearGradient id="linear-gradient-27" x1="87.13" y1="63.08" x2="85.7" y2="65.56" xlink:href="#linear-gradient-17"/><linearGradient id="linear-gradient-28" x1="86.77" y1="63.7" x2="86.06" y2="64.94" gradientTransform="matrix(0.87, -0.5, 0, 1.15, 41.26, 103.47)" xlink:href="#linear-gradient-16"/><linearGradient id="linear-gradient-29" x1="82.28" y1="63.08" x2="80.85" y2="65.56" xlink:href="#linear-gradient-17"/><linearGradient id="linear-gradient-30" x1="81.93" y1="63.7" x2="81.21" y2="64.94" gradientTransform="matrix(0.87, -0.5, 0, 1.15, 41.26, 103.47)" xlink:href="#linear-gradient-16"/><linearGradient id="linear-gradient-31" x1="55.4" y1="63.51" x2="61.06" y2="63.51" xlink:href="#linear-gradient-17"/><linearGradient id="linear-gradient-32" x1="56.47" y1="64.63" x2="59.99" y2="64.63" xlink:href="#linear-gradient-17"/><linearGradient id="linear-gradient-33" x1="57.55" y1="65.73" x2="58.92" y2="65.73" xlink:href="#linear-gradient-17"/><linearGradient id="linear-gradient-34" x1="50.13" y1="64.58" x2="53.85" y2="64.58" xlink:href="#linear-gradient-17"/><linearGradient id="linear-gradient-35" x1="51.68" y1="63.51" x2="52.3" y2="63.51" xlink:href="#linear-gradient-17"/></defs><g class="cls-1"><g id="图层_1" data-name="图层 1"><g id="router_1"><path class="cls-2" d="M90.92,91.72a18.61,18.61,0,0,0-2,.73L69.51,81.31s-1-.57-2.72.43S66,83.31,66,83.31L85,94.19c-4.67,2.2-12.68,6.31-25.87,13.89L41.08,97.72s-1-.57-2.73.44-.74,1.57-.74,1.57l18.06,10.35c-13.12,7.62-20.23,12.24-24,14.94l-19-10.88s-1-.57-2.73.43-.75,1.57-.75,1.57l19.44,11.14a9.6,9.6,0,0,0-1.26,1.15l49,28.51h7l54.07-38.33Z"/><polygon class="cls-3" points="41.74 120.94 39.39 122.3 39.94 114.05 41.19 113.33 41.74 120.94"/><path class="cls-4" d="M39.94,114.26l-.55,8-4,2.53,1.33-12.35s-1.33-64.37-1.33-64.87.82-1.13.82-1.13L41,51.77l.22.64-1.25.72Z"/><polygon class="cls-5" points="39.94 53.13 39.56 52.6 40.97 51.77 41.19 52.41 41.19 113.54 39.94 114.26 39.94 53.13"/><path class="cls-6" d="M36.21,46.48l1.36-.78a.84.84,0,0,1,1.22.47L41,51.77a.84.84,0,0,1-1.48.75L36,47.71A.84.84,0,0,1,36.21,46.48Z"/><polygon class="cls-7" points="68.68 105.32 66.33 106.68 66.88 98.43 68.13 97.71 68.68 105.32"/><path class="cls-8" d="M66.88,98.64l-.55,8-4,2.54,1.33-12.36S62.33,32.49,62.33,32s.82-1.12.82-1.12l4.75,5.28.23.64-1.25.72Z"/><polygon class="cls-9" points="66.88 37.51 66.5 36.99 67.91 36.15 68.13 36.79 68.13 97.92 66.88 98.64 66.88 37.51"/><path class="cls-10" d="M63.15,30.87l1.36-.79a.85.85,0,0,1,1.22.47l2.17,5.6a.84.84,0,0,1-1.47.76l-3.54-4.82A.83.83,0,0,1,63.15,30.87Z"/><polygon class="cls-11" points="95.64 89.82 93.29 91.18 93.84 82.93 95.09 82.21 95.64 89.82"/><path class="cls-12" d="M93.84,83.14l-.55,8-4,2.53,1.33-12.35S89.29,17,89.29,16.49s.82-1.12.82-1.12l4.75,5.28.23.64L93.84,22Z"/><polygon class="cls-13" points="93.84 22.01 93.46 21.49 94.86 20.65 95.09 21.29 95.09 82.42 93.84 83.14 93.84 22.01"/><path class="cls-14" d="M90.11,15.37l1.36-.79a.85.85,0,0,1,1.22.47l2.17,5.6a.84.84,0,0,1-1.47.76l-3.54-4.82A.83.83,0,0,1,90.11,15.37Z"/><path class="cls-15" d="M33.69,125.59h0s0,3.15,1.87,4.37h0l.1.06.11.06,45.57,26.38-1.87-4.38S33.71,125.57,33.69,125.59Z"/><path class="cls-16" d="M143.8,115,79.47,152.09l-45.78-26.5s10-7.14,32.17-19.92S98,88.44,98,88.44Z"/><path class="cls-17" d="M136.57,126.92,86.7,155.71c-7.23,4.18-7.23-3.62-7.23-3.62s10-7.14,32.16-19.92S143.8,115,143.8,115A14.69,14.69,0,0,1,136.57,126.92Z"/><path class="cls-18" d="M83,156c-2,0-2.47-2.38-2.56-3.42,2.13-1.48,12.31-8.4,31.66-19.58,17.11-9.87,27-14.79,30.58-16.47a13.5,13.5,0,0,1-6.6,9.57L86.22,154.88A6.86,6.86,0,0,1,83,156Z"/><path class="cls-19" d="M138.46,121.62a3,3,0,0,1-1.37,2.38c-.76.44-1.37.08-1.37-.79a3,3,0,0,1,1.37-2.38C137.85,120.39,138.46,120.75,138.46,121.62Z"/><path class="cls-20" d="M136.59,123.21a2.16,2.16,0,0,1,.94-1.62l.06,0v.06a2.16,2.16,0,0,1-.94,1.62.09.09,0,0,1-.06,0Z"/><path class="cls-21" d="M134.27,124.05a3.05,3.05,0,0,1-1.38,2.38c-.76.43-1.37.08-1.37-.8a3,3,0,0,1,1.37-2.38C133.65,122.82,134.27,123.17,134.27,124.05Z"/><path class="cls-22" d="M132.39,125.63a2.18,2.18,0,0,1,.94-1.62l.06,0v.07a2.2,2.2,0,0,1-.94,1.62l0,0S132.39,125.66,132.39,125.63Z"/><path class="cls-23" d="M130.07,126.47a3,3,0,0,1-1.38,2.38c-.75.44-1.37.08-1.37-.79a3,3,0,0,1,1.37-2.38C129.45,125.24,130.07,125.59,130.07,126.47Z"/><path class="cls-24" d="M128.2,128.06a2.19,2.19,0,0,1,.93-1.63l.06,0v.07a2.15,2.15,0,0,1-.93,1.62l-.06,0Z"/><path class="cls-25" d="M125.87,128.89a3,3,0,0,1-1.37,2.38c-.76.44-1.38.09-1.38-.79a3,3,0,0,1,1.38-2.38C125.26,127.66,125.87,128,125.87,128.89Z"/><path class="cls-26" d="M124,130.48a2.15,2.15,0,0,1,.93-1.62l.06,0s0,0,0,.06a2.16,2.16,0,0,1-.94,1.62l-.06,0Z"/><path class="cls-27" d="M121.67,131.32a3,3,0,0,1-1.37,2.38c-.76.43-1.37.08-1.37-.8a3,3,0,0,1,1.37-2.38C121.06,130.09,121.67,130.44,121.67,131.32Z"/><path class="cls-28" d="M119.8,132.9a2.2,2.2,0,0,1,.94-1.62l.05,0a.15.15,0,0,1,0,.07,2.18,2.18,0,0,1-.94,1.62l-.06,0Z"/><path class="cls-29" d="M117.47,133.74a3,3,0,0,1-1.37,2.38c-.76.44-1.37.08-1.37-.79A3,3,0,0,1,116.1,133C116.86,132.51,117.47,132.86,117.47,133.74Z"/><path class="cls-30" d="M115.6,135.33a2.16,2.16,0,0,1,.94-1.62.09.09,0,0,1,.06,0v.06a2.16,2.16,0,0,1-.94,1.62l0,0A.13.13,0,0,1,115.6,135.33Z"/><path class="cls-31" d="M113.28,136.16a3,3,0,0,1-1.38,2.38c-.76.44-1.37.09-1.37-.79a3,3,0,0,1,1.37-2.38C112.66,134.93,113.28,135.29,113.28,136.16Z"/><path class="cls-32" d="M111.4,137.75a2.18,2.18,0,0,1,.94-1.62l.06,0v.06a2.19,2.19,0,0,1-.93,1.63l-.06,0S111.4,137.77,111.4,137.75Z"/><path class="cls-33" d="M89.84,149.69l-.6-.34c1.3-2.31,3.59-3.64,4.9-2.84-.2.35-.41.7-.6,1C92.3,147.11,91.07,147.83,89.84,149.69Z"/><path class="cls-34" d="M93.21,148.12l-.6,1c-.61-.22-1.23.14-1.84,1.07l-.61-.35C90.92,148.48,92.43,147.58,93.21,148.12Z"/><path class="cls-35" d="M92.29,149.71c-.2.36-.4.7-.59,1l-.6-.34C91.35,149.88,92,149.52,92.29,149.71Z"/><path class="cls-36" d="M87.9,150.93a3.18,3.18,0,0,1-.37,1.44,3.91,3.91,0,0,1-.66.93,2.47,2.47,0,0,1-.78.56,1.17,1.17,0,0,1-.83.07.86.86,0,0,1-.48-.49,1.77,1.77,0,0,1-.1-.79,3.3,3.3,0,0,1,.36-1.23,3.88,3.88,0,0,1,.3-.48c.09-.12.19-.18.28-.16s.14.09.13.23a.72.72,0,0,1-.12.29,2.29,2.29,0,0,0-.3.58,1.92,1.92,0,0,0-.12.68.79.79,0,0,0,.24.6.53.53,0,0,0,.35.12,1,1,0,0,0,.58-.2,1.83,1.83,0,0,0,.43-.41,2.36,2.36,0,0,0,.28-.42,2,2,0,0,0,.21-.55,1.37,1.37,0,0,0,0-.66.67.67,0,0,0-.26-.44l-.17-.08c-.1-.05-.11-.23,0-.41s.25-.3.38-.26a.85.85,0,0,1,.5.45,1.29,1.29,0,0,1,.12.42C87.89,150.8,87.9,150.89,87.9,150.93Z"/><path class="cls-37" d="M86.56,150.66v.75a.54.54,0,0,1,0,.2c-.1.24-.31.38-.43.3a.21.21,0,0,1-.07-.18V150.2a.58.58,0,0,1,.3-.49.15.15,0,0,1,.23.14s0,.05,0,.08Z"/></g></g></g></svg>