<svg xmlns="http://www.w3.org/2000/svg" viewBox="0 0 841.89 595.28"><defs><style>.cls-1{fill:#bfe4ed;}.cls-2{fill:#65bcda;}.cls-3{fill:#fff;}.cls-4{fill:#050000;}.cls-5{fill:#f0e7ed;}.cls-6{fill:#75bfaf;}.cls-7{fill:#d6d9d9;}.cls-8{fill:#6bb7cd;}.cls-9{fill:#7abed6;}.cls-10{fill:#c2e1e9;}.cls-11{fill:#ebedf1;}.cls-12{fill:#73bcc3;}.cls-13{fill:#61b2cf;}.cls-14{fill:#d9edf6;}.cls-15{fill:#040000;}.cls-16{font-size:12px;fill:#231815;font-family:SimHei;}.cls-17,.cls-18{fill:#5ab86a;}.cls-17,.cls-19,.cls-21,.cls-23,.cls-25{stroke:#050101;stroke-miterlimit:10;}.cls-19,.cls-20{fill:#7f6db0;}.cls-21,.cls-22{fill:#5588c7;}.cls-23{fill:#ea5452;}.cls-24{fill:none;stroke:#ea5452;stroke-linecap:round;stroke-linejoin:round;stroke-width:3px;}.cls-25,.cls-26{fill:#efca32;}</style></defs><g id="计算"><rect class="cls-1" x="136.29" y="111.44" width="41.44" height="19.01" rx="9.48"/><rect class="cls-1" x="74.24" y="95.3" width="29.9" height="19.01" rx="9.48"/><rect class="cls-1" x="82.57" y="151.05" width="41.44" height="19.01" rx="9.48"/><path class="cls-2" d="M100.24,136.55a8.94,8.94,0,0,1-.5-17.86,7.74,7.74,0,0,1-.14-1.54A8.94,8.94,0,0,1,112.26,109a14.38,14.38,0,0,1,28.43.28,9,9,0,0,1,13.1,9.42,8.14,8.14,0,0,1,1-.06,8.95,8.95,0,0,1,0,17.89Z"/><rect class="cls-3" x="99.54" y="124.71" width="15.41" height="27.85" rx="0.94"/><rect class="cls-2" x="105.48" y="123.41" width="3.54" height="10.81" transform="translate(236.06 21.57) rotate(90)"/><rect class="cls-2" x="105.48" y="129.61" width="3.54" height="10.81" transform="translate(242.26 27.77) rotate(90)"/><rect class="cls-2" x="105.48" y="135.81" width="3.54" height="10.81" transform="translate(248.46 33.97) rotate(90)"/><rect class="cls-3" x="119.8" y="128.16" width="15.41" height="27.85" rx="0.94"/><rect class="cls-2" x="125.74" y="126.86" width="3.54" height="10.81" transform="translate(259.78 4.76) rotate(90)"/><rect class="cls-2" x="125.74" y="133.06" width="3.54" height="10.81" transform="translate(265.98 10.96) rotate(90)"/><rect class="cls-2" x="125.74" y="139.26" width="3.54" height="10.81" transform="translate(272.17 17.15) rotate(90)"/><rect class="cls-3" x="140.07" y="124.71" width="15.41" height="27.85" rx="0.94"/><rect class="cls-2" x="146.01" y="123.41" width="3.54" height="10.81" transform="translate(276.59 -18.96) rotate(90)"/><rect class="cls-2" x="146.01" y="129.61" width="3.54" height="10.81" transform="translate(282.79 -12.76) rotate(90)"/><rect class="cls-2" x="146.01" y="135.81" width="3.54" height="10.81" transform="translate(288.99 -6.56) rotate(90)"/><path class="cls-2" d="M107.25,145a2.63,2.63,0,1,0,2.62,2.63A2.63,2.63,0,0,0,107.25,145Z"/><path class="cls-2" d="M127.51,148.42a2.63,2.63,0,1,0,2.63,2.63A2.63,2.63,0,0,0,127.51,148.42Z"/><path class="cls-2" d="M147.78,145a2.63,2.63,0,1,0,2.62,2.63A2.63,2.63,0,0,0,147.78,145Z"/><rect class="cls-3" x="124.44" y="162.82" width="6.14" height="6.14"/><rect class="cls-3" x="144.71" y="162.82" width="6.14" height="6.14"/><rect class="cls-3" x="104.18" y="162.82" width="6.14" height="6.14"/><path class="cls-4" d="M161.89,165.32H151.42v-2.5a.57.57,0,0,0-.57-.57h-2.5v-9.11h6.19a1.52,1.52,0,0,0,1.52-1.52v-14a10.1,10.1,0,0,0-1-20.12v-.35A10.1,10.1,0,0,0,145,107.06a10.33,10.33,0,0,0-3.44.6,15.59,15.59,0,0,0-15.08-11.85,15.43,15.43,0,0,0-15,11.66,10.11,10.11,0,0,0-13,9.69c0,.17,0,.35,0,.53a10.09,10.09,0,0,0,.5,19.94v14a1.52,1.52,0,0,0,1.52,1.52h6.19v9.11h-2.5a.57.57,0,0,0-.57.57v2.5H93.13a.56.56,0,0,0-.57.57.58.58,0,0,0,.57.58H103.6V169a.59.59,0,0,0,.57.58h6.14a.59.59,0,0,0,.58-.58v-2.49h13V169a.58.58,0,0,0,.58.58h6.12a.58.58,0,0,0,.58-.58v-2.49h13V169a.59.59,0,0,0,.58.58h6.14a.59.59,0,0,0,.57-.58v-2.49h10.47a.58.58,0,0,0,.57-.58A.56.56,0,0,0,161.89,165.32Zm-7-13.7a.37.37,0,0,1-.37.37H141a.37.37,0,0,1-.37-.37v-26a.36.36,0,0,1,.37-.36h13.52a.36.36,0,0,1,.37.36Zm-62.47-24a7.76,7.76,0,0,1,7.35-7.76,1.17,1.17,0,0,0,.85-.44,1.12,1.12,0,0,0,.22-.93,7.45,7.45,0,0,1-.11-1.31,7.81,7.81,0,0,1,7.8-7.8,7.71,7.71,0,0,1,3.22.7,1.16,1.16,0,0,0,1,0,1.09,1.09,0,0,0,.59-.83,13.24,13.24,0,0,1,26.17.26,1.14,1.14,0,0,0,1.69.85,7.79,7.79,0,0,1,11.52,6.85,7,7,0,0,1-.12,1.34,1.17,1.17,0,0,0,1.28,1.36,6.11,6.11,0,0,1,.86,0,7.79,7.79,0,0,1,1.27,15.48v-9.64a1.52,1.52,0,0,0-1.52-1.51H141a1.52,1.52,0,0,0-1.52,1.51v9.76h-3.7V129.1a1.51,1.51,0,0,0-1.52-1.51H120.74a1.52,1.52,0,0,0-1.52,1.51v6.31h-3.7v-9.76a1.51,1.51,0,0,0-1.5-1.51H100.48A1.52,1.52,0,0,0,99,125.65v9.64A7.8,7.8,0,0,1,92.44,127.6Zm28.3,27.84a.38.38,0,0,1-.37-.37v-26a.37.37,0,0,1,.37-.36h13.54a.37.37,0,0,1,.37.36v26a.38.38,0,0,1-.37.37Zm-20.63-3.82v-26a.36.36,0,0,1,.37-.36H114a.36.36,0,0,1,.35.36v26a.37.37,0,0,1-.35.37H100.48A.37.37,0,0,1,100.11,151.62Zm9.63,16.77h-5v-5h5Zm1.15-3.07v-2.5a.57.57,0,0,0-.58-.57h-2.49v-9.11H114a1.52,1.52,0,0,0,1.5-1.52V137.71h3.7v17.36a1.53,1.53,0,0,0,1.52,1.52h6.2v5.66h-2.49a.57.57,0,0,0-.58.57v2.5ZM130,168.39h-5v-5h5Zm1.15-3.07v-2.5a.57.57,0,0,0-.58-.57h-2.48v-5.66h6.19a1.52,1.52,0,0,0,1.52-1.52V137.71h3.7v13.91a1.52,1.52,0,0,0,1.52,1.52h6.18v9.11h-2.49a.57.57,0,0,0-.58.57v2.5Zm19.12,3.07h-5v-5h5Z"/><path class="cls-5" d="M155.48,89.06a3.95,3.95,0,1,0,4,4A4,4,0,0,0,155.48,89.06Z"/><path class="cls-6" d="M80.74,133a1.72,1.72,0,1,0,1.72,1.72A1.71,1.71,0,0,0,80.74,133Z"/><path class="cls-6" d="M172.83,144.72a1.72,1.72,0,1,0,1.71,1.71A1.71,1.71,0,0,0,172.83,144.72Z"/><path class="cls-6" d="M91.29,174.35A1.72,1.72,0,1,0,93,176.07,1.72,1.72,0,0,0,91.29,174.35Z"/><path class="cls-2" d="M159,168.48a2.94,2.94,0,1,0,2.94,2.93A2.93,2.93,0,0,0,159,168.48Z"/><rect class="cls-1" x="299.25" y="111.44" width="41.44" height="19.01" rx="9.48"/><rect class="cls-1" x="237.2" y="95.3" width="29.9" height="19.01" rx="9.48"/><rect class="cls-1" x="245.52" y="151.05" width="41.44" height="19.01" rx="9.48"/><path class="cls-2" d="M263.2,136.55a8.94,8.94,0,0,1-.51-17.86,8.57,8.57,0,0,1-.13-1.54,9,9,0,0,1,8.95-8.94,8.82,8.82,0,0,1,3.7.81,14.39,14.39,0,0,1,28.44.28,8.95,8.95,0,0,1,13.23,7.85,8.19,8.19,0,0,1-.14,1.57,8.43,8.43,0,0,1,1-.06,8.95,8.95,0,0,1,0,17.89Z"/><rect class="cls-3" x="262.5" y="124.71" width="15.41" height="27.85" rx="0.94"/><rect class="cls-2" x="268.43" y="123.41" width="3.54" height="10.81" transform="translate(399.02 -141.38) rotate(90)"/><rect class="cls-2" x="268.43" y="129.61" width="3.54" height="10.81" transform="translate(405.22 -135.19) rotate(90)"/><rect class="cls-2" x="268.43" y="135.81" width="3.54" height="10.81" transform="translate(411.42 -128.99) rotate(90)"/><rect class="cls-3" x="282.76" y="128.16" width="15.41" height="27.85" rx="0.94"/><rect class="cls-2" x="288.7" y="126.86" width="3.54" height="10.81" transform="translate(422.74 -158.2) rotate(90)"/><rect class="cls-2" x="288.7" y="133.06" width="3.54" height="10.81" transform="translate(428.93 -152) rotate(90)"/><rect class="cls-2" x="288.7" y="139.26" width="3.54" height="10.81" transform="translate(435.13 -145.81) rotate(90)"/><rect class="cls-3" x="303.03" y="124.71" width="15.41" height="27.85" rx="0.94"/><rect class="cls-2" x="308.96" y="123.41" width="3.54" height="10.81" transform="translate(439.55 -181.91) rotate(90)"/><rect class="cls-2" x="308.96" y="129.61" width="3.54" height="10.81" transform="translate(445.75 -175.72) rotate(90)"/><rect class="cls-2" x="308.96" y="135.81" width="3.54" height="10.81" transform="translate(451.95 -169.52) rotate(90)"/><path class="cls-2" d="M270.2,145a2.63,2.63,0,1,0,2.63,2.63A2.62,2.62,0,0,0,270.2,145Z"/><path class="cls-2" d="M290.47,148.42a2.63,2.63,0,1,0,2.63,2.63A2.63,2.63,0,0,0,290.47,148.42Z"/><path class="cls-2" d="M310.73,145a2.63,2.63,0,1,0,2.63,2.63A2.62,2.62,0,0,0,310.73,145Z"/><rect class="cls-3" x="287.4" y="162.82" width="6.14" height="6.14"/><rect class="cls-3" x="307.66" y="162.82" width="6.14" height="6.14"/><rect class="cls-3" x="267.13" y="162.82" width="6.14" height="6.14"/><path class="cls-4" d="M324.84,165.32H314.38v-2.5a.57.57,0,0,0-.57-.57h-2.5v-9.11h6.19a1.51,1.51,0,0,0,1.51-1.52v-14a10.1,10.1,0,0,0-1-20.12v-.35a10.1,10.1,0,0,0-10.09-10.1,10.33,10.33,0,0,0-3.44.6,15.54,15.54,0,0,0-30.14-.19,10.11,10.11,0,0,0-13,9.69c0,.17,0,.35,0,.53a10.09,10.09,0,0,0,.51,19.94v14a1.52,1.52,0,0,0,1.52,1.52h6.19v9.11h-2.5a.57.57,0,0,0-.57.57v2.5H256.09a.56.56,0,0,0-.57.57.58.58,0,0,0,.57.58h10.47V169a.59.59,0,0,0,.57.58h6.14a.59.59,0,0,0,.58-.58v-2.49h13V169a.58.58,0,0,0,.57.58h6.13a.59.59,0,0,0,.58-.58v-2.49h13V169a.58.58,0,0,0,.58.58h6.14a.59.59,0,0,0,.57-.58v-2.49h10.46a.58.58,0,0,0,.58-.58A.57.57,0,0,0,324.84,165.32Zm-7-13.7a.37.37,0,0,1-.36.37H304a.37.37,0,0,1-.36-.37v-26a.36.36,0,0,1,.36-.36H317.5a.36.36,0,0,1,.36.36Zm-62.46-24a7.76,7.76,0,0,1,7.35-7.76,1.19,1.19,0,0,0,.85-.44,1.12,1.12,0,0,0,.22-.93,7.4,7.4,0,0,1-.12-1.31,7.82,7.82,0,0,1,7.81-7.8,7.71,7.71,0,0,1,3.22.7,1.14,1.14,0,0,0,1,0,1.1,1.1,0,0,0,.6-.83,13.23,13.23,0,0,1,26.16.26,1.21,1.21,0,0,0,.62.88,1.16,1.16,0,0,0,1.07,0,7.8,7.8,0,0,1,11.53,6.85,7,7,0,0,1-.12,1.34,1.17,1.17,0,0,0,1.28,1.36,6,6,0,0,1,.86,0A7.79,7.79,0,0,1,319,135.29v-9.64a1.51,1.51,0,0,0-1.51-1.51H304a1.51,1.51,0,0,0-1.51,1.51v9.76h-3.71V129.1a1.51,1.51,0,0,0-1.51-1.51H283.7a1.52,1.52,0,0,0-1.52,1.51v6.31h-3.7v-9.76a1.52,1.52,0,0,0-1.51-1.51H263.44a1.52,1.52,0,0,0-1.52,1.51v9.64A7.8,7.8,0,0,1,255.4,127.6Zm28.3,27.84a.38.38,0,0,1-.37-.37v-26a.37.37,0,0,1,.37-.36h13.54a.36.36,0,0,1,.36.36v26a.37.37,0,0,1-.36.37Zm-20.63-3.82v-26a.36.36,0,0,1,.37-.36H277a.36.36,0,0,1,.36.36v26a.37.37,0,0,1-.36.37H263.44A.37.37,0,0,1,263.07,151.62Zm9.63,16.77h-5v-5h5Zm1.15-3.07v-2.5a.57.57,0,0,0-.58-.57h-2.49v-9.11H277a1.52,1.52,0,0,0,1.51-1.52V137.71h3.7v17.36a1.53,1.53,0,0,0,1.52,1.52h6.19v5.66H287.4a.56.56,0,0,0-.57.57v2.5ZM293,168.39h-5v-5h5Zm1.15-3.07v-2.5a.57.57,0,0,0-.58-.57H291v-5.66h6.2a1.52,1.52,0,0,0,1.51-1.52V137.71h3.71v13.91a1.51,1.51,0,0,0,1.51,1.52h6.19v9.11h-2.49a.57.57,0,0,0-.58.57v2.5Zm19.12,3.07h-5v-5h5Z"/><path class="cls-5" d="M318.44,89.06a3.95,3.95,0,1,0,3.95,4A4,4,0,0,0,318.44,89.06Z"/><path class="cls-6" d="M243.7,133a1.72,1.72,0,1,0,1.72,1.72A1.72,1.72,0,0,0,243.7,133Z"/><path class="cls-6" d="M335.79,144.72a1.72,1.72,0,1,0,1.71,1.71A1.71,1.71,0,0,0,335.79,144.72Z"/><path class="cls-6" d="M254.25,174.35a1.72,1.72,0,1,0,1.71,1.72A1.72,1.72,0,0,0,254.25,174.35Z"/><path class="cls-2" d="M321.91,168.48a2.94,2.94,0,1,0,2.94,2.93A2.94,2.94,0,0,0,321.91,168.48Z"/><rect class="cls-1" x="462.21" y="111.44" width="41.44" height="19.01" rx="9.48"/><rect class="cls-1" x="400.16" y="95.3" width="29.9" height="19.01" rx="9.48"/><rect class="cls-1" x="408.48" y="151.05" width="41.44" height="19.01" rx="9.48"/><path class="cls-2" d="M426.16,136.55a8.94,8.94,0,0,1-.51-17.86,8.56,8.56,0,0,1-.14-1.54,9,9,0,0,1,9-8.94,8.82,8.82,0,0,1,3.7.81,14.39,14.39,0,0,1,28.44.28,8.95,8.95,0,0,1,13.23,7.85,8.19,8.19,0,0,1-.14,1.57,8.43,8.43,0,0,1,1-.06,8.95,8.95,0,0,1,0,17.89Z"/><rect class="cls-3" x="425.45" y="124.71" width="15.41" height="27.85" rx="0.94"/><rect class="cls-2" x="431.39" y="123.41" width="3.54" height="10.81" transform="translate(561.98 -304.34) rotate(90)"/><rect class="cls-2" x="431.39" y="129.61" width="3.54" height="10.81" transform="translate(568.18 -298.15) rotate(90)"/><rect class="cls-2" x="431.39" y="135.81" width="3.54" height="10.81" transform="translate(574.37 -291.95) rotate(90)"/><rect class="cls-3" x="445.72" y="128.16" width="15.41" height="27.85" rx="0.94"/><rect class="cls-2" x="451.66" y="126.86" width="3.54" height="10.81" transform="translate(585.69 -321.16) rotate(90)"/><rect class="cls-2" x="451.66" y="133.06" width="3.54" height="10.81" transform="translate(591.89 -314.96) rotate(90)"/><rect class="cls-2" x="451.66" y="139.26" width="3.54" height="10.81" transform="translate(598.09 -308.76) rotate(90)"/><rect class="cls-3" x="465.98" y="124.71" width="15.41" height="27.85" rx="0.94"/><rect class="cls-2" x="471.92" y="123.41" width="3.54" height="10.81" transform="translate(602.51 -344.87) rotate(90)"/><rect class="cls-2" x="471.92" y="129.61" width="3.54" height="10.81" transform="translate(608.71 -338.68) rotate(90)"/><rect class="cls-2" x="471.92" y="135.81" width="3.54" height="10.81" transform="translate(614.9 -332.48) rotate(90)"/><path class="cls-2" d="M433.16,145a2.63,2.63,0,1,0,2.63,2.63A2.63,2.63,0,0,0,433.16,145Z"/><path class="cls-2" d="M453.43,148.42a2.63,2.63,0,1,0,2.62,2.63A2.63,2.63,0,0,0,453.43,148.42Z"/><path class="cls-2" d="M473.69,145a2.63,2.63,0,1,0,2.63,2.63A2.63,2.63,0,0,0,473.69,145Z"/><rect class="cls-3" x="450.36" y="162.82" width="6.14" height="6.14"/><rect class="cls-3" x="470.62" y="162.82" width="6.14" height="6.14"/><rect class="cls-3" x="430.09" y="162.82" width="6.14" height="6.14"/><path class="cls-4" d="M487.8,165.32H477.34v-2.5a.58.58,0,0,0-.58-.57h-2.49v-9.11h6.18a1.52,1.52,0,0,0,1.52-1.52v-14a10.1,10.1,0,0,0-1-20.12v-.35a10.1,10.1,0,0,0-10.08-10.1,10.29,10.29,0,0,0-3.44.6,15.61,15.61,0,0,0-15.09-11.85,15.44,15.44,0,0,0-15.05,11.66,10.11,10.11,0,0,0-13,9.69c0,.17,0,.35,0,.53a10.09,10.09,0,0,0,.51,19.94v14a1.52,1.52,0,0,0,1.52,1.52h6.19v9.11h-2.5a.58.58,0,0,0-.58.57v2.5H419.05a.57.57,0,0,0-.58.57.59.59,0,0,0,.58.58h10.46V169a.59.59,0,0,0,.58.58h6.14a.58.58,0,0,0,.57-.58v-2.49h13V169a.58.58,0,0,0,.57.58h6.13a.58.58,0,0,0,.57-.58v-2.49h13V169a.58.58,0,0,0,.57.58h6.14a.59.59,0,0,0,.58-.58v-2.49H487.8a.59.59,0,0,0,.58-.58A.57.57,0,0,0,487.8,165.32Zm-7-13.7a.37.37,0,0,1-.37.37H466.93a.37.37,0,0,1-.37-.37v-26a.36.36,0,0,1,.37-.36h13.52a.36.36,0,0,1,.37.36Zm-62.46-24a7.76,7.76,0,0,1,7.35-7.76,1.15,1.15,0,0,0,1.07-1.37,7.4,7.4,0,0,1-.12-1.31,7.82,7.82,0,0,1,7.81-7.8,7.71,7.71,0,0,1,3.22.7,1.14,1.14,0,0,0,1,0,1.13,1.13,0,0,0,.6-.83,13.23,13.23,0,0,1,26.16.26,1.21,1.21,0,0,0,.62.88,1.16,1.16,0,0,0,1.07,0,7.79,7.79,0,0,1,11.52,6.85,7,7,0,0,1-.11,1.34,1.11,1.11,0,0,0,.3,1,1.13,1.13,0,0,0,1,.36,6,6,0,0,1,.86,0A7.79,7.79,0,0,1,482,135.29v-9.64a1.52,1.52,0,0,0-1.52-1.51H466.93a1.52,1.52,0,0,0-1.52,1.51v9.76h-3.7V129.1a1.51,1.51,0,0,0-1.52-1.51H446.66a1.52,1.52,0,0,0-1.52,1.51v6.31h-3.7v-9.76a1.52,1.52,0,0,0-1.51-1.51H426.4a1.52,1.52,0,0,0-1.52,1.51v9.64A7.8,7.8,0,0,1,418.36,127.6Zm28.3,27.84a.38.38,0,0,1-.37-.37v-26a.37.37,0,0,1,.37-.36h13.53a.37.37,0,0,1,.37.36v26a.38.38,0,0,1-.37.37ZM426,151.62v-26a.36.36,0,0,1,.37-.36h13.53a.36.36,0,0,1,.36.36v26a.37.37,0,0,1-.36.37H426.4A.37.37,0,0,1,426,151.62Zm9.62,16.77h-5v-5h5Zm1.15-3.07v-2.5a.56.56,0,0,0-.57-.57h-2.49v-9.11h6.19a1.52,1.52,0,0,0,1.51-1.52V137.71h3.7v17.36a1.53,1.53,0,0,0,1.52,1.52h6.19v5.66h-2.49a.56.56,0,0,0-.57.57v2.5Zm19.12,3.07h-5v-5h5Zm1.14-3.07v-2.5a.56.56,0,0,0-.57-.57H454v-5.66h6.19a1.52,1.52,0,0,0,1.52-1.52V137.71h3.7v13.91a1.52,1.52,0,0,0,1.52,1.52h6.19v9.11h-2.5a.56.56,0,0,0-.57.57v2.5Zm19.13,3.07h-5v-5h5Z"/><path class="cls-5" d="M481.4,89.06a3.95,3.95,0,1,0,4,4A4,4,0,0,0,481.4,89.06Z"/><path class="cls-6" d="M406.66,133a1.72,1.72,0,1,0,1.71,1.72A1.72,1.72,0,0,0,406.66,133Z"/><path class="cls-6" d="M498.74,144.72a1.72,1.72,0,1,0,1.72,1.71A1.7,1.7,0,0,0,498.74,144.72Z"/><path class="cls-6" d="M417.2,174.35a1.72,1.72,0,1,0,1.72,1.72A1.71,1.71,0,0,0,417.2,174.35Z"/><path class="cls-2" d="M484.87,168.48a2.94,2.94,0,1,0,2.93,2.93A2.94,2.94,0,0,0,484.87,168.48Z"/><rect class="cls-1" x="625.16" y="111.44" width="41.44" height="19.01" rx="9.48"/><rect class="cls-1" x="563.12" y="95.3" width="29.9" height="19.01" rx="9.48"/><rect class="cls-1" x="571.44" y="151.05" width="41.44" height="19.01" rx="9.48"/><path class="cls-2" d="M589.11,136.55a8.94,8.94,0,0,1-.5-17.86,7.74,7.74,0,0,1-.14-1.54,9,9,0,0,1,8.95-8.94,8.83,8.83,0,0,1,3.71.81,14.39,14.39,0,0,1,28.44.28,8.95,8.95,0,0,1,13.23,7.85,8.19,8.19,0,0,1-.14,1.57,8.43,8.43,0,0,1,1-.06,8.95,8.95,0,0,1,0,17.89Z"/><rect class="cls-3" x="588.41" y="124.71" width="15.41" height="27.85" rx="0.94"/><rect class="cls-2" x="594.35" y="123.41" width="3.54" height="10.81" transform="translate(724.94 -467.3) rotate(90)"/><rect class="cls-2" x="594.35" y="129.61" width="3.54" height="10.81" transform="translate(731.13 -461.1) rotate(90)"/><rect class="cls-2" x="594.35" y="135.81" width="3.54" height="10.81" transform="translate(737.33 -454.91) rotate(90)"/><rect class="cls-3" x="608.68" y="128.16" width="15.41" height="27.85" rx="0.94"/><rect class="cls-2" x="614.61" y="126.86" width="3.54" height="10.81" transform="translate(748.65 -484.12) rotate(90)"/><rect class="cls-2" x="614.61" y="133.06" width="3.54" height="10.81" transform="translate(754.85 -477.92) rotate(90)"/><rect class="cls-2" x="614.61" y="139.26" width="3.54" height="10.81" transform="translate(761.05 -471.72) rotate(90)"/><rect class="cls-3" x="628.94" y="124.71" width="15.41" height="27.85" rx="0.94"/><rect class="cls-2" x="634.88" y="123.41" width="3.54" height="10.81" transform="translate(765.47 -507.83) rotate(90)"/><rect class="cls-2" x="634.88" y="129.61" width="3.54" height="10.81" transform="translate(771.66 -501.63) rotate(90)"/><rect class="cls-2" x="634.88" y="135.81" width="3.54" height="10.81" transform="translate(777.86 -495.44) rotate(90)"/><path class="cls-2" d="M596.12,145a2.63,2.63,0,1,0,2.63,2.63A2.63,2.63,0,0,0,596.12,145Z"/><path class="cls-2" d="M616.38,148.42a2.63,2.63,0,1,0,2.63,2.63A2.62,2.62,0,0,0,616.38,148.42Z"/><path class="cls-2" d="M636.65,145a2.63,2.63,0,1,0,2.63,2.63A2.63,2.63,0,0,0,636.65,145Z"/><rect class="cls-3" x="613.31" y="162.82" width="6.14" height="6.14"/><rect class="cls-3" x="633.58" y="162.82" width="6.14" height="6.14"/><rect class="cls-3" x="593.05" y="162.82" width="6.14" height="6.14"/><path class="cls-4" d="M650.76,165.32H640.3v-2.5a.58.58,0,0,0-.58-.57h-2.5v-9.11h6.19a1.52,1.52,0,0,0,1.52-1.52v-14a10.1,10.1,0,0,0-1-20.12v-.35a10.1,10.1,0,0,0-10.08-10.1,10.24,10.24,0,0,0-3.44.6,15.61,15.61,0,0,0-15.09-11.85,15.43,15.43,0,0,0-15.05,11.66,10.11,10.11,0,0,0-13,9.69c0,.17,0,.35,0,.53a10.09,10.09,0,0,0,.51,19.94v14a1.51,1.51,0,0,0,1.51,1.52h6.19v9.11h-2.49a.57.57,0,0,0-.58.57v2.5H582a.57.57,0,0,0-.58.57.58.58,0,0,0,.58.58h10.46V169a.59.59,0,0,0,.58.58h6.14a.58.58,0,0,0,.57-.58v-2.49h13V169a.59.59,0,0,0,.58.58h6.13A.58.58,0,0,0,620,169v-2.49h13V169a.58.58,0,0,0,.57.58h6.14a.59.59,0,0,0,.58-.58v-2.49h10.46a.59.59,0,0,0,.58-.58A.57.57,0,0,0,650.76,165.32Zm-7-13.7a.37.37,0,0,1-.37.37H629.89a.37.37,0,0,1-.37-.37v-26a.36.36,0,0,1,.37-.36h13.52a.36.36,0,0,1,.37.36Zm-62.46-24a7.76,7.76,0,0,1,7.34-7.76,1.19,1.19,0,0,0,.86-.44,1.15,1.15,0,0,0,.21-.93,7.45,7.45,0,0,1-.11-1.31,7.8,7.8,0,0,1,11-7.1,1.14,1.14,0,0,0,1,0,1.13,1.13,0,0,0,.6-.83,13.15,13.15,0,0,1,13.06-11.09,13.29,13.29,0,0,1,13.1,11.35,1.21,1.21,0,0,0,.62.88,1.16,1.16,0,0,0,1.07,0,7.79,7.79,0,0,1,11.52,6.85,7,7,0,0,1-.11,1.34,1.17,1.17,0,0,0,1.27,1.36,6.26,6.26,0,0,1,.87,0,7.79,7.79,0,0,1,1.26,15.48v-9.64a1.52,1.52,0,0,0-1.52-1.51H629.89a1.52,1.52,0,0,0-1.52,1.51v9.76h-3.7V129.1a1.51,1.51,0,0,0-1.52-1.51H609.62a1.52,1.52,0,0,0-1.52,1.51v6.31h-3.7v-9.76a1.52,1.52,0,0,0-1.51-1.51H589.35a1.51,1.51,0,0,0-1.51,1.51v9.64A7.8,7.8,0,0,1,581.32,127.6Zm28.3,27.84a.38.38,0,0,1-.37-.37v-26a.37.37,0,0,1,.37-.36h13.53a.37.37,0,0,1,.37.36v26a.38.38,0,0,1-.37.37ZM589,151.62v-26a.36.36,0,0,1,.36-.36h13.54a.36.36,0,0,1,.36.36v26a.37.37,0,0,1-.36.37H589.35A.37.37,0,0,1,589,151.62Zm9.62,16.77h-5v-5h5Zm1.15-3.07v-2.5a.56.56,0,0,0-.57-.57h-2.5v-9.11h6.2a1.52,1.52,0,0,0,1.51-1.52V137.71h3.7v17.36a1.53,1.53,0,0,0,1.52,1.52h6.19v5.66h-2.49a.57.57,0,0,0-.58.57v2.5Zm19.11,3.07h-5v-5h5Zm1.15-3.07v-2.5a.56.56,0,0,0-.57-.57H617v-5.66h6.19a1.52,1.52,0,0,0,1.52-1.52V137.71h3.7v13.91a1.52,1.52,0,0,0,1.52,1.52h6.18v9.11h-2.49a.56.56,0,0,0-.57.57v2.5Zm19.13,3.07h-5v-5h5Z"/><path class="cls-5" d="M644.36,89.06a4,4,0,1,0,3.94,4A3.95,3.95,0,0,0,644.36,89.06Z"/><path class="cls-6" d="M569.62,133a1.72,1.72,0,1,0,1.71,1.72A1.72,1.72,0,0,0,569.62,133Z"/><path class="cls-6" d="M661.7,144.72a1.72,1.72,0,1,0,1.72,1.71A1.71,1.71,0,0,0,661.7,144.72Z"/><path class="cls-6" d="M580.16,174.35a1.72,1.72,0,1,0,1.72,1.72A1.72,1.72,0,0,0,580.16,174.35Z"/><path class="cls-2" d="M647.82,168.48a2.94,2.94,0,1,0,2.94,2.93A2.93,2.93,0,0,0,647.82,168.48Z"/><rect class="cls-1" x="788.12" y="111.44" width="41.44" height="19.01" rx="9.48"/><rect class="cls-1" x="726.07" y="95.3" width="29.9" height="19.01" rx="9.48"/><rect class="cls-1" x="734.4" y="151.05" width="41.44" height="19.01" rx="9.48"/><path class="cls-2" d="M752.07,136.55a8.94,8.94,0,0,1-.5-17.86,7.74,7.74,0,0,1-.14-1.54A8.94,8.94,0,0,1,764.09,109a14.38,14.38,0,0,1,28.43.28,9,9,0,0,1,13.1,9.42,8.31,8.31,0,0,1,1-.06,8.95,8.95,0,0,1,0,17.89Z"/><rect class="cls-3" x="751.37" y="124.71" width="15.41" height="27.85" rx="0.94"/><rect class="cls-2" x="757.31" y="123.41" width="3.54" height="10.81" transform="translate(887.89 -630.26) rotate(90)"/><rect class="cls-2" x="757.31" y="129.61" width="3.54" height="10.81" transform="translate(894.09 -624.06) rotate(90)"/><rect class="cls-2" x="757.31" y="135.81" width="3.54" height="10.81" transform="translate(900.29 -617.86) rotate(90)"/><rect class="cls-3" x="771.63" y="128.16" width="15.41" height="27.85" rx="0.94"/><rect class="cls-2" x="777.57" y="126.86" width="3.54" height="10.81" transform="translate(911.61 -647.07) rotate(90)"/><rect class="cls-2" x="777.57" y="133.06" width="3.54" height="10.81" transform="translate(917.81 -640.88) rotate(90)"/><rect class="cls-2" x="777.57" y="139.26" width="3.54" height="10.81" transform="translate(924 -634.68) rotate(90)"/><rect class="cls-3" x="791.9" y="124.71" width="15.41" height="27.85" rx="0.94"/><rect class="cls-2" x="797.84" y="123.41" width="3.54" height="10.81" transform="translate(928.43 -670.79) rotate(90)"/><rect class="cls-2" x="797.84" y="129.61" width="3.54" height="10.81" transform="translate(934.62 -664.59) rotate(90)"/><rect class="cls-2" x="797.84" y="135.81" width="3.54" height="10.81" transform="translate(940.82 -658.39) rotate(90)"/><path class="cls-2" d="M759.08,145a2.63,2.63,0,1,0,2.62,2.63A2.63,2.63,0,0,0,759.08,145Z"/><path class="cls-2" d="M779.34,148.42a2.63,2.63,0,1,0,2.63,2.63A2.63,2.63,0,0,0,779.34,148.42Z"/><path class="cls-2" d="M799.61,145a2.63,2.63,0,1,0,2.62,2.63A2.63,2.63,0,0,0,799.61,145Z"/><rect class="cls-3" x="776.27" y="162.82" width="6.14" height="6.14"/><rect class="cls-3" x="796.54" y="162.82" width="6.14" height="6.14"/><rect class="cls-3" x="756.01" y="162.82" width="6.14" height="6.14"/><path class="cls-4" d="M813.72,165.32H803.25v-2.5a.57.57,0,0,0-.57-.57h-2.5v-9.11h6.19a1.52,1.52,0,0,0,1.52-1.52v-14a10.1,10.1,0,0,0-1-20.12v-.35a10.1,10.1,0,0,0-10.09-10.1,10.23,10.23,0,0,0-3.43.6,15.61,15.61,0,0,0-15.09-11.85,15.43,15.43,0,0,0-15,11.66,10.11,10.11,0,0,0-13,9.69c0,.17,0,.35,0,.53a10.09,10.09,0,0,0,.5,19.94v14a1.52,1.52,0,0,0,1.52,1.52h6.19v9.11H756a.57.57,0,0,0-.57.57v2.5H745a.56.56,0,0,0-.57.57.58.58,0,0,0,.57.58h10.47V169a.59.59,0,0,0,.57.58h6.14a.58.58,0,0,0,.58-.58v-2.49h13V169a.58.58,0,0,0,.58.58h6.13A.58.58,0,0,0,783,169v-2.49h13V169a.59.59,0,0,0,.58.58h6.14a.59.59,0,0,0,.57-.58v-2.49h10.47a.58.58,0,0,0,.57-.58A.56.56,0,0,0,813.72,165.32Zm-7-13.7a.37.37,0,0,1-.37.37H792.85a.37.37,0,0,1-.37-.37v-26a.36.36,0,0,1,.37-.36h13.52a.36.36,0,0,1,.37.36Zm-62.47-24a7.76,7.76,0,0,1,7.35-7.76,1.15,1.15,0,0,0,.85-.44,1.12,1.12,0,0,0,.22-.93,7.45,7.45,0,0,1-.11-1.31,7.81,7.81,0,0,1,7.8-7.8,7.71,7.71,0,0,1,3.22.7,1.16,1.16,0,0,0,1,0,1.13,1.13,0,0,0,.6-.83,13.15,13.15,0,0,1,13.06-11.09,13.29,13.29,0,0,1,13.1,11.35,1.14,1.14,0,0,0,1.69.85,7.79,7.79,0,0,1,11.52,6.85,7,7,0,0,1-.12,1.34,1.17,1.17,0,0,0,1.28,1.36,6.2,6.2,0,0,1,.86,0,7.79,7.79,0,0,1,1.27,15.48v-9.64a1.52,1.52,0,0,0-1.52-1.51H792.85a1.52,1.52,0,0,0-1.52,1.51v9.76h-3.7V129.1a1.51,1.51,0,0,0-1.52-1.51H772.57a1.52,1.52,0,0,0-1.51,1.51v6.31h-3.71v-9.76a1.51,1.51,0,0,0-1.5-1.51H752.31a1.52,1.52,0,0,0-1.52,1.51v9.64A7.8,7.8,0,0,1,744.27,127.6Zm28.3,27.84a.37.37,0,0,1-.36-.37v-26a.36.36,0,0,1,.36-.36h13.54a.37.37,0,0,1,.37.36v26a.38.38,0,0,1-.37.37Zm-20.63-3.82v-26a.36.36,0,0,1,.37-.36h13.54a.36.36,0,0,1,.35.36v26a.37.37,0,0,1-.35.37H752.31A.37.37,0,0,1,751.94,151.62Zm9.63,16.77h-5v-5h5Zm1.15-3.07v-2.5a.57.57,0,0,0-.58-.57h-2.49v-9.11h6.2a1.52,1.52,0,0,0,1.5-1.52V137.71h3.71v17.36a1.52,1.52,0,0,0,1.51,1.52h6.2v5.66h-2.49a.57.57,0,0,0-.58.57v2.5Zm19.11,3.07h-5v-5h5Zm1.15-3.07v-2.5a.56.56,0,0,0-.57-.57h-2.49v-5.66h6.19a1.52,1.52,0,0,0,1.52-1.52V137.71h3.7v13.91a1.52,1.52,0,0,0,1.52,1.52H799v9.11h-2.49a.57.57,0,0,0-.58.57v2.5Zm19.12,3.07h-5v-5h5Z"/><path class="cls-5" d="M807.31,89.06a3.95,3.95,0,1,0,4,4A4,4,0,0,0,807.31,89.06Z"/><path class="cls-6" d="M732.57,133a1.72,1.72,0,1,0,1.72,1.72A1.72,1.72,0,0,0,732.57,133Z"/><path class="cls-6" d="M824.66,144.72a1.72,1.72,0,1,0,1.72,1.71A1.71,1.71,0,0,0,824.66,144.72Z"/><path class="cls-6" d="M743.12,174.35a1.72,1.72,0,1,0,1.72,1.72A1.72,1.72,0,0,0,743.12,174.35Z"/><path class="cls-2" d="M810.78,168.48a2.94,2.94,0,1,0,2.94,2.93A2.93,2.93,0,0,0,810.78,168.48Z"/></g><g id="控制"><rect class="cls-7" x="74.24" y="331.77" width="30.22" height="19.21" rx="9.58"/><rect class="cls-7" x="135.99" y="317.86" width="41.89" height="19.21" rx="9.58"/><rect class="cls-7" x="76.87" y="285.94" width="41.89" height="19.21" rx="9.58"/><path class="cls-7" d="M130.32,277a2.85,2.85,0,1,0,2.85,2.85A2.86,2.86,0,0,0,130.32,277Z"/><rect class="cls-3" x="89.1" y="292.81" width="74.39" height="53.28" rx="3.99"/><path class="cls-8" d="M159.5,292.81h-4.66V346.1h4.66a4,4,0,0,0,4-4V296.8A4,4,0,0,0,159.5,292.81Z"/><path class="cls-8" d="M100,292.81H93.08a4,4,0,0,0-4,4v45.31a4,4,0,0,0,4,4H100Z"/><circle class="cls-3" cx="94.53" cy="319.46" r="1.87"/><path class="cls-3" d="M159.16,319.11a.58.58,0,0,1-.58-.58v-2.29a.59.59,0,0,1,1.17,0v2.29A.58.58,0,0,1,159.16,319.11Z"/><path class="cls-3" d="M159.16,323.25a.58.58,0,0,1-.58-.58V321.6a.59.59,0,0,1,1.17,0v1.07A.58.58,0,0,1,159.16,323.25Z"/><path class="cls-8" d="M112.26,335.45a.58.58,0,0,1-.58-.58V304a.58.58,0,1,1,1.16,0v30.83A.58.58,0,0,1,112.26,335.45Z"/><path class="cls-8" d="M122.77,335.45a.58.58,0,0,1-.58-.58V304a.58.58,0,1,1,1.16,0v30.83A.58.58,0,0,1,122.77,335.45Z"/><path class="cls-8" d="M133.28,335.45a.58.58,0,0,1-.58-.58V304a.58.58,0,1,1,1.16,0v30.83A.58.58,0,0,1,133.28,335.45Z"/><path class="cls-8" d="M143.79,335.45a.58.58,0,0,1-.58-.58V304a.58.58,0,0,1,.58-.58.59.59,0,0,1,.59.58v30.83A.59.59,0,0,1,143.79,335.45Z"/><path class="cls-3" d="M112.26,308a4.71,4.71,0,1,0,4.7,4.7A4.71,4.71,0,0,0,112.26,308Z"/><path class="cls-8" d="M112.26,318a5.29,5.29,0,1,1,5.28-5.29A5.29,5.29,0,0,1,112.26,318Zm0-9.41a4.12,4.12,0,1,0,4.12,4.12A4.13,4.13,0,0,0,112.26,308.56Z"/><path class="cls-8" d="M109.89,313.27a.58.58,0,0,1-.59-.59,3,3,0,0,1,3-2.95.58.58,0,1,1,0,1.16,1.79,1.79,0,0,0-1.79,1.79A.58.58,0,0,1,109.89,313.27Z"/><path class="cls-3" d="M122.77,320.9a4.7,4.7,0,1,0,4.7,4.7A4.7,4.7,0,0,0,122.77,320.9Z"/><path class="cls-8" d="M122.77,330.88a5.28,5.28,0,1,1,5.28-5.28A5.29,5.29,0,0,1,122.77,330.88Zm0-9.4a4.12,4.12,0,1,0,4.12,4.12A4.13,4.13,0,0,0,122.77,321.48Z"/><path class="cls-8" d="M120.4,326.18a.59.59,0,0,1-.59-.58,3,3,0,0,1,3-3,.58.58,0,0,1,0,1.16,1.8,1.8,0,0,0-1.79,1.8A.58.58,0,0,1,120.4,326.18Z"/><path class="cls-3" d="M133.28,306.84a4.7,4.7,0,1,0,4.7,4.7A4.71,4.71,0,0,0,133.28,306.84Z"/><path class="cls-8" d="M133.28,316.82a5.28,5.28,0,1,1,5.29-5.28A5.29,5.29,0,0,1,133.28,316.82Zm0-9.4a4.12,4.12,0,1,0,4.12,4.12A4.13,4.13,0,0,0,133.28,307.42Z"/><path class="cls-8" d="M135.66,312.12a.58.58,0,0,1-.58-.58,1.8,1.8,0,0,0-1.8-1.79.59.59,0,0,1,0-1.17,3,3,0,0,1,3,3A.58.58,0,0,1,135.66,312.12Z"/><path class="cls-3" d="M144.06,320.9a4.7,4.7,0,1,0,4.7,4.7A4.7,4.7,0,0,0,144.06,320.9Z"/><path class="cls-8" d="M144.06,330.88a5.28,5.28,0,1,1,5.29-5.28A5.29,5.29,0,0,1,144.06,330.88Zm0-9.4a4.12,4.12,0,1,0,4.12,4.12A4.13,4.13,0,0,0,144.06,321.48Z"/><path class="cls-8" d="M146.44,326.18a.58.58,0,0,1-.58-.58,1.81,1.81,0,0,0-1.8-1.8.58.58,0,1,1,0-1.16,3,3,0,0,1,3,3A.58.58,0,0,1,146.44,326.18Z"/><path class="cls-2" d="M118.61,322.91a8.29,8.29,0,1,0,8.28,8.28A8.29,8.29,0,0,0,118.61,322.91Z"/><path class="cls-2" d="M129,343.34H108.17a4.24,4.24,0,0,0-4.24,4.25v11.59h29.35V347.59A4.24,4.24,0,0,0,129,343.34Z"/><polygon class="cls-3" points="114.98 343.34 112.12 346.93 115.8 359.18 121.42 359.18 125.09 346.93 122.23 343.34 114.98 343.34"/><polygon class="cls-8" points="119.81 346.75 121.24 343.34 115.97 343.34 117.39 346.75 119.81 346.75"/><polygon class="cls-8" points="119.81 346.75 121.24 359.18 115.97 359.18 117.39 346.75 119.81 346.75"/><path class="cls-4" d="M159.51,291.65H93.08a5.16,5.16,0,0,0-5.15,5.15v45.31a5.16,5.16,0,0,0,5.15,5.15h10.27c0,.11,0,.22,0,.33v11.59a.59.59,0,0,0,.58.58h29.36a.57.57,0,0,0,.58-.58V347.59c0-.11,0-.22,0-.33h25.66a5.14,5.14,0,0,0,5.13-5.15V296.8A5.14,5.14,0,0,0,159.51,291.65Zm0,2.33a2.82,2.82,0,0,1,2.81,2.82v45.31a2.82,2.82,0,0,1-2.81,2.83h-3.79V294Zm-66.43,51a2.83,2.83,0,0,1-2.83-2.83V296.8A2.83,2.83,0,0,1,93.08,294h6v51Zm11.42,13.65v-11a1.19,1.19,0,0,1,0-.33,3.66,3.66,0,0,1,3.65-3.33h5.6l-2.1,2.63a.56.56,0,0,0-.11.54l.05.16,3.4,11.33Zm11.08-14.66,1.22,2.89-.06.44-1.08,9.45-2.83-9.45-.06-.21c.1-.12,2.65-3.32,2.5-3.12Zm6.37,0c.1.12,2.64,3.32,2.49,3.12l-.06.21-2.84,9.46-1.08-9.46-.06-.44c0-.12,1.3-3.08,1.23-2.89Zm-2.52,2.24h-1.65l-.93-2.24h3.52Zm-2.8,12.42,1.28-11.26h1.39l1.29,11.26Zm16.07,0H122.19l3.41-11.33.05-.16a.65.65,0,0,0-.11-.54l-2.1-2.63H129a3.62,3.62,0,0,1,3.64,3.33,1.77,1.77,0,0,1,0,.33Zm.36-13.65a4.77,4.77,0,0,0-4-2.18H108.18a4.81,4.81,0,0,0-4,2.18h-3.31V294H154v51Z"/><path class="cls-4" d="M118.6,322.33a8.86,8.86,0,1,0,8.87,8.87A8.86,8.86,0,0,0,118.6,322.33Zm0,16.56a7.7,7.7,0,1,1,7.71-7.69A7.7,7.7,0,0,1,118.6,338.89Z"/><path class="cls-9" d="M172.74,290.16a1.8,1.8,0,1,0,1.79,1.79A1.8,1.8,0,0,0,172.74,290.16Z"/><path class="cls-8" d="M78.3,315.59a1.8,1.8,0,1,0,1.79,1.8A1.79,1.79,0,0,0,78.3,315.59Z"/><path class="cls-10" d="M146.44,361.16a1.8,1.8,0,1,0,1.79,1.79A1.8,1.8,0,0,0,146.44,361.16Z"/><rect class="cls-7" x="237.2" y="331.77" width="30.22" height="19.21" rx="9.58"/><rect class="cls-7" x="298.95" y="317.86" width="41.89" height="19.21" rx="9.58"/><rect class="cls-7" x="239.83" y="285.94" width="41.89" height="19.21" rx="9.58"/><path class="cls-7" d="M293.28,277a2.85,2.85,0,1,0,2.85,2.85A2.86,2.86,0,0,0,293.28,277Z"/><rect class="cls-3" x="252.05" y="292.81" width="74.39" height="53.28" rx="3.99"/><path class="cls-8" d="M322.46,292.81H317.8V346.1h4.66a4,4,0,0,0,4-4V296.8A4,4,0,0,0,322.46,292.81Z"/><path class="cls-8" d="M262.91,292.81H256a4,4,0,0,0-4,4v45.31a4,4,0,0,0,4,4h6.87Z"/><circle class="cls-3" cx="257.48" cy="319.46" r="1.87"/><path class="cls-3" d="M322.12,319.11a.58.58,0,0,1-.58-.58v-2.29a.58.58,0,0,1,1.16,0v2.29A.58.58,0,0,1,322.12,319.11Z"/><path class="cls-3" d="M322.12,323.25a.58.58,0,0,1-.58-.58V321.6a.58.58,0,0,1,1.16,0v1.07A.58.58,0,0,1,322.12,323.25Z"/><path class="cls-8" d="M275.22,335.45a.58.58,0,0,1-.58-.58V304a.58.58,0,0,1,1.16,0v30.83A.58.58,0,0,1,275.22,335.45Z"/><path class="cls-8" d="M285.73,335.45a.58.58,0,0,1-.58-.58V304a.58.58,0,0,1,1.16,0v30.83A.58.58,0,0,1,285.73,335.45Z"/><path class="cls-8" d="M296.24,335.45a.58.58,0,0,1-.58-.58V304a.58.58,0,0,1,1.16,0v30.83A.58.58,0,0,1,296.24,335.45Z"/><path class="cls-8" d="M306.75,335.45a.58.58,0,0,1-.58-.58V304a.58.58,0,0,1,1.16,0v30.83A.58.58,0,0,1,306.75,335.45Z"/><path class="cls-3" d="M275.22,308a4.71,4.71,0,1,0,4.7,4.7A4.7,4.7,0,0,0,275.22,308Z"/><path class="cls-8" d="M275.22,318a5.29,5.29,0,1,1,5.28-5.29A5.29,5.29,0,0,1,275.22,318Zm0-9.41a4.12,4.12,0,1,0,4.12,4.12A4.13,4.13,0,0,0,275.22,308.56Z"/><path class="cls-8" d="M272.84,313.27a.58.58,0,0,1-.58-.59,3,3,0,0,1,3-2.95.58.58,0,0,1,0,1.16,1.8,1.8,0,0,0-1.8,1.79A.58.58,0,0,1,272.84,313.27Z"/><path class="cls-3" d="M285.73,320.9a4.7,4.7,0,1,0,4.7,4.7A4.69,4.69,0,0,0,285.73,320.9Z"/><path class="cls-8" d="M285.73,330.88A5.28,5.28,0,1,1,291,325.6,5.29,5.29,0,0,1,285.73,330.88Zm0-9.4a4.12,4.12,0,1,0,4.12,4.12A4.13,4.13,0,0,0,285.73,321.48Z"/><path class="cls-8" d="M283.35,326.18a.58.58,0,0,1-.58-.58,3,3,0,0,1,3-3,.58.58,0,1,1,0,1.16,1.81,1.81,0,0,0-1.8,1.8A.58.58,0,0,1,283.35,326.18Z"/><path class="cls-3" d="M296.24,306.84a4.7,4.7,0,1,0,4.7,4.7A4.7,4.7,0,0,0,296.24,306.84Z"/><path class="cls-8" d="M296.24,316.82a5.28,5.28,0,1,1,5.28-5.28A5.29,5.29,0,0,1,296.24,316.82Zm0-9.4a4.12,4.12,0,1,0,4.12,4.12A4.13,4.13,0,0,0,296.24,307.42Z"/><path class="cls-8" d="M298.62,312.12a.58.58,0,0,1-.58-.58,1.8,1.8,0,0,0-1.8-1.79.59.59,0,0,1,0-1.17,3,3,0,0,1,3,3A.58.58,0,0,1,298.62,312.12Z"/><path class="cls-3" d="M307,320.9a4.7,4.7,0,1,0,4.7,4.7A4.69,4.69,0,0,0,307,320.9Z"/><path class="cls-8" d="M307,330.88a5.28,5.28,0,1,1,5.28-5.28A5.29,5.29,0,0,1,307,330.88Zm0-9.4a4.12,4.12,0,1,0,4.12,4.12A4.13,4.13,0,0,0,307,321.48Z"/><path class="cls-8" d="M309.4,326.18a.58.58,0,0,1-.58-.58,1.81,1.81,0,0,0-1.8-1.8.58.58,0,0,1,0-1.16,3,3,0,0,1,3,3A.58.58,0,0,1,309.4,326.18Z"/><path class="cls-2" d="M281.56,322.91a8.29,8.29,0,1,0,8.28,8.28A8.28,8.28,0,0,0,281.56,322.91Z"/><path class="cls-2" d="M292,343.34H271.13a4.24,4.24,0,0,0-4.24,4.25v11.59h29.35V347.59A4.24,4.24,0,0,0,292,343.34Z"/><polygon class="cls-3" points="277.94 343.34 275.08 346.93 278.75 359.18 284.37 359.18 288.04 346.93 285.19 343.34 277.94 343.34"/><polygon class="cls-8" points="282.77 346.75 284.2 343.34 278.93 343.34 280.35 346.75 282.77 346.75"/><polygon class="cls-8" points="282.77 346.75 284.2 359.18 278.93 359.18 280.35 346.75 282.77 346.75"/><path class="cls-4" d="M322.46,291.65H256a5.16,5.16,0,0,0-5.15,5.15v45.31a5.16,5.16,0,0,0,5.15,5.15h10.27c0,.11,0,.22,0,.33v11.59a.59.59,0,0,0,.58.58h29.36a.57.57,0,0,0,.58-.58V347.59c0-.11,0-.22,0-.33h25.65a5.15,5.15,0,0,0,5.14-5.15V296.8A5.15,5.15,0,0,0,322.46,291.65Zm0,2.33a2.82,2.82,0,0,1,2.82,2.82v45.31a2.83,2.83,0,0,1-2.82,2.83h-3.79V294Zm-66.42,51a2.83,2.83,0,0,1-2.83-2.83V296.8A2.83,2.83,0,0,1,256,294h6v51Zm11.42,13.65v-11a1.77,1.77,0,0,1,0-.33,3.67,3.67,0,0,1,3.65-3.33h5.61c-.1.11-2.24,2.8-2.11,2.63a.58.58,0,0,0-.1.54l.05.16,3.4,11.33Zm11.08-14.66,1.22,2.89-.06.44-1.08,9.45-2.84-9.45,0-.21,2.49-3.12Zm6.37,0c.09.12,2.64,3.32,2.49,3.12l-.06.21-2.84,9.46-1.08-9.46-.06-.44,1.22-2.89Zm-2.52,2.24h-1.65l-.93-2.24h3.52Zm-2.81,12.42,1.28-11.26h1.4l1.29,11.26Zm16.08,0H285.15l3.41-11.33,0-.16a.61.61,0,0,0-.1-.54l-2.1-2.63H292a3.63,3.63,0,0,1,3.64,3.33,1.77,1.77,0,0,1,0,.33Zm.36-13.65a4.78,4.78,0,0,0-4-2.18H271.13a4.8,4.8,0,0,0-4,2.18h-3.31V294h53.14v51Z"/><path class="cls-4" d="M281.56,322.33a8.86,8.86,0,1,0,8.87,8.87A8.87,8.87,0,0,0,281.56,322.33Zm0,16.56a7.7,7.7,0,1,1,7.71-7.69A7.7,7.7,0,0,1,281.56,338.89Z"/><path class="cls-9" d="M335.7,290.16a1.8,1.8,0,1,0,1.79,1.79A1.79,1.79,0,0,0,335.7,290.16Z"/><path class="cls-8" d="M241.25,315.59a1.8,1.8,0,1,0,1.8,1.8A1.79,1.79,0,0,0,241.25,315.59Z"/><path class="cls-10" d="M309.4,361.16a1.8,1.8,0,1,0,1.79,1.79A1.8,1.8,0,0,0,309.4,361.16Z"/><rect class="cls-7" x="400.16" y="331.77" width="30.22" height="19.21" rx="9.58"/><rect class="cls-7" x="461.9" y="317.86" width="41.89" height="19.21" rx="9.58"/><rect class="cls-7" x="402.78" y="285.94" width="41.89" height="19.21" rx="9.58"/><path class="cls-7" d="M456.24,277a2.85,2.85,0,1,0,2.85,2.85A2.85,2.85,0,0,0,456.24,277Z"/><rect class="cls-3" x="415.01" y="292.81" width="74.39" height="53.28" rx="3.99"/><path class="cls-8" d="M485.42,292.81h-4.66V346.1h4.66a4,4,0,0,0,4-4V296.8A4,4,0,0,0,485.42,292.81Z"/><path class="cls-8" d="M425.87,292.81H419a4,4,0,0,0-4,4v45.31a4,4,0,0,0,4,4h6.87Z"/><circle class="cls-3" cx="420.44" cy="319.46" r="1.87"/><path class="cls-3" d="M485.08,319.11a.58.58,0,0,1-.58-.58v-2.29a.58.58,0,1,1,1.16,0v2.29A.58.58,0,0,1,485.08,319.11Z"/><path class="cls-3" d="M485.08,323.25a.58.58,0,0,1-.58-.58V321.6a.58.58,0,0,1,1.16,0v1.07A.58.58,0,0,1,485.08,323.25Z"/><path class="cls-8" d="M438.18,335.45a.58.58,0,0,1-.58-.58V304a.58.58,0,0,1,1.16,0v30.83A.58.58,0,0,1,438.18,335.45Z"/><path class="cls-8" d="M448.69,335.45a.58.58,0,0,1-.58-.58V304a.58.58,0,0,1,1.16,0v30.83A.58.58,0,0,1,448.69,335.45Z"/><path class="cls-8" d="M459.2,335.45a.58.58,0,0,1-.58-.58V304a.58.58,0,0,1,1.16,0v30.83A.58.58,0,0,1,459.2,335.45Z"/><path class="cls-8" d="M469.71,335.45a.58.58,0,0,1-.58-.58V304a.58.58,0,0,1,1.16,0v30.83A.58.58,0,0,1,469.71,335.45Z"/><path class="cls-3" d="M438.18,308a4.71,4.71,0,1,0,4.7,4.7A4.7,4.7,0,0,0,438.18,308Z"/><path class="cls-8" d="M438.18,318a5.29,5.29,0,1,1,5.28-5.29A5.28,5.28,0,0,1,438.18,318Zm0-9.41a4.12,4.12,0,1,0,4.12,4.12A4.13,4.13,0,0,0,438.18,308.56Z"/><path class="cls-8" d="M435.8,313.27a.58.58,0,0,1-.58-.59,3,3,0,0,1,3-2.95.58.58,0,0,1,0,1.16,1.8,1.8,0,0,0-1.8,1.79A.58.58,0,0,1,435.8,313.27Z"/><path class="cls-3" d="M448.69,320.9a4.7,4.7,0,1,0,4.7,4.7A4.69,4.69,0,0,0,448.69,320.9Z"/><path class="cls-8" d="M448.69,330.88A5.28,5.28,0,1,1,454,325.6,5.29,5.29,0,0,1,448.69,330.88Zm0-9.4a4.12,4.12,0,1,0,4.12,4.12A4.13,4.13,0,0,0,448.69,321.48Z"/><path class="cls-8" d="M446.31,326.18a.58.58,0,0,1-.58-.58,3,3,0,0,1,3-3,.58.58,0,1,1,0,1.16,1.81,1.81,0,0,0-1.8,1.8A.58.58,0,0,1,446.31,326.18Z"/><path class="cls-3" d="M459.2,306.84a4.7,4.7,0,1,0,4.7,4.7A4.7,4.7,0,0,0,459.2,306.84Z"/><path class="cls-8" d="M459.2,316.82a5.28,5.28,0,1,1,5.28-5.28A5.29,5.29,0,0,1,459.2,316.82Zm0-9.4a4.12,4.12,0,1,0,4.12,4.12A4.13,4.13,0,0,0,459.2,307.42Z"/><path class="cls-8" d="M461.57,312.12a.58.58,0,0,1-.58-.58,1.79,1.79,0,0,0-1.79-1.79.59.59,0,0,1,0-1.17,3,3,0,0,1,3,3A.58.58,0,0,1,461.57,312.12Z"/><path class="cls-3" d="M470,320.9a4.7,4.7,0,1,0,4.7,4.7A4.69,4.69,0,0,0,470,320.9Z"/><path class="cls-8" d="M470,330.88a5.28,5.28,0,1,1,5.28-5.28A5.29,5.29,0,0,1,470,330.88Zm0-9.4a4.12,4.12,0,1,0,4.12,4.12A4.13,4.13,0,0,0,470,321.48Z"/><path class="cls-8" d="M472.35,326.18a.58.58,0,0,1-.58-.58,1.8,1.8,0,0,0-1.79-1.8.58.58,0,1,1,0-1.16,3,3,0,0,1,3,3A.58.58,0,0,1,472.35,326.18Z"/><path class="cls-2" d="M444.52,322.91a8.29,8.29,0,1,0,8.28,8.28A8.28,8.28,0,0,0,444.52,322.91Z"/><path class="cls-2" d="M455,343.34H434.09a4.25,4.25,0,0,0-4.25,4.25v11.59H459.2V347.59A4.25,4.25,0,0,0,455,343.34Z"/><polygon class="cls-3" points="440.9 343.34 438.04 346.93 441.71 359.18 447.33 359.18 451 346.93 448.14 343.34 440.9 343.34"/><polygon class="cls-8" points="445.73 346.75 447.15 343.34 441.89 343.34 443.31 346.75 445.73 346.75"/><polygon class="cls-8" points="445.73 346.75 447.15 359.18 441.89 359.18 443.31 346.75 445.73 346.75"/><path class="cls-4" d="M485.42,291.65H419a5.16,5.16,0,0,0-5.15,5.15v45.31a5.16,5.16,0,0,0,5.15,5.15h10.28c0,.11,0,.22,0,.33v11.59a.58.58,0,0,0,.58.58H459.2a.58.58,0,0,0,.58-.58V347.59c0-.11,0-.22,0-.33h25.65a5.15,5.15,0,0,0,5.14-5.15V296.8A5.15,5.15,0,0,0,485.42,291.65Zm0,2.33a2.81,2.81,0,0,1,2.81,2.82v45.31a2.82,2.82,0,0,1-2.81,2.83h-3.79V294Zm-66.43,51a2.83,2.83,0,0,1-2.82-2.83V296.8A2.83,2.83,0,0,1,419,294h6v51Zm11.43,13.65v-11a1.77,1.77,0,0,1,0-.33,3.66,3.66,0,0,1,3.65-3.33h5.6l-2.1,2.63a.55.55,0,0,0-.1.54l0,.16,3.41,11.33Zm11.08-14.66c.05.11,1.29,3.07,1.22,2.89l-.06.44-1.08,9.45-2.84-9.45-.06-.21,2.5-3.12Zm6.37,0,2.48,3.12-.05.21-2.84,9.46-1.08-9.46-.06-.44,1.22-2.89Zm-2.53,2.24h-1.65c-.05-.12-1-2.38-.93-2.24h3.53C446.24,344,445.29,346.31,445.34,346.17Zm-2.8,12.42,1.28-11.26h1.4l1.29,11.26Zm16.08,0H448.11l3.41-11.33,0-.16a.64.64,0,0,0-.1-.54c-.1-.11-2.24-2.81-2.11-2.63H455a3.62,3.62,0,0,1,3.63,3.33,1.19,1.19,0,0,1,0,.33Zm.36-13.65a4.78,4.78,0,0,0-4-2.18H434.09a4.8,4.8,0,0,0-4,2.18h-3.31V294h53.14v51Z"/><path class="cls-4" d="M444.52,322.33a8.86,8.86,0,1,0,8.87,8.87A8.87,8.87,0,0,0,444.52,322.33Zm0,16.56a7.7,7.7,0,1,1,7.7-7.69A7.71,7.71,0,0,1,444.52,338.89Z"/><path class="cls-9" d="M498.65,290.16a1.8,1.8,0,1,0,1.8,1.79A1.79,1.79,0,0,0,498.65,290.16Z"/><path class="cls-8" d="M404.21,315.59a1.8,1.8,0,1,0,1.8,1.8A1.79,1.79,0,0,0,404.21,315.59Z"/><path class="cls-10" d="M472.35,361.16a1.8,1.8,0,1,0,1.8,1.79A1.79,1.79,0,0,0,472.35,361.16Z"/><rect class="cls-7" x="563.12" y="331.77" width="30.22" height="19.21" rx="9.58"/><rect class="cls-7" x="624.86" y="317.86" width="41.89" height="19.21" rx="9.58"/><rect class="cls-7" x="565.74" y="285.94" width="41.89" height="19.21" rx="9.58"/><path class="cls-7" d="M619.2,277a2.85,2.85,0,1,0,2.84,2.85A2.85,2.85,0,0,0,619.2,277Z"/><rect class="cls-3" x="577.97" y="292.81" width="74.39" height="53.28" rx="3.99"/><path class="cls-8" d="M648.37,292.81h-4.65V346.1h4.65a4,4,0,0,0,4-4V296.8A4,4,0,0,0,648.37,292.81Z"/><path class="cls-8" d="M588.83,292.81H582a4,4,0,0,0-4,4v45.31a4,4,0,0,0,4,4h6.87Z"/><circle class="cls-3" cx="583.4" cy="319.46" r="1.87"/><path class="cls-3" d="M648,319.11a.58.58,0,0,1-.58-.58v-2.29a.58.58,0,1,1,1.16,0v2.29A.58.58,0,0,1,648,319.11Z"/><path class="cls-3" d="M648,323.25a.58.58,0,0,1-.58-.58V321.6a.58.58,0,0,1,1.16,0v1.07A.58.58,0,0,1,648,323.25Z"/><path class="cls-8" d="M601.14,335.45a.58.58,0,0,1-.59-.58V304a.59.59,0,0,1,1.17,0v30.83A.58.58,0,0,1,601.14,335.45Z"/><path class="cls-8" d="M611.65,335.45a.58.58,0,0,1-.59-.58V304a.59.59,0,0,1,1.17,0v30.83A.58.58,0,0,1,611.65,335.45Z"/><path class="cls-8" d="M622.16,335.45a.58.58,0,0,1-.58-.58V304a.58.58,0,0,1,1.16,0v30.83A.58.58,0,0,1,622.16,335.45Z"/><path class="cls-8" d="M632.67,335.45a.58.58,0,0,1-.58-.58V304a.58.58,0,0,1,1.16,0v30.83A.58.58,0,0,1,632.67,335.45Z"/><path class="cls-3" d="M601.14,308a4.71,4.71,0,1,0,4.7,4.7A4.71,4.71,0,0,0,601.14,308Z"/><path class="cls-8" d="M601.14,318a5.29,5.29,0,1,1,5.28-5.29A5.29,5.29,0,0,1,601.14,318Zm0-9.41a4.12,4.12,0,1,0,4.11,4.12A4.12,4.12,0,0,0,601.14,308.56Z"/><path class="cls-8" d="M598.76,313.27a.58.58,0,0,1-.58-.59,3,3,0,0,1,3-2.95.58.58,0,0,1,0,1.16,1.79,1.79,0,0,0-1.8,1.79A.58.58,0,0,1,598.76,313.27Z"/><path class="cls-3" d="M611.65,320.9a4.7,4.7,0,1,0,4.7,4.7A4.7,4.7,0,0,0,611.65,320.9Z"/><path class="cls-8" d="M611.65,330.88a5.28,5.28,0,1,1,5.28-5.28A5.29,5.29,0,0,1,611.65,330.88Zm0-9.4a4.12,4.12,0,1,0,4.12,4.12A4.12,4.12,0,0,0,611.65,321.48Z"/><path class="cls-8" d="M609.27,326.18a.58.58,0,0,1-.58-.58,3,3,0,0,1,3-3,.58.58,0,0,1,0,1.16,1.81,1.81,0,0,0-1.8,1.8A.58.58,0,0,1,609.27,326.18Z"/><path class="cls-3" d="M622.16,306.84a4.7,4.7,0,1,0,4.7,4.7A4.7,4.7,0,0,0,622.16,306.84Z"/><path class="cls-8" d="M622.16,316.82a5.28,5.28,0,1,1,5.28-5.28A5.29,5.29,0,0,1,622.16,316.82Zm0-9.4a4.12,4.12,0,1,0,4.12,4.12A4.12,4.12,0,0,0,622.16,307.42Z"/><path class="cls-8" d="M624.53,312.12a.58.58,0,0,1-.58-.58,1.79,1.79,0,0,0-1.79-1.79.59.59,0,0,1,0-1.17,3,3,0,0,1,3,3A.58.58,0,0,1,624.53,312.12Z"/><path class="cls-3" d="M632.94,320.9a4.7,4.7,0,1,0,4.7,4.7A4.69,4.69,0,0,0,632.94,320.9Z"/><path class="cls-8" d="M632.94,330.88a5.28,5.28,0,1,1,5.28-5.28A5.29,5.29,0,0,1,632.94,330.88Zm0-9.4a4.12,4.12,0,1,0,4.12,4.12A4.12,4.12,0,0,0,632.94,321.48Z"/><path class="cls-8" d="M635.31,326.18a.58.58,0,0,1-.58-.58,1.8,1.8,0,0,0-1.79-1.8.58.58,0,1,1,0-1.16,3,3,0,0,1,2.95,3A.58.58,0,0,1,635.31,326.18Z"/><path class="cls-2" d="M607.48,322.91a8.29,8.29,0,1,0,8.28,8.28A8.28,8.28,0,0,0,607.48,322.91Z"/><path class="cls-2" d="M617.91,343.34H597.05a4.25,4.25,0,0,0-4.25,4.25v11.59h29.36V347.59A4.25,4.25,0,0,0,617.91,343.34Z"/><polygon class="cls-3" points="603.86 343.34 601 346.93 604.67 359.18 610.29 359.18 613.96 346.93 611.1 343.34 603.86 343.34"/><polygon class="cls-8" points="608.69 346.75 610.11 343.34 604.85 343.34 606.26 346.75 608.69 346.75"/><polygon class="cls-8" points="608.69 346.75 610.11 359.18 604.85 359.18 606.26 346.75 608.69 346.75"/><path class="cls-4" d="M648.38,291.65H582a5.16,5.16,0,0,0-5.15,5.15v45.31a5.16,5.16,0,0,0,5.15,5.15h10.28a1.83,1.83,0,0,0,0,.33v11.59a.59.59,0,0,0,.59.58h29.36a.58.58,0,0,0,.58-.58V347.59c0-.11,0-.22,0-.33h25.65a5.15,5.15,0,0,0,5.14-5.15V296.8A5.15,5.15,0,0,0,648.38,291.65Zm0,2.33a2.81,2.81,0,0,1,2.81,2.82v45.31a2.82,2.82,0,0,1-2.81,2.83h-3.79V294Zm-66.43,51a2.83,2.83,0,0,1-2.82-2.83V296.8A2.82,2.82,0,0,1,582,294h6v51Zm11.43,13.65v-11a1.77,1.77,0,0,1,0-.33,3.66,3.66,0,0,1,3.65-3.33h5.6l-2.1,2.63a.58.58,0,0,0-.11.54l0,.16,3.41,11.33Zm11.07-14.66,1.22,2.89,0,.44-1.08,9.45-2.84-9.45-.06-.21,2.5-3.12Zm6.37,0,2.49,3.12-.06.21-2.83,9.46-1.08-9.46-.06-.44,1.22-2.89Zm-2.52,2.24h-1.65l-.93-2.24h3.52Zm-2.8,12.42,1.28-11.26h1.39l1.29,11.26Zm16.08,0H611.07l3.4-11.33,0-.16a.64.64,0,0,0-.1-.54c-.1-.11-2.24-2.81-2.11-2.63h5.6a3.62,3.62,0,0,1,3.64,3.33,1.19,1.19,0,0,1,0,.33Zm.36-13.65a4.79,4.79,0,0,0-4-2.18H597.05a4.79,4.79,0,0,0-4,2.18H589.7V294h53.15v51Z"/><path class="cls-4" d="M607.48,322.33a8.86,8.86,0,1,0,8.86,8.87A8.87,8.87,0,0,0,607.48,322.33Zm0,16.56a7.7,7.7,0,1,1,7.7-7.69A7.7,7.7,0,0,1,607.48,338.89Z"/><path class="cls-9" d="M661.61,290.16a1.8,1.8,0,1,0,1.8,1.79A1.79,1.79,0,0,0,661.61,290.16Z"/><path class="cls-8" d="M567.17,315.59a1.8,1.8,0,1,0,1.79,1.8A1.8,1.8,0,0,0,567.17,315.59Z"/><path class="cls-10" d="M635.31,361.16a1.8,1.8,0,1,0,1.8,1.79A1.79,1.79,0,0,0,635.31,361.16Z"/><rect class="cls-7" x="726.07" y="331.77" width="30.22" height="19.21" rx="9.58"/><rect class="cls-7" x="787.82" y="317.86" width="41.89" height="19.21" rx="9.58"/><rect class="cls-7" x="728.7" y="285.94" width="41.89" height="19.21" rx="9.58"/><path class="cls-7" d="M782.15,277a2.85,2.85,0,1,0,2.85,2.85A2.86,2.86,0,0,0,782.15,277Z"/><rect class="cls-3" x="740.93" y="292.81" width="74.39" height="53.28" rx="3.99"/><path class="cls-8" d="M811.33,292.81h-4.66V346.1h4.66a4,4,0,0,0,4-4V296.8A4,4,0,0,0,811.33,292.81Z"/><path class="cls-8" d="M751.79,292.81h-6.88a4,4,0,0,0-4,4v45.31a4,4,0,0,0,4,4h6.88Z"/><circle class="cls-3" cx="746.36" cy="319.46" r="1.87"/><path class="cls-3" d="M811,319.11a.58.58,0,0,1-.59-.58v-2.29a.59.59,0,0,1,1.17,0v2.29A.58.58,0,0,1,811,319.11Z"/><path class="cls-3" d="M811,323.25a.58.58,0,0,1-.59-.58V321.6a.59.59,0,0,1,1.17,0v1.07A.58.58,0,0,1,811,323.25Z"/><path class="cls-8" d="M764.09,335.45a.58.58,0,0,1-.58-.58V304a.58.58,0,0,1,1.16,0v30.83A.58.58,0,0,1,764.09,335.45Z"/><path class="cls-8" d="M774.6,335.45a.58.58,0,0,1-.58-.58V304a.58.58,0,0,1,1.16,0v30.83A.58.58,0,0,1,774.6,335.45Z"/><path class="cls-8" d="M785.11,335.45a.58.58,0,0,1-.58-.58V304a.58.58,0,0,1,.58-.58.59.59,0,0,1,.59.58v30.83A.59.59,0,0,1,785.11,335.45Z"/><path class="cls-8" d="M795.62,335.45a.58.58,0,0,1-.58-.58V304a.59.59,0,0,1,1.17,0v30.83A.58.58,0,0,1,795.62,335.45Z"/><path class="cls-3" d="M764.09,308a4.71,4.71,0,1,0,4.7,4.7A4.71,4.71,0,0,0,764.09,308Z"/><path class="cls-8" d="M764.09,318a5.29,5.29,0,1,1,5.29-5.29A5.29,5.29,0,0,1,764.09,318Zm0-9.41a4.12,4.12,0,1,0,4.12,4.12A4.13,4.13,0,0,0,764.09,308.56Z"/><path class="cls-8" d="M761.72,313.27a.58.58,0,0,1-.58-.59,3,3,0,0,1,3-2.95.58.58,0,0,1,0,1.16,1.79,1.79,0,0,0-1.79,1.79A.58.58,0,0,1,761.72,313.27Z"/><path class="cls-3" d="M774.6,320.9a4.7,4.7,0,1,0,4.7,4.7A4.7,4.7,0,0,0,774.6,320.9Z"/><path class="cls-8" d="M774.6,330.88a5.28,5.28,0,1,1,5.29-5.28A5.29,5.29,0,0,1,774.6,330.88Zm0-9.4a4.12,4.12,0,1,0,4.12,4.12A4.13,4.13,0,0,0,774.6,321.48Z"/><path class="cls-8" d="M772.23,326.18a.58.58,0,0,1-.58-.58,3,3,0,0,1,3-3,.58.58,0,1,1,0,1.16,1.8,1.8,0,0,0-1.79,1.8A.58.58,0,0,1,772.23,326.18Z"/><path class="cls-3" d="M785.11,306.84a4.7,4.7,0,1,0,4.71,4.7A4.71,4.71,0,0,0,785.11,306.84Z"/><path class="cls-8" d="M785.11,316.82a5.28,5.28,0,1,1,5.29-5.28A5.29,5.29,0,0,1,785.11,316.82Zm0-9.4a4.12,4.12,0,1,0,4.12,4.12A4.13,4.13,0,0,0,785.11,307.42Z"/><path class="cls-8" d="M787.49,312.12a.58.58,0,0,1-.58-.58,1.8,1.8,0,0,0-1.8-1.79.59.59,0,0,1,0-1.17,3,3,0,0,1,3,3A.58.58,0,0,1,787.49,312.12Z"/><path class="cls-3" d="M795.89,320.9a4.7,4.7,0,1,0,4.71,4.7A4.7,4.7,0,0,0,795.89,320.9Z"/><path class="cls-8" d="M795.89,330.88a5.28,5.28,0,1,1,5.29-5.28A5.29,5.29,0,0,1,795.89,330.88Zm0-9.4A4.12,4.12,0,1,0,800,325.6,4.13,4.13,0,0,0,795.89,321.48Z"/><path class="cls-8" d="M798.27,326.18a.58.58,0,0,1-.58-.58,1.81,1.81,0,0,0-1.8-1.8.58.58,0,0,1,0-1.16,3,3,0,0,1,3,3A.58.58,0,0,1,798.27,326.18Z"/><path class="cls-2" d="M770.44,322.91a8.29,8.29,0,1,0,8.28,8.28A8.29,8.29,0,0,0,770.44,322.91Z"/><path class="cls-2" d="M780.87,343.34H760a4.24,4.24,0,0,0-4.24,4.25v11.59h29.35V347.59A4.24,4.24,0,0,0,780.87,343.34Z"/><polygon class="cls-3" points="766.81 343.34 763.96 346.93 767.63 359.18 773.25 359.18 776.92 346.93 774.06 343.34 766.81 343.34"/><polygon class="cls-8" points="771.64 346.75 773.07 343.34 767.8 343.34 769.22 346.75 771.64 346.75"/><polygon class="cls-8" points="771.64 346.75 773.07 359.18 767.8 359.18 769.22 346.75 771.64 346.75"/><path class="cls-4" d="M811.34,291.65H744.91a5.16,5.16,0,0,0-5.15,5.15v45.31a5.16,5.16,0,0,0,5.15,5.15h10.27c0,.11,0,.22,0,.33v11.59a.59.59,0,0,0,.58.58h29.36a.58.58,0,0,0,.59-.58V347.59a1.83,1.83,0,0,0,0-.33h25.66a5.14,5.14,0,0,0,5.13-5.15V296.8A5.14,5.14,0,0,0,811.34,291.65Zm0,2.33a2.82,2.82,0,0,1,2.81,2.82v45.31a2.82,2.82,0,0,1-2.81,2.83h-3.79V294Zm-66.43,51a2.83,2.83,0,0,1-2.83-2.83V296.8a2.83,2.83,0,0,1,2.83-2.82h6v51Zm11.42,13.65v-11a1.19,1.19,0,0,1,0-.33,3.66,3.66,0,0,1,3.65-3.33h5.6l-2.1,2.63a.56.56,0,0,0-.11.54l.05.16,3.4,11.33Zm11.08-14.66,1.22,2.89-.06.44-1.08,9.45-2.83-9.45-.06-.21c.1-.12,2.65-3.32,2.5-3.12Zm6.37,0c.1.12,2.64,3.32,2.49,3.12l-.06.21-2.84,9.46-1.08-9.46,0-.44c0-.12,1.29-3.08,1.22-2.89Zm-2.52,2.24h-1.65l-.93-2.24h3.52Zm-2.8,12.42,1.28-11.26h1.39l1.29,11.26Zm16.07,0H774l3.4-11.33.05-.16a.65.65,0,0,0-.11-.54l-2.1-2.63h5.6a3.62,3.62,0,0,1,3.64,3.33,1.77,1.77,0,0,1,0,.33Zm.36-13.65a4.77,4.77,0,0,0-4-2.18H760a4.81,4.81,0,0,0-4,2.18h-3.31V294H805.8v51Z"/><path class="cls-4" d="M770.43,322.33a8.86,8.86,0,1,0,8.87,8.87A8.86,8.86,0,0,0,770.43,322.33Zm0,16.56a7.7,7.7,0,1,1,7.71-7.69A7.7,7.7,0,0,1,770.43,338.89Z"/><path class="cls-9" d="M824.57,290.16a1.8,1.8,0,1,0,1.79,1.79A1.8,1.8,0,0,0,824.57,290.16Z"/><path class="cls-8" d="M730.13,315.59a1.8,1.8,0,1,0,1.79,1.8A1.8,1.8,0,0,0,730.13,315.59Z"/><path class="cls-10" d="M798.27,361.16a1.8,1.8,0,1,0,1.8,1.79A1.8,1.8,0,0,0,798.27,361.16Z"/></g><g id="管理"><rect class="cls-11" x="125.6" y="481.3" width="52.28" height="17.67" rx="7.67"/><rect class="cls-11" x="92" y="510.17" width="62.19" height="17.67" rx="7.67"/><rect class="cls-11" x="74.24" y="481.3" width="35.51" height="17.67" rx="7.67"/><ellipse class="cls-12" cx="161.92" cy="468.71" rx="1.77" ry="1.27" transform="translate(-284 251.78) rotate(-45)"/><path class="cls-12" d="M93.88,465.63a3.63,3.63,0,0,1-5.09,5.09,1.69,1.69,0,0,1-.48-.48,3.63,3.63,0,0,1,5.09-5.09A1.69,1.69,0,0,1,93.88,465.63Z"/><path class="cls-13" d="M160.64,535.29A1.91,1.91,0,0,1,158,538a1.1,1.1,0,0,1-.28-.29,1.9,1.9,0,0,1,2.67-2.67A.93.93,0,0,1,160.64,535.29Z"/><path class="cls-14" d="M85.79,515.68a4.09,4.09,0,0,1-5.74,5.74,2.14,2.14,0,0,1-.52-.52,4.09,4.09,0,0,1,5.74-5.75A1.75,1.75,0,0,1,85.79,515.68Z"/><circle class="cls-2" cx="126.06" cy="501.38" r="19.2"/><path class="cls-15" d="M159.82,497.71a3.67,3.67,0,0,0-3.62,3.09h-9a21.08,21.08,0,0,0-2.53-9.48l7.82-4.51a3.69,3.69,0,1,0-.57-1L144,490.33a21.38,21.38,0,0,0-6.94-6.93l4.54-7.86a3.61,3.61,0,0,0,4.48-1.56,3.67,3.67,0,1,0-5.49,1l-4.51,7.82a20.94,20.94,0,0,0-9.48-2.52v-9a3.68,3.68,0,1,0-1.15,0v9A21,21,0,0,0,116,482.8L111.49,475a3.63,3.63,0,0,0,.87-4.67A3.67,3.67,0,1,0,106,474a3.6,3.6,0,0,0,4.47,1.56L115,483.4a21.34,21.34,0,0,0-6.93,6.93l-7.84-4.52a3.65,3.65,0,1,0-.57,1l7.81,4.51A20.94,20.94,0,0,0,105,500.8h-9a3.68,3.68,0,1,0,0,1.15h9a20.94,20.94,0,0,0,2.52,9.48l-7.81,4.51a3.67,3.67,0,1,0-1,5.49,3.65,3.65,0,0,0,1.59-4.49l7.84-4.52a21.25,21.25,0,0,0,6.93,6.93l-4.54,7.86a3.61,3.61,0,0,0-4.47,1.56,3.67,3.67,0,1,0,6.35,3.67,3.62,3.62,0,0,0-.87-4.67L116,520a21,21,0,0,0,9.49,2.52v9a3.67,3.67,0,1,0,1.15,0v-9a20.94,20.94,0,0,0,9.48-2.52l4.51,7.82a3.67,3.67,0,1,0,5.49,1,3.61,3.61,0,0,0-4.48-1.56l-4.54-7.86a21.28,21.28,0,0,0,6.94-6.93l7.84,4.52a3.66,3.66,0,1,0,5.25-1.87,3.67,3.67,0,0,0-4.68.87l-7.82-4.51a21.08,21.08,0,0,0,2.53-9.48h9a3.67,3.67,0,1,0,3.62-4.24ZM154,482.32a2.52,2.52,0,1,1,2.52,4.36,2.6,2.6,0,0,1-3.44-.92h0A2.52,2.52,0,0,1,154,482.32Zm-13.27-11.44a2.52,2.52,0,0,1,4.36,2.52,2.57,2.57,0,0,1-3.44.92A2.52,2.52,0,0,1,140.76,470.88ZM107,473.4a2.52,2.52,0,1,1,3.44.92A2.58,2.58,0,0,1,107,473.4ZM95.57,486.68a2.52,2.52,0,1,1,3.44-.92A2.59,2.59,0,0,1,95.57,486.68Zm2.52,33.75a2.57,2.57,0,0,1-3.44-.92A2.52,2.52,0,0,1,99,517h0A2.52,2.52,0,0,1,98.09,520.43Zm13.28,11.44a2.61,2.61,0,0,1-3.45.92,2.52,2.52,0,1,1,3.45-.92Zm33.75-2.52a2.53,2.53,0,0,1-.92,3.44,2.59,2.59,0,0,1-3.44-.92,2.52,2.52,0,0,1,4.36-2.52Zm11.43-13.28a2.51,2.51,0,0,1,.92,3.44,2.57,2.57,0,0,1-3.44.92,2.52,2.52,0,1,1,2.52-4.36Zm-33-48.45a2.52,2.52,0,1,1,2.52,2.52A2.52,2.52,0,0,1,123.54,467.62ZM92.31,503.89a2.52,2.52,0,1,1,2.52-2.51A2.52,2.52,0,0,1,92.31,503.89Zm36.27,31.24a2.52,2.52,0,1,1-2.52-2.52A2.52,2.52,0,0,1,128.58,535.13Zm-2.52-14.93a18.83,18.83,0,1,1,18.82-18.82A18.84,18.84,0,0,1,126.06,520.2Zm33.76-16.31a2.52,2.52,0,1,1,2.51-2.51A2.52,2.52,0,0,1,159.82,503.89Z"/><circle class="cls-3" cx="126.06" cy="501.38" r="14.75"/><path class="cls-2" d="M134.57,505.25v5.52h-17v-5.52a2.35,2.35,0,0,1,2.35-2.35h4.6l1.55,3.38,1.55-3.38h4.6A2.36,2.36,0,0,1,134.57,505.25Z"/><path class="cls-2" d="M130.73,494.35c0,2.58-2.09,6.21-4.67,6.21s-4.67-3.63-4.67-6.21a4.67,4.67,0,1,1,9.34,0Z"/><rect class="cls-11" x="288.56" y="481.3" width="52.28" height="17.67" rx="7.67"/><rect class="cls-11" x="254.96" y="510.17" width="62.19" height="17.67" rx="7.67"/><rect class="cls-11" x="237.2" y="481.3" width="35.51" height="17.67" rx="7.67"/><ellipse class="cls-12" cx="324.88" cy="468.71" rx="1.77" ry="1.27" transform="translate(-236.27 367.01) rotate(-45)"/><path class="cls-12" d="M256.84,465.63a3.63,3.63,0,0,1-5.09,5.09,1.57,1.57,0,0,1-.48-.48,3.63,3.63,0,0,1,5.09-5.09A1.83,1.83,0,0,1,256.84,465.63Z"/><path class="cls-13" d="M323.6,535.29a1.91,1.91,0,0,1-2.67,2.68,1.14,1.14,0,0,1-.29-.29,1.91,1.91,0,0,1,2.67-2.67A1,1,0,0,1,323.6,535.29Z"/><path class="cls-14" d="M248.75,515.68a4.09,4.09,0,0,1-5.74,5.74,2,2,0,0,1-.52-.52c-2.73-4.08,1.66-8.48,5.74-5.75A1.87,1.87,0,0,1,248.75,515.68Z"/><circle class="cls-2" cx="289.02" cy="501.38" r="19.2"/><path class="cls-15" d="M322.77,497.71a3.67,3.67,0,0,0-3.61,3.09h-9.05a20.94,20.94,0,0,0-2.52-9.48l7.82-4.51a3.66,3.66,0,1,0-.58-1L307,490.33a21.25,21.25,0,0,0-6.93-6.93l4.54-7.86a3.62,3.62,0,0,0,4.48-1.56,3.67,3.67,0,1,0-5.49,1l-4.51,7.82a21,21,0,0,0-9.48-2.52v-9a3.67,3.67,0,1,0-1.16,0v9A20.94,20.94,0,0,0,279,482.8L274.45,475a3.63,3.63,0,0,0,.87-4.67A3.67,3.67,0,1,0,269,474a3.61,3.61,0,0,0,4.48,1.56L278,483.4a21.25,21.25,0,0,0-6.93,6.93l-7.85-4.52a3.66,3.66,0,0,0-6.59-3.15,3.67,3.67,0,0,0,6,4.15l7.82,4.51a21.08,21.08,0,0,0-2.53,9.48h-9a3.68,3.68,0,1,0,0,1.15h9a21.08,21.08,0,0,0,2.53,9.48l-7.82,4.51a3.69,3.69,0,1,0,.57,1l7.85-4.52a21.15,21.15,0,0,0,6.93,6.93l-4.54,7.86a3.62,3.62,0,0,0-4.48,1.56,3.67,3.67,0,1,0,5.49-1L279,520a20.94,20.94,0,0,0,9.48,2.52v9a3.67,3.67,0,1,0,1.16,0v-9a21,21,0,0,0,9.48-2.52l4.51,7.82a3.67,3.67,0,1,0,5.49,1,3.61,3.61,0,0,0-4.48-1.56l-4.54-7.86a21.25,21.25,0,0,0,6.93-6.93l7.84,4.52a3.68,3.68,0,1,0,.58-1l-7.82-4.51a20.94,20.94,0,0,0,2.52-9.48h9.05a3.66,3.66,0,1,0,3.61-4.24ZM317,482.32a2.52,2.52,0,1,1,2.52,4.36,2.6,2.6,0,0,1-3.44-.92h0A2.52,2.52,0,0,1,317,482.32Zm-13.27-11.44a2.52,2.52,0,0,1,4.36,2.52,2.58,2.58,0,0,1-3.44.92A2.51,2.51,0,0,1,303.72,470.88ZM270,473.4a2.52,2.52,0,1,1,3.44.92A2.57,2.57,0,0,1,270,473.4Zm-11.43,13.28a2.52,2.52,0,1,1,3.44-.92A2.6,2.6,0,0,1,258.53,486.68Zm2.52,33.75a2.57,2.57,0,0,1-3.44-.92A2.52,2.52,0,0,1,262,517h0A2.52,2.52,0,0,1,261.05,520.43Zm13.27,11.44a2.59,2.59,0,0,1-3.44.92,2.52,2.52,0,1,1,3.44-.92Zm33.76-2.52a2.53,2.53,0,0,1-.92,3.44,2.59,2.59,0,0,1-3.44-.92,2.52,2.52,0,0,1,4.36-2.52Zm11.43-13.28a2.51,2.51,0,0,1,.92,3.44,2.57,2.57,0,0,1-3.44.92,2.52,2.52,0,1,1,2.52-4.36Zm-33-48.45a2.52,2.52,0,1,1,2.52,2.52A2.52,2.52,0,0,1,286.5,467.62Zm-31.24,36.27a2.52,2.52,0,1,1,2.52-2.51A2.52,2.52,0,0,1,255.26,503.89Zm36.28,31.24a2.52,2.52,0,1,1-2.52-2.52A2.52,2.52,0,0,1,291.54,535.13ZM289,520.2a18.83,18.83,0,1,1,18.82-18.82A18.84,18.84,0,0,1,289,520.2Zm33.75-16.31a2.52,2.52,0,1,1,2.52-2.51A2.52,2.52,0,0,1,322.77,503.89Z"/><circle class="cls-3" cx="289.02" cy="501.38" r="14.75"/><path class="cls-2" d="M297.53,505.25v5.52h-17v-5.52a2.36,2.36,0,0,1,2.36-2.35h4.6l1.55,3.38,1.54-3.38h4.61A2.36,2.36,0,0,1,297.53,505.25Z"/><path class="cls-2" d="M293.69,494.35c0,2.58-2.09,6.21-4.67,6.21s-4.67-3.63-4.67-6.21a4.67,4.67,0,0,1,9.34,0Z"/><rect class="cls-11" x="451.52" y="481.3" width="52.28" height="17.67" rx="7.67"/><rect class="cls-11" x="417.91" y="510.17" width="62.19" height="17.67" rx="7.67"/><rect class="cls-11" x="400.16" y="481.3" width="35.51" height="17.67" rx="7.67"/><ellipse class="cls-12" cx="487.84" cy="468.71" rx="1.77" ry="1.27" transform="translate(-188.54 482.24) rotate(-45)"/><path class="cls-12" d="M419.79,465.63a3.62,3.62,0,0,1-5.09,5.09,1.66,1.66,0,0,1-.47-.48,3.63,3.63,0,0,1,5.09-5.09A1.65,1.65,0,0,1,419.79,465.63Z"/><path class="cls-13" d="M486.55,535.29a1.91,1.91,0,0,1-2.67,2.68,1.1,1.1,0,0,1-.28-.29,1.9,1.9,0,0,1,2.67-2.67A.93.93,0,0,1,486.55,535.29Z"/><path class="cls-14" d="M411.71,515.68a4.09,4.09,0,0,1-5.74,5.74,1.84,1.84,0,0,1-.52-.52c-2.73-4.08,1.66-8.48,5.74-5.75A2,2,0,0,1,411.71,515.68Z"/><circle class="cls-2" cx="451.98" cy="501.38" r="19.2"/><path class="cls-15" d="M485.73,497.71a3.66,3.66,0,0,0-3.61,3.09h-9.05a20.94,20.94,0,0,0-2.52-9.48l7.81-4.51a3.69,3.69,0,1,0-.57-1L470,490.33A21.34,21.34,0,0,0,463,483.4l4.54-7.86A3.6,3.6,0,0,0,472,474a3.67,3.67,0,1,0-6.35-3.67,3.64,3.64,0,0,0,.87,4.67L462,482.8a20.94,20.94,0,0,0-9.48-2.52v-9a3.67,3.67,0,1,0-1.15,0v9a20.94,20.94,0,0,0-9.48,2.52L437.4,475a3.63,3.63,0,0,0,.88-4.67,3.67,3.67,0,1,0-6.36,3.67,3.61,3.61,0,0,0,4.48,1.56l4.53,7.86a21.44,21.44,0,0,0-6.93,6.93l-7.84-4.52a3.65,3.65,0,1,0-.57,1l7.81,4.51a20.94,20.94,0,0,0-2.52,9.48h-9.05a3.68,3.68,0,1,0,0,1.15h9.05a20.94,20.94,0,0,0,2.52,9.48l-7.81,4.51a3.69,3.69,0,1,0,.57,1l7.84-4.52a21.34,21.34,0,0,0,6.93,6.93l-4.53,7.86a3.62,3.62,0,0,0-4.48,1.56,3.67,3.67,0,1,0,6.36,3.67,3.63,3.63,0,0,0-.88-4.67l4.52-7.82a20.94,20.94,0,0,0,9.48,2.52v9a3.68,3.68,0,1,0,1.15,0v-9A20.94,20.94,0,0,0,462,520l4.52,7.82a3.66,3.66,0,0,0,4.14,6,3.68,3.68,0,0,0,1.34-5,3.6,3.6,0,0,0-4.47-1.56L463,519.35a21.25,21.25,0,0,0,6.93-6.93l7.84,4.52a3.65,3.65,0,1,0,.57-1l-7.81-4.51a20.94,20.94,0,0,0,2.52-9.48h9.05a3.66,3.66,0,1,0,3.61-4.24ZM480,482.32a2.52,2.52,0,1,1,2.52,4.36,2.59,2.59,0,0,1-3.44-.92h0A2.51,2.51,0,0,1,480,482.32Zm-13.28-11.44A2.52,2.52,0,0,1,471,473.4a2.59,2.59,0,0,1-3.45.92A2.52,2.52,0,0,1,466.67,470.88Zm-33.75,2.52a2.52,2.52,0,1,1,3.44.92A2.57,2.57,0,0,1,432.92,473.4Zm-11.44,13.28a2.52,2.52,0,1,1,3.45-.92A2.61,2.61,0,0,1,421.48,486.68ZM424,520.43a2.58,2.58,0,0,1-3.44-.92,2.52,2.52,0,1,1,4.36-2.52h0A2.52,2.52,0,0,1,424,520.43Zm13.28,11.44a2.59,2.59,0,0,1-3.44.92,2.52,2.52,0,1,1,3.44-.92ZM471,529.35a2.52,2.52,0,0,1-.93,3.44,2.6,2.6,0,0,1-3.44-.92,2.52,2.52,0,0,1,4.37-2.52Zm11.43-13.28a2.52,2.52,0,0,1,.92,3.44,2.57,2.57,0,0,1-3.44.92,2.52,2.52,0,1,1,2.52-4.36Zm-33-48.45a2.52,2.52,0,1,1,2.52,2.52A2.52,2.52,0,0,1,449.46,467.62Zm-31.24,36.27a2.52,2.52,0,1,1,2.52-2.51A2.52,2.52,0,0,1,418.22,503.89Zm36.28,31.24a2.52,2.52,0,1,1-2.52-2.52A2.52,2.52,0,0,1,454.5,535.13ZM452,520.2a18.83,18.83,0,1,1,18.82-18.82A18.84,18.84,0,0,1,452,520.2Zm33.75-16.31a2.52,2.52,0,1,1,2.52-2.51A2.52,2.52,0,0,1,485.73,503.89Z"/><circle class="cls-3" cx="451.98" cy="501.38" r="14.75"/><path class="cls-2" d="M460.48,505.25v5.52h-17v-5.52a2.35,2.35,0,0,1,2.36-2.35h4.6l1.54,3.38,1.55-3.38h4.61A2.35,2.35,0,0,1,460.48,505.25Z"/><path class="cls-2" d="M456.65,494.35c0,2.58-2.09,6.21-4.67,6.21s-4.68-3.63-4.68-6.21a4.68,4.68,0,0,1,9.35,0Z"/><rect class="cls-11" x="614.48" y="481.3" width="52.28" height="17.67" rx="7.67"/><rect class="cls-11" x="580.87" y="510.17" width="62.19" height="17.67" rx="7.67"/><rect class="cls-11" x="563.12" y="481.3" width="35.51" height="17.67" rx="7.67"/><ellipse class="cls-12" cx="650.8" cy="468.71" rx="1.77" ry="1.27" transform="translate(-140.81 597.46) rotate(-45)"/><path class="cls-12" d="M582.75,465.63a3.63,3.63,0,0,1-5.09,5.09,1.54,1.54,0,0,1-.47-.48,3.63,3.63,0,0,1,5.09-5.09A1.79,1.79,0,0,1,582.75,465.63Z"/><path class="cls-13" d="M649.51,535.29a1.91,1.91,0,0,1-2.67,2.68,1.1,1.1,0,0,1-.28-.29,1.9,1.9,0,0,1,2.67-2.67A.93.93,0,0,1,649.51,535.29Z"/><path class="cls-14" d="M574.67,515.68a4.09,4.09,0,0,1-5.75,5.74,2.14,2.14,0,0,1-.52-.52,4.09,4.09,0,0,1,5.75-5.75A2,2,0,0,1,574.67,515.68Z"/><circle class="cls-2" cx="614.93" cy="501.38" r="19.2"/><path class="cls-15" d="M648.69,497.71a3.66,3.66,0,0,0-3.61,3.09H636a20.94,20.94,0,0,0-2.52-9.48l7.81-4.51a3.69,3.69,0,1,0-.57-1l-7.84,4.52A21.34,21.34,0,0,0,626,483.4l4.53-7.86A3.61,3.61,0,0,0,635,474a3.67,3.67,0,1,0-5.48,1L625,482.8a20.94,20.94,0,0,0-9.48-2.52v-9a3.68,3.68,0,1,0-1.15,0v9a20.94,20.94,0,0,0-9.48,2.52L600.36,475a3.65,3.65,0,0,0,.88-4.67,3.67,3.67,0,1,0-6.36,3.67,3.6,3.6,0,0,0,4.48,1.56l4.53,7.86a21.34,21.34,0,0,0-6.93,6.93l-7.84-4.52a3.65,3.65,0,1,0-.57,1l7.81,4.51a20.94,20.94,0,0,0-2.52,9.48h-9.05a3.68,3.68,0,1,0,0,1.15h9.05a20.94,20.94,0,0,0,2.52,9.48l-7.81,4.51a3.69,3.69,0,1,0,.57,1l7.84-4.52a21.25,21.25,0,0,0,6.93,6.93l-4.53,7.86a3.62,3.62,0,0,0-4.48,1.56,3.67,3.67,0,1,0,6.36,3.67,3.63,3.63,0,0,0-.88-4.67l4.52-7.82a20.94,20.94,0,0,0,9.48,2.52v9a3.68,3.68,0,1,0,1.15,0v-9A20.94,20.94,0,0,0,625,520l4.52,7.82a3.66,3.66,0,1,0,5.48,1,3.61,3.61,0,0,0-4.48-1.56L626,519.35a21.25,21.25,0,0,0,6.93-6.93l7.84,4.52a3.65,3.65,0,0,0,1.58,4.49,3.67,3.67,0,1,0-1-5.49l-7.81-4.51A20.94,20.94,0,0,0,636,502h9.05a3.66,3.66,0,1,0,3.61-4.24Zm-5.78-15.39a2.52,2.52,0,1,1,2.52,4.36,2.59,2.59,0,0,1-3.44-.92h0A2.51,2.51,0,0,1,642.91,482.32Zm-13.28-11.44A2.52,2.52,0,0,1,634,473.4a2.57,2.57,0,0,1-3.44.92A2.52,2.52,0,0,1,629.63,470.88Zm-33.75,2.52a2.52,2.52,0,1,1,3.44.92A2.57,2.57,0,0,1,595.88,473.4Zm-11.44,13.28a2.52,2.52,0,1,1,3.44-.92A2.59,2.59,0,0,1,584.44,486.68ZM587,520.43a2.58,2.58,0,0,1-3.44-.92,2.52,2.52,0,0,1,4.36-2.52h0A2.51,2.51,0,0,1,587,520.43Zm13.28,11.44a2.6,2.6,0,0,1-3.44.92,2.52,2.52,0,1,1,3.44-.92ZM634,529.35a2.52,2.52,0,0,1-.92,3.44,2.59,2.59,0,0,1-3.44-.92,2.52,2.52,0,1,1,4.36-2.52Zm11.44-13.28a2.53,2.53,0,0,1,.92,3.44,2.58,2.58,0,0,1-3.44.92,2.52,2.52,0,0,1,2.52-4.36Zm-33-48.45a2.52,2.52,0,1,1,2.51,2.52A2.52,2.52,0,0,1,612.42,467.62Zm-31.24,36.27a2.52,2.52,0,1,1,2.52-2.51A2.52,2.52,0,0,1,581.18,503.89Zm36.27,31.24a2.52,2.52,0,1,1-2.52-2.52A2.52,2.52,0,0,1,617.45,535.13Zm-2.52-14.93a18.83,18.83,0,1,1,18.83-18.82A18.85,18.85,0,0,1,614.93,520.2Zm33.76-16.31a2.52,2.52,0,1,1,2.52-2.51A2.52,2.52,0,0,1,648.69,503.89Z"/><circle class="cls-3" cx="614.93" cy="501.38" r="14.75"/><path class="cls-2" d="M623.44,505.25v5.52h-17v-5.52a2.35,2.35,0,0,1,2.35-2.35h4.6l1.55,3.38,1.55-3.38h4.6A2.36,2.36,0,0,1,623.44,505.25Z"/><path class="cls-2" d="M619.61,494.35c0,2.58-2.1,6.21-4.68,6.21s-4.67-3.63-4.67-6.21a4.68,4.68,0,0,1,9.35,0Z"/><rect class="cls-11" x="777.43" y="481.3" width="52.28" height="17.67" rx="7.67"/><rect class="cls-11" x="743.83" y="510.17" width="62.19" height="17.67" rx="7.67"/><rect class="cls-11" x="726.07" y="481.3" width="35.51" height="17.67" rx="7.67"/><ellipse class="cls-12" cx="813.75" cy="468.71" rx="1.77" ry="1.27" transform="translate(-93.08 712.69) rotate(-45)"/><path class="cls-12" d="M745.71,465.63a3.63,3.63,0,0,1-5.09,5.09,1.69,1.69,0,0,1-.48-.48,3.63,3.63,0,0,1,5.1-5.09A1.79,1.79,0,0,1,745.71,465.63Z"/><path class="cls-13" d="M812.47,535.29A1.91,1.91,0,0,1,809.8,538a1.1,1.1,0,0,1-.28-.29,1.9,1.9,0,0,1,2.67-2.67A.93.93,0,0,1,812.47,535.29Z"/><path class="cls-14" d="M737.63,515.68a4.09,4.09,0,0,1-5.75,5.74,2.14,2.14,0,0,1-.52-.52,4.09,4.09,0,0,1,5.74-5.75A1.91,1.91,0,0,1,737.63,515.68Z"/><circle class="cls-2" cx="777.89" cy="501.38" r="19.2"/><path class="cls-15" d="M811.65,497.71A3.65,3.65,0,0,0,808,500.8h-9a21.08,21.08,0,0,0-2.53-9.48l7.82-4.51a3.69,3.69,0,1,0-.57-1l-7.84,4.52a21.38,21.38,0,0,0-6.94-6.93l4.54-7.86A3.61,3.61,0,0,0,798,474a3.67,3.67,0,1,0-5.49,1L788,482.8a20.94,20.94,0,0,0-9.48-2.52v-9a3.68,3.68,0,1,0-1.15,0v9a21,21,0,0,0-9.49,2.52L763.32,475a3.63,3.63,0,0,0,.87-4.67,3.67,3.67,0,1,0-6.35,3.67,3.6,3.6,0,0,0,4.47,1.56l4.54,7.86a21.34,21.34,0,0,0-6.93,6.93l-7.84-4.52a3.65,3.65,0,1,0-.57,1l7.81,4.51a20.94,20.94,0,0,0-2.52,9.48h-9a3.68,3.68,0,1,0,0,1.15h9a20.94,20.94,0,0,0,2.52,9.48l-7.81,4.51a3.69,3.69,0,1,0,.57,1l7.84-4.52a21.25,21.25,0,0,0,6.93,6.93l-4.54,7.86a3.61,3.61,0,0,0-4.47,1.56,3.67,3.67,0,1,0,6.35,3.67,3.62,3.62,0,0,0-.87-4.67l4.51-7.82a21,21,0,0,0,9.49,2.52v9a3.67,3.67,0,1,0,1.15,0v-9A20.94,20.94,0,0,0,788,520l4.51,7.82a3.67,3.67,0,1,0,5.49,1,3.61,3.61,0,0,0-4.48-1.56l-4.54-7.86a21.28,21.28,0,0,0,6.94-6.93l7.84,4.52a3.66,3.66,0,1,0,5.25-1.87,3.67,3.67,0,0,0-4.68.87l-7.82-4.51A21.08,21.08,0,0,0,799,502h9a3.66,3.66,0,1,0,3.61-4.24Zm-5.78-15.39a2.52,2.52,0,1,1,2.51,4.36,2.6,2.6,0,0,1-3.44-.92h0A2.52,2.52,0,0,1,805.87,482.32Zm-13.28-11.44A2.52,2.52,0,1,1,797,473.4a2.57,2.57,0,0,1-3.44.92A2.52,2.52,0,0,1,792.59,470.88Zm-33.76,2.52a2.52,2.52,0,1,1,3.44.92A2.58,2.58,0,0,1,758.83,473.4ZM747.4,486.68a2.52,2.52,0,1,1,3.44-.92A2.59,2.59,0,0,1,747.4,486.68Zm2.52,33.75a2.57,2.57,0,0,1-3.44-.92,2.52,2.52,0,1,1,4.36-2.52h0A2.51,2.51,0,0,1,749.92,520.43Zm13.28,11.44a2.6,2.6,0,0,1-3.44.92,2.52,2.52,0,1,1,3.44-.92ZM797,529.35a2.52,2.52,0,0,1-.92,3.44,2.59,2.59,0,0,1-3.44-.92,2.52,2.52,0,1,1,4.36-2.52Zm11.43-13.28a2.52,2.52,0,0,1,.93,3.44,2.58,2.58,0,0,1-3.44.92,2.52,2.52,0,1,1,2.51-4.36Zm-33-48.45a2.52,2.52,0,1,1,2.52,2.52A2.52,2.52,0,0,1,775.37,467.62Zm-31.23,36.27a2.52,2.52,0,1,1,2.52-2.51A2.52,2.52,0,0,1,744.14,503.89Zm36.27,31.24a2.52,2.52,0,1,1-2.52-2.52A2.52,2.52,0,0,1,780.41,535.13Zm-2.52-14.93a18.83,18.83,0,1,1,18.82-18.82A18.84,18.84,0,0,1,777.89,520.2Zm33.76-16.31a2.52,2.52,0,1,1,2.52-2.51A2.52,2.52,0,0,1,811.65,503.89Z"/><circle class="cls-3" cx="777.89" cy="501.38" r="14.75"/><path class="cls-2" d="M786.4,505.25v5.52h-17v-5.52a2.35,2.35,0,0,1,2.35-2.35h4.6l1.55,3.38,1.55-3.38H784A2.36,2.36,0,0,1,786.4,505.25Z"/><path class="cls-2" d="M782.56,494.35c0,2.58-2.09,6.21-4.67,6.21s-4.67-3.63-4.67-6.21a4.67,4.67,0,1,1,9.34,0Z"/></g><g id="文字"><text class="cls-16" transform="translate(25.74 138.91)">计算</text><text class="cls-16" transform="translate(112.37 53.62)">就绪</text><text class="cls-16" transform="translate(275.78 53.62)">运行</text><text class="cls-16" transform="translate(439.16 53.62)">睡眠</text><text class="cls-16" transform="translate(599.62 53.62)">阻塞</text><text class="cls-16" transform="translate(755.31 53.62)">未创建</text><text class="cls-16" transform="translate(25.74 324)">控制</text><text class="cls-16" transform="translate(25.74 506.42)">管理</text></g><g id="就绪"><circle class="cls-17" cx="157.13" cy="166.1" r="13.81"/><circle class="cls-3" cx="157.13" cy="166.01" r="11.01"/><path class="cls-18" d="M154.74,169.41l-.15,0a.81.81,0,0,1-.54-.34l-2.46-3.56a.84.84,0,1,1,1.38-1l2,2.86,6.6-4.58a.84.84,0,0,1,1,1.39l-7.29,5.06A.83.83,0,0,1,154.74,169.41Z"/><circle class="cls-17" cx="157.13" cy="349.49" r="13.81"/><circle class="cls-3" cx="157.13" cy="349.4" r="11.01"/><path class="cls-18" d="M154.74,352.8l-.15,0a.82.82,0,0,1-.54-.35l-2.46-3.55a.85.85,0,0,1,.21-1.17.84.84,0,0,1,1.17.21l2,2.86,6.6-4.58a.84.84,0,1,1,1,1.38l-7.29,5.07A.91.91,0,0,1,154.74,352.8Z"/><circle class="cls-17" cx="161.3" cy="533.15" r="13.81"/><circle class="cls-3" cx="161.3" cy="533.06" r="11.01"/><path class="cls-18" d="M158.92,536.46l-.15,0a.84.84,0,0,1-.55-.35l-2.46-3.55a.85.85,0,0,1,.22-1.17.84.84,0,0,1,1.17.21l2,2.86,6.59-4.58a.85.85,0,0,1,1.17.21.84.84,0,0,1-.21,1.17l-7.28,5.07A.93.93,0,0,1,158.92,536.46Z"/></g><g id="运行"><circle class="cls-19" cx="320.09" cy="166.1" r="13.81"/><circle class="cls-3" cx="320.09" cy="166.01" r="11.01"/><path class="cls-20" d="M324.42,166.45l-6.59,4A.52.52,0,0,1,317,170v-8a.52.52,0,0,1,.79-.45l6.59,4A.51.51,0,0,1,324.42,166.45Z"/><circle class="cls-19" cx="320.09" cy="349.49" r="13.81"/><circle class="cls-3" cx="320.09" cy="349.4" r="11.01"/><path class="cls-20" d="M324.42,349.84l-6.59,4a.52.52,0,0,1-.79-.44v-8a.52.52,0,0,1,.79-.44l6.59,4A.51.51,0,0,1,324.42,349.84Z"/><circle class="cls-19" cx="324.26" cy="533.15" r="13.81"/><circle class="cls-3" cx="324.26" cy="533.06" r="11.01"/><path class="cls-20" d="M328.59,533.5l-6.59,4a.51.51,0,0,1-.78-.44v-8a.51.51,0,0,1,.78-.44l6.59,4A.51.51,0,0,1,328.59,533.5Z"/></g><g id="睡眠"><circle class="cls-21" cx="483.13" cy="166.01" r="13.9"/><circle class="cls-3" cx="483.13" cy="165.93" r="11.08"/><path class="cls-22" d="M479,165a1.84,1.84,0,0,1-2.59,2.59,1.09,1.09,0,0,1-.24-.24,1.84,1.84,0,0,1,2.59-2.59A1.09,1.09,0,0,1,479,165Z"/><path class="cls-22" d="M484.57,165a1.84,1.84,0,0,1-2.59,2.59,1.09,1.09,0,0,1-.24-.24,1.84,1.84,0,0,1,2.59-2.59A1.09,1.09,0,0,1,484.57,165Z"/><path class="cls-22" d="M490.16,165a1.84,1.84,0,0,1-2.59,2.59,1.09,1.09,0,0,1-.24-.24,1.84,1.84,0,0,1,2.59-2.59A.91.91,0,0,1,490.16,165Z"/><circle class="cls-21" cx="483.13" cy="349.4" r="13.9"/><circle class="cls-3" cx="483.13" cy="349.31" r="11.08"/><path class="cls-22" d="M479,348.34a1.85,1.85,0,0,1-2.59,2.59,1,1,0,0,1-.24-.25,1.84,1.84,0,0,1,2.59-2.58A.91.91,0,0,1,479,348.34Z"/><path class="cls-22" d="M484.57,348.34a1.85,1.85,0,0,1-2.59,2.59,1,1,0,0,1-.24-.25,1.84,1.84,0,0,1,2.59-2.58A.91.91,0,0,1,484.57,348.34Z"/><path class="cls-22" d="M490.16,348.34a1.85,1.85,0,0,1-2.59,2.59,1,1,0,0,1-.24-.25,1.84,1.84,0,0,1,2.59-2.58A.78.78,0,0,1,490.16,348.34Z"/><circle class="cls-21" cx="487.3" cy="533.06" r="13.9"/><circle class="cls-3" cx="487.3" cy="532.98" r="11.08"/><path class="cls-22" d="M483.15,532a1.84,1.84,0,0,1-2.59,2.59,1.14,1.14,0,0,1-.24-.25,1.84,1.84,0,0,1,2.59-2.58A.78.78,0,0,1,483.15,532Z"/><path class="cls-22" d="M488.74,532a1.84,1.84,0,0,1-2.58,2.59,1,1,0,0,1-.25-.25,1.84,1.84,0,0,1,2.59-2.58A.69.69,0,0,1,488.74,532Z"/><path class="cls-22" d="M494.33,532a1.84,1.84,0,0,1-2.58,2.59,1,1,0,0,1-.25-.25,1.84,1.84,0,0,1,2.59-2.58A.69.69,0,0,1,494.33,532Z"/></g><g id="阻塞"><circle class="cls-23" cx="645.91" cy="166.28" r="13.72"/><circle class="cls-3" cx="645.91" cy="166.19" r="10.94"/><line class="cls-24" x1="641.27" y1="166.37" x2="650.9" y2="166.37"/><circle class="cls-23" cx="645.91" cy="349.67" r="13.72"/><circle class="cls-3" cx="645.91" cy="349.58" r="10.94"/><line class="cls-24" x1="641.27" y1="349.75" x2="650.9" y2="349.75"/><circle class="cls-23" cx="650.09" cy="533.33" r="13.72"/><circle class="cls-3" cx="650.09" cy="533.24" r="10.94"/><line class="cls-24" x1="645.44" y1="533.41" x2="655.07" y2="533.41"/></g><g id="未创建"><circle class="cls-25" cx="809.04" cy="166.01" r="13.9"/><circle class="cls-3" cx="809.04" cy="165.93" r="11.08"/><polygon class="cls-26" points="810.11 168.1 807.98 168.1 807.26 160.51 810.83 160.51 810.11 168.1"/><path class="cls-26" d="M810.09,169.63a1.33,1.33,0,0,1-1.86,1.85.69.69,0,0,1-.23-.22,1.33,1.33,0,0,1,1.86-1.86A.84.84,0,0,1,810.09,169.63Z"/><circle class="cls-25" cx="809.04" cy="349.4" r="13.9"/><circle class="cls-3" cx="809.04" cy="349.31" r="11.08"/><polygon class="cls-26" points="810.11 351.48 807.98 351.48 807.26 343.9 810.83 343.9 810.11 351.48"/><path class="cls-26" d="M810.09,353a1.33,1.33,0,0,1-1.86,1.85.84.84,0,0,1-.23-.23,1.33,1.33,0,0,1,1.86-1.85A.84.84,0,0,1,810.09,353Z"/><circle class="cls-25" cx="813.22" cy="533.06" r="13.9"/><circle class="cls-3" cx="813.22" cy="532.98" r="11.08"/><polygon class="cls-26" points="814.28 535.14 812.16 535.14 811.44 527.56 815 527.56 814.28 535.14"/><path class="cls-26" d="M814.26,536.68a1.32,1.32,0,0,1-1.85,1.85.63.63,0,0,1-.23-.23,1.32,1.32,0,0,1,1.85-1.85A.84.84,0,0,1,814.26,536.68Z"/></g></svg>