<svg xmlns="http://www.w3.org/2000/svg" viewBox="0 0 116.81 105.35"><defs><style>.cls-1{fill:#bfe4ed;}.cls-2{fill:#65bcda;}.cls-3{fill:#fff;}.cls-4{fill:#050000;}.cls-5{fill:#f0e7ed;}.cls-6{fill:#75bfaf;}.cls-7{fill:#ea5452;stroke:#050101;stroke-miterlimit:10;}.cls-8{fill:none;stroke:#ea5452;stroke-linecap:round;stroke-linejoin:round;stroke-width:3px;}</style></defs><g id="计算"><rect class="cls-1" x="69.12" y="30.84" width="41.44" height="19.01" rx="9.48"/><rect class="cls-1" x="7.07" y="14.7" width="29.9" height="19.01" rx="9.48"/><rect class="cls-1" x="15.39" y="70.45" width="41.44" height="19.01" rx="9.48"/><path class="cls-2" d="M33.06,56a8.94,8.94,0,0,1-.5-17.86,7.74,7.74,0,0,1-.14-1.54,9,9,0,0,1,9-8.94,8.81,8.81,0,0,1,3.7.8,14.39,14.39,0,0,1,28.44.29,8.85,8.85,0,0,1,4.29-1.09,8.94,8.94,0,0,1,8.94,8.94,8,8,0,0,1-.14,1.56,8.44,8.44,0,0,1,1,0,8.95,8.95,0,0,1,0,17.89Z"/><rect class="cls-3" x="32.36" y="44.12" width="15.41" height="27.85" rx="0.94"/><rect class="cls-2" x="38.3" y="42.82" width="3.54" height="10.81" transform="translate(88.29 8.15) rotate(90)"/><rect class="cls-2" x="38.3" y="49.01" width="3.54" height="10.81" transform="translate(94.49 14.35) rotate(90)"/><rect class="cls-2" x="38.3" y="55.21" width="3.54" height="10.81" transform="translate(100.69 20.55) rotate(90)"/><rect class="cls-3" x="52.63" y="47.57" width="15.41" height="27.85" rx="0.94"/><rect class="cls-2" x="58.56" y="46.27" width="3.54" height="10.81" transform="translate(112.01 -8.66) rotate(90)"/><rect class="cls-2" x="58.57" y="52.46" width="3.54" height="10.81" transform="translate(118.2 -2.47) rotate(90)"/><rect class="cls-2" x="58.56" y="58.66" width="3.54" height="10.81" transform="translate(124.4 3.73) rotate(90)"/><rect class="cls-3" x="72.89" y="44.12" width="15.41" height="27.85" rx="0.94"/><rect class="cls-2" x="78.83" y="42.82" width="3.54" height="10.81" transform="translate(128.82 -32.38) rotate(90)"/><rect class="cls-2" x="78.83" y="49.01" width="3.54" height="10.81" transform="translate(135.02 -26.18) rotate(90)"/><rect class="cls-2" x="78.83" y="55.21" width="3.54" height="10.81" transform="translate(141.22 -19.98) rotate(90)"/><path class="cls-2" d="M40.07,64.37A2.63,2.63,0,1,0,42.7,67,2.63,2.63,0,0,0,40.07,64.37Z"/><path class="cls-2" d="M60.34,67.82A2.63,2.63,0,1,0,63,70.45,2.63,2.63,0,0,0,60.34,67.82Z"/><path class="cls-2" d="M80.6,64.37A2.63,2.63,0,1,0,83.23,67,2.63,2.63,0,0,0,80.6,64.37Z"/><rect class="cls-3" x="57.27" y="82.22" width="6.14" height="6.14"/><rect class="cls-3" x="77.53" y="82.22" width="6.14" height="6.14"/><rect class="cls-3" x="37" y="82.22" width="6.14" height="6.14"/><path class="cls-4" d="M94.71,84.72H84.25v-2.5a.58.58,0,0,0-.58-.57H81.18V72.54h6.18A1.52,1.52,0,0,0,88.88,71V57a10.1,10.1,0,0,0-1-20.11v-.36a10.1,10.1,0,0,0-10.08-10.1,10.24,10.24,0,0,0-3.44.6A15.61,15.61,0,0,0,59.28,15.22,15.43,15.43,0,0,0,44.23,26.88a9.73,9.73,0,0,0-2.85-.42,10.11,10.11,0,0,0-10.11,10.1c0,.17,0,.36,0,.53A10.09,10.09,0,0,0,31.79,57V71a1.52,1.52,0,0,0,1.52,1.52h6.18v9.11H37a.58.58,0,0,0-.58.57v2.5H26a.57.57,0,0,0-.58.57.59.59,0,0,0,.58.58H36.42v2.49a.59.59,0,0,0,.58.58h6.14a.58.58,0,0,0,.57-.58V85.87h13v2.49a.58.58,0,0,0,.57.58H63.4a.58.58,0,0,0,.57-.58V85.87H77v2.49a.58.58,0,0,0,.57.58h6.14a.59.59,0,0,0,.58-.58V85.87H94.71a.59.59,0,0,0,.58-.58A.57.57,0,0,0,94.71,84.72Zm-7-13.7a.37.37,0,0,1-.37.37H73.84a.37.37,0,0,1-.37-.37v-26a.36.36,0,0,1,.37-.37H87.36a.36.36,0,0,1,.37.37ZM25.27,47a7.77,7.77,0,0,1,7.35-7.76,1.12,1.12,0,0,0,.85-.44,1.14,1.14,0,0,0,.21-.93,8.55,8.55,0,0,1-.11-1.31,7.78,7.78,0,0,1,11-7.09,1.18,1.18,0,0,0,1,0,1.13,1.13,0,0,0,.6-.83A13.14,13.14,0,0,1,59.28,17.52a13.28,13.28,0,0,1,13.1,11.35,1.15,1.15,0,0,0,1.69.85,7.78,7.78,0,0,1,11.52,6.84,7.17,7.17,0,0,1-.11,1.35,1.13,1.13,0,0,0,.3,1,1.11,1.11,0,0,0,1,.35,8.31,8.31,0,0,1,.87,0,7.79,7.79,0,0,1,1.26,15.47V45.06a1.52,1.52,0,0,0-1.52-1.52H73.84a1.52,1.52,0,0,0-1.52,1.52v9.75h-3.7v-6.3A1.52,1.52,0,0,0,67.1,47H53.57a1.53,1.53,0,0,0-1.52,1.52v6.3h-3.7V45.06a1.52,1.52,0,0,0-1.51-1.52H33.31a1.52,1.52,0,0,0-1.52,1.52v9.63A7.78,7.78,0,0,1,25.27,47Zm28.3,27.84a.38.38,0,0,1-.37-.37v-26a.37.37,0,0,1,.37-.37H67.1a.37.37,0,0,1,.37.37v26a.38.38,0,0,1-.37.37ZM32.94,71v-26a.36.36,0,0,1,.37-.37H46.84a.36.36,0,0,1,.36.37V71a.37.37,0,0,1-.36.37H33.31A.37.37,0,0,1,32.94,71Zm9.62,16.77h-5v-5h5Zm1.15-3.07v-2.5a.56.56,0,0,0-.57-.57h-2.5V72.54h6.2A1.52,1.52,0,0,0,48.35,71V57.11h3.7V74.47A1.53,1.53,0,0,0,53.57,76h6.19v5.66H57.27a.56.56,0,0,0-.57.57v2.5Zm19.11,3.07h-5v-5h5ZM64,84.72v-2.5a.56.56,0,0,0-.57-.57H60.91V76H67.1a1.52,1.52,0,0,0,1.52-1.52V57.11h3.7V71a1.52,1.52,0,0,0,1.52,1.52H80v9.11h-2.5a.56.56,0,0,0-.57.57v2.5ZM83.1,87.79h-5v-5h5Z"/><path class="cls-5" d="M88.31,8.47a3.95,3.95,0,1,0,3.94,3.95A3.95,3.95,0,0,0,88.31,8.47Z"/><path class="cls-6" d="M13.57,52.36a1.72,1.72,0,1,0,1.71,1.71A1.72,1.72,0,0,0,13.57,52.36Z"/><path class="cls-6" d="M105.65,64.12a1.72,1.72,0,1,0,1.72,1.72A1.71,1.71,0,0,0,105.65,64.12Z"/><path class="cls-6" d="M24.11,93.75a1.72,1.72,0,1,0,1.72,1.72A1.71,1.71,0,0,0,24.11,93.75Z"/><path class="cls-2" d="M91.78,87.88a2.94,2.94,0,1,0,2.93,2.94A2.93,2.93,0,0,0,91.78,87.88Z"/></g><g id="阻塞"><circle class="cls-7" cx="89.86" cy="85.68" r="13.72"/><circle class="cls-3" cx="89.86" cy="85.6" r="10.94"/><line class="cls-8" x1="85.22" y1="85.77" x2="94.85" y2="85.77"/></g></svg>