<svg xmlns="http://www.w3.org/2000/svg" viewBox="0 0 120.81 105.35"><defs><style>.cls-1{fill:#bfe4ed;}.cls-2{fill:#65bcda;}.cls-3{fill:#fff;}.cls-4{fill:#050000;}.cls-5{fill:#f0e7ed;}.cls-6{fill:#75bfaf;}.cls-7,.cls-8{fill:#efca32;}.cls-7{stroke:#050101;stroke-miterlimit:10;}</style></defs><g id="计算"><rect class="cls-1" x="70.55" y="30.84" width="41.44" height="19.01" rx="9.48"/><rect class="cls-1" x="8.5" y="14.7" width="29.9" height="19.01" rx="9.48"/><rect class="cls-1" x="16.82" y="70.45" width="41.44" height="19.01" rx="9.48"/><path class="cls-2" d="M34.5,56A8.94,8.94,0,0,1,34,38.1a8.57,8.57,0,0,1-.13-1.54,8.94,8.94,0,0,1,9-8.94,8.81,8.81,0,0,1,3.7.8A14.39,14.39,0,0,1,75,28.71a8.95,8.95,0,0,1,13.23,7.85A8,8,0,0,1,88,38.12a8.44,8.44,0,0,1,1,0,8.95,8.95,0,0,1,0,17.89Z"/><rect class="cls-3" x="33.8" y="44.12" width="15.41" height="27.85" rx="0.94"/><rect class="cls-2" x="39.73" y="42.82" width="3.54" height="10.81" transform="translate(89.72 6.72) rotate(90)"/><rect class="cls-2" x="39.73" y="49.01" width="3.54" height="10.81" transform="translate(95.92 12.92) rotate(90)"/><rect class="cls-2" x="39.73" y="55.21" width="3.54" height="10.81" transform="translate(102.12 19.11) rotate(90)"/><rect class="cls-3" x="54.06" y="47.57" width="15.41" height="27.85" rx="0.94"/><rect class="cls-2" x="60" y="46.27" width="3.54" height="10.81" transform="translate(113.44 -10.09) rotate(90)"/><rect class="cls-2" x="60" y="52.46" width="3.54" height="10.81" transform="translate(119.64 -3.9) rotate(90)"/><rect class="cls-2" x="60" y="58.66" width="3.54" height="10.81" transform="translate(125.83 2.3) rotate(90)"/><rect class="cls-3" x="74.33" y="44.12" width="15.41" height="27.85" rx="0.94"/><rect class="cls-2" x="80.26" y="42.82" width="3.54" height="10.81" transform="translate(130.25 -33.81) rotate(90)"/><rect class="cls-2" x="80.26" y="49.01" width="3.54" height="10.81" transform="translate(136.45 -27.61) rotate(90)"/><rect class="cls-2" x="80.26" y="55.21" width="3.54" height="10.81" transform="translate(142.65 -21.42) rotate(90)"/><path class="cls-2" d="M41.5,64.37A2.63,2.63,0,1,0,44.13,67,2.63,2.63,0,0,0,41.5,64.37Z"/><path class="cls-2" d="M61.77,67.82a2.63,2.63,0,1,0,2.62,2.63A2.63,2.63,0,0,0,61.77,67.82Z"/><path class="cls-2" d="M82,64.37A2.63,2.63,0,1,0,84.66,67,2.63,2.63,0,0,0,82,64.37Z"/><rect class="cls-3" x="58.7" y="82.22" width="6.14" height="6.14"/><rect class="cls-3" x="78.96" y="82.22" width="6.14" height="6.14"/><rect class="cls-3" x="38.43" y="82.22" width="6.14" height="6.14"/><path class="cls-4" d="M96.14,84.72H85.68v-2.5a.58.58,0,0,0-.58-.57H82.61V72.54H88.8A1.51,1.51,0,0,0,90.31,71V57a10.1,10.1,0,0,0-1-20.11v-.36a10.09,10.09,0,0,0-10.08-10.1,10.29,10.29,0,0,0-3.44.6A15.61,15.61,0,0,0,60.71,15.22,15.45,15.45,0,0,0,45.66,26.88a9.73,9.73,0,0,0-2.85-.42A10.11,10.11,0,0,0,32.7,36.56c0,.17,0,.36,0,.53A10.09,10.09,0,0,0,33.22,57V71a1.52,1.52,0,0,0,1.52,1.52h6.19v9.11h-2.5a.58.58,0,0,0-.58.57v2.5H27.39a.57.57,0,0,0-.58.57.59.59,0,0,0,.58.58H37.85v2.49a.59.59,0,0,0,.58.58h6.14a.58.58,0,0,0,.57-.58V85.87h13v2.49a.58.58,0,0,0,.57.58h6.13a.59.59,0,0,0,.58-.58V85.87h13v2.49a.58.58,0,0,0,.57.58H85.1a.59.59,0,0,0,.58-.58V85.87H96.14a.58.58,0,0,0,.58-.58A.57.57,0,0,0,96.14,84.72Zm-7-13.7a.37.37,0,0,1-.36.37H75.27A.38.38,0,0,1,74.9,71v-26a.37.37,0,0,1,.37-.37H88.8a.36.36,0,0,1,.36.37ZM26.7,47a7.77,7.77,0,0,1,7.35-7.76,1.12,1.12,0,0,0,.85-.44,1.11,1.11,0,0,0,.22-.93A7.4,7.4,0,0,1,35,36.56a7.82,7.82,0,0,1,7.81-7.8,7.72,7.72,0,0,1,3.22.71,1.18,1.18,0,0,0,1,0,1.1,1.1,0,0,0,.6-.83,13.24,13.24,0,0,1,26.16.27,1.15,1.15,0,0,0,1.69.85A7.78,7.78,0,0,1,87,36.56a7.17,7.17,0,0,1-.11,1.35,1.16,1.16,0,0,0,.3,1,1.12,1.12,0,0,0,1,.35,8,8,0,0,1,.86,0,7.79,7.79,0,0,1,1.26,15.47V45.06a1.51,1.51,0,0,0-1.51-1.52H75.27a1.52,1.52,0,0,0-1.52,1.52v9.75h-3.7v-6.3A1.52,1.52,0,0,0,68.53,47H55a1.53,1.53,0,0,0-1.52,1.52v6.3h-3.7V45.06a1.52,1.52,0,0,0-1.51-1.52H34.74a1.52,1.52,0,0,0-1.52,1.52v9.63A7.78,7.78,0,0,1,26.7,47ZM55,74.84a.38.38,0,0,1-.37-.37v-26a.37.37,0,0,1,.37-.37H68.53a.37.37,0,0,1,.37.37v26a.38.38,0,0,1-.37.37ZM34.37,71v-26a.36.36,0,0,1,.37-.37H48.27a.36.36,0,0,1,.36.37V71a.37.37,0,0,1-.36.37H34.74A.37.37,0,0,1,34.37,71ZM44,87.79H39v-5h5Zm1.15-3.07v-2.5a.56.56,0,0,0-.57-.57H42.08V72.54h6.19A1.52,1.52,0,0,0,49.78,71V57.11h3.7V74.47A1.53,1.53,0,0,0,55,76h6.19v5.66H58.7a.56.56,0,0,0-.57.57v2.5Zm19.12,3.07h-5v-5h5Zm1.15-3.07v-2.5a.57.57,0,0,0-.58-.57H62.34V76h6.19a1.52,1.52,0,0,0,1.52-1.52V57.11h3.7V71a1.52,1.52,0,0,0,1.52,1.52h6.19v9.11H79a.56.56,0,0,0-.57.57v2.5Zm19.12,3.07h-5v-5h5Z"/><path class="cls-5" d="M89.74,8.47a3.95,3.95,0,1,0,4,3.95A3.95,3.95,0,0,0,89.74,8.47Z"/><path class="cls-6" d="M15,52.36a1.72,1.72,0,1,0,1.72,1.71A1.72,1.72,0,0,0,15,52.36Z"/><path class="cls-6" d="M107.08,64.12a1.72,1.72,0,1,0,1.72,1.72A1.72,1.72,0,0,0,107.08,64.12Z"/><path class="cls-6" d="M25.54,93.75a1.72,1.72,0,1,0,1.72,1.72A1.72,1.72,0,0,0,25.54,93.75Z"/><path class="cls-2" d="M93.21,87.88a2.94,2.94,0,1,0,2.93,2.94A2.94,2.94,0,0,0,93.21,87.88Z"/></g><g id="未创建"><circle class="cls-7" cx="91.47" cy="85.42" r="13.9"/><circle class="cls-3" cx="91.47" cy="85.33" r="11.08"/><polygon class="cls-8" points="92.53 87.5 90.41 87.5 89.69 79.92 93.25 79.92 92.53 87.5"/><path class="cls-8" d="M92.51,89a1.33,1.33,0,0,1-1.85,1.86.84.84,0,0,1-.23-.23,1.33,1.33,0,0,1,1.85-1.86A.72.72,0,0,1,92.51,89Z"/></g></svg>