<svg xmlns="http://www.w3.org/2000/svg" viewBox="0 0 116.81 101.87"><defs><style>.cls-1{fill:#d6d9d9;}.cls-2{fill:#fff;}.cls-3{fill:#6bb7cd;}.cls-4{fill:#65bcda;}.cls-5{fill:#050000;}.cls-6{fill:#7abed6;}.cls-7{fill:#c2e1e9;}.cls-8{fill:#ea5452;stroke:#050101;stroke-miterlimit:10;}.cls-9{fill:none;stroke:#ea5452;stroke-linecap:round;stroke-linejoin:round;stroke-width:3px;}</style></defs><g id="控制"><rect class="cls-1" x="7.07" y="61.2" width="30.22" height="19.21" rx="9.58"/><rect class="cls-1" x="68.81" y="47.28" width="41.89" height="19.21" rx="9.58"/><rect class="cls-1" x="9.69" y="15.37" width="41.89" height="19.21" rx="9.58"/><path class="cls-1" d="M63.15,6.41A2.85,2.85,0,1,0,66,9.26,2.84,2.84,0,0,0,63.15,6.41Z"/><rect class="cls-2" x="21.92" y="22.24" width="74.39" height="53.28" rx="3.99"/><path class="cls-3" d="M92.33,22.24H87.67V75.52h4.66a4,4,0,0,0,4-4V26.23A4,4,0,0,0,92.33,22.24Z"/><path class="cls-3" d="M32.78,22.24H25.91a4,4,0,0,0-4,4V71.54a4,4,0,0,0,4,4h6.87Z"/><circle class="cls-2" cx="27.35" cy="48.88" r="1.87"/><path class="cls-2" d="M92,48.53a.58.58,0,0,1-.58-.58V45.67a.58.58,0,0,1,1.16,0V48A.58.58,0,0,1,92,48.53Z"/><path class="cls-2" d="M92,52.67a.58.58,0,0,1-.58-.58V51a.58.58,0,1,1,1.16,0v1.06A.58.58,0,0,1,92,52.67Z"/><path class="cls-3" d="M45.09,64.87a.58.58,0,0,1-.58-.58V33.47a.58.58,0,0,1,1.16,0V64.29A.58.58,0,0,1,45.09,64.87Z"/><path class="cls-3" d="M55.6,64.87a.58.58,0,0,1-.58-.58V33.47a.58.58,0,0,1,1.16,0V64.29A.58.58,0,0,1,55.6,64.87Z"/><path class="cls-3" d="M66.11,64.87a.58.58,0,0,1-.58-.58V33.47a.58.58,0,0,1,1.16,0V64.29A.58.58,0,0,1,66.11,64.87Z"/><path class="cls-3" d="M76.62,64.87a.58.58,0,0,1-.58-.58V33.47a.58.58,0,0,1,1.16,0V64.29A.58.58,0,0,1,76.62,64.87Z"/><path class="cls-2" d="M45.09,37.41a4.7,4.7,0,1,0,4.7,4.7A4.69,4.69,0,0,0,45.09,37.41Z"/><path class="cls-3" d="M45.09,47.39a5.28,5.28,0,1,1,5.28-5.28A5.29,5.29,0,0,1,45.09,47.39Zm0-9.4a4.12,4.12,0,1,0,4.12,4.12A4.12,4.12,0,0,0,45.09,38Z"/><path class="cls-3" d="M42.71,42.69a.58.58,0,0,1-.58-.58,3,3,0,0,1,3-3,.58.58,0,0,1,0,1.16,1.81,1.81,0,0,0-1.8,1.8A.58.58,0,0,1,42.71,42.69Z"/><path class="cls-2" d="M55.6,50.32A4.71,4.71,0,1,0,60.3,55,4.7,4.7,0,0,0,55.6,50.32Z"/><path class="cls-3" d="M55.6,60.31A5.29,5.29,0,1,1,60.88,55,5.29,5.29,0,0,1,55.6,60.31Zm0-9.4A4.12,4.12,0,1,0,59.72,55,4.12,4.12,0,0,0,55.6,50.91Z"/><path class="cls-3" d="M53.22,55.61a.58.58,0,0,1-.58-.59,3,3,0,0,1,3-3,.58.58,0,0,1,0,1.16A1.8,1.8,0,0,0,53.8,55,.58.58,0,0,1,53.22,55.61Z"/><path class="cls-2" d="M66.11,36.27a4.7,4.7,0,1,0,4.7,4.7A4.69,4.69,0,0,0,66.11,36.27Z"/><path class="cls-3" d="M66.11,46.25A5.28,5.28,0,1,1,71.39,41,5.28,5.28,0,0,1,66.11,46.25Zm0-9.4A4.12,4.12,0,1,0,70.23,41,4.13,4.13,0,0,0,66.11,36.85Z"/><path class="cls-3" d="M68.48,41.55A.58.58,0,0,1,67.9,41a1.8,1.8,0,0,0-1.79-1.8.58.58,0,1,1,0-1.16,3,3,0,0,1,3,3A.59.59,0,0,1,68.48,41.55Z"/><path class="cls-2" d="M76.89,50.32A4.71,4.71,0,1,0,81.59,55,4.7,4.7,0,0,0,76.89,50.32Z"/><path class="cls-3" d="M76.89,60.31A5.29,5.29,0,1,1,82.17,55,5.28,5.28,0,0,1,76.89,60.31Zm0-9.4A4.12,4.12,0,1,0,81,55,4.12,4.12,0,0,0,76.89,50.91Z"/><path class="cls-3" d="M79.26,55.61a.58.58,0,0,1-.58-.59,1.79,1.79,0,0,0-1.79-1.79.58.58,0,1,1,0-1.16,3,3,0,0,1,3,3A.59.59,0,0,1,79.26,55.61Z"/><path class="cls-4" d="M51.43,52.34a8.28,8.28,0,1,0,8.28,8.28A8.28,8.28,0,0,0,51.43,52.34Z"/><path class="cls-4" d="M61.86,72.77H41A4.24,4.24,0,0,0,36.75,77V88.6H66.11V77A4.24,4.24,0,0,0,61.86,72.77Z"/><polygon class="cls-2" points="47.81 72.77 44.95 76.36 48.62 88.6 54.24 88.6 57.91 76.36 55.05 72.77 47.81 72.77"/><polygon class="cls-3" points="52.64 76.17 54.06 72.77 48.8 72.77 50.22 76.17 52.64 76.17"/><polygon class="cls-3" points="52.64 76.17 54.06 88.6 48.8 88.6 50.22 76.17 52.64 76.17"/><path class="cls-5" d="M92.33,21.08H25.9a5.16,5.16,0,0,0-5.15,5.15V71.54a5.17,5.17,0,0,0,5.15,5.15H36.18c0,.1,0,.22,0,.32V88.6a.57.57,0,0,0,.58.58H66.11a.57.57,0,0,0,.58-.58V77c0-.1,0-.22,0-.32H92.33a5.15,5.15,0,0,0,5.14-5.15V26.23A5.14,5.14,0,0,0,92.33,21.08Zm0,2.32a2.82,2.82,0,0,1,2.81,2.83V71.54a2.81,2.81,0,0,1-2.81,2.82H88.54v-51Zm-66.43,51a2.83,2.83,0,0,1-2.82-2.82V26.23A2.83,2.83,0,0,1,25.9,23.4h6v51ZM37.33,88V77a1.67,1.67,0,0,1,0-.32A3.67,3.67,0,0,1,41,73.35h5.6L44.5,76a.54.54,0,0,0-.1.53l0,.17L47.85,88ZM48.41,73.35c.05.12,1.29,3.08,1.22,2.89l-.06.45-1.08,9.45-2.84-9.45-.06-.21c.1-.12,2.66-3.32,2.5-3.13Zm6.37,0c.09.12,2.64,3.32,2.48,3.13l-.06.21-2.83,9.46-1.08-9.46-.06-.45,1.22-2.89Zm-2.53,2.24H50.6l-.93-2.24h3.52ZM49.45,88l1.28-11.26h1.4L53.42,88Zm16.08,0H55l3.4-11.33,0-.17a.63.63,0,0,0-.1-.53l-2.11-2.64h5.61a3.63,3.63,0,0,1,3.63,3.34,1.12,1.12,0,0,1,0,.32Zm.36-13.66a4.8,4.8,0,0,0-4-2.17H41a4.82,4.82,0,0,0-4,2.17H33.66v-51H86.8v51Z"/><path class="cls-5" d="M51.43,51.75a8.87,8.87,0,1,0,8.87,8.87A8.88,8.88,0,0,0,51.43,51.75Zm0,16.57a7.7,7.7,0,1,1,7.7-7.7A7.71,7.71,0,0,1,51.43,68.32Z"/><path class="cls-6" d="M105.56,19.58a1.8,1.8,0,1,0,1.8,1.8A1.8,1.8,0,0,0,105.56,19.58Z"/><path class="cls-3" d="M11.12,45a1.8,1.8,0,1,0,1.8,1.79A1.79,1.79,0,0,0,11.12,45Z"/><path class="cls-7" d="M79.26,90.58a1.8,1.8,0,1,0,1.8,1.8A1.8,1.8,0,0,0,79.26,90.58Z"/></g><g id="阻塞"><circle class="cls-8" cx="89.86" cy="79.09" r="13.72"/><circle class="cls-2" cx="89.86" cy="79.01" r="10.94"/><line class="cls-9" x1="85.22" y1="79.18" x2="94.85" y2="79.18"/></g></svg>