<svg xmlns="http://www.w3.org/2000/svg" viewBox="0 0 119.49 101.87"><defs><style>.cls-1{fill:#d6d9d9;}.cls-2{fill:#fff;}.cls-3{fill:#6bb7cd;}.cls-4{fill:#65bcda;}.cls-5{fill:#050000;}.cls-6{fill:#7abed6;}.cls-7{fill:#c2e1e9;}.cls-8,.cls-9{fill:#5588c7;}.cls-8{stroke:#050101;stroke-miterlimit:10;}</style></defs><g id="控制"><rect class="cls-1" x="8.11" y="61.2" width="30.22" height="19.21" rx="9.58"/><rect class="cls-1" x="69.86" y="47.28" width="41.89" height="19.21" rx="9.58"/><rect class="cls-1" x="10.74" y="15.37" width="41.89" height="19.21" rx="9.58"/><path class="cls-1" d="M64.2,6.41A2.85,2.85,0,1,0,67,9.26,2.84,2.84,0,0,0,64.2,6.41Z"/><rect class="cls-2" x="22.97" y="22.24" width="74.39" height="53.28" rx="3.99"/><path class="cls-3" d="M93.37,22.24H88.72V75.52h4.65a4,4,0,0,0,4-4V26.23A4,4,0,0,0,93.37,22.24Z"/><path class="cls-3" d="M33.83,22.24H27a4,4,0,0,0-4,4V71.54a4,4,0,0,0,4,4h6.87Z"/><circle class="cls-2" cx="28.4" cy="48.88" r="1.87"/><path class="cls-2" d="M93,48.53a.58.58,0,0,1-.58-.58V45.67a.58.58,0,1,1,1.16,0V48A.58.58,0,0,1,93,48.53Z"/><path class="cls-2" d="M93,52.67a.58.58,0,0,1-.58-.58V51a.58.58,0,1,1,1.16,0v1.06A.58.58,0,0,1,93,52.67Z"/><path class="cls-3" d="M46.13,64.87a.58.58,0,0,1-.58-.58V33.47a.59.59,0,0,1,1.17,0V64.29A.58.58,0,0,1,46.13,64.87Z"/><path class="cls-3" d="M56.65,64.87a.58.58,0,0,1-.59-.58V33.47a.59.59,0,0,1,1.17,0V64.29A.58.58,0,0,1,56.65,64.87Z"/><path class="cls-3" d="M67.16,64.87a.59.59,0,0,1-.59-.58V33.47a.59.59,0,0,1,.59-.58.58.58,0,0,1,.58.58V64.29A.58.58,0,0,1,67.16,64.87Z"/><path class="cls-3" d="M77.67,64.87a.58.58,0,0,1-.58-.58V33.47a.58.58,0,0,1,1.16,0V64.29A.58.58,0,0,1,77.67,64.87Z"/><path class="cls-2" d="M46.13,37.41a4.7,4.7,0,1,0,4.71,4.7A4.7,4.7,0,0,0,46.13,37.41Z"/><path class="cls-3" d="M46.13,47.39a5.28,5.28,0,1,1,5.29-5.28A5.29,5.29,0,0,1,46.13,47.39Zm0-9.4a4.12,4.12,0,1,0,4.12,4.12A4.13,4.13,0,0,0,46.13,38Z"/><path class="cls-3" d="M43.76,42.69a.58.58,0,0,1-.58-.58,3,3,0,0,1,3-3,.58.58,0,1,1,0,1.16,1.8,1.8,0,0,0-1.79,1.8A.58.58,0,0,1,43.76,42.69Z"/><path class="cls-2" d="M56.65,50.32A4.71,4.71,0,1,0,61.35,55,4.71,4.71,0,0,0,56.65,50.32Z"/><path class="cls-3" d="M56.65,60.31A5.29,5.29,0,1,1,61.93,55,5.29,5.29,0,0,1,56.65,60.31Zm0-9.4A4.12,4.12,0,1,0,60.77,55,4.11,4.11,0,0,0,56.65,50.91Z"/><path class="cls-3" d="M54.27,55.61a.58.58,0,0,1-.58-.59,3,3,0,0,1,3-3,.58.58,0,0,1,0,1.16A1.8,1.8,0,0,0,54.85,55,.58.58,0,0,1,54.27,55.61Z"/><path class="cls-2" d="M67.16,36.27a4.7,4.7,0,1,0,4.7,4.7A4.7,4.7,0,0,0,67.16,36.27Z"/><path class="cls-3" d="M67.16,46.25A5.28,5.28,0,1,1,72.44,41,5.29,5.29,0,0,1,67.16,46.25Zm0-9.4A4.12,4.12,0,1,0,71.28,41,4.12,4.12,0,0,0,67.16,36.85Z"/><path class="cls-3" d="M69.53,41.55A.58.58,0,0,1,69,41a1.8,1.8,0,0,0-1.79-1.8.58.58,0,1,1,0-1.16,3,3,0,0,1,3,3A.58.58,0,0,1,69.53,41.55Z"/><path class="cls-2" d="M77.94,50.32A4.71,4.71,0,1,0,82.64,55,4.71,4.71,0,0,0,77.94,50.32Z"/><path class="cls-3" d="M77.94,60.31A5.29,5.29,0,1,1,83.22,55,5.29,5.29,0,0,1,77.94,60.31Zm0-9.4A4.12,4.12,0,1,0,82.06,55,4.11,4.11,0,0,0,77.94,50.91Z"/><path class="cls-3" d="M80.31,55.61a.58.58,0,0,1-.58-.59,1.79,1.79,0,0,0-1.79-1.79.58.58,0,1,1,0-1.16,3,3,0,0,1,3,3A.58.58,0,0,1,80.31,55.61Z"/><path class="cls-4" d="M52.48,52.34a8.28,8.28,0,1,0,8.28,8.28A8.28,8.28,0,0,0,52.48,52.34Z"/><path class="cls-4" d="M62.91,72.77H42.05A4.24,4.24,0,0,0,37.8,77V88.6H67.16V77A4.24,4.24,0,0,0,62.91,72.77Z"/><polygon class="cls-2" points="48.85 72.77 46 76.36 49.67 88.6 55.29 88.6 58.96 76.36 56.1 72.77 48.85 72.77"/><polygon class="cls-3" points="53.69 76.17 55.11 72.77 49.84 72.77 51.26 76.17 53.69 76.17"/><polygon class="cls-3" points="53.69 76.17 55.11 88.6 49.84 88.6 51.26 76.17 53.69 76.17"/><path class="cls-5" d="M93.38,21.08H27a5.15,5.15,0,0,0-5.15,5.15V71.54A5.16,5.16,0,0,0,27,76.69H37.23a1.72,1.72,0,0,0,0,.32V88.6a.58.58,0,0,0,.59.58H67.16a.57.57,0,0,0,.58-.58V77c0-.1,0-.22,0-.32H93.38a5.16,5.16,0,0,0,5.14-5.15V26.23A5.15,5.15,0,0,0,93.38,21.08Zm0,2.32a2.82,2.82,0,0,1,2.81,2.83V71.54a2.81,2.81,0,0,1-2.81,2.82H89.59v-51ZM27,74.36a2.82,2.82,0,0,1-2.82-2.82V26.23A2.83,2.83,0,0,1,27,23.4h6v51ZM38.38,88V77a1.67,1.67,0,0,1,0-.32,3.67,3.67,0,0,1,3.65-3.34h5.6L45.55,76a.57.57,0,0,0-.11.53l.05.17L48.9,88ZM49.45,73.35l1.22,2.89-.05.45-1.08,9.45L46.7,76.69l-.06-.21c.1-.12,2.66-3.32,2.5-3.13Zm6.37,0c.1.12,2.65,3.32,2.49,3.13l-.06.21-2.83,9.46-1.08-9.46-.06-.45,1.22-2.89ZM53.3,75.59H51.65l-.93-2.24h3.52ZM50.5,88l1.28-11.26h1.39L54.46,88Zm16.08,0H56.07l3.4-11.33.05-.17a.63.63,0,0,0-.1-.53l-2.11-2.64h5.6a3.63,3.63,0,0,1,3.64,3.34,1.12,1.12,0,0,1,0,.32Zm.36-13.66a4.8,4.8,0,0,0-4-2.17H42.05a4.8,4.8,0,0,0-4,2.17H34.7v-51H87.85v51Z"/><path class="cls-5" d="M52.48,51.75a8.87,8.87,0,1,0,8.86,8.87A8.87,8.87,0,0,0,52.48,51.75Zm0,16.57a7.7,7.7,0,1,1,7.7-7.7A7.7,7.7,0,0,1,52.48,68.32Z"/><path class="cls-6" d="M106.61,19.58a1.8,1.8,0,1,0,1.8,1.8A1.8,1.8,0,0,0,106.61,19.58Z"/><path class="cls-3" d="M12.17,45A1.8,1.8,0,1,0,14,46.81,1.8,1.8,0,0,0,12.17,45Z"/><path class="cls-7" d="M80.31,90.58a1.8,1.8,0,1,0,1.8,1.8A1.8,1.8,0,0,0,80.31,90.58Z"/></g><g id="睡眠"><circle class="cls-8" cx="91.09" cy="78.83" r="13.9"/><circle class="cls-2" cx="91.09" cy="78.74" r="11.08"/><path class="cls-9" d="M86.93,77.76a1.84,1.84,0,0,1-2.58,2.59.78.78,0,0,1-.24-.24,1.84,1.84,0,0,1,2.58-2.59A.91.91,0,0,1,86.93,77.76Z"/><path class="cls-9" d="M92.53,77.76a1.84,1.84,0,0,1-2.59,2.59.78.78,0,0,1-.24-.24,1.84,1.84,0,0,1,2.58-2.59A1.14,1.14,0,0,1,92.53,77.76Z"/><path class="cls-9" d="M98.12,77.76a1.84,1.84,0,0,1-2.59,2.59.78.78,0,0,1-.24-.24,1.84,1.84,0,0,1,2.58-2.59A1.14,1.14,0,0,1,98.12,77.76Z"/></g></svg>