<svg xmlns="http://www.w3.org/2000/svg" viewBox="0 0 116.49 105.54"><defs><style>.cls-1{fill:#ebedf1;}.cls-2{fill:#73bcc3;}.cls-3{fill:#61b2cf;}.cls-4{fill:#d9edf6;}.cls-5{fill:#65bcda;}.cls-6{fill:#040000;}.cls-7{fill:#fff;}.cls-8{fill:#ea5452;stroke:#050101;stroke-miterlimit:10;}.cls-9{fill:none;stroke:#ea5452;stroke-linecap:round;stroke-linejoin:round;stroke-width:3px;}</style></defs><g id="管理"><rect class="cls-1" x="58.11" y="31.49" width="52.28" height="17.67" rx="7.67"/><rect class="cls-1" x="24.5" y="60.36" width="62.19" height="17.67" rx="7.67"/><rect class="cls-1" x="6.75" y="31.49" width="35.51" height="17.67" rx="7.67"/><ellipse class="cls-2" cx="94.43" cy="18.9" rx="1.77" ry="1.27" transform="translate(14.29 72.31) rotate(-45)"/><path class="cls-2" d="M26.38,15.82a3.63,3.63,0,0,1-5.09,5.09,1.75,1.75,0,0,1-.47-.47,3.63,3.63,0,0,1,5.09-5.1A1.79,1.79,0,0,1,26.38,15.82Z"/><path class="cls-3" d="M93.14,85.49a1.9,1.9,0,0,1-2.67,2.67,1,1,0,0,1-.28-.29,1.9,1.9,0,0,1,2.67-2.67A1.1,1.1,0,0,1,93.14,85.49Z"/><path class="cls-4" d="M18.3,65.87a4.09,4.09,0,0,1-5.74,5.74,2,2,0,0,1-.53-.52C9.3,67,13.7,62.62,17.78,65.35A1.84,1.84,0,0,1,18.3,65.87Z"/><circle class="cls-5" cx="58.57" cy="51.57" r="19.2"/><path class="cls-6" d="M92.32,47.9A3.66,3.66,0,0,0,88.71,51h-9a20.94,20.94,0,0,0-2.52-9.48L85,37a3.69,3.69,0,1,0-.57-1l-7.84,4.53a21.28,21.28,0,0,0-6.93-6.94l4.53-7.85a3.61,3.61,0,0,0,4.48-1.57,3.67,3.67,0,1,0-5.48,1L68.62,33a21.08,21.08,0,0,0-9.48-2.53v-9a3.67,3.67,0,1,0-1.15,0v9A21.08,21.08,0,0,0,48.51,33L44,25.18a3.66,3.66,0,1,0-5.48-1A3.62,3.62,0,0,0,43,25.74l4.53,7.85a21.34,21.34,0,0,0-6.93,6.93L32.75,36a3.65,3.65,0,1,0-.57,1L40,41.51A20.94,20.94,0,0,0,37.47,51h-9a3.68,3.68,0,1,0,0,1.15h9A20.91,20.91,0,0,0,40,61.62l-7.81,4.52a3.69,3.69,0,1,0,.57,1l7.84-4.53a21.25,21.25,0,0,0,6.93,6.93L43,77.4A3.62,3.62,0,0,0,38.51,79a3.67,3.67,0,1,0,6.36,3.67A3.64,3.64,0,0,0,44,78l4.52-7.82A20.94,20.94,0,0,0,58,72.66v9a3.68,3.68,0,1,0,1.15,0v-9a20.94,20.94,0,0,0,9.48-2.52L73.14,78a3.66,3.66,0,1,0,5.48,1,3.6,3.6,0,0,0-4.48-1.56l-4.53-7.86a21.25,21.25,0,0,0,6.93-6.93l7.84,4.53A3.64,3.64,0,0,0,86,71.62a3.67,3.67,0,1,0-1-5.48l-7.81-4.52a20.91,20.91,0,0,0,2.52-9.48h9a3.66,3.66,0,1,0,3.61-4.24ZM86.54,32.51a2.52,2.52,0,0,1,2.52,4.36A2.58,2.58,0,0,1,85.62,36h0A2.51,2.51,0,0,1,86.54,32.51ZM73.26,21.08a2.52,2.52,0,1,1,4.36,2.51,2.58,2.58,0,0,1-3.44.93A2.53,2.53,0,0,1,73.26,21.08ZM39.51,23.59a2.52,2.52,0,1,1,3.44.93A2.58,2.58,0,0,1,39.51,23.59ZM28.07,36.87A2.52,2.52,0,1,1,31.51,36,2.57,2.57,0,0,1,28.07,36.87Zm2.52,33.76a2.59,2.59,0,0,1-3.44-.93,2.52,2.52,0,0,1,4.36-2.52h0A2.51,2.51,0,0,1,30.59,70.63ZM43.87,82.06a2.57,2.57,0,0,1-3.44.92,2.52,2.52,0,1,1,3.44-.92Zm33.75-2.52A2.51,2.51,0,0,1,76.7,83a2.58,2.58,0,0,1-3.44-.92,2.52,2.52,0,1,1,4.36-2.52ZM89.06,66.26A2.52,2.52,0,0,1,90,69.7a2.59,2.59,0,0,1-3.44.93,2.52,2.52,0,0,1,2.52-4.37Zm-33-48.45a2.52,2.52,0,1,1,2.52,2.52A2.52,2.52,0,0,1,56.05,17.81ZM24.81,54.09a2.52,2.52,0,1,1,2.52-2.52A2.52,2.52,0,0,1,24.81,54.09ZM61.08,85.32a2.52,2.52,0,1,1-2.51-2.52A2.52,2.52,0,0,1,61.08,85.32ZM58.57,70.39A18.82,18.82,0,1,1,77.39,51.57,18.85,18.85,0,0,1,58.57,70.39Zm33.75-16.3a2.52,2.52,0,1,1,2.52-2.52A2.52,2.52,0,0,1,92.32,54.09Z"/><circle class="cls-7" cx="58.57" cy="51.57" r="14.75"/><path class="cls-5" d="M67.07,55.45V61h-17V55.45a2.35,2.35,0,0,1,2.36-2.36H57l1.54,3.38,1.55-3.38h4.61A2.35,2.35,0,0,1,67.07,55.45Z"/><path class="cls-5" d="M63.24,44.54c0,2.58-2.09,6.21-4.67,6.21s-4.68-3.63-4.68-6.21a4.68,4.68,0,0,1,9.35,0Z"/></g><g id="阻塞"><circle class="cls-8" cx="93.72" cy="83.52" r="13.72"/><circle class="cls-7" cx="93.72" cy="83.43" r="10.94"/><line class="cls-9" x1="89.07" y1="83.61" x2="98.71" y2="83.61"/></g></svg>