<svg xmlns="http://www.w3.org/2000/svg" viewBox="0 0 118.37 105.54"><defs><style>.cls-1{fill:#ebedf1;}.cls-2{fill:#73bcc3;}.cls-3{fill:#61b2cf;}.cls-4{fill:#d9edf6;}.cls-5{fill:#65bcda;}.cls-6{fill:#040000;}.cls-7{fill:#fff;}.cls-8,.cls-9{fill:#efca32;}.cls-8{stroke:#050101;stroke-miterlimit:10;}</style></defs><g id="管理"><rect class="cls-1" x="59.86" y="31.49" width="52.28" height="17.67" rx="7.67"/><rect class="cls-1" x="26.26" y="60.36" width="62.19" height="17.67" rx="7.67"/><rect class="cls-1" x="8.5" y="31.49" width="35.51" height="17.67" rx="7.67"/><ellipse class="cls-2" cx="96.18" cy="18.9" rx="1.77" ry="1.27" transform="translate(14.81 73.55) rotate(-45)"/><path class="cls-2" d="M28.14,15.82A3.63,3.63,0,0,1,23,20.91a1.75,1.75,0,0,1-.47-.47,3.63,3.63,0,0,1,5.09-5.1A1.83,1.83,0,0,1,28.14,15.82Z"/><path class="cls-3" d="M94.9,85.49a1.91,1.91,0,0,1-2.68,2.67,1,1,0,0,1-.28-.29,1.91,1.91,0,0,1,2.67-2.67A1.33,1.33,0,0,1,94.9,85.49Z"/><path class="cls-4" d="M20.05,65.87a4.09,4.09,0,0,1-5.74,5.74,1.84,1.84,0,0,1-.52-.52,4.09,4.09,0,0,1,5.74-5.74A1.84,1.84,0,0,1,20.05,65.87Z"/><circle class="cls-5" cx="60.32" cy="51.57" r="19.2"/><path class="cls-6" d="M94.07,47.9A3.67,3.67,0,0,0,90.46,51h-9a20.94,20.94,0,0,0-2.52-9.48L86.7,37a3.69,3.69,0,1,0-.57-1l-7.84,4.53a21.28,21.28,0,0,0-6.93-6.94l4.54-7.85a3.6,3.6,0,0,0,4.47-1.57,3.67,3.67,0,1,0-5.48,1L70.38,33a21.12,21.12,0,0,0-9.49-2.53v-9a3.67,3.67,0,1,0-1.15,0v9A21.08,21.08,0,0,0,50.26,33l-4.51-7.82a3.74,3.74,0,1,0-1,.56l4.54,7.85a21.38,21.38,0,0,0-6.94,6.93L34.5,36a3.65,3.65,0,1,0-.57,1l7.82,4.51A21.08,21.08,0,0,0,39.22,51h-9a3.68,3.68,0,1,0,0,1.15h9a21,21,0,0,0,2.53,9.48l-7.82,4.52a3.69,3.69,0,1,0,.57,1l7.84-4.53a21.28,21.28,0,0,0,6.94,6.93L44.74,77.4A3.62,3.62,0,0,0,40.26,79a3.67,3.67,0,1,0,5.49-1l4.51-7.82a20.94,20.94,0,0,0,9.48,2.52v9a3.68,3.68,0,1,0,1.15,0v-9a21,21,0,0,0,9.49-2.52L74.89,78a3.66,3.66,0,1,0,5.48,1A3.6,3.6,0,0,0,75.9,77.4l-4.54-7.86a21.25,21.25,0,0,0,6.93-6.93l7.84,4.53a3.65,3.65,0,1,0,.57-1l-7.81-4.52a20.91,20.91,0,0,0,2.52-9.48h9a3.66,3.66,0,1,0,3.61-4.24ZM88.29,32.51a2.52,2.52,0,0,1,2.52,4.36A2.58,2.58,0,0,1,87.37,36h0A2.51,2.51,0,0,1,88.29,32.51ZM75,21.08a2.52,2.52,0,1,1,4.37,2.51,2.59,2.59,0,0,1-3.44.93A2.52,2.52,0,0,1,75,21.08ZM41.26,23.59a2.52,2.52,0,1,1,3.44.93A2.59,2.59,0,0,1,41.26,23.59ZM29.83,36.87A2.52,2.52,0,1,1,33.27,36,2.58,2.58,0,0,1,29.83,36.87Zm2.51,33.76a2.59,2.59,0,0,1-3.44-.93,2.52,2.52,0,0,1,4.37-2.52h0A2.52,2.52,0,0,1,32.34,70.63ZM45.62,82.06a2.57,2.57,0,0,1-3.44.92,2.52,2.52,0,1,1,3.44-.92Zm33.76-2.52A2.52,2.52,0,0,1,78.45,83,2.58,2.58,0,0,1,75,82.06a2.52,2.52,0,0,1,4.37-2.52ZM90.81,66.26a2.51,2.51,0,0,1,.92,3.44,2.59,2.59,0,0,1-3.44.93,2.52,2.52,0,0,1,2.52-4.37Zm-33-48.45a2.52,2.52,0,1,1,2.52,2.52A2.52,2.52,0,0,1,57.8,17.81ZM26.56,54.09a2.52,2.52,0,1,1,2.52-2.52A2.52,2.52,0,0,1,26.56,54.09ZM62.84,85.32a2.52,2.52,0,1,1-2.52-2.52A2.52,2.52,0,0,1,62.84,85.32ZM60.32,70.39A18.82,18.82,0,1,1,79.14,51.57,18.84,18.84,0,0,1,60.32,70.39Zm33.75-16.3a2.52,2.52,0,1,1,2.52-2.52A2.52,2.52,0,0,1,94.07,54.09Z"/><circle class="cls-7" cx="60.32" cy="51.57" r="14.75"/><path class="cls-5" d="M68.82,55.45V61h-17V55.45a2.35,2.35,0,0,1,2.36-2.36h4.6l1.55,3.38,1.54-3.38h4.61A2.35,2.35,0,0,1,68.82,55.45Z"/><path class="cls-5" d="M65,44.54c0,2.58-2.09,6.21-4.67,6.21s-4.67-3.63-4.67-6.21a4.67,4.67,0,1,1,9.34,0Z"/></g><g id="未创建"><circle class="cls-8" cx="95.65" cy="83.25" r="13.9"/><circle class="cls-7" cx="95.65" cy="83.17" r="11.08"/><polygon class="cls-9" points="96.71 85.34 94.58 85.34 93.86 77.75 97.43 77.75 96.71 85.34"/><path class="cls-9" d="M96.69,86.87a1.33,1.33,0,0,1-1.86,1.85.8.8,0,0,1-.23-.22,1.33,1.33,0,0,1,1.86-1.86A.84.84,0,0,1,96.69,86.87Z"/></g></svg>