<svg xmlns="http://www.w3.org/2000/svg" xmlns:xlink="http://www.w3.org/1999/xlink" viewBox="0 0 202.21 434.55"><defs><style>.cls-1{fill:url(#linear-gradient);}.cls-11,.cls-2,.cls-5,.cls-8{opacity:0.39;}.cls-2{fill:url(#linear-gradient-2);}.cls-3{fill:url(#linear-gradient-3);}.cls-4{fill:url(#linear-gradient-4);}.cls-5{fill:url(#linear-gradient-5);}.cls-6{fill:url(#linear-gradient-6);}.cls-7{fill:url(#linear-gradient-7);}.cls-8{fill:url(#linear-gradient-8);}.cls-9{fill:url(#linear-gradient-9);}.cls-10{fill:url(#linear-gradient-10);}.cls-11{fill:url(#linear-gradient-11);}.cls-12{fill:url(#linear-gradient-12);}.cls-13,.cls-14{fill:none;stroke:#a09e9f;stroke-linecap:round;stroke-miterlimit:10;stroke-width:0.5px;}.cls-14{stroke-dasharray:1.95 1.95;}</style><linearGradient id="linear-gradient" x1="32.78" y1="185.12" x2="118.26" y2="185.12" gradientUnits="userSpaceOnUse"><stop offset="0" stop-color="#f0d3aa"/><stop offset="0.47" stop-color="#f0d2a8"/><stop offset="0.64" stop-color="#efcea1"/><stop offset="0.77" stop-color="#edc896"/><stop offset="0.86" stop-color="#eabe85"/><stop offset="0.95" stop-color="#e7b26f"/><stop offset="1" stop-color="#e4a85d"/></linearGradient><linearGradient id="linear-gradient-2" x1="75.1" y1="209.73" x2="75.1" y2="89.97" gradientUnits="userSpaceOnUse"><stop offset="0" stop-color="#e4a85d"/><stop offset="0.15" stop-color="#ebbd85" stop-opacity="0.75"/><stop offset="0.31" stop-color="#f1d1aa" stop-opacity="0.53"/><stop offset="0.46" stop-color="#f6e2c8" stop-opacity="0.34"/><stop offset="0.61" stop-color="#faeee0" stop-opacity="0.19"/><stop offset="0.76" stop-color="#fdf8f1" stop-opacity="0.09"/><stop offset="0.89" stop-color="#fefdfb" stop-opacity="0.02"/><stop offset="1" stop-color="#fff" stop-opacity="0"/></linearGradient><linearGradient id="linear-gradient-3" x1="114.95" y1="185.12" x2="36.09" y2="185.12" gradientUnits="userSpaceOnUse"><stop offset="0" stop-color="#cf8440"/><stop offset="0.29" stop-color="#ce8139"/><stop offset="0.7" stop-color="#cd7a27"/><stop offset="1" stop-color="#cb7315"/></linearGradient><linearGradient id="linear-gradient-4" x1="32.78" y1="241.75" x2="118.26" y2="241.75" gradientUnits="userSpaceOnUse"><stop offset="0" stop-color="#edf0c0"/><stop offset="0.47" stop-color="#edf0be"/><stop offset="0.64" stop-color="#ecefb7"/><stop offset="0.77" stop-color="#ebedac"/><stop offset="0.86" stop-color="#e9ea9b"/><stop offset="0.95" stop-color="#e6e685"/><stop offset="1" stop-color="#e4e373"/></linearGradient><linearGradient id="linear-gradient-5" x1="75.1" y1="266.37" x2="75.1" y2="146.61" gradientUnits="userSpaceOnUse"><stop offset="0" stop-color="#e4e373"/><stop offset="0.15" stop-color="#ebea95" stop-opacity="0.75"/><stop offset="0.31" stop-color="#f1f0b5" stop-opacity="0.53"/><stop offset="0.46" stop-color="#f6f6d0" stop-opacity="0.34"/><stop offset="0.61" stop-color="#fafae4" stop-opacity="0.19"/><stop offset="0.76" stop-color="#fdfdf3" stop-opacity="0.09"/><stop offset="0.89" stop-color="#fefefc" stop-opacity="0.02"/><stop offset="1" stop-color="#fff" stop-opacity="0"/></linearGradient><linearGradient id="linear-gradient-6" x1="114.95" y1="241.75" x2="36.09" y2="241.75" gradientUnits="userSpaceOnUse"><stop offset="0" stop-color="#cfc753"/><stop offset="0.3" stop-color="#cec74c"/><stop offset="0.74" stop-color="#ccc63a"/><stop offset="1" stop-color="#cac62b"/></linearGradient><linearGradient id="linear-gradient-7" x1="32.78" y1="298.99" x2="118.26" y2="298.99" gradientUnits="userSpaceOnUse"><stop offset="0" stop-color="#c1ddf4"/><stop offset="0.47" stop-color="#bfdcf4"/><stop offset="0.64" stop-color="#b8daf3"/><stop offset="0.76" stop-color="#add6f2"/><stop offset="0.86" stop-color="#9cd0f0"/><stop offset="0.94" stop-color="#86c9ee"/><stop offset="1" stop-color="#70c1ec"/></linearGradient><linearGradient id="linear-gradient-8" x1="75.1" y1="323.6" x2="75.1" y2="203.84" gradientUnits="userSpaceOnUse"><stop offset="0" stop-color="#70c1ec"/><stop offset="0.01" stop-color="#71c2ec" stop-opacity="0.99"/><stop offset="0.16" stop-color="#96d2f1" stop-opacity="0.73"/><stop offset="0.32" stop-color="#b6dff5" stop-opacity="0.51"/><stop offset="0.48" stop-color="#d0ebf9" stop-opacity="0.33"/><stop offset="0.62" stop-color="#e5f4fc" stop-opacity="0.18"/><stop offset="0.76" stop-color="#f3fafd" stop-opacity="0.08"/><stop offset="0.89" stop-color="#fcfeff" stop-opacity="0.02"/><stop offset="1" stop-color="#fff" stop-opacity="0"/></linearGradient><linearGradient id="linear-gradient-9" x1="114.95" y1="298.99" x2="36.09" y2="298.99" gradientUnits="userSpaceOnUse"><stop offset="0" stop-color="#50c0d6"/><stop offset="0.26" stop-color="#49bcd6"/><stop offset="0.62" stop-color="#37afd5"/><stop offset="1" stop-color="#1c9ed3"/></linearGradient><linearGradient id="linear-gradient-10" x1="32.78" y1="355.63" x2="118.26" y2="355.63" gradientUnits="userSpaceOnUse"><stop offset="0" stop-color="#acdbe0"/><stop offset="0.51" stop-color="#aadadf"/><stop offset="0.69" stop-color="#a3d8db"/><stop offset="0.82" stop-color="#98d3d5"/><stop offset="0.92" stop-color="#87cdcc"/><stop offset="1" stop-color="#74c6c2"/></linearGradient><linearGradient id="linear-gradient-11" x1="75.1" y1="380.24" x2="75.1" y2="260.48" gradientUnits="userSpaceOnUse"><stop offset="0" stop-color="#74c6c2"/><stop offset="0.08" stop-color="#86ceca" stop-opacity="0.87"/><stop offset="0.25" stop-color="#abdcda" stop-opacity="0.61"/><stop offset="0.42" stop-color="#c9e9e7" stop-opacity="0.39"/><stop offset="0.58" stop-color="#e1f3f2" stop-opacity="0.22"/><stop offset="0.74" stop-color="#f1f9f9" stop-opacity="0.1"/><stop offset="0.88" stop-color="#fcfefd" stop-opacity="0.03"/><stop offset="1" stop-color="#fff" stop-opacity="0"/></linearGradient><linearGradient id="linear-gradient-12" x1="114.95" y1="355.63" x2="36.09" y2="355.63" gradientUnits="userSpaceOnUse"><stop offset="0" stop-color="#56bb9a"/><stop offset="0.52" stop-color="#4fba9d"/><stop offset="1" stop-color="#44b8a1"/></linearGradient></defs><g id="图层_5" data-name="图层 5"><path class="cls-1" d="M115.33,181c3.89,2.25,3.92,5.9,0,8.15l-32.7,19a15.52,15.52,0,0,1-14.06,0l-32.91-19c-3.89-2.25-3.91-5.9,0-8.15l32.69-19a15.55,15.55,0,0,1,14.06,0Z"/><path class="cls-2" d="M117.83,184.81V114.94h0c.08-1.55-.88-3.11-2.92-4.29L82,91.65a15.52,15.52,0,0,0-14.06,0l-32.69,19a6,6,0,0,0-2.56,2.6h-.33v1.5l.06,69.58a3.19,3.19,0,0,0,0,1.27v0h0A5.42,5.42,0,0,0,35.29,189L68.2,208a15.49,15.49,0,0,0,14.06,0L115,189c2-1.16,3-2.7,2.87-4.23Z"/><path class="cls-3" d="M75.66,206.56a11.14,11.14,0,0,1-5.38-1.24l-32.91-19c-1-.57-1.28-1.1-1.28-1.22s.3-.64,1.24-1.19l32.7-19a11,11,0,0,1,5.35-1.24,11.11,11.11,0,0,1,5.38,1.24l32.91,19c1,.57,1.28,1.1,1.28,1.23s-.29.63-1.24,1.18L81,205.32A11,11,0,0,1,75.66,206.56Z"/><path class="cls-4" d="M115.33,237.68c3.89,2.25,3.92,5.9,0,8.15l-32.7,19a15.52,15.52,0,0,1-14.06,0l-32.91-19c-3.89-2.25-3.91-5.9,0-8.15l32.69-19a15.52,15.52,0,0,1,14.06,0Z"/><path class="cls-5" d="M117.83,241.45V171.58h0c.08-1.55-.88-3.11-2.92-4.29L82,148.29a15.52,15.52,0,0,0-14.06,0l-32.69,19a6,6,0,0,0-2.56,2.6h-.33v1.5L32.42,241a3.19,3.19,0,0,0,0,1.27v0h0a5.42,5.42,0,0,0,2.86,3.43l32.91,19a15.49,15.49,0,0,0,14.06,0l32.7-19c2-1.16,3-2.7,2.87-4.23Z"/><path class="cls-6" d="M75.66,263.2A11.14,11.14,0,0,1,70.28,262L37.37,243c-1-.57-1.28-1.1-1.28-1.23s.3-.63,1.24-1.18l32.7-19a11,11,0,0,1,5.35-1.24,11.11,11.11,0,0,1,5.38,1.24l32.91,19c1,.57,1.28,1.1,1.28,1.23s-.29.63-1.24,1.18L81,262A11,11,0,0,1,75.66,263.2Z"/><path class="cls-7" d="M115.33,294.92c3.89,2.24,3.92,5.89,0,8.14l-32.7,19a15.49,15.49,0,0,1-14.06,0l-32.91-19c-3.89-2.25-3.91-5.9,0-8.15l32.69-19a15.52,15.52,0,0,1,14.06,0Z"/><path class="cls-8" d="M117.83,298.69V228.81h0c.08-1.54-.88-3.11-2.92-4.28L82,205.53a15.52,15.52,0,0,0-14.06,0l-32.69,19a6,6,0,0,0-2.56,2.6h-.33v1.5l.06,69.58a3.24,3.24,0,0,0,0,1.28h0a5.42,5.42,0,0,0,2.86,3.43l32.91,19a15.49,15.49,0,0,0,14.06,0l32.7-19c2-1.16,3-2.7,2.87-4.22Z"/><path class="cls-9" d="M75.66,320.43a11.14,11.14,0,0,1-5.38-1.24l-32.91-19c-1-.56-1.28-1.09-1.28-1.22s.3-.64,1.24-1.19l32.7-19a11,11,0,0,1,5.35-1.24,11.11,11.11,0,0,1,5.38,1.25l32.91,19c1,.56,1.28,1.09,1.28,1.22s-.29.64-1.24,1.18L81,319.19A11,11,0,0,1,75.66,320.43Z"/><path class="cls-10" d="M115.33,351.56c3.89,2.24,3.92,5.89,0,8.14l-32.7,19a15.49,15.49,0,0,1-14.06,0l-32.91-19c-3.89-2.25-3.91-5.9,0-8.15l32.69-19a15.52,15.52,0,0,1,14.06,0Z"/><path class="cls-11" d="M117.83,355.33V285.45h0c.08-1.55-.88-3.11-2.92-4.28L82,262.17a15.52,15.52,0,0,0-14.06,0l-32.69,19a6,6,0,0,0-2.56,2.6h-.33v1.5l.06,69.58a3.25,3.25,0,0,0,0,1.28h0a5.42,5.42,0,0,0,2.86,3.43l32.91,19a15.49,15.49,0,0,0,14.06,0l32.7-19c2-1.16,3-2.7,2.87-4.22Z"/><path class="cls-12" d="M75.66,377.07a11.14,11.14,0,0,1-5.38-1.24l-32.91-19c-1-.56-1.28-1.09-1.28-1.22s.3-.64,1.24-1.19l32.7-19a11,11,0,0,1,5.35-1.24,11.11,11.11,0,0,1,5.38,1.25l32.91,19c1,.56,1.28,1.09,1.28,1.22s-.29.63-1.24,1.18L81,375.83A11,11,0,0,1,75.66,377.07Z"/><line class="cls-13" x1="118.83" y1="184.81" x2="119.83" y2="184.81"/><line class="cls-14" x1="121.79" y1="184.81" x2="171.62" y2="184.81"/><line class="cls-13" x1="172.6" y1="184.81" x2="173.6" y2="184.81"/><line class="cls-13" x1="118.83" y1="241.75" x2="119.83" y2="241.75"/><line class="cls-14" x1="121.79" y1="241.75" x2="171.62" y2="241.75"/><line class="cls-13" x1="172.6" y1="241.75" x2="173.6" y2="241.75"/><line class="cls-13" x1="118.83" y1="298.7" x2="119.83" y2="298.7"/><line class="cls-14" x1="121.79" y1="298.7" x2="171.62" y2="298.7"/><line class="cls-13" x1="172.6" y1="298.7" x2="173.6" y2="298.7"/><line class="cls-13" x1="118.83" y1="355.64" x2="119.83" y2="355.64"/><line class="cls-14" x1="121.79" y1="355.64" x2="171.62" y2="355.64"/><line class="cls-13" x1="172.6" y1="355.64" x2="173.6" y2="355.64"/></g></svg>