<svg xmlns="http://www.w3.org/2000/svg" xmlns:xlink="http://www.w3.org/1999/xlink" viewBox="0 0 243.06 434.55"><defs><style>.cls-1{fill:url(#linear-gradient);}.cls-11,.cls-2,.cls-5,.cls-8{opacity:0.39;}.cls-2{fill:url(#linear-gradient-2);}.cls-3{fill:url(#linear-gradient-3);}.cls-4{fill:url(#linear-gradient-4);}.cls-5{fill:url(#linear-gradient-5);}.cls-6{fill:url(#linear-gradient-6);}.cls-7{fill:url(#linear-gradient-7);}.cls-8{fill:url(#linear-gradient-8);}.cls-9{fill:url(#linear-gradient-9);}.cls-10{fill:url(#linear-gradient-10);}.cls-11{fill:url(#linear-gradient-11);}.cls-12{fill:url(#linear-gradient-12);}.cls-13,.cls-14{fill:none;stroke:#a09e9f;stroke-linecap:round;stroke-miterlimit:10;stroke-width:0.5px;}.cls-14{stroke-dasharray:1.95 1.95;}</style><linearGradient id="linear-gradient" x1="52.17" y1="153.93" x2="137.65" y2="153.93" gradientUnits="userSpaceOnUse"><stop offset="0" stop-color="#f0d3aa"/><stop offset="0.47" stop-color="#f0d2a8"/><stop offset="0.64" stop-color="#efcea1"/><stop offset="0.77" stop-color="#edc896"/><stop offset="0.86" stop-color="#eabe85"/><stop offset="0.95" stop-color="#e7b26f"/><stop offset="1" stop-color="#e4a85d"/></linearGradient><linearGradient id="linear-gradient-2" x1="94.48" y1="178.54" x2="94.48" y2="58.79" gradientUnits="userSpaceOnUse"><stop offset="0" stop-color="#e4a85d"/><stop offset="0.15" stop-color="#ebbd85" stop-opacity="0.75"/><stop offset="0.31" stop-color="#f1d1aa" stop-opacity="0.53"/><stop offset="0.46" stop-color="#f6e2c8" stop-opacity="0.34"/><stop offset="0.61" stop-color="#faeee0" stop-opacity="0.19"/><stop offset="0.76" stop-color="#fdf8f1" stop-opacity="0.09"/><stop offset="0.89" stop-color="#fefdfb" stop-opacity="0.02"/><stop offset="1" stop-color="#fff" stop-opacity="0"/></linearGradient><linearGradient id="linear-gradient-3" x1="134.34" y1="153.93" x2="55.48" y2="153.93" gradientUnits="userSpaceOnUse"><stop offset="0" stop-color="#cf8440"/><stop offset="0.29" stop-color="#ce8139"/><stop offset="0.7" stop-color="#cd7a27"/><stop offset="1" stop-color="#cb7315"/></linearGradient><linearGradient id="linear-gradient-4" x1="52.17" y1="210.57" x2="137.65" y2="210.57" gradientUnits="userSpaceOnUse"><stop offset="0" stop-color="#edf0c0"/><stop offset="0.47" stop-color="#edf0be"/><stop offset="0.64" stop-color="#ecefb7"/><stop offset="0.77" stop-color="#ebedac"/><stop offset="0.86" stop-color="#e9ea9b"/><stop offset="0.95" stop-color="#e6e685"/><stop offset="1" stop-color="#e4e373"/></linearGradient><linearGradient id="linear-gradient-5" x1="94.48" y1="235.18" x2="94.48" y2="115.42" gradientUnits="userSpaceOnUse"><stop offset="0" stop-color="#e4e373"/><stop offset="0.15" stop-color="#ebea95" stop-opacity="0.75"/><stop offset="0.31" stop-color="#f1f0b5" stop-opacity="0.53"/><stop offset="0.46" stop-color="#f6f6d0" stop-opacity="0.34"/><stop offset="0.61" stop-color="#fafae4" stop-opacity="0.19"/><stop offset="0.76" stop-color="#fdfdf3" stop-opacity="0.09"/><stop offset="0.89" stop-color="#fefefc" stop-opacity="0.02"/><stop offset="1" stop-color="#fff" stop-opacity="0"/></linearGradient><linearGradient id="linear-gradient-6" x1="134.34" y1="210.57" x2="55.48" y2="210.57" gradientUnits="userSpaceOnUse"><stop offset="0" stop-color="#cfc753"/><stop offset="0.3" stop-color="#cec74c"/><stop offset="0.74" stop-color="#ccc63a"/><stop offset="1" stop-color="#cac62b"/></linearGradient><linearGradient id="linear-gradient-7" x1="25.59" y1="282.96" x2="163.44" y2="282.96" gradientUnits="userSpaceOnUse"><stop offset="0" stop-color="#c1ddf4"/><stop offset="0.47" stop-color="#bfdcf4"/><stop offset="0.64" stop-color="#b8daf3"/><stop offset="0.76" stop-color="#add6f2"/><stop offset="0.86" stop-color="#9cd0f0"/><stop offset="0.94" stop-color="#86c9ee"/><stop offset="1" stop-color="#70c1ec"/></linearGradient><linearGradient id="linear-gradient-8" x1="93.83" y1="322.65" x2="93.83" y2="129.51" gradientUnits="userSpaceOnUse"><stop offset="0" stop-color="#70c1ec"/><stop offset="0.01" stop-color="#71c2ec" stop-opacity="0.99"/><stop offset="0.16" stop-color="#96d2f1" stop-opacity="0.73"/><stop offset="0.32" stop-color="#b6dff5" stop-opacity="0.51"/><stop offset="0.48" stop-color="#d0ebf9" stop-opacity="0.33"/><stop offset="0.62" stop-color="#e5f4fc" stop-opacity="0.18"/><stop offset="0.76" stop-color="#f3fafd" stop-opacity="0.08"/><stop offset="0.89" stop-color="#fcfeff" stop-opacity="0.02"/><stop offset="1" stop-color="#fff" stop-opacity="0"/></linearGradient><linearGradient id="linear-gradient-9" x1="158.1" y1="282.96" x2="30.93" y2="282.96" gradientUnits="userSpaceOnUse"><stop offset="0" stop-color="#50c0d6"/><stop offset="0.26" stop-color="#49bcd6"/><stop offset="0.62" stop-color="#37afd5"/><stop offset="1" stop-color="#1c9ed3"/></linearGradient><linearGradient id="linear-gradient-10" x1="52.17" y1="354.79" x2="137.65" y2="354.79" gradientUnits="userSpaceOnUse"><stop offset="0" stop-color="#acdbe0"/><stop offset="0.51" stop-color="#aadadf"/><stop offset="0.69" stop-color="#a3d8db"/><stop offset="0.82" stop-color="#98d3d5"/><stop offset="0.92" stop-color="#87cdcc"/><stop offset="1" stop-color="#74c6c2"/></linearGradient><linearGradient id="linear-gradient-11" x1="94.48" y1="379.4" x2="94.48" y2="259.64" gradientUnits="userSpaceOnUse"><stop offset="0" stop-color="#74c6c2"/><stop offset="0.08" stop-color="#86ceca" stop-opacity="0.87"/><stop offset="0.25" stop-color="#abdcda" stop-opacity="0.61"/><stop offset="0.42" stop-color="#c9e9e7" stop-opacity="0.39"/><stop offset="0.58" stop-color="#e1f3f2" stop-opacity="0.22"/><stop offset="0.74" stop-color="#f1f9f9" stop-opacity="0.1"/><stop offset="0.88" stop-color="#fcfefd" stop-opacity="0.03"/><stop offset="1" stop-color="#fff" stop-opacity="0"/></linearGradient><linearGradient id="linear-gradient-12" x1="134.34" y1="354.79" x2="55.48" y2="354.79" gradientUnits="userSpaceOnUse"><stop offset="0" stop-color="#56bb9a"/><stop offset="0.52" stop-color="#4fba9d"/><stop offset="1" stop-color="#44b8a1"/></linearGradient></defs><g id="图层_3" data-name="图层 3"><path class="cls-1" d="M134.71,149.86c3.9,2.25,3.92,5.9,0,8.14l-32.69,19A15.49,15.49,0,0,1,88,177L55.1,158c-3.89-2.24-3.92-5.89,0-8.14l32.69-19a15.52,15.52,0,0,1,14.06,0Z"/><path class="cls-2" d="M137.22,153.63V83.76h0c.09-1.54-.88-3.1-2.92-4.28l-32.91-19a15.47,15.47,0,0,0-14,0l-32.7,19a6,6,0,0,0-2.55,2.6h-.34v1.5l.06,69.58a3.39,3.39,0,0,0,0,1.27v0h0a5.39,5.39,0,0,0,2.86,3.43l32.91,19a15.49,15.49,0,0,0,14.06,0l32.69-19c2-1.17,2.95-2.7,2.87-4.23Z"/><path class="cls-3" d="M95.05,175.38a11.23,11.23,0,0,1-5.38-1.24l-32.91-19c-1-.56-1.28-1.09-1.28-1.22s.29-.64,1.24-1.19l32.7-19a11,11,0,0,1,5.34-1.24,11.15,11.15,0,0,1,5.39,1.24l32.91,19c1,.57,1.28,1.1,1.28,1.22s-.3.64-1.24,1.19l-32.69,19A11,11,0,0,1,95.05,175.38Z"/><path class="cls-4" d="M134.71,206.5c3.9,2.25,3.92,5.9,0,8.14l-32.69,19a15.49,15.49,0,0,1-14.06,0l-32.91-19c-3.89-2.24-3.92-5.89,0-8.14l32.69-19a15.49,15.49,0,0,1,14.06,0Z"/><path class="cls-5" d="M137.22,210.27V140.39h0c.09-1.54-.88-3.1-2.92-4.28l-32.91-19a15.47,15.47,0,0,0-14,0l-32.7,19a5.85,5.85,0,0,0-2.55,2.6h-.34v1.5l.06,69.58a3.39,3.39,0,0,0,0,1.27v0h0a5.39,5.39,0,0,0,2.86,3.43l32.91,19a15.52,15.52,0,0,0,14.06,0l32.69-19c2-1.17,2.95-2.7,2.87-4.23Z"/><path class="cls-6" d="M95.05,232a11.11,11.11,0,0,1-5.38-1.25l-32.91-19c-1-.56-1.28-1.09-1.28-1.22s.29-.64,1.24-1.19l32.7-19a12.27,12.27,0,0,1,10.73,0l32.91,19c1,.56,1.28,1.09,1.28,1.22s-.3.64-1.24,1.19l-32.69,19A11.14,11.14,0,0,1,95.05,232Z"/><path class="cls-7" d="M158.71,276.39c6.28,3.63,6.32,9.51.08,13.13l-52.73,30.64c-6.24,3.63-16.39,3.63-22.67,0L30.32,289.52C24,285.9,24,280,30.24,276.39L83,245.75c6.24-3.63,16.39-3.62,22.67,0Z"/><path class="cls-8" d="M162.75,282.47V169.78h0c.14-2.49-1.42-5-4.71-6.9L105,132.23c-6.28-3.62-16.43-3.62-22.67,0L29.57,162.87a9.65,9.65,0,0,0-4.13,4.19h-.53v2.42l.1,112.2a5.29,5.29,0,0,0,0,2.06v0h0c.4,2,1.93,4,4.62,5.54l53.07,30.64c6.28,3.62,16.43,3.63,22.68,0l52.72-30.64c3.23-1.88,4.76-4.36,4.63-6.82Z"/><path class="cls-9" d="M94.74,317.54a18,18,0,0,1-8.68-2L33,284.9c-1.57-.91-2.06-1.77-2.06-2s.47-1,2-1.92l52.73-30.64a17.72,17.72,0,0,1,8.62-2,18,18,0,0,1,8.69,2L156,281c1.57.91,2.06,1.76,2.06,2s-.47,1-2,1.91l-52.73,30.64A17.77,17.77,0,0,1,94.74,317.54Z"/><path class="cls-10" d="M134.71,350.72c3.9,2.24,3.92,5.89,0,8.14l-32.69,19a15.49,15.49,0,0,1-14.06,0l-32.91-19c-3.89-2.25-3.92-5.9,0-8.15l32.69-19a15.52,15.52,0,0,1,14.06,0Z"/><path class="cls-11" d="M137.22,354.49V284.61h0c.09-1.54-.88-3.11-2.92-4.28l-32.91-19a15.5,15.5,0,0,0-14,0l-32.7,19a6,6,0,0,0-2.55,2.6h-.34v1.5L51.81,354a3.44,3.44,0,0,0,0,1.28h0a5.39,5.39,0,0,0,2.86,3.43l32.91,19a15.49,15.49,0,0,0,14.06,0l32.69-19c2-1.16,2.95-2.7,2.87-4.22Z"/><path class="cls-12" d="M95.05,376.23A11.11,11.11,0,0,1,89.67,375L56.76,356c-1-.56-1.28-1.09-1.28-1.22s.29-.64,1.24-1.19l32.7-19a11,11,0,0,1,5.34-1.24,11.15,11.15,0,0,1,5.39,1.25l32.91,19c1,.56,1.28,1.09,1.28,1.22s-.3.64-1.24,1.18l-32.69,19A11,11,0,0,1,95.05,376.23Z"/><line class="cls-13" x1="139.22" y1="153.93" x2="140.22" y2="153.93"/><line class="cls-14" x1="142.17" y1="153.93" x2="192" y2="153.93"/><line class="cls-13" x1="192.98" y1="153.93" x2="193.98" y2="153.93"/><line class="cls-13" x1="139.22" y1="210.87" x2="140.22" y2="210.87"/><line class="cls-14" x1="142.17" y1="210.87" x2="192" y2="210.87"/><line class="cls-13" x1="192.98" y1="210.87" x2="193.98" y2="210.87"/><line class="cls-13" x1="164.44" y1="282.03" x2="165.44" y2="282.03"/><line class="cls-14" x1="167.4" y1="282.03" x2="217.23" y2="282.03"/><line class="cls-13" x1="218.21" y1="282.03" x2="219.21" y2="282.03"/><line class="cls-13" x1="139.22" y1="354.8" x2="140.22" y2="354.8"/><line class="cls-14" x1="142.17" y1="354.8" x2="192" y2="354.8"/><line class="cls-13" x1="192.98" y1="354.8" x2="193.98" y2="354.8"/></g></svg>