<svg xmlns="http://www.w3.org/2000/svg" xmlns:xlink="http://www.w3.org/1999/xlink" viewBox="0 0 248.17 434.55"><defs><style>.cls-1{fill:url(#linear-gradient);}.cls-11,.cls-2,.cls-5,.cls-8{opacity:0.39;}.cls-2{fill:url(#linear-gradient-2);}.cls-3{fill:url(#linear-gradient-3);}.cls-4{fill:url(#linear-gradient-4);}.cls-5{fill:url(#linear-gradient-5);}.cls-6{fill:url(#linear-gradient-6);}.cls-7{fill:url(#linear-gradient-7);}.cls-8{fill:url(#linear-gradient-8);}.cls-9{fill:url(#linear-gradient-9);}.cls-10{fill:url(#linear-gradient-10);}.cls-11{fill:url(#linear-gradient-11);}.cls-12{fill:url(#linear-gradient-12);}.cls-13,.cls-14{fill:none;stroke:#a09e9f;stroke-linecap:round;stroke-miterlimit:10;stroke-width:0.5px;}.cls-14{stroke-dasharray:1.95 1.95;}</style><linearGradient id="linear-gradient" x1="52.82" y1="154.97" x2="138.3" y2="154.97" gradientUnits="userSpaceOnUse"><stop offset="0" stop-color="#f0d3aa"/><stop offset="0.47" stop-color="#f0d2a8"/><stop offset="0.64" stop-color="#efcea1"/><stop offset="0.77" stop-color="#edc896"/><stop offset="0.86" stop-color="#eabe85"/><stop offset="0.95" stop-color="#e7b26f"/><stop offset="1" stop-color="#e4a85d"/></linearGradient><linearGradient id="linear-gradient-2" x1="95.13" y1="179.58" x2="95.13" y2="59.82" gradientUnits="userSpaceOnUse"><stop offset="0" stop-color="#e4a85d"/><stop offset="0.15" stop-color="#ebbd85" stop-opacity="0.75"/><stop offset="0.31" stop-color="#f1d1aa" stop-opacity="0.53"/><stop offset="0.46" stop-color="#f6e2c8" stop-opacity="0.34"/><stop offset="0.61" stop-color="#faeee0" stop-opacity="0.19"/><stop offset="0.76" stop-color="#fdf8f1" stop-opacity="0.09"/><stop offset="0.89" stop-color="#fefdfb" stop-opacity="0.02"/><stop offset="1" stop-color="#fff" stop-opacity="0"/></linearGradient><linearGradient id="linear-gradient-3" x1="134.99" y1="154.97" x2="56.13" y2="154.97" gradientUnits="userSpaceOnUse"><stop offset="0" stop-color="#cf8440"/><stop offset="0.29" stop-color="#ce8139"/><stop offset="0.7" stop-color="#cd7a27"/><stop offset="1" stop-color="#cb7315"/></linearGradient><linearGradient id="linear-gradient-4" x1="52.82" y1="211.61" x2="138.3" y2="211.61" gradientUnits="userSpaceOnUse"><stop offset="0" stop-color="#edf0c0"/><stop offset="0.47" stop-color="#edf0be"/><stop offset="0.64" stop-color="#ecefb7"/><stop offset="0.77" stop-color="#ebedac"/><stop offset="0.86" stop-color="#e9ea9b"/><stop offset="0.95" stop-color="#e6e685"/><stop offset="1" stop-color="#e4e373"/></linearGradient><linearGradient id="linear-gradient-5" x1="95.13" y1="236.22" x2="95.13" y2="116.46" gradientUnits="userSpaceOnUse"><stop offset="0" stop-color="#e4e373"/><stop offset="0.15" stop-color="#ebea95" stop-opacity="0.75"/><stop offset="0.31" stop-color="#f1f0b5" stop-opacity="0.53"/><stop offset="0.46" stop-color="#f6f6d0" stop-opacity="0.34"/><stop offset="0.61" stop-color="#fafae4" stop-opacity="0.19"/><stop offset="0.76" stop-color="#fdfdf3" stop-opacity="0.09"/><stop offset="0.89" stop-color="#fefefc" stop-opacity="0.02"/><stop offset="1" stop-color="#fff" stop-opacity="0"/></linearGradient><linearGradient id="linear-gradient-6" x1="134.99" y1="211.61" x2="56.13" y2="211.61" gradientUnits="userSpaceOnUse"><stop offset="0" stop-color="#cfc753"/><stop offset="0.3" stop-color="#cec74c"/><stop offset="0.74" stop-color="#ccc63a"/><stop offset="1" stop-color="#cac62b"/></linearGradient><linearGradient id="linear-gradient-7" x1="52.82" y1="267.84" x2="138.3" y2="267.84" gradientUnits="userSpaceOnUse"><stop offset="0" stop-color="#c1ddf4"/><stop offset="0.47" stop-color="#bfdcf4"/><stop offset="0.64" stop-color="#b8daf3"/><stop offset="0.76" stop-color="#add6f2"/><stop offset="0.86" stop-color="#9cd0f0"/><stop offset="0.94" stop-color="#86c9ee"/><stop offset="1" stop-color="#70c1ec"/></linearGradient><linearGradient id="linear-gradient-8" x1="95.13" y1="292.45" x2="95.13" y2="172.69" gradientUnits="userSpaceOnUse"><stop offset="0" stop-color="#70c1ec"/><stop offset="0.01" stop-color="#71c2ec" stop-opacity="0.99"/><stop offset="0.16" stop-color="#96d2f1" stop-opacity="0.73"/><stop offset="0.32" stop-color="#b6dff5" stop-opacity="0.51"/><stop offset="0.48" stop-color="#d0ebf9" stop-opacity="0.33"/><stop offset="0.62" stop-color="#e5f4fc" stop-opacity="0.18"/><stop offset="0.76" stop-color="#f3fafd" stop-opacity="0.08"/><stop offset="0.89" stop-color="#fcfeff" stop-opacity="0.02"/><stop offset="1" stop-color="#fff" stop-opacity="0"/></linearGradient><linearGradient id="linear-gradient-9" x1="134.99" y1="267.84" x2="56.13" y2="267.84" gradientUnits="userSpaceOnUse"><stop offset="0" stop-color="#50c0d6"/><stop offset="0.26" stop-color="#49bcd6"/><stop offset="0.62" stop-color="#37afd5"/><stop offset="1" stop-color="#1c9ed3"/></linearGradient><linearGradient id="linear-gradient-10" x1="26.81" y1="340.78" x2="164.99" y2="340.78" gradientUnits="userSpaceOnUse"><stop offset="0" stop-color="#acdbe0"/><stop offset="0.51" stop-color="#aadadf"/><stop offset="0.69" stop-color="#a3d8db"/><stop offset="0.82" stop-color="#98d3d5"/><stop offset="0.92" stop-color="#87cdcc"/><stop offset="1" stop-color="#74c6c2"/></linearGradient><linearGradient id="linear-gradient-11" x1="95.21" y1="380.57" x2="95.21" y2="186.99" gradientUnits="userSpaceOnUse"><stop offset="0" stop-color="#74c6c2"/><stop offset="0.08" stop-color="#86ceca" stop-opacity="0.87"/><stop offset="0.25" stop-color="#abdcda" stop-opacity="0.61"/><stop offset="0.42" stop-color="#c9e9e7" stop-opacity="0.39"/><stop offset="0.58" stop-color="#e1f3f2" stop-opacity="0.22"/><stop offset="0.74" stop-color="#f1f9f9" stop-opacity="0.1"/><stop offset="0.88" stop-color="#fcfefd" stop-opacity="0.03"/><stop offset="1" stop-color="#fff" stop-opacity="0"/></linearGradient><linearGradient id="linear-gradient-12" x1="159.63" y1="340.78" x2="32.17" y2="340.78" gradientUnits="userSpaceOnUse"><stop offset="0" stop-color="#56bb9a"/><stop offset="0.52" stop-color="#4fba9d"/><stop offset="1" stop-color="#44b8a1"/></linearGradient></defs><g id="图层_4" data-name="图层 4"><path class="cls-1" d="M135.37,150.9c3.89,2.24,3.91,5.89,0,8.14l-32.7,19a15.49,15.49,0,0,1-14.06,0L55.75,159c-3.89-2.25-3.92-5.9,0-8.15l32.69-19a15.52,15.52,0,0,1,14.06,0Z"/><path class="cls-2" d="M137.87,154.67V84.79h0c.09-1.54-.88-3.11-2.92-4.28l-32.9-19A15.52,15.52,0,0,0,88,61.5l-32.7,19a6,6,0,0,0-2.55,2.6H52.4v1.5l.06,69.58a3.44,3.44,0,0,0,0,1.28h0a5.42,5.42,0,0,0,2.86,3.43l32.91,19a15.49,15.49,0,0,0,14.06,0l32.69-19c2-1.16,3-2.7,2.88-4.22Z"/><path class="cls-3" d="M95.7,176.41a11.11,11.11,0,0,1-5.38-1.24l-32.91-19c-1-.56-1.28-1.09-1.28-1.22s.29-.64,1.24-1.19l32.7-19a11,11,0,0,1,5.35-1.24,11.14,11.14,0,0,1,5.38,1.25l32.91,19c1,.56,1.28,1.09,1.28,1.22s-.3.64-1.24,1.18l-32.69,19A11,11,0,0,1,95.7,176.41Z"/><path class="cls-4" d="M135.37,207.54c3.89,2.24,3.91,5.89,0,8.14l-32.7,19a15.52,15.52,0,0,1-14.06,0l-32.91-19c-3.89-2.25-3.92-5.9,0-8.15l32.69-19a15.52,15.52,0,0,1,14.06,0Z"/><path class="cls-5" d="M137.87,211.3V141.43h0c.09-1.55-.88-3.11-2.92-4.28l-32.9-19a15.52,15.52,0,0,0-14.06,0l-32.7,19a6,6,0,0,0-2.55,2.6H52.4v1.5l.06,69.58a3.44,3.44,0,0,0,0,1.28h0a5.42,5.42,0,0,0,2.86,3.43l32.91,19a15.49,15.49,0,0,0,14.06,0l32.69-19c2-1.16,3-2.7,2.88-4.23Z"/><path class="cls-6" d="M95.7,233.05a11.11,11.11,0,0,1-5.38-1.24l-32.91-19c-1-.56-1.28-1.09-1.28-1.22s.29-.64,1.24-1.19l32.7-19a11,11,0,0,1,5.35-1.24,11.26,11.26,0,0,1,5.38,1.24l32.91,19c1,.56,1.28,1.09,1.28,1.22s-.3.63-1.24,1.18l-32.69,19A11,11,0,0,1,95.7,233.05Z"/><path class="cls-7" d="M135.37,263.77c3.89,2.25,3.91,5.89,0,8.14l-32.7,19a15.49,15.49,0,0,1-14.06,0l-32.91-19c-3.89-2.25-3.92-5.89,0-8.14l32.69-19a15.49,15.49,0,0,1,14.06,0Z"/><path class="cls-8" d="M137.87,267.54V197.66h0c.09-1.54-.88-3.1-2.92-4.28l-32.9-19a15.49,15.49,0,0,0-14.06,0l-32.7,19A5.94,5.94,0,0,0,52.73,196H52.4v1.49L52.46,267a3.44,3.44,0,0,0,0,1.28h0a5.39,5.39,0,0,0,2.86,3.43l32.91,19a15.49,15.49,0,0,0,14.06,0l32.69-19c2-1.16,3-2.7,2.88-4.22Z"/><path class="cls-9" d="M95.7,289.28A11.11,11.11,0,0,1,90.32,288L57.41,269c-1-.56-1.28-1.09-1.28-1.22s.29-.64,1.24-1.19l32.7-19a12.27,12.27,0,0,1,10.73,0l32.91,19c1,.56,1.28,1.09,1.28,1.22s-.3.64-1.24,1.19l-32.69,19A11.14,11.14,0,0,1,95.7,289.28Z"/><path class="cls-10" d="M160.24,334.2c6.29,3.64,6.33,9.53.08,13.16l-52.84,30.72c-6.26,3.63-16.44,3.63-22.73,0L31.56,347.37c-6.29-3.64-6.33-9.53-.08-13.17l52.85-30.71c6.25-3.63,16.43-3.63,22.72,0Z"/><path class="cls-11" d="M164.29,340.3v-113h0c.14-2.49-1.42-5-4.72-6.92l-53.19-30.71c-6.29-3.63-16.47-3.64-22.72,0L30.8,220.43a9.65,9.65,0,0,0-4.13,4.19h-.54V227l.1,112.47a5.49,5.49,0,0,0,0,2.06v0h0c.4,2,1.94,4,4.63,5.55l53.19,30.71c6.29,3.63,16.47,3.64,22.72,0l52.85-30.71c3.24-1.88,4.77-4.37,4.64-6.83Z"/><path class="cls-12" d="M96.13,375.45a18.07,18.07,0,0,1-8.7-2l-53.2-30.71c-1.57-.91-2.06-1.77-2.06-2s.47-1,2-1.92L87,308.12a17.84,17.84,0,0,1,8.65-2,18.07,18.07,0,0,1,8.7,2l53.19,30.71c1.58.91,2.07,1.77,2.07,2s-.47,1-2,1.91l-52.85,30.71A17.7,17.7,0,0,1,96.13,375.45Z"/><line class="cls-13" x1="139.87" y1="154.67" x2="140.87" y2="154.67"/><line class="cls-14" x1="142.83" y1="154.67" x2="192.66" y2="154.67"/><line class="cls-13" x1="193.63" y1="154.67" x2="194.63" y2="154.67"/><line class="cls-13" x1="139.87" y1="211.61" x2="140.87" y2="211.61"/><line class="cls-14" x1="142.83" y1="211.61" x2="192.66" y2="211.61"/><line class="cls-13" x1="193.63" y1="211.61" x2="194.63" y2="211.61"/><line class="cls-13" x1="139.87" y1="267.55" x2="140.87" y2="267.55"/><line class="cls-14" x1="142.83" y1="267.55" x2="192.66" y2="267.55"/><line class="cls-13" x1="193.63" y1="267.55" x2="194.63" y2="267.55"/><line class="cls-13" x1="166.25" y1="340.78" x2="167.25" y2="340.78"/><line class="cls-14" x1="169.21" y1="340.78" x2="219.04" y2="340.78"/><line class="cls-13" x1="220.01" y1="340.78" x2="221.01" y2="340.78"/></g></svg>