<svg xmlns="http://www.w3.org/2000/svg" xmlns:xlink="http://www.w3.org/1999/xlink" viewBox="0 0 1244.94 434.55"><defs><style>.cls-1{fill:url(#linear-gradient);}.cls-11,.cls-16,.cls-19,.cls-2,.cls-22,.cls-25,.cls-28,.cls-31,.cls-34,.cls-37,.cls-40,.cls-43,.cls-46,.cls-49,.cls-5,.cls-52,.cls-55,.cls-58,.cls-61,.cls-8{opacity:0.39;}.cls-2{fill:url(#linear-gradient-2);}.cls-3{fill:url(#linear-gradient-3);}.cls-4{fill:url(#linear-gradient-4);}.cls-5{fill:url(#linear-gradient-5);}.cls-6{fill:url(#linear-gradient-6);}.cls-7{fill:url(#linear-gradient-7);}.cls-8{fill:url(#linear-gradient-8);}.cls-9{fill:url(#linear-gradient-9);}.cls-10{fill:url(#linear-gradient-10);}.cls-11{fill:url(#linear-gradient-11);}.cls-12{fill:url(#linear-gradient-12);}.cls-13,.cls-14{fill:none;stroke:#a09e9f;stroke-linecap:round;stroke-miterlimit:10;stroke-width:0.5px;}.cls-14{stroke-dasharray:1.95 1.95;}.cls-15{fill:url(#linear-gradient-13);}.cls-16{fill:url(#linear-gradient-14);}.cls-17{fill:url(#linear-gradient-15);}.cls-18{fill:url(#linear-gradient-16);}.cls-19{fill:url(#linear-gradient-17);}.cls-20{fill:url(#linear-gradient-18);}.cls-21{fill:url(#linear-gradient-19);}.cls-22{fill:url(#linear-gradient-20);}.cls-23{fill:url(#linear-gradient-21);}.cls-24{fill:url(#linear-gradient-22);}.cls-25{fill:url(#linear-gradient-23);}.cls-26{fill:url(#linear-gradient-24);}.cls-27{fill:url(#linear-gradient-25);}.cls-28{fill:url(#linear-gradient-26);}.cls-29{fill:url(#linear-gradient-27);}.cls-30{fill:url(#linear-gradient-28);}.cls-31{fill:url(#linear-gradient-29);}.cls-32{fill:url(#linear-gradient-30);}.cls-33{fill:url(#linear-gradient-31);}.cls-34{fill:url(#linear-gradient-32);}.cls-35{fill:url(#linear-gradient-33);}.cls-36{fill:url(#linear-gradient-34);}.cls-37{fill:url(#linear-gradient-35);}.cls-38{fill:url(#linear-gradient-36);}.cls-39{fill:url(#linear-gradient-37);}.cls-40{fill:url(#linear-gradient-38);}.cls-41{fill:url(#linear-gradient-39);}.cls-42{fill:url(#linear-gradient-40);}.cls-43{fill:url(#linear-gradient-41);}.cls-44{fill:url(#linear-gradient-42);}.cls-45{fill:url(#linear-gradient-43);}.cls-46{fill:url(#linear-gradient-44);}.cls-47{fill:url(#linear-gradient-45);}.cls-48{fill:url(#linear-gradient-46);}.cls-49{fill:url(#linear-gradient-47);}.cls-50{fill:url(#linear-gradient-48);}.cls-51{fill:url(#linear-gradient-49);}.cls-52{fill:url(#linear-gradient-50);}.cls-53{fill:url(#linear-gradient-51);}.cls-54{fill:url(#linear-gradient-52);}.cls-55{fill:url(#linear-gradient-53);}.cls-56{fill:url(#linear-gradient-54);}.cls-57{fill:url(#linear-gradient-55);}.cls-58{fill:url(#linear-gradient-56);}.cls-59{fill:url(#linear-gradient-57);}.cls-60{fill:url(#linear-gradient-58);}.cls-61{fill:url(#linear-gradient-59);}.cls-62{fill:url(#linear-gradient-60);}</style><linearGradient id="linear-gradient" x1="257.37" y1="170.12" x2="394.62" y2="170.12" gradientUnits="userSpaceOnUse"><stop offset="0" stop-color="#f0d3aa"/><stop offset="0.47" stop-color="#f0d2a8"/><stop offset="0.64" stop-color="#efcea1"/><stop offset="0.77" stop-color="#edc896"/><stop offset="0.86" stop-color="#eabe85"/><stop offset="0.95" stop-color="#e7b26f"/><stop offset="1" stop-color="#e4a85d"/></linearGradient><linearGradient id="linear-gradient-2" x1="325.31" y1="209.64" x2="325.31" y2="17.36" gradientUnits="userSpaceOnUse"><stop offset="0" stop-color="#e4a85d"/><stop offset="0.15" stop-color="#ebbd85" stop-opacity="0.75"/><stop offset="0.31" stop-color="#f1d1aa" stop-opacity="0.53"/><stop offset="0.46" stop-color="#f6e2c8" stop-opacity="0.34"/><stop offset="0.61" stop-color="#faeee0" stop-opacity="0.19"/><stop offset="0.76" stop-color="#fdf8f1" stop-opacity="0.09"/><stop offset="0.89" stop-color="#fefdfb" stop-opacity="0.02"/><stop offset="1" stop-color="#fff" stop-opacity="0"/></linearGradient><linearGradient id="linear-gradient-3" x1="389.3" y1="170.12" x2="262.69" y2="170.12" gradientUnits="userSpaceOnUse"><stop offset="0" stop-color="#cf8440"/><stop offset="0.29" stop-color="#ce8139"/><stop offset="0.7" stop-color="#cd7a27"/><stop offset="1" stop-color="#cb7315"/></linearGradient><linearGradient id="linear-gradient-4" x1="282.92" y1="241.75" x2="368.4" y2="241.75" gradientUnits="userSpaceOnUse"><stop offset="0" stop-color="#edf0c0"/><stop offset="0.47" stop-color="#edf0be"/><stop offset="0.64" stop-color="#ecefb7"/><stop offset="0.77" stop-color="#ebedac"/><stop offset="0.86" stop-color="#e9ea9b"/><stop offset="0.95" stop-color="#e6e685"/><stop offset="1" stop-color="#e4e373"/></linearGradient><linearGradient id="linear-gradient-5" x1="325.23" y1="266.37" x2="325.23" y2="146.61" gradientUnits="userSpaceOnUse"><stop offset="0" stop-color="#e4e373"/><stop offset="0.15" stop-color="#ebea95" stop-opacity="0.75"/><stop offset="0.31" stop-color="#f1f0b5" stop-opacity="0.53"/><stop offset="0.46" stop-color="#f6f6d0" stop-opacity="0.34"/><stop offset="0.61" stop-color="#fafae4" stop-opacity="0.19"/><stop offset="0.76" stop-color="#fdfdf3" stop-opacity="0.09"/><stop offset="0.89" stop-color="#fefefc" stop-opacity="0.02"/><stop offset="1" stop-color="#fff" stop-opacity="0"/></linearGradient><linearGradient id="linear-gradient-6" x1="365.09" y1="241.75" x2="286.23" y2="241.75" gradientUnits="userSpaceOnUse"><stop offset="0" stop-color="#cfc753"/><stop offset="0.3" stop-color="#cec74c"/><stop offset="0.74" stop-color="#ccc63a"/><stop offset="1" stop-color="#cac62b"/></linearGradient><linearGradient id="linear-gradient-7" x1="282.92" y1="298.99" x2="368.4" y2="298.99" gradientUnits="userSpaceOnUse"><stop offset="0" stop-color="#c1ddf4"/><stop offset="0.47" stop-color="#bfdcf4"/><stop offset="0.64" stop-color="#b8daf3"/><stop offset="0.76" stop-color="#add6f2"/><stop offset="0.86" stop-color="#9cd0f0"/><stop offset="0.94" stop-color="#86c9ee"/><stop offset="1" stop-color="#70c1ec"/></linearGradient><linearGradient id="linear-gradient-8" x1="325.23" y1="323.6" x2="325.23" y2="203.84" gradientUnits="userSpaceOnUse"><stop offset="0" stop-color="#70c1ec"/><stop offset="0.01" stop-color="#71c2ec" stop-opacity="0.99"/><stop offset="0.16" stop-color="#96d2f1" stop-opacity="0.73"/><stop offset="0.32" stop-color="#b6dff5" stop-opacity="0.51"/><stop offset="0.48" stop-color="#d0ebf9" stop-opacity="0.33"/><stop offset="0.62" stop-color="#e5f4fc" stop-opacity="0.18"/><stop offset="0.76" stop-color="#f3fafd" stop-opacity="0.08"/><stop offset="0.89" stop-color="#fcfeff" stop-opacity="0.02"/><stop offset="1" stop-color="#fff" stop-opacity="0"/></linearGradient><linearGradient id="linear-gradient-9" x1="365.09" y1="298.99" x2="286.23" y2="298.99" gradientUnits="userSpaceOnUse"><stop offset="0" stop-color="#50c0d6"/><stop offset="0.26" stop-color="#49bcd6"/><stop offset="0.62" stop-color="#37afd5"/><stop offset="1" stop-color="#1c9ed3"/></linearGradient><linearGradient id="linear-gradient-10" x1="282.92" y1="355.63" x2="368.4" y2="355.63" gradientUnits="userSpaceOnUse"><stop offset="0" stop-color="#acdbe0"/><stop offset="0.51" stop-color="#aadadf"/><stop offset="0.69" stop-color="#a3d8db"/><stop offset="0.82" stop-color="#98d3d5"/><stop offset="0.92" stop-color="#87cdcc"/><stop offset="1" stop-color="#74c6c2"/></linearGradient><linearGradient id="linear-gradient-11" x1="325.23" y1="380.24" x2="325.23" y2="260.48" gradientUnits="userSpaceOnUse"><stop offset="0" stop-color="#74c6c2"/><stop offset="0.08" stop-color="#86ceca" stop-opacity="0.87"/><stop offset="0.25" stop-color="#abdcda" stop-opacity="0.61"/><stop offset="0.42" stop-color="#c9e9e7" stop-opacity="0.39"/><stop offset="0.58" stop-color="#e1f3f2" stop-opacity="0.22"/><stop offset="0.74" stop-color="#f1f9f9" stop-opacity="0.1"/><stop offset="0.88" stop-color="#fcfefd" stop-opacity="0.03"/><stop offset="1" stop-color="#fff" stop-opacity="0"/></linearGradient><linearGradient id="linear-gradient-12" x1="365.09" y1="355.63" x2="286.23" y2="355.63" gradientUnits="userSpaceOnUse"><stop offset="0" stop-color="#56bb9a"/><stop offset="0.52" stop-color="#4fba9d"/><stop offset="1" stop-color="#44b8a1"/></linearGradient><linearGradient id="linear-gradient-13" x1="528.07" y1="156.29" x2="613.56" y2="156.29" xlink:href="#linear-gradient"/><linearGradient id="linear-gradient-14" x1="570.39" y1="180.91" x2="570.39" y2="61.15" xlink:href="#linear-gradient-2"/><linearGradient id="linear-gradient-15" x1="610.24" y1="156.29" x2="531.39" y2="156.29" xlink:href="#linear-gradient-3"/><linearGradient id="linear-gradient-16" x1="501.05" y1="225.72" x2="639.15" y2="225.72" xlink:href="#linear-gradient-4"/><linearGradient id="linear-gradient-17" x1="569.42" y1="265.48" x2="569.42" y2="72.01" xlink:href="#linear-gradient-5"/><linearGradient id="linear-gradient-18" x1="633.8" y1="225.72" x2="506.41" y2="225.72" xlink:href="#linear-gradient-6"/><linearGradient id="linear-gradient-19" x1="528.07" y1="300.19" x2="613.56" y2="300.19" xlink:href="#linear-gradient-7"/><linearGradient id="linear-gradient-20" x1="570.39" y1="324.8" x2="570.39" y2="205.04" xlink:href="#linear-gradient-8"/><linearGradient id="linear-gradient-21" x1="610.24" y1="300.19" x2="531.39" y2="300.19" xlink:href="#linear-gradient-9"/><linearGradient id="linear-gradient-22" x1="528.07" y1="356.83" x2="613.56" y2="356.83" xlink:href="#linear-gradient-10"/><linearGradient id="linear-gradient-23" x1="570.39" y1="381.44" x2="570.39" y2="261.68" xlink:href="#linear-gradient-11"/><linearGradient id="linear-gradient-24" x1="610.24" y1="356.83" x2="531.39" y2="356.83" xlink:href="#linear-gradient-12"/><linearGradient id="linear-gradient-25" x1="772.17" y1="153.93" x2="857.65" y2="153.93" xlink:href="#linear-gradient"/><linearGradient id="linear-gradient-26" x1="814.48" y1="178.54" x2="814.48" y2="58.79" xlink:href="#linear-gradient-2"/><linearGradient id="linear-gradient-27" x1="854.34" y1="153.93" x2="775.48" y2="153.93" xlink:href="#linear-gradient-3"/><linearGradient id="linear-gradient-28" x1="772.17" y1="210.57" x2="857.65" y2="210.57" xlink:href="#linear-gradient-4"/><linearGradient id="linear-gradient-29" x1="814.48" y1="235.18" x2="814.48" y2="115.42" xlink:href="#linear-gradient-5"/><linearGradient id="linear-gradient-30" x1="854.34" y1="210.57" x2="775.48" y2="210.57" xlink:href="#linear-gradient-6"/><linearGradient id="linear-gradient-31" x1="745.59" y1="282.96" x2="883.44" y2="282.96" xlink:href="#linear-gradient-7"/><linearGradient id="linear-gradient-32" x1="813.83" y1="322.65" x2="813.83" y2="129.51" xlink:href="#linear-gradient-8"/><linearGradient id="linear-gradient-33" x1="878.1" y1="282.96" x2="750.93" y2="282.96" xlink:href="#linear-gradient-9"/><linearGradient id="linear-gradient-34" x1="772.17" y1="354.79" x2="857.65" y2="354.79" xlink:href="#linear-gradient-10"/><linearGradient id="linear-gradient-35" x1="814.48" y1="379.4" x2="814.48" y2="259.64" xlink:href="#linear-gradient-11"/><linearGradient id="linear-gradient-36" x1="854.34" y1="354.79" x2="775.48" y2="354.79" xlink:href="#linear-gradient-12"/><linearGradient id="linear-gradient-37" x1="1015.88" y1="154.97" x2="1101.36" y2="154.97" xlink:href="#linear-gradient"/><linearGradient id="linear-gradient-38" x1="1058.2" y1="179.58" x2="1058.2" y2="59.82" xlink:href="#linear-gradient-2"/><linearGradient id="linear-gradient-39" x1="1098.05" y1="154.97" x2="1019.19" y2="154.97" xlink:href="#linear-gradient-3"/><linearGradient id="linear-gradient-40" x1="1015.88" y1="211.61" x2="1101.36" y2="211.61" xlink:href="#linear-gradient-4"/><linearGradient id="linear-gradient-41" x1="1058.2" y1="236.22" x2="1058.2" y2="116.46" xlink:href="#linear-gradient-5"/><linearGradient id="linear-gradient-42" x1="1098.05" y1="211.61" x2="1019.19" y2="211.61" xlink:href="#linear-gradient-6"/><linearGradient id="linear-gradient-43" x1="1015.88" y1="267.84" x2="1101.36" y2="267.84" xlink:href="#linear-gradient-7"/><linearGradient id="linear-gradient-44" x1="1058.2" y1="292.45" x2="1058.2" y2="172.69" xlink:href="#linear-gradient-8"/><linearGradient id="linear-gradient-45" x1="1098.05" y1="267.84" x2="1019.19" y2="267.84" xlink:href="#linear-gradient-9"/><linearGradient id="linear-gradient-46" x1="989.88" y1="340.78" x2="1128.05" y2="340.78" xlink:href="#linear-gradient-10"/><linearGradient id="linear-gradient-47" x1="1058.28" y1="380.57" x2="1058.28" y2="186.99" xlink:href="#linear-gradient-11"/><linearGradient id="linear-gradient-48" x1="1122.69" y1="340.78" x2="995.23" y2="340.78" xlink:href="#linear-gradient-12"/><linearGradient id="linear-gradient-49" x1="65.46" y1="185.12" x2="150.94" y2="185.12" xlink:href="#linear-gradient"/><linearGradient id="linear-gradient-50" x1="107.78" y1="209.73" x2="107.78" y2="89.97" xlink:href="#linear-gradient-2"/><linearGradient id="linear-gradient-51" x1="147.63" y1="185.12" x2="68.77" y2="185.12" xlink:href="#linear-gradient-3"/><linearGradient id="linear-gradient-52" x1="65.46" y1="241.75" x2="150.94" y2="241.75" xlink:href="#linear-gradient-4"/><linearGradient id="linear-gradient-53" x1="107.78" y1="266.37" x2="107.78" y2="146.61" xlink:href="#linear-gradient-5"/><linearGradient id="linear-gradient-54" x1="147.63" y1="241.75" x2="68.77" y2="241.75" xlink:href="#linear-gradient-6"/><linearGradient id="linear-gradient-55" x1="65.46" y1="298.99" x2="150.94" y2="298.99" xlink:href="#linear-gradient-7"/><linearGradient id="linear-gradient-56" x1="107.78" y1="323.6" x2="107.78" y2="203.84" xlink:href="#linear-gradient-8"/><linearGradient id="linear-gradient-57" x1="147.63" y1="298.99" x2="68.77" y2="298.99" xlink:href="#linear-gradient-9"/><linearGradient id="linear-gradient-58" x1="65.46" y1="355.63" x2="150.94" y2="355.63" xlink:href="#linear-gradient-10"/><linearGradient id="linear-gradient-59" x1="107.78" y1="380.24" x2="107.78" y2="260.48" xlink:href="#linear-gradient-11"/><linearGradient id="linear-gradient-60" x1="147.63" y1="355.63" x2="68.77" y2="355.63" xlink:href="#linear-gradient-12"/></defs><g id="图层_1" data-name="图层 1"><path class="cls-1" d="M389.91,163.59c6.25,3.61,6.29,9.46.08,13.07L337.5,207.17c-6.22,3.61-16.33,3.6-22.58,0l-52.83-30.51c-6.25-3.61-6.29-9.46-.08-13.08l52.49-30.5c6.21-3.61,16.32-3.6,22.57,0Z"/><path class="cls-2" d="M393.93,169.64V57.45h0c.14-2.48-1.41-5-4.69-6.88l-52.84-30.5c-6.24-3.61-16.35-3.61-22.56,0l-52.49,30.5a9.56,9.56,0,0,0-4.11,4.17h-.53v2.41l.1,111.7a5.24,5.24,0,0,0,0,2v0h0c.4,2,1.93,4,4.6,5.51l52.83,30.5c6.25,3.61,16.36,3.61,22.58,0l52.49-30.5c3.21-1.87,4.74-4.34,4.61-6.79Z"/><path class="cls-3" d="M326.22,204.55a17.88,17.88,0,0,1-8.64-2l-52.84-30.51c-1.56-.9-2.05-1.75-2.05-2s.47-1,2-1.91l52.49-30.5a19.69,19.69,0,0,1,17.23,0l52.84,30.51c1.56.9,2.05,1.75,2.05,2s-.47,1-2,1.9l-52.49,30.51A17.75,17.75,0,0,1,326.22,204.55Z"/><path class="cls-4" d="M365.46,237.68c3.9,2.25,3.92,5.9.05,8.15l-32.69,19a15.52,15.52,0,0,1-14.06,0l-32.91-19c-3.89-2.25-3.92-5.9,0-8.15l32.69-19a15.52,15.52,0,0,1,14.06,0Z"/><path class="cls-5" d="M368,241.45V171.58h0c.09-1.55-.88-3.11-2.92-4.29l-32.91-19a15.5,15.5,0,0,0-14.05,0l-32.7,19a6,6,0,0,0-2.55,2.6h-.33v1.5l.06,69.58a3.39,3.39,0,0,0,0,1.27v0h0a5.39,5.39,0,0,0,2.86,3.43l32.91,19a15.49,15.49,0,0,0,14.06,0l32.69-19c2-1.16,3-2.7,2.87-4.23Z"/><path class="cls-6" d="M325.8,263.2a11.11,11.11,0,0,1-5.38-1.24l-32.91-19c-1-.57-1.28-1.1-1.28-1.23s.29-.63,1.24-1.18l32.7-19a11,11,0,0,1,5.34-1.24,11.15,11.15,0,0,1,5.39,1.24l32.91,19c1,.57,1.28,1.1,1.28,1.23s-.3.63-1.24,1.18l-32.69,19A11,11,0,0,1,325.8,263.2Z"/><path class="cls-7" d="M365.46,294.92c3.9,2.24,3.92,5.89.05,8.14l-32.69,19a15.49,15.49,0,0,1-14.06,0l-32.91-19c-3.89-2.25-3.92-5.9,0-8.15l32.69-19a15.52,15.52,0,0,1,14.06,0Z"/><path class="cls-8" d="M368,298.69V228.81h0c.09-1.54-.88-3.11-2.92-4.28l-32.91-19a15.5,15.5,0,0,0-14.05,0l-32.7,19a6,6,0,0,0-2.55,2.6h-.33v1.5l.06,69.58a3.44,3.44,0,0,0,0,1.28h0a5.39,5.39,0,0,0,2.86,3.43l32.91,19a15.49,15.49,0,0,0,14.06,0l32.69-19c2-1.16,3-2.7,2.87-4.22Z"/><path class="cls-9" d="M325.8,320.43a11.11,11.11,0,0,1-5.38-1.24l-32.91-19c-1-.56-1.28-1.09-1.28-1.22s.29-.64,1.24-1.19l32.7-19a11,11,0,0,1,5.34-1.24,11.15,11.15,0,0,1,5.39,1.25l32.91,19c1,.56,1.28,1.09,1.28,1.22s-.3.64-1.24,1.18l-32.69,19A11,11,0,0,1,325.8,320.43Z"/><path class="cls-10" d="M365.46,351.56c3.9,2.24,3.92,5.89.05,8.14l-32.69,19a15.49,15.49,0,0,1-14.06,0l-32.91-19c-3.89-2.25-3.92-5.9,0-8.15l32.69-19a15.52,15.52,0,0,1,14.06,0Z"/><path class="cls-11" d="M368,355.33V285.45h0c.09-1.55-.88-3.11-2.92-4.28l-32.91-19a15.5,15.5,0,0,0-14.05,0l-32.7,19a6,6,0,0,0-2.55,2.6h-.33v1.5l.06,69.58a3.44,3.44,0,0,0,0,1.28h0a5.39,5.39,0,0,0,2.86,3.43l32.91,19a15.49,15.49,0,0,0,14.06,0l32.69-19c2-1.16,3-2.7,2.87-4.22Z"/><path class="cls-12" d="M325.8,377.07a11.11,11.11,0,0,1-5.38-1.24l-32.91-19c-1-.56-1.28-1.09-1.28-1.22s.29-.64,1.24-1.19l32.7-19a11,11,0,0,1,5.34-1.24,11.15,11.15,0,0,1,5.39,1.25l32.91,19c1,.56,1.28,1.09,1.28,1.22s-.3.63-1.24,1.18l-32.69,19A11,11,0,0,1,325.8,377.07Z"/><line class="cls-13" x1="394.62" y1="170.12" x2="395.62" y2="170.12"/><line class="cls-14" x1="397.57" y1="170.12" x2="447.4" y2="170.12"/><line class="cls-13" x1="448.38" y1="170.12" x2="449.38" y2="170.12"/><line class="cls-13" x1="368.97" y1="241.75" x2="369.97" y2="241.75"/><line class="cls-14" x1="371.92" y1="241.75" x2="421.76" y2="241.75"/><line class="cls-13" x1="422.73" y1="241.75" x2="423.73" y2="241.75"/><line class="cls-13" x1="368.97" y1="298.7" x2="369.97" y2="298.7"/><line class="cls-14" x1="371.92" y1="298.7" x2="421.76" y2="298.7"/><line class="cls-13" x1="422.73" y1="298.7" x2="423.73" y2="298.7"/><line class="cls-13" x1="368.97" y1="355.64" x2="369.97" y2="355.64"/><line class="cls-14" x1="371.92" y1="355.64" x2="421.76" y2="355.64"/><line class="cls-13" x1="422.73" y1="355.64" x2="423.73" y2="355.64"/></g><g id="图层_2" data-name="图层 2"><path class="cls-15" d="M610.62,152.22c3.89,2.25,3.92,5.9,0,8.14l-32.69,19a15.52,15.52,0,0,1-14.06,0l-32.91-19c-3.89-2.25-3.92-5.9,0-8.15l32.7-19a15.5,15.5,0,0,1,14.05,0Z"/><path class="cls-16" d="M613.13,156V86.12h0c.09-1.55-.88-3.11-2.92-4.29l-32.91-19a15.5,15.5,0,0,0-14,0l-32.7,19a6,6,0,0,0-2.56,2.6h-.33v1.5l.07,69.58a3.39,3.39,0,0,0,0,1.27v0h0a5.4,5.4,0,0,0,2.87,3.43l32.91,19a15.49,15.49,0,0,0,14.06,0l32.69-19c2-1.16,3-2.7,2.87-4.23Z"/><path class="cls-17" d="M571,177.74a11.15,11.15,0,0,1-5.39-1.24l-32.9-19c-1-.57-1.28-1.1-1.28-1.23s.29-.63,1.24-1.18l32.69-19a11,11,0,0,1,5.35-1.24,11.15,11.15,0,0,1,5.39,1.24l32.91,19c1,.57,1.27,1.1,1.27,1.23S610,157,609,157.5l-32.7,19A11,11,0,0,1,571,177.74Z"/><path class="cls-18" d="M634.41,219.15c6.29,3.63,6.33,9.52.08,13.15L581.67,263c-6.25,3.63-16.42,3.63-22.71,0l-53.17-30.7c-6.28-3.63-6.32-9.52-.07-13.16l52.82-30.69c6.25-3.63,16.42-3.63,22.71,0Z"/><path class="cls-19" d="M638.46,225.24V112.35h0c.14-2.49-1.42-5-4.72-6.92L580.57,74.74c-6.29-3.64-16.46-3.64-22.71,0L505,105.43a9.65,9.65,0,0,0-4.13,4.19h-.54V112l.11,112.41a5.49,5.49,0,0,0,0,2.06v0h0c.4,2,1.93,4,4.62,5.55l53.17,30.69c6.29,3.63,16.46,3.63,22.71,0l52.82-30.7c3.24-1.87,4.77-4.36,4.64-6.82Z"/><path class="cls-20" d="M570.33,260.37a17.89,17.89,0,0,1-8.69-2l-53.17-30.69c-1.57-.91-2.06-1.77-2.06-2s.47-1,2-1.92l52.82-30.69a17.77,17.77,0,0,1,8.64-2,18,18,0,0,1,8.7,2l53.17,30.69c1.57.91,2.06,1.77,2.06,2s-.47,1-2,1.91L579,258.37A17.81,17.81,0,0,1,570.33,260.37Z"/><path class="cls-21" d="M610.62,296.12c3.89,2.25,3.92,5.89,0,8.14l-32.69,19a15.49,15.49,0,0,1-14.06,0l-32.91-19c-3.89-2.25-3.92-5.89,0-8.14l32.7-19a15.47,15.47,0,0,1,14.05,0Z"/><path class="cls-22" d="M613.13,299.89V230h0c.09-1.54-.88-3.1-2.92-4.28l-32.91-19a15.47,15.47,0,0,0-14,0l-32.7,19a6,6,0,0,0-2.56,2.59h-.33v1.5l.07,69.57a3.44,3.44,0,0,0,0,1.28h0a5.4,5.4,0,0,0,2.87,3.44l32.91,19a15.52,15.52,0,0,0,14.06,0l32.69-19c2-1.17,3-2.71,2.87-4.23Z"/><path class="cls-23" d="M571,321.63a11.15,11.15,0,0,1-5.39-1.24l-32.9-19c-1-.56-1.28-1.09-1.28-1.22s.29-.64,1.24-1.19l32.69-19a12.29,12.29,0,0,1,10.74,0L609,299c1,.56,1.27,1.09,1.27,1.22s-.29.64-1.23,1.19l-32.7,19A11.08,11.08,0,0,1,571,321.63Z"/><path class="cls-24" d="M610.62,352.76c3.89,2.25,3.92,5.89,0,8.14L578,379.9a15.49,15.49,0,0,1-14.06,0L531,360.9c-3.89-2.25-3.92-5.89,0-8.14l32.7-19a15.47,15.47,0,0,1,14.05,0Z"/><path class="cls-25" d="M613.13,356.53V286.65h0c.09-1.54-.88-3.1-2.92-4.28l-32.91-19a15.47,15.47,0,0,0-14,0l-32.7,19A6,6,0,0,0,528,285h-.33v1.5l.07,69.57a3.44,3.44,0,0,0,0,1.28h0a5.42,5.42,0,0,0,2.87,3.44l32.91,19a15.49,15.49,0,0,0,14.06,0l32.69-19c2-1.16,3-2.7,2.87-4.22Z"/><path class="cls-26" d="M571,378.27a11.15,11.15,0,0,1-5.39-1.24l-32.9-19c-1-.56-1.28-1.09-1.28-1.22s.29-.64,1.24-1.19l32.69-19a12.29,12.29,0,0,1,10.74,0l32.91,19c1,.56,1.27,1.09,1.27,1.22s-.29.64-1.23,1.19l-32.7,19A11.08,11.08,0,0,1,571,378.27Z"/><line class="cls-13" x1="640.15" y1="225.72" x2="641.15" y2="225.72"/><line class="cls-14" x1="643.11" y1="225.72" x2="692.94" y2="225.72"/><line class="cls-13" x1="693.91" y1="225.72" x2="694.91" y2="225.72"/><line class="cls-13" x1="614.24" y1="156.29" x2="615.24" y2="156.29"/><line class="cls-14" x1="617.2" y1="156.29" x2="667.03" y2="156.29"/><line class="cls-13" x1="668" y1="156.29" x2="669" y2="156.29"/><line class="cls-13" x1="614.13" y1="299.9" x2="615.13" y2="299.9"/><line class="cls-14" x1="617.08" y1="299.9" x2="666.91" y2="299.9"/><line class="cls-13" x1="667.89" y1="299.9" x2="668.89" y2="299.9"/><line class="cls-13" x1="614.13" y1="356.84" x2="615.13" y2="356.84"/><line class="cls-14" x1="617.08" y1="356.84" x2="666.91" y2="356.84"/><line class="cls-13" x1="667.89" y1="356.84" x2="668.89" y2="356.84"/></g><g id="图层_3" data-name="图层 3"><path class="cls-27" d="M854.71,149.86c3.9,2.25,3.92,5.9,0,8.14l-32.69,19A15.49,15.49,0,0,1,808,177L775.1,158c-3.89-2.24-3.92-5.89,0-8.14l32.69-19a15.52,15.52,0,0,1,14.06,0Z"/><path class="cls-28" d="M857.22,153.63V83.76h0c.09-1.54-.88-3.1-2.92-4.28l-32.91-19a15.47,15.47,0,0,0-14,0l-32.7,19a6,6,0,0,0-2.55,2.6h-.34v1.5l.06,69.58a3.39,3.39,0,0,0,0,1.27v0h0a5.39,5.39,0,0,0,2.86,3.43l32.91,19a15.49,15.49,0,0,0,14.06,0l32.69-19c2-1.17,2.95-2.7,2.87-4.23Z"/><path class="cls-29" d="M815.05,175.38a11.23,11.23,0,0,1-5.38-1.24l-32.91-19c-1-.56-1.28-1.09-1.28-1.22s.29-.64,1.24-1.19l32.7-19a11,11,0,0,1,5.34-1.24,11.15,11.15,0,0,1,5.39,1.24l32.91,19c1,.57,1.28,1.1,1.28,1.22s-.3.64-1.24,1.19l-32.69,19A11,11,0,0,1,815.05,175.38Z"/><path class="cls-30" d="M854.71,206.5c3.9,2.25,3.92,5.9,0,8.14l-32.69,19a15.49,15.49,0,0,1-14.06,0l-32.91-19c-3.89-2.24-3.92-5.89,0-8.14l32.69-19a15.49,15.49,0,0,1,14.06,0Z"/><path class="cls-31" d="M857.22,210.27V140.39h0c.09-1.54-.88-3.1-2.92-4.28l-32.91-19a15.47,15.47,0,0,0-14,0l-32.7,19a5.85,5.85,0,0,0-2.55,2.6h-.34v1.5l.06,69.58a3.39,3.39,0,0,0,0,1.27v0h0a5.39,5.39,0,0,0,2.86,3.43l32.91,19a15.52,15.52,0,0,0,14.06,0l32.69-19c2-1.17,2.95-2.7,2.87-4.23Z"/><path class="cls-32" d="M815.05,232a11.11,11.11,0,0,1-5.38-1.25l-32.91-19c-1-.56-1.28-1.09-1.28-1.22s.29-.64,1.24-1.19l32.7-19a12.27,12.27,0,0,1,10.73,0l32.91,19c1,.56,1.28,1.09,1.28,1.22s-.3.64-1.24,1.19l-32.69,19A11.14,11.14,0,0,1,815.05,232Z"/><path class="cls-33" d="M878.71,276.39c6.28,3.63,6.32,9.51.08,13.13l-52.73,30.64c-6.24,3.63-16.39,3.63-22.67,0l-53.07-30.65c-6.28-3.62-6.32-9.5-.08-13.13L803,245.75c6.24-3.63,16.39-3.62,22.67,0Z"/><path class="cls-34" d="M882.75,282.47V169.78h0c.14-2.49-1.42-5-4.71-6.9L825,132.23c-6.28-3.62-16.43-3.62-22.67,0l-52.72,30.64a9.65,9.65,0,0,0-4.13,4.19h-.53v2.42l.1,112.2a5.29,5.29,0,0,0,0,2.06v0h0c.4,2,1.93,4,4.62,5.54l53.07,30.64c6.28,3.62,16.43,3.63,22.68,0l52.72-30.64c3.23-1.88,4.76-4.36,4.63-6.82Z"/><path class="cls-35" d="M814.74,317.54a18,18,0,0,1-8.68-2L753,284.9c-1.57-.91-2.06-1.77-2.06-2s.47-1,2-1.92l52.73-30.64a17.72,17.72,0,0,1,8.62-2,18,18,0,0,1,8.69,2L876,281c1.57.91,2.06,1.76,2.06,2s-.47,1-2,1.91l-52.73,30.64A17.77,17.77,0,0,1,814.74,317.54Z"/><path class="cls-36" d="M854.71,350.72c3.9,2.24,3.92,5.89,0,8.14l-32.69,19a15.49,15.49,0,0,1-14.06,0l-32.91-19c-3.89-2.25-3.92-5.9,0-8.15l32.69-19a15.52,15.52,0,0,1,14.06,0Z"/><path class="cls-37" d="M857.22,354.49V284.61h0c.09-1.54-.88-3.11-2.92-4.28l-32.91-19a15.5,15.5,0,0,0-14,0l-32.7,19a6,6,0,0,0-2.55,2.6h-.34v1.5l.06,69.58a3.44,3.44,0,0,0,0,1.28h0a5.39,5.39,0,0,0,2.86,3.43l32.91,19a15.49,15.49,0,0,0,14.06,0l32.69-19c2-1.16,2.95-2.7,2.87-4.22Z"/><path class="cls-38" d="M815.05,376.23a11.11,11.11,0,0,1-5.38-1.24l-32.91-19c-1-.56-1.28-1.09-1.28-1.22s.29-.64,1.24-1.19l32.7-19a11,11,0,0,1,5.34-1.24,11.15,11.15,0,0,1,5.39,1.25l32.91,19c1,.56,1.28,1.09,1.28,1.22s-.3.64-1.24,1.18l-32.69,19A11,11,0,0,1,815.05,376.23Z"/><line class="cls-13" x1="859.22" y1="153.93" x2="860.22" y2="153.93"/><line class="cls-14" x1="862.17" y1="153.93" x2="912" y2="153.93"/><line class="cls-13" x1="912.98" y1="153.93" x2="913.98" y2="153.93"/><line class="cls-13" x1="859.22" y1="210.87" x2="860.22" y2="210.87"/><line class="cls-14" x1="862.17" y1="210.87" x2="912" y2="210.87"/><line class="cls-13" x1="912.98" y1="210.87" x2="913.98" y2="210.87"/><line class="cls-13" x1="884.44" y1="282.03" x2="885.44" y2="282.03"/><line class="cls-14" x1="887.4" y1="282.03" x2="937.23" y2="282.03"/><line class="cls-13" x1="938.21" y1="282.03" x2="939.21" y2="282.03"/><line class="cls-13" x1="859.22" y1="354.8" x2="860.22" y2="354.8"/><line class="cls-14" x1="862.17" y1="354.8" x2="912" y2="354.8"/><line class="cls-13" x1="912.98" y1="354.8" x2="913.98" y2="354.8"/></g><g id="图层_4" data-name="图层 4"><path class="cls-39" d="M1098.43,150.9c3.89,2.24,3.92,5.89,0,8.14l-32.7,19a15.49,15.49,0,0,1-14.06,0l-32.9-19c-3.9-2.25-3.92-5.9-.05-8.15l32.69-19a15.52,15.52,0,0,1,14.06,0Z"/><path class="cls-40" d="M1100.94,154.67V84.79h0c.08-1.54-.88-3.11-2.92-4.28l-32.91-19a15.52,15.52,0,0,0-14.06,0l-32.69,19a6,6,0,0,0-2.56,2.6h-.33v1.5l.07,69.58a3.44,3.44,0,0,0,0,1.28h0a5.42,5.42,0,0,0,2.86,3.43l32.91,19a15.49,15.49,0,0,0,14.06,0l32.7-19c2-1.16,3-2.7,2.87-4.22Z"/><path class="cls-41" d="M1058.76,176.41a11.14,11.14,0,0,1-5.38-1.24l-32.91-19c-1-.56-1.28-1.09-1.28-1.22s.3-.64,1.25-1.19l32.69-19a11,11,0,0,1,5.35-1.24,11.11,11.11,0,0,1,5.38,1.25l32.91,19c1,.56,1.28,1.09,1.28,1.22s-.29.64-1.24,1.18l-32.69,19A11,11,0,0,1,1058.76,176.41Z"/><path class="cls-42" d="M1098.43,207.54c3.89,2.24,3.92,5.89,0,8.14l-32.7,19a15.52,15.52,0,0,1-14.06,0l-32.9-19c-3.9-2.25-3.92-5.9-.05-8.15l32.69-19a15.52,15.52,0,0,1,14.06,0Z"/><path class="cls-43" d="M1100.94,211.3V141.43h0c.08-1.55-.88-3.11-2.92-4.28l-32.91-19a15.52,15.52,0,0,0-14.06,0l-32.69,19a6,6,0,0,0-2.56,2.6h-.33v1.5l.07,69.58a3.44,3.44,0,0,0,0,1.28h0a5.42,5.42,0,0,0,2.86,3.43l32.91,19a15.49,15.49,0,0,0,14.06,0l32.7-19c2-1.16,3-2.7,2.87-4.23Z"/><path class="cls-44" d="M1058.76,233.05a11.14,11.14,0,0,1-5.38-1.24l-32.91-19c-1-.56-1.28-1.09-1.28-1.22s.3-.64,1.25-1.19l32.69-19a11,11,0,0,1,5.35-1.24,11.23,11.23,0,0,1,5.38,1.24l32.91,19c1,.56,1.28,1.09,1.28,1.22s-.29.63-1.24,1.18l-32.69,19A11,11,0,0,1,1058.76,233.05Z"/><path class="cls-45" d="M1098.43,263.77c3.89,2.25,3.92,5.89,0,8.14l-32.7,19a15.49,15.49,0,0,1-14.06,0l-32.9-19c-3.9-2.25-3.92-5.89-.05-8.14l32.69-19a15.49,15.49,0,0,1,14.06,0Z"/><path class="cls-46" d="M1100.94,267.54V197.66h0c.08-1.54-.88-3.1-2.92-4.28l-32.91-19a15.49,15.49,0,0,0-14.06,0l-32.69,19a6,6,0,0,0-2.56,2.59h-.33v1.49l.07,69.58a3.44,3.44,0,0,0,0,1.28h0a5.39,5.39,0,0,0,2.86,3.43l32.91,19a15.49,15.49,0,0,0,14.06,0l32.7-19c2-1.16,3-2.7,2.87-4.22Z"/><path class="cls-47" d="M1058.76,289.28a11.14,11.14,0,0,1-5.38-1.24l-32.91-19c-1-.56-1.28-1.09-1.28-1.22s.3-.64,1.25-1.19l32.69-19a12.27,12.27,0,0,1,10.73,0l32.91,19c1,.56,1.28,1.09,1.28,1.22s-.29.64-1.24,1.19l-32.69,19A11.12,11.12,0,0,1,1058.76,289.28Z"/><path class="cls-48" d="M1123.31,334.2c6.29,3.64,6.33,9.53.08,13.16l-52.85,30.72c-6.26,3.63-16.44,3.63-22.73,0l-53.19-30.71c-6.29-3.64-6.33-9.53-.07-13.17l52.84-30.71c6.25-3.63,16.43-3.63,22.72,0Z"/><path class="cls-49" d="M1127.36,340.3v-113h0c.14-2.49-1.42-5-4.72-6.92l-53.19-30.71c-6.29-3.63-16.47-3.64-22.72,0l-52.84,30.72a9.68,9.68,0,0,0-4.14,4.19h-.53V227l.1,112.47a5.29,5.29,0,0,0,0,2.06v0h0c.4,2,1.94,4,4.63,5.55l53.19,30.71c6.29,3.63,16.47,3.64,22.73,0l52.84-30.71c3.24-1.88,4.78-4.37,4.65-6.83Z"/><path class="cls-50" d="M1059.19,375.45a18.07,18.07,0,0,1-8.7-2L997.3,342.73c-1.58-.91-2.07-1.77-2.07-2s.48-1,2-1.92l52.85-30.71a17.77,17.77,0,0,1,8.64-2,18.14,18.14,0,0,1,8.71,2l53.19,30.71c1.57.91,2.06,1.77,2.06,2s-.47,1-2,1.91l-52.84,30.71A17.77,17.77,0,0,1,1059.19,375.45Z"/><line class="cls-13" x1="1102.94" y1="154.67" x2="1103.94" y2="154.67"/><line class="cls-14" x1="1105.89" y1="154.67" x2="1155.72" y2="154.67"/><line class="cls-13" x1="1156.7" y1="154.67" x2="1157.7" y2="154.67"/><line class="cls-13" x1="1102.94" y1="211.61" x2="1103.94" y2="211.61"/><line class="cls-14" x1="1105.89" y1="211.61" x2="1155.72" y2="211.61"/><line class="cls-13" x1="1156.7" y1="211.61" x2="1157.7" y2="211.61"/><line class="cls-13" x1="1102.94" y1="267.55" x2="1103.94" y2="267.55"/><line class="cls-14" x1="1105.89" y1="267.55" x2="1155.72" y2="267.55"/><line class="cls-13" x1="1156.7" y1="267.55" x2="1157.7" y2="267.55"/><line class="cls-13" x1="1129.32" y1="340.78" x2="1130.32" y2="340.78"/><line class="cls-14" x1="1132.27" y1="340.78" x2="1182.1" y2="340.78"/><line class="cls-13" x1="1183.08" y1="340.78" x2="1184.08" y2="340.78"/></g><g id="图层_5" data-name="图层 5"><path class="cls-51" d="M148,181c3.89,2.25,3.92,5.9.05,8.15l-32.7,19a15.52,15.52,0,0,1-14.06,0l-32.9-19c-3.9-2.25-3.92-5.9-.05-8.15L101,162a15.55,15.55,0,0,1,14.06,0Z"/><path class="cls-52" d="M150.52,184.81V114.94h0c.08-1.55-.88-3.11-2.92-4.29l-32.91-19a15.52,15.52,0,0,0-14.06,0l-32.69,19a6,6,0,0,0-2.56,2.6H65v1.5l.07,69.58a3.39,3.39,0,0,0,0,1.27v0h0A5.42,5.42,0,0,0,68,189l32.91,19a15.49,15.49,0,0,0,14.06,0l32.7-19c2-1.16,3-2.7,2.87-4.23Z"/><path class="cls-53" d="M108.34,206.56a11.14,11.14,0,0,1-5.38-1.24l-32.91-19c-1-.57-1.28-1.1-1.28-1.22s.3-.64,1.25-1.19l32.69-19a11,11,0,0,1,5.35-1.24,11.11,11.11,0,0,1,5.38,1.24l32.91,19c1,.57,1.28,1.1,1.28,1.23s-.29.63-1.24,1.18l-32.69,19A11,11,0,0,1,108.34,206.56Z"/><path class="cls-54" d="M148,237.68c3.89,2.25,3.92,5.9.05,8.15l-32.7,19a15.52,15.52,0,0,1-14.06,0l-32.9-19c-3.9-2.25-3.92-5.9-.05-8.15l32.69-19a15.52,15.52,0,0,1,14.06,0Z"/><path class="cls-55" d="M150.52,241.45V171.58h0c.08-1.55-.88-3.11-2.92-4.29l-32.91-19a15.52,15.52,0,0,0-14.06,0l-32.69,19a6,6,0,0,0-2.56,2.6H65v1.5L65.11,241a3.39,3.39,0,0,0,0,1.27v0h0A5.42,5.42,0,0,0,68,245.68l32.91,19a15.49,15.49,0,0,0,14.06,0l32.7-19c2-1.16,3-2.7,2.87-4.23Z"/><path class="cls-56" d="M108.34,263.2A11.14,11.14,0,0,1,103,262L70.05,243c-1-.57-1.28-1.1-1.28-1.23s.3-.63,1.25-1.18l32.69-19a11,11,0,0,1,5.35-1.24,11.11,11.11,0,0,1,5.38,1.24l32.91,19c1,.57,1.28,1.1,1.28,1.23s-.29.63-1.24,1.18L113.7,262A11,11,0,0,1,108.34,263.2Z"/><path class="cls-57" d="M148,294.92c3.89,2.24,3.92,5.89.05,8.14l-32.7,19a15.49,15.49,0,0,1-14.06,0l-32.9-19c-3.9-2.25-3.92-5.9-.05-8.15l32.69-19a15.52,15.52,0,0,1,14.06,0Z"/><path class="cls-58" d="M150.52,298.69V228.81h0c.08-1.54-.88-3.11-2.92-4.28l-32.91-19a15.52,15.52,0,0,0-14.06,0l-32.69,19a6,6,0,0,0-2.56,2.6H65v1.5l.07,69.58a3.44,3.44,0,0,0,0,1.28h0A5.42,5.42,0,0,0,68,302.91l32.91,19a15.49,15.49,0,0,0,14.06,0l32.7-19c2-1.16,3-2.7,2.87-4.22Z"/><path class="cls-59" d="M108.34,320.43a11.14,11.14,0,0,1-5.38-1.24l-32.91-19c-1-.56-1.28-1.09-1.28-1.22s.3-.64,1.25-1.19l32.69-19a11,11,0,0,1,5.35-1.24,11.11,11.11,0,0,1,5.38,1.25l32.91,19c1,.56,1.28,1.09,1.28,1.22s-.29.64-1.24,1.18l-32.69,19A11,11,0,0,1,108.34,320.43Z"/><path class="cls-60" d="M148,351.56c3.89,2.24,3.92,5.89.05,8.14l-32.7,19a15.49,15.49,0,0,1-14.06,0l-32.9-19c-3.9-2.25-3.92-5.9-.05-8.15l32.69-19a15.52,15.52,0,0,1,14.06,0Z"/><path class="cls-61" d="M150.52,355.33V285.45h0c.08-1.55-.88-3.11-2.92-4.28l-32.91-19a15.52,15.52,0,0,0-14.06,0l-32.69,19a6,6,0,0,0-2.56,2.6H65v1.5l.07,69.58a3.44,3.44,0,0,0,0,1.28h0A5.42,5.42,0,0,0,68,359.55l32.91,19a15.49,15.49,0,0,0,14.06,0l32.7-19c2-1.16,3-2.7,2.87-4.22Z"/><path class="cls-62" d="M108.34,377.07a11.14,11.14,0,0,1-5.38-1.24l-32.91-19c-1-.56-1.28-1.09-1.28-1.22s.3-.64,1.25-1.19l32.69-19a11,11,0,0,1,5.35-1.24,11.11,11.11,0,0,1,5.38,1.25l32.91,19c1,.56,1.28,1.09,1.28,1.22s-.29.63-1.24,1.18l-32.69,19A11,11,0,0,1,108.34,377.07Z"/><line class="cls-13" x1="151.52" y1="184.81" x2="152.52" y2="184.81"/><line class="cls-14" x1="154.47" y1="184.81" x2="204.3" y2="184.81"/><line class="cls-13" x1="205.28" y1="184.81" x2="206.28" y2="184.81"/><line class="cls-13" x1="151.52" y1="241.75" x2="152.52" y2="241.75"/><line class="cls-14" x1="154.47" y1="241.75" x2="204.3" y2="241.75"/><line class="cls-13" x1="205.28" y1="241.75" x2="206.28" y2="241.75"/><line class="cls-13" x1="151.52" y1="298.7" x2="152.52" y2="298.7"/><line class="cls-14" x1="154.47" y1="298.7" x2="204.3" y2="298.7"/><line class="cls-13" x1="205.28" y1="298.7" x2="206.28" y2="298.7"/><line class="cls-13" x1="151.52" y1="355.64" x2="152.52" y2="355.64"/><line class="cls-14" x1="154.47" y1="355.64" x2="204.3" y2="355.64"/><line class="cls-13" x1="205.28" y1="355.64" x2="206.28" y2="355.64"/></g></svg>