<?xml version="1.0" ?><svg viewBox="0 0 64 64" xmlns="http://www.w3.org/2000/svg"><title/><g id="Cloud"><path d="M55.9771,35.2549A12.015,12.015,0,0,0,44,24a12.1858,12.1858,0,0,0-1.6792.1162A14.9915,14.9915,0,0,0,14.8623,26.001,8.01,8.01,0,0,0,7,34a7.91,7.91,0,0,0,.0537.916A9.0644,9.0644,0,0,0,2,43a8.8727,8.8727,0,0,0,1.2188,4.5078A.9991.9991,0,0,0,4.08,48H59.74a.9991.9991,0,0,0,.8194-.4268A7.942,7.942,0,0,0,62,43,8.0294,8.0294,0,0,0,55.9771,35.2549Z" style="fill:#9cd5f2"/><path d="M55.9771,35.2549A12.015,12.015,0,0,0,44,24a12.1858,12.1858,0,0,0-1.6792.1162A14.9915,14.9915,0,0,0,14.8623,26.001,8.01,8.01,0,0,0,7,34a7.91,7.91,0,0,0,.0537.916A9.0644,9.0644,0,0,0,2,43a8.8727,8.8727,0,0,0,1.2188,4.5078A.9991.9991,0,0,0,4.08,48H59.74a.9991.9991,0,0,0,.8194-.4268A7.942,7.942,0,0,0,62,43,8.0294,8.0294,0,0,0,55.9771,35.2549ZM59.1934,46H4.6787A6.91,6.91,0,0,1,4,43a7.0491,7.0491,0,0,1,4.5259-6.5454,1,1,0,0,0,.62-1.1533A5.9891,5.9891,0,0,1,15,28a4.4324,4.4324,0,0,1,.4751.0244,1.0006,1.0006,0,0,0,1.064-.7119,12.9923,12.9923,0,0,1,24.3-1.6694,1.0011,1.0011,0,0,0,1.1147.5659A10.0112,10.0112,0,0,1,54,36.08a1,1,0,0,0,.86.99A6.0121,6.0121,0,0,1,60,43,5.9447,5.9447,0,0,1,59.1934,46Z" style="fill:#776d8a"/></g></svg>