<?xml version="1.0" ?><svg data-name="Layer 1" id="Layer_1" viewBox="0 0 50 50" xmlns="http://www.w3.org/2000/svg"><title/><path d="M40.44,22a9.24,9.24,0,0,0,.06-1.05,9.51,9.51,0,0,0-15.18-7.62A9.5,9.5,0,0,0,7.93,18.58a7.5,7.5,0,0,0,0,.82A10.68,10.68,0,1,0,18.22,37.86a9.54,9.54,0,0,0,7,3.06,9.43,9.43,0,0,0,7.15-3.25A9.5,9.5,0,1,0,40.44,22Zm-.94,17a7.46,7.46,0,0,1-6.31-3.46,1,1,0,0,0-1.69,0,7.47,7.47,0,0,1-12.35.38,1,1,0,0,0-.72-.4,1,1,0,0,0-.78.27A8.68,8.68,0,1,1,9.34,21.06a1,1,0,0,0,.72-1.14,7.06,7.06,0,0,1-.13-1.34,7.5,7.5,0,0,1,14.23-3.31,1,1,0,0,0,.73.55,1,1,0,0,0,.87-.27,7.47,7.47,0,0,1,12.51,7.14,1,1,0,0,0,.2.87,1.05,1.05,0,0,0,.81.37l.22,0a7.51,7.51,0,0,1,0,15Z"/></svg>